<svg width="16" height="14" viewBox="0 0 16 14" fill="none" xmlns="http://www.w3.org/2000/svg">
<path fill-rule="evenodd" clip-rule="evenodd" d="M13.9617 4.1429C13.9617 6.24684 12.1894 7.95242 10.0031 7.95242C7.81683 7.95242 6.04452 6.24684 6.04452 4.1429C6.04452 2.03896 7.81683 0.333374 10.0031 0.333374C12.1894 0.333374 13.9617 2.03896 13.9617 4.1429ZM12.6421 4.1429C12.6421 5.54553 11.4606 6.68258 10.0031 6.68258C8.54558 6.68258 7.36404 5.54553 7.36404 4.1429C7.36404 2.74027 8.54558 1.60322 10.0031 1.60322C11.4606 1.60322 12.6421 2.74027 12.6421 4.1429Z" fill="white" fill-opacity="0.72"/>
<path d="M5.516 1.65389C5.8731 1.58414 6.10382 1.24901 6.03133 0.905357C5.95884 0.561708 5.6106 0.339675 5.25351 0.409432C3.44635 0.762454 2.08594 2.29901 2.08594 4.14276C2.08594 5.98652 3.44635 7.52307 5.25351 7.87609C5.6106 7.94585 5.95884 7.72382 6.03133 7.38017C6.10382 7.03652 5.8731 6.70139 5.516 6.63163C4.31169 6.39637 3.40547 5.3707 3.40547 4.14276C3.40547 2.91482 4.31169 1.88915 5.516 1.65389Z" fill="white" fill-opacity="0.72"/>
<path fill-rule="evenodd" clip-rule="evenodd" d="M6.50497 9.58641C7.31836 8.98556 8.45203 8.58734 10.0031 8.58734C11.5542 8.58734 12.6879 8.98557 13.5013 9.58642C14.3086 10.1828 14.7478 10.9397 14.986 11.5769C15.1956 12.1378 15.0487 12.6868 14.6972 13.0759C14.3577 13.4516 13.8437 13.6667 13.3019 13.6667H6.7043C6.16254 13.6667 5.64852 13.4516 5.30902 13.0759C4.95747 12.6868 4.81061 12.1378 5.02026 11.5769C5.25845 10.9397 5.69765 10.1828 6.50497 9.58641ZM7.30843 10.5937C6.75281 11.0041 6.43935 11.532 6.26189 12.0068C6.22486 12.1058 6.24523 12.1768 6.30477 12.2427C6.37636 12.3219 6.51729 12.3969 6.7043 12.3969H13.3019C13.4889 12.3969 13.6298 12.3219 13.7014 12.2427C13.761 12.1768 13.7813 12.1058 13.7443 12.0068C13.5669 11.532 13.2534 11.0041 12.6978 10.5937C12.1483 10.1878 11.3088 9.85718 10.0031 9.85718C8.6975 9.85718 7.85797 10.1878 7.30843 10.5937Z" fill="white" fill-opacity="0.72"/>
<path d="M2.25149 11.9377C2.38655 11.4373 2.61835 10.911 3.0009 10.5178C3.36449 10.144 3.89403 9.85718 4.72499 9.85718C5.08937 9.85718 5.38475 9.57292 5.38475 9.22226C5.38475 8.87161 5.08937 8.58734 4.72499 8.58734C3.52378 8.58734 2.64709 9.02337 2.03758 9.64997C1.44704 10.2571 1.13889 11.0088 0.974337 11.6185C0.65554 12.7998 1.69965 13.6667 2.74569 13.6667H3.25319C3.61756 13.6667 3.91295 13.3824 3.91295 13.0318C3.91295 12.6811 3.61756 12.3969 3.25319 12.3969H2.74569C2.55928 12.3969 2.41084 12.3231 2.32645 12.2334C2.25001 12.1522 2.21961 12.0559 2.25149 11.9377Z" fill="white" fill-opacity="0.72"/>
</svg>
