<svg width="24" height="24" viewBox="0 0 24 24" fill="none" xmlns="http://www.w3.org/2000/svg">
    <path d="M11.9977 9.09091C12.3994 9.09091 12.725 9.41652 12.725 9.81818V11.2727H14.1796C14.5812 11.2727 14.9068 11.5983 14.9068 12C14.9068 12.4017 14.5812 12.7273 14.1796 12.7273H12.725V14.1818C12.725 14.5835 12.3994 14.9091 11.9977 14.9091C11.5961 14.9091 11.2705 14.5835 11.2705 14.1818V12.7273H9.81592C9.41425 12.7273 9.08864 12.4017 9.08864 12C9.08864 11.5983 9.41425 11.2727 9.81592 11.2727H11.2705V9.81818C11.2705 9.41652 11.5961 9.09091 11.9977 9.09091Z" fill="currentColor"/>
    <path fill-rule="evenodd" clip-rule="evenodd" d="M13.4523 5.45455C13.4523 5.48818 13.4511 5.51964 13.4489 5.54905C14.5862 5.71077 15.4539 6.07905 16.1054 6.64614C17.0084 7.43219 17.3738 8.49584 17.5748 9.52772C17.6755 10.0449 17.7399 10.5834 17.8013 11.0984L17.8035 11.1174C17.8651 11.6349 17.9243 12.1318 18.0138 12.6157C18.1949 13.594 18.4869 14.4355 19.085 15.1036C19.2329 15.2687 19.2973 15.4922 19.2602 15.7107C19.223 15.9292 19.0882 16.1188 18.8941 16.2257C17.708 16.879 16.3222 17.3265 14.8664 17.577C14.635 18.9523 13.4387 20 11.9977 20C10.5567 20 9.36044 18.9523 9.12908 17.577C7.67332 17.3265 6.28744 16.879 5.1014 16.2257C4.90727 16.1188 4.7725 15.9292 4.73532 15.7107C4.69814 15.4922 4.76261 15.2687 4.91044 15.1036C5.50859 14.4355 5.8006 13.594 5.98162 12.6157C6.07117 12.1318 6.13031 11.6349 6.19191 11.1174L6.19417 11.0984C6.25548 10.5834 6.31992 10.0449 6.42064 9.52774C6.62161 8.49585 6.98692 7.4322 7.89 6.64614C8.54153 6.07903 9.40924 5.71075 10.5466 5.54903C10.5443 5.51963 10.5432 5.48818 10.5432 5.45455C10.5432 4.65122 11.1944 4 11.9977 4C12.8011 4 13.4523 4.65122 13.4523 5.45455ZM10.7114 17.7706C10.9554 18.2315 11.4399 18.5455 11.9977 18.5455C12.5555 18.5455 13.04 18.2315 13.284 17.7706C12.8562 17.8024 12.4264 17.8182 11.9977 17.8182C11.5691 17.8182 11.1393 17.8024 10.7114 17.7706ZM6.55164 15.3195C8.12324 16.0074 10.0466 16.3636 11.9977 16.3636C13.9489 16.3636 15.8722 16.0074 17.4438 15.3195C16.974 14.5437 16.7345 13.6962 16.5836 12.8804C16.4854 12.3497 16.4214 11.8125 16.3615 11.3091L16.3569 11.2704C16.2946 10.7465 16.2358 10.2614 16.147 9.80581C15.9691 8.89214 15.6904 8.21331 15.1504 7.74328C14.612 7.27467 13.6914 6.90909 11.9977 6.90909C10.3039 6.90909 9.38335 7.27467 8.84498 7.74328C8.30498 8.2133 8.0263 8.89213 7.84836 9.8058C7.75962 10.2614 7.70087 10.7465 7.63852 11.2703L7.6339 11.3091C7.574 11.8125 7.51009 12.3497 7.41189 12.8804C7.26093 13.6962 7.02152 14.5437 6.55164 15.3195Z" fill="currentColor"/>
    </svg>
    