<svg width="24" height="24" viewBox="0 0 24 24" fill="none" xmlns="http://www.w3.org/2000/svg">
    <path fill-rule="evenodd" clip-rule="evenodd" d="M13.4489 5.54905C13.4512 5.51964 13.4523 5.48819 13.4523 5.45455C13.4523 4.65122 12.8011 4 11.9977 4C11.1944 4 10.5432 4.65122 10.5432 5.45455C10.5432 5.48818 10.5443 5.51963 10.5466 5.54903C9.40925 5.71074 8.54153 6.07903 7.89 6.64614C6.98692 7.4322 6.62161 8.49586 6.42064 9.52774C6.31992 10.0449 6.25548 10.5834 6.19417 11.0984L6.19191 11.1174C6.13031 11.6349 6.07117 12.1318 5.98162 12.6157C5.8006 13.594 5.50859 14.4355 4.91044 15.1036C4.76261 15.2687 4.69814 15.4922 4.73532 15.7107C4.7725 15.9292 4.90727 16.1188 5.1014 16.2257C6.28758 16.8791 7.67363 17.3266 9.12958 17.5771C9.13472 17.6075 9.14034 17.6377 9.14643 17.6678C9.22716 18.0668 9.39087 18.445 9.62757 18.7776C9.89376 19.1517 10.2447 19.4574 10.6517 19.6698C11.0587 19.8823 11.5101 19.9954 11.9692 19.9999C12.4283 20.0044 12.8819 19.9002 13.2929 19.6958C13.704 19.4914 14.0609 19.1926 14.3344 18.8238C14.5775 18.4959 14.7487 18.121 14.8372 17.7236C14.848 17.6751 14.8576 17.6263 14.8659 17.5771C16.3219 17.3266 17.7079 16.8791 18.8941 16.2257C19.0882 16.1188 19.223 15.9292 19.2602 15.7107C19.2973 15.4922 19.2329 15.2687 19.085 15.1036C18.4869 14.4355 18.1949 13.594 18.0138 12.6157C17.9243 12.1318 17.8651 11.6349 17.8035 11.1174L17.8013 11.0984C17.74 10.5834 17.6755 10.0449 17.5748 9.52773C17.3738 8.49584 17.0085 7.4322 16.1054 6.64614C15.4539 6.07905 14.5862 5.71077 13.4489 5.54905ZM13.2837 17.7706C12.856 17.8024 12.4263 17.8182 11.9977 17.8182C11.5692 17.8182 11.1395 17.8024 10.7118 17.7706C10.7417 17.8272 10.7754 17.8819 10.8127 17.9343C10.9458 18.1213 11.1212 18.2742 11.3247 18.3804C11.5282 18.4866 11.7539 18.5431 11.9835 18.5454C12.213 18.5476 12.4398 18.4955 12.6453 18.3933C12.8509 18.2911 13.0293 18.1417 13.1661 17.9574C13.2101 17.898 13.2494 17.8356 13.2837 17.7706ZM11.9977 16.3636C10.0466 16.3636 8.12324 16.0074 6.55164 15.3195C7.02152 14.5437 7.26093 13.6962 7.41189 12.8804C7.51009 12.3497 7.574 11.8125 7.63391 11.3091L7.63852 11.2703C7.70087 10.7465 7.75962 10.2614 7.84836 9.8058C8.02631 8.89213 8.30499 8.21331 8.84498 7.74328C9.38335 7.27467 10.304 6.90909 11.9977 6.90909C13.6914 6.90909 14.612 7.27467 15.1504 7.74328C15.6904 8.21331 15.9691 8.89214 16.1471 9.80581C16.2358 10.2614 16.2946 10.7465 16.3569 11.2704L16.3615 11.3091C16.4214 11.8125 16.4854 12.3497 16.5836 12.8804C16.7345 13.6962 16.974 14.5437 17.4438 15.3195C15.8722 16.0074 13.9489 16.3636 11.9977 16.3636Z" fill="currentColor"/>
    </svg>
    