<?xml version="1.0" standalone="no"?>
<!DOCTYPE svg PUBLIC "-//W3C//DTD SVG 20010904//EN"
 "http://www.w3.org/TR/2001/REC-SVG-20010904/DTD/svg10.dtd">
<svg version="1.0" xmlns="http://www.w3.org/2000/svg"
 width="128.000000pt" height="128.000000pt" viewBox="0 0 128.000000 128.000000"
 preserveAspectRatio="xMidYMid meet">

<g transform="translate(0.000000,128.000000) scale(0.100000,-0.100000)"
fill="#000000" stroke="none">
<path d="M238 1266 c-90 -25 -164 -87 -207 -176 l-26 -55 0 -395 0 -395 27
-56 c36 -71 89 -125 158 -158 l55 -26 395 0 c385 0 396 1 442 22 66 30 141
104 169 166 24 52 24 53 24 447 l0 395 -27 56 c-36 71 -89 125 -158 158 l-55
26 -375 2 c-281 2 -387 -1 -422 -11z m570 -239 l94 -54 -45 -27 -45 -26 -77
45 c-41 25 -78 45 -82 45 -3 0 -41 -20 -83 -45 l-77 -45 -47 26 -47 26 127 74
128 73 30 -18 c17 -11 73 -44 124 -74z m-424 -122 l39 -24 -46 -27 c-44 -27
-46 -30 -49 -81 l-3 -52 -42 27 c-41 26 -43 29 -43 79 0 50 1 53 43 77 51 31
52 31 101 1z m310 4 c20 -12 36 -25 36 -30 0 -5 -18 -18 -40 -29 l-41 -21 -39
22 c-22 13 -40 25 -40 29 0 7 70 49 82 50 4 0 23 -9 42 -21z m326 -5 c38 -26
40 -29 40 -80 0 -52 -1 -53 -42 -78 l-43 -26 -3 55 c-3 52 -5 55 -42 76 -22
13 -40 26 -40 31 0 7 68 47 83 48 4 0 25 -12 47 -26z m-449 -110 l80 -46 80
46 80 47 45 -26 45 -26 -3 -57 -3 -57 -77 -45 -78 -45 0 -92 0 -92 -45 -26
-44 -26 -46 26 -45 27 0 92 0 92 -80 48 -80 47 0 54 c0 52 1 54 43 79 23 14
43 25 45 26 2 0 39 -21 83 -46z m-281 -130 l40 -27 0 -92 0 -92 80 -44 80 -44
0 -53 0 -53 -57 32 c-32 18 -88 50 -125 72 l-68 39 0 144 c0 79 2 144 5 144 3
0 23 -12 45 -26z m763 -265 c-10 -10 -233 -139 -239 -139 -3 0 -4 24 -2 52 l3
53 78 43 77 44 0 93 0 94 43 25 42 26 3 -142 c1 -78 -1 -145 -5 -149z m-565
97 l3 -55 -46 25 c-45 26 -45 26 -45 80 l0 55 43 -25 c40 -24 42 -28 45 -80z
m405 -6 c-4 -4 -25 -17 -45 -29 l-38 -23 0 54 c0 52 1 54 43 79 l42 25 3 -49
c2 -28 0 -53 -5 -57z m-198 -196 l45 25 0 -54 c0 -53 -1 -54 -44 -78 l-44 -24
-46 25 c-46 25 -46 25 -46 80 l0 54 45 -27 46 -26 44 25z"/>
</g>
</svg>
