<svg width="20" height="20" viewBox="0 0 20 20" fill="none" xmlns="http://www.w3.org/2000/svg">
<path d="M6.78026 11.5875C7.1359 11.5875 7.4242 11.3032 7.4242 10.9525C7.4242 10.6019 7.1359 10.3176 6.78026 10.3176C6.42462 10.3176 6.13632 10.6019 6.13632 10.9525C6.13632 11.3032 6.42462 11.5875 6.78026 11.5875Z" fill="white" fill-opacity="0.9"/>
<path d="M9.99996 10.9525C9.99996 11.3032 9.71166 11.5875 9.35602 11.5875C9.00038 11.5875 8.71208 11.3032 8.71208 10.9525C8.71208 10.6019 9.00038 10.3176 9.35602 10.3176C9.71166 10.3176 9.99996 10.6019 9.99996 10.9525Z" fill="white" fill-opacity="0.9"/>
<path d="M11.9318 11.5875C12.2874 11.5875 12.5757 11.3032 12.5757 10.9525C12.5757 10.6019 12.2874 10.3176 11.9318 10.3176C11.5761 10.3176 11.2878 10.6019 11.2878 10.9525C11.2878 11.3032 11.5761 11.5875 11.9318 11.5875Z" fill="white" fill-opacity="0.9"/>
<path d="M7.4242 13.4922C7.4242 13.8429 7.1359 14.1271 6.78026 14.1271C6.42462 14.1271 6.13632 13.8429 6.13632 13.4922C6.13632 13.1416 6.42462 12.8573 6.78026 12.8573C7.1359 12.8573 7.4242 13.1416 7.4242 13.4922Z" fill="white" fill-opacity="0.9"/>
<path d="M9.35602 14.1271C9.71166 14.1271 9.99996 13.8429 9.99996 13.4922C9.99996 13.1416 9.71166 12.8573 9.35602 12.8573C9.00038 12.8573 8.71208 13.1416 8.71208 13.4922C8.71208 13.8429 9.00038 14.1271 9.35602 14.1271Z" fill="white" fill-opacity="0.9"/>
<path fill-rule="evenodd" clip-rule="evenodd" d="M7.4242 3.96842C7.4242 3.61776 7.1359 3.3335 6.78026 3.3335C6.42462 3.3335 6.13632 3.61776 6.13632 3.96842V4.60334H4.84844C3.78153 4.60334 2.91663 5.45613 2.91663 6.5081V14.7621C2.91663 15.814 3.78153 16.6668 4.84844 16.6668H15.1515C16.2184 16.6668 17.0833 15.814 17.0833 14.7621V6.5081C17.0833 5.45613 16.2184 4.60334 15.1515 4.60334H13.8636V3.96842C13.8636 3.61776 13.5753 3.3335 13.2197 3.3335C12.864 3.3335 12.5757 3.61776 12.5757 3.96842V4.60334H7.4242V3.96842ZM4.2045 6.5081C4.2045 6.15744 4.49281 5.87318 4.84844 5.87318H15.1515C15.5071 5.87318 15.7954 6.15744 15.7954 6.5081V7.77794H4.2045V6.5081ZM4.2045 9.04778H15.7954V14.7621C15.7954 15.1127 15.5071 15.397 15.1515 15.397H4.84844C4.49281 15.397 4.2045 15.1127 4.2045 14.7621V9.04778Z" fill="white" fill-opacity="0.9"/>
</svg>
