<svg width="24" height="24" viewBox="0 0 24 24" fill="none" xmlns="http://www.w3.org/2000/svg">
    <path d="M15.8047 10.4714C16.0651 10.2111 16.0651 9.78895 15.8047 9.5286C15.5444 9.26825 15.1223 9.26825 14.8619 9.5286L10.6667 13.7239L8.4714 11.5286C8.21106 11.2682 7.78894 11.2682 7.5286 11.5286C7.26825 11.7889 7.26825 12.2111 7.5286 12.4714L10.1953 15.1381C10.4556 15.3984 10.8777 15.3984 11.1381 15.1381L15.8047 10.4714Z" fill="currentColor" fill-opacity="0.9"/>
    <path fill-rule="evenodd" clip-rule="evenodd" d="M20 12C20 16.4183 16.4183 20 12 20C7.58172 20 4 16.4183 4 12C4 7.58172 7.58172 4 12 4C16.4183 4 20 7.58172 20 12ZM18.6667 12C18.6667 15.6819 15.6819 18.6667 12 18.6667C8.3181 18.6667 5.33333 15.6819 5.33333 12C5.33333 8.3181 8.3181 5.33333 12 5.33333C15.6819 5.33333 18.6667 8.3181 18.6667 12Z" fill="currentColor" fill-opacity="0.9"/>
    </svg>
    