<svg width="162" height="121" viewBox="0 0 162 121" fill="none" xmlns="http://www.w3.org/2000/svg">
    <g clip-path="url(#clip0_3035_49226)">
        <path fill-rule="evenodd" clip-rule="evenodd" d="M2.07617 72.1407L53.909 52.0969L70.5426 35.9893L22.7458 53.285L2.07617 72.1407Z" fill="#573363" />
        <path fill-rule="evenodd" clip-rule="evenodd" d="M123.89 50.8819L147.372 35.001L135.635 104.882C135.635 104.882 125.078 115.557 116.798 120.5L123.899 50.8819H123.89Z" fill="#724182" />
        <path fill-rule="evenodd" clip-rule="evenodd" d="M116.789 120.5C116.789 120.5 65.7359 120.663 29.0221 117.026C29.0221 117.026 22.3378 69.3476 23.1541 52.1062L123.89 50.8818C123.89 50.8818 119.519 101.59 116.789 120.5Z" fill="#8D4D9F" />
        <path fill-rule="evenodd" clip-rule="evenodd" d="M23.1543 52.0972L70.1077 35.1914L147.363 35.001L123.89 50.8819L23.1543 52.0972Z" fill="#C676E5" />
        <path fill-rule="evenodd" clip-rule="evenodd" d="M26.7002 51.5806C26.7002 51.5806 114.603 50.8278 123.881 49.4583C123.881 49.4583 142.991 37.7767 145.376 35.5274C145.376 35.5274 86.5324 35.4821 70.5336 35.99L26.7002 51.5806Z" fill="#724182" />
        <g style="mix-blend-mode:soft-light" opacity="0.58">
            <path d="M70.5428 35.9898L70.1074 51.0635L123.89 49.4582L145.385 35.5273C145.385 35.5273 94.0421 35.0738 70.5428 35.9898Z" fill="#C676E5" />
        </g>
        <path fill-rule="evenodd" clip-rule="evenodd" d="M11.6899 85.7731L12.6332 86.5712L111.701 90.4076L109.868 89.41C109.868 89.41 40.9938 84.3219 11.699 85.7731H11.6899Z" fill="#9F44BC" />
        <path fill-rule="evenodd" clip-rule="evenodd" d="M122.974 51.0635L109.859 89.4098C109.859 89.4098 54.6345 85.4101 11.6899 85.7729L23.1539 52.1065L122.974 51.0725V51.0635Z" fill="#B967D3" />
        <path fill-rule="evenodd" clip-rule="evenodd" d="M109.859 89.4005L111.691 90.4072L123.89 50.8818L122.974 51.0632L109.859 89.4005Z" fill="#9F44BC" />
        <path fill-rule="evenodd" clip-rule="evenodd" d="M123.89 50.8819L137.341 85.7726L151.643 74.1182L160.377 68.749C160.377 68.749 152.369 43.4811 147.363 35.001L123.881 50.8819H123.89Z" fill="#B967D3" />
        <path fill-rule="evenodd" clip-rule="evenodd" d="M123.89 50.8818L123.745 52.2695L135.799 86.2442L137.331 85.7726L123.89 50.8818Z" fill="#C676E5" />
        <path fill-rule="evenodd" clip-rule="evenodd" d="M147.362 35.0008C147.362 35.0008 152.187 20.3352 153.366 16.4716C154.545 12.6079 161.193 0.5 161.193 0.5C161.193 0.5 114.802 4.87155 107.746 5.86921C100.681 6.86687 82.2153 4.13691 82.2153 4.13691L70.1074 35.1913L147.362 34.9917V35.0008Z" fill="#B967D3" />
        <path opacity="0.36" d="M48.3223 51.4622C48.3223 51.4622 69.4363 57.3302 89.4439 59.5795C109.451 61.8197 119.99 51.2445 119.99 51.2445L118.303 49.875L48.3223 51.4713V51.4622Z" fill="#791B40" />
        <path fill-rule="evenodd" clip-rule="evenodd" d="M161.194 0.5V2.41369C161.194 2.41369 155.942 10.794 153.938 16.39C151.933 21.9859 147.362 35.0008 147.362 35.0008H146.682C146.682 35.0008 152.831 17.433 154.083 14.2767C156.505 8.17289 161.194 0.5 161.194 0.5V0.5Z" fill="url(#paint0_radial_3035_49226)" />
        <path fill-rule="evenodd" clip-rule="evenodd" d="M23.1542 52.0967L0.806641 70.644L2.07639 72.1405L22.746 53.2848L23.1542 52.0967Z" fill="#C676E5" />
        <path style="mix-blend-mode:multiply" opacity="0.5" fill-rule="evenodd" clip-rule="evenodd" d="M29.022 117.017C29.022 117.017 57.4008 116.473 79.2495 117.017C101.089 117.561 116.789 120.491 116.789 120.491C116.789 120.491 55.0971 120.836 29.022 117.017Z" fill="url(#paint1_linear_3035_49226)" />
        <path opacity="0.36" d="M25.721 90.4072L119.446 97.8987L123.745 52.2695L123.89 50.8818L111.692 90.4072L25.3491 87.0605L25.721 90.4072Z" fill="#573363" />
        <path style="mix-blend-mode:multiply" opacity="0.68" fill-rule="evenodd" clip-rule="evenodd" d="M149.14 76.1496L135.898 67.8418L127.137 59.3164L137.331 85.7725L149.14 76.1496Z" fill="url(#paint2_linear_3035_49226)" />
        <path style="mix-blend-mode:multiply" opacity="0.5" fill-rule="evenodd" clip-rule="evenodd" d="M104.663 6.07762L77.6265 15.3649L82.2157 4.13672C82.2157 4.13672 99.0126 6.61272 104.663 6.07762Z" fill="url(#paint3_linear_3035_49226)" />
        <path fill-rule="evenodd" clip-rule="evenodd" d="M109.37 40.3155C109.37 40.515 109.343 40.7236 109.297 40.9504C108.771 43.4899 105.334 47.934 98.7766 50.4009C91.6207 53.0946 82.2427 54.0197 80.4741 54.1829C78.7056 54.3553 73.418 53.3304 68.5023 51.0721C64.6205 49.2853 62.2533 47.3626 60.9654 45.3854C60.0494 43.9887 59.6685 42.5738 59.6685 41.1499C59.6685 38.039 60.9654 35.7626 61.5459 33.8307C62.1445 31.8989 63.3689 22.7386 66.5614 18.0315C68.7562 14.7936 73.2094 11.9004 77.8349 10.3949C77.8621 10.3767 77.8802 10.3676 77.8984 10.3676C79.9844 9.6965 82.1067 9.3065 84.0566 9.28836C89.9428 9.24302 99.3571 14.7483 102.722 22.1491C105.715 28.7245 109.361 37.9574 109.361 40.3064L109.37 40.3155Z" fill="#EAEAEF" />
        <path fill-rule="evenodd" clip-rule="evenodd" d="M93.2441 12.254C93.2441 12.254 93.9153 10.3676 96.5001 8.39038C99.8105 5.86903 104.799 4.58114 106.087 4.91672C107.375 5.2523 109.37 18.4304 103.756 24.4708C103.756 24.4708 94.0785 18.8114 93.2441 12.254Z" fill="#EAEAEF" />
        <path fill-rule="evenodd" clip-rule="evenodd" d="M77.9165 10.368C77.9165 10.368 70.8603 2.06021 67.7494 1.74277C64.6385 1.42534 66.5704 18.0318 66.5704 18.0318C66.5704 18.0318 72.2842 12.1003 77.9165 10.368Z" fill="#EAEAEF" />
        <path fill-rule="evenodd" clip-rule="evenodd" d="M106.576 12.4C105.95 19.9187 100.391 22.1227 100.391 22.1227C95.602 19.8553 93.2529 12.264 93.2529 12.264C93.2801 12.2096 93.3073 12.1552 93.3346 12.1098C97.4703 4.64553 106.014 5.88806 106.014 5.88806C106.603 8.40942 106.739 10.568 106.585 12.4H106.576Z" fill="url(#paint4_linear_3035_49226)" />
        <g style="mix-blend-mode:multiply" opacity="0.5">
            <path fill-rule="evenodd" clip-rule="evenodd" d="M83.5757 38.7191C82.433 36.8326 82.9953 25.0965 89.87 22.1126C95.729 19.5731 101.189 30.8466 99.9464 36.9505C98.7129 43.0453 86.6231 43.7708 83.5757 38.7191Z" fill="#8D81B1" />
        </g>
        <path fill-rule="evenodd" clip-rule="evenodd" d="M75.6038 11.3027C75.6038 11.3027 70.8876 2.96777 66.9151 2.17871C66.9151 2.17871 64.8835 4.24658 66.5614 18.0324C66.5614 18.0324 71.0962 13.4794 75.5947 11.2937L75.6038 11.3027Z" fill="url(#paint5_linear_3035_49226)" />
        <path fill-rule="evenodd" clip-rule="evenodd" d="M84.5281 39.0547C86.6141 42.9365 96.9444 41.4128 98.7946 37.3768C100.645 33.3408 98.2776 24.4526 92.6454 24.4707C87.2399 24.4889 81.2086 32.8692 84.5281 39.0547Z" fill="url(#paint6_linear_3035_49226)" />
        <path fill-rule="evenodd" clip-rule="evenodd" d="M71.994 36.6525C71.731 37.9858 71.3047 38.9925 70.7605 39.3916C68.7199 40.9062 64.9741 40.9878 64.312 36.0267C63.6409 31.0657 66.7518 22.6944 69.1008 24.4721C70.2345 25.3337 71.0235 26.7122 71.5405 28.2904C72.4203 31.0022 72.4656 34.3217 71.994 36.6525Z" fill="url(#paint7_linear_3035_49226)" />
        <path fill-rule="evenodd" clip-rule="evenodd" d="M109.297 40.9504C108.771 43.4899 105.334 47.934 98.7765 50.4009C91.6206 53.0946 82.2426 54.0197 80.4741 54.183C78.7055 54.3553 73.4179 53.3304 68.5022 51.0721C64.6204 49.2854 62.2532 47.3626 60.9653 45.3854C60.9653 45.3854 63.8041 42.7552 67.6315 41.7485L66.4343 42.8913C66.7608 42.6646 69.6359 40.7418 73.5721 40.9232C77.7622 41.1136 85.68 44.0522 93.2441 43.9252C93.2441 43.9252 91.4029 44.0431 89.8248 43.1452C89.8248 43.1452 103.184 43.8164 109.288 40.9413L109.297 40.9504Z" fill="#D2C8E9" />
        <path fill-rule="evenodd" clip-rule="evenodd" d="M97.7697 33.6134C97.7697 36.6517 95.3118 39.1096 92.2735 39.1096C89.2352 39.1096 86.7773 36.6517 86.7773 33.6134C86.7773 30.575 89.2352 28.1172 92.2735 28.1172C95.3118 28.1172 97.7697 30.575 97.7697 33.6134Z" fill="url(#paint8_linear_3035_49226)" />
        <path fill-rule="evenodd" clip-rule="evenodd" d="M71.9937 36.6517C71.5311 37.7219 70.8781 38.393 70.1435 38.393C68.7377 38.393 67.604 35.9261 67.604 32.8878C67.604 29.8495 68.7377 27.3916 70.1435 27.3916C70.6605 27.3916 71.1411 27.7181 71.5402 28.2895C72.42 31.0013 72.4653 34.3208 71.9937 36.6517Z" fill="url(#paint9_linear_3035_49226)" />
        <path fill-rule="evenodd" clip-rule="evenodd" d="M83.8569 32.8886C83.8569 32.8886 85.0088 27.0659 90.1512 25.6419C95.3209 24.218 97.7334 27.0749 98.8853 30.5033C98.8853 30.5033 98.2232 24.472 93.244 24.2271C88.1015 23.9731 84.4102 29.5782 83.8569 32.8886Z" fill="#593866" />
        <path fill-rule="evenodd" clip-rule="evenodd" d="M72.2933 33.3409C72.2933 33.3409 71.8489 24.0626 68.2573 23.591C65.4094 23.2101 64.312 32.8964 64.312 32.8964C64.312 32.8964 65.5999 24.2894 68.2573 24.4798C71.4589 24.7157 72.3023 33.3499 72.3023 33.3499L72.2933 33.3409Z" fill="#593866" />
        <path fill-rule="evenodd" clip-rule="evenodd" d="M85.0449 39.7537C85.0449 39.7537 90.1783 43.3724 97.7787 38.7197C97.7787 38.7197 95.5929 41.0688 91.1851 41.6583C86.7772 42.2478 85.0449 39.7446 85.0449 39.7446V39.7537Z" fill="#A45C86" />
        <path fill-rule="evenodd" clip-rule="evenodd" d="M64.6655 37.5947C64.6655 37.5947 65.5271 39.3905 67.6041 39.8077C69.681 40.2249 70.588 39.4993 70.588 39.4993C70.588 39.4993 69.7717 40.7419 67.4136 40.234C65.0555 39.7261 64.6655 37.5947 64.6655 37.5947Z" fill="#A45C86" />
        <path fill-rule="evenodd" clip-rule="evenodd" d="M72.293 45.5134C72.293 45.5134 73.1364 46.3569 73.8076 46.1845C74.4787 46.0122 75.3222 45.1778 76.6101 45.5134C77.898 45.849 78.4603 46.5655 80.3105 46.2117C82.1607 45.858 83.0042 44.7334 83.0042 44.7334C83.0042 44.7334 82.2151 46.5836 79.9749 47.028C79.9749 47.028 77.372 45.7583 75.8301 45.8762C74.2883 45.9941 73.6625 46.6471 73.6625 46.6471C73.6625 46.6471 72.5197 46.5745 72.302 45.5134H72.293Z" fill="#514C59" />
        <path fill-rule="evenodd" clip-rule="evenodd" d="M60.6841 51.0548C60.6841 51.0548 59.5685 51.6715 58.5527 51.0548C58.5527 51.0548 52.7028 53.2224 50.1452 51.3269C50.1452 51.3269 48.0682 51.8348 47.4515 51.0548C47.4515 51.0548 47.2248 48.089 49.2382 46.7739C51.2517 45.4407 56.8658 45.1051 58.4348 45.613C59.9857 46.1391 60.6659 51.0548 60.6659 51.0548H60.6841Z" fill="#EAEAEF" />
        <path fill-rule="evenodd" clip-rule="evenodd" d="M116.072 51.2717C116.072 51.2717 115.229 52.0517 114.168 51.7252C114.168 51.7252 110.64 54.2012 106.268 52.097C106.268 52.097 104.5 52.487 103.266 51.0813C103.266 51.0813 104.708 47.6076 106.078 46.7732L106.096 46.755C108 45.6032 112.49 45.9388 114.222 46.755C114.449 46.8639 114.658 47.0181 114.83 47.2176C115.991 48.4783 116.072 51.2626 116.072 51.2626V51.2717Z" fill="#EAEAEF" />
        <g style="mix-blend-mode:multiply" opacity="0.5">
            <path fill-rule="evenodd" clip-rule="evenodd" d="M66.153 4.86332C66.153 4.86332 73.7987 6.0333 74.8145 11.7018L75.6126 11.3027C75.6126 11.3027 72.0392 3.5845 66.9239 2.17871C66.9239 2.17871 66.1258 2.90428 66.153 4.86332Z" fill="#AE5188" />
        </g>
        <path fill-rule="evenodd" clip-rule="evenodd" d="M73.1004 41.2866L73.572 40.9238C73.572 40.9238 76.9005 41.5859 78.7326 40.9238L79.6849 41.2866L78.8687 42.3024C78.8687 42.3024 77.0094 42.5201 76.7282 43.9349H75.4041C75.4041 43.9349 73.7353 43.164 73.0913 41.2866H73.1004Z" fill="url(#paint10_linear_3035_49226)" />
        <path fill-rule="evenodd" clip-rule="evenodd" d="M73.5723 40.9228C73.5723 40.9228 76.3113 40.1428 78.7329 40.9228C78.7329 40.9228 75.2592 41.7482 73.5723 40.9228Z" fill="white" />
        <path fill-rule="evenodd" clip-rule="evenodd" d="M74.4517 11.7651C74.4517 11.7651 71.9304 10.3775 67.6132 10.4047L71.9576 11.7651C71.9576 11.7651 68.0395 10.8491 64.2212 12.5451L67.3411 12.8535C67.3411 12.8535 65.2642 16.8713 65.1826 20.5989C65.1826 20.5989 68.502 15.3748 74.4608 11.7561L74.4517 11.7651Z" fill="#D2C8E9" />
        <g style="mix-blend-mode:multiply" opacity="0.5">
            <path fill-rule="evenodd" clip-rule="evenodd" d="M81.5443 48.7414L77.1728 49.4851C75.2863 48.7414 73.6538 46.6463 73.6538 46.6463C73.6538 46.6463 71.8943 45.4491 71.9487 43.9436C72.0031 42.4289 73.1005 41.2952 73.1005 41.2952C73.1005 41.2952 73.1005 41.1592 73.1187 40.9325C73.3182 40.8236 76.03 39.7806 80.1114 40.2794C82.6327 40.5878 78.4153 34.7923 73.5722 34.357C73.5087 32.1168 71.731 25.9585 71.4045 24.2353C70.4522 19.247 69.2006 16.7529 69.2006 16.7529C70.8241 13.3881 76.6921 10.8667 77.7442 10.4404C73.155 11.9369 68.7381 14.812 66.5614 18.0408C63.3689 22.7479 62.1445 31.9082 61.5459 33.84C60.9563 35.7718 59.6685 38.0574 59.6685 41.1592C59.6685 42.5831 60.0494 43.998 60.9654 45.3947C62.2533 47.3719 64.6205 49.3037 68.5023 51.0814C73.418 53.3397 78.7056 54.3555 80.4741 54.1922C82.2427 54.029 91.6207 53.1039 98.7766 50.4102C105.325 47.9433 108.771 43.4992 109.297 40.9597C101.298 52.9588 81.5443 48.7414 81.5443 48.7414ZM64.6749 47.9705C63.2056 47.8526 59.6322 43.1999 62.5344 40.2432C63.3598 39.3997 68.7471 40.6604 69.9534 42.8461C71.1596 45.0319 66.1442 48.0884 64.6749 47.9705Z" fill="#8D81B1" />
        </g>
        <g style="mix-blend-mode:soft-light">
            <path fill-rule="evenodd" clip-rule="evenodd" d="M90.6592 26.1486L91.3666 30.2662L98.0146 31.7446V29.2142C98.0146 29.2142 96.7993 25.8947 90.6592 26.1486Z" fill="white" />
        </g>
        <path fill-rule="evenodd" clip-rule="evenodd" d="M89.4528 37.785C89.4528 38.2022 89.1172 38.5378 88.7 38.5378C88.2828 38.5378 87.9473 38.2022 87.9473 37.785C87.9473 37.3678 88.2828 37.0322 88.7 37.0322C89.1172 37.0322 89.4528 37.3678 89.4528 37.785Z" fill="white" />
        <path fill-rule="evenodd" clip-rule="evenodd" d="M100.382 22.122C100.382 22.122 102.921 18.9295 103.066 12.3994L100.382 22.122Z" fill="#D2C8E9" />
        <path fill-rule="evenodd" clip-rule="evenodd" d="M75.6038 11.3016C75.6038 11.3016 72.7287 7.18404 69.9443 7.48333L75.6038 11.3016Z" fill="#D2C8E9" />
        <path fill-rule="evenodd" clip-rule="evenodd" d="M95.439 42.4298C95.439 42.4298 104.336 43.3277 107.511 38.9834C107.511 38.9834 101.488 42.2212 95.439 42.4298Z" fill="#D2C8E9" />
        <path fill-rule="evenodd" clip-rule="evenodd" d="M76.1572 41.305C76.1572 41.305 78.343 41.6134 79.6944 41.2869L78.8509 40.915C78.8509 40.915 77.9802 41.1781 76.1572 41.305Z" fill="white" />
        <g style="mix-blend-mode:multiply" opacity="0.5">
            <path fill-rule="evenodd" clip-rule="evenodd" d="M60.6841 51.0538C60.6841 51.0538 59.5685 51.6705 58.5527 51.0538C58.5527 51.0538 52.7028 53.2214 50.1452 51.3259C50.1452 51.3259 48.0682 51.8338 47.4515 51.0538C47.4515 51.0538 47.2248 48.088 49.2382 46.7729C49.1566 46.8908 48.4129 47.952 48.6124 48.342C48.821 48.7592 56.9292 49.5482 58.4439 48.741C59.895 47.9701 58.5618 45.8025 58.4439 45.6211C59.9948 46.1381 60.675 51.0538 60.675 51.0538H60.6841Z" fill="#8D81B1" />
        </g>
        <g style="mix-blend-mode:multiply" opacity="0.5">
            <path fill-rule="evenodd" clip-rule="evenodd" d="M116.072 51.272C116.072 51.272 115.228 52.0519 114.167 51.7254C114.167 51.7254 110.639 54.2014 106.268 52.0973C106.268 52.0973 104.499 52.4873 103.266 51.0815C103.266 51.0815 104.708 47.6078 106.077 46.7734C105.977 46.9367 105.406 47.8618 106.095 48.2155C106.848 48.5874 112.072 48.8413 113.832 48.2155C114.476 47.9888 114.748 47.5988 114.829 47.2178C115.99 48.4785 116.072 51.2629 116.072 51.2629V51.272Z" fill="#8D81B1" />
        </g>
        <g style="mix-blend-mode:multiply" opacity="0.5">
            <path fill-rule="evenodd" clip-rule="evenodd" d="M106.576 12.4C106.576 12.4 106.431 8.12826 103.066 8.19174C99.7016 8.25523 97.0986 11.3026 97.0986 11.3026L94.3415 12.9352L93.3257 12.1098C97.4614 4.64553 106.005 5.88806 106.005 5.88806C106.595 8.40942 106.731 10.568 106.576 12.4Z" fill="#AE5188" />
        </g>
        <path fill-rule="evenodd" clip-rule="evenodd" d="M100.382 22.1219C100.382 22.1219 100.736 18.7118 99.4023 14.2767V15.9546C99.4023 15.9546 98.187 11.0207 94.3687 8.83496L95.2121 11.0752C95.2121 11.0752 93.3619 9.62402 88.0381 10.0956C88.0381 10.0956 92.065 11.2384 93.244 13.3153C94.4231 15.3923 95.058 20.4803 100.382 22.1129V22.1219Z" fill="#D2C8E9" />
        <g style="mix-blend-mode:multiply" opacity="0.5">
            <path fill-rule="evenodd" clip-rule="evenodd" d="M81.5444 48.7416C81.5444 48.7416 78.5151 50.9999 77.6444 50.9999C76.7738 50.9999 73.6538 46.6465 73.6538 46.6465C73.6538 46.6465 75.631 48.923 77.1728 49.4853L81.5444 48.7416Z" fill="#8D81B1" />
        </g>
        <path d="M32.632 113.88H37.457L37.1215 107.984H32.106L32.632 113.88Z" fill="#573363" />
        <path d="M42.4453 108.891V112.973H39.3979L39.1984 108.891H42.4453ZM43.3523 107.984H38.2461L38.5363 113.88H43.3523V107.984Z" fill="#573363" />
        <path opacity="0.5" fill-rule="evenodd" clip-rule="evenodd" d="M92.2373 115.43L92.3099 108.156H111.692V116.718L92.2373 115.43Z" fill="#FFFFCE" />
        <g style="mix-blend-mode:multiply" opacity="0.5">
            <path fill-rule="evenodd" clip-rule="evenodd" d="M95.0854 109.698V110.932L109.189 111.331V109.698H95.0854Z" fill="#573363" />
        </g>
        <g style="mix-blend-mode:multiply" opacity="0.5">
            <g style="mix-blend-mode:multiply">
                <path fill-rule="evenodd" clip-rule="evenodd" d="M32.2966 98.9056C32.4145 99.5586 32.75 99.9032 33.5119 99.7581C34.0016 99.6584 34.2919 99.2321 34.2012 98.7151C34.1105 98.1891 33.5754 97.7537 33.0403 97.8263C32.487 97.8988 32.2059 98.6063 32.2966 98.9056Z" fill="#E3D9D2" />
            </g>
            <g style="mix-blend-mode:multiply">
                <path fill-rule="evenodd" clip-rule="evenodd" d="M50.7532 106.26C50.8167 105.535 51.5786 105.136 52.2225 105.063C52.7667 105.009 53.2564 105.154 53.7281 105.453C54.1815 105.743 54.5443 106.251 54.3176 106.804C54.245 106.986 54.0183 107.385 53.8641 107.512C53.6283 107.702 53.1476 107.575 52.8755 107.53C52.3858 107.448 52.2044 107.285 51.8597 106.968C51.5514 106.686 50.7351 106.913 50.7532 106.269V106.26Z" fill="#E3D9D2" />
            </g>
            <g style="mix-blend-mode:multiply">
                <path fill-rule="evenodd" clip-rule="evenodd" d="M32.7861 96.0943C32.3599 96.2666 31.7522 96.9287 32.3689 97.2007C32.7045 97.3459 33.7475 97.1554 34.0287 96.9377C35.1805 96.058 33.3575 95.2961 32.6048 96.2303L32.7861 96.0943Z" fill="#E3D9D2" />
            </g>
            <g style="mix-blend-mode:multiply">
                <path fill-rule="evenodd" clip-rule="evenodd" d="M33.3392 101.726C33.7564 100.991 34.5183 101.826 34.0195 102.252C33.6839 102.533 33.2939 102.252 33.2485 101.889L33.3302 101.726H33.3392Z" fill="#E3D9D2" />
            </g>
            <g style="mix-blend-mode:multiply">
                <path fill-rule="evenodd" clip-rule="evenodd" d="M34.4732 98.9325C34.7543 98.4427 35.2622 99.0051 34.9266 99.2862C34.6999 99.4767 34.4459 99.2862 34.4097 99.0413L34.4641 98.9325H34.4732Z" fill="#E3D9D2" />
            </g>
            <g style="mix-blend-mode:multiply">
                <path fill-rule="evenodd" clip-rule="evenodd" d="M92.0832 100.465C91.1853 101.68 92.836 103.095 93.489 101.635C93.8337 100.855 93.1625 99.8937 92.4007 100.465H92.0923H92.0832Z" fill="#E3D9D2" />
            </g>
            <g style="mix-blend-mode:multiply">
                <path fill-rule="evenodd" clip-rule="evenodd" d="M94.8039 103.966C94.686 103.731 94.5681 103.794 94.4411 103.939C94.2234 104.184 94.3686 104.239 94.5227 104.429C94.8583 104.846 95.1576 104.837 95.6111 104.547C95.983 104.311 96.5997 103.658 95.9285 103.332C95.6474 103.196 95.0488 103.395 94.8765 103.613L94.7948 103.966H94.8039Z" fill="#E3D9D2" />
            </g>
            <g style="mix-blend-mode:multiply">
                <path fill-rule="evenodd" clip-rule="evenodd" d="M93.3259 104.438C93.2624 103.839 94.1512 104.61 93.7612 104.937C93.4347 105.209 93.2261 104.637 93.3259 104.402V104.438Z" fill="#E3D9D2" />
            </g>
            <g style="mix-blend-mode:multiply">
                <path fill-rule="evenodd" clip-rule="evenodd" d="M95.1217 102.369C95.3666 102.768 95.8745 102.206 95.7022 101.952C95.4845 101.644 95.1761 102.143 95.0854 102.297L95.1217 102.378V102.369Z" fill="#E3D9D2" />
            </g>
            <g style="mix-blend-mode:multiply">
                <path fill-rule="evenodd" clip-rule="evenodd" d="M85.6257 109.462C85.7708 108.972 86.3785 109.426 86.451 109.743C86.5508 110.187 86.1699 110.759 85.6983 110.804C84.9727 110.877 84.7822 109.752 85.4262 109.498L85.6166 109.462H85.6257Z" fill="#E3D9D2" />
            </g>
            <g style="mix-blend-mode:multiply">
                <path fill-rule="evenodd" clip-rule="evenodd" d="M92.3553 110.35C91.929 110.976 93.3801 111.103 93.3711 110.396C93.362 109.833 92.5276 109.833 92.3553 110.305V110.341V110.35Z" fill="#E3D9D2" />
            </g>
            <g style="mix-blend-mode:multiply">
                <path fill-rule="evenodd" clip-rule="evenodd" d="M86.324 98.1343C86.0338 97.7534 86.4238 97.1729 86.8772 97.2455C87.4668 97.3271 87.4758 98.1434 87.2763 98.5515C86.841 99.4403 85.6256 98.8326 86.1245 97.9801L86.3149 98.1343H86.324Z" fill="#E3D9D2" />
            </g>
            <g style="mix-blend-mode:multiply">
                <path fill-rule="evenodd" clip-rule="evenodd" d="M94.9674 96.2209C94.4504 97.4453 96.4548 97.019 96.5636 96.0304C96.6997 94.8423 95.1125 95.1507 94.9674 96.2209Z" fill="#E3D9D2" />
            </g>
            <g style="mix-blend-mode:multiply">
                <path fill-rule="evenodd" clip-rule="evenodd" d="M54.1904 104.511C53.5827 105.336 55.1699 105.744 55.2969 104.701C54.9794 104.293 54.399 104.203 54.0181 104.602L54.1904 104.511Z" fill="#E3D9D2" />
            </g>
            <g style="mix-blend-mode:multiply">
                <path fill-rule="evenodd" clip-rule="evenodd" d="M45.9187 114.504C47.252 112.799 49.8277 112.137 51.6507 113.389C52.1314 113.715 52.8116 114.314 52.2403 114.849C51.7414 115.311 49.3561 114.849 48.694 114.849C47.7327 114.849 46.7441 114.885 45.9097 114.504H45.9187Z" fill="#E3D9D2" />
            </g>
            <g style="mix-blend-mode:multiply">
                <path fill-rule="evenodd" clip-rule="evenodd" d="M41.2664 113.644C41.3752 114.406 42.7175 114.143 42.518 113.508C42.391 113.091 41.6564 112.982 41.5203 113.381L41.2573 113.635L41.2664 113.644Z" fill="#E3D9D2" />
            </g>
            <g style="mix-blend-mode:multiply">
                <path fill-rule="evenodd" clip-rule="evenodd" d="M58.417 113.897C58.6437 112.681 59.9679 114.55 58.6891 114.395C58.6619 114.296 58.6256 114.241 58.5893 114.15L58.417 113.887V113.897Z" fill="#E3D9D2" />
            </g>
            <g style="mix-blend-mode:multiply">
                <path fill-rule="evenodd" clip-rule="evenodd" d="M63.8224 97.2725C63.5866 98.379 65.0015 98.1614 64.9924 97.2725C64.9924 96.5288 64.0219 96.2749 63.8224 97.0458V97.2816V97.2725Z" fill="#E3D9D2" />
            </g>
            <g style="mix-blend-mode:multiply">
                <path fill-rule="evenodd" clip-rule="evenodd" d="M93.4889 114.904C93.6068 114.722 93.761 114.604 93.9514 114.55C94.677 115.511 93.0626 116.164 93.4889 115.021V114.904Z" fill="#E3D9D2" />
            </g>
            <g style="mix-blend-mode:multiply">
                <path fill-rule="evenodd" clip-rule="evenodd" d="M133.359 13.805C132.461 14.9024 134.112 16.1812 134.765 14.8571C135.11 14.1496 134.438 13.288 133.677 13.805H133.368H133.359Z" fill="#E3D9D2" />
            </g>
            <g style="mix-blend-mode:multiply">
                <path fill-rule="evenodd" clip-rule="evenodd" d="M136.08 16.97C135.962 16.7614 135.844 16.8159 135.717 16.9519C135.499 17.1786 135.644 17.224 135.799 17.3963C136.134 17.7772 136.433 17.7682 136.887 17.4961C137.259 17.2875 137.876 16.6979 137.204 16.3987C136.923 16.2717 136.325 16.4531 136.152 16.6526L136.071 16.97H136.08Z" fill="#E3D9D2" />
            </g>
            <g style="mix-blend-mode:multiply">
                <path fill-rule="evenodd" clip-rule="evenodd" d="M134.601 17.3879C134.538 16.8437 135.427 17.5421 135.037 17.8414C134.71 18.0863 134.501 17.5693 134.601 17.3607V17.397V17.3879Z" fill="#E3D9D2" />
            </g>
            <g style="mix-blend-mode:multiply">
                <path fill-rule="evenodd" clip-rule="evenodd" d="M136.388 15.5288C136.633 15.8825 137.141 15.3836 136.969 15.1478C136.751 14.8667 136.443 15.3202 136.352 15.4562L136.388 15.5288Z" fill="#E3D9D2" />
            </g>
            <g style="mix-blend-mode:multiply">
                <path fill-rule="evenodd" clip-rule="evenodd" d="M126.892 21.9221C127.037 21.4777 127.645 21.8858 127.718 22.1761C127.817 22.5751 127.436 23.0921 126.965 23.1374C126.239 23.2009 126.049 22.1851 126.693 21.9584L126.883 21.9221H126.892Z" fill="#E3D9D2" />
            </g>
            <g style="mix-blend-mode:multiply">
                <path fill-rule="evenodd" clip-rule="evenodd" d="M133.631 22.7293C133.205 23.2916 134.656 23.4095 134.647 22.7746C134.638 22.2667 133.803 22.2667 133.631 22.693V22.7293Z" fill="#E3D9D2" />
            </g>
            <g style="mix-blend-mode:multiply">
                <path fill-rule="evenodd" clip-rule="evenodd" d="M127.591 11.691C127.301 11.3464 127.691 10.8294 128.144 10.8839C128.734 10.9655 128.743 11.7001 128.543 12.0629C128.108 12.861 126.893 12.3169 127.392 11.5459L127.582 11.691H127.591Z" fill="#E3D9D2" />
            </g>
            <g style="mix-blend-mode:multiply">
                <path fill-rule="evenodd" clip-rule="evenodd" d="M136.234 9.9686C135.717 11.0751 137.721 10.6851 137.83 9.79628C137.966 8.71699 136.379 8.99815 136.234 9.9686Z" fill="#E3D9D2" />
            </g>
            <g style="mix-blend-mode:multiply">
                <path fill-rule="evenodd" clip-rule="evenodd" d="M134.756 26.8467C134.874 26.6835 135.028 26.5746 135.219 26.5293C135.944 27.4 134.33 27.9895 134.756 26.9556V26.8467Z" fill="#E3D9D2" />
            </g>
            <g style="mix-blend-mode:multiply">
                <path fill-rule="evenodd" clip-rule="evenodd" d="M26.12 74.0091C24.3423 78.544 31.8247 75.3877 32.904 73.2926C34.0287 71.1159 31.1717 70.7622 29.5664 71.0525C27.6618 71.3971 26.1834 72.7666 26.12 74.0182V74.0091Z" fill="#E3D9D2" />
            </g>
            <g style="mix-blend-mode:multiply">
                <path fill-rule="evenodd" clip-rule="evenodd" d="M33.1309 75.0978C33.3123 74.0911 35.1987 73.2113 34.972 74.7441C34.845 75.6057 33.6297 76.168 33.2941 75.252L33.1399 75.0978H33.1309Z" fill="#E3D9D2" />
            </g>
            <g style="mix-blend-mode:multiply">
                <path fill-rule="evenodd" clip-rule="evenodd" d="M70.9694 68.0953C69.1645 70.6076 76.7104 70.6438 77.0642 68.1316C77.4269 65.5558 71.6496 66.4355 70.8152 67.9411L70.9694 68.0953Z" fill="#E3D9D2" />
            </g>
            <g style="mix-blend-mode:multiply">
                <path fill-rule="evenodd" clip-rule="evenodd" d="M76.2656 65.1388C76.4198 63.5789 78.5784 64.2591 78.1249 65.2023C77.753 65.9732 76.6556 65.42 76.2656 64.9847V65.1388Z" fill="#E3D9D2" />
            </g>
            <g style="mix-blend-mode:multiply">
                <path fill-rule="evenodd" clip-rule="evenodd" d="M82.0247 67.0075C82.7412 66.9893 83.4033 66.8351 84.0291 66.5268C83.8568 65.121 82.1154 65.4475 81.6982 66.5358C81.7617 66.7626 81.9068 66.7172 82.0247 66.8442V66.9984V67.0075Z" fill="#E3D9D2" />
            </g>
            <g style="mix-blend-mode:multiply">
                <path fill-rule="evenodd" clip-rule="evenodd" d="M62.244 69.9636C62.2349 69.3741 62.3982 69.0748 62.9877 69.0566C63.7224 69.6552 63.5319 70.8343 62.5524 70.5894L62.244 69.9636Z" fill="#E3D9D2" />
            </g>
            <g style="mix-blend-mode:multiply">
                <path fill-rule="evenodd" clip-rule="evenodd" d="M43.6153 104.882C41.7288 106.478 45.792 105.997 43.96 105.109L43.6153 104.882Z" fill="#E3D9D2" />
            </g>
            <g style="mix-blend-mode:multiply">
                <path fill-rule="evenodd" clip-rule="evenodd" d="M35.5703 109.162C35.1077 109.634 35.2801 110.623 36.1145 110.269C36.7493 109.997 36.6042 108.89 35.8333 109.244L35.5794 109.153L35.5703 109.162Z" fill="#E3D9D2" />
            </g>
            <g style="mix-blend-mode:multiply">
                <path fill-rule="evenodd" clip-rule="evenodd" d="M39.3706 111.749C39.5248 111.222 40.1869 111.213 40.1506 111.749C40.1234 112.193 39.679 112.148 39.5429 111.839L39.3706 111.749Z" fill="#E3D9D2" />
            </g>
            <g style="mix-blend-mode:multiply">
                <path fill-rule="evenodd" clip-rule="evenodd" d="M73.2822 96.6926C73.5452 96.5384 73.7629 96.3298 73.9171 96.0759C73.4908 95.7131 73.4727 95.9943 73.2822 96.3389V96.6926Z" fill="#E3D9D2" />
            </g>
        </g>
        <path opacity="0.56" fill-rule="evenodd" clip-rule="evenodd" d="M90.9946 106.986H93.8606L93.7699 116.782H90.9946V106.986Z" fill="#573363" />
        <path opacity="0.56" fill-rule="evenodd" clip-rule="evenodd" d="M111.12 106.986L110.104 117.634H112.626L113.578 106.986H111.12Z" fill="#573363" />
        <path style="mix-blend-mode:multiply" opacity="0.5" fill-rule="evenodd" clip-rule="evenodd" d="M154.881 12.3993L128.661 3.63808L161.194 0.5L154.881 12.3993Z" fill="url(#paint11_linear_3035_49226)" />
    </g>
    <defs>
        <radialGradient id="paint0_radial_3035_49226" cx="0" cy="0" r="1" gradientUnits="userSpaceOnUse" gradientTransform="translate(152.441 24.4438) scale(13.2235 13.2235)">
            <stop offset="0.02" stop-color="#BD4D4D" />
            <stop offset="1" stop-color="#9F3E54" />
        </radialGradient>
        <linearGradient id="paint1_linear_3035_49226" x1="29.022" y1="118.641" x2="116.789" y2="118.641" gradientUnits="userSpaceOnUse">
            <stop stop-color="#D3B8D6" />
            <stop offset="1" stop-color="white" />
        </linearGradient>
        <linearGradient id="paint2_linear_3035_49226" x1="127.137" y1="72.5399" x2="149.14" y2="72.5399" gradientUnits="userSpaceOnUse">
            <stop stop-color="#D3B8D6" />
            <stop offset="1" stop-color="white" />
        </linearGradient>
        <linearGradient id="paint3_linear_3035_49226" x1="77.6265" y1="9.75081" x2="104.663" y2="9.75081" gradientUnits="userSpaceOnUse">
            <stop stop-color="#D3B8D6" />
            <stop offset="1" stop-color="white" />
        </linearGradient>
        <linearGradient id="paint4_linear_3035_49226" x1="99.9372" y1="22.1227" x2="99.9372" y2="5.80644" gradientUnits="userSpaceOnUse">
            <stop stop-color="#FB9292" />
            <stop offset="1" stop-color="#BA6586" />
        </linearGradient>
        <linearGradient id="paint5_linear_3035_49226" x1="70.7606" y1="18.0324" x2="70.7606" y2="2.17871" gradientUnits="userSpaceOnUse">
            <stop stop-color="#FB9292" />
            <stop offset="1" stop-color="#BA6586" />
        </linearGradient>
        <linearGradient id="paint6_linear_3035_49226" x1="91.4935" y1="41.3039" x2="91.4935" y2="24.4707" gradientUnits="userSpaceOnUse">
            <stop offset="0.02" stop-color="#FFDE31" />
            <stop offset="0.97" stop-color="#FF784F" />
        </linearGradient>
        <linearGradient id="paint7_linear_3035_49226" x1="68.2482" y1="40.3076" x2="68.2482" y2="24.2272" gradientUnits="userSpaceOnUse">
            <stop offset="0.02" stop-color="#FFDE31" />
            <stop offset="0.97" stop-color="#FF784F" />
        </linearGradient>
        <linearGradient id="paint8_linear_3035_49226" x1="92.2735" y1="39.1096" x2="92.2735" y2="28.1172" gradientUnits="userSpaceOnUse">
            <stop offset="0.02" stop-color="#51657F" />
            <stop offset="0.53" stop-color="#4B3143" />
            <stop offset="0.98" stop-color="#412245" />
        </linearGradient>
        <linearGradient id="paint9_linear_3035_49226" x1="69.944" y1="38.384" x2="69.944" y2="27.3916" gradientUnits="userSpaceOnUse">
            <stop offset="0.02" stop-color="#51657F" />
            <stop offset="0.53" stop-color="#4B3143" />
            <stop offset="0.98" stop-color="#412245" />
        </linearGradient>
        <linearGradient id="paint10_linear_3035_49226" x1="76.3926" y1="43.9349" x2="76.3926" y2="40.9238" gradientUnits="userSpaceOnUse">
            <stop stop-color="#BA6586" />
            <stop offset="0.99" stop-color="#FB9292" />
        </linearGradient>
        <linearGradient id="paint11_linear_3035_49226" x1="128.661" y1="6.44966" x2="161.194" y2="6.44966" gradientUnits="userSpaceOnUse">
            <stop stop-color="#D3B8D6" />
            <stop offset="1" stop-color="white" />
        </linearGradient>
        <clipPath id="clip0_3035_49226">
            <rect width="160.387" height="120" fill="white" transform="translate(0.806641 0.5)" />
        </clipPath>
    </defs>
</svg>
    