<svg width="20" height="20" viewBox="0 0 20 20" fill="none" xmlns="http://www.w3.org/2000/svg">
<rect width="20" height="20" rx="10" fill="#202124"/>
<path d="M6.5 8C6.22386 8 6 8.22386 6 8.5C6 8.77614 6.22386 9 6.5 9H13.5C13.7761 9 14 8.77614 14 8.5C14 8.22386 13.7761 8 13.5 8H6.5Z" fill="currentColor" fill-opacity="0.72"/>
<path d="M6.5 11C6.22386 11 6 11.2239 6 11.5C6 11.7761 6.22386 12 6.5 12H13.5C13.7761 12 14 11.7761 14 11.5C14 11.2239 13.7761 11 13.5 11H6.5Z" fill="currentColor" fill-opacity="0.72"/>
<rect x="0.5" y="0.5" width="19" height="19" rx="9.5" stroke="currentColor" stroke-opacity="0.08"/>
</svg>
    