<svg width="14" height="14" viewBox="0 0 14 14" fill="none" xmlns="http://www.w3.org/2000/svg">
<path d="M3.78833 3.06612C3.589 2.86679 3.26582 2.86679 3.06649 3.06612C2.86716 3.26545 2.86716 3.58863 3.06649 3.78795L6.27853 6.99996L3.06649 10.212C2.86716 10.4113 2.86716 10.7345 3.06649 10.9338C3.26582 11.1331 3.589 11.1331 3.78833 10.9338L7.00036 7.72179L10.2123 10.9337C10.4117 11.133 10.7348 11.133 10.9342 10.9337C11.1335 10.7344 11.1335 10.4112 10.9342 10.2119L7.7222 6.99996L10.9342 3.78803C11.1335 3.5887 11.1335 3.26553 10.9342 3.0662C10.7348 2.86687 10.4117 2.86687 10.2123 3.0662L7.00036 6.27813L3.78833 3.06612Z" fill="#D54141"/>
</svg>
