<svg width="18" height="18" viewBox="0 0 18 18" fill="none" xmlns="http://www.w3.org/2000/svg">
<path d="M7.5 8C7.5 7.72386 7.72386 7.5 8 7.5H9C9.27614 7.5 9.5 7.72386 9.5 8V10.5H10.5C10.7761 10.5 11 10.7239 11 11C11 11.2761 10.7761 11.5 10.5 11.5H7.5C7.22386 11.5 7 11.2761 7 11C7 10.7239 7.22386 10.5 7.5 10.5H8.5V8.5H8C7.72386 8.5 7.5 8.27614 7.5 8Z" fill="currentColor" fill-opacity="1"/>
<path d="M8.75 7C9.16421 7 9.5 6.66421 9.5 6.25C9.5 5.83579 9.16421 5.5 8.75 5.5C8.33579 5.5 8 5.83579 8 6.25C8 6.66421 8.33579 7 8.75 7Z" fill="currentColor" fill-opacity="1"/>
<path fill-rule="evenodd" clip-rule="evenodd" d="M3 9C3 5.68629 5.68629 3 9 3C12.3137 3 15 5.68629 15 9C15 12.3137 12.3137 15 9 15C5.68629 15 3 12.3137 3 9ZM9 4C6.23858 4 4 6.23858 4 9C4 11.7614 6.23858 14 9 14C11.7614 14 14 11.7614 14 9C14 6.23858 11.7614 4 9 4Z" fill="currentColor" fill-opacity="1"/>
</svg>
