<svg width="70" height="70" viewBox="0 0 70 70" fill="none" xmlns="http://www.w3.org/2000/svg">
<path d="M35.4241 29.326C35.1823 28.289 34.0126 27.7199 33.0145 28.0005C32.3594 28.1877 31.8876 28.6945 31.6342 29.3026C31.3846 29.0063 31.1234 28.7217 30.7764 28.5229C30.0863 28.1253 29.2597 28.2072 28.6787 28.7607C27.7741 29.6262 27.8677 31.049 28.3278 32.2068C27.9223 32.1951 27.5207 32.2497 27.1425 32.4291C26.4913 32.7331 26.0312 33.3607 26.0312 34.0897C26.0312 34.8421 27.201 34.8421 27.201 34.0897C27.201 33.123 28.6709 33.3919 29.2324 33.5128C29.6847 33.6102 30.211 33.0996 29.8913 32.6552C29.5716 32.2029 29.3455 31.7235 29.2324 31.1777C29.1388 30.7099 29.092 30.0706 29.4195 29.6768C30.1292 28.8231 31.0961 30.5734 31.5796 30.9555C31.9383 31.2401 32.6129 31.0997 32.5778 30.5423C32.5466 30.0199 32.7142 29.3884 33.2406 29.1584C33.65 28.979 34.1842 29.2012 34.2856 29.6417C34.4649 30.3668 35.5956 30.0589 35.4241 29.326Z" fill="#343A46"/>
<path d="M43.5101 37.8019C43.8649 37.3769 44.095 36.8507 44.1535 36.2893C44.2431 35.381 43.5569 34.1881 42.4925 34.6247C42.2 34.7456 41.9973 35.0107 42.0831 35.3459C42.1571 35.6227 42.512 35.8761 42.8044 35.7552C43.1436 35.6149 42.9487 36.4725 42.8824 36.6402C42.7186 37.0378 42.4106 37.3224 42.0324 37.5134C41.506 37.7824 41.7672 38.6049 42.3287 38.6049C43.1163 38.601 43.5842 39.5015 43.0968 40.1292C42.4769 40.9205 41.2994 40.7841 40.4338 40.6282C39.9737 40.5463 39.6306 40.8893 39.7124 41.3493C39.8021 41.8483 39.7514 42.359 39.5799 42.8385C39.5292 42.9749 39.034 43.9027 38.9287 43.7819C38.4374 43.2088 37.6147 44.0392 38.1021 44.6083C38.8468 45.4816 39.8879 44.6668 40.3363 43.9456C40.7301 43.3102 40.9094 42.5929 40.9133 41.8639C42.2351 41.977 43.6739 41.7392 44.2899 40.4137C44.7305 39.4353 44.3172 38.3554 43.5101 37.8019Z" fill="#343A46"/>
<path d="M40.8725 31.6377C40.7868 31.4467 40.6308 31.3064 40.4671 31.1855C40.3384 31.0881 40.1786 31.0218 40.0227 30.9868C39.8083 30.94 39.6134 30.94 39.3989 30.9829C39.1923 31.0257 39.013 31.1349 38.8532 31.2713C38.744 31.3609 38.6816 31.548 38.6816 31.6844C38.6816 31.8286 38.744 32.0001 38.8532 32.0976C38.9662 32.1989 39.1105 32.2769 39.2664 32.2691C39.3171 32.2613 39.3717 32.2535 39.4223 32.2496C39.4808 32.234 39.5354 32.2067 39.5861 32.1716C39.6055 32.156 39.6289 32.1483 39.6523 32.1327C39.6601 32.1288 39.6718 32.1288 39.6796 32.1249C39.6913 32.1249 39.7069 32.1249 39.7186 32.1249C39.742 32.1288 39.7654 32.1366 39.7849 32.1444C39.7927 32.1483 39.8044 32.156 39.8122 32.1599C39.8161 32.1638 39.8239 32.1677 39.8278 32.1755C39.8394 32.195 39.8512 32.2106 39.8628 32.2301C39.9213 32.3548 40.0851 32.464 40.2137 32.499C40.354 32.538 40.5412 32.5185 40.6659 32.4406C40.7907 32.3587 40.8998 32.2418 40.9349 32.0898C40.9427 32.0391 40.9505 31.9846 40.9544 31.9339C40.9505 31.8247 40.9232 31.7273 40.8725 31.6377Z" fill="#343A46"/>
<path d="M34.4052 10.5426C34.2999 10.0515 33.5474 10.2581 33.6526 10.7493C34.5494 14.8932 34.7093 19.1852 34.1166 23.3837C34.0465 23.8749 34.799 24.0854 34.8692 23.5904C35.4813 19.2437 35.3293 14.8347 34.4052 10.5426Z" fill="#343A46"/>
<path d="M15.1207 25.4331C14.619 25.4094 14.6264 26.1897 15.1282 26.2135C19.3637 26.4052 23.5542 27.3472 27.4619 28.9929C27.9189 29.1863 28.3147 28.5125 27.854 28.3181C23.808 26.6158 19.5064 25.6363 15.1207 25.4331Z" fill="#343A46"/>
<path d="M23.1302 47.7927C22.8814 48.2292 23.5803 48.5764 23.829 48.14C25.9209 44.4521 28.6611 41.1447 31.9001 38.4084C32.2797 38.0888 31.8587 37.4305 31.4765 37.753C28.1243 40.5868 25.3004 43.9762 23.1302 47.7927Z" fill="#343A46"/>
<path d="M42.7875 20.7324C42.6199 20.635 42.343 20.6778 42.2534 20.8727C41.7699 21.9292 41.2864 22.9895 40.8068 24.046C40.721 24.237 40.7522 24.467 40.9472 24.5801C41.1148 24.6775 41.3917 24.6307 41.4814 24.4397C41.9648 23.3833 42.4483 22.3229 42.9279 21.2665C43.0176 21.0755 42.9825 20.8455 42.7875 20.7324Z" fill="#343A46"/>
<path d="M54.2464 22.4556C50.8777 23.8979 47.8637 26.1044 45.4658 28.8761C45.1382 29.2542 45.688 29.8078 46.0155 29.4258C48.3745 26.6969 51.3222 24.549 54.6403 23.1261C55.1003 22.9312 54.7026 22.2606 54.2464 22.4556Z" fill="#343A46"/>
<path d="M52.0253 45.6096C50.3253 45.0639 48.5356 44.9235 46.7693 45.1652C46.5588 45.1925 46.4457 45.4615 46.4964 45.6447C46.5588 45.8708 46.7654 45.9449 46.976 45.9176C48.6019 45.6954 50.259 45.8591 51.8186 46.362C52.2943 46.5179 52.5009 45.7656 52.0253 45.6096Z" fill="#343A46"/>
<path d="M1.49005 26.2257C1.43849 26.1798 1.38111 26.1466 1.31337 26.1337C1.27991 26.1315 1.24976 26.1274 1.21423 26.1219C1.14275 26.1251 1.0795 26.1415 1.01993 26.1786L0.834619 26.294C0.78623 26.3195 0.749386 26.3562 0.724095 26.4041C0.692624 26.4421 0.670641 26.4879 0.661457 26.5395C0.646904 26.5899 0.6464 26.6408 0.657881 26.6887C0.662745 26.7408 0.679595 26.79 0.708434 26.8363L0.777287 26.9174C0.828852 26.9634 0.886222 26.9965 0.953961 27.0094C0.987425 27.0116 1.01758 27.0157 1.05311 27.0212C1.12459 27.018 1.18784 27.0016 1.2474 26.9645L1.43272 26.8491C1.48111 26.8236 1.51795 26.7869 1.54324 26.739C1.57471 26.701 1.59669 26.6552 1.60588 26.6036C1.62043 26.5532 1.62094 26.5024 1.60946 26.4544C1.60459 26.4023 1.58774 26.3531 1.5589 26.3068C1.53375 26.2811 1.5119 26.2534 1.49005 26.2257Z" fill="#343A46"/>
<path d="M2.3709 46.8169C2.33294 46.7854 2.28712 46.7634 2.23549 46.7542L2.13634 46.7425C2.06486 46.7457 2.00161 46.7621 1.94204 46.7992C1.91432 46.821 1.8866 46.8429 1.86094 46.8681C1.81498 46.9196 1.78182 46.977 1.76889 47.0447C1.74515 47.1468 1.72141 47.2488 1.69892 47.3454C1.68437 47.3958 1.68386 47.4466 1.69535 47.4946C1.70021 47.5467 1.71706 47.5959 1.7459 47.6422C1.77143 47.6906 1.80813 47.7274 1.85602 47.7527C1.89397 47.7842 1.93979 47.8061 1.99143 47.8153C2.02489 47.8175 2.05504 47.8216 2.09057 47.8271C2.16206 47.8239 2.2253 47.8075 2.28487 47.7704C2.31259 47.7485 2.34032 47.7267 2.36598 47.7015C2.41194 47.6499 2.44509 47.5926 2.45803 47.5248C2.48176 47.4228 2.5055 47.3208 2.52799 47.2241C2.54254 47.1738 2.54305 47.1229 2.53157 47.075C2.52671 47.0229 2.50986 46.9737 2.48102 46.9274C2.45218 46.8811 2.41547 46.8442 2.3709 46.8169Z" fill="#343A46"/>
<path d="M15.7811 48.2719C15.3542 48.5376 15.7662 49.1994 16.1931 48.9337C16.62 48.6679 16.208 48.0061 15.7811 48.2719Z" fill="#343A46"/>
<path d="M23.4217 68.851C22.9948 69.1167 23.4069 69.7785 23.8338 69.5128C24.2607 69.247 23.8487 68.5852 23.4217 68.851Z" fill="#343A46"/>
<path d="M48.5197 57.8901C48.0169 57.8901 48.0169 58.6697 48.5197 58.6697C49.0187 58.6697 49.0187 57.8901 48.5197 57.8901Z" fill="#343A46"/>
<path d="M68.7209 35.5029C68.218 35.5029 68.218 36.2825 68.7209 36.2825C69.2238 36.2825 69.2238 35.5029 68.7209 35.5029Z" fill="#343A46"/>
<path d="M69.1233 17.1572C68.6204 17.1572 68.6204 17.9368 69.1233 17.9368C69.6262 17.9368 69.6262 17.1572 69.1233 17.1572Z" fill="#343A46"/>
<path d="M48.9533 1.479C48.4505 1.479 48.4505 2.25853 48.9533 2.25853C49.4562 2.25853 49.4562 1.479 48.9533 1.479Z" fill="#343A46"/>
<path d="M60.6921 33.7705C57.7484 33.9576 54.6486 34.2188 52.2273 36.0939C52.0869 36.203 52.0596 36.3511 52.0986 36.4837C52.0479 36.624 52.0713 36.7917 52.2156 36.9164C53.0266 37.6142 53.6114 38.4991 53.9585 39.5088C54.0364 39.731 54.3874 39.8246 54.5589 39.6569C56.2823 37.9651 58.9843 37.5791 61.1132 38.7174C61.4564 38.9007 61.6981 38.4835 61.6162 38.199C61.2458 36.9008 60.891 35.5637 61.1366 34.2071C61.1834 33.9381 60.93 33.7549 60.6921 33.7705ZM54.4731 38.6862C54.1144 37.8715 53.5958 37.1464 52.9486 36.5305C55.0775 35.0101 57.7484 34.7411 60.3022 34.5735C60.2048 35.6183 60.4036 36.6513 60.6687 37.6649C58.61 36.9086 56.177 37.2984 54.4731 38.6862Z" fill="#151921"/>
<path d="M54.4698 38.6874C54.1111 37.8727 53.5926 37.1476 52.9453 36.5317C55.0742 35.0113 57.7451 34.7423 60.2989 34.5747C60.2015 35.6195 60.4003 36.6525 60.6655 37.6661C58.6068 36.9098 56.1737 37.2996 54.4698 38.6874Z" fill="#5EDC10"/>
<path d="M21.7516 61.0539C24.5265 62.0588 27.4737 63.0528 30.4386 62.3045C30.6131 62.2602 30.696 62.1351 30.7132 62.0004C30.815 61.8911 30.8612 61.7292 30.7768 61.5567C30.3103 60.5934 30.1287 59.5492 30.2149 58.4852C30.2331 58.2489 29.9492 58.0215 29.7247 58.1108C27.4692 58.9731 24.838 58.2507 23.3392 56.3595C23.0988 56.0545 22.709 56.3432 22.6696 56.634C22.4915 57.971 22.2832 59.3406 21.5162 60.484C21.3687 60.7044 21.5269 60.9733 21.7516 61.0539ZM29.418 59.0273C29.4205 59.9166 29.6053 60.7889 29.9539 61.6144C27.3956 62.16 24.8377 61.3415 22.4296 60.4757C22.9354 59.5546 23.1654 58.5297 23.3276 57.4918C24.9139 59.0071 27.3018 59.6191 29.418 59.0273Z" fill="#151921"/>
<path d="M29.4201 59.0286C29.4226 59.9179 29.6074 60.7902 29.9559 61.6157C27.3977 62.1613 24.8398 61.3428 22.4316 60.477C22.9375 59.5559 23.1674 58.531 23.3297 57.4932C24.9159 59.0084 27.3039 59.6205 29.4201 59.0286Z" fill="#FFBF24"/>
<path d="M11.5239 33.4072C12.1914 36.2797 12.9583 39.2971 15.2031 41.3759C15.3335 41.4968 15.486 41.4983 15.6067 41.4415C15.7563 41.4678 15.918 41.4177 16.0149 41.2562C16.5704 40.341 17.347 39.6187 18.2856 39.1124C18.4924 39.002 18.5286 38.6397 18.333 38.4951C16.3825 37.0734 15.5582 34.473 16.3286 32.184C16.4536 31.8168 16.0014 31.6437 15.7367 31.7718C14.5178 32.3516 13.2559 32.9213 11.8794 32.9012C11.6091 32.8949 11.4706 33.1741 11.5239 33.4072ZM17.3973 38.7332C16.653 39.2195 16.022 39.8512 15.5219 40.5896C13.6714 38.7383 12.969 36.1493 12.3826 33.6579C13.4312 33.5791 14.415 33.2192 15.3729 32.7882C14.9615 34.9455 15.7453 37.2818 17.3973 38.7332Z" fill="#151921"/>
<path d="M17.3952 38.7321C16.6508 39.2184 16.0199 39.8501 15.5197 40.5885C13.6692 38.7372 12.9668 36.1482 12.3804 33.6568C13.429 33.578 14.4128 33.2181 15.3707 32.7871C14.9593 34.9444 15.7431 37.2807 17.3952 38.7321Z" fill="#398FE5"/>
<path d="M60.8951 52.4472C60.2556 51.3556 59.5421 50.1277 59.9554 48.8256C60.0451 48.541 59.7527 48.2643 59.4758 48.3461C56.9298 49.0868 54.1185 50.1783 52.9527 52.7668C52.6759 52.8877 52.6213 53.3828 52.9995 53.5075C54.2004 53.9012 55.3273 54.4938 56.3215 55.2813C56.5282 55.445 56.9142 55.4294 56.9726 55.1097C57.2768 53.4841 58.8754 52.5173 60.4584 53.0241C60.7859 53.1255 61.0627 52.7317 60.8951 52.4472ZM56.3683 54.3651C55.5495 53.7843 54.6683 53.3087 53.7286 52.9539C54.7697 50.8995 56.9493 49.9444 59.0703 49.2856C58.9768 50.2758 59.3433 51.2309 59.8112 52.1158C58.3139 52.0261 56.8908 52.9345 56.3683 54.3651Z" fill="#151921"/>
<path d="M56.3701 54.3666C55.5513 53.7858 54.6701 53.3102 53.7305 52.9554C54.7715 50.901 56.9511 49.9459 59.0722 49.2871C58.9786 50.2773 59.3451 51.2324 59.813 52.1173C58.3158 52.0276 56.8926 52.9359 56.3701 54.3666Z" fill="#398FE5"/>
<path d="M59.9151 6.9127C59.8956 6.6866 59.8761 6.4371 59.8098 6.2188C59.7279 5.95371 59.5135 5.77049 59.2289 5.78608C59.0261 5.79778 58.8156 5.86015 58.6284 5.93422C58.2424 6.08236 57.9032 6.29676 57.5757 6.55016C57.2286 6.81914 56.9206 7.13101 56.6165 7.44287C56.4683 7.59491 56.4644 7.8444 56.6165 7.99254C56.7647 8.14068 57.022 8.14457 57.1663 7.99254C57.4626 7.68457 57.7667 7.3727 58.1098 7.11151C58.3867 6.901 58.7376 6.69439 59.0807 6.60473C59.0846 6.60473 59.0846 6.60473 59.0885 6.60473C59.1002 6.65151 59.1119 6.69439 59.1197 6.73338C59.1509 6.94778 59.1587 7.17779 59.1587 7.39999C59.1587 7.90288 59.1002 8.40186 59.0417 8.90085C59.0183 9.11136 59.2367 9.29068 59.4316 9.29068C59.6617 9.29068 59.7981 9.11136 59.8215 8.90085C59.8722 8.46424 59.9229 8.02372 59.9346 7.58321C59.9385 7.35711 59.9346 7.13491 59.9151 6.9127Z" fill="#151921"/>
<path d="M61.227 9.63576C60.7903 9.33169 59.8351 8.82491 59.336 8.64559C58.8642 8.47406 58.6615 9.22644 59.1293 9.39797C59.4374 9.51102 60.2094 9.92424 60.4901 10.0919C60.5759 10.1425 60.689 10.2361 60.7864 10.2868C60.1314 10.4232 59.4647 10.4817 58.7979 10.4856C58.5445 10.4856 58.3534 10.7351 58.4236 10.9807C58.564 11.4914 58.6576 12.0059 58.6771 12.5361C58.681 12.6765 58.6849 12.8168 58.681 12.9571C58.681 12.9922 58.6732 13.0429 58.6654 13.0897C58.6108 13.0117 58.5406 12.9338 58.4938 12.8675C57.9207 12.0371 57.445 11.1444 57.0823 10.2049C57.0005 9.99051 56.7353 9.81509 56.5092 9.97102C56.092 10.2634 55.6709 10.5441 55.2381 10.8092C55.0431 10.93 54.8443 11.047 54.6415 11.16C54.5207 11.2302 54.3998 11.3004 54.2789 11.3627C54.2633 11.3705 54.2438 11.3783 54.2282 11.3861C54.626 10.622 55.0977 10.049 55.9126 9.68644C56.2557 9.53441 56.092 9.0822 55.8191 8.97305C55.4564 8.82881 55.1133 8.62999 54.8053 8.3922C54.6493 8.27135 54.3803 8.06864 54.2049 7.85423C54.2127 7.85423 54.2204 7.85423 54.2321 7.85423C54.3686 7.85033 54.5051 7.85033 54.6415 7.85423C54.9262 7.86202 55.2069 7.88931 55.4876 7.93609C56.0257 8.02575 56.3259 8.1583 56.8289 8.36881C57.2929 8.55983 57.4956 7.80745 57.0356 7.61643C56.3688 7.33965 55.9009 7.19541 55.1835 7.11354C54.7 7.05897 53.7409 6.88744 53.3861 7.33185C52.9961 7.82304 53.6824 8.43118 54.0138 8.73915C54.2828 8.98474 54.5753 9.19135 54.8833 9.37068C54.5831 9.57729 54.3101 9.81898 54.084 10.1036C53.7643 10.5012 53.2184 11.2497 53.4172 11.7915C53.6863 12.5205 54.5207 12.119 54.9691 11.8656C55.4993 11.5654 56.014 11.2341 56.5209 10.891C56.7392 11.4056 56.9888 11.9124 57.2695 12.3958C57.4528 12.7076 57.6477 13.0156 57.8544 13.3119C58.0298 13.5614 58.2131 13.8927 58.4977 14.0409C58.7355 14.1617 59.0397 14.1305 59.2268 13.9317C59.4335 13.7134 59.4374 13.3743 59.4491 13.0897C59.4764 12.4698 59.414 11.8461 59.2853 11.2419C59.6947 11.2224 60.1002 11.1873 60.5057 11.1249C60.9073 11.0626 61.5624 11.0392 61.7222 10.5831C61.8704 10.1698 61.5312 9.85017 61.227 9.63576Z" fill="#151921"/>
<path d="M58.7904 10.4814C58.5369 10.4814 58.3459 10.7309 58.416 10.9765C58.5564 11.4871 58.65 12.0017 58.6695 12.5319C58.6734 12.6722 58.6773 12.8126 58.6734 12.9529C58.6734 12.988 58.6656 13.0387 58.6578 13.0855C58.6032 13.0075 58.533 12.9295 58.4862 12.8632C57.9131 12.0329 57.4374 11.1402 57.0748 10.2007C56.9929 9.98628 56.7277 9.81086 56.5016 9.96679C56.0844 10.2592 55.6633 10.5398 55.2305 10.8049C55.0356 10.9258 54.8367 11.0427 54.634 11.1558C54.5131 11.2259 54.3922 11.2961 54.2713 11.3585C54.2558 11.3663 54.2363 11.3741 54.2207 11.3819C54.6184 10.6178 55.0901 10.0448 55.905 9.68221C56.2482 9.53018 56.0844 9.07797 55.8115 8.96882C55.4489 8.82458 55.1057 8.62576 54.7977 8.38796C54.6417 8.26712 54.3727 8.0644 54.1973 7.85C54.2051 7.85 54.2129 7.85 54.2245 7.85C54.361 7.8461 54.4975 7.8461 54.634 7.85C54.9186 7.85779 55.1993 7.88508 55.48 7.93186C56.0181 8.02152 56.3183 8.15407 56.8213 8.36458C57.1488 8.50102 57.3438 8.16576 57.2697 7.88898C57.5387 7.6122 57.8117 7.33931 58.1158 7.10541C58.3926 6.8949 58.7436 6.68829 59.0867 6.59863C59.0906 6.59863 59.0906 6.59863 59.0945 6.59863C59.1062 6.64541 59.1179 6.68829 59.1257 6.72728C59.1569 6.94168 59.1647 7.17169 59.1647 7.39389C59.1647 7.81491 59.1218 8.23203 59.075 8.64526C58.8098 8.7661 58.7592 9.25339 59.1257 9.38984C59.4337 9.50289 60.2057 9.91611 60.4864 10.0837C60.5722 10.1344 60.6853 10.228 60.7828 10.2787C60.1238 10.419 59.461 10.4775 58.7904 10.4814Z" fill="#FFBF24"/>
<path d="M7.88144 50.7799C7.65377 50.7609 7.40462 50.737 7.17976 50.7667C6.90487 50.8047 6.69047 50.9841 6.65566 51.2675C6.63422 51.4692 6.65985 51.6874 6.70123 51.8867C6.78273 52.2906 6.93331 52.6653 7.12978 53.0251C7.33736 53.4102 7.58797 53.7686 7.84851 54.1207C7.973 54.2912 8.21715 54.3366 8.39301 54.2134C8.56225 54.0942 8.61024 53.8393 8.48575 53.6689C8.23264 53.3213 7.97747 52.9704 7.77938 52.5932C7.61587 52.2862 7.47523 51.9054 7.44199 51.5495C7.43993 51.5462 7.44324 51.5441 7.44118 51.5408C7.48789 51.5347 7.53666 51.5319 7.57344 51.532C7.78956 51.5398 8.01804 51.5674 8.23534 51.6067C8.73027 51.6935 9.2127 51.834 9.69514 51.9745C9.8967 52.0327 10.1123 51.8479 10.1453 51.6575C10.1838 51.4315 10.0299 51.2655 9.82836 51.2073C9.405 51.0805 8.98039 50.9591 8.54828 50.8699C8.3223 50.8315 8.10375 50.7977 7.88144 50.7799Z" fill="#151921"/>
<path d="M10.7764 49.9625C10.4055 50.3404 9.74474 51.1972 9.47942 51.6563C9.23109 52.091 9.93799 52.4224 10.1863 51.9877C10.3488 51.7028 10.8886 51.0132 11.0998 50.7623C11.166 50.6843 11.2782 50.5915 11.3416 50.5015C11.3639 51.1719 11.314 51.8367 11.2004 52.4953C11.159 52.746 11.3693 52.9733 11.6244 52.9477C12.1518 52.8949 12.6733 52.8916 13.2001 52.9632C13.3402 52.9816 13.479 53.0054 13.6145 53.0313C13.65 53.0367 13.6971 53.0533 13.7442 53.07C13.6586 53.1095 13.5692 53.1651 13.4989 53.1997C12.5844 53.6267 11.6226 53.9408 10.6329 54.1436C10.4075 54.1875 10.1893 54.4197 10.3071 54.6679C10.5232 55.1258 10.7294 55.5898 10.9191 56.0641C11.0055 56.2767 11.0852 56.4934 11.165 56.7101C11.214 56.8403 11.2629 56.9706 11.3032 57.1017C11.3101 57.1203 11.3118 57.1376 11.3188 57.1563C10.6308 56.6339 10.1475 56.0715 9.92878 55.2111C9.83522 54.8469 9.36519 54.9328 9.21142 55.1801C9.00956 55.5124 8.75443 55.8182 8.46716 56.0797C8.32021 56.2126 8.07721 56.4419 7.83809 56.5816C7.83728 56.5729 7.84184 56.5655 7.84103 56.5568C7.86153 56.4201 7.88408 56.2866 7.91201 56.1544C7.96831 55.876 8.04278 55.6046 8.13667 55.3349C8.31613 54.819 8.49557 54.5466 8.78693 54.0851C9.05549 53.6607 8.34734 53.3346 8.08003 53.7536C7.69417 54.3659 7.47188 54.7982 7.2706 55.4929C7.1371 55.9572 6.80647 56.8794 7.18177 57.2979C7.59997 57.7631 8.31553 57.1936 8.67475 56.9149C8.96402 56.6935 9.21533 56.4406 9.44353 56.1653C9.59667 56.4925 9.79034 56.8036 10.0295 57.0772C10.3702 57.4621 11.0116 58.1236 11.5796 58.0179C12.3423 57.8783 12.091 56.9877 11.9159 56.4998C11.7099 55.9254 11.47 55.363 11.2201 54.8067C11.765 54.6787 12.3034 54.518 12.8298 54.3235C13.1681 54.1955 13.5035 54.0556 13.8307 53.9024C14.1074 53.7715 14.4651 53.6452 14.6569 53.3926C14.8172 53.178 14.8364 52.8768 14.6723 52.6575C14.4905 52.417 14.1571 52.3537 13.882 52.2953C13.2759 52.1629 12.652 52.1196 12.0292 52.1446C12.0787 51.7372 12.1141 51.3294 12.1215 50.9207C12.1276 50.5173 12.2139 49.8666 11.7907 49.6295C11.4155 49.4177 11.0422 49.696 10.7764 49.9625Z" fill="#151921"/>
<path d="M11.2046 52.4958C11.1632 52.7466 11.3736 52.9738 11.6286 52.9482C12.156 52.8954 12.6775 52.8922 13.2043 52.9638C13.3444 52.9822 13.4832 53.006 13.6187 53.0318C13.6542 53.0373 13.7013 53.0539 13.7484 53.0705C13.6628 53.11 13.5734 53.1657 13.5031 53.2003C12.5886 53.6272 11.6268 53.9413 10.6371 54.1442C10.4118 54.188 10.1935 54.4203 10.3113 54.6684C10.5274 55.1263 10.7336 55.5903 10.9233 56.0647C11.0097 56.2772 11.0894 56.4939 11.1692 56.7106C11.2182 56.8409 11.2671 56.9711 11.3074 57.1022C11.3144 57.1208 11.316 57.1382 11.323 57.1568C10.635 56.6345 10.1517 56.072 9.93299 55.2116C9.83943 54.8474 9.3694 54.9334 9.21563 55.1807C9.01377 55.513 8.75865 55.8188 8.47137 56.0803C8.32442 56.2131 8.08142 56.4425 7.8423 56.5821C7.84149 56.5735 7.84605 56.566 7.84524 56.5574C7.86574 56.4206 7.8883 56.2872 7.91623 56.155C7.97252 55.8765 8.04699 55.6051 8.14087 55.3354C8.32034 54.8196 8.49978 54.5471 8.79114 54.0856C8.98219 53.7876 8.68386 53.537 8.40073 53.5617C8.17566 53.2518 7.94977 52.9332 7.77103 52.5944C7.60753 52.2875 7.46688 51.9067 7.43364 51.5508C7.43158 51.5475 7.43489 51.5454 7.43283 51.5421C7.47954 51.536 7.52831 51.5332 7.56509 51.5332C7.78121 51.5411 8.00969 51.5687 8.227 51.6079C8.64012 51.6814 9.0445 51.7924 9.44763 51.9088C9.52316 52.1925 9.99404 52.3218 10.1885 51.9849C10.351 51.7 10.8907 51.0104 11.1019 50.7595C11.1682 50.6815 11.2804 50.5887 11.3438 50.4987C11.3681 51.1724 11.3128 51.836 11.2046 52.4958Z" fill="#FFBF24"/>
<path d="M34.0798 35.0538C31.8573 37.155 29.7909 39.42 27.9076 41.8291C27.6035 42.219 28.1494 42.7764 28.4574 42.3788C30.3445 39.9696 32.4071 37.7047 34.6296 35.6035C34.9961 35.2604 34.4424 34.7108 34.0798 35.0538Z" fill="#151921"/>
<path d="M38.1831 36.7709C35.4928 38.3653 32.8882 40.1001 30.3772 41.9713C29.9795 42.2675 30.3694 42.9458 30.771 42.6457C33.2781 40.7745 35.8827 39.0397 38.5769 37.4453C39.0097 37.188 38.6198 36.5136 38.1831 36.7709Z" fill="#151921"/>
<path d="M29.5867 35.0416C28.7796 36.4139 27.9764 37.7861 27.1693 39.1583C26.9158 39.591 27.5904 39.9847 27.8438 39.552C28.6509 38.1798 29.4541 36.8076 30.2612 35.4354C30.5147 35.0027 29.8401 34.6089 29.5867 35.0416Z" fill="#151921"/>
<path d="M34.4549 27.001C33.2657 26.8178 32.2988 27.4766 31.6905 28.4044C31.5969 28.19 31.4917 27.9756 31.3708 27.7728C31.1524 27.4025 30.8639 26.9074 30.4779 26.6813C29.7254 26.2447 28.8052 27.0673 28.3529 27.6091C27.4327 28.7123 27.1286 30.2405 27.5614 31.5932C26.5632 31.5776 25.4598 31.8037 25.1284 32.8797C24.7541 34.0881 25.7366 35.0666 26.6919 35.6085C27.1286 35.8541 27.5224 35.1836 27.0857 34.9341C26.4658 34.5832 25.5885 33.9244 25.8809 33.0863C26.1889 32.2014 27.4405 32.3378 28.158 32.408C28.4699 32.4391 28.6181 32.061 28.4933 31.8232C27.9396 30.7551 28.0644 29.4491 28.7038 28.4473C28.9144 28.1198 29.6162 27.2154 30.088 27.3596C30.3492 27.4415 30.6612 28.0925 30.7859 28.3147C30.9887 28.6812 31.1407 29.0671 31.2577 29.4686C31.3747 29.8585 31.8777 29.8156 32.0102 29.4686C32.3417 28.5915 33.0513 27.7689 34.0572 27.7534C34.9618 27.7378 35.8118 28.6266 35.301 29.5193C35.0515 29.9559 35.726 30.3496 35.9756 29.913C36.6696 28.6812 35.7923 27.2076 34.4549 27.001Z" fill="#151921"/>
<path d="M45.4265 38.3298C45.2316 37.9868 44.9236 37.7217 44.5727 37.5735C45.2394 36.9069 45.68 36.022 45.3486 35.0513C45.0015 34.0261 43.7149 33.4218 42.7596 34.0066C42.3307 34.2678 42.7245 34.9422 43.1534 34.681C43.7928 34.2872 44.5921 34.8681 44.6662 35.5542C44.7637 36.4508 44.0463 37.1174 43.3639 37.5501C43.0013 37.7801 43.2275 38.4 43.6642 38.2635C44.1555 38.1076 44.6584 38.4078 44.8261 38.8873C45.021 39.4408 44.7988 40.0568 44.4791 40.5129C44.1009 41.0547 42.3736 42.8987 41.6913 41.9786C41.4651 41.6746 40.9855 41.7681 40.966 42.1736C40.9153 43.2222 40.5917 44.571 39.422 44.879C38.1821 45.2065 37.4218 43.8459 36.9968 42.922C36.7862 42.4659 36.1156 42.8636 36.3223 43.3158C36.911 44.5944 38.0105 46.068 39.6286 45.6314C40.9075 45.2844 41.4768 44.0876 41.6718 42.8831C42.9273 43.3742 44.6389 41.7486 45.2433 40.7702C45.68 40.0607 45.8593 39.0861 45.4265 38.3298Z" fill="#151921"/>
<path d="M41.9713 30.6383C41.87 30.2719 41.6049 29.964 41.2774 29.7691C40.5172 29.3209 39.6167 29.6054 38.9813 30.1238C38.8215 30.2525 38.837 30.5409 38.9813 30.6734C39.1489 30.8293 39.3633 30.8098 39.531 30.6734C39.5544 30.6539 39.5544 30.6539 39.5544 30.6539C39.5583 30.65 39.5621 30.65 39.5738 30.6383C39.605 30.6149 39.6401 30.5915 39.6713 30.5721C39.7376 30.5292 39.8077 30.4902 39.8779 30.4551C39.8857 30.4512 39.9364 30.4278 39.9442 30.4239C39.9676 30.4123 39.9949 30.4045 40.0183 30.3967C40.0845 30.3733 40.1547 30.3538 40.2249 30.3382C40.2366 30.3343 40.2911 30.3265 40.295 30.3265C40.3262 30.3226 40.3574 30.3226 40.3886 30.3187C40.4276 30.3187 40.4666 30.3187 40.5056 30.3187C40.5134 30.3187 40.5718 30.3265 40.5757 30.3265C40.6264 30.3382 40.6771 30.346 40.7278 30.3655C40.7395 30.3694 40.755 30.3733 40.7667 30.3811C40.794 30.3928 40.8213 30.4084 40.8486 30.4201C40.872 30.4317 40.8954 30.4473 40.9188 30.4629C40.9305 30.4707 40.95 30.4863 40.9617 30.4941C41.0084 30.5331 41.0513 30.576 41.0903 30.6188C41.0981 30.6266 41.102 30.6266 41.102 30.6305C41.1059 30.6344 41.102 30.6344 41.1098 30.6422C41.1254 30.6695 41.1449 30.6968 41.1605 30.7241C41.1644 30.728 41.1722 30.7436 41.18 30.7553C41.1839 30.7669 41.2034 30.8137 41.2073 30.8215C41.2151 30.8488 41.219 30.8761 41.2268 30.8995C41.2307 30.9112 41.2306 30.9112 41.2306 30.9151C41.2306 30.9189 41.2307 30.9228 41.2268 30.9345C41.2268 30.9774 41.2268 31.0164 41.2268 31.0593C41.2268 31.071 41.2268 31.0826 41.2268 31.0865C41.2229 31.0943 41.2229 31.1021 41.219 31.1177C41.18 31.2853 41.1293 31.414 41.0708 31.5387C40.985 31.7219 41.0123 31.9674 41.2112 32.0727C41.3827 32.1623 41.6517 32.1311 41.7452 31.9323C41.9402 31.5348 42.0961 31.0904 41.9713 30.6383Z" fill="#151921"/>
<path d="M46.9096 8.50147C46.8122 8.25978 46.5782 8.14672 46.3365 8.26757C45.3188 8.77825 44.1686 8.92639 43.0535 8.70028C42.7571 8.48198 42.262 8.82893 42.4881 9.21097C43.6851 11.2576 43.5798 13.8812 42.2503 15.8381C42.067 16.1071 42.375 16.532 42.6908 16.4112C43.7748 15.9863 44.9562 16.0798 45.9544 16.688C46.1259 16.7932 46.391 16.7347 46.4885 16.5476C47.7596 14.0683 47.9351 11.1017 46.9096 8.50147ZM45.9738 15.8186C45.1706 15.4288 44.2661 15.2885 43.3927 15.421C44.2856 13.6005 44.3323 11.4135 43.5291 9.55012C44.4805 9.63588 45.4241 9.49555 46.3131 9.1291C47.05 11.3122 46.9408 13.7213 45.9738 15.8186Z" fill="#151921"/>
<path d="M45.9777 15.8189C45.1745 15.4291 44.2699 15.2887 43.3965 15.4213C44.2894 13.6008 44.3362 11.4138 43.533 9.55041C44.4843 9.63617 45.4279 9.49584 46.3169 9.12939C47.0538 11.3125 46.9446 13.7216 45.9777 15.8189Z" fill="#DF7FFF"/>
<path d="M27.2726 2.3771C26.0522 1.93269 24.9058 1.32844 23.8414 0.587761C23.7049 0.494201 23.5724 0.505898 23.4671 0.57217C23.3501 0.529288 23.2137 0.548779 23.1045 0.677424C21.7944 2.22506 21.1043 4.25219 21.2368 6.27933C21.268 6.76662 21.3421 7.2578 21.4708 7.7334C21.5293 7.95171 21.6033 8.17001 21.8061 8.29476C22.0283 8.4312 22.2818 8.37273 22.5196 8.33764C23.7946 8.14273 25.0696 7.93221 26.3446 7.7295C26.6487 7.68272 26.7033 7.2695 26.5162 7.07848C25.2802 5.80373 25.7675 3.7688 27.37 3.09049C27.7054 2.94625 27.5494 2.47845 27.2726 2.3771ZM25.5336 7.07069C24.6875 7.20713 23.8375 7.33967 22.9914 7.47611C22.8549 7.4995 22.7185 7.51899 22.582 7.54238C22.5157 7.55408 22.3364 7.60865 22.2389 7.61255C22.2467 7.58526 22.2155 7.51509 22.2038 7.47221C22.1765 7.36696 22.1531 7.2578 22.1297 7.15255C22.0439 6.73933 22.0049 6.31831 21.9971 5.89729C21.9738 4.25609 22.5313 2.61489 23.5685 1.34014C24.4263 1.92099 25.3347 2.41218 26.2861 2.81761C24.9877 3.80778 24.6758 5.67898 25.5336 7.07069Z" fill="#151921"/>
<path d="M25.545 7.0738C24.6989 7.21025 23.8489 7.34279 23.0028 7.47923C22.8663 7.50262 22.7298 7.52211 22.5934 7.5455C22.5271 7.5572 22.3477 7.61177 22.2503 7.61567C22.2581 7.58838 22.2269 7.51821 22.2152 7.47533C22.1879 7.37008 22.1645 7.26092 22.1411 7.15567C22.0553 6.74245 22.0163 6.32143 22.0085 5.90041C21.9851 4.25921 22.5427 2.61801 23.5798 1.34326C24.4376 1.92411 25.3461 2.4153 26.2975 2.82073C24.9991 3.8109 24.6872 5.6821 25.545 7.0738Z" fill="#398FE5"/>
<path d="M9.4418 11.9871C9.22139 11.8396 8.94086 12.0235 8.88095 12.2444C8.47994 13.6881 7.0199 14.3675 5.76382 14.9245C5.53014 15.0286 5.47472 15.2789 5.54339 15.4704C5.5415 15.6002 5.58713 15.7325 5.72625 15.8158C8.6038 17.6201 10.008 20.8423 10.8734 23.9957C10.958 24.3013 11.4636 24.3906 11.5928 24.0668C12.3421 22.2088 13.9944 21.0194 15.5804 19.908C15.7054 19.821 15.8186 19.6265 15.7478 19.4685C14.3759 16.4237 12.2126 13.8487 9.4418 11.9871ZM6.52827 15.4221C7.7294 14.858 8.89152 14.1575 9.44874 12.9426C11.7769 14.6021 13.6647 16.8527 14.8787 19.4447C13.538 20.3896 12.1881 21.4229 11.3404 22.8278C10.4415 19.9524 9.02941 17.1898 6.52827 15.4221Z" fill="#151921"/>
<path d="M6.54082 15.4185C7.74195 14.8544 8.90407 14.1538 9.46129 12.939C11.7895 14.5985 13.6773 16.8491 14.8913 19.4411C13.5506 20.386 12.2007 21.4193 11.353 22.8242C10.454 19.9488 9.04196 17.1862 6.54082 15.4185Z" fill="#DF7FFF"/>
<path d="M37.1103 1.00928C36.1084 1.00928 36.1045 2.56833 37.1103 2.56833C38.1161 2.56833 38.1161 1.00928 37.1103 1.00928Z" fill="#151921"/>
<path d="M20.0825 9.19636C19.232 9.72583 20.0527 11.0515 20.9065 10.52C21.7602 9.98845 20.9363 8.66483 20.0825 9.19636Z" fill="#151921"/>
<path d="M1.25042 34.0318C0.399952 34.5613 1.2206 35.887 2.07438 35.3554C2.92485 34.8259 2.10089 33.5023 1.25042 34.0318Z" fill="#151921"/>
<path d="M24.4653 47.8273C23.6148 48.3567 24.4355 49.6823 25.2894 49.1508C26.1399 48.6214 25.3158 47.2978 24.4653 47.8273Z" fill="#151921"/>
<path d="M15.2446 65.1226C14.3941 65.6521 15.2147 66.9778 16.0685 66.4463C16.919 65.9168 16.0984 64.5911 15.2446 65.1226Z" fill="#151921"/>
<path d="M40.5161 58.3605C39.6656 58.8899 40.4864 60.2155 41.3402 59.684C42.194 59.1526 41.3699 57.829 40.5161 58.3605Z" fill="#151921"/>
<path d="M36.5399 55.8781C36.5009 55.7455 36.4347 55.6325 36.3411 55.5351C36.2904 55.4961 36.2359 55.4532 36.1852 55.4142C36.0643 55.3441 35.9318 55.309 35.7914 55.309H35.5731C35.464 55.3051 35.3665 55.3285 35.273 55.3753C35.1755 55.4065 35.0936 55.461 35.0235 55.5351C34.9455 55.6052 34.8948 55.691 34.8636 55.7845C34.813 55.8781 34.7935 55.9794 34.7974 56.0846C34.8052 56.1548 34.8169 56.2211 34.8246 56.2912C34.8636 56.4237 34.9299 56.5368 35.0235 56.6342C35.0741 56.6732 35.1287 56.7161 35.1794 56.755C35.3003 56.8252 35.4328 56.8603 35.5731 56.8603H35.7914C35.9006 56.8642 35.9981 56.8408 36.0916 56.794C36.1891 56.7628 36.2709 56.7083 36.3411 56.6342C36.4191 56.5641 36.4698 56.4783 36.5009 56.3848C36.5516 56.2912 36.5711 56.1899 36.5672 56.0846C36.5594 56.0184 36.5516 55.9482 36.5399 55.8781Z" fill="#151921"/>
<path d="M66.9286 43.2559C65.9268 43.2559 65.9229 44.8149 66.9286 44.8149C67.9344 44.8149 67.9344 43.2559 66.9286 43.2559Z" fill="#151921"/>
<path d="M63.0205 21.2778C62.0186 21.2778 62.0147 22.8369 63.0205 22.8369C64.0262 22.8369 64.0262 21.2778 63.0205 21.2778Z" fill="#151921"/>
<rect x="20.9258" y="18.9751" width="28" height="28" rx="14" fill="#08E0A3"/>
<path fill-rule="evenodd" clip-rule="evenodd" d="M40.5876 29.0625C40.8154 29.2903 40.8154 29.6596 40.5876 29.8874L33.5876 36.8874C33.3598 37.1152 32.9905 37.1152 32.7627 36.8874L29.2627 33.3874C29.0348 33.1596 29.0348 32.7903 29.2627 32.5625C29.4905 32.3347 29.8598 32.3347 30.0876 32.5625L33.1751 35.65L39.7627 29.0625C39.9905 28.8347 40.3598 28.8347 40.5876 29.0625Z" fill="white"/>
</svg>
