<svg width="70" height="69" viewBox="0 0 70 69" fill="none" xmlns="http://www.w3.org/2000/svg">
<path d="M35.4241 28.3367C35.1823 27.2998 34.0126 26.7306 33.0145 27.0113C32.3594 27.1984 31.8876 27.7052 31.6342 28.3133C31.3846 28.0171 31.1234 27.7325 30.7764 27.5337C30.0863 27.136 29.2597 27.2179 28.6787 27.7715C27.7741 28.6369 27.8677 30.0598 28.3278 31.2176C27.9223 31.2059 27.5207 31.2605 27.1425 31.4398C26.4913 31.7439 26.0312 32.3715 26.0312 33.1005C26.0312 33.8529 27.201 33.8529 27.201 33.1005C27.201 32.1337 28.6709 32.4027 29.2324 32.5235C29.6847 32.621 30.211 32.1103 29.8913 31.6659C29.5716 31.2137 29.3455 30.7342 29.2324 30.1884C29.1388 29.7206 29.092 29.0813 29.4195 28.6876C30.1292 27.8338 31.0961 29.5842 31.5796 29.9662C31.9383 30.2508 32.6129 30.1105 32.5778 29.553C32.5466 29.0306 32.7142 28.3991 33.2406 28.1691C33.65 27.9898 34.1842 28.212 34.2856 28.6525C34.4649 29.3776 35.5956 29.0696 35.4241 28.3367Z" fill="#D54141" fill-opacity="0.2"/>
<path d="M43.5101 36.8126C43.8649 36.3877 44.095 35.8614 44.1535 35.3001C44.2431 34.3917 43.5569 33.1989 42.4925 33.6355C42.2 33.7563 41.9973 34.0214 42.0831 34.3567C42.1571 34.6334 42.512 34.8868 42.8044 34.766C43.1436 34.6256 42.9487 35.4833 42.8824 35.6509C42.7186 36.0485 42.4106 36.3331 42.0324 36.5241C41.506 36.7931 41.7672 37.6157 42.3287 37.6157C43.1163 37.6118 43.5842 38.5123 43.0968 39.1399C42.4769 39.9313 41.2994 39.7948 40.4338 39.6389C39.9737 39.557 39.6306 39.9001 39.7124 40.3601C39.8021 40.8591 39.7514 41.3698 39.5799 41.8492C39.5292 41.9857 39.034 42.9135 38.9287 42.7926C38.4374 42.2196 37.6147 43.0499 38.1021 43.6191C38.8468 44.4923 39.8879 43.6776 40.3363 42.9564C40.7301 42.3209 40.9094 41.6037 40.9133 40.8747C42.2351 40.9877 43.6739 40.7499 44.2899 39.4245C44.7305 38.446 44.3172 37.3662 43.5101 36.8126Z" fill="#D54141" fill-opacity="0.2"/>
<path d="M40.8725 30.6484C40.7868 30.4574 40.6308 30.3171 40.4671 30.1963C40.3384 30.0988 40.1786 30.0326 40.0227 29.9975C39.8083 29.9507 39.6134 29.9507 39.3989 29.9936C39.1923 30.0365 39.013 30.1456 38.8532 30.282C38.744 30.3717 38.6816 30.5588 38.6816 30.6952C38.6816 30.8394 38.744 31.0109 38.8532 31.1083C38.9662 31.2097 39.1105 31.2876 39.2664 31.2798C39.3171 31.272 39.3717 31.2642 39.4223 31.2603C39.4808 31.2447 39.5354 31.2175 39.5861 31.1824C39.6055 31.1668 39.6289 31.159 39.6523 31.1434C39.6601 31.1395 39.6718 31.1395 39.6796 31.1356C39.6913 31.1356 39.7069 31.1356 39.7186 31.1356C39.742 31.1395 39.7654 31.1473 39.7849 31.1551C39.7927 31.159 39.8044 31.1668 39.8122 31.1707C39.8161 31.1746 39.8239 31.1785 39.8278 31.1863C39.8394 31.2058 39.8512 31.2214 39.8628 31.2408C39.9213 31.3656 40.0851 31.4747 40.2137 31.5098C40.354 31.5488 40.5412 31.5293 40.6659 31.4513C40.7907 31.3695 40.8998 31.2525 40.9349 31.1005C40.9427 31.0499 40.9505 30.9953 40.9544 30.9446C40.9505 30.8355 40.9232 30.7381 40.8725 30.6484Z" fill="#D54141" fill-opacity="0.2"/>
<path d="M34.4052 9.55339C34.2999 9.0622 33.5474 9.26881 33.6526 9.76C34.5494 13.9039 34.7093 18.196 34.1166 22.3945C34.0465 22.8857 34.799 23.0962 34.8692 22.6011C35.4813 18.2545 35.3293 13.8455 34.4052 9.55339Z" fill="#D54141" fill-opacity="0.2"/>
<path d="M15.1207 24.4439C14.619 24.4201 14.6264 25.2005 15.1282 25.2242C19.3637 25.4159 23.5542 26.358 27.4619 28.0036C27.9189 28.197 28.3147 27.5232 27.854 27.3289C23.808 25.6265 19.5064 24.6471 15.1207 24.4439Z" fill="#D54141" fill-opacity="0.2"/>
<path d="M23.1302 46.8034C22.8814 47.2399 23.5803 47.5871 23.829 47.1507C25.9209 43.4628 28.6611 40.1554 31.9001 37.4191C32.2797 37.0996 31.8587 36.4413 31.4765 36.7637C28.1243 39.5975 25.3004 42.9869 23.1302 46.8034Z" fill="#D54141" fill-opacity="0.2"/>
<path d="M42.7875 19.7432C42.6199 19.6457 42.343 19.6886 42.2534 19.8835C41.7699 20.9399 41.2864 22.0003 40.8068 23.0567C40.721 23.2478 40.7522 23.4777 40.9472 23.5908C41.1148 23.6883 41.3917 23.6415 41.4814 23.4505C41.9648 22.394 42.4483 21.3337 42.9279 20.2772C43.0176 20.0862 42.9825 19.8562 42.7875 19.7432Z" fill="#D54141" fill-opacity="0.2"/>
<path d="M54.2464 21.4663C50.8777 22.9087 47.8637 25.1151 45.4658 27.8869C45.1382 28.265 45.688 28.8186 46.0155 28.4365C48.3745 25.7077 51.3222 23.5597 54.6403 22.1368C55.1003 21.9419 54.7026 21.2714 54.2464 21.4663Z" fill="#D54141" fill-opacity="0.2"/>
<path d="M52.0253 44.6204C50.3253 44.0746 48.5356 43.9343 46.7693 44.176C46.5588 44.2033 46.4457 44.4722 46.4964 44.6555C46.5588 44.8816 46.7654 44.9556 46.976 44.9283C48.6019 44.7061 50.259 44.8699 51.8186 45.3728C52.2943 45.5287 52.5009 44.7763 52.0253 44.6204Z" fill="#D54141" fill-opacity="0.2"/>
<path d="M1.49005 25.2364C1.43849 25.1905 1.38111 25.1573 1.31337 25.1444C1.27991 25.1423 1.24976 25.1381 1.21423 25.1327C1.14275 25.1359 1.0795 25.1523 1.01993 25.1894L0.834619 25.3047C0.78623 25.3303 0.749386 25.367 0.724095 25.4149C0.692624 25.4528 0.670641 25.4987 0.661457 25.5503C0.646904 25.6007 0.6464 25.6515 0.657881 25.6994C0.662745 25.7515 0.679595 25.8007 0.708434 25.847L0.777287 25.9282C0.828852 25.9741 0.886222 26.0073 0.953961 26.0202C0.987425 26.0223 1.01758 26.0265 1.05311 26.0319C1.12459 26.0287 1.18784 26.0123 1.2474 25.9752L1.43272 25.8599C1.48111 25.8343 1.51795 25.7976 1.54324 25.7497C1.57471 25.7118 1.59669 25.6659 1.60588 25.6143C1.62043 25.5639 1.62094 25.5131 1.60946 25.4651C1.60459 25.4131 1.58774 25.3639 1.5589 25.3176C1.53375 25.2919 1.5119 25.2642 1.49005 25.2364Z" fill="#D54141" fill-opacity="0.2"/>
<path d="M2.3709 45.8276C2.33294 45.7961 2.28712 45.7742 2.23549 45.765L2.13634 45.7532C2.06486 45.7564 2.00161 45.7729 1.94204 45.8099C1.91432 45.8318 1.8866 45.8536 1.86094 45.8788C1.81498 45.9304 1.78182 45.9878 1.76889 46.0555C1.74515 46.1575 1.72141 46.2595 1.69892 46.3562C1.68437 46.4066 1.68386 46.4574 1.69535 46.5053C1.70021 46.5574 1.71706 46.6066 1.7459 46.6529C1.77143 46.7013 1.80813 46.7382 1.85602 46.7634C1.89397 46.7949 1.93979 46.8169 1.99143 46.8261C2.02489 46.8282 2.05504 46.8324 2.09057 46.8378C2.16206 46.8346 2.2253 46.8182 2.28487 46.7811C2.31259 46.7593 2.34032 46.7374 2.36598 46.7123C2.41194 46.6607 2.44509 46.6033 2.45803 46.5356C2.48176 46.4335 2.5055 46.3315 2.52799 46.2349C2.54254 46.1845 2.54305 46.1337 2.53157 46.0857C2.52671 46.0337 2.50986 45.9845 2.48102 45.9381C2.45218 45.8918 2.41547 45.855 2.3709 45.8276Z" fill="#D54141" fill-opacity="0.2"/>
<path d="M15.7811 47.2826C15.3542 47.5484 15.7662 48.2102 16.1931 47.9444C16.62 47.6786 16.208 47.0168 15.7811 47.2826Z" fill="#D54141" fill-opacity="0.2"/>
<path d="M23.4217 67.8617C22.9948 68.1275 23.4069 68.7893 23.8338 68.5235C24.2607 68.2578 23.8487 67.596 23.4217 67.8617Z" fill="#D54141" fill-opacity="0.2"/>
<path d="M48.5197 56.9009C48.0169 56.9009 48.0169 57.6804 48.5197 57.6804C49.0187 57.6804 49.0187 56.9009 48.5197 56.9009Z" fill="#D54141" fill-opacity="0.2"/>
<path d="M68.7209 34.5137C68.218 34.5137 68.218 35.2932 68.7209 35.2932C69.2238 35.2932 69.2238 34.5137 68.7209 34.5137Z" fill="#D54141" fill-opacity="0.2"/>
<path d="M69.1233 16.168C68.6204 16.168 68.6204 16.9475 69.1233 16.9475C69.6262 16.9475 69.6262 16.168 69.1233 16.168Z" fill="#D54141" fill-opacity="0.2"/>
<path d="M48.9533 0.489746C48.4505 0.489746 48.4505 1.26928 48.9533 1.26928C49.4562 1.26928 49.4562 0.489746 48.9533 0.489746Z" fill="#D54141" fill-opacity="0.2"/>
<path d="M14.6179 36.0004C11.6741 36.1876 8.57437 36.4487 6.15305 38.3238C6.01269 38.433 5.9854 38.5811 6.02439 38.7137C5.9737 38.854 5.99709 39.0216 6.14136 39.1464C6.95236 39.8442 7.53722 40.7291 7.88424 41.7388C7.96222 41.961 8.31314 42.0545 8.4847 41.8869C10.2081 40.195 12.9101 39.8091 15.039 40.9474C15.3821 41.1306 15.6239 40.7135 15.542 40.4289C15.1716 39.1308 14.8168 37.7937 15.0624 36.437C15.1092 36.1681 14.8558 35.9848 14.6179 36.0004ZM8.39892 40.9162C8.0402 40.1015 7.52163 39.3764 6.87438 38.7605C9.00327 37.2401 11.6741 36.9711 14.228 36.8035C14.1305 37.8482 14.3294 38.8813 14.5945 39.8949C12.5358 39.1386 10.1028 39.5284 8.39892 40.9162Z" fill="#D54141" fill-opacity="0.2"/>
<path d="M8.39563 40.9174C8.03691 40.1027 7.51834 39.3776 6.87109 38.7617C8.99998 37.2413 11.6708 36.9723 14.2247 36.8047C14.1272 37.8494 14.3261 38.8825 14.5912 39.8961C12.5325 39.1398 10.0995 39.5296 8.39563 40.9174Z" fill="#D54141" fill-opacity="0.2"/>
<path fill-rule="evenodd" clip-rule="evenodd" d="M28.3553 57.7442C28.3863 57.7304 28.4143 57.7106 28.4377 57.686C28.4611 57.6614 28.4794 57.6324 28.4915 57.6008C28.5037 57.5691 28.5095 57.5353 28.5087 57.5014C28.5078 57.4674 28.5002 57.434 28.4864 57.403C28.4726 57.372 28.4529 57.344 28.4283 57.3206C28.4037 57.2972 28.3747 57.2789 28.343 57.2667C28.3113 57.2545 28.2775 57.2487 28.2436 57.2496C28.2097 57.2505 28.1762 57.258 28.1452 57.2718L26.1314 58.1689L25.2347 56.1552C25.2068 56.0925 25.1551 56.0435 25.0911 56.0189C25.0271 55.9943 24.9559 55.9962 24.8932 56.0241C24.8305 56.0521 24.7815 56.1037 24.757 56.1678C24.7324 56.2318 24.7343 56.303 24.7622 56.3657L25.6594 58.3791L23.6457 59.2757C23.6147 59.2895 23.5867 59.3093 23.5633 59.334C23.5399 59.3586 23.5216 59.3876 23.5094 59.4193C23.4973 59.4511 23.4915 59.4849 23.4924 59.5188C23.4933 59.5528 23.5008 59.5862 23.5147 59.6172C23.5426 59.6799 23.5942 59.7289 23.6583 59.7535C23.69 59.7657 23.7238 59.7715 23.7577 59.7706C23.7917 59.7697 23.8251 59.7621 23.8562 59.7483L25.8696 58.8511L26.7667 60.8649C26.7946 60.9275 26.8463 60.9765 26.9103 61.001C26.9743 61.0255 27.0454 61.0236 27.1081 60.9957C27.1707 60.9677 27.2196 60.9161 27.2441 60.852C27.2686 60.788 27.2667 60.7169 27.2388 60.6543L26.3416 58.6408L28.3553 57.7442Z" fill="#D54141"/>
<path d="M60.8951 51.4579C60.2556 50.3664 59.5421 49.1384 59.9554 47.8364C60.0451 47.5518 59.7527 47.275 59.4758 47.3569C56.9298 48.0976 54.1185 49.1891 52.9527 51.7776C52.6759 51.8984 52.6213 52.3935 52.9995 52.5183C54.2004 52.912 55.3273 53.5045 56.3215 54.292C56.5282 54.4557 56.9142 54.4401 56.9726 54.1205C57.2768 52.4949 58.8754 51.5281 60.4584 52.0349C60.7859 52.1362 61.0627 51.7425 60.8951 51.4579ZM56.3683 53.3759C55.5495 52.795 54.6683 52.3194 53.7286 51.9647C54.7697 49.9103 56.9493 48.9552 59.0703 48.2964C58.9768 49.2865 59.3433 50.2416 59.8112 51.1266C58.3139 51.0369 56.8908 51.9452 56.3683 53.3759Z" fill="#D54141" fill-opacity="0.2"/>
<path d="M56.3701 53.3774C55.5513 52.7965 54.6701 52.3209 53.7305 51.9662C54.7715 49.9118 56.9511 48.9567 59.0722 48.2979C58.9786 49.288 59.3451 50.2431 59.813 51.128C58.3158 51.0384 56.8926 51.9467 56.3701 53.3774Z" fill="#D54141" fill-opacity="0.2"/>
<path fill-rule="evenodd" clip-rule="evenodd" d="M60.3553 7.74421C60.3863 7.73042 60.4143 7.71065 60.4377 7.68603C60.4611 7.66142 60.4794 7.63244 60.4915 7.60076C60.5037 7.56907 60.5095 7.5353 60.5087 7.50136C60.5078 7.46743 60.5002 7.434 60.4864 7.40298C60.4726 7.37196 60.4529 7.34396 60.4283 7.32058C60.4037 7.29721 60.3747 7.27891 60.343 7.26673C60.3113 7.25455 60.2775 7.24873 60.2436 7.2496C60.2097 7.25048 60.1762 7.25802 60.1452 7.27182L58.1314 8.16886L57.2347 6.15517C57.2068 6.0925 57.1551 6.04349 57.0911 6.01892C57.0271 5.99435 56.9559 5.99623 56.8932 6.02414C56.8305 6.05205 56.7815 6.10371 56.757 6.16776C56.7324 6.23181 56.7343 6.303 56.7622 6.36566L57.6594 8.3791L55.6457 9.27572C55.6147 9.28955 55.5867 9.30934 55.5633 9.33399C55.5399 9.35863 55.5216 9.38763 55.5094 9.41935C55.4973 9.45106 55.4915 9.48486 55.4924 9.51881C55.4933 9.55277 55.5008 9.58622 55.5147 9.61724C55.5426 9.67991 55.5942 9.72892 55.6583 9.75349C55.69 9.76566 55.7238 9.77146 55.7577 9.77057C55.7917 9.76967 55.8251 9.7621 55.8562 9.74827L57.8696 8.85107L58.7667 10.8649C58.7946 10.9275 58.8463 10.9765 58.9103 11.001C58.9743 11.0255 59.0454 11.0236 59.1081 10.9957C59.1707 10.9677 59.2196 10.9161 59.2441 10.852C59.2686 10.788 59.2667 10.7169 59.2388 10.6543L58.3416 8.64084L60.3553 7.74421Z" fill="#D54141"/>
<path fill-rule="evenodd" clip-rule="evenodd" d="M12.3553 51.7442C12.3863 51.7304 12.4143 51.7106 12.4377 51.686C12.4611 51.6614 12.4794 51.6324 12.4915 51.6008C12.5037 51.5691 12.5095 51.5353 12.5087 51.5014C12.5078 51.4674 12.5002 51.434 12.4864 51.403C12.4726 51.372 12.4529 51.344 12.4283 51.3206C12.4037 51.2972 12.3747 51.2789 12.343 51.2667C12.3113 51.2545 12.2775 51.2487 12.2436 51.2496C12.2097 51.2505 12.1762 51.258 12.1452 51.2718L10.1314 52.1689L9.23473 50.1552C9.20681 50.0925 9.15515 50.0435 9.0911 50.0189C9.02705 49.9943 8.95587 49.9962 8.8932 50.0241C8.83054 50.0521 8.78153 50.1037 8.75696 50.1678C8.73238 50.2318 8.73426 50.303 8.76217 50.3657L9.65938 52.3791L7.64568 53.2757C7.61466 53.2895 7.58665 53.3093 7.56328 53.334C7.5399 53.3586 7.52161 53.3876 7.50944 53.4193C7.49727 53.4511 7.49147 53.4849 7.49236 53.5188C7.49326 53.5528 7.50083 53.5862 7.51465 53.6172C7.54257 53.6799 7.59423 53.7289 7.65828 53.7535C7.68999 53.7657 7.72379 53.7715 7.75775 53.7706C7.7917 53.7697 7.82515 53.7621 7.85618 53.7483L9.86961 52.8511L10.7667 54.8649C10.7946 54.9275 10.8463 54.9765 10.9103 55.001C10.9743 55.0255 11.0454 55.0236 11.1081 54.9957C11.1707 54.9677 11.2196 54.9161 11.2441 54.852C11.2686 54.788 11.2667 54.7169 11.2388 54.6543L10.3416 52.6408L12.3553 51.7442Z" fill="#D54141"/>
<path d="M34.0798 34.0646C31.8573 36.1658 29.7909 38.4307 27.9076 40.8399C27.6035 41.2297 28.1494 41.7872 28.4574 41.3895C30.3445 38.9804 32.4071 36.7154 34.6296 34.6142C34.9961 34.2712 34.4424 33.7215 34.0798 34.0646Z" fill="#D54141"/>
<path d="M38.1831 35.7816C35.4928 37.376 32.8882 39.1108 30.3772 40.982C29.9795 41.2783 30.3694 41.9566 30.771 41.6564C33.2781 39.7852 35.8827 38.0505 38.5769 36.456C39.0097 36.1988 38.6198 35.5243 38.1831 35.7816Z" fill="#D54141"/>
<path d="M29.5867 34.0524C28.7796 35.4246 27.9764 36.7968 27.1693 38.169C26.9158 38.6017 27.5904 38.9955 27.8438 38.5627C28.6509 37.1905 29.4541 35.8183 30.2612 34.4461C30.5147 34.0134 29.8401 33.6197 29.5867 34.0524Z" fill="#D54141"/>
<path d="M34.4549 26.0117C33.2657 25.8285 32.2988 26.4873 31.6905 27.4151C31.5969 27.2007 31.4917 26.9863 31.3708 26.7836C31.1524 26.4132 30.8639 25.9182 30.4779 25.6921C29.7254 25.2554 28.8052 26.078 28.3529 26.6199C27.4327 27.7231 27.1286 29.2512 27.5614 30.604C26.5632 30.5884 25.4598 30.8145 25.1284 31.8904C24.7541 33.0989 25.7366 34.0774 26.6919 34.6192C27.1286 34.8648 27.5224 34.1943 27.0857 33.9448C26.4658 33.594 25.5885 32.9352 25.8809 32.097C26.1889 31.2121 27.4405 31.3485 28.158 31.4187C28.4699 31.4499 28.6181 31.0718 28.4933 30.834C27.9396 29.7658 28.0644 28.4599 28.7038 27.458C28.9144 27.1305 29.6162 26.2261 30.088 26.3704C30.3492 26.4522 30.6612 27.1033 30.7859 27.3255C30.9887 27.6919 31.1407 28.0778 31.2577 28.4794C31.3747 28.8692 31.8777 28.8263 32.0102 28.4794C32.3417 27.6022 33.0513 26.7797 34.0572 26.7641C34.9618 26.7485 35.8118 27.6373 35.301 28.53C35.0515 28.9667 35.726 29.3604 35.9756 28.9238C36.6696 27.6919 35.7923 26.2183 34.4549 26.0117Z" fill="#D54141"/>
<path d="M45.4265 37.3406C45.2316 36.9975 44.9236 36.7324 44.5727 36.5843C45.2394 35.9177 45.68 35.0327 45.3486 34.0621C45.0015 33.0368 43.7149 32.4326 42.7596 33.0173C42.3307 33.2785 42.7245 33.9529 43.1534 33.6917C43.7928 33.298 44.5921 33.8788 44.6662 34.5649C44.7637 35.4616 44.0463 36.1282 43.3639 36.5609C43.0013 36.7909 43.2275 37.4107 43.6642 37.2743C44.1555 37.1184 44.6584 37.4185 44.8261 37.898C45.021 38.4516 44.7988 39.0675 44.4791 39.5236C44.1009 40.0655 42.3736 41.9094 41.6913 40.9894C41.4651 40.6853 40.9855 40.7789 40.966 41.1843C40.9153 42.233 40.5917 43.5818 39.422 43.8897C38.1821 44.2172 37.4218 42.8567 36.9968 41.9328C36.7862 41.4767 36.1156 41.8743 36.3223 42.3265C36.911 43.6052 38.0105 45.0787 39.6286 44.6421C40.9075 44.2952 41.4768 43.0984 41.6718 41.8938C42.9273 42.385 44.6389 40.7594 45.2433 39.7809C45.68 39.0714 45.8593 38.0968 45.4265 37.3406Z" fill="#D54141"/>
<path d="M41.9713 29.6491C41.87 29.2827 41.6049 28.9748 41.2774 28.7799C40.5172 28.3317 39.6167 28.6162 38.9813 29.1346C38.8215 29.2632 38.837 29.5516 38.9813 29.6841C39.1489 29.84 39.3633 29.8206 39.531 29.6841C39.5544 29.6647 39.5544 29.6647 39.5544 29.6647C39.5583 29.6608 39.5621 29.6608 39.5738 29.6491C39.605 29.6257 39.6401 29.6023 39.6713 29.5828C39.7376 29.5399 39.8077 29.501 39.8779 29.4659C39.8857 29.462 39.9364 29.4386 39.9442 29.4347C39.9676 29.423 39.9949 29.4152 40.0183 29.4074C40.0845 29.384 40.1547 29.3645 40.2249 29.3489C40.2366 29.345 40.2911 29.3373 40.295 29.3373C40.3262 29.3334 40.3574 29.3334 40.3886 29.3295C40.4276 29.3295 40.4666 29.3295 40.5056 29.3295C40.5134 29.3295 40.5718 29.3373 40.5757 29.3373C40.6264 29.3489 40.6771 29.3567 40.7278 29.3762C40.7395 29.3801 40.755 29.384 40.7667 29.3918C40.794 29.4035 40.8213 29.4191 40.8486 29.4308C40.872 29.4425 40.8954 29.4581 40.9188 29.4737C40.9305 29.4815 40.95 29.4971 40.9617 29.5048C41.0084 29.5438 41.0513 29.5867 41.0903 29.6296C41.0981 29.6374 41.102 29.6374 41.102 29.6413C41.1059 29.6452 41.102 29.6452 41.1098 29.653C41.1254 29.6802 41.1449 29.7075 41.1605 29.7348C41.1644 29.7387 41.1722 29.7543 41.18 29.766C41.1839 29.7777 41.2034 29.8245 41.2073 29.8323C41.2151 29.8595 41.219 29.8868 41.2268 29.9102C41.2307 29.9219 41.2306 29.9219 41.2306 29.9258C41.2306 29.9297 41.2307 29.9336 41.2268 29.9453C41.2268 29.9882 41.2268 30.0271 41.2268 30.07C41.2268 30.0817 41.2268 30.0934 41.2268 30.0973C41.2229 30.1051 41.2229 30.1129 41.219 30.1285C41.18 30.2961 41.1293 30.4247 41.0708 30.5494C40.985 30.7326 41.0123 30.9782 41.2112 31.0834C41.3827 31.173 41.6517 31.1419 41.7452 30.9431C41.9402 30.5455 42.0961 30.1012 41.9713 29.6491Z" fill="#D54141"/>
<path d="M46.9096 7.51221C46.8122 7.27052 46.5782 7.15747 46.3365 7.27832C45.3188 7.789 44.1686 7.93713 43.0535 7.71103C42.7571 7.49272 42.262 7.83967 42.4881 8.22171C43.6851 10.2683 43.5798 12.8919 42.2503 14.8489C42.067 15.1179 42.375 15.5428 42.6908 15.4219C43.7748 14.997 44.9562 15.0906 45.9544 15.6987C46.1259 15.804 46.391 15.7455 46.4885 15.5584C47.7596 13.079 47.9351 10.1124 46.9096 7.51221ZM45.9738 14.8294C45.1706 14.4395 44.2661 14.2992 43.3927 14.4317C44.2856 12.6112 44.3323 10.4243 43.5291 8.56086C44.4805 8.64663 45.4241 8.50629 46.3131 8.13985C47.05 10.3229 46.9408 12.7321 45.9738 14.8294Z" fill="#D54141" fill-opacity="0.2"/>
<path d="M45.9777 14.8297C45.1745 14.4398 44.2699 14.2995 43.3965 14.432C44.2894 12.6115 44.3362 10.4246 43.533 8.56115C44.4843 8.64692 45.4279 8.50658 46.3169 8.14014C47.0538 10.3232 46.9446 12.7324 45.9777 14.8297Z" fill="#D54141" fill-opacity="0.2"/>
<path fill-rule="evenodd" clip-rule="evenodd" d="M26.3553 2.74421C26.3863 2.73042 26.4143 2.71065 26.4377 2.68603C26.4611 2.66142 26.4794 2.63244 26.4915 2.60076C26.5037 2.56907 26.5095 2.5353 26.5087 2.50136C26.5078 2.46743 26.5002 2.434 26.4864 2.40298C26.4726 2.37196 26.4529 2.34396 26.4283 2.32058C26.4037 2.29721 26.3747 2.27891 26.343 2.26673C26.3113 2.25455 26.2775 2.24873 26.2436 2.2496C26.2097 2.25048 26.1762 2.25802 26.1452 2.27182L24.1314 3.16886L23.2347 1.15517C23.2068 1.0925 23.1551 1.04349 23.0911 1.01892C23.0271 0.994349 22.9559 0.996225 22.8932 1.02414C22.8305 1.05205 22.7815 1.10371 22.757 1.16776C22.7324 1.23181 22.7343 1.303 22.7622 1.36566L23.6594 3.3791L21.6457 4.27572C21.6147 4.28955 21.5867 4.30934 21.5633 4.33399C21.5399 4.35863 21.5216 4.38763 21.5094 4.41935C21.4973 4.45106 21.4915 4.48486 21.4924 4.51881C21.4933 4.55277 21.5008 4.58622 21.5147 4.61724C21.5426 4.67991 21.5942 4.72892 21.6583 4.75349C21.69 4.76566 21.7238 4.77146 21.7577 4.77057C21.7917 4.76967 21.8251 4.7621 21.8562 4.74827L23.8696 3.85107L24.7667 5.86493C24.7946 5.92753 24.8463 5.97648 24.9103 6.001C24.9743 6.02552 25.0454 6.0236 25.1081 5.99567C25.1707 5.96773 25.2196 5.91607 25.2441 5.85205C25.2686 5.78802 25.2667 5.71688 25.2388 5.65427L24.3416 3.64084L26.3553 2.74421Z" fill="#D54141"/>
<path fill-rule="evenodd" clip-rule="evenodd" d="M13.3553 15.7442C13.3863 15.7304 13.4143 15.7106 13.4377 15.686C13.4611 15.6614 13.4794 15.6324 13.4915 15.6008C13.5037 15.5691 13.5095 15.5353 13.5087 15.5014C13.5078 15.4674 13.5002 15.434 13.4864 15.403C13.4726 15.372 13.4529 15.344 13.4283 15.3206C13.4037 15.2972 13.3747 15.2789 13.343 15.2667C13.3113 15.2545 13.2775 15.2487 13.2436 15.2496C13.2097 15.2505 13.1762 15.258 13.1452 15.2718L11.1314 16.1689L10.2347 14.1552C10.2068 14.0925 10.1551 14.0435 10.0911 14.0189C10.0271 13.9943 9.95587 13.9962 9.8932 14.0241C9.83054 14.0521 9.78153 14.1037 9.75696 14.1678C9.73238 14.2318 9.73426 14.303 9.76217 14.3657L10.6594 16.3791L8.64568 17.2757C8.61466 17.2895 8.58665 17.3093 8.56328 17.334C8.5399 17.3586 8.52161 17.3876 8.50944 17.4193C8.49727 17.4511 8.49147 17.4849 8.49236 17.5188C8.49326 17.5528 8.50083 17.5862 8.51465 17.6172C8.54257 17.6799 8.59423 17.7289 8.65828 17.7535C8.68999 17.7657 8.72379 17.7715 8.75775 17.7706C8.7917 17.7697 8.82515 17.7621 8.85618 17.7483L10.8696 16.8511L11.7667 18.8649C11.7946 18.9275 11.8463 18.9765 11.9103 19.001C11.9743 19.0255 12.0454 19.0236 12.1081 18.9957C12.1707 18.9677 12.2196 18.9161 12.2441 18.852C12.2686 18.788 12.2667 18.7169 12.2388 18.6543L11.3416 16.6408L13.3553 15.7442Z" fill="#D54141"/>
<path d="M37.1103 0.0200195C36.1084 0.0200195 36.1045 1.57908 37.1103 1.57908C38.1161 1.57908 38.1161 0.0200195 37.1103 0.0200195Z" fill="#D54141"/>
<path d="M20.0825 8.2071C19.232 8.73658 20.0527 10.0623 20.9065 9.53072C21.7602 8.99919 20.9363 7.67557 20.0825 8.2071Z" fill="#D54141"/>
<path d="M1.25042 33.0425C0.399952 33.572 1.2206 34.8977 2.07438 34.3662C2.92485 33.8367 2.10089 32.513 1.25042 33.0425Z" fill="#D54141"/>
<path d="M24.4653 46.838C23.6148 47.3674 24.4355 48.6931 25.2894 48.1616C26.1399 47.6321 25.3158 46.3086 24.4653 46.838Z" fill="#D54141"/>
<path d="M15.2446 64.1334C14.3941 64.6628 15.2147 65.9885 16.0685 65.457C16.919 64.9275 16.0984 63.6018 15.2446 64.1334Z" fill="#D54141"/>
<path d="M40.5161 57.3712C39.6656 57.9006 40.4864 59.2262 41.3402 58.6948C42.194 58.1633 41.3699 56.8398 40.5161 57.3712Z" fill="#D54141"/>
<path d="M36.5399 54.8888C36.5009 54.7563 36.4347 54.6433 36.3411 54.5458C36.2904 54.5068 36.2359 54.464 36.1852 54.425C36.0643 54.3548 35.9318 54.3198 35.7914 54.3198H35.5731C35.464 54.3159 35.3665 54.3392 35.273 54.386C35.1755 54.4172 35.0936 54.4718 35.0235 54.5458C34.9455 54.616 34.8948 54.7017 34.8636 54.7953C34.813 54.8888 34.7935 54.9901 34.7974 55.0954C34.8052 55.1655 34.8169 55.2318 34.8246 55.302C34.8636 55.4345 34.9299 55.5475 35.0235 55.645C35.0741 55.6839 35.1287 55.7268 35.1794 55.7658C35.3003 55.8359 35.4328 55.871 35.5731 55.871H35.7914C35.9006 55.8749 35.9981 55.8515 36.0916 55.8048C36.1891 55.7736 36.2709 55.719 36.3411 55.645C36.4191 55.5748 36.4698 55.489 36.5009 55.3955C36.5516 55.302 36.5711 55.2006 36.5672 55.0954C36.5594 55.0291 36.5516 54.959 36.5399 54.8888Z" fill="#D54141"/>
<path d="M66.9286 42.2666C65.9268 42.2666 65.9229 43.8257 66.9286 43.8257C67.9344 43.8257 67.9344 42.2666 66.9286 42.2666Z" fill="#D54141"/>
<path d="M63.0205 20.2886C62.0186 20.2886 62.0147 21.8476 63.0205 21.8476C64.0262 21.8476 64.0262 20.2886 63.0205 20.2886Z" fill="#D54141"/>
<path fill-rule="evenodd" clip-rule="evenodd" d="M64.3553 33.7442C64.3863 33.7304 64.4143 33.7106 64.4377 33.686C64.4611 33.6614 64.4794 33.6324 64.4915 33.6008C64.5037 33.5691 64.5095 33.5353 64.5087 33.5014C64.5078 33.4674 64.5002 33.434 64.4864 33.403C64.4726 33.372 64.4529 33.344 64.4283 33.3206C64.4037 33.2972 64.3747 33.2789 64.343 33.2667C64.3113 33.2545 64.2775 33.2487 64.2436 33.2496C64.2097 33.2505 64.1762 33.258 64.1452 33.2718L62.1314 34.1689L61.2347 32.1552C61.2068 32.0925 61.1551 32.0435 61.0911 32.0189C61.0271 31.9943 60.9559 31.9962 60.8932 32.0241C60.8305 32.0521 60.7815 32.1037 60.757 32.1678C60.7324 32.2318 60.7343 32.303 60.7622 32.3657L61.6594 34.3791L59.6457 35.2757C59.6147 35.2895 59.5867 35.3093 59.5633 35.334C59.5399 35.3586 59.5216 35.3876 59.5094 35.4193C59.4973 35.4511 59.4915 35.4849 59.4924 35.5188C59.4933 35.5528 59.5008 35.5862 59.5147 35.6172C59.5426 35.6799 59.5942 35.7289 59.6583 35.7535C59.69 35.7657 59.7238 35.7715 59.7577 35.7706C59.7917 35.7697 59.8251 35.7621 59.8562 35.7483L61.8696 34.8511L62.7667 36.8649C62.7946 36.9275 62.8463 36.9765 62.9103 37.001C62.9743 37.0255 63.0454 37.0236 63.1081 36.9957C63.1707 36.9677 63.2196 36.9161 63.2441 36.852C63.2686 36.788 63.2667 36.7169 63.2388 36.6543L62.3416 34.6408L64.3553 33.7442Z" fill="#D54141"/>
<rect x="15" y="13.9995" width="40" height="40" rx="20" fill="#D54141"/>
<path fill-rule="evenodd" clip-rule="evenodd" d="M39.5667 30.3005C39.6237 30.2436 39.669 30.176 39.6998 30.1016C39.7307 30.0271 39.7466 29.9474 39.7467 29.8668C39.7467 29.7862 39.7309 29.7064 39.7001 29.6319C39.6693 29.5575 39.6242 29.4898 39.5672 29.4328C39.5103 29.3758 39.4427 29.3305 39.3683 29.2997C39.2938 29.2688 39.2141 29.2529 39.1335 29.2528C39.0529 29.2528 38.9731 29.2686 38.8987 29.2994C38.8242 29.3302 38.7565 29.3753 38.6995 29.4323L34.9992 33.1325L31.3 29.4323C31.1849 29.3171 31.0287 29.2524 30.8659 29.2524C30.7031 29.2524 30.5469 29.3171 30.4318 29.4323C30.3166 29.5474 30.252 29.7036 30.252 29.8664C30.252 30.0292 30.3166 30.1854 30.4318 30.3005L34.132 33.9997L30.4318 37.6989C30.3748 37.7559 30.3295 37.8236 30.2987 37.8981C30.2678 37.9726 30.252 38.0524 30.252 38.1331C30.252 38.2137 30.2678 38.2935 30.2987 38.368C30.3295 38.4425 30.3748 38.5102 30.4318 38.5672C30.5469 38.6823 30.7031 38.747 30.8659 38.747C30.9465 38.747 31.0264 38.7311 31.1009 38.7003C31.1754 38.6694 31.243 38.6242 31.3 38.5672L34.9992 34.8669L38.6995 38.5672C38.8146 38.6822 38.9708 38.7467 39.1335 38.7466C39.2962 38.7465 39.4522 38.6818 39.5672 38.5667C39.6822 38.4515 39.7468 38.2954 39.7467 38.1327C39.7466 37.97 39.6818 37.8139 39.5667 37.6989L35.8664 33.9997L39.5667 30.3005Z" fill="white"/>
</svg>
