<svg width="24" height="24" viewBox="0 0 24 24" fill="none" xmlns="http://www.w3.org/2000/svg">
    <path fill-rule="evenodd" clip-rule="evenodd" d="M5.45455 6.18182C5.45455 4.97683 6.43138 4 7.63636 4H17.8182C19.0232 4 20 4.97683 20 6.18182V17.8182C20 19.0232 19.0232 20 17.8182 20H7.63636C6.43138 20 5.45455 19.0232 5.45455 17.8182V17.0909H4.72727C4.32561 17.0909 4 16.7653 4 16.3636C4 15.962 4.32561 15.6364 4.72727 15.6364H5.45455V14.1818H4.72727C4.32561 14.1818 4 13.8562 4 13.4545C4 13.0529 4.32561 12.7273 4.72727 12.7273H5.45455V11.2727H4.72727C4.32561 11.2727 4 10.9471 4 10.5455C4 10.1438 4.32561 9.81818 4.72727 9.81818H5.45455V8.36364H4.72727C4.32561 8.36364 4 8.03803 4 7.63636C4 7.2347 4.32561 6.90909 4.72727 6.90909H5.45455V6.18182ZM6.90909 17.0909H7.63636C8.03803 17.0909 8.36364 16.7653 8.36364 16.3636C8.36364 15.962 8.03803 15.6364 7.63636 15.6364H6.90909V14.1818H7.63636C8.03803 14.1818 8.36364 13.8562 8.36364 13.4545C8.36364 13.0529 8.03803 12.7273 7.63636 12.7273H6.90909V11.2727H7.63636C8.03803 11.2727 8.36364 10.9471 8.36364 10.5455C8.36364 10.1438 8.03803 9.81818 7.63636 9.81818H6.90909V8.36364H7.63636C8.03803 8.36364 8.36364 8.03803 8.36364 7.63636C8.36364 7.2347 8.03803 6.90909 7.63636 6.90909H6.90909V6.18182C6.90909 5.78016 7.2347 5.45455 7.63636 5.45455H17.8182C18.2198 5.45455 18.5455 5.78016 18.5455 6.18182V17.8182C18.5455 18.2198 18.2198 18.5455 17.8182 18.5455H7.63636C7.2347 18.5455 6.90909 18.2198 6.90909 17.8182V17.0909Z" fill="currentColor" fill-opacity="0.9"/>
    </svg>
    