<svg width="24" height="24" viewBox="0 0 24 24" fill="none" xmlns="http://www.w3.org/2000/svg">
    <path d="M9.75 8.25C10.1642 8.25 10.5 8.58579 10.5 9V15C10.5 15.4142 10.1642 15.75 9.75 15.75C9.33579 15.75 9 15.4142 9 15V9C9 8.58579 9.33579 8.25 9.75 8.25Z" fill="currentColor" fill-opacity="0.9" />
    <path d="M15 9C15 8.58579 14.6642 8.25 14.25 8.25C13.8358 8.25 13.5 8.58579 13.5 9V15C13.5 15.4142 13.8358 15.75 14.25 15.75C14.6642 15.75 15 15.4142 15 15V9Z" fill="currentColor" fill-opacity="0.9" />
    <path fill-rule="evenodd" clip-rule="evenodd" d="M12 21C16.9706 21 21 16.9706 21 12C21 7.02944 16.9706 3 12 3C7.02944 3 3 7.02944 3 12C3 16.9706 7.02944 21 12 21ZM12 19.5C16.1421 19.5 19.5 16.1421 19.5 12C19.5 7.85786 16.1421 4.5 12 4.5C7.85786 4.5 4.5 7.85786 4.5 12C4.5 16.1421 7.85786 19.5 12 19.5Z" fill="currentColor" fill-opacity="0.9" />
</svg>
    