<svg width="14" height="14" viewBox="0 0 14 14" fill="none" xmlns="http://www.w3.org/2000/svg">
<path d="M11.1164 14C8.34451 14 5.37177 14 2.60491 14C2.57478 13.99 2.54466 13.9799 2.51453 13.9749C1.98727 13.8544 1.60563 13.4426 1.54537 12.9053C1.52529 12.6994 1.53533 12.4885 1.53533 12.2776C1.53533 11.9713 1.53533 11.67 1.53533 11.3537C1.42988 11.3537 1.33447 11.3537 1.23906 11.3537C0.54609 11.3436 0.00878766 10.8113 0.00376614 10.1184C-0.00125538 8.48135 -0.00125538 6.84433 0.00376614 5.21234C0.00376614 4.51435 0.546091 3.97704 1.24408 3.97202C1.33949 3.97202 1.42988 3.97202 1.53533 3.97202C1.53533 3.90172 1.53533 3.85653 1.53533 3.80631C1.53533 2.97776 1.53533 2.14921 1.53533 1.31564C1.53533 0.522238 2.158 0 2.94638 0C4.71897 0 6.592 0 8.3646 0C8.98727 0 9.50951 0.215925 9.94136 0.662841C10.5038 1.25538 11.0662 1.84792 11.6236 2.44046C11.8947 2.72669 12.0705 3.06815 12.1458 3.45983C12.1759 3.62554 12.181 3.79125 12.201 3.967C12.2663 3.967 12.3316 3.967 12.3919 3.967C13.2003 3.967 13.7175 4.4792 13.7175 5.28766C13.7175 6.19154 13.7175 7.09039 13.7175 7.99426C13.7175 8.70732 13.7226 9.41535 13.7175 10.1284C13.7125 10.731 13.2857 11.2281 12.7032 11.3235C12.5375 11.3486 12.3718 11.3486 12.191 11.3587C12.191 11.4089 12.191 11.4591 12.191 11.5043C12.191 11.9311 12.196 12.363 12.191 12.7898C12.186 13.302 11.8596 13.7539 11.3725 13.9247C11.2821 13.9598 11.2018 13.9799 11.1164 14ZM6.86316 10.5301C8.67091 10.5301 10.5791 10.5301 12.3919 10.5301C12.7484 10.5301 12.899 10.3795 12.899 10.023C12.899 8.4462 12.899 6.86944 12.899 5.29268C12.899 4.93113 12.7534 4.78551 12.3969 4.78551C8.77636 4.78551 4.94996 4.78551 1.32945 4.78551C0.982963 4.78551 0.832317 4.93616 0.832317 5.28264C0.832317 6.8594 0.832317 8.43616 0.832317 10.0129C0.832317 10.3795 1.07837 10.5301 1.43992 10.5301C3.24265 10.5301 5.0504 10.5301 6.86316 10.5301ZM2.35886 3.95696C5.30147 3.95696 8.42988 3.95696 11.3574 3.95696C11.3825 3.59039 11.2821 3.27905 11.031 3.00789C10.4686 2.40531 9.90118 1.80775 9.32873 1.21019C9.07765 0.944046 8.76632 0.818508 8.39975 0.818508C6.60204 0.818508 4.70893 0.818508 2.91123 0.818508C2.61998 0.818508 2.35886 0.984218 2.35886 1.28049C2.35886 2.09397 2.35886 2.91248 2.35886 3.72597C2.35886 3.80129 2.35886 3.87661 2.35886 3.95696ZM2.35886 11.3537C2.35886 11.8156 2.35886 12.2626 2.35886 12.7044C2.35886 13.0158 2.51955 13.1765 2.82586 13.1765C5.45212 13.1765 8.17378 13.1765 10.8 13.1765C11.1013 13.1765 11.3624 13.0108 11.3624 12.7095C11.3624 12.2927 11.3624 11.8809 11.3624 11.4641C11.3624 11.424 11.3574 11.3838 11.3524 11.3436C8.41984 11.3537 5.29645 11.3537 2.35886 11.3537Z" fill="#141414"/>
<path d="M6.00391 7.71081C6.00391 7.28086 6.00391 6.8509 6.00391 6.42095C6.00391 6.15223 6.14598 6.00443 6.41237 6.00443C6.64768 6.00443 6.88743 5.99995 7.12274 6.00443C7.70435 6.01339 8.1439 6.27763 8.37477 6.81507C8.67667 7.52271 8.65447 8.22586 8.20605 8.87527C7.96186 9.22461 7.61556 9.40823 7.18934 9.42167C6.93183 9.43063 6.67432 9.43511 6.41681 9.43063C6.15042 9.43063 6.00835 9.28283 6.00835 9.01411C6.00835 8.57968 6.00835 8.14524 6.00391 7.71081C6.00835 7.71081 6.00835 7.71081 6.00391 7.71081ZM6.73648 8.69164C6.86523 8.69164 6.98511 8.69164 7.10054 8.69164C7.40245 8.69612 7.60668 8.54833 7.72655 8.2796C7.89527 7.89444 7.88639 7.50479 7.72655 7.11963C7.6422 6.91361 7.48236 6.77029 7.25593 6.74341C7.08722 6.7255 6.91407 6.73894 6.73648 6.73894C6.73648 7.39283 6.73648 8.03776 6.73648 8.69164Z" fill="#141414"/>
<path d="M3.39924 8.24792C3.39924 8.52762 3.39924 8.78111 3.39924 9.03459C3.39924 9.2706 3.23923 9.42793 2.99923 9.4323C2.75922 9.43667 2.58422 9.2706 2.57922 9.03459C2.57922 8.15614 2.57422 7.27331 2.57422 6.39486C2.57422 6.15449 2.73922 6.00589 3.01423 6.00589C3.36924 6.00589 3.72425 5.98841 4.07425 6.03212C4.71927 6.10641 5.18428 6.62649 5.14428 7.18154C5.10428 7.77154 4.57927 8.2217 3.91425 8.24355C3.74425 8.25229 3.57924 8.24792 3.39924 8.24792ZM3.39924 7.53554C3.57424 7.53554 3.73425 7.53991 3.88925 7.53554C4.11926 7.5268 4.29926 7.36946 4.32426 7.17717C4.34926 6.98924 4.21926 6.79257 3.99425 6.75324C3.79925 6.71827 3.59424 6.72701 3.39424 6.71827C3.39924 7.00235 3.39924 7.2602 3.39924 7.53554Z" fill="#141414"/>
<path d="M10.1122 8.04967C10.1122 8.39692 10.1163 8.72658 10.1122 9.05625C10.1081 9.32877 9.87184 9.50459 9.64805 9.4035C9.51544 9.34196 9.4367 9.23207 9.4367 9.07823C9.43256 8.17274 9.43256 7.26726 9.4367 6.36178C9.4367 6.15519 9.58175 6.00574 9.77238 6.00574C10.1163 6.00134 10.4562 6.00134 10.8001 6.00574C10.9949 6.00574 11.1399 6.15519 11.1482 6.35299C11.1565 6.55079 11.0073 6.71782 10.8084 6.72221C10.6178 6.72661 10.423 6.72221 10.2324 6.72221C10.1951 6.72221 10.1578 6.72221 10.1163 6.72221C10.1163 6.9288 10.1163 7.12221 10.1163 7.3288C10.3153 7.3288 10.51 7.3244 10.7048 7.3288C10.8996 7.33319 11.0405 7.46066 11.0612 7.64088C11.0861 7.86066 10.941 8.04088 10.7255 8.04527C10.5266 8.05406 10.3277 8.04967 10.1122 8.04967Z" fill="#141414"/>
</svg>
