<svg width="16" height="16" viewBox="0 0 16 16" fill="none" xmlns="http://www.w3.org/2000/svg">
<path d="M7.99734 5.09091C8.399 5.09091 8.72461 5.41652 8.72461 5.81818V7.27273H10.1792C10.5808 7.27273 10.9064 7.59834 10.9064 8C10.9064 8.40166 10.5808 8.72727 10.1792 8.72727H8.72461V10.1818C8.72461 10.5835 8.399 10.9091 7.99734 10.9091C7.59567 10.9091 7.27006 10.5835 7.27006 10.1818V8.72727H5.81552C5.41386 8.72727 5.08825 8.40166 5.08825 8C5.08825 7.59834 5.41386 7.27273 5.81552 7.27273H7.27006V5.81818C7.27006 5.41652 7.59567 5.09091 7.99734 5.09091Z" fill="currentColor"/>
<path fill-rule="evenodd" clip-rule="evenodd" d="M9.45188 1.45455C9.45188 1.48818 9.45074 1.51964 9.44849 1.54905C10.5858 1.71077 11.4535 2.07905 12.105 2.64614C13.008 3.43219 13.3734 4.49584 13.5744 5.52772C13.6751 6.04487 13.7395 6.58335 13.8009 7.0984L13.8031 7.11736C13.8647 7.63488 13.9239 8.13176 14.0134 8.61572C14.1945 9.59402 14.4865 10.4355 15.0846 11.1036C15.2325 11.2687 15.2969 11.4922 15.2598 11.7107C15.2226 11.9292 15.0878 12.1188 14.8937 12.2257C13.7076 12.879 12.3218 13.3265 10.866 13.577C10.6346 14.9523 9.43834 16 7.99734 16C6.55633 16 5.36004 14.9523 5.12869 13.577C3.67292 13.3265 2.28705 12.879 1.101 12.2257C0.906877 12.1188 0.772102 11.9292 0.734923 11.7107C0.697743 11.4922 0.762217 11.2687 0.910048 11.1036C1.50819 10.4355 1.8002 9.59402 1.98122 8.61573C2.07077 8.13178 2.12991 7.63491 2.19151 7.1174L2.19377 7.09842C2.25508 6.58336 2.31952 6.04488 2.42024 5.52774C2.62121 4.49585 2.98653 3.4322 3.8896 2.64614C4.54113 2.07903 5.40884 1.71075 6.54618 1.54903C6.54393 1.51963 6.54279 1.48818 6.54279 1.45455C6.54279 0.651222 7.19401 0 7.99734 0C8.80066 0 9.45188 0.651222 9.45188 1.45455ZM6.71102 13.7706C6.95505 14.2315 7.43952 14.5455 7.99734 14.5455C8.55515 14.5455 9.03963 14.2315 9.28365 13.7706C8.85579 13.8024 8.42599 13.8182 7.99734 13.8182C7.56869 13.8182 7.13889 13.8024 6.71102 13.7706ZM2.55124 11.3195C4.12284 12.0074 6.04622 12.3636 7.99734 12.3636C9.94847 12.3636 11.8718 12.0074 13.4434 11.3195C12.9736 10.5437 12.7341 9.69622 12.5832 8.8804C12.485 8.34971 12.421 7.81253 12.3611 7.30911L12.3565 7.27036C12.2942 6.74651 12.2354 6.26144 12.1467 5.80581C11.9687 4.89214 11.69 4.21331 11.15 3.74328C10.6116 3.27467 9.69102 2.90909 7.9973 2.90909C6.30355 2.90909 5.38295 3.27467 4.84458 3.74328C4.30459 4.2133 4.02591 4.89213 3.84796 5.8058C3.75922 6.26143 3.70048 6.74649 3.63812 7.27034L3.63351 7.3091C3.57361 7.81252 3.50969 8.3497 3.41149 8.88039C3.26053 9.69621 3.02112 10.5437 2.55124 11.3195Z" fill="currentColor"/>
</svg>
