<svg width="20" height="20" viewBox="0 0 20 20" fill="none" xmlns="http://www.w3.org/2000/svg">
<path d="M10.5642 3.88893C10.5642 4.19575 10.3119 4.44449 10.0008 4.44449C9.68963 4.44449 9.43738 4.19575 9.43738 3.88893C9.43738 3.5821 9.68963 3.33337 10.0008 3.33337C10.3119 3.33337 10.5642 3.5821 10.5642 3.88893Z" fill="white" fill-opacity="0.72"/>
<path d="M12.6499 4.44744C12.5435 4.73576 12.2201 4.88442 11.9277 4.77948C11.6354 4.67454 11.4846 4.35574 11.591 4.06742C11.6974 3.7791 12.0207 3.63044 12.3131 3.73538C12.6055 3.84032 12.7563 4.15912 12.6499 4.44744Z" fill="white" fill-opacity="0.72"/>
<path d="M13.6222 5.74417C13.8606 5.94139 14.2159 5.91073 14.416 5.67569C14.616 5.44065 14.5849 5.09023 14.3465 4.89301C14.1081 4.69578 13.7528 4.72644 13.5528 4.96148C13.3528 5.19652 13.3838 5.54694 13.6222 5.74417Z" fill="white" fill-opacity="0.72"/>
<path d="M15.6495 7.42564C15.3801 7.57905 15.0355 7.48801 14.8799 7.2223C14.7243 6.95658 14.8166 6.6168 15.0861 6.46339C15.3556 6.30998 15.7002 6.40102 15.8557 6.66674C16.0113 6.93246 15.919 7.27223 15.6495 7.42564Z" fill="white" fill-opacity="0.72"/>
<path d="M15.549 9.03532C15.603 9.33748 15.8952 9.53924 16.2017 9.48596C16.5081 9.43268 16.7127 9.14454 16.6587 8.84238C16.6046 8.54021 16.3124 8.33845 16.006 8.39173C15.6995 8.44501 15.4949 8.73316 15.549 9.03532Z" fill="white" fill-opacity="0.72"/>
<path d="M16.0059 11.6084C15.6995 11.5551 15.4949 11.267 15.5489 10.9648C15.6029 10.6627 15.8951 10.4609 16.2016 10.5142C16.508 10.5675 16.7126 10.8556 16.6586 11.1578C16.6046 11.4599 16.3123 11.6617 16.0059 11.6084Z" fill="white" fill-opacity="0.72"/>
<path d="M14.8796 12.7777C14.724 13.0434 14.8164 13.3832 15.0858 13.5366C15.3553 13.69 15.6999 13.599 15.8555 13.3333C16.0111 13.0676 15.9187 12.7278 15.6493 12.5744C15.3798 12.421 15.0352 12.512 14.8796 12.7777Z" fill="white" fill-opacity="0.72"/>
<path d="M13.5523 15.0386C13.3523 14.8035 13.3834 14.4531 13.6217 14.2559C13.8601 14.0587 14.2155 14.0893 14.4155 14.3244C14.6155 14.5594 14.5844 14.9098 14.346 15.107C14.1077 15.3043 13.7523 15.2736 13.5523 15.0386Z" fill="white" fill-opacity="0.72"/>
<path d="M11.9275 15.2206C11.6351 15.3255 11.4843 15.6443 11.5907 15.9326C11.6972 16.221 12.0205 16.3696 12.3129 16.2647C12.6053 16.1597 12.756 15.8409 12.6496 15.5526C12.5432 15.2643 12.2199 15.1156 11.9275 15.2206Z" fill="white" fill-opacity="0.72"/>
<path d="M9.43711 16.1112C9.43711 15.8043 9.68935 15.5556 10.0005 15.5556C10.3117 15.5556 10.5639 15.8043 10.5639 16.1112C10.5639 16.418 10.3117 16.6667 10.0005 16.6667C9.68935 16.6667 9.43711 16.418 9.43711 16.1112Z" fill="white" fill-opacity="0.72"/>
<path d="M8.07355 15.2206C7.78116 15.1157 7.45785 15.2643 7.35143 15.5526C7.24501 15.841 7.39577 16.1598 7.68816 16.2647C7.98056 16.3696 8.30386 16.221 8.41028 15.9327C8.51671 15.6443 8.36595 15.3255 8.07355 15.2206Z" fill="white" fill-opacity="0.72"/>
<path d="M5.58535 14.3244C5.78536 14.0893 6.14073 14.0587 6.37909 14.2559C6.61746 14.4531 6.64855 14.8036 6.44854 15.0386C6.24853 15.2736 5.89316 15.3043 5.65479 15.1071C5.41643 14.9099 5.38534 14.5594 5.58535 14.3244Z" fill="white" fill-opacity="0.72"/>
<path d="M5.1214 12.7779C4.96582 12.5122 4.62125 12.4212 4.35177 12.5746C4.0823 12.728 3.98997 13.0678 4.14555 13.3335C4.30113 13.5992 4.64571 13.6902 4.91518 13.5368C5.18465 13.3834 5.27698 13.0436 5.1214 12.7779Z" fill="white" fill-opacity="0.72"/>
<path d="M3.79965 10.5141C4.10608 10.4608 4.3983 10.6626 4.45233 10.9648C4.50636 11.2669 4.30175 11.5551 3.99532 11.6083C3.68889 11.6616 3.39667 11.4599 3.34264 11.1577C3.28861 10.8555 3.49322 10.5674 3.79965 10.5141Z" fill="white" fill-opacity="0.72"/>
<path d="M4.4524 9.03524C4.50643 8.73308 4.30182 8.44494 3.99539 8.39166C3.68896 8.33838 3.39674 8.54014 3.34271 8.8423C3.28868 9.14447 3.49329 9.43261 3.79972 9.48589C4.10615 9.53917 4.39837 9.33741 4.4524 9.03524Z" fill="white" fill-opacity="0.72"/>
<path d="M4.91546 6.46346C5.18493 6.61688 5.27726 6.95665 5.12168 7.22237C4.9661 7.48808 4.62152 7.57913 4.35205 7.42571C4.08258 7.2723 3.99025 6.93253 4.14583 6.66681C4.30141 6.40109 4.64598 6.31005 4.91546 6.46346Z" fill="white" fill-opacity="0.72"/>
<path d="M6.37957 5.74421C6.61793 5.54698 6.64902 5.19656 6.44901 4.96152C6.249 4.72648 5.89363 4.69582 5.65527 4.89304C5.4169 5.09027 5.38581 5.44069 5.58582 5.67573C5.78583 5.91077 6.1412 5.94143 6.37957 5.74421Z" fill="white" fill-opacity="0.72"/>
<path d="M8.41055 4.06744C8.51698 4.35577 8.36622 4.67457 8.07382 4.77951C7.78143 4.88445 7.45812 4.73579 7.3517 4.44747C7.24528 4.15915 7.39604 3.84034 7.68843 3.7354C7.98083 3.63046 8.30413 3.77912 8.41055 4.06744Z" fill="white" fill-opacity="0.72"/>
<path fill-rule="evenodd" clip-rule="evenodd" d="M10.0057 6.11115C7.82755 6.11115 6.06183 7.85227 6.06183 10C6.06183 12.1478 7.82755 13.8889 10.0057 13.8889C12.1838 13.8889 13.9495 12.1478 13.9495 10C13.9495 7.85227 12.1838 6.11115 10.0057 6.11115ZM7.18864 10C7.18864 8.46592 8.44987 7.22226 10.0057 7.22226C11.5615 7.22226 12.8227 8.46592 12.8227 10C12.8227 11.5342 11.5615 12.7778 10.0057 12.7778C8.44987 12.7778 7.18864 11.5342 7.18864 10Z" fill="white" fill-opacity="0.72"/>
</svg>
