<svg version="1.1" id="Layer_1" xmlns="http://www.w3.org/2000/svg" xmlns:xlink="http://www.w3.org/1999/xlink" x="0px" y="0px"
	 width="100%" viewBox="0 0 64 64" enable-background="new 0 0 64 64" xml:space="preserve">
<path fill="#030405" opacity="1.000000" stroke="none" 
	d="
M44.000557,65.000000 
	C29.333736,65.000000 15.167089,65.000000 1.000331,65.000000 
	C1.000221,43.666843 1.000221,22.333683 1.000110,1.000394 
	C22.333130,1.000262 43.666260,1.000262 64.999542,1.000131 
	C64.999695,22.333101 64.999695,43.666203 64.999847,64.999649 
	C58.166912,65.000000 51.333820,65.000000 44.000557,65.000000 
M7.352460,48.210480 
	C7.907201,48.950966 8.461942,49.691448 9.168441,51.047256 
	C13.907530,56.594868 19.175875,61.254089 27.662388,62.146935 
	C33.188126,61.662170 39.061192,62.179626 44.144428,60.418007 
	C49.502934,58.560993 55.286491,55.832245 57.662140,48.921574 
	C59.322475,44.149143 60.982815,39.376713 62.863960,33.899536 
	C62.679844,32.229908 62.495728,30.560280 62.427090,28.383682 
	C62.333042,28.238096 62.238998,28.092512 62.243061,27.159689 
	C59.186752,13.537076 48.592857,4.082170 35.272064,3.088440 
	C22.158337,2.110158 10.220234,9.612252 4.994490,22.441271 
	C1.961170,31.205997 2.154884,39.677727 7.352460,48.210480 
z"/>
<path fill="#67C8F8" opacity="1.000000" stroke="none" 
	d="
M5.406078,21.856701 
	C10.220234,9.612252 22.158337,2.110158 35.272064,3.088440 
	C48.592857,4.082170 59.186752,13.537076 61.907047,27.574047 
	C61.380463,28.009972 61.189888,28.031540 60.611099,27.986095 
	C58.309967,28.736977 56.333405,29.434477 54.500427,30.403559 
	C52.263615,31.586143 50.147400,32.996838 47.274475,34.735188 
	C47.120640,31.478426 47.614365,29.353371 46.834461,27.922527 
	C44.955013,24.474413 43.160221,19.927494 40.074619,18.452362 
	C36.097767,16.551155 31.269289,17.986359 29.186165,23.697121 
	C26.521021,25.837317 24.082306,27.633410 21.457214,29.285851 
	C19.184649,28.049170 17.098461,26.956141 14.937861,25.627281 
	C11.867766,23.793749 9.630423,20.167074 5.406078,21.856701 
M25.737459,15.059286 
	C29.208157,13.811115 32.678852,12.562945 36.149548,11.314775 
	C31.135420,9.406459 27.736509,11.382674 24.881765,15.087532 
	C24.881765,15.087532 24.887363,15.265409 24.887363,15.265409 
	C24.887363,15.265409 24.969397,14.954297 25.737459,15.059286 
z"/>
<path fill="#F2F2F2" opacity="1.000000" stroke="none" 
	d="
M29.412598,23.353018 
	C31.269289,17.986359 36.097767,16.551155 40.074619,18.452362 
	C43.160221,19.927494 44.955013,24.474413 46.834461,27.922527 
	C47.614365,29.353371 47.120640,31.478426 47.274475,34.735188 
	C50.147400,32.996838 52.263615,31.586143 54.500427,30.403559 
	C56.333405,29.434477 58.309967,28.736977 60.802883,28.164959 
	C61.692463,28.570772 62.002033,28.730711 62.311607,28.890652 
	C62.495728,30.560280 62.679844,32.229908 62.396000,34.348682 
	C58.535912,36.098835 55.233616,38.080441 51.730793,38.542774 
	C46.354698,39.252357 45.062923,42.128357 45.504097,47.074722 
	C49.355343,47.777847 53.170048,48.474304 56.984753,49.170753 
	C55.286491,55.832245 49.502934,58.560993 44.144428,60.418007 
	C39.061192,62.179626 33.188126,61.662170 27.432934,61.517677 
	C26.733753,54.919899 30.406904,50.706070 33.426552,46.219738 
	C35.855469,42.611065 37.646240,38.966042 34.175285,34.633041 
	C33.671158,33.469151 33.295120,32.587936 33.132954,31.442347 
	C32.035416,28.569653 30.724007,25.961336 29.412598,23.353018 
z"/>
<path fill="#66C6F6" opacity="1.000000" stroke="none" 
	d="
M34.303375,34.915714 
	C37.646240,38.966042 35.855469,42.611065 33.426552,46.219738 
	C30.406904,50.706070 26.733753,54.919899 27.091387,61.273224 
	C19.175875,61.254089 13.907530,56.594868 9.484680,50.653732 
	C15.871604,49.164913 21.183821,46.653458 26.145647,41.681438 
	C18.671350,41.863895 12.418301,43.022869 7.287948,47.700985 
	C2.154884,39.677727 1.961170,31.205997 5.200284,22.148987 
	C9.630423,20.167074 11.867766,23.793749 14.582379,25.700281 
	C10.894311,26.491852 10.324520,27.947323 12.939580,30.280397 
	C15.667661,32.714306 18.665148,33.867729 22.087351,32.045151 
	C22.186314,38.701992 26.720217,33.501324 28.804428,35.218918 
	C29.003866,35.604042 29.090696,35.753380 29.215355,36.243126 
	C31.662838,38.226707 33.573025,38.357494 34.303375,34.915714 
z"/>
<path fill="#68C7F7" opacity="1.000000" stroke="none" 
	d="
M57.323448,49.046165 
	C53.170048,48.474304 49.355343,47.777847 45.504097,47.074722 
	C45.062923,42.128357 46.354698,39.252357 51.730793,38.542774 
	C55.233616,38.080441 58.535912,36.098835 62.285595,34.701057 
	C60.982815,39.376713 59.322475,44.149143 57.323448,49.046165 
z"/>
<path fill="#EEF9FE" opacity="1.000000" stroke="none" 
	d="
M7.320204,47.955734 
	C12.418301,43.022869 18.671350,41.863895 26.145647,41.681438 
	C21.183821,46.653458 15.871604,49.164913 9.408801,50.346069 
	C8.461942,49.691448 7.907201,48.950966 7.320204,47.955734 
z"/>
<path fill="#F1F6F9" opacity="1.000000" stroke="none" 
	d="
M62.369347,28.637167 
	C62.002033,28.730711 61.692463,28.570772 61.191101,28.231970 
	C61.189888,28.031540 61.380463,28.009972 61.857994,27.967665 
	C62.238998,28.092512 62.333042,28.238096 62.369347,28.637167 
z"/>
<path fill="#DE8140" opacity="1.000000" stroke="none" 
	d="
M28.691820,34.983128 
	C26.720217,33.501324 22.186314,38.701992 22.325617,31.805111 
	C22.282610,30.592600 21.963100,30.011051 21.643593,29.429502 
	C24.082306,27.633410 26.521021,25.837317 29.186165,23.697121 
	C30.724007,25.961336 32.035416,28.569653 32.787674,31.479137 
	C31.185015,32.506111 30.141508,33.231918 29.006725,34.218140 
	C28.840906,34.646748 28.766363,34.814938 28.691820,34.983128 
z"/>
<path fill="#CFCFCF" opacity="1.000000" stroke="none" 
	d="
M21.457214,29.285851 
	C21.963100,30.011051 22.282610,30.592600 22.363853,31.414188 
	C18.665148,33.867729 15.667661,32.714306 12.939580,30.280397 
	C10.324520,27.947323 10.894311,26.491852 14.656791,25.936111 
	C17.098461,26.956141 19.184649,28.049170 21.457214,29.285851 
z"/>
<path fill="#DDF3FF" opacity="1.000000" stroke="none" 
	d="
M25.036898,15.017198 
	C27.736509,11.382674 31.135420,9.406459 36.149548,11.314775 
	C32.678852,12.562945 29.208157,13.811115 25.368706,15.024263 
	C24.999954,14.989241 25.036898,15.017198 25.036898,15.017198 
z"/>
<path fill="#DDF3FF" opacity="1.000000" stroke="none" 
	d="
M24.984676,14.971769 
	C24.969397,14.954297 24.887363,15.265409 24.887363,15.265409 
	C24.887363,15.265409 24.881765,15.087532 24.959332,15.052364 
	C25.036898,15.017198 24.999954,14.989241 24.984676,14.971769 
z"/>
<path fill="#2D2E28" opacity="1.000000" stroke="none" 
	d="
M29.098001,33.957722 
	C30.141508,33.231918 31.185015,32.506111 32.573799,31.743515 
	C33.295120,32.587936 33.671158,33.469151 34.175285,34.633041 
	C33.573025,38.357494 31.662838,38.226707 29.480148,36.222702 
	C30.135798,35.502296 30.564486,35.142727 30.993174,34.783157 
	C30.361448,34.508015 29.729725,34.232868 29.098001,33.957722 
z"/>
<path fill="#947144" opacity="1.000000" stroke="none" 
	d="
M29.006725,34.218140 
	C29.729725,34.232868 30.361448,34.508015 30.993174,34.783157 
	C30.564486,35.142727 30.135798,35.502296 29.442318,35.882294 
	C29.090696,35.753380 29.003866,35.604042 28.804428,35.218918 
	C28.766363,34.814938 28.840906,34.646748 29.006725,34.218140 
z"/>
</svg>