<svg version="1.1" id="Layer_1" xmlns="http://www.w3.org/2000/svg" xmlns:xlink="http://www.w3.org/1999/xlink" x="0px" y="0px"
	 width="100%" viewBox="0 0 64 64" enable-background="new 0 0 64 64" xml:space="preserve">
<path fill="#000000" opacity="1.000000" stroke="none" 
	d="
M1.288605,27.221771 
	C1.000000,19.233187 1.131112,11.462849 0.922513,3.701642 
	C0.857380,1.278273 1.484469,0.882514 3.755239,0.935233 
	C11.187544,1.107784 18.626358,1.000000 26.531334,1.000000 
	C27.133350,1.196833 27.266701,1.393666 27.320095,1.939431 
	C26.864758,2.916025 26.332438,3.386213 25.431551,3.974143 
	C14.213423,7.870779 7.644164,15.719236 3.790202,26.644707 
	C3.383486,27.080589 3.192671,27.228703 2.649255,27.465637 
	C2.056839,27.517488 1.817025,27.480516 1.288605,27.221771 
z"/>
<path fill="#000000" opacity="1.000000" stroke="none" 
	d="
M38.775719,1.291700 
	C46.765491,1.000000 54.534397,1.128911 62.294453,0.923511 
	C64.704887,0.859710 65.123718,1.467013 65.065872,3.750513 
	C64.886009,10.850555 65.000000,17.958042 65.000000,25.531321 
	C62.975582,27.249832 62.479935,25.479849 61.512169,23.996010 
	C60.790138,22.377441 60.042576,21.178331 59.280785,19.599693 
	C58.635784,17.307510 57.876110,15.472473 55.997341,13.904068 
	C55.054192,13.103758 54.412537,12.471535 53.475647,11.660109 
	C50.854107,9.766709 49.357182,6.917278 45.882072,6.220706 
	C43.507687,5.524301 41.340122,5.304446 39.213142,3.899705 
	C38.814083,3.444351 38.684525,3.236467 38.484291,2.667436 
	C38.459557,2.065325 38.505501,1.824363 38.775719,1.291700 
z"/>
<path fill="#000000" opacity="1.000000" stroke="none" 
	d="
M64.723145,39.784588 
	C65.000000,47.436314 64.860130,54.876751 65.079346,62.306595 
	C65.151581,64.754837 64.482697,65.109589 62.236462,65.062584 
	C54.473045,64.900131 46.704140,65.000000 38.468662,65.000000 
	C37.416031,64.047043 37.835819,63.198429 38.494938,62.084724 
	C39.094707,61.574451 39.503796,61.404861 40.267555,61.320511 
	C41.573978,61.430801 42.552387,61.484276 43.666817,60.678627 
	C44.803741,60.006485 45.797436,59.764950 47.009106,59.253147 
	C47.835423,58.884659 48.389339,58.649841 49.188122,58.238144 
	C50.318779,57.658337 51.169304,57.191528 52.047665,56.257248 
	C52.388535,55.908604 52.528709,55.772907 52.893848,55.451477 
	C53.732002,54.804356 54.351456,54.349915 54.998005,53.498753 
	C55.295605,53.114727 55.418324,52.963276 55.736526,52.594696 
	C56.324730,51.942554 56.695450,51.491158 57.112259,50.703400 
	C57.713501,49.508682 58.376099,48.720657 59.180405,47.653564 
	C59.978985,46.533188 60.268272,45.544159 60.507191,44.188713 
	C60.750713,43.455853 60.938976,43.052475 61.301346,42.352516 
	C62.180550,40.892429 62.619522,39.393482 64.723145,39.784588 
z"/>
<path fill="#000000" opacity="1.000000" stroke="none" 
	d="
M23.220613,64.704887 
	C16.559845,65.000000 10.113669,64.839630 3.682583,65.081116 
	C1.205902,65.174103 0.892579,64.446907 0.939885,62.228893 
	C1.098301,54.801327 1.000000,47.368279 1.000000,39.468666 
	C1.192880,38.864220 1.385759,38.728439 1.932250,38.614746 
	C3.759022,39.102795 4.607329,40.148827 5.127055,41.913445 
	C5.536862,43.498096 5.877461,44.751865 6.456127,46.264099 
	C6.642984,46.756641 6.714264,46.954128 6.885395,47.447758 
	C7.278117,48.748672 7.749936,49.649708 8.748011,50.606045 
	C12.624161,55.270752 17.351213,58.319454 22.476343,61.429901 
	C23.300323,62.508057 23.702801,63.370300 23.220613,64.704887 
z"/>
<path fill="#FFFFFF" opacity="1.000000" stroke="none" 
	d="
M65.000000,39.535347 
	C62.380516,39.435955 63.302525,41.768604 62.340206,43.001415 
	C61.500893,43.351902 61.004089,43.547100 60.135925,43.897652 
	C58.442604,44.355011 57.095917,44.294849 55.354279,44.350716 
	C53.597000,44.341370 52.243450,44.312912 50.472698,44.314972 
	C48.033501,44.136211 46.119953,43.705101 44.557667,41.638996 
	C44.246716,40.679478 44.254326,40.110947 44.594536,39.166321 
	C45.019928,38.621082 45.246250,38.453709 45.859329,38.127438 
	C50.216080,37.291134 54.216225,37.728012 58.550194,37.637665 
	C59.330715,37.618542 59.762547,37.594200 60.447361,37.457165 
	C60.701721,37.366226 61.037586,37.047340 61.018169,36.834553 
	C60.716305,36.424095 60.395573,36.345352 59.731026,36.325058 
	C55.757862,36.248852 52.068111,36.915684 48.145409,35.468628 
	C47.082790,34.317696 46.952057,33.265343 47.242847,31.782970 
	C49.307644,29.006517 52.062099,29.920061 54.530029,29.701481 
	C56.278057,29.546663 58.064926,29.913450 59.919922,29.161083 
	C60.017948,28.654230 59.820160,28.460751 59.160690,28.394287 
	C55.615768,28.231182 52.354630,28.618372 48.737915,27.887424 
	C47.829014,27.510862 47.393295,27.159109 46.833679,26.318703 
	C46.472744,24.634327 46.944805,23.573671 48.213493,22.422127 
	C52.827553,21.258305 57.041328,21.040483 61.621483,22.588188 
	C63.765682,23.477831 62.282227,26.182016 64.699341,26.298489 
	C65.000000,30.356899 65.000000,34.713799 65.000000,39.535347 
z"/>
<path fill="#FEFEFE" opacity="1.000000" stroke="none" 
	d="
M39.746292,61.950195 
	C40.591164,63.926517 39.129696,63.850510 38.118088,64.628067 
	C34.638714,65.000000 31.277426,65.000000 27.458069,65.000000 
	C26.670130,64.648331 26.478060,64.235664 26.521852,63.408600 
	C26.719561,62.868504 26.842787,62.671360 27.190769,62.214520 
	C28.930231,60.160011 27.567793,58.489792 27.137934,56.817471 
	C25.648445,51.022804 22.348827,45.860855 21.216923,39.588036 
	C21.360142,38.761322 21.577431,38.340504 22.179012,37.765934 
	C22.711887,37.523197 22.944103,37.476093 23.525978,37.476898 
	C25.933281,38.606419 26.679201,41.101711 29.095238,42.288998 
	C31.165087,44.210201 33.534351,45.199322 35.359734,47.369026 
	C36.036442,49.474533 33.198387,50.606297 34.734726,52.834846 
	C35.525101,54.163609 35.613689,55.330444 35.311428,56.416317 
	C34.257877,60.201180 35.778370,61.808514 39.746292,61.950195 
z"/>
<path fill="#FDFDFE" opacity="1.000000" stroke="none" 
	d="
M26.965420,62.457970 
	C27.021454,63.370995 27.012955,63.836391 27.002228,64.650894 
	C25.933331,65.000000 24.866661,65.000000 23.399996,65.000000 
	C24.069225,63.800060 22.701832,63.440456 22.141560,62.420624 
	C23.650330,60.600792 25.267584,60.650600 26.965420,62.457970 
z"/>
<path fill="#041230" opacity="1.000000" stroke="none" 
	d="
M38.539364,1.000000 
	C38.995811,1.184717 38.991619,1.369434 38.962299,1.830157 
	C35.247547,4.144318 31.459265,3.684370 27.313702,2.191477 
	C26.982973,1.830827 26.991327,1.415410 26.995663,1.207705 
	C30.692909,1.000000 34.385818,1.000000 38.539364,1.000000 
z"/>
<path fill="#041230" opacity="1.000000" stroke="none" 
	d="
M2.191762,38.688278 
	C1.830943,39.019283 1.415528,39.007206 1.207764,39.003601 
	C1.000000,35.307091 1.000000,31.614182 1.000000,27.460636 
	C1.184560,27.004263 1.369121,27.008524 1.829444,27.038012 
	C4.195164,30.751034 3.750414,34.539238 2.191762,38.688278 
z"/>
<path fill="#012563" opacity="1.000000" stroke="none" 
	d="
M2.749271,27.449680 
	C5.857378,15.330334 12.636168,7.069230 24.721909,3.189137 
	C27.574585,3.247766 30.099699,2.626782 32.929634,3.600232 
	C33.986656,4.831208 34.079189,5.924685 33.659622,7.455915 
	C31.886688,9.674791 29.566427,9.072349 27.220375,9.700728 
	C19.504988,11.682767 17.764692,17.583521 19.032965,28.738785 
	C18.927769,29.367516 18.852806,29.616261 18.618713,30.231060 
	C18.331539,30.837336 18.203491,31.077559 17.729271,31.547363 
	C13.960404,32.838291 10.448894,32.273163 6.971818,32.351044 
	C3.876544,32.420380 2.325749,31.010590 2.749271,27.449680 
z"/>
<path fill="#FFFFFF" opacity="1.000000" stroke="none" 
	d="
M2.723717,27.038525 
	C3.054928,29.833906 3.868106,31.496311 7.284102,31.088047 
	C10.552258,30.697449 13.908333,31.042482 17.605135,31.351406 
	C19.399412,32.451782 19.891823,33.588074 18.893381,35.391571 
	C14.790006,36.972939 10.875081,36.166813 6.690102,36.345783 
	C5.977408,36.367138 5.594832,36.397411 5.017814,36.568489 
	C4.820312,36.676891 4.611139,37.035393 4.663859,37.231670 
	C5.117649,37.746941 5.591857,37.785194 6.390575,37.770607 
	C8.390849,37.750069 10.089993,37.648956 11.974349,38.700390 
	C12.948028,40.436550 12.439076,41.706287 11.264094,43.214577 
	C8.941491,44.503231 6.949873,44.532768 4.612421,43.204498 
	C3.847443,41.665527 4.445105,39.745869 1.997134,39.351200 
	C1.888674,35.336662 1.946406,31.654039 2.054672,27.517326 
	C2.105207,27.063236 2.517504,27.014923 2.723717,27.038525 
z"/>
<path fill="#FFFFFF" opacity="1.000000" stroke="none" 
	d="
M33.310040,4.358583 
	C30.473555,4.064352 27.946821,3.959788 25.247665,3.480682 
	C25.530130,2.754794 25.985020,2.403447 26.711441,1.941463 
	C30.664980,1.888803 34.346985,1.946779 38.483086,2.055459 
	C38.937176,2.106164 39.016716,2.559570 39.090904,2.777452 
	C37.901318,5.600731 35.641205,4.648311 33.310040,4.358583 
z"/>
<path fill="#BC133E" opacity="1.000000" stroke="none" 
	d="
M32.999340,4.534889 
	C34.987419,4.385277 36.748825,2.346920 39.001640,3.289907 
	C41.203716,3.667903 43.242336,4.340473 45.649410,5.084899 
	C48.672508,9.019712 44.238590,7.552033 42.936935,8.847579 
	C40.926609,9.341722 39.275299,9.300121 37.209160,9.331895 
	C35.639809,9.291454 34.520824,9.136428 33.254036,8.160179 
	C32.986244,6.852900 32.992317,5.876881 32.999340,4.534889 
z"/>
<path fill="#FFFFFF" opacity="1.000000" stroke="none" 
	d="
M42.755337,8.158789 
	C43.144405,5.759965 46.547821,8.647059 46.134987,5.463670 
	C50.204529,5.086853 51.502842,9.189398 54.734146,11.238988 
	C53.780762,12.628463 52.184330,12.865529 50.203606,13.172359 
	C49.286186,13.236973 48.764542,13.221626 47.864601,13.109070 
	C46.744061,12.875694 46.069649,12.560125 45.219101,11.833229 
	C44.617344,11.073627 44.518555,10.478291 44.323833,9.913405 
	C44.109253,9.290910 43.671886,9.411338 44.183952,9.838225 
	C44.696018,10.265111 43.288250,10.400182 43.594170,10.189814 
	C42.627644,9.753353 42.422180,9.161530 42.755337,8.158789 
z"/>
<path fill="#BB133E" opacity="1.000000" stroke="none" 
	d="
M61.990879,22.508734 
	C57.662136,22.889973 53.317535,22.944427 48.510956,22.996195 
	C46.821655,22.508659 46.350750,21.613256 46.838337,19.978924 
	C48.542496,18.612146 50.235176,18.733608 52.299637,18.674393 
	C54.838722,18.822235 56.971451,18.438639 59.473045,18.829205 
	C60.553101,20.051613 61.264061,21.116783 61.990879,22.508734 
z"/>
<path fill="#FFFFFF" opacity="1.000000" stroke="none" 
	d="
M59.915016,18.616440 
	C57.862885,19.767046 55.807655,19.565229 53.393116,19.314106 
	C51.965961,18.271437 51.973045,17.102623 52.322136,15.564533 
	C53.191387,14.081338 54.707031,14.196714 55.892712,13.167615 
	C58.545082,13.932241 59.830830,15.676428 59.915016,18.616440 
z"/>
<path fill="#BC133E" opacity="1.000000" stroke="none" 
	d="
M56.099556,12.812247 
	C57.301296,16.069075 54.798428,14.697245 53.346340,15.094624 
	C52.599731,15.427614 52.158436,15.558017 51.340652,15.486784 
	C49.987236,14.727657 49.228775,13.856586 48.974968,12.365876 
	C50.823887,11.705844 52.537125,11.370944 54.653934,11.273654 
	C55.388252,11.882284 55.718994,12.253305 56.099556,12.812247 
z"/>
<path fill="#043058" opacity="1.000000" stroke="none" 
	d="
M44.516460,40.971413 
	C46.120018,42.278221 47.494743,43.044071 49.573784,43.083298 
	C51.002575,43.615978 52.157616,43.758011 53.643612,44.033157 
	C56.391823,44.629257 58.796375,45.169399 60.316063,47.885136 
	C59.708694,48.972843 58.940052,49.731163 58.039436,50.785969 
	C57.454765,51.675922 57.085526,52.347290 56.189301,52.911892 
	C55.991566,53.112457 55.997444,52.996819 56.055290,52.999123 
	C55.061684,53.731770 54.594452,55.048073 53.207199,55.890633 
	C52.978626,56.110397 52.983677,55.983307 53.047264,55.982147 
	C52.485981,57.091427 51.150688,57.407639 50.247620,58.649914 
	C49.581120,59.187107 49.081085,59.467560 48.303074,59.821083 
	C45.491219,59.608894 44.679649,57.858700 44.747265,55.674324 
	C44.887691,51.137711 43.395382,46.792755 43.443184,41.878113 
	C43.743248,41.250195 43.930008,41.034809 44.516460,40.971413 
z"/>
<path fill="#FEFEFE" opacity="1.000000" stroke="none" 
	d="
M44.402237,60.642681 
	C44.080494,63.891083 41.725140,62.768768 40.073647,62.814430 
	C39.906376,59.722435 38.074104,57.752739 37.155617,55.070702 
	C37.047516,54.505428 37.022129,54.276821 36.995041,53.705730 
	C37.479046,51.291576 35.806541,49.466068 36.427635,47.045547 
	C37.139420,45.553898 37.872364,44.512436 39.218979,43.465637 
	C39.862057,43.209713 40.137611,43.145969 40.844887,43.084557 
	C45.255299,44.169922 44.253925,47.908215 44.764397,50.476887 
	C45.388664,53.618198 45.367630,57.010460 44.402237,60.642681 
z"/>
<path fill="#C04D54" opacity="1.000000" stroke="none" 
	d="
M37.769753,53.770279 
	C37.945297,56.968899 42.194706,58.430443 40.215900,62.124573 
	C39.872871,62.395531 39.870647,62.180538 39.914200,62.203281 
	C38.867611,61.730415 38.112862,62.795712 37.202011,62.846191 
	C34.833950,62.977436 32.162148,63.423561 33.772366,59.305790 
	C34.425488,57.635574 34.068432,55.570343 34.022858,53.366219 
	C34.386955,52.413952 35.080853,52.228333 36.220490,52.325756 
	C37.037514,52.640659 37.372654,52.984657 37.769753,53.770279 
z"/>
<path fill="#061833" opacity="1.000000" stroke="none" 
	d="
M44.504581,61.053051 
	C43.569366,55.981411 44.639412,50.850266 43.094467,45.831295 
	C42.664055,44.433056 42.311562,43.832504 40.505726,43.921928 
	C40.062439,41.625221 41.785110,41.264553 43.718758,40.991020 
	C44.964260,45.760590 46.098129,50.308697 46.006809,55.036785 
	C45.975861,56.639187 45.711441,58.357441 47.777794,59.604782 
	C46.989529,60.352104 46.145676,61.320210 44.504581,61.053051 
z"/>
<path fill="#BB133E" opacity="1.000000" stroke="none" 
	d="
M60.704582,48.034836 
	C58.241661,47.141487 56.005989,46.068447 53.407692,44.917427 
	C52.647945,43.521477 53.701321,43.649174 54.700027,43.301918 
	C56.378857,43.101177 57.785973,43.050087 59.609764,43.075062 
	C60.242996,43.253620 60.459549,43.356117 60.887840,43.748997 
	C61.835033,45.346088 61.386585,46.600758 60.704582,48.034836 
z"/>
<path fill="#FCFCFD" opacity="1.000000" stroke="none" 
	d="
M53.313393,56.373520 
	C53.958473,55.212360 53.326103,53.070015 55.746101,53.000816 
	C56.594124,55.096466 54.579159,55.499050 53.313393,56.373520 
z"/>
<path fill="#FCFCFD" opacity="1.000000" stroke="none" 
	d="
M50.438450,58.826115 
	C49.323669,56.695667 51.849522,57.211525 52.762249,56.039566 
	C54.262070,58.512787 51.174545,57.495022 50.438450,58.826115 
z"/>
<path fill="#FCFCFD" opacity="1.000000" stroke="none" 
	d="
M56.303482,53.368896 
	C56.429230,52.467419 56.866898,51.822380 57.606014,51.129902 
	C58.269848,52.333054 57.592476,53.055340 56.303482,53.368896 
z"/>
<path fill="#B80835" opacity="1.000000" stroke="none" 
	d="
M61.312450,43.968182 
	C60.778419,43.961006 60.505199,43.800865 60.153175,43.355038 
	C60.467468,43.107658 60.908497,43.064190 61.675339,43.093109 
	C61.959644,43.485504 61.801033,43.729332 61.312450,43.968182 
z"/>
<path fill="#023059" opacity="1.000000" stroke="none" 
	d="
M27.277847,62.941299 
	C25.944958,61.139381 24.217159,62.364464 22.440975,62.036434 
	C16.674448,59.572842 11.868153,56.324181 8.076312,51.248985 
	C7.457351,50.171913 6.968548,49.409863 6.277542,48.374214 
	C6.055034,47.902645 6.017790,47.715649 5.925375,47.248016 
	C6.003011,42.751583 10.432631,44.759979 12.365139,42.485130 
	C14.988132,41.311882 17.043205,39.680058 20.051405,39.736694 
	C24.303709,46.879429 26.813488,54.386627 28.234093,62.519073 
	C27.845787,62.881695 27.685764,62.929348 27.277847,62.941299 
z"/>
<path fill="#B90D39" opacity="1.000000" stroke="none" 
	d="
M12.734327,42.891346 
	C11.048580,44.854916 8.026396,44.298504 6.042664,46.649429 
	C4.419008,46.279747 5.392559,44.424030 4.251651,43.262352 
	C6.227221,42.946388 8.194733,42.958874 10.581042,42.899448 
	C11.454341,42.537365 11.939228,42.471806 12.734327,42.891346 
z"/>
<path fill="#FFFFFF" opacity="1.000000" stroke="none" 
	d="
M6.050508,48.413204 
	C7.189900,48.424171 7.922217,49.073391 7.965406,50.616119 
	C6.839239,50.604992 6.086917,49.966515 6.050508,48.413204 
z"/>
<path fill="#F8C497" opacity="1.000000" stroke="none" 
	d="
M47.073669,19.174368 
	C47.096531,20.517254 46.895023,21.551224 47.901924,22.652557 
	C47.810764,23.747438 47.572544,24.501368 47.200485,25.527885 
	C47.006763,26.447744 46.994701,27.097519 46.905197,28.077694 
	C46.780357,28.628281 46.714962,28.847523 46.514793,29.387947 
	C46.057564,30.353899 45.655033,30.943045 44.870132,31.702030 
	C40.072468,34.531910 35.144009,32.250748 30.141705,33.110115 
	C28.064116,33.040810 27.226353,31.053217 25.335278,31.337727 
	C25.165089,31.771605 25.122437,31.963829 25.022753,32.462933 
	C24.515772,34.337868 24.020670,35.873093 21.901619,36.494530 
	C21.317751,36.409981 21.093836,36.320290 20.640694,35.949059 
	C19.952303,34.046024 19.700365,32.383064 19.346203,30.369484 
	C19.081829,29.295599 19.061840,28.566458 19.199730,27.469204 
	C19.511049,26.400002 19.872934,25.758821 20.542000,24.876019 
	C22.413794,23.515665 23.362064,21.752779 25.163973,20.325359 
	C31.114506,17.714209 37.327091,19.517097 43.413696,17.630093 
	C44.562599,17.423800 45.317436,17.446999 46.358322,17.972153 
	C46.813805,18.391268 46.959190,18.595457 47.073669,19.174368 
z"/>
<path fill="#F4C295" opacity="1.000000" stroke="none" 
	d="
M28.702507,32.329357 
	C33.975933,30.938181 39.142582,32.941956 44.474754,31.059227 
	C45.811634,31.581741 45.951477,32.558426 46.148178,33.884678 
	C46.190868,34.485302 46.198505,34.725574 46.199509,35.325417 
	C46.165520,36.162712 46.110489,36.637218 45.934292,37.452404 
	C45.724510,38.002605 45.607925,38.208881 45.265129,38.689278 
	C45.017925,39.443829 44.996933,39.924252 44.946049,40.764038 
	C44.916157,41.123398 44.464279,41.055405 44.245289,41.118919 
	C42.786377,41.881039 41.546452,42.579647 40.198227,43.576935 
	C39.924324,43.919815 39.758720,43.964020 39.338154,44.041279 
	C35.407082,44.525169 31.989943,43.869144 28.669830,41.364422 
	C27.884800,39.993828 27.741936,38.869339 27.654865,37.300442 
	C27.678038,35.423962 27.657160,33.968925 28.702507,32.329357 
z"/>
<path fill="#BB133E" opacity="1.000000" stroke="none" 
	d="
M45.321251,38.283463 
	C45.124504,37.577717 45.084839,37.121143 45.108215,36.325302 
	C45.532974,35.540989 45.907223,35.109081 46.669392,34.690205 
	C47.123585,34.554993 47.314762,34.537727 47.753105,34.668182 
	C52.368061,34.875572 56.735863,34.935246 61.564392,35.071888 
	C62.180382,35.266605 62.335640,35.384357 62.662682,35.738583 
	C62.786800,36.579414 62.739136,37.183773 62.401299,37.909752 
	C61.929817,38.166985 61.748512,38.302597 61.295601,38.642097 
	C56.315819,38.898373 51.607643,38.950764 46.437149,38.926426 
	C45.809330,38.744011 45.643833,38.638321 45.321251,38.283463 
z"/>
<path fill="#BB133E" opacity="1.000000" stroke="none" 
	d="
M45.709908,29.477943 
	C45.902782,28.908360 45.954800,28.741680 46.079502,28.323376 
	C46.443378,27.568169 46.871227,27.243166 47.709751,27.076267 
	C52.007526,27.095266 56.027798,27.130169 60.506313,27.216774 
	C61.165646,27.363991 61.366734,27.459507 61.846176,27.739479 
	C63.779591,30.018787 63.272507,31.016565 60.603031,31.004665 
	C56.709923,30.987309 52.816616,31.013346 48.461983,31.093836 
	C46.651001,31.757423 45.827583,31.353184 45.709908,29.477943 
z"/>
<path fill="#FFFFFF" opacity="1.000000" stroke="none" 
	d="
M45.604038,29.220798 
	C46.045033,29.942102 45.892712,31.070772 47.656826,31.089565 
	C48.000416,32.139885 48.000263,33.112980 48.000183,34.450989 
	C47.828018,34.869431 47.655777,34.922958 47.227577,35.064156 
	C46.549919,35.387264 46.097034,35.476433 45.327950,35.236229 
	C45.013763,33.956341 44.989113,32.880714 44.915169,31.404478 
	C45.029686,30.458097 45.193497,29.912327 45.604038,29.220798 
z"/>
<path fill="#B80835" opacity="1.000000" stroke="none" 
	d="
M54.555641,43.085205 
	C54.431412,43.574165 53.891079,43.996063 53.197906,44.628700 
	C52.115555,44.451992 51.186043,44.064541 50.092415,43.415054 
	C51.332043,43.108059 52.735794,43.063095 54.555641,43.085205 
z"/>
<path fill="#CD4B6C" opacity="1.000000" stroke="none" 
	d="
M47.943550,26.786755 
	C47.562351,27.372952 47.137440,27.685543 46.432358,28.034943 
	C46.263771,27.430676 46.375355,26.789602 46.776794,25.974503 
	C47.344379,26.038034 47.622112,26.275591 47.943550,26.786755 
z"/>
<path fill="#B80734" opacity="1.000000" stroke="none" 
	d="
M61.288033,38.871422 
	C61.155464,38.544930 61.369564,38.323940 61.888710,38.107193 
	C61.924767,38.319866 61.738419,38.608360 61.288033,38.871422 
z"/>
<path fill="#B80734" opacity="1.000000" stroke="none" 
	d="
M45.101151,38.262295 
	C45.425468,38.118740 45.637184,38.271778 45.887074,38.671547 
	C45.974827,38.849697 45.515179,38.978050 45.277046,38.970726 
	C45.038918,38.963402 45.038124,38.490299 45.101151,38.262295 
z"/>
<path fill="#B90633" opacity="1.000000" stroke="none" 
	d="
M62.871140,35.717819 
	C62.572994,35.887070 62.361092,35.731548 62.111938,35.328682 
	C62.319355,35.252766 62.613583,35.356674 62.871140,35.717819 
z"/>
<path fill="#CD4B6C" opacity="1.000000" stroke="none" 
	d="
M62.010178,27.686123 
	C61.787766,27.971916 61.491920,27.883299 61.100784,27.463282 
	C61.274982,27.328421 61.585400,27.388363 62.010178,27.686123 
z"/>
<path fill="#BA133E" opacity="1.000000" stroke="none" 
	d="
M3.438449,38.211552 
	C3.121507,37.553921 3.072953,37.099934 3.095233,36.308945 
	C3.280997,35.814762 3.395927,35.657574 3.744370,35.324928 
	C8.652343,35.087154 13.326800,35.024834 18.460619,34.918114 
	C19.677834,34.489876 20.158058,34.907867 20.844446,35.672859 
	C21.094763,35.892338 20.997324,35.992077 21.048237,35.945610 
	C21.470882,36.531593 22.114660,36.500668 22.974712,36.745686 
	C23.287018,37.128365 23.344482,37.329140 23.183975,37.754883 
	C22.674664,38.146511 22.383322,38.313164 21.973640,38.711540 
	C21.627607,39.115765 21.399916,39.288265 20.749012,39.530220 
	C17.789431,39.612869 15.264940,41.054367 12.357786,39.422707 
	C9.944063,39.122204 7.889443,39.061951 5.400394,38.923729 
	C4.576893,38.612648 4.155604,38.473743 3.438449,38.211552 
z"/>
<path fill="#051833" opacity="1.000000" stroke="none" 
	d="
M20.743996,39.275845 
	C20.965099,39.143204 21.407324,39.030487 21.631311,38.986877 
	C24.391024,45.955364 26.903400,52.976078 29.484245,59.971527 
	C29.942770,61.214375 30.721647,62.360256 28.396597,62.903145 
	C25.549711,55.449528 23.581377,47.895306 20.174793,40.473316 
	C19.998140,39.784355 20.157021,39.526531 20.743996,39.275845 
z"/>
<path fill="#D49164" opacity="1.000000" stroke="none" 
	d="
M23.257915,37.271225 
	C22.474771,36.864918 21.881145,36.685223 21.193336,36.202332 
	C23.232697,35.878292 23.387745,34.092510 24.019054,32.342838 
	C24.255888,31.855276 24.440226,31.709631 24.975637,31.527767 
	C28.084154,32.083771 27.653690,34.672939 28.670517,36.764927 
	C28.920551,38.091583 28.957319,39.142414 29.000460,40.587608 
	C29.368134,41.414818 29.515379,41.911194 29.207640,42.793293 
	C26.097494,42.960365 25.464951,40.389153 23.926306,38.306633 
	C23.651394,37.834816 23.549414,37.666328 23.257915,37.271225 
z"/>
<path fill="#D79265" opacity="1.000000" stroke="none" 
	d="
M29.111336,43.416199 
	C28.977070,42.641521 28.987614,42.167492 29.002495,41.337719 
	C32.204453,41.811157 35.402077,42.640343 38.841442,43.771927 
	C39.045277,45.218967 38.526104,46.103695 37.326973,46.906395 
	C36.622089,47.454037 36.326694,48.004055 35.434578,48.113800 
	C33.478943,46.184883 30.654192,45.927311 29.111336,43.416199 
z"/>
<path fill="#B84655" opacity="1.000000" stroke="none" 
	d="
M35.015320,48.315006 
	C35.604618,47.739273 36.059719,47.456238 36.773514,47.102806 
	C35.877522,49.139996 39.159485,50.260387 38.090981,52.623795 
	C37.849316,53.071671 37.725979,53.218224 37.362976,53.206291 
	C36.311039,53.038204 35.498756,53.028606 34.280579,53.033298 
	C29.951210,50.602203 34.612568,50.102837 35.015320,48.315006 
z"/>
<path fill="#FDFDFE" opacity="1.000000" stroke="none" 
	d="
M23.050449,37.279263 
	C23.417477,37.056885 23.663757,37.222210 23.780308,37.771950 
	C23.753376,38.003304 23.359499,37.994976 23.162750,37.987419 
	C22.966003,37.979858 23.032501,37.513912 23.050449,37.279263 
z"/>
<path fill="#D59266" opacity="1.000000" stroke="none" 
	d="
M21.034111,24.662716 
	C20.889807,25.560070 20.764894,26.122660 20.406294,26.862299 
	C19.304417,27.475092 19.630877,28.710133 18.440891,29.066856 
	C16.427181,25.525862 17.195850,21.752306 17.674309,18.361645 
	C18.260471,14.207710 20.039351,9.992609 25.859669,9.295473 
	C26.447016,13.011060 24.468685,15.779387 22.278912,18.817339 
	C21.320932,20.758528 21.570381,22.621469 21.034111,24.662716 
z"/>
<path fill="#FEFEFE" opacity="1.000000" stroke="none" 
	d="
M32.564911,7.904594 
	C34.060631,7.892822 35.141087,7.956726 36.621975,8.093498 
	C37.851421,8.563045 38.401688,9.113845 37.780663,10.396866 
	C33.763393,11.864709 30.242598,11.422785 26.567976,9.278292 
	C26.270273,8.979151 26.134922,8.826992 26.040401,8.863649 
	C27.775957,6.989820 30.109510,8.474265 32.564911,7.904594 
z"/>
<path fill="#D49164" opacity="1.000000" stroke="none" 
	d="
M21.090887,35.523499 
	C20.554913,35.636242 20.015062,35.380146 19.197596,34.998886 
	C19.375481,33.659382 18.015074,33.172623 17.917892,31.922523 
	C18.320534,31.463192 18.656565,31.287756 19.383110,30.699032 
	C19.329473,30.167696 19.180115,30.039303 19.320601,29.895723 
	C19.463097,29.750084 19.604895,29.674879 19.912590,30.000208 
	C21.569197,31.692545 20.998083,33.492809 21.090887,35.523499 
z"/>
<path fill="#AA8574" opacity="1.000000" stroke="none" 
	d="
M20.046898,29.909861 
	C20.074310,30.325537 19.811838,30.286800 19.792732,30.286274 
	C19.402111,30.191076 19.030598,30.096407 18.388912,29.494671 
	C18.619415,28.407766 19.120089,27.827932 19.896685,27.143723 
	C20.121569,27.857628 20.070528,28.675907 20.046898,29.909861 
z"/>
<path fill="#FFFFFF" opacity="1.000000" stroke="none" 
	d="
M20.518147,39.090424 
	C20.806253,39.420876 20.647408,39.698547 20.251728,40.068497 
	C17.919350,41.108421 15.823803,42.056061 13.371213,43.077816 
	C12.564823,43.092556 12.115477,43.033176 11.332985,42.900665 
	C11.310002,41.823360 11.620166,40.819187 11.964506,39.498734 
	C14.689519,39.134190 17.380356,39.085918 20.518147,39.090424 
z"/>
<path fill="#B90734" opacity="1.000000" stroke="none" 
	d="
M3.179305,38.320515 
	C3.664379,38.147137 4.158699,38.286362 4.809492,38.635674 
	C4.373493,38.774879 3.781022,38.703995 3.179305,38.320515 
z"/>
<path fill="#B80633" opacity="1.000000" stroke="none" 
	d="
M3.719851,35.119781 
	C3.896210,35.413368 3.744148,35.627201 3.343883,35.881462 
	C3.264651,35.677994 3.363234,35.384041 3.719851,35.119781 
z"/>
<path fill="#FFFFFF" opacity="1.000000" stroke="none" 
	d="
M38.200592,10.137686 
	C37.745201,9.416468 37.488388,9.008790 37.126991,8.383739 
	C38.719444,8.106060 40.416489,8.045754 42.535652,7.935186 
	C43.135674,8.468787 43.313564,9.052650 43.743450,9.818146 
	C44.109451,10.220519 44.223461,10.441262 44.146614,10.983385 
	C43.526985,11.570320 43.061577,11.736088 42.190556,11.817444 
	C40.568642,11.635080 39.408493,11.231526 38.200592,10.137686 
z"/>
<path fill="#FEFEFE" opacity="1.000000" stroke="none" 
	d="
M48.758991,12.029046 
	C49.035110,13.377861 51.320793,12.681725 51.023312,14.562783 
	C51.380939,15.892220 50.761692,16.274601 49.580975,16.561602 
	C48.385773,16.421415 47.689098,16.055019 46.807457,15.237955 
	C46.214954,14.165852 46.187138,13.395600 46.751774,12.308914 
	C47.469112,12.005757 47.938221,12.011553 48.758991,12.029046 
z"/>
<path fill="#FEFEFE" opacity="1.000000" stroke="none" 
	d="
M46.740978,11.893242 
	C47.000000,12.749847 47.000000,13.499734 47.000000,14.624561 
	C44.395142,15.980699 44.251301,14.269446 44.605049,11.723021 
	C45.495152,11.260992 45.988552,11.523757 46.740978,11.893242 
z"/>
<path fill="#FEFEFE" opacity="1.000000" stroke="none" 
	d="
M44.229755,11.141002 
	C43.993382,10.923778 43.995781,10.461775 43.995613,10.230776 
	C44.861435,9.186097 44.873928,9.951261 44.993240,10.766397 
	C45.001747,10.998227 45.000000,10.999996 44.999695,11.000315 
	C44.821640,11.119830 44.643887,11.239028 44.229755,11.141002 
z"/>
<path fill="#FFFFFF" opacity="1.000000" stroke="none" 
	d="
M48.682655,16.078533 
	C49.572716,15.806065 50.145279,15.612054 50.883423,15.155764 
	C51.485493,14.935607 51.921978,14.977730 52.679459,15.093332 
	C53.002926,16.280039 53.005402,17.393267 53.017227,18.838947 
	C51.318733,19.295259 49.610882,19.419119 47.472900,19.546032 
	C47.042767,19.549088 47.172581,19.188684 47.128441,19.002304 
	C46.581043,17.481512 47.477592,16.821413 48.682655,16.078533 
z"/>
<path fill="#FDFDFE" opacity="1.000000" stroke="none" 
	d="
M37.128071,53.301258 
	C37.123318,53.047802 37.548969,52.992764 37.760811,52.958939 
	C37.977985,53.117977 37.983318,53.310844 37.978771,53.793404 
	C37.690201,53.906967 37.411514,53.730839 37.128071,53.301258 
z"/>
<path fill="#071230" opacity="1.000000" stroke="none" 
	d="
M44.673599,17.731098 
	C42.160606,19.638948 39.212368,20.197300 36.133629,19.983053 
	C32.657673,19.741163 29.282520,20.350319 25.470837,20.929173 
	C24.195292,20.600067 23.712040,20.006304 23.627457,18.736244 
	C25.109697,16.417650 27.233557,16.714624 29.178055,16.686184 
	C33.337631,16.625345 37.452713,15.901119 42.013672,16.020840 
	C43.211338,16.344599 43.896118,16.772438 44.673599,17.731098 
z"/>
<path fill="#FEFDFC" opacity="1.000000" stroke="none" 
	d="
M45.169365,18.125122 
	C44.295956,17.936083 43.717335,17.785202 43.022690,17.349401 
	C42.061832,15.279877 40.728359,13.610985 41.821415,11.204566 
	C42.498791,10.978881 42.926331,10.975266 43.673630,10.947715 
	C44.160629,10.942090 44.327881,10.960402 44.747261,10.989673 
	C45.207371,12.363645 44.396900,14.064514 46.641624,14.935125 
	C47.555473,15.169247 48.110943,15.338989 48.833282,15.754404 
	C48.443813,16.768995 47.887478,17.537916 47.207718,18.561382 
	C46.544247,18.598377 46.004196,18.380831 45.169365,18.125122 
z"/>
<path fill="#F7AD80" opacity="1.000000" stroke="none" 
	d="
M32.360588,25.478161 
	C30.999140,25.587273 29.402191,27.596237 29.129545,25.119755 
	C28.843443,22.521027 31.416073,22.134115 33.176308,21.694651 
	C34.799465,21.289410 36.036884,22.348011 35.893417,24.217920 
	C35.701302,26.721882 34.121098,25.946424 32.360588,25.478161 
z"/>
<path fill="#F2BF93" opacity="1.000000" stroke="none" 
	d="
M23.519043,18.751144 
	C24.180029,19.444714 24.520823,19.893131 24.951611,20.613419 
	C23.908989,22.226059 24.592157,25.027735 21.378307,24.992022 
	C18.892099,23.249310 21.231573,21.133055 20.730837,19.117954 
	C21.613382,18.489954 22.362520,18.283476 23.519043,18.751144 
z"/>
<path fill="#E39E72" opacity="1.000000" stroke="none" 
	d="
M28.924210,36.621567 
	C25.964756,36.736042 27.753799,33.179325 25.316088,32.162510 
	C24.835262,31.848269 24.666115,31.698383 24.275112,31.292177 
	C24.172102,30.279957 24.290949,29.524057 24.409796,28.768160 
	C26.201826,29.101944 27.422564,30.237024 28.718712,31.825096 
	C28.981543,33.403030 28.973087,34.802700 28.924210,36.621567 
z"/>
<path fill="#F2A87A" opacity="1.000000" stroke="none" 
	d="
M43.393139,22.277374 
	C44.578285,22.995956 46.191406,23.126438 45.471142,24.740770 
	C44.753708,26.348761 43.549946,25.187492 42.551609,25.030855 
	C41.476852,24.862223 40.000450,24.958380 40.290928,23.267513 
	C40.562706,21.685486 41.954868,22.116732 43.393139,22.277374 
z"/>
<path fill="#D59265" opacity="1.000000" stroke="none" 
	d="
M24.040413,31.277451 
	C24.366970,31.126102 24.616558,31.305548 24.903214,31.786173 
	C25.004408,31.998156 24.537342,31.999743 24.304447,32.000332 
	C24.071552,32.000923 24.027569,31.519049 24.040413,31.277451 
z"/>
<path fill="#493E48" opacity="1.000000" stroke="none" 
	d="
M38.793121,35.685886 
	C39.345989,36.680061 40.121368,37.667404 38.495964,37.841167 
	C37.239880,37.975456 36.868240,37.291332 37.629562,35.939926 
	C38.147919,35.655022 38.345009,35.569324 38.793121,35.685886 
z"/>
<path fill="#B90633" opacity="1.000000" stroke="none" 
	d="
M45.041889,35.274628 
	C45.470802,35.027691 45.903191,35.023415 46.653603,35.085487 
	C46.547070,35.420937 46.122513,35.690048 45.434608,35.972595 
	C45.171261,35.986038 45.045364,35.517284 45.041889,35.274628 
z"/>
<path fill="#DEAB83" opacity="1.000000" stroke="none" 
	d="
M39.026352,35.634300 
	C38.857571,35.896027 38.671001,35.903900 38.217636,35.826244 
	C38.160988,35.333061 38.371143,34.925404 38.581299,34.517746 
	C38.723717,34.805313 38.866135,35.092884 39.026352,35.634300 
z"/>
<path fill="#F4C396" opacity="1.000000" stroke="none" 
	d="
M24.067970,18.631195 
	C23.110157,18.994570 22.381081,18.992846 21.285849,18.980179 
	C23.032398,16.092628 23.758123,12.444281 26.177467,9.332901 
	C29.900469,9.153378 33.418648,10.592330 37.562019,9.882214 
	C39.131256,10.136296 40.260494,10.448448 41.730492,10.871548 
	C41.157867,13.062211 44.060673,14.397037 43.025238,16.770954 
	C36.703346,17.465019 30.500025,17.865557 24.067970,18.631195 
z"/>
</svg>