<svg version="1.1" id="Layer_1" xmlns="http://www.w3.org/2000/svg" xmlns:xlink="http://www.w3.org/1999/xlink" x="0px" y="0px"
	 width="100%" viewBox="0 0 64 64" enable-background="new 0 0 64 64" xml:space="preserve">
<path fill="#00FF71" opacity="1.000000" stroke="none" 
	d="
M31.936886,1.392149 
	C42.098789,1.000000 52.199520,1.106567 62.294960,0.922660 
	C64.721252,0.878461 65.099121,1.491119 65.064194,3.760634 
	C64.913902,13.526000 65.000000,23.295004 65.000000,33.531342 
	C61.919399,33.876247 62.776604,31.462914 62.506390,29.707678 
	C61.427071,22.696695 60.079609,15.817582 53.246265,11.301908 
	C51.648582,10.318541 51.270668,8.810261 50.055817,7.503361 
	C49.271717,6.768345 48.661144,6.386434 47.777546,5.742392 
	C43.801895,4.183635 39.926121,3.945750 36.090534,3.506214 
	C34.503155,3.324309 32.771652,3.608873 31.936886,1.392149 
z"/>
<path fill="#000000" opacity="1.000000" stroke="none" 
	d="
M1.286707,26.225124 
	C1.000000,18.567636 1.133067,11.131519 0.923607,3.705062 
	C0.855655,1.295771 1.464924,0.871874 3.749288,0.934074 
	C10.515979,1.118321 17.290909,1.000000 24.531307,1.000000 
	C25.150438,1.186279 25.300879,1.372558 25.535873,1.906636 
	C25.586460,2.489110 25.552490,2.723784 25.344435,3.266521 
	C22.182613,5.637026 18.337774,6.061449 15.339928,8.785801 
	C14.937619,9.133206 14.787463,9.281276 14.441403,9.673801 
	C13.985023,10.239897 13.726026,10.562723 13.283877,11.134857 
	C12.960365,11.535582 12.821304,11.688044 12.455724,12.049682 
	C11.899829,12.506725 11.586587,12.773653 11.059942,13.275469 
	C10.515333,13.784729 10.180800,14.054347 9.559162,14.495840 
	C6.648134,16.098076 6.485605,18.903015 5.698646,21.296450 
	C5.142823,22.986910 4.740027,24.703747 3.305940,26.319483 
	C2.517258,26.619297 2.043047,26.594358 1.286707,26.225124 
z"/>
<path fill="#000000" opacity="1.000000" stroke="none" 
	d="
M26.220203,64.650276 
	C18.417080,65.000000 10.833279,64.937958 3.251884,65.045547 
	C1.455463,65.071037 0.864286,64.729584 0.944604,62.798088 
	C1.122522,58.519489 1.000000,54.228397 1.000000,49.471199 
	C3.698664,47.178699 5.458331,49.119072 6.803653,50.848652 
	C9.363916,54.140179 12.882277,56.309311 15.780902,59.180695 
	C18.095015,61.473064 21.064556,61.547997 24.423073,61.701317 
	C25.904882,62.267868 26.566780,63.028534 26.220203,64.650276 
z"/>
<path fill="#01FFB3" opacity="1.000000" stroke="none" 
	d="
M24.228672,62.565475 
	C18.774117,64.015060 14.877971,62.214699 11.451700,58.089088 
	C8.498301,54.532867 4.829653,51.570644 1.238615,48.672901 
	C1.000000,41.645748 1.000000,34.291496 1.000000,26.468622 
	C1.273824,26.672682 1.676212,26.766182 2.585797,26.085567 
	C3.474840,25.990625 3.916857,26.216898 4.477946,26.906610 
	C4.893842,30.342997 3.902351,33.509594 5.225760,36.902538 
	C6.612116,39.205860 6.426022,41.723267 7.941720,43.955078 
	C8.523520,45.656040 8.731247,47.174435 10.274199,48.357147 
	C11.150164,49.823490 11.397225,51.381390 13.302832,52.014671 
	C14.896458,53.323273 16.423649,54.162239 18.159100,55.291870 
	C18.637432,55.588337 18.825199,55.714478 19.282919,56.049438 
	C19.722561,56.410809 19.892250,56.563354 20.295467,56.964890 
	C21.480423,58.814705 23.574272,59.226486 24.488865,61.282303 
	C24.527002,61.846577 24.488785,62.073666 24.228672,62.565475 
z"/>
<path fill="#000000" opacity="1.000000" stroke="none" 
	d="
M64.697937,48.765648 
	C65.000000,49.656933 65.000000,50.313866 65.000000,50.970798 
	C65.000000,55.569328 66.810066,62.202206 64.526398,64.234100 
	C61.872890,66.595062 55.630219,64.922134 50.472664,65.000000 
	C48.767902,63.545849 49.285881,62.231312 50.424343,61.081181 
	C54.457935,57.006241 58.495636,52.937073 62.549965,48.419159 
	C63.427261,48.234383 63.922623,48.313694 64.697937,48.765648 
z"/>
<path fill="#04FEBF" opacity="1.000000" stroke="none" 
	d="
M52.767960,10.400631 
	C57.442001,11.018929 59.327095,14.544024 61.055832,18.004128 
	C63.451992,22.800085 64.019951,28.091721 64.761749,33.679810 
	C65.000000,36.041668 65.000000,38.083332 65.000000,40.562500 
	C64.246048,41.755127 64.597473,42.739613 64.342163,43.958069 
	C63.348679,46.003933 62.835659,48.018471 60.252804,48.647179 
	C59.635811,48.603386 59.393898,48.535957 58.858360,48.231323 
	C57.140785,45.385521 59.605953,43.279469 59.523296,40.478798 
	C59.639118,38.923462 60.509830,37.948463 60.523216,36.389153 
	C60.761768,34.354706 61.780655,32.714195 60.784836,30.633682 
	C60.837143,28.184284 59.137405,27.344999 57.639580,25.956879 
	C57.383877,25.468025 57.311039,25.259228 57.213955,24.722340 
	C57.258183,23.966957 57.407021,23.571800 57.909859,23.044804 
	C58.460846,22.910397 58.746899,22.873947 59.017544,22.761080 
	C59.296078,22.644924 59.198822,22.652845 58.480560,22.608761 
	C57.946835,22.120523 57.741653,21.760077 57.509941,21.045219 
	C55.770863,18.260305 54.043118,15.848065 52.150955,13.123320 
	C51.924004,12.010828 52.066250,11.297370 52.767960,10.400631 
z"/>
<path fill="#02FFBB" opacity="1.000000" stroke="none" 
	d="
M58.600906,47.756248 
	C59.072777,47.964008 59.280159,47.981236 59.798706,48.023197 
	C60.473339,48.400837 60.708080,48.822380 60.759480,49.692711 
	C56.104099,56.687454 50.917572,62.607094 42.272118,64.759377 
	C36.977909,65.000000 31.955816,65.000000 26.466862,65.000000 
	C26.852732,63.591801 25.894505,63.258579 24.409496,62.914604 
	C24.012877,62.661892 24.018976,62.493580 24.037491,62.072945 
	C27.182184,58.783737 30.593287,61.852760 34.209862,61.336494 
	C37.680176,60.486660 40.836193,59.847912 44.030838,58.278236 
	C44.442043,57.905121 44.594700,57.743309 44.987923,57.350075 
	C45.755772,56.723610 46.391354,56.504848 47.165287,55.891891 
	C47.968342,55.344479 48.551640,55.066402 49.402153,54.610008 
	C51.106026,53.968754 52.293507,53.148586 53.408951,51.704407 
	C53.988117,50.954475 54.414913,50.484406 54.921108,49.673462 
	C55.687912,48.768745 56.306568,48.170242 57.374088,47.632931 
	C57.902306,47.544590 58.119362,47.555157 58.600906,47.756248 
z"/>
<path fill="#FFFF6F" opacity="1.000000" stroke="none" 
	d="
M42.444164,65.000000 
	C42.348797,63.328945 43.539257,62.532188 45.043652,62.043270 
	C51.319904,60.003517 55.696018,55.653061 59.559914,50.164215 
	C60.568665,49.257439 61.153912,48.269920 62.760857,48.850754 
	C59.507061,55.142094 53.605648,59.108944 49.668831,64.764679 
	C47.629444,65.000000 45.258884,65.000000 42.444164,65.000000 
z"/>
<path fill="#01FEBC" opacity="1.000000" stroke="none" 
	d="
M31.750000,1.000000 
	C36.148750,2.645527 40.644550,2.037850 44.907948,2.977392 
	C46.284878,3.280832 47.920013,2.723732 48.947762,4.735230 
	C49.460400,6.265634 48.859726,7.029857 47.697578,7.870463 
	C43.399319,8.700405 40.051254,6.196460 35.949566,5.740563 
	C33.689484,4.536910 31.639795,4.606602 29.205666,4.924056 
	C28.404854,4.660736 28.027668,4.370985 27.567942,3.667485 
	C27.420477,3.093462 27.415737,2.852639 27.545691,2.277850 
	C28.510874,1.303366 29.514004,1.589757 30.717108,1.215483 
	C31.000000,1.000000 31.500000,1.000000 31.750000,1.000000 
z"/>
<path fill="#FFFF92" opacity="1.000000" stroke="none" 
	d="
M63.444389,48.925755 
	C62.211201,49.320251 61.350655,49.544678 60.171238,49.885048 
	C59.908779,49.566959 59.965191,49.132931 60.065735,48.373417 
	C61.791454,47.170849 61.149826,44.416359 63.737125,43.912331 
	C64.268951,43.688717 64.452789,43.542744 64.818314,43.698387 
	C65.000000,45.388889 65.000000,46.777779 65.000000,48.583336 
	C64.724586,48.342781 64.330589,48.259796 63.444389,48.925755 
z"/>
<path fill="#01005E" opacity="1.000000" stroke="none" 
	d="
M30.571594,1.000000 
	C30.612917,2.374960 29.369860,1.830799 28.159054,2.285116 
	C27.148764,2.865650 26.455557,2.865461 25.463907,2.329972 
	C25.143061,1.919227 25.105181,1.736904 25.033649,1.277291 
	C26.714396,1.000000 28.428793,1.000000 30.571594,1.000000 
z"/>
<path fill="#00FFFF" opacity="1.000000" stroke="none" 
	d="
M65.000000,43.625000 
	C65.000000,44.000000 64.532059,43.972252 64.308594,43.903473 
	C64.235847,43.029602 64.386574,42.224518 64.768646,41.209717 
	C65.000000,41.750000 65.000000,42.500000 65.000000,43.625000 
z"/>
<path fill="#9A5D7D" opacity="1.000000" stroke="none" 
	d="
M47.153214,7.214382 
	C47.950619,6.553938 48.430054,6.070738 48.998737,5.345806 
	C49.713707,5.273198 50.339424,5.442322 51.149841,5.899578 
	C51.569099,8.531632 52.207172,10.830746 52.128693,13.582215 
	C51.928272,14.963547 51.449184,15.856320 50.626183,16.998043 
	C50.101173,17.393002 49.863312,17.513817 49.227882,17.698551 
	C47.993690,17.716848 47.274883,17.387936 46.384140,16.549088 
	C45.220200,14.252091 45.394253,12.236834 46.087173,9.848678 
	C46.278717,8.751205 46.469666,8.043595 47.153214,7.214382 
z"/>
<path fill="#E395B0" opacity="1.000000" stroke="none" 
	d="
M51.107544,14.222441 
	C50.775555,11.524475 50.714813,8.990549 50.994308,6.322166 
	C51.832790,7.304391 52.331039,8.421073 52.944801,9.850016 
	C53.001461,10.842317 52.942604,11.522356 52.896999,12.858313 
	C52.791954,13.689306 52.673660,13.864382 52.283920,14.203176 
	C51.801247,14.373425 51.590019,14.379952 51.107544,14.222441 
z"/>
<path fill="#02FFBC" opacity="1.000000" stroke="none" 
	d="
M4.359662,27.265207 
	C3.831624,26.814312 3.554707,26.580889 3.119784,26.125029 
	C4.237481,21.211960 4.314741,15.985304 9.176949,12.517859 
	C10.638854,13.443866 10.469470,14.912541 10.495424,16.690689 
	C10.486434,17.504606 10.417884,17.959797 10.191285,18.724390 
	C9.550817,20.178146 8.538208,21.092884 8.476595,22.776754 
	C8.425522,23.305313 8.399555,23.517294 8.292035,24.041042 
	C8.033147,24.747610 7.829660,25.128567 7.468657,25.797186 
	C7.002124,26.694605 6.528971,27.143097 5.590656,27.517653 
	C5.047700,27.555428 4.829241,27.519054 4.359662,27.265207 
z"/>
<path fill="#C9FEF5" opacity="1.000000" stroke="none" 
	d="
M9.297327,17.305725 
	C7.672565,15.434365 9.963174,14.497873 9.704512,12.654879 
	C9.509417,12.285612 9.487261,12.255281 9.511364,12.236962 
	C10.111629,11.758573 10.779609,11.511456 11.683748,11.067698 
	C11.872692,10.761547 11.827740,10.883773 11.769203,10.855252 
	C12.432594,10.645898 12.472301,9.998280 12.862230,9.229650 
	C13.070366,9.011418 13.066147,9.067759 13.037960,9.069632 
	C14.381647,8.063210 16.000101,7.505602 17.811792,6.730270 
	C18.546625,7.168833 18.803246,7.590600 18.988632,8.459375 
	C18.996325,9.086811 18.961226,9.337030 18.784462,9.937880 
	C15.473155,12.453163 13.898604,16.628653 9.297327,17.305725 
z"/>
<path fill="#02FFBC" opacity="1.000000" stroke="none" 
	d="
M18.312649,7.292889 
	C16.542624,7.941514 15.084678,8.729105 13.318252,9.294100 
	C15.820130,5.451878 19.785431,3.933475 24.450977,2.997191 
	C25.029707,3.144232 25.225893,3.287157 25.573246,3.761590 
	C25.848335,4.847054 25.682432,5.526601 24.918026,6.339597 
	C22.560062,6.364177 20.738434,7.897209 18.312649,7.292889 
z"/>
<path fill="#795561" opacity="1.000000" stroke="none" 
	d="
M25.231462,4.107152 
	C25.094967,3.857601 24.964958,3.429363 24.899239,3.215334 
	C24.833519,3.001306 25.021164,2.557446 25.101051,2.329498 
	C25.851192,2.136984 26.521446,2.172418 27.506447,2.330824 
	C27.853792,2.639203 27.886389,2.824610 27.872293,3.288503 
	C27.696493,3.706960 27.567385,3.846930 27.215925,4.166990 
	C26.816074,4.416886 26.638577,4.486691 26.175934,4.568707 
	C25.716513,4.506179 25.542234,4.431441 25.231462,4.107152 
z"/>
<path fill="#02FFBC" opacity="1.000000" stroke="none" 
	d="
M12.724577,9.080648 
	C13.800100,9.923035 12.910148,10.284971 12.087427,10.812160 
	C11.109077,9.939349 12.062147,9.671402 12.724577,9.080648 
z"/>
<path fill="#02FFBC" opacity="1.000000" stroke="none" 
	d="
M11.501413,10.630175 
	C11.862392,11.828424 11.044454,12.229841 9.912445,12.450869 
	C10.067023,11.645363 10.598579,11.072083 11.501413,10.630175 
z"/>
<path fill="#FDFDE0" opacity="1.000000" stroke="none" 
	d="
M18.025963,57.181908 
	C15.621620,56.792645 14.348966,55.250896 12.952044,53.068810 
	C12.742234,51.951405 12.700890,51.501873 12.775862,50.706238 
	C13.402185,49.093292 13.855783,47.755688 15.208832,46.557320 
	C15.717170,46.241741 15.937003,46.141254 16.512405,45.960510 
	C17.873842,45.769699 18.767372,46.211472 20.062401,46.528999 
	C20.662575,46.671463 20.901272,46.741394 21.470341,46.990334 
	C22.530661,47.870636 23.349909,48.482597 24.119722,49.663574 
	C24.516821,51.428192 25.528229,52.150303 26.572720,53.020466 
	C28.721521,54.810623 29.956577,57.061844 28.276489,60.239613 
	C24.788532,61.463932 22.434420,59.002102 19.254444,58.252693 
	C18.899616,58.061771 18.969601,58.036366 18.980639,58.071918 
	C18.786976,57.808022 18.544891,57.543251 18.025963,57.181908 
z"/>
<path fill="#F6FEF6" opacity="1.000000" stroke="none" 
	d="
M19.034958,58.369797 
	C21.897787,57.680737 24.492157,59.176060 27.637096,59.919800 
	C30.034037,57.855312 32.232494,58.691936 34.833290,59.762814 
	C36.004581,60.440521 36.483913,61.109535 36.194969,62.453751 
	C32.188213,63.774479 28.651133,61.580505 24.479527,61.878765 
	C22.423374,60.773022 20.796839,59.725422 19.034958,58.369797 
z"/>
<path fill="#D6FFF8" opacity="1.000000" stroke="none" 
	d="
M3.918918,27.412909 
	C4.108541,27.047733 4.562925,27.029064 4.789831,27.043806 
	C7.639841,30.119221 6.302226,33.601448 5.822442,37.369595 
	C5.313101,37.952126 5.052531,38.130959 4.334737,38.184601 
	C2.397410,34.652927 2.665602,31.221239 3.918918,27.412909 
z"/>
<path fill="#0DFFC5" opacity="1.000000" stroke="none" 
	d="
M13.041316,53.024284 
	C11.025605,52.835659 8.827347,52.875431 9.933922,49.274788 
	C11.606818,48.555973 12.462185,49.264496 13.272440,50.599426 
	C13.452840,51.377453 13.473153,51.833012 13.253431,52.574139 
	C13.063730,52.857731 13.105991,52.994087 13.041316,53.024284 
z"/>
<path fill="#C7FEF4" opacity="1.000000" stroke="none" 
	d="
M4.061043,38.420788 
	C4.115822,38.029350 4.354131,37.999290 4.950194,37.926506 
	C5.578554,37.864719 5.849159,37.845661 6.444755,38.074020 
	C7.528839,39.487270 7.873848,40.823158 8.381226,42.533241 
	C8.444502,43.522465 8.412404,44.090580 8.226212,45.075859 
	C7.960591,45.742939 7.808678,45.990589 7.306170,46.497093 
	C6.051908,44.098019 5.148240,41.440094 4.061043,38.420788 
z"/>
<path fill="#0DFFC5" opacity="1.000000" stroke="none" 
	d="
M6.979872,46.992920 
	C7.206521,46.514736 7.457466,46.273525 7.711486,45.510208 
	C7.368920,44.465622 7.536183,44.212616 8.475548,44.330788 
	C10.017436,45.499531 10.741174,46.717285 10.193724,48.685211 
	C9.999154,49.000629 9.901395,49.116562 9.854475,49.177555 
	C8.611107,48.934635 7.241430,48.872494 6.979872,46.992920 
z"/>
<path fill="#F6FEF6" opacity="1.000000" stroke="none" 
	d="
M17.909542,57.302979 
	C18.086134,57.252277 18.380060,57.459187 18.832832,57.886787 
	C18.670076,57.925175 18.348476,57.742878 17.909542,57.302979 
z"/>
<path fill="#F7C3FA" opacity="1.000000" stroke="none" 
	d="
M57.946877,23.757301 
	C58.208092,24.006752 58.304348,24.403509 58.341667,24.604202 
	C58.434101,25.627808 58.826221,26.347511 59.113026,27.513819 
	C59.039192,28.753828 58.678745,29.462803 57.775444,30.299706 
	C56.968369,30.746912 56.462440,30.848373 55.565750,30.751732 
	C53.386124,29.898058 53.647213,27.786709 52.316605,26.287033 
	C51.803806,25.640415 51.538010,25.249596 51.146072,24.518257 
	C50.631531,22.525606 50.441406,20.871965 51.526424,18.995852 
	C51.961018,18.572649 52.164822,18.434389 52.723854,18.186016 
	C54.431389,17.987110 55.461193,18.660036 56.674709,19.764194 
	C57.630054,21.094833 57.885979,22.251408 57.946877,23.757301 
z"/>
<path fill="#53D2D4" opacity="1.000000" stroke="none" 
	d="
M58.197868,28.473076 
	C58.164665,27.230831 58.134842,26.409647 58.242001,25.196678 
	C60.095947,25.844818 61.960777,26.765007 61.975937,29.548580 
	C61.953209,31.679161 62.132076,33.480312 61.829731,35.584175 
	C61.966919,37.117657 62.066475,38.328945 61.078831,39.682495 
	C60.621342,40.091980 60.357910,40.197083 59.687584,40.176125 
	C56.005104,36.613548 57.756008,32.690674 58.197868,28.473076 
z"/>
<path fill="#48E2CB" opacity="1.000000" stroke="none" 
	d="
M56.328682,21.232302 
	C55.048527,20.225765 54.175816,19.432333 53.176884,18.304018 
	C51.262009,16.697212 51.920933,15.150845 52.657822,13.211111 
	C52.754154,12.815686 52.902161,12.749262 52.943832,12.817150 
	C55.319225,15.006401 58.062988,16.763618 59.145943,20.262711 
	C58.565418,21.662191 57.697807,21.684044 56.328682,21.232302 
z"/>
<path fill="#C1FBF3" opacity="1.000000" stroke="none" 
	d="
M59.578949,39.767113 
	C59.923023,39.793087 60.402687,39.898621 60.643730,39.942749 
	C61.634636,42.745598 59.947392,44.882927 58.953060,47.583031 
	C58.865395,47.946781 58.485012,47.976341 58.297024,48.008770 
	C57.746319,48.321190 57.335342,48.485802 56.545242,48.506767 
	C56.023155,48.321255 55.839714,48.182621 55.504982,47.731064 
	C55.263371,46.957951 55.257214,46.495949 55.409653,45.695122 
	C55.561295,45.135902 55.627098,44.913940 55.857975,44.388218 
	C57.202663,42.717293 57.436005,40.650368 59.578949,39.767113 
z"/>
<path fill="#ABFCEF" opacity="1.000000" stroke="none" 
	d="
M62.073296,35.587479 
	C60.404274,34.179920 61.006054,32.281013 61.736145,30.141129 
	C63.563324,31.614750 63.233841,33.423958 62.073296,35.587479 
z"/>
<path fill="#5EC8CC" opacity="1.000000" stroke="none" 
	d="
M56.062164,21.310501 
	C56.713673,20.961363 57.506107,20.903528 58.679081,20.726011 
	C59.285320,21.076694 59.511024,21.547062 59.621300,22.408909 
	C59.445110,22.960138 59.384342,23.119886 59.088600,23.382174 
	C58.738285,23.632982 58.606705,23.765083 58.333488,23.943882 
	C56.921432,23.720600 57.033932,22.267973 56.062164,21.310501 
z"/>
<path fill="#4AE4D2" opacity="1.000000" stroke="none" 
	d="
M59.314507,22.944492 
	C60.334938,23.408463 59.959312,23.603123 59.030743,23.576759 
	C58.853626,23.484711 59.123138,23.088594 59.314507,22.944492 
z"/>
<path fill="#9A7243" opacity="1.000000" stroke="none" 
	d="
M50.142708,56.149803 
	C49.460163,56.631664 49.003510,56.783840 48.310925,56.985741 
	C44.530548,58.078968 44.855190,55.537075 44.832325,52.977478 
	C45.085968,52.272095 45.230423,52.007622 45.700554,51.432770 
	C47.041069,50.452023 48.276913,50.478920 49.801197,50.020515 
	C51.460346,50.118282 52.349693,50.700214 52.779076,52.327198 
	C52.515045,54.176121 51.442230,54.998440 50.142708,56.149803 
z"/>
<path fill="#C1CCD8" opacity="1.000000" stroke="none" 
	d="
M46.455490,57.571373 
	C46.602585,57.946056 46.415169,58.109798 46.027031,58.588295 
	C43.479946,60.102669 40.936924,60.454144 37.970486,60.423824 
	C36.276566,58.719315 36.527443,56.968040 36.922264,54.820034 
	C39.705811,51.639286 41.595192,54.071152 44.005714,55.534103 
	C45.020386,56.195148 45.488663,56.866013 46.455490,57.571373 
z"/>
<path fill="#DFFAF5" opacity="1.000000" stroke="none" 
	d="
M37.769016,59.696186 
	C40.379417,59.583107 42.706696,59.258781 45.430145,58.918755 
	C43.487965,61.842640 39.512115,60.884670 36.346153,62.778717 
	C35.774284,62.330223 35.570812,61.834248 35.159592,61.161743 
	C34.838634,60.779015 34.725430,60.572826 34.748821,60.040939 
	C35.076309,59.577084 35.267204,59.438927 35.800350,59.211773 
	C36.620049,59.133389 37.069374,59.248337 37.769016,59.696186 
z"/>
<path fill="#937A52" opacity="1.000000" stroke="none" 
	d="
M46.997044,57.832489 
	C46.116726,57.574066 45.443451,57.365822 44.448952,57.015648 
	C42.890594,55.763912 42.495880,54.440590 43.365662,52.496231 
	C44.097027,51.734818 44.644028,51.561604 45.646851,51.831947 
	C46.193222,53.712807 45.399384,55.647774 47.731701,56.910370 
	C47.784691,57.317867 47.494389,57.600266 46.997044,57.832489 
z"/>
<path fill="#DDF8EB" opacity="1.000000" stroke="none" 
	d="
M50.224304,56.301678 
	C49.824299,55.080975 51.080368,54.584736 51.909218,53.391502 
	C52.401886,52.517517 52.717522,51.929993 53.628174,51.500725 
	C54.167873,51.481842 54.383274,51.530533 54.840183,51.805954 
	C53.884079,53.751205 52.593212,55.366009 50.224304,56.301678 
z"/>
<path fill="#C4F9F3" opacity="1.000000" stroke="none" 
	d="
M55.357456,51.928207 
	C54.863113,52.025238 54.644535,52.017792 54.098289,51.994225 
	C53.685215,51.769878 53.599796,51.561657 53.582375,51.021088 
	C54.009796,50.060677 54.548317,49.670349 55.593761,49.488831 
	C56.156528,49.587456 56.369289,49.685562 56.669300,50.124100 
	C56.382107,50.917603 56.007664,51.370670 55.357456,51.928207 
z"/>
<path fill="#C4F9F3" opacity="1.000000" stroke="none" 
	d="
M55.883911,48.181442 
	C56.576508,48.004688 57.014462,48.012039 57.780724,48.030296 
	C57.749390,48.687057 57.389744,49.332916 56.893326,50.221657 
	C56.538906,50.323189 56.321259,50.181835 55.788971,49.811256 
	C55.397301,49.160152 55.454876,48.755413 55.883911,48.181442 
z"/>
<path fill="#2BF6C2" opacity="1.000000" stroke="none" 
	d="
M47.091499,6.931920 
	C47.588394,7.519257 47.705605,8.001374 47.803917,8.731528 
	C47.074497,9.833119 46.373619,10.697538 44.913414,11.260921 
	C39.702122,10.171309 34.668556,10.015234 29.789455,7.761836 
	C29.333401,6.880606 29.254021,6.332080 29.468792,5.377379 
	C31.261995,3.588811 33.194477,4.056391 35.471725,4.109934 
	C39.694626,4.172983 43.149776,5.710026 47.091499,6.931920 
z"/>
<path fill="#AAFFEE" opacity="1.000000" stroke="none" 
	d="
M35.547836,3.893834 
	C34.237461,5.705225 32.149666,4.645790 29.865540,4.994559 
	C29.431969,4.984992 28.989395,4.764127 28.983616,4.516882 
	C30.944387,2.792417 33.011902,2.454714 35.547836,3.893834 
z"/>
<path fill="#F7CB60" opacity="1.000000" stroke="none" 
	d="
M28.758579,4.201705 
	C28.949444,4.488822 29.010550,4.679270 29.296560,4.912987 
	C29.551464,5.432485 29.670959,5.879978 29.654392,7.013009 
	C29.094486,8.071110 28.605362,8.310427 27.641705,8.348783 
	C25.436028,7.024564 25.975718,5.442626 26.952324,3.610226 
	C27.291708,3.373384 27.549601,3.492943 27.687601,3.529967 
	C28.033726,3.793417 28.271633,3.982344 28.758579,4.201705 
z"/>
<path fill="#372F76" opacity="1.000000" stroke="none" 
	d="
M51.784309,18.381683 
	C52.071331,20.400366 52.188351,21.824875 52.185249,23.556038 
	C51.289761,24.900520 50.279041,24.922426 48.841331,24.307484 
	C47.691666,23.316465 47.592930,22.223270 47.097366,20.890482 
	C46.854374,20.025600 46.837326,19.520741 47.047852,18.657766 
	C47.447189,17.877377 47.808861,17.551548 48.626934,17.236607 
	C49.150024,17.104343 49.319252,17.078798 50.056618,17.049984 
	C51.011307,17.217911 51.341179,17.464815 51.784309,18.381683 
z"/>
<path fill="#EEB755" opacity="1.000000" stroke="none" 
	d="
M44.743198,10.354769 
	C45.728333,9.764284 46.444557,9.378937 47.472900,8.986578 
	C47.527935,11.017384 47.270847,13.055202 47.024620,15.490129 
	C46.866570,16.032490 46.697662,16.177738 46.197529,16.381081 
	C45.411560,16.408161 44.976746,16.296331 44.267830,15.937628 
	C43.219009,15.204021 42.598839,14.544956 42.313278,13.264307 
	C42.385807,11.552061 43.458733,11.082632 44.743198,10.354769 
z"/>
<path fill="#34589D" opacity="1.000000" stroke="none" 
	d="
M45.833069,16.700804 
	C46.107834,16.114460 46.585537,16.061787 46.810509,15.974512 
	C47.515831,16.206274 47.996178,16.525311 48.728661,16.987118 
	C48.879623,17.393478 48.725395,17.621119 48.344833,17.928261 
	C47.826378,18.356462 47.418896,18.525703 46.630402,18.475920 
	C45.935043,18.098129 45.680370,17.737793 45.833069,16.700804 
z"/>
<path fill="#B67293" opacity="1.000000" stroke="none" 
	d="
M50.641792,14.302053 
	C51.009930,14.036782 51.183567,14.015163 51.618050,13.964373 
	C52.297806,14.247690 52.484737,14.670204 52.419098,15.553141 
	C52.039139,16.642838 51.488693,17.080465 50.346226,17.128475 
	C49.987759,17.037090 49.978931,17.015591 49.989342,17.010880 
	C50.148930,16.186014 50.298111,15.365860 50.641792,14.302053 
z"/>
<path fill="#5797A5" opacity="1.000000" stroke="none" 
	d="
M51.653526,16.372849 
	C51.835922,15.542032 51.881519,15.083667 51.903000,14.280250 
	C52.004410,13.636527 52.167389,13.359928 52.560993,12.960545 
	C52.843365,14.303920 52.932571,15.792152 53.036221,17.624760 
	C52.823784,18.088827 52.596901,18.208521 52.162167,18.652035 
	C51.954311,18.975855 51.960552,19.030222 51.933765,19.024414 
	C51.478470,18.312067 51.322472,17.558744 51.653526,16.372849 
z"/>
<path fill="#42E9C9" opacity="1.000000" stroke="none" 
	d="
M8.943804,17.425407 
	C12.216211,15.298311 13.635986,11.216942 18.018879,10.089132 
	C18.639610,10.365619 18.717287,10.564967 18.821514,11.083355 
	C18.584787,12.424041 18.494722,13.483007 18.052191,14.780859 
	C17.609386,15.612376 17.177717,16.058372 16.552734,16.739574 
	C16.001694,17.473907 15.595808,17.932074 14.955419,18.600143 
	C14.573491,18.959152 14.412471,19.096622 14.001604,19.435663 
	C12.975917,20.446861 12.206883,21.265715 10.733667,21.659157 
	C10.146373,21.677036 9.909711,21.641163 9.356068,21.430351 
	C8.483871,20.691809 8.296939,20.030787 8.691994,18.944111 
	C8.875270,18.303854 8.897183,17.984144 8.943804,17.425407 
z"/>
<path fill="#54E1D8" opacity="1.000000" stroke="none" 
	d="
M6.275236,37.787575 
	C5.961795,37.951408 5.636686,37.891426 5.472317,37.887604 
	C5.241633,34.575695 5.175318,31.267607 5.062869,27.509033 
	C5.149639,26.400305 5.282543,25.742062 5.694056,24.857382 
	C6.163347,24.575426 6.354028,24.519907 6.661839,24.190479 
	C6.778967,23.916571 6.593613,23.745729 6.667787,23.643826 
	C9.259677,23.460979 9.064038,25.403439 9.352439,27.360092 
	C9.373462,27.951126 9.366881,28.187592 9.304634,28.773531 
	C9.036082,29.790075 8.687093,30.402098 8.352836,31.392008 
	C7.474711,33.197414 7.566505,34.846478 7.172842,36.752014 
	C6.889027,37.260201 6.738852,37.441971 6.275236,37.787575 
z"/>
<path fill="#49DED0" opacity="1.000000" stroke="none" 
	d="
M8.216941,27.876394 
	C7.733536,26.340204 7.442608,25.164848 6.946820,23.765707 
	C5.676044,21.538031 6.528279,20.097610 8.492723,18.748692 
	C9.037995,19.232449 9.204175,19.840065 9.536480,20.711658 
	C9.924448,21.113249 10.146292,21.250860 10.567709,21.727312 
	C11.101905,23.412220 10.465902,24.666515 10.298409,26.365318 
	C9.837465,27.533722 9.284565,28.080166 8.216941,27.876394 
z"/>
<path fill="#49DED0" opacity="1.000000" stroke="none" 
	d="
M6.540723,23.895746 
	C6.732314,24.192688 6.591548,24.406807 6.164668,24.594936 
	C5.797816,24.255081 5.907753,24.003075 6.540723,23.895746 
z"/>
<path fill="#C7FEF4" opacity="1.000000" stroke="none" 
	d="
M18.021339,7.486135 
	C19.753075,5.928375 21.569393,4.867399 24.165806,4.861004 
	C25.004993,5.296392 25.213152,5.870994 25.059502,7.010386 
	C24.667379,8.414857 23.986250,9.029979 22.777920,9.758474 
	C21.174994,10.411131 20.002481,10.393016 18.532562,9.433285 
	C18.138542,8.700590 18.090326,8.259468 18.021339,7.486135 
z"/>
<path fill="#5A99AC" opacity="1.000000" stroke="none" 
	d="
M18.169586,9.280369 
	C19.243460,9.092546 20.300161,9.043380 21.756351,8.973711 
	C22.904354,8.410304 23.554394,8.494865 24.054514,9.646706 
	C23.728004,10.491648 23.347519,10.842614 22.490763,11.201999 
	C21.037561,11.433769 19.989614,11.416488 18.803524,10.452795 
	C18.549068,10.146296 18.315807,9.945127 18.219675,9.821044 
	C18.123543,9.696961 18.152418,9.419025 18.169586,9.280369 
z"/>
<path fill="#9971A0" opacity="1.000000" stroke="none" 
	d="
M24.167635,7.958609 
	C24.213724,6.942109 24.329124,6.342660 24.482958,5.282001 
	C24.587608,4.543379 24.706451,4.288731 24.986443,3.957224 
	C25.094967,3.857601 25.424507,3.922065 25.591644,3.937958 
	C27.137550,5.047764 26.212578,6.594505 26.438732,8.308903 
	C25.478310,9.600218 24.856676,8.993738 24.167635,7.958609 
z"/>
<path fill="#AE8368" opacity="1.000000" stroke="none" 
	d="
M26.360161,9.067852 
	C26.037649,7.416174 25.957804,6.082555 25.818371,4.351393 
	C26.072634,3.720692 26.386484,3.487535 26.996021,3.313880 
	C26.791550,4.766850 26.864706,6.136219 27.723064,7.721791 
	C28.581041,7.747223 28.984394,7.941957 29.032177,8.907702 
	C28.136143,9.726810 27.379347,9.754447 26.360161,9.067852 
z"/>
<path fill="#FAFAD8" opacity="1.000000" stroke="none" 
	d="
M35.097908,59.664089 
	C35.005898,60.038532 34.985828,60.512421 34.968834,60.748817 
	C32.901482,60.658539 30.851124,60.331867 28.407032,59.991825 
	C28.814476,55.575100 23.546375,54.447399 23.016657,50.387985 
	C25.392937,47.578621 27.843122,50.393250 30.618099,49.989799 
	C31.445526,50.188656 31.890911,50.392494 32.633034,50.841644 
	C33.536812,51.529228 34.204243,51.917843 34.904114,52.842239 
	C35.647537,55.205585 35.611481,57.244999 35.097908,59.664089 
z"/>
<path fill="#E8F9F8" opacity="1.000000" stroke="none" 
	d="
M31.096195,50.862946 
	C28.194788,52.569950 26.069155,50.433002 23.350700,50.070168 
	C22.421751,49.552135 21.844357,49.081188 21.107149,48.377846 
	C20.952156,47.637253 21.090855,47.166401 21.604851,46.457863 
	C22.291296,45.921566 22.747181,45.732777 23.606483,45.599438 
	C24.701710,45.528477 25.431114,45.536209 26.522324,45.586166 
	C27.851824,45.754353 28.658077,46.305965 29.861904,46.823959 
	C30.998817,47.559559 31.525269,48.324116 31.682758,49.670395 
	C31.574640,50.237663 31.481607,50.452744 31.096195,50.862946 
z"/>
<path fill="#C465E8" opacity="1.000000" stroke="none" 
	d="
M10.260904,49.279331 
	C9.213911,47.917999 8.428668,46.835365 7.716295,45.410576 
	C8.254046,44.590153 8.476674,43.904694 9.400711,43.438625 
	C11.633784,42.908592 12.608801,45.218441 14.790638,45.054295 
	C15.309208,45.241005 15.505881,45.345993 15.934938,45.692516 
	C16.244093,46.143757 16.320862,46.353455 16.264120,46.870354 
	C15.468633,48.600914 14.806655,50.024269 13.969772,51.811707 
	C13.630791,52.022633 13.466715,51.869473 13.173001,52.027031 
	C12.203127,51.411182 11.362890,50.484608 10.260904,49.279331 
z"/>
<path fill="#3B2B8E" opacity="1.000000" stroke="none" 
	d="
M19.581669,47.711754 
	C18.752539,47.476891 18.238728,47.128654 17.504845,46.699173 
	C17.162031,46.428993 17.039289,46.240059 16.793922,45.733719 
	C16.267763,43.850967 15.355027,42.346474 16.284866,40.316696 
	C16.989149,39.378574 17.657738,39.021233 18.830584,38.815300 
	C20.058756,38.875195 20.773716,39.211086 21.629169,40.091179 
	C22.244492,41.120361 22.348295,41.890091 22.315468,43.049038 
	C22.079712,44.627731 21.037426,45.411331 20.546724,46.846939 
	C20.225443,47.295521 20.061214,47.446949 19.581669,47.711754 
z"/>
<path fill="#01FFB3" opacity="1.000000" stroke="none" 
	d="
M13.060067,52.424416 
	C13.043365,52.337753 13.403449,52.188175 13.599157,52.181984 
	C13.681222,52.423416 13.524801,52.634289 13.194668,52.833073 
	C13.063730,52.857731 13.076769,52.511078 13.060067,52.424416 
z"/>
<path fill="#C5FDEE" opacity="1.000000" stroke="none" 
	d="
M19.684071,47.918472 
	C19.266352,47.825130 19.138947,47.524292 19.175907,47.365173 
	C19.724287,46.702560 20.338224,46.471779 21.526138,46.716011 
	C21.783642,47.206749 21.569689,47.495205 21.151535,47.964554 
	C20.665487,48.100910 20.383638,48.056362 19.684071,47.918472 
z"/>
<path fill="#8F8FD7" opacity="1.000000" stroke="none" 
	d="
M17.494949,46.044704 
	C17.451317,46.363232 17.479342,46.563328 17.382057,46.590630 
	C17.103893,46.735107 16.923012,46.852283 16.436371,47.073509 
	C16.083292,47.003315 16.035971,46.829063 16.458117,46.090324 
	C17.131248,45.592621 17.334915,45.659401 17.494949,46.044704 
z"/>
<path fill="#A47FE0" opacity="1.000000" stroke="none" 
	d="
M10.196465,43.773895 
	C9.418032,44.261730 8.887843,44.552822 8.073409,44.956161 
	C7.789165,45.068413 7.744769,44.937828 7.729665,44.962967 
	C7.512649,44.316990 7.310738,43.645870 7.051178,42.453758 
	C6.020034,40.604568 6.731382,39.069016 6.367036,37.298508 
	C6.353498,35.158882 6.439797,33.374310 6.680217,31.245533 
	C7.047393,30.784384 7.260448,30.667440 7.828941,30.630720 
	C10.426826,32.480652 8.855948,35.301777 10.209676,37.658382 
	C10.767267,38.538582 10.956706,39.188782 11.058925,40.202503 
	C11.102347,40.965233 11.124053,41.399475 11.103464,42.154266 
	C10.937572,42.886486 10.735301,43.256695 10.196465,43.773895 
z"/>
<path fill="#75A9D5" opacity="1.000000" stroke="none" 
	d="
M6.174247,37.190414 
	C7.229738,38.229179 7.105650,39.716656 7.024615,41.561562 
	C6.072273,41.025036 6.032979,39.846096 5.975742,38.309898 
	C6.001628,37.780067 6.041461,37.608723 6.174247,37.190414 
z"/>
<path fill="#AB79E2" opacity="1.000000" stroke="none" 
	d="
M59.744469,39.442322 
	C59.109306,41.457169 58.295586,43.121254 57.231552,44.962700 
	C56.173840,44.911430 55.574936,44.407726 54.945320,43.364769 
	C54.508595,41.989525 54.533195,40.948433 54.516773,39.531998 
	C54.516396,38.656750 54.533737,38.160999 54.667847,37.316666 
	C56.621384,35.251232 56.359097,32.813190 57.008377,30.325680 
	C57.377811,29.514421 57.650871,29.030125 58.059212,28.298922 
	C60.146782,31.546124 58.075478,35.540073 59.744469,39.442322 
z"/>
<path fill="#869FD7" opacity="1.000000" stroke="none" 
	d="
M52.821812,25.160187 
	C54.981720,25.905972 54.988857,27.610910 55.106796,29.650625 
	C56.564281,31.473879 56.722870,33.196484 55.991516,35.453491 
	C54.536674,37.124332 53.142582,37.044758 51.308987,36.092098 
	C50.756184,35.641537 50.568356,35.426907 50.207073,34.827385 
	C49.979317,31.726599 50.710575,29.170219 51.779152,26.288548 
	C52.117443,25.730778 52.292606,25.533669 52.821812,25.160187 
z"/>
<path fill="#95683F" opacity="1.000000" stroke="none" 
	d="
M53.064552,24.731819 
	C53.114273,25.160864 53.052689,25.337915 52.904892,25.782604 
	C52.495411,26.389238 52.147251,26.700626 51.463589,27.149714 
	C49.999756,27.639076 48.838089,27.902020 47.267742,27.968073 
	C46.125942,27.830505 45.464611,27.476526 44.622837,26.675854 
	C44.258175,26.140827 44.147636,25.902531 43.968620,25.273159 
	C43.922695,24.616720 43.945248,24.351355 44.105804,23.709072 
	C44.531883,22.868521 44.910286,22.496788 45.757248,22.082169 
	C46.964882,21.837461 47.718960,22.015635 48.670731,22.808933 
	C49.560741,23.958775 50.493382,23.902267 51.728073,23.903786 
	C52.361172,24.068401 52.657207,24.274113 53.064552,24.731819 
z"/>
<path fill="#F4B2FA" opacity="1.000000" stroke="none" 
	d="
M55.115429,36.252739 
	C55.057499,34.285912 55.061584,32.572556 55.114265,30.434208 
	C55.593845,30.006163 56.024837,30.003105 56.780289,29.999382 
	C58.425549,32.326687 58.802998,34.609264 56.422714,36.867413 
	C55.704639,36.936943 55.411449,36.779755 55.115429,36.252739 
z"/>
<path fill="#C865EA" opacity="1.000000" stroke="none" 
	d="
M55.565281,42.756897 
	C56.228870,43.412315 56.546589,43.957085 56.922775,44.820961 
	C56.981239,45.140060 56.920338,45.530552 56.860359,45.718834 
	C56.696514,46.221416 56.532635,46.500473 56.152973,46.932236 
	C55.997200,47.120182 56.022240,47.566109 56.080399,47.781723 
	C55.993450,48.350800 55.848339,48.704266 55.588779,49.319885 
	C55.166618,49.873856 54.858910,50.165676 54.421883,50.627132 
	C52.876713,50.559578 52.188873,49.587864 51.738556,47.949722 
	C51.687965,47.329865 51.692917,47.080750 51.773384,46.466820 
	C52.098591,45.402203 52.495396,44.774910 53.046787,43.821335 
	C53.812473,43.001423 54.458878,42.697220 55.565281,42.756897 
z"/>
<path fill="#AB79E2" opacity="1.000000" stroke="none" 
	d="
M56.213501,46.978455 
	C56.075420,46.793686 56.224052,46.503212 56.621735,46.077942 
	C56.676849,46.216984 56.553326,46.526852 56.213501,46.978455 
z"/>
<path fill="#898564" opacity="1.000000" stroke="none" 
	d="
M46.276089,52.039028 
	C45.601845,52.035671 45.171795,52.019787 44.138744,51.746445 
	C42.885468,50.167278 43.417309,49.022503 44.339012,47.612442 
	C44.823978,47.189903 45.043396,47.051254 45.633240,46.794731 
	C46.770813,46.559341 47.539803,46.515129 48.682564,46.717503 
	C49.516109,47.035439 49.912109,47.341488 50.407829,48.064201 
	C50.607025,48.630871 50.636864,48.870541 50.580364,49.457237 
	C49.747547,50.789425 48.566795,51.050465 47.276157,51.790691 
	C47.008961,52.007568 46.520287,52.026505 46.276089,52.039028 
z"/>
<path fill="#A89D5B" opacity="1.000000" stroke="none" 
	d="
M49.801552,50.260899 
	C49.985538,49.836964 49.994465,49.666451 50.016525,49.240154 
	C50.443878,48.502434 50.627876,47.896408 51.127640,47.115391 
	C51.529350,46.791763 51.716705,46.697784 52.218452,46.605930 
	C53.014530,47.774548 53.496208,48.941040 54.135223,50.452148 
	C54.196823,50.989555 54.101082,51.182343 53.887985,51.676620 
	C53.343407,52.253742 52.916183,52.529381 52.268661,52.939228 
	C51.817455,52.255688 51.583916,51.439838 50.340034,51.054825 
	C49.898651,50.821854 49.762573,50.668083 49.801552,50.260899 
z"/>
<path fill="#937A52" opacity="1.000000" stroke="none" 
	d="
M49.666592,50.055786 
	C49.976608,50.007481 50.008469,50.491570 50.021599,50.733597 
	C49.247204,51.312069 48.459679,51.648518 47.340557,51.996269 
	C47.513222,51.029869 48.242828,50.330093 49.666592,50.055786 
z"/>
<path fill="#A3A7E0" opacity="1.000000" stroke="none" 
	d="
M44.019913,52.015194 
	C44.073345,53.353027 44.049824,54.710644 44.077019,56.470993 
	C41.715218,57.130108 40.770229,54.532246 38.377472,54.020645 
	C37.892307,53.721756 37.745892,53.493584 37.591942,52.856918 
	C37.700367,52.200481 37.816326,51.952541 38.231926,51.421822 
	C40.140038,50.394402 41.707615,50.339520 43.497490,51.710701 
	C43.786880,52.005112 43.942959,52.034977 44.019913,52.015194 
z"/>
<path fill="#D3D9D9" opacity="1.000000" stroke="none" 
	d="
M37.593750,52.887863 
	C37.948254,53.166832 37.986324,53.559570 38.012527,53.754753 
	C38.033642,55.655396 38.028557,57.360859 38.037804,59.486877 
	C37.601509,59.938213 37.150887,59.968994 36.361847,60.002045 
	C34.537182,58.151733 35.035915,56.027859 35.395409,53.545750 
	C36.058887,52.704071 36.607037,52.526642 37.593750,52.887863 
z"/>
<path fill="#E8EAD6" opacity="1.000000" stroke="none" 
	d="
M35.654037,52.930183 
	C35.968578,55.173134 35.988014,57.161324 36.015446,59.576912 
	C35.853863,60.010628 35.684292,60.016945 35.260307,60.030899 
	C33.450260,58.216961 34.182549,56.008816 33.972076,53.553127 
	C34.342472,52.731750 34.806953,52.574425 35.654037,52.930183 
z"/>
<path fill="#F2C45F" opacity="1.000000" stroke="none" 
	d="
M44.611713,10.083912 
	C44.453548,10.970786 43.894985,11.791939 43.150803,12.856075 
	C42.207535,13.997517 41.247532,13.982766 39.882324,13.585800 
	C37.630611,12.306716 35.323338,12.575613 32.976509,11.644855 
	C31.888426,11.459278 31.155043,11.355840 30.183338,10.791581 
	C29.757015,10.342027 29.626881,10.126348 29.464010,9.534697 
	C29.440271,8.655810 29.476461,8.154861 29.750917,7.344188 
	C29.961946,7.032495 29.967247,7.017809 29.965679,7.009914 
	C34.615574,8.468459 39.658970,8.083558 44.611713,10.083912 
z"/>
<path fill="#C9AF67" opacity="1.000000" stroke="none" 
	d="
M29.677122,7.043254 
	C29.965538,7.505777 29.969128,7.979059 29.948719,8.806740 
	C29.752344,9.223349 29.579969,9.285559 29.229252,9.138595 
	C28.866150,8.660736 28.641516,8.431049 28.179337,8.100245 
	C28.451878,7.658090 28.922089,7.356051 29.677122,7.043254 
z"/>
<path fill="#7D5ACE" opacity="1.000000" stroke="none" 
	d="
M45.634262,18.571434 
	C46.611420,18.048365 47.056480,18.010391 47.836548,18.008064 
	C48.191307,18.495993 48.211048,18.948278 48.251575,19.740002 
	C48.610710,21.093231 48.495121,21.936871 47.039635,22.437881 
	C46.446423,22.408695 46.211399,22.354153 45.687386,22.077293 
	C44.780563,20.977110 44.727032,20.039509 45.634262,18.571434 
z"/>
<path fill="#39218B" opacity="1.000000" stroke="none" 
	d="
M45.723370,22.281931 
	C46.854946,21.893753 47.669197,21.644171 48.142944,20.379164 
	C48.504375,20.869373 48.736393,21.659307 48.962494,22.767204 
	C48.076900,23.095615 47.197231,23.106068 45.881405,23.178358 
	C45.458042,23.006359 45.470837,22.772522 45.723370,22.281931 
z"/>
<path fill="#8D5786" opacity="1.000000" stroke="none" 
	d="
M51.564903,16.128246 
	C51.849010,16.754580 51.907688,17.508762 51.936676,18.640776 
	C51.345718,18.530991 50.784454,18.043373 50.105476,17.296423 
	C50.438332,16.776758 50.888901,16.516426 51.564903,16.128246 
z"/>
<path fill="#91D2FA" opacity="1.000000" stroke="none" 
	d="
M39.810020,12.406065 
	C40.848370,12.440725 41.601940,12.723908 42.660343,13.053076 
	C43.579052,13.526274 44.192928,13.953487 44.942230,14.639749 
	C44.947613,15.884853 44.589855,16.742235 43.376553,17.452070 
	C42.789188,17.616703 42.541485,17.637375 41.925941,17.582142 
	C40.603058,17.087725 39.856010,16.432531 39.187382,15.179798 
	C38.930019,14.037823 39.069706,13.311990 39.810020,12.406065 
z"/>
<path fill="#407AD9" opacity="1.000000" stroke="none" 
	d="
M42.745911,17.229549 
	C43.379318,16.331398 43.940376,15.731612 44.789551,15.015311 
	C45.360100,15.128360 45.642540,15.357923 46.016407,15.850973 
	C46.107834,16.114460 46.036449,16.102453 46.025894,16.067833 
	C45.556717,16.455418 45.343552,17.033218 44.858513,17.798250 
	C44.490814,18.137430 44.312775,18.237265 43.828159,18.345238 
	C43.131023,18.189056 42.853741,17.908369 42.745911,17.229549 
z"/>
<path fill="#7DC3F1" opacity="1.000000" stroke="none" 
	d="
M44.286919,18.209614 
	C44.456718,17.397057 44.947197,16.786438 45.726509,16.104515 
	C46.062912,16.486027 46.110481,16.938841 46.162209,17.738995 
	C46.166363,18.086336 46.083775,18.004002 46.028000,17.987007 
	C45.597008,18.363398 45.142132,18.510571 44.286919,18.209614 
z"/>
<path fill="#E2F7FA" opacity="1.000000" stroke="none" 
	d="
M17.172215,15.041636 
	C17.330088,13.695598 17.614727,12.683720 18.058811,11.398417 
	C18.835073,10.309886 19.539392,10.589291 20.519711,11.245718 
	C21.193537,12.229687 21.302128,12.986530 21.105318,14.148208 
	C20.862865,14.730733 20.729223,14.945613 20.306187,15.401020 
	C19.561161,15.842362 19.085939,15.953098 18.237587,15.866196 
	C17.692095,15.645136 17.495539,15.510466 17.172215,15.041636 
z"/>
<path fill="#AD8ACD" opacity="1.000000" stroke="none" 
	d="
M10.490068,21.143337 
	C11.134170,20.041943 11.919823,19.209183 13.033016,18.273270 
	C13.729753,18.321199 14.045500,18.548710 14.476683,19.713539 
	C14.570586,20.783381 14.505015,20.978868 14.282013,21.442156 
	C13.983466,21.862295 13.842349,22.014635 13.438190,22.333530 
	C12.974474,22.550411 12.773800,22.600739 12.265526,22.626049 
	C11.772074,22.516071 11.586222,22.431112 11.183143,22.132568 
	C10.854483,21.749977 10.743052,21.580975 10.490068,21.143337 
z"/>
<path fill="#A8D0EB" opacity="1.000000" stroke="none" 
	d="
M20.338322,12.318559 
	C19.632832,11.852311 19.200144,11.539937 18.492859,11.176277 
	C18.251093,10.951942 18.283926,10.778891 18.432915,10.376067 
	C19.468573,10.103811 20.388079,10.061327 21.672058,10.003632 
	C22.169525,10.147973 22.302519,10.307527 22.447485,10.779359 
	C22.321352,11.492545 22.093573,11.835402 21.512066,12.276110 
	C21.027485,12.440152 20.819305,12.456292 20.338322,12.318559 
z"/>
<path fill="#9483C3" opacity="1.000000" stroke="none" 
	d="
M15.228741,16.318878 
	C15.572322,15.621331 16.012537,15.247894 16.749100,14.790966 
	C17.045448,14.707476 17.144361,14.745630 17.172703,14.790425 
	C17.437145,15.222620 17.576933,15.643226 17.553196,16.419323 
	C17.324797,16.916637 17.177637,17.086834 16.700361,17.329086 
	C15.910191,17.302456 15.567099,17.042572 15.228741,16.318878 
z"/>
<path fill="#E8BCF3" opacity="1.000000" stroke="none" 
	d="
M15.002990,16.258345 
	C15.391612,16.212210 15.651115,16.429649 16.042011,16.869314 
	C16.268625,17.887798 15.832639,18.294819 14.560316,18.250843 
	C14.282167,17.502024 14.578019,17.011972 15.002990,16.258345 
z"/>
<path fill="#E8BCF3" opacity="1.000000" stroke="none" 
	d="
M13.972280,18.494354 
	C13.717099,18.714766 13.596297,18.569107 13.412760,18.301151 
	C13.360557,18.170116 13.659946,18.033541 13.823132,18.012808 
	C13.986317,17.992075 14.117190,18.119549 13.972280,18.494354 
z"/>
<path fill="#61C7CC" opacity="1.000000" stroke="none" 
	d="
M10.280287,22.136082 
	C9.948911,21.861801 9.900363,21.684816 9.777210,21.241735 
	C9.702605,20.975637 10.024178,20.900585 10.186347,20.887642 
	C10.348516,20.874701 10.663365,21.063034 10.811209,21.171627 
	C11.078046,21.702190 10.959103,22.025324 10.280287,22.136082 
z"/>
<path fill="#F9D0FB" opacity="1.000000" stroke="none" 
	d="
M10.547360,38.704308 
	C7.050259,37.159084 8.315121,34.255775 7.886689,31.367413 
	C7.577322,30.471001 7.493334,29.959299 7.679918,29.035030 
	C7.818155,28.460760 7.856206,28.271090 7.959361,27.798491 
	C8.254850,27.159674 8.485236,26.803783 8.872470,26.302147 
	C9.817582,25.618448 10.498140,25.943052 11.405024,26.729694 
	C12.735779,30.059364 11.668664,33.181614 12.049007,36.628712 
	C11.879623,37.542233 11.627870,38.001736 10.547360,38.704308 
z"/>
<path fill="#8F96D9" opacity="1.000000" stroke="none" 
	d="
M7.568523,28.887074 
	C7.821168,29.163931 7.862231,29.677429 7.867507,30.572830 
	C7.831719,30.954731 7.332913,30.946415 7.083625,30.923870 
	C7.008538,30.308790 7.182740,29.716253 7.568523,28.887074 
z"/>
<path fill="#F9C8FC" opacity="1.000000" stroke="none" 
	d="
M11.225552,26.883255 
	C10.423326,26.791796 9.970010,26.551626 9.273006,26.233929 
	C9.287182,25.010637 9.545044,23.864876 9.900183,22.378950 
	C10.288284,21.982643 10.526073,21.838951 10.834939,21.443966 
	C11.290192,21.302664 11.568308,21.435827 11.951877,21.854015 
	C12.440389,22.415741 12.689781,22.849590 12.895661,23.707106 
	C12.746268,25.104811 12.331010,26.007099 11.225552,26.883255 
z"/>
<path fill="#4481B3" opacity="1.000000" stroke="none" 
	d="
M28.682541,8.961912 
	C29.050909,8.929420 29.482279,9.065392 29.703499,9.113266 
	C29.924717,9.161139 29.987497,9.517383 30.015528,9.696064 
	C28.820124,11.734829 27.050398,11.478814 24.598745,10.527044 
	C23.522610,9.641187 23.099728,9.340019 22.416340,8.996030 
	C22.636448,8.608207 23.117060,8.263206 23.847996,7.729881 
	C24.569084,7.924575 25.039848,8.307593 25.814053,8.720201 
	C26.849720,8.831330 27.581945,8.912867 28.682541,8.961912 
z"/>
<path fill="#4481B3" opacity="1.000000" stroke="none" 
	d="
M22.297543,11.125378 
	C21.983976,10.906987 22.034737,10.449365 22.035635,10.218893 
	C22.461706,9.988086 22.886877,9.987750 23.628771,9.964884 
	C23.945492,9.942354 24.004622,10.015708 24.032045,10.054012 
	C24.076267,11.087657 23.483477,11.377496 22.297543,11.125378 
z"/>
<path fill="#9EA6CA" opacity="1.000000" stroke="none" 
	d="
M36.281429,53.144478 
	C35.508236,53.149002 35.067333,53.113060 34.295959,53.112267 
	C33.415604,52.942623 32.865719,52.737835 32.118706,52.313675 
	C32.101738,51.663486 32.380657,51.308109 33.054134,50.869724 
	C33.588051,50.679291 33.811996,50.636467 34.376347,50.572784 
	C35.399921,50.544556 36.078045,50.584831 37.042088,50.925072 
	C37.502697,51.244865 37.662464,51.405746 37.919586,51.892502 
	C38.016941,52.218369 37.991489,52.692127 37.969872,52.929482 
	C37.503410,53.145889 37.058563,53.124947 36.281429,53.144478 
z"/>
<path fill="#5993C5" opacity="1.000000" stroke="none" 
	d="
M34.005482,51.829521 
	C33.278130,51.993359 32.888977,51.998089 32.210701,52.048561 
	C31.639095,51.897461 31.356611,51.700615 30.938969,51.280914 
	C30.803812,51.058060 30.960835,51.081566 31.028156,51.039497 
	C31.314156,50.553314 31.559338,50.124241 32.164600,49.550720 
	C33.006390,49.338749 33.486374,49.426979 34.182125,49.927933 
	C34.549408,50.709862 34.531963,51.194550 34.005482,51.829521 
z"/>
<path fill="#4CE8ED" opacity="1.000000" stroke="none" 
	d="
M22.285604,46.863083 
	C21.380232,46.971783 20.762869,47.025272 19.679186,47.142410 
	C18.116257,45.709240 18.509327,44.691185 20.559017,44.088577 
	C22.140118,43.800430 23.309078,43.777287 24.307877,45.255356 
	C24.405962,45.831249 24.377733,46.069477 24.045532,46.500275 
	C23.352245,46.731186 22.962929,46.769531 22.285604,46.863083 
z"/>
<path fill="#6EECF2" opacity="1.000000" stroke="none" 
	d="
M32.329597,49.597744 
	C31.925615,50.226448 31.722792,50.482170 31.297108,50.859238 
	C30.614162,50.265049 30.132847,49.532673 29.395573,48.588043 
	C29.162252,48.096367 29.184893,47.816940 29.450035,47.193722 
	C30.489592,46.347080 31.273714,46.374241 32.290672,47.248970 
	C32.707920,48.139309 32.713356,48.689644 32.329597,49.597744 
z"/>
<path fill="#B1FFF6" opacity="1.000000" stroke="none" 
	d="
M29.439737,46.957642 
	C29.557817,47.471203 29.488958,47.656593 29.279858,48.108887 
	C28.535686,48.200352 27.931759,48.024910 27.141556,47.684414 
	C26.796654,47.317940 26.638027,47.116520 26.776926,46.673836 
	C27.831520,46.155796 28.558651,46.210186 29.439737,46.957642 
z"/>
<path fill="#86FFE0" opacity="1.000000" stroke="none" 
	d="
M24.128227,46.854939 
	C23.741560,46.692841 23.807299,46.282829 23.843203,46.078335 
	C25.009832,44.992435 26.049019,45.129715 27.021513,46.598801 
	C27.034624,47.042553 27.055208,47.290932 27.005245,47.405144 
	C26.141821,47.351913 25.328358,47.184475 24.128227,46.854939 
z"/>
<path fill="#D063EC" opacity="1.000000" stroke="none" 
	d="
M10.188055,44.181236 
	C9.927190,43.537479 9.906157,43.104317 9.877316,42.345654 
	C10.018511,41.821243 10.167515,41.622341 10.641140,41.234840 
	C11.210526,40.985500 11.455289,40.924763 12.080700,40.866554 
	C12.708383,40.931263 12.955417,40.993446 13.539567,41.236374 
	C15.002498,42.490555 16.113356,43.570011 15.225538,45.655205 
	C12.152015,49.284218 11.701858,45.633614 10.188055,44.181236 
z"/>
<path fill="#B272E3" opacity="1.000000" stroke="none" 
	d="
M15.210581,45.991848 
	C14.928898,44.606281 14.078064,43.658314 13.162970,42.391838 
	C13.536345,41.390465 14.284873,41.178040 15.532585,41.420536 
	C16.507643,42.197529 16.642635,43.007778 16.804459,44.207802 
	C16.692593,44.864521 16.592728,45.115704 16.251812,45.692917 
	C16.010763,46.018948 15.941964,46.074818 15.905249,46.100712 
	C15.868534,46.126606 15.430935,46.031551 15.210581,45.991848 
z"/>
<path fill="#291E64" opacity="1.000000" stroke="none" 
	d="
M27.363678,47.067818 
	C26.508595,46.004009 25.492825,46.135002 24.230528,45.944672 
	C23.361538,44.664482 21.987684,45.296528 21.060202,44.358982 
	C20.944494,43.261585 20.983889,42.440338 21.026592,41.207130 
	C21.353092,40.426731 21.753441,40.178570 22.577209,39.988396 
	C23.661972,39.986134 24.322973,40.284836 25.360046,40.552444 
	C26.835373,41.018227 27.945398,41.469482 29.516441,41.623497 
	C32.826187,42.526302 35.981213,41.337994 39.203842,42.818729 
	C41.872505,45.837318 38.336029,46.073025 37.394871,47.842133 
	C36.965351,48.568439 36.642372,48.918163 35.940773,49.363594 
	C35.400517,49.561550 35.173763,49.602390 34.613209,49.572769 
	C33.643448,49.267323 33.059856,48.948944 32.400864,48.174976 
	C31.584858,47.647747 30.961618,47.389214 29.982529,47.208244 
	C28.982029,47.221569 28.337379,47.157326 27.363678,47.067818 
z"/>
<path fill="#954976" opacity="1.000000" stroke="none" 
	d="
M12.404053,41.650726 
	C12.089849,41.763294 11.617441,41.880527 11.375443,41.906319 
	C10.626513,41.579021 10.016488,41.515076 9.247664,41.108746 
	C9.288042,40.430050 9.529854,39.974163 9.799866,39.262726 
	C9.828065,39.007183 9.940133,38.890793 10.014973,38.860367 
	C12.617279,37.414738 15.894260,37.253796 17.769646,34.090141 
	C18.856237,32.763779 20.136992,32.612835 21.703613,32.233536 
	C23.195820,32.384983 23.974573,33.002441 24.605059,34.344528 
	C24.794537,35.814991 24.348043,36.696312 23.346138,37.732269 
	C22.234989,39.009529 20.940481,39.041100 19.479782,39.589554 
	C18.485821,40.049385 17.828295,40.381096 16.928810,40.994278 
	C16.476053,41.346767 16.265253,41.417782 15.720809,41.493546 
	C14.497440,41.505775 13.607229,41.480526 12.404053,41.650726 
z"/>
<path fill="#7576A3" opacity="1.000000" stroke="none" 
	d="
M19.409737,39.802322 
	C19.932133,38.874302 20.720921,38.030933 21.775795,37.052925 
	C23.522696,36.217430 24.990692,36.390366 26.746761,37.231842 
	C27.160406,37.707817 27.279818,37.934967 27.401529,38.546593 
	C26.693995,40.603615 25.177847,40.829998 23.268776,41.062233 
	C22.477875,41.033882 22.063356,40.970016 21.339371,40.850662 
	C20.578644,40.492439 20.127388,40.189705 19.409737,39.802322 
z"/>
<path fill="#8F8FD7" opacity="1.000000" stroke="none" 
	d="
M15.899867,41.278107 
	C16.407944,41.150410 16.534842,41.242565 16.610847,41.259159 
	C16.903645,42.851028 18.744387,43.985905 17.688261,46.102676 
	C17.451317,46.363232 17.204828,46.178646 17.086887,46.079666 
	C16.701298,45.764957 16.463078,45.520882 16.148224,45.012093 
	C16.042032,44.138428 16.046745,43.496464 16.055870,42.533546 
	C15.837449,41.943661 15.614623,41.674728 15.899867,41.278107 
z"/>
<path fill="#875EB3" opacity="1.000000" stroke="none" 
	d="
M16.015303,45.089699 
	C16.277512,45.024132 16.517702,45.267876 16.863420,45.746147 
	C16.968948,45.980682 16.491360,46.037575 16.251060,46.028259 
	C16.004936,45.812302 15.999110,45.605652 16.015303,45.089699 
z"/>
<path fill="#C465E8" opacity="1.000000" stroke="none" 
	d="
M9.142885,41.103184 
	C9.615898,41.076279 10.185567,41.266613 10.944341,41.694527 
	C10.923335,41.948254 10.713223,41.964405 10.186310,42.000351 
	C9.606110,41.834999 9.396121,41.601757 9.142885,41.103184 
z"/>
<path fill="#A184DE" opacity="1.000000" stroke="none" 
	d="
M54.720173,35.948593 
	C55.365059,36.103790 55.620472,36.286816 55.943218,36.753441 
	C56.018158,37.444603 55.969521,37.930660 55.883011,38.781174 
	C55.720547,39.290764 55.595959,39.435890 55.324631,39.829136 
	C55.074596,40.454906 55.006248,40.838982 54.904167,41.524147 
	C54.746201,42.000381 54.650360,42.180752 54.340485,42.584175 
	C53.786201,43.055031 53.469711,43.330437 52.981819,43.890854 
	C52.464375,44.732685 52.190735,45.342918 51.521000,46.103424 
	C51.029076,46.390694 50.801445,46.450745 50.220505,46.462360 
	C49.185707,46.108097 48.712914,45.573566 48.111046,44.666466 
	C47.850006,44.125019 47.772709,43.896229 47.645531,43.309525 
	C47.573895,42.472000 47.578346,41.992725 47.669579,41.161163 
	C48.023605,39.914932 48.442558,39.058479 48.634834,37.759171 
	C49.108265,36.517323 49.612526,35.710903 50.813744,35.075996 
	C52.236927,35.281937 53.311928,35.589924 54.720173,35.948593 
z"/>
<path fill="#FACAFC" opacity="1.000000" stroke="none" 
	d="
M55.032814,39.226830 
	C55.330196,39.043701 55.585541,39.111233 55.715340,39.128433 
	C55.884315,40.140179 55.923492,41.134727 55.936913,42.498409 
	C55.544029,43.239239 55.176903,43.610931 54.607281,44.148926 
	C54.186508,44.309170 53.968231,44.303112 53.584923,44.014229 
	C53.342934,43.293659 53.383865,42.869114 53.784569,42.219872 
	C54.006874,41.979778 53.978817,41.990723 53.982597,42.005302 
	C54.758331,41.299801 54.329144,40.234989 55.032814,39.226830 
z"/>
<path fill="#D79542" opacity="1.000000" stroke="none" 
	d="
M50.662445,26.456478 
	C51.330193,26.182482 51.754303,26.130901 52.498543,26.064781 
	C53.005268,28.653759 51.984848,30.986626 51.021549,33.715744 
	C50.667561,34.204319 50.469982,34.344517 49.913921,34.550835 
	C48.793835,34.539120 48.173649,34.188030 47.470715,33.322613 
	C47.144295,32.549335 47.078606,32.079052 47.176910,31.256119 
	C48.273495,29.478289 49.182110,27.955896 50.662445,26.456478 
z"/>
<path fill="#806E47" opacity="1.000000" stroke="none" 
	d="
M49.631363,34.270287 
	C49.972637,34.170944 50.418888,34.116405 50.642014,34.090263 
	C50.865139,34.064121 51.013741,34.519325 51.087833,34.746635 
	C50.840534,35.780491 50.519142,36.587036 50.053146,37.690666 
	C49.729458,38.136086 49.550373,38.284409 49.022175,38.454697 
	C48.214745,38.329617 47.848812,38.054684 47.449940,37.334949 
	C47.330711,35.632103 47.993412,34.765568 49.631363,34.270287 
z"/>
<path fill="#FCFBD7" opacity="1.000000" stroke="none" 
	d="
M48.369400,30.701355 
	C48.124001,31.484402 48.069988,31.907980 48.050095,32.650841 
	C47.846294,36.440941 43.907780,36.892586 42.389305,39.798683 
	C41.841759,40.127914 41.603638,40.229553 40.979332,40.389481 
	C36.237560,40.048302 31.555523,41.875103 27.279942,38.359383 
	C25.543329,37.790142 24.156166,37.408379 22.405439,36.972454 
	C22.643557,36.480320 23.245235,36.042351 23.955381,35.327499 
	C24.828022,33.240345 27.005224,33.190544 28.378716,31.592583 
	C25.570562,31.876610 23.043961,31.766399 20.205450,31.197546 
	C18.056087,30.277462 17.096043,28.577211 15.661856,26.897129 
	C14.829713,24.396996 16.348997,22.877064 17.206089,20.827787 
	C17.173012,20.075365 17.144600,19.639902 17.176832,18.864407 
	C17.304569,18.310404 17.388744,18.095259 17.695625,17.610289 
	C18.108286,17.202612 18.298243,17.064762 18.818520,16.803080 
	C19.613728,16.599360 20.082045,16.553082 20.907438,16.530888 
	C21.971466,16.529591 22.679810,16.558018 23.726379,16.751940 
	C24.961504,17.200777 25.544065,17.957645 26.517647,18.758957 
	C27.386349,19.600945 27.877993,20.346899 28.889549,21.033621 
	C31.267937,23.224010 34.194908,22.391317 36.951042,23.366367 
	C38.002544,23.327557 38.699715,23.181948 39.771187,23.232822 
	C40.613884,23.406792 41.097572,23.505224 41.945110,23.692432 
	C43.234123,24.219757 43.940781,24.949636 45.097519,25.661791 
	C45.787170,26.141911 46.113483,26.520546 46.680527,26.971411 
	C48.383453,27.687878 48.895950,28.804201 48.369400,30.701355 
z"/>
<path fill="#F5AA4A" opacity="1.000000" stroke="none" 
	d="
M48.511936,30.968040 
	C47.805763,29.952301 47.433514,28.843779 46.991264,27.389446 
	C47.832481,26.076506 49.030170,26.146544 50.555908,26.185266 
	C51.032654,28.142157 51.118156,30.032019 48.511936,30.968040 
z"/>
<path fill="#7976AA" opacity="1.000000" stroke="none" 
	d="
M42.269699,25.271372 
	C41.464947,25.039129 41.037983,24.991327 40.293060,24.891024 
	C39.936459,23.404360 40.926304,22.983934 42.484013,22.700693 
	C43.457752,22.739868 43.978497,22.909214 44.761177,23.481052 
	C45.069241,23.984324 45.077320,24.202036 45.080353,24.746498 
	C44.336170,25.645821 43.478695,25.467438 42.269699,25.271372 
z"/>
<path fill="#9BB0FB" opacity="1.000000" stroke="none" 
	d="
M45.118408,23.669884 
	C44.625435,23.832663 44.189705,23.898712 43.424080,23.961826 
	C42.930779,23.811132 42.767372,23.663374 42.595520,23.184141 
	C42.741589,22.429819 42.988949,22.068857 43.610405,21.605007 
	C44.350704,21.374016 44.784874,21.410204 45.418999,21.831516 
	C45.631523,22.087166 45.818401,22.166012 45.890755,22.095596 
	C45.877697,22.225662 45.792286,22.426144 45.576065,22.933411 
	C45.445251,23.240196 45.175659,23.573156 45.118408,23.669884 
z"/>
<path fill="#9C9FC1" opacity="1.000000" stroke="none" 
	d="
M42.165077,25.351189 
	C42.686676,25.071142 43.481441,25.055355 44.675762,25.056408 
	C45.075314,25.073250 45.315647,25.390347 45.388252,25.576811 
	C44.453320,25.713999 43.445786,25.664722 42.165077,25.351189 
z"/>
<path fill="#FACAFC" opacity="1.000000" stroke="none" 
	d="
M54.252640,44.199951 
	C54.111748,44.800968 53.818714,45.286713 53.058540,45.630878 
	C52.436245,44.822819 52.598244,44.269207 53.483673,43.857590 
	C53.796684,43.853512 54.100502,44.084675 54.252640,44.199951 
z"/>
<path fill="#FACAFC" opacity="1.000000" stroke="none" 
	d="
M52.646889,46.449688 
	C52.532852,46.608055 52.447247,46.755039 52.454361,46.839787 
	C52.234806,46.905720 52.008137,46.886906 51.812820,46.528419 
	C52.025883,46.052063 52.207592,45.915375 52.708294,45.899406 
	C53.027287,46.020123 53.004467,45.999405 52.996155,45.986572 
	C52.987843,45.973743 52.760929,46.291321 52.646889,46.449688 
z"/>
<path fill="#6A75C5" opacity="1.000000" stroke="none" 
	d="
M43.887638,51.670315 
	C42.138477,52.043903 40.490074,52.082691 38.429306,52.169926 
	C38.016941,52.218369 37.833317,52.096474 37.728416,52.062714 
	C37.530983,51.812016 37.438457,51.595081 37.359291,51.023540 
	C38.427166,47.882473 41.848957,49.574436 43.654213,47.483040 
	C44.243217,47.482056 44.477032,47.534309 44.977203,47.827808 
	C44.825172,49.157879 44.406784,50.246700 43.887638,51.670315 
z"/>
<path fill="#81D0F3" opacity="1.000000" stroke="none" 
	d="
M49.137398,43.938782 
	C49.708195,44.492718 49.894623,45.029793 50.108040,45.852654 
	C50.367569,46.778149 50.105740,47.245060 49.338188,47.725548 
	C48.244442,47.880615 47.425709,47.941467 46.197014,47.971115 
	C45.463524,47.531216 45.239716,47.073639 45.114479,46.179871 
	C45.193859,45.545174 45.273087,45.298416 45.587639,44.741512 
	C46.704960,43.716946 47.701115,43.659103 49.137398,43.938782 
z"/>
<path fill="#96A670" opacity="1.000000" stroke="none" 
	d="
M49.237698,48.002560 
	C49.331120,47.402447 49.599072,46.985138 50.001030,46.353134 
	C50.135033,46.138439 50.590599,45.982452 50.808723,45.880527 
	C51.026852,45.778603 51.439682,45.507126 51.686211,45.491337 
	C51.932743,45.475548 52.366611,45.711823 52.388741,45.957844 
	C52.410866,46.203865 52.449398,46.560848 52.455437,46.742691 
	C51.864502,47.552135 51.267532,48.179733 50.350105,48.895851 
	C49.823841,48.718033 49.618034,48.451698 49.237698,48.002560 
z"/>
<path fill="#2F42B5" opacity="1.000000" stroke="none" 
	d="
M45.569332,45.698845 
	C45.886845,46.340038 45.869869,46.796410 45.819969,47.596344 
	C45.787045,47.939903 45.512985,48.004528 45.378273,48.036793 
	C45.072334,48.038528 44.901115,48.007996 44.471115,47.944366 
	C43.758678,47.604198 43.536507,47.176720 43.675354,46.269680 
	C44.229736,45.590263 44.706238,45.458164 45.569332,45.698845 
z"/>
<path fill="#2C4BB8" opacity="1.000000" stroke="none" 
	d="
M21.695257,11.028685 
	C22.535042,10.770707 23.086105,10.634426 23.848320,10.295231 
	C25.771334,10.044892 27.483196,9.997469 29.619308,9.912395 
	C30.784004,9.929690 31.524450,9.984635 32.626625,10.117889 
	C33.378326,10.600649 33.541565,11.081671 33.320148,12.002840 
	C32.217007,13.478146 30.918056,13.504820 29.242065,13.540493 
	C27.614634,13.606280 26.503983,14.103523 25.048235,14.750038 
	C23.138628,14.736760 21.668097,14.487081 20.782137,12.560028 
	C20.948080,11.842099 21.177309,11.496241 21.695257,11.028685 
z"/>
<path fill="#2958C6" opacity="1.000000" stroke="none" 
	d="
M33.054298,12.394823 
	C32.982616,11.648160 32.986588,11.233331 32.989456,10.507349 
	C35.118221,10.761895 37.248081,11.327593 39.736374,12.025415 
	C40.025223,12.801592 39.955643,13.445643 39.841885,14.412004 
	C39.689674,14.929161 39.581642,15.124010 39.163567,15.446306 
	C37.947941,15.636728 37.072319,15.426432 35.869751,15.165013 
	C34.523346,14.503733 33.649464,13.799884 33.054298,12.394823 
z"/>
<path fill="#4A91DE" opacity="1.000000" stroke="none" 
	d="
M45.740364,21.684702 
	C45.287525,22.059450 44.943523,22.031736 44.338531,22.002464 
	C43.910839,21.895216 43.744141,21.789526 43.421478,21.430935 
	C43.054623,20.608759 43.045139,20.018131 43.153305,19.138235 
	C43.335598,18.691158 43.444012,18.528709 43.768669,18.168621 
	C43.984913,17.970982 44.002678,18.002892 43.984459,18.005283 
	C44.411953,17.985977 44.857666,17.964279 45.637802,17.956297 
	C45.931217,19.074089 45.890213,20.178164 45.740364,21.684702 
z"/>
<path fill="#BDD0F8" opacity="1.000000" stroke="none" 
	d="
M38.682152,15.022205 
	C39.019600,14.913790 39.410461,14.835539 39.604084,14.784925 
	C40.455334,15.328301 41.112957,15.922291 41.708862,17.084726 
	C40.778679,18.254082 39.849663,18.300291 38.570076,17.766605 
	C38.112171,17.390806 37.962154,17.203859 37.725983,16.669453 
	C37.743786,15.847363 37.971905,15.446193 38.682152,15.022205 
z"/>
<path fill="#69B7E9" opacity="1.000000" stroke="none" 
	d="
M43.757664,17.837120 
	C44.008488,18.144146 44.032066,18.317312 44.048637,18.752533 
	C43.745296,19.392994 43.362957,19.645624 42.555092,19.803587 
	C41.741100,19.705158 41.331882,19.494371 40.836044,18.850374 
	C40.689774,18.040194 40.892517,17.662548 41.599815,17.200809 
	C41.868927,16.980568 41.966904,17.079603 42.036964,17.086391 
	C42.107025,17.093180 42.461327,17.004370 42.639793,16.967775 
	C43.055645,17.188540 43.293030,17.445898 43.757664,17.837120 
z"/>
<path fill="#31BDE7" opacity="1.000000" stroke="none" 
	d="
M20.555592,12.180055 
	C21.669430,13.334006 23.153740,13.245025 24.711681,13.790983 
	C26.009546,13.406065 26.758772,13.578083 27.025261,15.007698 
	C26.175182,16.109529 25.311956,16.331036 23.932491,16.430279 
	C22.234859,16.437319 20.992310,16.443977 19.601728,15.352239 
	C19.482527,14.286690 19.666409,13.575265 19.957905,12.514263 
	C20.065517,12.164686 20.392332,12.172152 20.555592,12.180055 
z"/>
<path fill="#2E46C7" opacity="1.000000" stroke="none" 
	d="
M19.274557,14.988585 
	C20.570036,15.006922 21.841425,15.015731 23.580524,15.072897 
	C24.105389,15.385798 24.162540,15.650345 23.952705,16.220854 
	C22.394176,17.152771 21.055748,17.019863 19.366579,16.554525 
	C18.904051,16.092714 18.785189,15.848820 18.933065,15.297552 
	C19.199804,14.990178 19.250469,14.979055 19.274557,14.988585 
z"/>
<path fill="#87C0F3" opacity="1.000000" stroke="none" 
	d="
M18.868553,14.934413 
	C19.199804,14.990178 19.338757,15.433459 19.397163,15.658271 
	C19.519188,16.061628 19.582804,16.240173 19.347340,16.876070 
	C18.865213,17.381866 18.682165,17.430307 18.216103,17.500721 
	C17.745489,17.498135 17.557890,17.473576 17.182556,17.236176 
	C17.033731,16.537085 17.072636,16.050831 17.156294,15.199898 
	C17.646465,14.849696 18.091883,14.864172 18.868553,14.934413 
z"/>
<path fill="#361358" opacity="1.000000" stroke="none" 
	d="
M18.425182,19.794403 
	C20.992708,23.596001 16.706263,23.517904 15.894485,25.688200 
	C15.762417,26.169855 15.567769,26.310862 15.015268,26.503094 
	C13.587528,26.387993 12.964245,25.721088 12.579254,24.384026 
	C12.513186,23.555077 12.507372,23.080660 12.678475,22.287966 
	C12.835297,21.969893 12.999531,21.507725 13.086594,21.278458 
	C13.288426,20.859369 13.403195,20.669546 13.744421,20.235943 
	C13.970877,19.992163 13.803482,19.969542 13.809065,19.885269 
	C15.183953,18.992132 16.586107,18.717627 18.425182,19.794403 
z"/>
<path fill="#8F4B6F" opacity="1.000000" stroke="none" 
	d="
M18.760538,19.772526 
	C17.408773,20.024332 16.022892,20.000132 14.225828,19.888464 
	C13.814648,19.800995 13.808056,19.335283 13.817713,19.102222 
	C13.827369,18.869162 13.967182,18.920988 14.016977,18.976475 
	C14.994504,18.285715 16.047167,18.311630 17.437538,18.803114 
	C18.070896,19.212307 18.398659,19.354414 18.760538,19.772526 
z"/>
<path fill="#A76EBA" opacity="1.000000" stroke="none" 
	d="
M12.654057,21.984438 
	C12.906302,22.412712 12.977308,22.855534 13.122670,23.626854 
	C13.458990,25.022526 14.057630,26.353029 12.716294,26.897387 
	C11.723138,27.300440 11.567126,26.185474 11.688927,24.975491 
	C11.889845,24.017447 11.952952,23.449099 12.063207,22.454536 
	C12.110353,22.028322 12.472816,21.998983 12.654057,21.984438 
z"/>
<path fill="#512559" opacity="1.000000" stroke="none" 
	d="
M13.715736,20.043526 
	C13.891534,20.289738 13.740653,20.545044 13.345945,20.903637 
	C13.269302,20.731091 13.364949,20.412991 13.715736,20.043526 
z"/>
<path fill="#7E599B" opacity="1.000000" stroke="none" 
	d="
M17.741179,18.778917 
	C16.763145,19.058786 15.783157,19.047375 14.434971,19.033960 
	C14.066773,19.031960 14.184357,18.643435 14.215738,18.445709 
	C14.782310,18.030640 15.317500,17.813295 16.013046,17.343746 
	C16.173405,17.091539 16.584454,17.062143 16.789639,17.042740 
	C16.994825,17.023338 17.325935,17.188303 17.500774,17.248665 
	C17.961487,17.318130 18.247360,17.327230 18.224716,17.634460 
	C17.857204,18.117605 17.798214,18.302622 17.741179,18.778917 
z"/>
<path fill="#84A0D4" opacity="1.000000" stroke="none" 
	d="
M11.659695,24.774225 
	C11.986760,24.967960 12.125854,25.666071 12.310380,25.678293 
	C13.167456,25.735067 12.870415,24.902925 13.137747,24.199709 
	C13.992538,24.424452 14.788051,24.893551 15.795460,25.656128 
	C16.200176,27.564491 17.789953,28.754021 17.370016,30.886938 
	C17.162073,32.119537 16.936298,32.997871 16.655210,34.225266 
	C15.533179,36.433598 14.098422,37.586384 11.510859,37.123592 
	C9.442907,33.980614 9.723895,30.899683 10.765261,27.406338 
	C11.081980,26.342196 11.287316,25.652424 11.659695,24.774225 
z"/>
<path fill="#D86B79" opacity="1.000000" stroke="none" 
	d="
M11.053544,37.185699 
	C12.562744,36.032532 13.934599,35.122444 15.574001,34.046577 
	C16.011824,33.755688 16.182098,33.630573 16.665344,33.450829 
	C17.640198,33.492657 18.160223,33.818504 18.719418,34.629230 
	C17.309580,38.391861 14.489321,39.445259 10.486208,38.886017 
	C10.365273,38.362888 10.640736,37.895832 11.053544,37.185699 
z"/>
<path fill="#A8ADEE" opacity="1.000000" stroke="none" 
	d="
M37.600075,50.543663 
	C37.573566,51.063400 37.584705,51.256413 37.609680,51.739189 
	C36.935318,51.978245 36.247124,51.927540 35.211174,51.840855 
	C34.651733,51.028362 35.025322,50.243736 34.781975,49.176071 
	C34.929001,48.569920 35.125072,48.254681 35.585136,47.825287 
	C36.282284,47.551388 36.696972,47.597939 37.321739,48.063606 
	C37.861351,48.928638 37.846863,49.568207 37.600075,50.543663 
z"/>
<path fill="#EAE6F8" opacity="1.000000" stroke="none" 
	d="
M34.579414,48.918221 
	C36.030766,49.472317 35.890202,50.331470 35.026169,51.550758 
	C34.663792,51.829403 34.464169,51.853935 33.965912,51.933552 
	C33.722187,51.543896 33.777088,51.099155 33.845512,50.318733 
	C33.789097,49.792946 33.719158,49.602844 33.885689,49.221958 
	C34.122162,49.031174 34.425900,48.951290 34.579414,48.918221 
z"/>
<path fill="#4866B4" opacity="1.000000" stroke="none" 
	d="
M33.969749,48.779961 
	C34.118927,49.200935 34.115692,49.370697 33.985748,49.761753 
	C33.469395,49.981358 33.079746,49.979668 32.398655,49.965935 
	C32.094677,49.495720 32.082150,49.037556 32.138855,48.242840 
	C32.744507,48.113773 33.280918,48.321259 33.969749,48.779961 
z"/>
<path fill="#7E4599" opacity="1.000000" stroke="none" 
	d="
M16.023798,41.112312 
	C16.341772,41.324219 16.275599,41.498032 16.134853,41.942219 
	C15.294177,42.163486 14.528072,42.114384 13.378819,42.095268 
	C12.995670,42.125259 12.544176,41.939785 12.317013,41.851540 
	C13.158311,40.942181 14.401060,41.018906 16.023798,41.112312 
z"/>
<path fill="#79BFD8" opacity="1.000000" stroke="none" 
	d="
M40.918198,39.063484 
	C41.133034,38.868874 41.468533,38.700932 41.651806,38.660912 
	C42.812542,38.111591 43.802818,37.659710 45.331551,38.075531 
	C46.169373,38.528019 46.506027,38.931557 46.791130,39.824310 
	C46.894844,41.300613 46.351631,42.134647 45.409973,43.160263 
	C44.994076,43.575233 44.816860,43.726204 44.341187,44.046875 
	C43.624901,44.367371 43.196804,44.475914 42.449371,44.607307 
	C41.939194,44.725395 41.735054,44.766003 41.222866,44.782570 
	C40.728798,44.673378 40.542778,44.588226 40.122025,44.305412 
	C36.417408,43.984112 32.947529,43.860477 29.217203,43.408134 
	C28.622667,42.659382 28.381403,42.191528 28.234810,41.282833 
	C28.324747,40.647652 28.413572,40.405128 28.772961,39.891052 
	C31.482828,39.277012 33.933258,39.620560 36.715420,39.500546 
	C37.699974,39.503120 38.346004,39.490051 39.285583,39.600220 
	C39.970364,39.534618 40.344185,39.419590 40.918198,39.063484 
z"/>
<path fill="#5F5AA3" opacity="1.000000" stroke="none" 
	d="
M39.688259,44.354370 
	C40.049725,44.055954 40.212158,44.004158 40.626575,43.908752 
	C41.384457,44.169643 41.746933,44.596153 42.048134,45.565842 
	C41.993664,48.745834 40.036373,49.027523 37.508987,48.961693 
	C36.831932,48.579357 36.561295,48.321968 36.069893,47.887856 
	C36.108307,45.557632 37.874573,45.168037 39.688259,44.354370 
z"/>
<path fill="#8A9DBF" opacity="1.000000" stroke="none" 
	d="
M29.046642,39.787895 
	C29.185608,40.133625 29.141808,40.600674 29.097855,40.831062 
	C28.087540,41.990761 26.940193,42.015469 25.378555,41.782639 
	C24.431002,41.763374 23.834972,41.687931 23.065666,41.355118 
	C23.749586,39.983295 24.970894,39.479656 26.589487,39.034309 
	C27.707928,38.591679 28.338703,38.884384 29.046642,39.787895 
z"/>
<path fill="#7DABC6" opacity="1.000000" stroke="none" 
	d="
M25.327477,42.027782 
	C25.995987,41.013363 27.161547,40.988205 28.698040,41.042931 
	C29.035131,41.509827 29.016361,41.958199 28.977173,42.743000 
	C27.821749,42.889874 26.553183,43.215672 25.327477,42.027782 
z"/>
<path fill="#351D3A" opacity="1.000000" stroke="none" 
	d="
M19.779488,30.139471 
	C22.836527,29.996042 25.540342,30.242826 28.278370,29.131340 
	C29.406700,28.673300 31.502512,28.269815 32.269943,29.961157 
	C33.066513,31.716717 30.892862,32.176548 30.164349,33.297363 
	C28.860062,35.304001 26.830257,35.081871 24.458210,35.032028 
	C23.525698,34.450569 22.987545,33.850513 22.144894,33.205116 
	C21.324867,33.419342 20.784580,33.489937 19.890717,33.112209 
	C19.124493,32.060989 19.113714,31.256245 19.779488,30.139471 
z"/>
<path fill="#E1889B" opacity="1.000000" stroke="none" 
	d="
M19.730762,32.648327 
	C20.429331,32.903748 20.832630,32.975288 21.538160,33.103302 
	C21.001936,33.606518 20.163477,34.053265 19.109879,34.696976 
	C18.358465,34.745461 17.822191,34.596977 17.101086,34.231979 
	C16.972349,33.543526 17.163717,33.132088 17.770140,32.592220 
	C18.528589,32.310574 18.984562,32.322392 19.730762,32.648327 
z"/>
<path fill="#9FA5C5" opacity="1.000000" stroke="none" 
	d="
M29.618202,40.120972 
	C28.622272,39.836258 28.058937,39.538895 27.207170,39.110001 
	C26.918739,38.978470 26.932648,38.575291 26.931570,38.373600 
	C31.364279,38.141975 35.734062,39.415154 40.664238,38.846157 
	C40.908928,39.147732 40.684826,39.426590 40.244762,39.863628 
	C39.845798,40.150204 39.662792,40.278599 39.189144,40.239746 
	C35.949265,40.084438 33.000031,40.096375 29.618202,40.120972 
z"/>
<path fill="#2E3AB3" opacity="1.000000" stroke="none" 
	d="
M44.146088,43.139935 
	C44.376095,42.351006 44.784592,41.884315 45.343880,41.233902 
	C45.743561,40.895672 45.992455,40.741165 46.638927,40.398960 
	C47.628574,40.116749 48.202518,40.181927 49.090790,40.694824 
	C49.328037,41.314247 49.232857,41.645538 49.090874,42.232414 
	C48.794846,43.180740 48.498795,43.840240 47.450905,44.278751 
	C46.164711,44.053101 45.124901,44.137066 44.146088,43.139935 
z"/>
<path fill="#5E4E8A" opacity="1.000000" stroke="none" 
	d="
M49.615913,40.739101 
	C48.913910,40.988117 48.404594,40.993271 47.515976,40.972397 
	C46.405155,39.490536 47.287804,38.856922 48.782043,38.260361 
	C49.113148,38.154541 49.512131,38.076344 49.710339,38.032051 
	C49.875233,38.823586 49.841919,39.659416 49.615913,40.739101 
z"/>
<path fill="#D06BED" opacity="1.000000" stroke="none" 
	d="
M53.002041,45.718891 
	C53.027287,46.020123 52.719913,46.116192 52.565392,46.160027 
	C52.410866,46.203865 52.191322,46.112335 52.103268,46.032394 
	C51.337715,45.261448 51.535461,44.403767 51.796001,43.230663 
	C52.502560,42.600636 52.976246,42.318424 53.728405,42.007996 
	C53.967888,42.397469 53.928898,42.815163 53.843300,43.543182 
	C53.523388,44.374897 53.250092,44.896278 53.002041,45.718891 
z"/>
<path fill="#1C9FCE" opacity="1.000000" stroke="none" 
	d="
M46.491295,43.960693 
	C47.478271,43.550247 48.027279,43.239006 48.810181,42.707886 
	C49.169033,42.717876 49.293995,42.947742 49.470360,43.566624 
	C48.977203,45.037498 48.111801,45.628983 46.476913,45.693100 
	C45.684486,45.161648 45.681263,44.611877 46.491295,43.960693 
z"/>
<path fill="#D06BED" opacity="1.000000" stroke="none" 
	d="
M55.036453,39.235413 
	C55.038330,39.879581 54.746460,40.715462 54.220486,41.785610 
	C54.238487,41.155628 54.490597,40.291378 55.036453,39.235413 
z"/>
<path fill="#9469BF" opacity="1.000000" stroke="none" 
	d="
M51.813080,43.118076 
	C52.028580,43.651604 52.028290,44.420361 52.021606,45.570786 
	C51.846703,45.944725 51.678192,45.936996 51.268265,45.853935 
	C51.216995,44.970169 51.407139,44.161736 51.813080,43.118076 
z"/>
<path fill="#DEDCC5" opacity="1.000000" stroke="none" 
	d="
M46.457886,39.157867 
	C44.974205,39.037022 43.822609,38.956158 42.253044,38.748093 
	C42.735111,35.799694 45.482601,34.937153 47.786369,33.129265 
	C48.545586,33.282646 49.006954,33.595173 49.720478,34.039322 
	C49.355968,34.902611 48.739296,35.634281 48.007637,36.634903 
	C47.468037,37.641098 47.812157,38.747860 46.457886,39.157867 
z"/>
<path fill="#758D64" opacity="1.000000" stroke="none" 
	d="
M46.046970,39.447998 
	C46.552223,38.485081 46.978642,37.852276 47.648857,37.061665 
	C48.144611,37.199997 48.396572,37.496136 48.880840,37.973408 
	C48.539455,38.916645 47.965763,39.678749 47.264366,40.693611 
	C46.864990,40.995163 46.593319,41.043961 45.908161,41.071468 
	C45.652493,40.626156 45.810314,40.202133 46.046970,39.447998 
z"/>
<path fill="#481E4D" opacity="1.000000" stroke="none" 
	d="
M20.019947,32.457855 
	C19.582548,32.865967 19.139061,32.899727 18.361744,32.909492 
	C17.446253,32.941696 16.891418,32.875847 16.205887,32.316299 
	C15.775311,30.214560 15.537564,28.323881 15.653587,26.191404 
	C16.007355,25.949608 15.955141,25.972946 15.956102,26.000896 
	C17.314045,27.069151 18.671026,28.109453 20.050617,29.494635 
	C20.053438,30.587509 20.033649,31.335505 20.019947,32.457855 
z"/>
<path fill="#7981AC" opacity="1.000000" stroke="none" 
	d="
M37.218559,24.527990 
	C34.016090,24.368053 30.873789,24.665590 28.074921,22.397251 
	C27.928514,21.582880 28.109724,21.145145 28.688358,20.522652 
	C30.110624,19.653353 31.351189,19.891014 32.927086,19.926723 
	C34.658134,20.536470 36.108936,20.942583 37.288078,22.474049 
	C37.595741,23.280167 37.595669,23.764467 37.218559,24.527990 
z"/>
<path fill="#6D75DD" opacity="1.000000" stroke="none" 
	d="
M37.354828,24.872681 
	C36.978863,24.409588 36.976360,24.010027 36.967445,23.310858 
	C36.420231,20.337168 38.114891,19.596613 40.585556,19.287853 
	C41.161221,19.407309 41.387314,19.463804 41.924805,19.670242 
	C42.897987,20.566530 42.620228,21.548857 42.955494,22.720480 
	C43.027981,23.045538 43.045986,23.503397 43.070084,23.731144 
	C42.229931,24.117504 41.365681,24.276117 40.238266,24.636627 
	C39.226166,24.871082 38.477234,24.903646 37.354828,24.872681 
z"/>
<path fill="#877CE1" opacity="1.000000" stroke="none" 
	d="
M19.146023,17.155708 
	C19.037458,16.729496 19.104040,16.552149 19.313097,16.128942 
	C20.711744,15.941818 21.967920,16.000555 23.607916,16.072357 
	C24.363873,15.690095 24.745464,15.700049 25.231705,16.398106 
	C25.221020,17.209436 24.973030,17.594019 24.265625,18.004211 
	C23.226225,17.998259 22.525576,17.891798 21.477749,17.713432 
	C20.529207,17.549046 19.921463,17.505260 19.146023,17.155708 
z"/>
<path fill="#9B6FE3" opacity="1.000000" stroke="none" 
	d="
M24.014183,18.343643 
	C24.063108,17.809488 24.238583,17.539791 24.628719,17.128944 
	C25.016703,16.821823 25.229261,16.681383 25.824368,16.567410 
	C26.689892,16.800463 27.087896,17.114916 27.548861,17.895510 
	C27.764099,18.782084 27.689863,19.287783 27.201611,20.051628 
	C26.674328,20.374781 26.418625,20.418917 25.861687,20.216574 
	C25.074131,19.507586 24.587811,19.045076 24.014183,18.343643 
z"/>
<path fill="#7576A3" opacity="1.000000" stroke="none" 
	d="
M25.736816,20.275803 
	C25.791327,19.968035 26.022203,19.965979 26.599218,19.952425 
	C27.644672,19.861675 28.244272,20.077911 28.886681,20.857746 
	C28.815529,21.424007 28.577414,21.644770 28.091612,21.949524 
	C26.873846,22.039375 26.008215,21.818623 25.736816,20.275803 
z"/>
<path fill="#BAB3C5" opacity="1.000000" stroke="none" 
	d="
M18.978756,16.937378 
	C19.532379,17.041367 20.093884,17.175888 20.892981,17.475967 
	C20.649679,17.723991 20.168785,17.806454 19.321388,17.885197 
	C18.817047,17.725405 18.679213,17.569334 18.783209,17.215603 
	C19.025038,17.017942 18.986635,16.967913 18.978756,16.937378 
z"/>
<path fill="#A29CBC" opacity="1.000000" stroke="none" 
	d="
M18.682629,17.067295 
	C19.025038,17.017942 18.992367,17.450113 18.973625,17.665794 
	C18.783213,17.916656 18.611544,17.951839 18.178036,17.959806 
	C17.916197,17.932590 17.766115,17.631405 17.720863,17.470217 
	C17.897146,17.244904 18.118683,17.180777 18.682629,17.067295 
z"/>
<path fill="#4349C9" opacity="1.000000" stroke="none" 
	d="
M43.232971,22.904198 
	C41.420673,22.681005 40.988304,21.900661 42.353661,20.329220 
	C43.277248,19.292219 43.804642,19.735153 44.196632,20.720890 
	C44.089676,21.076059 44.062641,21.538624 44.070087,21.769764 
	C43.903709,22.287937 43.690521,22.541922 43.232971,22.904198 
z"/>
<path fill="#AD90FA" opacity="1.000000" stroke="none" 
	d="
M37.102646,49.103783 
	C38.267300,47.878994 40.390648,48.503624 40.984627,46.179550 
	C41.758667,45.285667 42.546177,45.184353 43.711334,45.771809 
	C44.053154,46.460281 44.077873,46.876926 44.157471,47.602421 
	C42.993816,50.670891 40.562019,50.594582 37.845432,50.692245 
	C37.409195,50.370533 37.255959,49.870674 37.102646,49.103783 
z"/>
<path fill="#2E2598" opacity="1.000000" stroke="none" 
	d="
M44.340836,46.019730 
	C43.281975,45.976013 42.535519,45.908398 41.413162,45.841518 
	C41.012985,45.402542 40.988708,44.962830 40.921497,44.194130 
	C40.878563,43.865139 41.019505,43.870018 41.029114,43.939873 
	C41.439766,43.556351 42.005787,43.510941 42.785675,43.259460 
	C43.025864,43.118492 43.498016,42.977722 43.732803,42.897705 
	C44.789742,43.028370 45.611889,43.239044 46.681648,43.655602 
	C46.677181,44.242710 46.425098,44.623932 46.118011,45.357185 
	C46.063007,45.709217 46.003387,45.815498 45.953606,45.849583 
	C45.486961,45.921055 45.070103,45.958443 44.340836,46.019730 
z"/>
<path fill="#37317A" opacity="1.000000" stroke="none" 
	d="
M32.571968,12.071067 
	C33.893135,12.510042 34.807621,12.957095 35.922371,13.643312 
	C36.406506,14.299071 36.575535,14.759461 36.576828,15.625996 
	C36.370232,16.205256 36.233658,16.415638 35.799988,16.857018 
	C33.183182,18.511988 31.193880,17.174162 28.801498,16.175425 
	C28.268288,15.857374 28.079399,15.691372 27.723652,15.187039 
	C27.404566,14.115101 27.186432,13.381295 27.828392,12.381086 
	C29.450687,12.101645 30.807989,12.090395 32.571968,12.071067 
z"/>
<path fill="#354199" opacity="1.000000" stroke="none" 
	d="
M27.758711,12.091098 
	C28.067860,12.824502 28.042332,13.536109 28.025208,14.605308 
	C28.159731,15.153283 28.285854,15.343667 28.256815,15.839476 
	C27.882286,16.208513 27.662920,16.272127 27.125196,16.209091 
	C26.723600,15.869728 26.640358,15.657015 26.739529,15.154265 
	C26.481615,14.559898 26.041283,14.255568 25.325253,13.882862 
	C25.334108,12.543023 26.185963,12.043420 27.758711,12.091098 
z"/>
<path fill="#424697" opacity="1.000000" stroke="none" 
	d="
M36.221695,16.065613 
	C35.988655,15.367756 36.015564,14.943458 36.082554,14.200818 
	C36.927021,14.090149 37.731411,14.297822 38.777699,14.709642 
	C38.811394,15.220244 38.603191,15.526699 38.153046,15.982404 
	C37.467838,16.429674 36.991356,16.498842 36.221695,16.065613 
z"/>
<path fill="#3862D7" opacity="1.000000" stroke="none" 
	d="
M44.261177,20.892374 
	C43.726669,20.785933 43.363663,20.495804 42.780327,20.153500 
	C42.559994,20.101322 42.317650,20.005190 42.187347,20.001524 
	C41.859375,19.731148 41.661713,19.464439 41.961792,19.212313 
	C42.815578,19.209431 43.171619,19.191967 43.784641,19.094543 
	C44.705597,19.456106 44.879360,20.010786 44.261177,20.892374 
z"/>
<path fill="#E2F4FF" opacity="1.000000" stroke="none" 
	d="
M41.476547,16.982910 
	C41.853615,17.310163 41.734081,17.596207 41.323853,17.984068 
	C40.248718,18.879568 39.309624,18.959040 38.126526,17.650051 
	C38.984684,16.967522 40.034424,16.976387 41.476547,16.982910 
z"/>
<path fill="#63CFE2" opacity="1.000000" stroke="none" 
	d="
M35.762238,15.879404 
	C36.396999,15.860194 36.832256,15.928334 37.589310,16.064064 
	C37.911102,16.131655 37.927677,16.545067 37.931309,16.751862 
	C37.934940,16.958658 37.897751,16.936752 37.876263,16.939724 
	C37.569256,17.324429 37.199020,17.592888 36.406815,17.791008 
	C35.832256,17.755468 35.607086,17.693214 35.106537,17.414795 
	C34.763363,16.975527 34.695568,16.752428 34.881218,16.288300 
	C35.134666,16.047268 35.562733,15.966753 35.762238,15.879404 
z"/>
<path fill="#AFAFFB" opacity="1.000000" stroke="none" 
	d="
M35.694599,17.360291 
	C36.376465,17.103298 36.798779,17.052284 37.537933,16.971985 
	C38.480049,17.837814 39.432686,17.971718 40.774899,18.086029 
	C41.404808,18.403822 41.672237,18.678204 42.199600,19.089741 
	C42.459538,19.226896 42.280300,19.624104 42.168671,19.810982 
	C40.268936,20.404373 38.505016,20.857935 37.139488,22.722507 
	C35.777939,22.563534 34.594841,22.115814 33.229340,21.407207 
	C32.998878,20.699301 33.012127,20.253689 33.212357,19.501593 
	C33.869907,18.429232 34.707432,18.068245 35.694599,17.360291 
z"/>
<path fill="#34439D" opacity="1.000000" stroke="none" 
	d="
M26.563301,14.903948 
	C26.936165,15.048275 26.950382,15.232321 26.979259,15.692867 
	C26.936682,16.355541 26.767313,16.680523 26.190466,17.000957 
	C25.729004,17.053148 25.544456,17.038633 25.082027,16.993191 
	C24.670887,16.727514 24.499758,16.524719 24.141243,16.219650 
	C23.991737,16.085421 24.015717,15.603001 24.031975,15.362127 
	C24.767042,15.062057 25.485849,15.002862 26.563301,14.903948 
z"/>
<path fill="#AD6E8E" opacity="1.000000" stroke="none" 
	d="
M15.854074,32.220139 
	C16.575052,32.203629 17.137051,32.302021 17.863482,32.642956 
	C17.807804,33.163826 17.587692,33.442150 17.141918,33.867973 
	C16.737059,33.994179 16.557863,33.972889 16.110109,33.916203 
	C15.792731,33.365547 15.743912,32.850292 15.854074,32.220139 
z"/>
<path fill="#2D1F69" opacity="1.000000" stroke="none" 
	d="
M42.714096,43.067169 
	C42.549366,43.391682 42.072868,43.664875 41.317543,43.973900 
	C41.196331,43.271057 41.725296,43.041882 42.714096,43.067169 
z"/>
<path fill="#8A9DBF" opacity="1.000000" stroke="none" 
	d="
M39.028053,40.185669 
	C39.086624,40.060062 39.274750,40.047626 39.745834,40.028500 
	C39.738403,40.114151 39.448006,40.206493 39.028053,40.185669 
z"/>
<path fill="#3741BE" opacity="1.000000" stroke="none" 
	d="
M33.938766,19.636768 
	C33.885639,20.310337 33.696846,20.598978 33.277496,21.016968 
	C31.900511,21.135872 30.754086,21.125425 29.312122,21.139126 
	C28.448629,20.923273 27.880676,20.683277 27.129040,20.192106 
	C26.946821,19.517902 26.948288,19.094875 26.920448,18.354860 
	C27.881569,16.834610 29.194908,16.599022 31.028187,16.948566 
	C32.446754,17.556643 33.284588,18.225420 33.938766,19.636768 
z"/>
<path fill="#332A86" opacity="1.000000" stroke="none" 
	d="
M32.317383,18.356350 
	C30.517773,18.120502 29.124527,18.081223 27.311214,18.039906 
	C26.606483,17.899809 26.363613,17.708639 26.038044,17.266010 
	C26.135408,16.804756 26.357269,16.541849 26.786524,16.124157 
	C27.162376,15.971933 27.330833,15.974497 27.751984,15.974133 
	C28.154051,15.803162 28.303419,15.635118 28.713387,15.253005 
	C30.957289,14.641297 32.439556,16.882360 34.816441,16.067570 
	C35.134666,16.047268 35.078888,16.462357 35.083290,16.671722 
	C35.255554,18.789913 33.969189,18.642483 32.317383,18.356350 
z"/>
<path fill="#34439D" opacity="1.000000" stroke="none" 
	d="
M28.739283,15.015071 
	C28.840279,15.320227 28.649771,15.555525 28.203568,15.858017 
	C28.007212,15.803221 28.009741,15.635236 28.022942,15.215075 
	C28.033609,14.962899 28.504581,14.991206 28.739283,15.015071 
z"/>
<path fill="#3735A4" opacity="1.000000" stroke="none" 
	d="
M32.019157,18.443480 
	C32.801476,17.894245 33.691933,17.628708 34.835041,17.122129 
	C35.087688,16.881086 35.527470,16.994722 35.740810,17.074516 
	C36.098686,18.318733 35.443787,19.076185 34.352753,19.887497 
	C33.425392,19.590191 32.776344,19.158684 32.019157,18.443480 
z"/>
</svg>