<svg version="1.1" id="Layer_1" xmlns="http://www.w3.org/2000/svg" xmlns:xlink="http://www.w3.org/1999/xlink" x="0px" y="0px"
	 width="100%" viewBox="0 0 100 100" enable-background="new 0 0 100 100" xml:space="preserve">
<path fill="#9B78DF" opacity="1.000000" stroke="none" 
	d="
M100.787331,73.720276 
	C101.000000,82.144417 100.926804,90.289963 101.052567,98.432442 
	C101.083191,100.415535 100.848831,101.074417 98.580162,101.067329 
	C66.833870,100.968079 35.087029,100.961235 3.340842,101.076233 
	C0.896401,101.085083 0.948486,100.173615 0.962500,98.353897 
	C1.040580,88.215546 1.000000,78.076271 1.000000,67.468658 
	C2.233958,65.848946 3.037545,64.099693 5.440271,64.079498 
	C9.894797,65.908890 14.552032,64.354233 18.841076,66.524368 
	C20.073191,68.808533 18.768171,71.229263 20.424183,73.219826 
	C20.995623,73.199295 21.313509,73.085190 21.863438,72.800858 
	C22.278120,72.574112 22.450537,72.488113 22.888838,72.269844 
	C23.346056,72.074249 23.537394,72.010925 24.029537,71.892960 
	C25.157612,71.776398 25.957357,71.901222 27.011835,72.294601 
	C27.480007,72.451241 27.668938,72.505638 28.139055,72.639328 
	C28.985050,72.887138 29.560463,72.950569 30.451088,72.885330 
	C31.600090,73.011902 32.413010,72.799850 33.578209,72.606583 
	C39.273224,73.278419 39.450085,73.811890 35.936371,79.579758 
	C34.523701,81.710838 33.910301,84.040405 31.395054,85.038147 
	C36.842262,85.286163 42.543964,86.822220 48.224571,83.703491 
	C50.913952,83.425514 53.246628,83.517090 55.948074,83.557205 
	C61.443863,86.494621 66.989975,85.439499 72.381775,85.100952 
	C70.016174,83.962708 69.526108,81.494041 67.914070,79.515587 
	C65.826988,72.460297 65.826988,72.460297 75.127625,73.808716 
	C77.893738,72.630447 80.285393,72.217918 82.850212,74.158096 
	C83.771133,74.225143 84.284340,73.977303 84.901031,73.248703 
	C89.154198,70.537827 93.500923,69.951912 98.095924,70.871857 
	C99.519058,71.156769 100.481224,71.877113 100.787331,73.720276 
z"/>
<path fill="#7DE4AA" opacity="1.000000" stroke="none" 
	d="
M1.208676,34.281738 
	C1.000000,24.054325 1.149372,14.105015 0.907477,4.165226 
	C0.836430,1.245806 1.685269,0.902858 4.302428,0.929277 
	C18.887932,1.076512 33.475693,1.000000 48.531342,1.000000 
	C51.910439,3.907432 51.174374,6.915104 48.914577,9.645944 
	C47.655560,11.167397 46.766846,12.436028 48.061623,14.668384 
	C48.690529,17.310728 46.444450,18.694134 46.136780,21.116859 
	C44.496048,22.847820 43.759968,25.244411 40.729919,24.910728 
	C40.128960,24.709667 39.905746,24.591549 39.418228,24.211266 
	C38.733112,23.371536 38.549828,22.680845 38.111629,21.758141 
	C37.801678,21.095585 37.619976,20.725515 37.240921,20.133316 
	C36.635498,19.441496 36.129902,19.304165 35.276684,19.678932 
	C34.834488,19.953129 34.650780,20.052204 34.176384,20.261482 
	C33.096706,20.563803 32.363022,20.850481 31.740242,21.823502 
	C31.553474,22.296251 31.497190,22.495466 31.317810,22.987301 
	C31.089008,23.467093 30.983299,23.654264 30.683714,24.099922 
	C30.234179,24.724689 30.029963,25.118361 29.783199,25.879862 
	C28.866722,30.556843 30.842005,35.301426 26.977291,39.258110 
	C25.165844,41.112659 23.921608,41.947483 21.299465,40.649139 
	C19.648237,40.553032 18.707117,37.289852 16.759796,40.216770 
	C10.497849,40.809078 5.307490,39.380981 1.208676,34.281738 
z"/>
<path fill="#7DE4AC" opacity="1.000000" stroke="none" 
	d="
M47.357002,15.423063 
	C45.891636,14.335022 44.659718,13.527501 43.521877,12.604060 
	C42.385075,11.681462 42.075871,10.372958 43.846424,10.197805 
	C49.389854,9.649419 49.088409,5.742393 48.999962,1.428400 
	C65.416580,1.000000 81.833595,1.057882 98.249245,0.933975 
	C100.557549,0.916551 101.113739,1.332280 101.074234,3.723158 
	C100.901665,14.167224 101.000000,24.615767 101.000000,35.531342 
	C98.023720,38.278271 94.616096,36.713104 91.468361,36.823112 
	C87.413490,36.964817 83.327423,36.661720 79.290695,37.294521 
	C77.217537,37.619503 75.778740,36.989799 74.719109,34.816887 
	C74.386459,31.849371 74.556190,29.219730 74.491226,26.270855 
	C74.448685,25.539913 74.377953,25.138546 74.101654,24.500664 
	C73.700890,23.945770 73.463684,23.629860 73.056534,23.056898 
	C72.387085,21.593685 71.649101,20.638044 69.991898,20.185419 
	C68.534195,19.347464 67.376816,18.704035 65.882217,20.105545 
	C62.610676,25.616610 62.477169,25.657503 58.313339,22.244669 
	C57.360508,20.363199 57.381680,18.264286 54.911713,17.498970 
	C53.391865,16.996321 52.320496,16.078701 50.577576,16.470818 
	C49.256634,16.558718 48.376869,16.315678 47.357002,15.423063 
z"/>
<path fill="#7CD8AD" opacity="1.000000" stroke="none" 
	d="
M1.000000,34.460636 
	C1.963739,34.146801 3.144371,33.988037 3.854524,34.492104 
	C7.353004,36.975323 10.919874,39.137100 15.740480,38.982525 
	C18.224369,40.852459 16.952606,43.931812 18.777740,46.269264 
	C19.232576,47.320999 19.286488,48.064045 19.106186,49.176544 
	C18.568356,50.994232 16.470272,51.711067 17.078114,54.034042 
	C16.927210,54.607697 16.835096,54.829876 16.524271,55.342674 
	C15.169984,56.543243 13.535450,56.600079 12.239140,57.977161 
	C11.167994,58.377251 10.414283,58.368370 9.283525,58.287605 
	C7.276564,57.676384 5.697078,56.996204 3.977746,55.810455 
	C1.657242,51.165173 5.620574,49.649097 7.931684,47.188305 
	C5.824854,45.423870 3.377545,48.246944 1.249627,46.232986 
	C1.000000,42.307091 1.000000,38.614182 1.000000,34.460636 
z"/>
<path fill="#7CDBAF" opacity="1.000000" stroke="none" 
	d="
M75.974808,35.153088 
	C78.565758,35.870152 80.714012,34.957485 82.917465,34.812412 
	C88.772865,34.426884 94.709946,33.610142 100.713684,35.930153 
	C101.000000,39.692909 101.000000,43.385818 101.000000,47.539364 
	C100.660683,48.326164 100.269485,48.564758 99.472137,48.712738 
	C97.826019,48.464645 96.790184,47.379269 95.030716,47.524788 
	C91.818733,47.329617 91.781487,50.650593 89.417419,51.627762 
	C88.021675,51.904808 87.115128,51.495026 85.933418,50.787125 
	C85.504921,50.341839 85.365746,50.137959 85.105049,49.590012 
	C84.725060,47.633636 85.640305,46.629795 86.582329,45.436687 
	C87.850792,43.830128 88.528809,41.904190 85.287659,40.998123 
	C84.497772,41.032146 84.045578,41.006809 83.261169,40.858810 
	C81.131111,40.164219 79.215248,40.624802 77.059311,40.021416 
	C76.276993,39.624741 75.898087,39.296631 75.377502,38.569706 
	C74.998154,37.741985 74.928238,37.231670 75.071945,36.329636 
	C75.322662,35.737965 75.469437,35.522900 75.974808,35.153088 
z"/>
<path fill="#9584D5" opacity="1.000000" stroke="none" 
	d="
M101.000000,73.555832 
	C98.008736,73.235657 95.140289,70.698959 91.928978,73.620178 
	C90.263710,75.135010 88.379517,71.552353 86.393906,73.836166 
	C85.078094,73.546509 84.759758,72.580971 84.643204,71.119873 
	C84.998375,68.662201 86.056633,66.770790 87.828102,65.892891 
	C91.785072,63.931923 92.407440,61.047913 91.079216,57.236103 
	C90.864128,56.618851 91.112175,55.919506 91.573914,55.000496 
	C92.196449,54.435600 92.649239,54.276436 93.505447,54.241123 
	C95.644630,54.849468 96.603050,56.255157 97.591492,58.095161 
	C98.194923,59.618538 97.790283,61.092117 99.039581,62.386166 
	C99.493073,63.698895 99.592957,64.818375 100.770218,65.770943 
	C101.000000,68.370560 101.000000,70.741112 101.000000,73.555832 
z"/>
<path fill="#89B4C2" opacity="1.000000" stroke="none" 
	d="
M3.674634,54.737110 
	C5.631677,55.272697 7.575755,54.299179 8.872492,56.548790 
	C12.078005,59.131729 10.970966,61.300907 8.594803,63.735558 
	C7.884035,64.330200 7.405517,64.542351 6.488136,64.638901 
	C4.451410,65.068871 3.627388,67.023216 1.363093,66.995651 
	C1.000000,63.307091 1.000000,59.614182 1.000000,55.460636 
	C1.682334,54.399414 2.456593,54.238602 3.674634,54.737110 
z"/>
<path fill="#81CCB7" opacity="1.000000" stroke="none" 
	d="
M4.086779,54.618530 
	C3.270141,54.972298 2.513173,54.984974 1.378102,54.998825 
	C1.000000,52.299988 1.000000,49.599972 1.000000,46.449982 
	C3.402717,45.481567 5.809536,44.981171 8.206188,44.436077 
	C9.205577,44.208775 10.279560,44.005650 10.913560,44.937115 
	C11.734479,46.143196 10.861507,47.090469 10.053618,47.938927 
	C8.061844,50.030712 4.933561,51.062222 4.086779,54.618530 
z"/>
<path fill="#80D3B2" opacity="1.000000" stroke="none" 
	d="
M98.761917,47.771999 
	C99.438866,47.999607 99.884911,48.000725 100.665474,48.000923 
	C101.000000,49.388889 101.000000,50.777779 101.000000,52.583336 
	C100.847763,53.147732 100.695534,53.295460 100.289055,53.636555 
	C99.639618,53.991333 99.231308,54.103687 98.493896,54.186020 
	C96.938766,54.176064 95.689148,54.450417 94.138367,54.070908 
	C92.237404,53.997135 90.792488,53.494892 89.171478,52.504715 
	C88.848610,52.057854 88.777321,51.841705 88.845413,51.313892 
	C90.617317,49.173508 89.272018,44.179161 94.669815,45.998390 
	C95.998238,46.963116 97.492027,46.732662 98.761917,47.771999 
z"/>
<path fill="#88BABD" opacity="1.000000" stroke="none" 
	d="
M99.708763,53.300735 
	C100.109238,53.102882 100.287498,53.083267 100.732880,53.031822 
	C101.000000,54.714359 101.000000,56.428715 101.000000,58.571537 
	C100.485054,59.397408 99.928802,59.709328 98.957497,59.855534 
	C98.202148,59.832661 97.796349,59.704483 97.194588,59.255096 
	C95.706177,58.238159 94.609619,57.296894 94.020294,55.542007 
	C93.606476,54.787312 93.462692,54.278500 93.759277,53.354664 
	C95.372864,53.614506 96.442177,51.573441 97.943909,52.749008 
	C98.384918,53.485573 98.875366,53.661457 99.708763,53.300735 
z"/>
<path fill="#90C2C8" opacity="1.000000" stroke="none" 
	d="
M96.814049,59.264496 
	C97.418945,59.022179 97.870621,59.015221 98.660912,59.010406 
	C99.794800,59.260258 100.259239,59.857864 100.815086,60.777184 
	C101.000000,61.000000 101.000000,61.500000 101.000000,61.750000 
	C100.307869,62.676453 99.660599,63.430283 98.223251,63.287342 
	C96.865128,62.145172 94.217239,61.670498 96.814049,59.264496 
z"/>
<path fill="#8DAAC3" opacity="1.000000" stroke="none" 
	d="
M97.951134,63.496384 
	C98.699944,62.804302 99.518723,62.445183 100.668747,62.043030 
	C101.000000,63.066669 101.000000,64.133339 101.000000,65.600006 
	C99.527733,65.934227 98.272804,65.570175 97.951134,63.496384 
z"/>
<path fill="#8DAAC3" opacity="1.000000" stroke="none" 
	d="
M101.000000,60.666668 
	C100.426674,60.504757 99.853355,60.009514 99.139778,59.263412 
	C99.474632,58.479778 100.021912,58.568508 100.794510,58.913982 
	C101.000000,59.444447 101.000000,59.888889 101.000000,60.666668 
z"/>
<path fill="#8BA2C4" opacity="1.000000" stroke="none" 
	d="
M6.115534,64.953476 
	C6.314831,64.232529 6.536232,63.842190 6.870465,63.250080 
	C9.008792,62.063805 11.362616,61.593521 12.841551,59.158470 
	C13.567693,57.847836 13.888858,56.672020 15.339500,55.901020 
	C16.085745,55.520496 16.516214,55.306164 17.303207,55.012249 
	C18.155205,54.951847 18.634838,55.035904 19.445351,55.326813 
	C20.255348,55.616596 20.686811,55.842793 21.334236,56.403057 
	C21.843695,57.074497 22.044445,57.507290 22.232147,58.313866 
	C22.337553,59.732841 21.716816,60.842838 22.590778,62.189579 
	C22.782930,62.714916 22.834867,62.935223 22.897480,63.497467 
	C22.838737,64.538528 22.517355,65.150009 22.042337,66.061646 
	C21.684620,66.508324 21.519398,66.668373 21.061380,67.009468 
	C20.119953,67.435730 19.458124,67.552765 18.463402,67.251862 
	C13.950619,67.824989 9.793632,68.206177 6.115534,64.953476 
z"/>
<path fill="#26253A" opacity="1.000000" stroke="none" 
	d="
M75.715508,74.384644 
	C72.953583,77.086212 70.532906,72.316513 67.489784,74.522690 
	C67.802193,75.670891 68.178642,77.054497 68.799957,78.712463 
	C68.851906,79.135643 68.658989,79.284447 68.105400,79.499069 
	C66.720444,79.509026 65.884148,79.039146 64.893875,78.115913 
	C63.459969,74.621033 60.988693,74.109390 57.632957,74.809532 
	C54.503784,74.750320 51.601700,76.238319 48.758644,73.909088 
	C48.493813,73.319275 48.445717,73.060844 48.470009,72.415558 
	C50.251144,69.343987 53.750904,70.082344 56.237694,68.072769 
	C57.089386,67.849068 57.583691,67.798462 58.441505,67.860649 
	C61.650349,70.447868 64.273544,67.826752 67.342918,67.567947 
	C67.912598,67.628494 68.139511,67.664268 68.693680,67.811081 
	C69.880196,68.291420 70.392776,69.101585 71.426689,69.792831 
	C71.863449,70.142296 72.025620,70.296898 72.395111,70.713684 
	C73.483650,71.981918 74.551033,72.797867 75.715508,74.384644 
z"/>
<path fill="#71409A" opacity="1.000000" stroke="none" 
	d="
M47.903145,85.121399 
	C42.546692,88.574730 36.755821,86.469963 31.156292,86.735748 
	C29.605925,86.809334 28.016121,86.052078 26.297522,85.640877 
	C27.406010,84.499565 28.619686,85.062469 30.051674,84.845711 
	C31.767586,83.647301 33.726963,83.977737 35.487610,82.828232 
	C37.096142,82.439835 38.292522,82.682312 39.825737,83.198395 
	C41.445549,83.573586 42.625351,83.159912 44.200859,82.868599 
	C45.800705,83.277962 47.078632,83.577354 47.903145,85.121399 
z"/>
<path fill="#E5A766" opacity="1.000000" stroke="none" 
	d="
M48.383610,85.448532 
	C46.923237,85.159615 45.911251,84.810242 44.598022,84.349564 
	C42.651871,83.344444 42.562973,81.871513 42.986202,79.852165 
	C43.485065,78.928024 43.936642,78.577431 44.936577,78.363861 
	C45.903061,78.428078 46.388561,78.648750 47.050713,79.300110 
	C51.030930,83.448837 51.926731,83.527168 56.059662,80.042862 
	C56.532028,79.309349 56.822323,78.893295 57.459541,78.245361 
	C58.275307,77.719398 58.810913,77.596550 59.781723,77.777542 
	C61.965191,79.994576 61.715935,82.286774 60.679951,84.982445 
	C59.578785,85.896477 58.684814,85.918518 57.325111,85.623917 
	C54.203506,85.455406 51.517750,85.421738 48.383610,85.448532 
z"/>
<path fill="#6F3E99" opacity="1.000000" stroke="none" 
	d="
M57.079330,85.818230 
	C57.601093,85.263046 58.312931,85.037025 59.392273,84.755112 
	C61.226665,83.363373 63.220501,83.520470 65.314209,82.753075 
	C67.095947,82.310600 68.330910,82.834732 69.933868,83.505997 
	C71.274529,84.012794 72.370071,83.931389 73.608215,84.689964 
	C74.865608,84.991264 75.893547,84.568512 77.186470,85.800255 
	C70.303528,87.329674 63.822140,87.642799 57.079330,85.818230 
z"/>
<path fill="#22303C" opacity="1.000000" stroke="none" 
	d="
M34.237556,79.408951 
	C35.304291,77.525909 36.411530,76.010780 37.871044,74.013596 
	C36.181229,74.013596 34.943787,74.013596 33.321991,73.997566 
	C32.851860,73.757889 32.766090,73.534248 32.781441,72.964447 
	C33.473366,71.771706 34.421406,71.496841 35.643288,70.986053 
	C36.465755,70.745636 36.950981,70.694824 37.806519,70.753799 
	C39.076565,71.161476 39.951191,71.579514 41.002056,72.390503 
	C42.068951,74.537712 40.223400,75.720352 39.951683,77.683350 
	C39.230904,79.683632 38.324970,81.125435 36.442585,82.223572 
	C34.385101,82.272461 34.129192,81.167145 34.237556,79.408951 
z"/>
<path fill="#BE8A61" opacity="1.000000" stroke="none" 
	d="
M26.807232,73.790443 
	C25.797972,73.595924 25.157511,73.303085 24.252321,72.945808 
	C19.404066,72.204346 20.857321,69.401138 21.984329,66.389481 
	C22.399511,65.533356 22.763210,65.147377 23.996216,64.718475 
	C25.000231,64.690826 25.236044,64.801712 25.735935,65.196030 
	C26.539780,67.172249 27.486534,68.675850 28.287125,70.652832 
	C28.342604,71.286835 28.339746,71.542526 28.246590,72.171219 
	C27.932989,73.015198 27.606453,73.398018 26.807232,73.790443 
z"/>
<path fill="#201A37" opacity="1.000000" stroke="none" 
	d="
M18.145689,67.556442 
	C18.597536,66.994583 19.036421,66.881920 19.703262,66.764801 
	C22.379972,68.551071 19.968794,71.761742 22.136890,73.980247 
	C22.196117,75.898682 21.710920,77.230629 19.703024,76.930527 
	C17.857281,76.654655 18.141453,75.141724 18.125481,73.875221 
	C18.100811,71.919037 18.127705,69.962204 18.145689,67.556442 
z"/>
<path fill="#69B733" opacity="1.000000" stroke="none" 
	d="
M22.523392,74.170639 
	C17.604837,73.370453 21.232809,69.624809 19.975634,67.144699 
	C20.091677,66.585236 20.252134,66.410103 20.723022,66.060120 
	C21.194250,65.764847 21.355043,65.644424 21.814610,65.484695 
	C22.303207,65.511185 22.493031,65.576981 22.855347,65.889877 
	C23.602222,68.176300 20.132519,70.552124 23.766422,72.618324 
	C23.987593,72.881378 23.563862,73.141342 23.455574,73.264038 
	C23.169825,73.640205 22.963459,73.867393 22.523392,74.170639 
z"/>
<path fill="#21483A" opacity="1.000000" stroke="none" 
	d="
M83.296829,76.588707 
	C81.171890,74.890427 79.499168,72.752144 76.329727,75.059296 
	C75.970345,74.994385 76.006783,74.992729 76.001617,75.011078 
	C75.640129,74.622772 75.336105,74.180153 74.992630,73.305176 
	C74.897171,72.353416 75.015274,71.825745 75.504166,70.996689 
	C77.219055,69.465744 78.803383,69.679192 80.791824,70.425964 
	C82.296524,71.275002 83.152443,72.296921 84.370880,73.468781 
	C84.896896,74.906914 84.729202,75.845955 83.296829,76.588707 
z"/>
<path fill="#1A1F2F" opacity="1.000000" stroke="none" 
	d="
M83.300446,76.821899 
	C83.239670,75.962105 83.551201,75.226753 83.898514,74.191910 
	C82.336525,72.048973 82.293533,69.984901 83.358719,67.443176 
	C85.681602,66.044441 86.488594,66.865494 86.347908,69.385307 
	C86.172417,70.948730 86.114342,72.070312 86.124100,73.609238 
	C86.038528,75.591980 86.017311,77.271454 83.300446,76.821899 
z"/>
<path fill="#0F162A" opacity="1.000000" stroke="none" 
	d="
M33.966270,79.307648 
	C34.664814,79.871803 35.132576,80.702560 35.807617,81.733841 
	C36.379562,82.324036 36.559082,82.785721 36.403793,83.672211 
	C34.752480,85.447174 32.905582,84.778816 30.802662,84.851486 
	C31.526781,83.085014 32.631134,81.329636 33.966270,79.307648 
z"/>
<path fill="#14152E" opacity="1.000000" stroke="none" 
	d="
M73.879196,84.570175 
	C72.712074,84.894806 71.506538,84.866257 69.852844,84.777496 
	C68.742340,83.014427 66.517311,81.891281 67.744621,79.312866 
	C68.166931,79.045273 68.343033,79.043549 68.781982,79.014328 
	C71.675995,79.783424 70.916092,83.689568 73.879196,84.570175 
z"/>
<path fill="#216B49" opacity="1.000000" stroke="none" 
	d="
M33.275414,72.708160 
	C33.080734,73.145538 33.049553,73.312210 32.978001,73.730209 
	C32.329960,75.490143 31.474285,74.902802 30.155518,73.961800 
	C29.679873,73.458817 29.660379,73.250778 29.762802,72.751328 
	C30.291300,71.943024 30.820179,71.608101 31.760359,71.377930 
	C32.285549,71.387695 32.493198,71.432190 32.959213,71.660828 
	C33.291351,72.042465 33.365128,72.239960 33.275414,72.708160 
z"/>
<path fill="#348D40" opacity="1.000000" stroke="none" 
	d="
M26.755615,74.013657 
	C26.544725,73.394814 26.651014,72.900856 26.866158,72.042740 
	C27.766588,71.557602 28.230282,71.964760 28.550499,72.978394 
	C28.495710,73.525681 28.416857,73.736343 28.040380,74.105957 
	C27.519436,74.222786 27.296116,74.180672 26.755615,74.013657 
z"/>
<path fill="#348D40" opacity="1.000000" stroke="none" 
	d="
M30.116631,74.013687 
	C29.740261,75.046883 29.060200,75.339149 27.915384,74.543404 
	C27.869223,74.133568 27.995686,74.002235 28.310940,73.673035 
	C28.847393,73.380157 29.189358,73.392723 29.726013,73.700317 
	C29.927275,73.871193 30.060194,73.957901 30.116631,74.013687 
z"/>
<path fill="#201A37" opacity="1.000000" stroke="none" 
	d="
M23.362347,73.439102 
	C23.347284,73.386742 23.242376,73.431213 23.216860,73.450867 
	C23.191343,73.470520 23.377407,73.491470 23.362347,73.439102 
z"/>
<path fill="#151025" opacity="1.000000" stroke="none" 
	d="
M21.463949,59.206924 
	C21.150314,58.452003 21.070696,58.049709 20.954613,57.342003 
	C21.007715,55.651749 22.931639,55.670979 23.027092,53.976280 
	C22.647961,51.126232 19.952164,52.413258 18.394855,50.586060 
	C18.047857,49.287148 18.122728,48.520435 18.195278,47.366302 
	C18.463434,46.582237 18.801613,46.258007 19.540831,45.880112 
	C22.746052,45.334530 21.832060,43.971310 20.506552,42.228859 
	C20.293829,41.680656 20.241701,41.448471 20.215214,40.859280 
	C20.335745,40.283310 20.430635,40.064346 20.786028,39.599876 
	C22.628429,38.486221 24.182087,41.008869 24.213076,40.560764 
	C24.421465,37.547348 28.190075,36.742653 28.124872,33.711346 
	C28.061653,30.772203 28.134047,27.830143 28.233578,24.435841 
	C28.388544,23.814899 28.456816,23.647482 28.761383,23.346966 
	C29.198717,23.116144 29.399754,23.018423 29.845524,22.691517 
	C30.555389,22.724276 30.925653,23.083712 31.347168,23.901066 
	C31.775141,26.959454 30.936081,29.822498 32.850979,32.645004 
	C33.111538,33.222775 33.192921,33.464500 33.319164,34.086674 
	C33.360180,34.722565 33.356335,34.978016 33.295246,35.611679 
	C33.151783,36.228222 33.065556,36.466557 32.654762,37.385132 
	C32.199261,38.278168 32.068333,38.490967 31.705509,38.991882 
	C31.298874,39.447639 31.124134,39.615284 30.656391,39.985565 
	C26.980463,41.966637 27.024214,44.565426 28.817039,47.810429 
	C29.301243,48.481094 29.539547,48.893524 29.847046,49.678669 
	C30.018896,50.798054 29.811962,51.507996 29.370163,52.534401 
	C27.498266,54.271748 28.143557,56.528900 27.063602,58.570282 
	C26.523384,59.323494 26.115698,59.663963 25.261959,60.083984 
	C23.727156,60.430855 22.642450,60.325127 21.463949,59.206924 
z"/>
<path fill="#DDBE97" opacity="1.000000" stroke="none" 
	d="
M30.413925,24.926031 
	C30.472069,24.085537 30.502295,23.583521 30.311390,22.771919 
	C30.090258,22.462332 30.026392,22.494331 30.021170,22.529663 
	C30.603144,20.872999 32.017666,20.118141 33.782906,19.236486 
	C34.041451,19.005285 33.962482,18.984116 33.950802,19.023293 
	C35.267628,17.922894 36.754402,17.872082 38.736153,18.654715 
	C39.389812,19.057524 39.587685,19.274231 39.816673,19.741867 
	C39.334648,20.764942 39.510117,21.666336 39.751556,22.857094 
	C39.947094,23.359173 39.986572,23.561501 40.126087,24.056416 
	C41.318108,25.141054 42.055237,26.115377 41.775345,27.932514 
	C41.326611,29.012518 40.774200,29.529083 39.785187,30.105005 
	C38.734478,30.423510 38.011280,30.456936 36.938503,30.464283 
	C35.455566,30.435644 34.332832,30.261822 32.871269,30.073151 
	C32.334877,29.880096 32.130806,29.774685 31.677477,29.431843 
	C30.840580,27.948153 30.580072,26.615141 30.413925,24.926031 
z"/>
<path fill="#0D322E" opacity="1.000000" stroke="none" 
	d="
M40.739517,28.429003 
	C40.485558,26.992865 40.257442,25.978865 40.127728,24.656933 
	C43.421581,25.603043 43.545673,23.058811 44.549709,21.066996 
	C45.103577,20.846443 45.290787,20.708241 45.824242,20.625023 
	C47.852543,21.464956 47.690296,23.509218 49.108032,24.909271 
	C51.696003,29.581184 51.495522,30.000643 46.246819,30.917746 
	C43.827515,31.064650 41.931049,30.826227 40.739517,28.429003 
z"/>
<path fill="#EBF9E4" opacity="1.000000" stroke="none" 
	d="
M21.965714,31.499453 
	C20.730669,29.969355 17.721743,29.612904 18.722677,27.131762 
	C19.208429,25.927675 20.398737,24.454107 21.932993,24.402967 
	C23.520290,24.350054 24.382626,25.963444 25.197546,27.086962 
	C26.341940,28.664719 24.482103,29.257700 23.722618,30.161890 
	C23.307926,30.655594 22.775143,31.050112 21.965714,31.499453 
z"/>
<path fill="#101923" opacity="1.000000" stroke="none" 
	d="
M45.957275,21.184486 
	C45.626595,20.959799 45.269970,20.921827 45.093170,20.953236 
	C45.642101,19.289770 46.367832,17.594896 47.087944,15.546690 
	C48.172237,15.209923 49.262161,15.226489 50.667679,15.504414 
	C51.950710,16.571932 52.022888,17.600100 51.519974,19.079422 
	C49.822350,20.546886 48.382816,21.814535 45.957275,21.184486 
z"/>
<path fill="#2D2A33" opacity="1.000000" stroke="none" 
	d="
M20.786539,39.246078 
	C21.046530,39.354374 21.090048,39.688454 21.035713,39.847900 
	C20.689852,40.294220 20.413376,40.594936 20.024757,41.190525 
	C19.789865,43.159634 21.016205,44.731895 20.120483,46.714851 
	C19.528162,46.988117 19.146084,47.016277 18.478481,47.011665 
	C13.474605,45.919289 16.585808,42.275269 15.953619,39.470757 
	C17.546772,38.896839 19.051037,38.342705 20.786539,39.246078 
z"/>
<path fill="#4D425E" opacity="1.000000" stroke="none" 
	d="
M33.623863,18.940807 
	C34.447800,21.547493 31.803436,21.374832 30.404316,22.610470 
	C29.880783,20.298761 30.376286,18.577991 33.623863,18.940807 
z"/>
<path fill="#080915" opacity="1.000000" stroke="none" 
	d="
M39.113258,18.478821 
	C37.696491,18.967491 36.249527,19.049896 34.370842,19.097383 
	C34.950348,15.077265 37.020042,16.592239 39.113258,18.478821 
z"/>
<path fill="#2F1F2F" opacity="1.000000" stroke="none" 
	d="
M39.985252,22.758984 
	C38.592030,22.417194 38.872368,21.336348 39.588856,20.088253 
	C39.951813,20.752726 40.007355,21.556925 39.985252,22.758984 
z"/>
<path fill="#1E222E" opacity="1.000000" stroke="none" 
	d="
M28.773167,23.211529 
	C28.919634,23.439806 28.792637,23.633675 28.468479,23.888895 
	C28.143618,23.649927 28.219746,23.392218 28.773167,23.211529 
z"/>
<path fill="#253F42" opacity="1.000000" stroke="none" 
	d="
M58.933060,20.721127 
	C61.653229,20.894190 59.939995,24.084669 62.047306,24.262091 
	C64.147758,23.110874 61.549248,19.946983 64.990295,19.192955 
	C68.341331,22.040682 68.157944,25.070145 66.545853,28.552971 
	C63.158031,30.875860 59.752689,31.748766 55.696217,31.126999 
	C54.107208,29.319548 54.623363,27.481916 54.504166,25.295883 
	C54.527615,23.617125 54.427185,22.369993 55.478149,20.934408 
	C56.693302,20.118580 57.599079,20.092695 58.933060,20.721127 
z"/>
<path fill="#EAF9E4" opacity="1.000000" stroke="none" 
	d="
M85.634918,26.301773 
	C88.151657,29.386099 84.838699,30.155260 83.729813,30.972729 
	C81.938454,32.293308 80.981316,29.842577 79.939751,28.837818 
	C78.403244,27.355598 80.422562,26.624836 81.094955,25.673578 
	C82.715714,23.380644 84.096481,24.509441 85.634918,26.301773 
z"/>
<path fill="#28AD44" opacity="1.000000" stroke="none" 
	d="
M56.308819,20.581158 
	C56.098236,21.984051 56.042492,23.014368 55.955658,24.430500 
	C55.456463,25.505123 54.786179,25.802681 53.598091,25.750387 
	C50.884396,24.583284 51.942001,22.066156 50.862411,19.663589 
	C50.784859,18.089533 50.848957,17.237806 50.948166,16.075928 
	C51.828636,13.040554 53.217915,13.792946 54.869732,15.503960 
	C55.985992,17.130354 57.058228,18.397400 56.308819,20.581158 
z"/>
<path fill="#18172B" opacity="1.000000" stroke="none" 
	d="
M76.259811,34.544334 
	C76.269150,35.198456 76.204903,35.398575 76.065140,35.904778 
	C75.554321,36.519852 75.069679,36.685780 74.149040,36.633991 
	C73.016426,36.190960 72.489014,35.612816 72.000092,34.498077 
	C71.867943,33.850971 71.855087,33.585896 71.913116,32.931816 
	C72.850563,29.771980 72.096405,26.823503 73.478500,23.523712 
	C74.467033,22.994541 74.892204,22.989080 75.635750,23.003458 
	C76.079887,23.154186 76.205650,23.285076 76.327148,23.688206 
	C76.277336,27.337072 76.231773,30.713705 76.259811,34.544334 
z"/>
<path fill="#0B121D" opacity="1.000000" stroke="none" 
	d="
M56.553040,20.951710 
	C55.117294,19.677336 54.897671,18.169292 54.975128,16.208920 
	C57.572243,16.256411 58.720413,17.887568 59.132584,20.643433 
	C58.547195,20.950558 57.749645,20.950121 56.553040,20.951710 
z"/>
<path fill="#313939" opacity="1.000000" stroke="none" 
	d="
M70.004486,18.977295 
	C72.705360,18.712482 74.528786,19.202044 74.052521,22.606148 
	C74.041870,23.000002 74.027321,22.983810 74.037033,22.986040 
	C73.694473,23.334064 73.275940,23.562649 72.434158,23.682331 
	C70.533714,23.153975 69.613579,22.101851 69.337837,20.146610 
	C69.466347,19.565079 69.570534,19.346813 70.004486,18.977295 
z"/>
<path fill="#090B1A" opacity="1.000000" stroke="none" 
	d="
M64.997292,19.014446 
	C66.115501,15.058495 68.277817,16.709877 70.352211,18.411701 
	C70.334236,18.826038 70.050529,18.862217 69.997665,18.995087 
	C68.622337,20.270174 67.217308,20.513954 65.337234,19.226002 
	C64.976120,18.933758 64.961800,19.005531 64.997292,19.014446 
z"/>
<path fill="#7CDBAF" opacity="1.000000" stroke="none" 
	d="
M76.383270,23.822632 
	C76.251930,23.807945 76.180969,23.655449 76.032074,23.263123 
	C76.281166,23.134024 76.444336,23.354532 76.383270,23.822632 
z"/>
<path fill="#9087CE" opacity="1.000000" stroke="none" 
	d="
M14.804552,59.831543 
	C13.406553,63.086185 10.618175,63.108746 7.387665,63.043419 
	C8.326817,61.442276 10.463115,60.157425 9.107094,57.198044 
	C9.738795,56.893093 10.491755,56.896935 11.620924,56.908203 
	C13.746156,56.926254 14.030387,58.390903 14.804552,59.831543 
z"/>
<path fill="#7E4964" opacity="1.000000" stroke="none" 
	d="
M24.277740,53.426407 
	C25.415207,56.417301 23.708780,56.767517 21.299160,56.930382 
	C20.474146,57.003014 20.030146,56.969433 19.254822,56.894421 
	C18.747604,56.707336 18.571709,56.561676 18.139034,56.189266 
	C17.508913,55.925213 17.135571,55.887909 16.480143,55.880337 
	C16.024200,55.824020 15.850348,55.737980 15.714872,55.363518 
	C15.753248,55.075092 16.005648,54.698505 16.147699,54.521862 
	C16.809834,53.547756 17.484303,52.946522 18.761261,52.579193 
	C20.846222,51.978245 22.511389,52.022560 24.277740,53.426407 
z"/>
<path fill="#86BFBC" opacity="1.000000" stroke="none" 
	d="
M15.411957,55.054413 
	C15.753248,55.075092 16.024769,55.465073 16.111412,55.687569 
	C15.810092,57.060822 15.422131,58.211582 15.013016,59.735138 
	C14.076632,59.240864 13.161403,58.373783 12.121653,57.211166 
	C12.362957,55.212566 13.645782,55.007141 15.411957,55.054413 
z"/>
<path fill="#161D2F" opacity="1.000000" stroke="none" 
	d="
M18.681618,53.281853 
	C18.084330,54.241959 17.779758,55.036045 16.545151,54.420349 
	C15.893865,52.731239 14.422163,50.860271 17.646408,50.043453 
	C17.972988,50.053860 17.919806,50.008339 17.937550,49.978165 
	C18.760674,50.784599 19.182411,51.739990 18.681618,53.281853 
z"/>
<path fill="#81CCB7" opacity="1.000000" stroke="none" 
	d="
M11.551136,42.160919 
	C11.467106,42.204269 11.437890,41.842896 11.437890,41.842896 
	C11.437890,41.842896 11.635165,42.117565 11.551136,42.160919 
z"/>
<path fill="#DCBE95" opacity="1.000000" stroke="none" 
	d="
M82.713791,39.233582 
	C83.471062,39.031101 83.941422,39.029037 84.760826,39.080498 
	C88.543106,42.515350 88.489449,43.643932 84.370239,48.282722 
	C83.022896,49.059452 81.996849,49.022511 80.630035,48.373085 
	C80.087570,48.090061 79.889503,47.952347 79.458557,47.550091 
	C78.462997,46.121067 78.624733,44.789093 78.494720,43.205650 
	C78.251404,42.329872 77.917610,41.812336 77.630043,40.925835 
	C77.627434,40.389713 77.683632,40.174515 78.017593,39.767433 
	C79.665520,39.323643 81.045067,39.345886 82.713791,39.233582 
z"/>
<path fill="#292E39" opacity="1.000000" stroke="none" 
	d="
M82.800087,48.278671 
	C84.969635,45.609692 87.028999,43.254700 85.244553,39.472099 
	C86.460648,39.160076 88.429497,38.314438 88.606773,40.477390 
	C88.779015,42.578922 89.838905,45.053959 87.632256,46.773354 
	C87.018944,47.251232 86.159950,47.372784 85.999283,48.731941 
	C85.716805,49.250164 85.537773,49.392872 85.042870,49.671383 
	C84.265129,49.864330 83.816528,49.806873 83.109352,49.438053 
	C82.766975,49.007584 82.694550,48.790169 82.800087,48.278671 
z"/>
<path fill="#D1AB7F" opacity="1.000000" stroke="none" 
	d="
M84.841751,49.258255 
	C85.255829,49.071548 85.575867,49.101406 85.735855,49.104431 
	C85.895844,49.107460 86.006371,49.578529 86.055000,49.815521 
	C87.039001,51.102749 87.229660,52.288723 86.478699,53.990646 
	C83.781204,55.712521 81.953926,55.342857 80.980484,52.074341 
	C81.314201,49.590431 82.808784,49.418495 84.841751,49.258255 
z"/>
<path fill="#192128" opacity="1.000000" stroke="none" 
	d="
M85.510345,54.118927 
	C85.774445,52.762146 85.901009,51.779106 86.065598,50.424286 
	C86.927727,50.200649 87.751823,50.348789 88.780350,50.749580 
	C88.957397,51.171062 88.930008,51.339893 88.970467,51.756142 
	C89.386246,52.422104 89.602509,52.900375 89.645081,53.837627 
	C89.016205,55.614067 88.000313,56.354763 86.118576,56.180462 
	C85.457611,55.546410 85.329475,55.041225 85.510345,54.118927 
z"/>
<path fill="#83B6BD" opacity="1.000000" stroke="none" 
	d="
M98.935135,47.703911 
	C97.620506,47.480263 95.497063,49.154987 94.925034,46.293747 
	C96.748894,45.250919 98.082756,45.584366 98.935135,47.703911 
z"/>
<path fill="#7DE4AC" opacity="1.000000" stroke="none" 
	d="
M82.678345,38.978554 
	C81.979240,40.409973 80.502441,40.322781 78.673897,40.198261 
	C78.117821,40.276089 77.923119,40.422161 77.394470,40.422379 
	C76.958298,40.056469 76.856064,39.836422 76.945724,39.307121 
	C78.877083,38.973225 80.616539,38.948586 82.678345,38.978554 
z"/>
<path fill="#59A32E" opacity="1.000000" stroke="none" 
	d="
M73.753418,36.184998 
	C74.471741,36.010845 74.901489,36.101223 75.660423,36.201233 
	C76.043938,36.579037 76.098259,36.947205 76.154457,37.597195 
	C76.260506,38.117420 76.364677,38.355816 76.278076,38.934868 
	C75.626060,39.551449 75.127975,39.662388 74.229996,39.462219 
	C73.484413,38.938171 73.242844,38.485767 73.156815,37.566879 
	C73.269371,36.933537 73.367104,36.691532 73.753418,36.184998 
z"/>
<path fill="#2A914B" opacity="1.000000" stroke="none" 
	d="
M75.659698,39.587624 
	C75.862862,39.027229 75.925102,38.798836 76.071846,38.224731 
	C76.414658,38.093578 76.672974,38.308140 77.034454,38.760284 
	C77.137619,38.997868 77.025284,39.463490 77.039047,39.702583 
	C77.318970,40.415131 77.217995,40.810802 76.439377,41.163414 
	C75.720009,40.841381 75.541611,40.414906 75.659698,39.587624 
z"/>
<path fill="#89AEBE" opacity="1.000000" stroke="none" 
	d="
M85.577873,55.675861 
	C87.101967,56.059036 87.311394,54.873779 88.199066,54.136627 
	C89.563950,53.207859 90.648994,53.204342 91.838562,54.640770 
	C92.654793,56.710247 93.843361,58.402729 93.766167,60.035366 
	C93.643753,62.624290 95.703484,66.923698 89.884346,66.518791 
	C88.886574,66.449356 87.749641,68.379944 86.453735,69.606880 
	C85.889000,68.751793 86.630974,67.141487 84.076462,66.702637 
	C82.755234,65.874001 82.521202,65.012024 82.480904,63.764076 
	C82.515335,63.232727 82.526192,63.022751 82.547440,62.504021 
	C82.566132,61.587593 82.565414,60.980339 82.410698,60.063145 
	C82.115082,58.338795 82.304939,57.034012 83.590462,55.728195 
	C84.342308,55.383694 84.807449,55.376663 85.577873,55.675861 
z"/>
<path fill="#81DDB2" opacity="1.000000" stroke="none" 
	d="
M92.360077,55.043686 
	C91.079903,54.707996 90.125801,54.371391 88.792732,53.994179 
	C88.541183,53.516392 88.668602,53.079208 88.917160,52.322796 
	C90.671120,51.415340 92.057892,52.048859 93.689232,52.943092 
	C93.970291,53.496632 93.966415,53.989899 93.969162,54.857780 
	C93.545891,55.169182 93.116020,55.105972 92.360077,55.043686 
z"/>
<path fill="#7CD8AD" opacity="1.000000" stroke="none" 
	d="
M7.124776,47.583378 
	C7.066021,47.648434 6.861466,47.418221 6.861466,47.418221 
	C6.861466,47.418221 7.183531,47.518322 7.124776,47.583378 
z"/>
<path fill="#8DAAC3" opacity="1.000000" stroke="none" 
	d="
M99.611214,53.087883 
	C99.568909,54.422493 99.071243,55.062775 98.062614,53.237404 
	C98.434166,53.004444 98.862808,53.028854 99.611214,53.087883 
z"/>
<path fill="#05091E" opacity="1.000000" stroke="none" 
	d="
M25.172184,59.106087 
	C25.713463,58.638332 25.895058,58.309971 26.175457,57.717632 
	C27.099155,57.432762 27.792330,57.748219 28.638119,58.600437 
	C29.242897,59.645821 29.326363,60.425888 29.219353,61.618668 
	C28.575947,63.573460 27.617123,64.741165 25.530813,65.020432 
	C25.155291,64.915924 25.015867,64.909882 24.953318,64.878960 
	C24.264452,64.657211 23.644823,64.868622 22.713341,64.811813 
	C22.230791,64.625992 22.056757,64.507462 21.734543,64.110016 
	C21.586361,63.831089 21.636198,63.422771 21.641293,63.217159 
	C21.283318,60.563717 23.302542,60.118668 25.172184,59.106087 
z"/>
<path fill="#888CBF" opacity="1.000000" stroke="none" 
	d="
M25.104908,58.901848 
	C24.674475,60.414978 23.634293,61.681786 21.864511,62.726158 
	C19.759081,62.164448 19.822731,60.847073 20.993229,59.087124 
	C22.379272,58.848534 23.528610,58.842766 25.104908,58.901848 
z"/>
<path fill="#050610" opacity="1.000000" stroke="none" 
	d="
M21.362785,64.010437 
	C21.832636,63.869114 22.078913,63.907135 22.696501,63.988113 
	C23.408648,64.784576 22.993910,65.232040 22.130476,65.756668 
	C21.835585,65.896141 21.434780,65.901230 21.234118,65.893250 
	C21.068707,65.320114 21.103958,64.754944 21.362785,64.010437 
z"/>
<path fill="#415958" opacity="1.000000" stroke="none" 
	d="
M17.993954,56.184692 
	C18.208097,56.025032 18.474426,56.186001 18.802370,56.649208 
	C18.540611,56.906483 18.267996,56.757774 17.993954,56.184692 
z"/>
<path fill="#DC536B" opacity="1.000000" stroke="none" 
	d="
M57.235348,68.220093 
	C55.719738,71.758766 53.271778,72.647415 49.626377,71.847359 
	C48.699341,71.854378 48.191540,71.774353 47.425667,71.225327 
	C46.388210,69.262901 45.860779,67.507057 45.545258,65.283798 
	C45.517525,64.076065 45.529903,63.268040 45.654228,62.052502 
	C49.479698,57.077557 54.082375,56.955265 58.642281,61.682251 
	C59.209133,63.407948 58.520611,64.661789 58.406303,66.350113 
	C58.193439,67.226158 57.930584,67.655937 57.235348,68.220093 
z"/>
<path fill="#22848F" opacity="1.000000" stroke="none" 
	d="
M67.902969,68.728760 
	C64.727242,69.433495 62.125454,72.544357 58.825729,69.380844 
	C59.407108,67.061516 61.351536,66.424973 63.044300,65.023224 
	C67.473526,63.036842 70.567940,60.131336 72.779861,55.788162 
	C73.469925,54.568733 74.393738,54.064499 75.383331,53.074535 
	C76.476501,52.487225 77.261398,52.402813 78.387787,52.938683 
	C80.395256,55.871784 78.977242,58.415527 78.271637,61.366913 
	C76.806122,63.525345 74.635803,64.469620 73.129074,66.614868 
	C71.418655,67.717331 69.755127,67.973503 67.902969,68.728760 
z"/>
<path fill="#A77365" opacity="1.000000" stroke="none" 
	d="
M48.642319,72.309753 
	C51.705677,75.173355 54.696026,72.043991 57.908966,72.967262 
	C59.397041,74.318581 61.987274,75.197060 59.150417,77.545593 
	C53.939640,80.302116 49.245899,80.025948 44.344143,76.783112 
	C43.024590,74.891174 44.243855,73.884644 45.405693,72.516479 
	C46.569199,71.890915 47.402946,71.968590 48.642319,72.309753 
z"/>
<path fill="#21824B" opacity="1.000000" stroke="none" 
	d="
M58.892715,77.267548 
	C61.108654,75.479012 58.376007,74.813179 58.408924,73.311249 
	C61.411701,72.954849 64.498161,72.821877 65.942177,76.833160 
	C63.758102,79.289948 65.620750,81.318878 66.196350,83.719742 
	C64.559059,85.730278 62.517540,84.948639 60.177147,84.817337 
	C60.366776,82.616722 60.182224,80.547363 59.383606,78.201004 
	C58.957165,77.770691 58.803570,77.623047 58.892715,77.267548 
z"/>
<path fill="#6FC52E" opacity="1.000000" stroke="none" 
	d="
M66.502533,84.045380 
	C64.111458,83.125000 62.146717,82.094749 61.896606,79.379570 
	C61.624977,76.430794 62.901501,75.961586 65.681854,77.132187 
	C66.584129,77.665634 67.113266,78.146919 67.816620,78.837601 
	C67.359955,81.085579 70.514877,81.917572 69.495216,84.384247 
	C68.530266,84.485962 67.655830,84.254639 66.502533,84.045380 
z"/>
<path fill="#0C1425" opacity="1.000000" stroke="none" 
	d="
M49.061119,72.255920 
	C48.227947,72.566544 47.412628,72.692764 46.191948,72.903931 
	C44.531857,74.104218 43.152302,74.476913 41.265175,73.361923 
	C40.082600,72.862503 39.213711,72.697296 38.098175,72.302673 
	C37.359188,71.382629 36.494396,71.565826 35.670372,70.887726 
	C35.398540,70.029305 35.476887,69.530556 35.983345,68.766937 
	C39.799534,66.823112 42.683903,70.525330 46.494926,69.851944 
	C47.082809,70.143181 47.305046,70.284569 47.844994,70.660812 
	C48.515110,70.894447 48.816151,71.018211 49.151970,71.501968 
	C49.238110,71.736954 49.078972,72.071533 49.061119,72.255920 
z"/>
<path fill="#5F9C32" opacity="1.000000" stroke="none" 
	d="
M64.208832,65.741882 
	C62.642445,67.303604 61.171707,68.341003 59.065468,68.973022 
	C58.311394,68.905830 57.905479,68.788261 57.205921,68.546059 
	C56.864746,68.163376 56.858887,67.904373 56.922073,67.448616 
	C57.932842,64.936684 59.636997,63.569321 62.553558,63.268776 
	C63.188744,63.317478 63.437412,63.386517 63.987000,63.698334 
	C64.519493,64.421066 64.571419,64.919624 64.208832,65.741882 
z"/>
<path fill="#0F1B30" opacity="1.000000" stroke="none" 
	d="
M67.933006,68.926361 
	C68.305809,67.318764 70.016777,66.971169 71.497803,65.847672 
	C72.898140,65.756714 73.669327,66.291283 74.391907,67.493675 
	C74.534676,68.085564 74.539970,68.333229 74.409012,68.926544 
	C74.095558,69.444504 73.918343,69.616806 73.408401,69.950630 
	C72.592316,70.213852 72.108261,70.223198 71.266754,70.058334 
	C70.432999,69.909782 69.980316,69.755959 69.267769,69.305191 
	C68.747192,69.051788 68.514870,69.013992 67.933006,68.926361 
z"/>
<path fill="#9D3861" opacity="1.000000" stroke="none" 
	d="
M70.823227,69.536102 
	C71.495323,69.213158 71.922592,69.143593 72.674576,69.064789 
	C73.374443,69.298904 73.776253,69.486122 74.398727,69.898552 
	C74.651375,70.389595 74.705727,70.608337 74.724747,71.164124 
	C74.585983,71.702248 74.482544,71.903336 74.106522,72.306160 
	C73.154282,72.691429 72.493759,72.518723 71.654846,72.111824 
	C71.479370,71.823326 71.219635,71.444595 71.086494,71.257515 
	C70.623192,70.703506 70.508331,70.273552 70.823227,69.536102 
z"/>
<path fill="#BA9761" opacity="1.000000" stroke="none" 
	d="
M71.473022,72.164665 
	C72.046104,71.833221 72.612831,71.843117 73.463890,71.800514 
	C74.456436,71.726738 75.027863,72.017776 75.741699,72.754868 
	C75.954140,73.444931 75.932320,73.898666 75.953476,74.690918 
	C73.721764,75.561104 72.915527,73.456772 71.473022,72.164665 
z"/>
<path fill="#74335A" opacity="1.000000" stroke="none" 
	d="
M70.725983,69.204483 
	C71.042130,69.679626 71.016197,70.076523 70.971809,70.771927 
	C70.080833,70.951347 69.239967,70.786598 68.998734,69.409271 
	C69.447647,69.101799 69.915779,69.114021 70.725983,69.204483 
z"/>
<path fill="#7BCF26" opacity="1.000000" stroke="none" 
	d="
M36.545406,84.011292 
	C36.216423,83.559776 36.178719,83.094505 36.077957,82.281799 
	C35.731251,80.148827 37.512455,79.350136 38.043564,77.590431 
	C39.370346,75.998772 40.557732,74.573601 42.722458,76.575928 
	C43.212265,79.891983 43.415760,82.812386 39.908669,84.772339 
	C38.624149,84.641350 37.730419,84.319443 36.545406,84.011292 
z"/>
<path fill="#1F8F3E" opacity="1.000000" stroke="none" 
	d="
M39.938522,84.983582 
	C39.785698,82.286415 43.083160,80.810516 42.444176,77.343719 
	C42.862801,76.632797 43.273087,76.519333 44.025364,76.738495 
	C44.536636,77.303650 44.631447,77.731140 44.446320,78.483727 
	C44.244656,80.294388 44.198494,81.807564 44.224552,83.779495 
	C43.131554,85.251106 41.697868,84.883286 39.938522,84.983582 
z"/>
<path fill="#FAF5AA" opacity="1.000000" stroke="none" 
	d="
M57.548996,80.739708 
	C54.186852,84.899567 50.251976,84.894646 46.089867,81.366417 
	C49.640686,78.674362 53.392658,79.126305 57.548996,80.739708 
z"/>
<path fill="#F0E1A2" opacity="1.000000" stroke="none" 
	d="
M44.573715,78.812836 
	C44.238060,78.375046 44.185303,77.968872 44.057823,77.263062 
	C43.891827,76.777885 43.800549,76.592354 44.011429,76.336868 
	C48.933720,77.244926 53.543182,78.432083 58.711411,77.019974 
	C59.135460,77.059692 59.116913,77.488411 59.113834,77.703369 
	C58.888145,78.198425 58.665539,78.478523 58.235909,78.929672 
	C54.340794,80.656586 50.560242,80.070770 46.375778,79.337219 
	C45.597206,79.007004 45.226910,78.925728 44.573715,78.812836 
z"/>
<path fill="#F1C77C" opacity="1.000000" stroke="none" 
	d="
M45.992889,79.407532 
	C49.679607,79.083946 53.391716,79.079613 57.566353,79.087997 
	C57.995152,79.537636 57.961414,79.974548 57.918179,80.740807 
	C54.255936,81.043602 50.603188,81.017059 46.494492,80.999680 
	C46.031784,80.581497 46.025032,80.154144 45.992889,79.407532 
z"/>
<path fill="#178252" opacity="1.000000" stroke="none" 
	d="
M44.338013,75.952286 
	C44.313583,76.266907 44.194546,76.637482 44.088825,76.800446 
	C43.983105,76.963417 43.491165,76.969162 43.491165,76.969162 
	C43.491165,76.969162 42.999504,76.951584 42.754936,76.945526 
	C41.195744,75.494728 40.034405,76.869102 38.479774,77.208267 
	C38.482224,75.720078 39.480080,74.597794 40.769943,73.287788 
	C42.296494,73.006531 43.641506,72.985352 45.386551,72.976517 
	C45.311871,73.871803 44.837158,74.754738 44.338013,75.952286 
z"/>
<path fill="#162E34" opacity="1.000000" stroke="none" 
	d="
M33.428505,72.974426 
	C33.111919,72.978867 33.107082,72.571640 33.113667,72.368118 
	C33.476803,71.467377 34.090076,71.273018 35.396233,71.636795 
	C35.232784,72.306389 34.488941,72.638184 33.428505,72.974426 
z"/>
<path fill="#162E34" opacity="1.000000" stroke="none" 
	d="
M35.931892,71.065712 
	C36.633987,71.126778 37.105721,71.368645 37.714489,71.841888 
	C37.435532,72.052612 37.019543,72.031960 36.290092,71.992950 
	C35.976631,71.974594 35.902637,71.896446 35.865688,71.857330 
	C35.786339,71.627647 35.743935,71.437080 35.931892,71.065712 
z"/>
<path fill="#1E192D" opacity="1.000000" stroke="none" 
	d="
M25.119419,65.070755 
	C25.996025,64.013237 26.836763,63.110550 27.960363,62.074295 
	C31.350704,60.759350 32.295990,62.759407 32.935875,65.584198 
	C32.659882,66.890831 32.129879,67.539215 30.943722,68.128662 
	C30.262953,68.307083 29.983374,68.343613 29.282345,68.382507 
	C27.299377,68.372864 26.345486,67.358620 25.250263,65.920929 
	C25.081070,65.543442 25.083551,65.225586 25.119419,65.070755 
z"/>
<path fill="#B0446A" opacity="1.000000" stroke="none" 
	d="
M25.051685,65.945892 
	C26.161978,65.995781 27.528648,65.564026 28.699099,66.835526 
	C29.714289,67.746902 30.506298,68.404823 30.460922,69.908958 
	C29.789255,71.232986 28.990887,71.747864 27.467548,71.383194 
	C26.392139,69.631195 24.715996,68.410255 25.051685,65.945892 
z"/>
<path fill="#DC9463" opacity="1.000000" stroke="none" 
	d="
M27.080666,71.367203 
	C27.860453,70.946274 28.614882,70.632217 29.672161,70.265259 
	C30.634922,70.233871 31.047644,70.603447 31.344189,71.461937 
	C31.200893,72.118752 30.950907,72.407097 30.393940,72.813171 
	C30.184286,73.017982 29.983246,73.423630 29.955261,73.647415 
	C29.605993,73.795776 29.290848,73.700142 28.740788,73.529724 
	C28.129122,73.019394 27.758509,72.563622 27.181452,71.893204 
	C26.975008,71.678566 27.055311,71.474083 27.080666,71.367203 
z"/>
<path fill="#619334" opacity="1.000000" stroke="none" 
	d="
M22.135193,65.948700 
	C22.177475,65.449387 22.519367,65.002640 22.964537,64.293488 
	C23.615009,64.123741 24.162203,64.216408 24.800083,64.578552 
	C24.440157,65.190216 23.989546,65.532387 23.283386,66.005768 
	C22.830158,66.091743 22.632481,66.046501 22.135193,65.948700 
z"/>
<path fill="#D59D61" opacity="1.000000" stroke="none" 
	d="
M81.731873,72.233414 
	C80.000420,72.245369 78.750137,70.938507 77.056465,71.966812 
	C76.423965,72.099396 76.111115,72.115372 75.562294,71.728767 
	C75.175209,70.722343 75.142357,70.112305 75.408157,69.078186 
	C76.904480,67.278488 78.474335,66.553421 80.846924,66.927246 
	C83.243538,68.558838 84.767418,70.144371 81.731873,72.233414 
z"/>
<path fill="#62B632" opacity="1.000000" stroke="none" 
	d="
M81.431473,72.339409 
	C83.496132,70.902725 82.811378,69.772552 81.063217,68.449791 
	C80.550682,67.767937 80.420319,67.250130 80.601311,66.314545 
	C81.828094,65.189781 82.772057,65.300293 83.823357,66.683014 
	C84.073265,67.006248 83.997833,67.004829 83.996948,66.967255 
	C84.021980,68.964127 84.047890,70.998581 84.004044,73.462730 
	C82.853706,73.986610 82.060188,73.543396 81.431473,72.339409 
z"/>
<path fill="#D59D61" opacity="1.000000" stroke="none" 
	d="
M76.152611,72.881470 
	C75.382561,72.739288 74.789162,72.487389 73.971985,71.991753 
	C73.748215,71.748016 73.912186,71.295410 74.026642,71.083672 
	C74.482018,70.590622 74.872559,70.470093 75.583061,70.681168 
	C76.009964,71.049438 76.166519,71.246887 76.529945,71.763870 
	C76.710976,72.377907 76.575127,72.607361 76.152611,72.881470 
z"/>
<path fill="#813A63" opacity="1.000000" stroke="none" 
	d="
M31.284721,72.195755 
	C30.746107,71.501877 30.471521,71.079781 30.085974,70.435020 
	C29.691387,69.372971 29.407763,68.533592 29.054073,67.372231 
	C28.984011,67.050247 29.417946,67.047058 29.634464,67.061111 
	C31.446815,68.322578 33.450729,67.052139 35.557526,68.429161 
	C36.023457,69.368011 36.038803,69.804741 36.108204,70.563187 
	C36.162258,70.884911 35.975517,71.344643 35.902130,71.581421 
	C35.147018,71.882271 34.465302,71.946342 33.451916,72.087509 
	C33.120251,72.164604 32.661461,72.117950 32.431557,72.100365 
	C31.984016,72.211044 31.766382,72.339302 31.284721,72.195755 
z"/>
<path fill="#897E5E" opacity="1.000000" stroke="none" 
	d="
M30.822338,72.057686 
	C31.217970,71.944496 31.415251,71.965019 31.907091,72.034164 
	C31.711637,72.357735 31.221621,72.632683 30.457947,72.962807 
	C30.236500,72.692299 30.383064,72.416779 30.822338,72.057686 
z"/>
<path fill="#DADCD4" opacity="1.000000" stroke="none" 
	d="
M29.651743,39.264702 
	C29.934383,38.853058 29.994106,38.682693 30.111578,38.247765 
	C30.289772,37.811852 30.410217,37.640503 30.779999,37.278030 
	C31.029335,37.086899 30.918156,36.987850 30.965519,36.930405 
	C31.732235,36.537113 32.461441,36.229622 33.650455,36.123409 
	C40.635506,40.367336 40.413662,43.157242 32.854721,47.404419 
	C32.285046,47.755672 32.035488,47.860096 31.384472,48.028439 
	C29.861996,48.080036 28.924324,47.573322 27.748466,46.709122 
	C26.854090,45.261993 27.026150,44.011314 27.184296,42.432518 
	C27.600473,41.477528 28.077358,40.982792 28.762211,40.233540 
	C29.133959,39.829826 29.281393,39.667900 29.651743,39.264702 
z"/>
<path fill="#C9AB8A" opacity="1.000000" stroke="none" 
	d="
M20.121103,47.275642 
	C18.739817,44.972397 17.836578,42.921600 18.691452,40.363083 
	C19.424328,40.539989 19.923700,40.667553 20.682178,40.824604 
	C22.659546,42.261036 25.821455,42.480373 24.774765,45.932350 
	C24.030947,48.385456 22.142511,47.918053 20.121103,47.275642 
z"/>
<path fill="#CFAA87" opacity="1.000000" stroke="none" 
	d="
M18.861141,53.717964 
	C18.371979,52.653549 18.256523,51.664303 18.048180,50.311523 
	C19.562510,49.970345 21.170872,50.041286 22.776669,50.003403 
	C25.053478,49.949696 24.943232,51.354061 24.585876,53.307564 
	C22.761909,53.732056 20.998377,53.762596 18.861141,53.717964 
z"/>
<path fill="#D5965B" opacity="1.000000" stroke="none" 
	d="
M27.730656,52.272675 
	C28.350798,51.391827 28.785187,50.885818 29.551361,50.321949 
	C30.803503,49.712872 31.757431,49.782963 33.058250,50.284046 
	C33.620914,50.566086 33.850605,50.674599 34.393730,51.008583 
	C35.076515,51.614639 35.360641,52.051044 35.648174,52.935276 
	C35.711292,53.600536 35.689304,53.871471 35.515549,54.524055 
	C34.163506,56.702888 32.526123,57.517731 29.955324,56.997757 
	C27.965157,55.895569 27.093443,54.587154 27.730656,52.272675 
z"/>
<path fill="#208286" opacity="1.000000" stroke="none" 
	d="
M27.626097,52.088989 
	C27.985107,53.331947 28.370159,54.594540 30.036665,55.516315 
	C30.901073,56.852875 32.125607,57.670460 31.927570,59.537918 
	C30.396595,62.352753 29.432188,60.626133 28.075481,59.297874 
	C27.395395,58.668587 27.035069,58.254974 26.474503,57.647511 
	C26.270645,55.655807 25.822538,53.766754 27.626097,52.088989 
z"/>
<path fill="#148A40" opacity="1.000000" stroke="none" 
	d="
M29.502895,39.053600 
	C29.874659,39.023426 29.982252,39.438358 29.955904,39.651062 
	C29.564825,40.374962 29.519115,41.005718 29.037411,41.738892 
	C28.655445,43.047794 28.526926,44.185867 28.514648,45.654617 
	C28.786915,46.432518 28.898405,46.890591 28.905540,47.709209 
	C28.728827,48.264793 28.612116,48.470627 28.198860,48.871494 
	C25.066576,44.885803 25.473919,41.576599 29.502895,39.053600 
z"/>
<path fill="#95A4D1" opacity="1.000000" stroke="none" 
	d="
M28.217052,49.396065 
	C27.977518,48.847336 28.052721,48.628143 28.301140,48.107590 
	C29.105345,47.055542 29.938156,47.319187 31.027325,47.314476 
	C31.328382,47.270794 31.720131,46.995033 31.927078,46.874413 
	C32.850986,46.483955 33.530785,46.622639 34.489006,47.147362 
	C35.307693,47.877563 35.629807,48.507458 35.770008,49.588821 
	C35.512352,50.969845 34.919575,51.584072 33.454865,51.595798 
	C32.160458,51.303741 31.210583,50.967224 30.071928,50.447395 
	C29.652739,49.532383 29.206572,49.342133 28.217052,49.396065 
z"/>
<path fill="#4D425E" opacity="1.000000" stroke="none" 
	d="
M30.298264,25.018539 
	C30.930628,25.826088 31.419411,27.064625 32.007034,28.628860 
	C32.822865,29.810732 34.062321,30.044060 34.752045,31.482098 
	C34.813789,33.553837 34.257168,34.688553 32.113632,33.933815 
	C28.290876,31.517483 30.654291,28.167843 30.298264,25.018539 
z"/>
<path fill="#349F4D" opacity="1.000000" stroke="none" 
	d="
M31.850780,33.914948 
	C32.877892,33.193882 33.567902,32.621124 33.747654,31.275631 
	C33.709209,30.759424 33.648766,30.534391 33.768139,30.009281 
	C34.377483,29.495989 34.830776,29.430912 35.648865,29.580147 
	C36.189758,29.805851 36.386040,29.942982 36.780327,30.383461 
	C37.152920,31.145506 37.244362,31.621016 37.232578,32.477436 
	C37.065876,33.318596 36.873005,33.766586 36.419746,34.495605 
	C36.068333,34.989372 35.906757,35.171066 35.440624,35.549568 
	C34.905281,35.811211 34.674503,35.876045 34.086815,35.933975 
	C33.258030,35.858299 32.814373,35.708622 32.117455,35.258617 
	C31.808331,34.797966 31.785423,34.543175 31.850780,33.914948 
z"/>
<path fill="#4D425E" opacity="1.000000" stroke="none" 
	d="
M34.131599,36.676468 
	C33.247765,37.020069 32.496506,37.023960 31.379063,36.950405 
	C31.380629,36.708187 31.748379,36.543411 32.393036,36.248398 
	C32.838989,35.943439 33.008041,35.768719 33.537422,35.650070 
	C34.019890,35.916340 34.142029,36.126545 34.131599,36.676468 
z"/>
<path fill="#FFF8DF" opacity="1.000000" stroke="none" 
	d="
M20.954052,40.728828 
	C20.203135,41.461964 19.511173,41.903553 19.050224,40.430080 
	C19.433939,40.116627 19.872644,40.033703 20.646364,39.979061 
	C20.981377,40.007347 21.003784,40.491600 20.954052,40.728828 
z"/>
<path fill="#4B6035" opacity="1.000000" stroke="none" 
	d="
M33.913418,36.047787 
	C33.374706,36.072166 33.160778,36.087769 32.808121,36.106979 
	C32.484695,35.976597 32.299446,35.835033 31.972721,35.373116 
	C32.417267,35.115215 33.003292,35.177673 34.020607,35.335976 
	C34.380852,35.636734 34.309799,35.841652 33.913418,36.047787 
z"/>
<path fill="#D2DCD2" opacity="1.000000" stroke="none" 
	d="
M30.755026,37.071045 
	C30.880978,37.324047 30.703047,37.536411 30.332434,37.853600 
	C30.273125,37.673862 30.376921,37.364529 30.755026,37.071045 
z"/>
<path fill="#A8E52B" opacity="1.000000" stroke="none" 
	d="
M35.313004,53.545971 
	C34.703056,53.004288 34.410442,52.733978 33.947010,52.217701 
	C35.623604,50.842171 37.738464,50.240047 39.560326,49.066841 
	C44.032921,46.186668 44.531120,44.066193 41.752182,39.657310 
	C41.220604,38.813942 40.586449,38.036060 40.102322,36.789642 
	C39.906376,36.068737 39.851242,35.654087 39.845661,34.946159 
	C39.872368,34.477100 39.895615,34.295666 39.928215,33.850670 
	C39.876518,33.245422 39.788982,32.910793 39.579834,32.341572 
	C39.272369,31.612701 38.932625,31.198696 38.600868,30.467043 
	C38.518780,30.019888 38.522816,29.835245 38.676346,29.417364 
	C39.295288,28.886829 39.764744,28.589531 40.473938,28.149549 
	C42.232796,29.841541 44.351166,28.219944 46.472466,28.981453 
	C48.704853,30.904455 50.790585,32.007851 53.806648,31.119625 
	C54.540344,30.802534 54.984333,30.729393 55.783028,30.762016 
	C58.177502,27.159130 62.478004,30.206743 65.338120,27.810528 
	C66.141167,27.559179 66.545578,27.583706 67.144249,28.107861 
	C67.391792,28.590158 67.438179,28.806906 67.439850,29.349794 
	C67.315224,29.877043 67.235313,30.078150 66.979858,30.546856 
	C66.389603,31.269978 65.876839,31.629541 65.362976,32.393311 
	C64.993591,32.985706 64.785133,33.326107 64.451050,33.944145 
	C63.903309,34.687317 63.669952,35.239700 63.542007,36.167164 
	C63.563786,37.371578 63.168182,38.132576 62.683483,39.195301 
	C62.417576,40.106838 62.156628,40.677364 61.657944,41.471283 
	C60.853649,42.532440 60.492287,43.442329 60.447918,44.784859 
	C60.328804,46.160549 60.253071,47.230785 59.822426,48.588112 
	C59.061626,50.007099 58.152275,50.692715 56.509045,50.775436 
	C54.173641,49.141693 52.107738,47.993977 49.297852,49.761440 
	C47.209145,50.774384 48.325138,52.764381 47.220417,54.251328 
	C44.575676,56.172966 41.851006,55.247997 38.852493,55.445656 
	C37.229580,55.370228 36.436691,54.582001 35.313004,53.545971 
z"/>
<path fill="#0E9E40" opacity="1.000000" stroke="none" 
	d="
M38.503429,29.138977 
	C38.825832,29.184126 38.857666,29.522249 38.849762,29.691875 
	C38.794094,30.062056 38.746334,30.262609 38.505558,30.705429 
	C37.800411,31.341240 37.227573,31.515219 36.300026,31.300922 
	C36.003433,30.962275 35.988823,30.748869 35.948761,30.215612 
	C35.742485,29.671993 35.561668,29.448223 35.805595,29.148163 
	C36.880569,29.079189 37.530796,29.086510 38.503429,29.138977 
z"/>
<path fill="#F0D795" opacity="1.000000" stroke="none" 
	d="
M35.960491,28.961117 
	C36.230339,29.071871 36.049217,29.473248 35.986259,29.684505 
	C35.522003,29.949242 35.120705,30.002720 34.416695,30.083725 
	C33.581215,30.381731 33.150620,30.267399 32.853668,29.385807 
	C33.805447,28.679895 34.726673,28.373215 35.960491,28.961117 
z"/>
<path fill="#D4AA8D" opacity="1.000000" stroke="none" 
	d="
M32.689857,28.998524 
	C33.137562,29.273968 33.389992,29.544577 33.878204,29.963219 
	C34.113987,30.111254 33.950039,30.549595 33.859844,30.767025 
	C32.793186,31.044903 31.928181,30.962757 32.072556,29.293221 
	C32.105873,28.954557 32.494583,28.993685 32.689857,28.998524 
z"/>
<path fill="#127A47" opacity="1.000000" stroke="none" 
	d="
M54.985664,31.674692 
	C51.286156,34.998013 48.914856,33.161842 46.939117,29.378487 
	C47.749378,28.752735 48.983353,29.780787 49.487484,28.685593 
	C50.037201,27.491373 48.029652,27.663103 47.891907,26.383343 
	C48.162338,25.060328 49.014042,24.633493 50.406609,24.455158 
	C51.993107,24.892130 52.325134,26.276262 53.624466,27.123238 
	C54.719639,28.564390 54.410213,30.065094 54.985664,31.674692 
z"/>
<path fill="#128C53" opacity="1.000000" stroke="none" 
	d="
M51.124443,24.714989 
	C50.082722,25.308903 49.277294,25.652653 48.148491,26.073254 
	C45.654968,25.318729 46.171028,23.341225 45.774376,21.324947 
	C47.363201,20.889212 48.123444,18.647400 50.380039,18.958363 
	C50.720760,18.941257 50.887203,18.993654 50.971413,19.016479 
	C51.611317,20.822277 51.646904,22.634502 51.124443,24.714989 
z"/>
<path fill="#E1CBA1" opacity="1.000000" stroke="none" 
	d="
M67.073486,29.213898 
	C66.768120,28.573118 66.506584,28.307274 65.986877,27.923939 
	C65.845970,25.063238 65.919144,22.323576 65.024025,19.295929 
	C66.355835,19.005222 67.735558,19.076689 69.530029,19.138056 
	C69.522598,20.927496 72.177559,20.826895 72.115036,22.808981 
	C75.053955,25.676945 72.186310,28.984167 73.204826,32.028316 
	C72.155190,32.959896 71.228615,32.963070 69.925674,32.448792 
	C68.562004,31.574099 67.429214,30.956600 67.073486,29.213898 
z"/>
<path fill="#166957" opacity="1.000000" stroke="none" 
	d="
M55.307625,31.916998 
	C53.668068,31.338203 53.079193,30.189161 52.975685,28.381317 
	C52.413692,27.323450 52.270111,26.547129 52.877312,25.406010 
	C53.859856,25.036268 54.547894,24.960695 55.580250,24.850719 
	C55.977379,26.529793 56.030186,28.243271 56.103088,30.370781 
	C55.944294,31.130270 55.765400,31.475727 55.307625,31.916998 
z"/>
<path fill="#9FE643" opacity="1.000000" stroke="none" 
	d="
M53.137794,24.714455 
	C53.132504,25.844315 53.093178,26.576792 52.999413,27.674511 
	C51.308300,28.022852 51.142185,26.885201 51.002312,25.302851 
	C49.998333,23.225174 49.251152,21.478981 50.855919,19.339184 
	C53.706055,20.034945 52.885864,22.377434 53.137794,24.714455 
z"/>
<path fill="#857A95" opacity="1.000000" stroke="none" 
	d="
M73.032013,32.217125 
	C72.631836,31.006149 72.364700,30.140902 71.871140,29.222610 
	C71.537529,28.601908 67.201767,27.313389 72.142876,26.870684 
	C73.628212,26.737600 72.310928,24.679867 72.114250,23.331650 
	C72.627914,23.128202 73.034309,23.108532 73.743729,23.038565 
	C73.900185,26.130995 73.753616,29.273718 73.032013,32.217125 
z"/>
<path fill="#76B82B" opacity="1.000000" stroke="none" 
	d="
M73.873108,35.627823 
	C74.023880,36.119289 74.005768,36.318119 73.955177,36.814655 
	C73.542274,37.454498 73.122093,37.737663 72.287895,38.035988 
	C70.811699,38.085598 69.966087,37.638554 69.390045,36.259529 
	C69.353821,35.109001 69.700645,34.491688 70.654778,33.873051 
	C71.218224,33.687286 71.455666,33.655399 72.038559,33.722515 
	C72.824081,34.326069 73.264153,34.830627 73.873108,35.627823 
z"/>
<path fill="#857A95" opacity="1.000000" stroke="none" 
	d="
M72.507530,33.582901 
	C72.384010,33.821514 72.399284,33.907619 72.435043,33.932796 
	C72.238495,33.879547 72.006203,33.801125 71.778809,33.354443 
	C71.983025,32.842342 72.182350,32.698505 72.676613,32.775906 
	C72.971558,32.997147 72.979042,32.959824 72.972366,32.941818 
	C72.854156,33.063969 72.742607,33.204124 72.507530,33.582901 
z"/>
<path fill="#0D0923" opacity="1.000000" stroke="none" 
	d="
M77.265396,62.252495 
	C77.299774,59.330257 77.595253,56.661407 77.831329,53.592289 
	C75.790642,49.325989 76.059883,45.415081 77.915962,41.138729 
	C79.391815,41.224865 81.020088,39.770393 81.399734,41.938503 
	C78.862869,42.942455 79.592606,44.829948 79.717766,46.728340 
	C79.866791,47.009506 79.950905,47.050030 79.945633,47.096413 
	C80.638031,47.739792 81.455261,48.131973 82.577164,48.676643 
	C83.403542,48.885242 83.933968,48.926445 84.860107,49.019600 
	C84.695457,50.373653 83.347069,50.045216 82.148346,50.730751 
	C80.797867,52.619926 80.579910,54.141987 82.610855,55.716469 
	C82.943062,57.921947 82.583237,59.682899 81.070328,61.458122 
	C80.486504,62.066601 80.085312,62.332787 79.298203,62.649815 
	C78.455276,62.776276 77.980721,62.699734 77.265396,62.252495 
z"/>
<path fill="#0C934D" opacity="1.000000" stroke="none" 
	d="
M78.309547,40.630867 
	C78.159065,44.609673 78.024597,48.421947 77.831024,52.713120 
	C77.297501,53.397343 76.823074,53.602665 76.106499,53.900406 
	C75.699783,53.831272 75.535217,53.669720 75.222977,53.194107 
	C74.882484,51.313644 75.485542,49.678486 74.616364,47.807041 
	C74.551193,47.200951 74.537697,46.953884 74.516434,46.329205 
	C74.592491,44.414440 74.164833,42.785572 75.643227,41.210773 
	C76.229485,40.770065 76.490181,40.558704 76.901848,40.144508 
	C77.261841,39.975655 77.470863,40.009636 77.996201,40.086815 
	C78.312531,40.130013 78.325562,40.464344 78.309547,40.630867 
z"/>
<path fill="#59404B" opacity="1.000000" stroke="none" 
	d="
M79.885132,46.636112 
	C78.695206,45.256908 78.322746,43.596119 80.767899,42.172211 
	C80.106667,43.326427 79.631561,44.684864 79.885132,46.636112 
z"/>
<path fill="#59404B" opacity="1.000000" stroke="none" 
	d="
M82.915916,48.631195 
	C81.828377,48.733353 80.685921,48.885399 79.975800,47.461235 
	C80.776306,47.298100 81.612259,47.453400 82.713135,47.796646 
	C82.978058,47.984592 82.958710,48.418358 82.915916,48.631195 
z"/>
<path fill="#A05F6D" opacity="1.000000" stroke="none" 
	d="
M82.414032,56.282574 
	C78.319847,55.025692 78.824394,53.280914 81.629890,51.104347 
	C81.707680,53.233994 82.756165,54.100414 85.285110,53.752911 
	C85.704323,54.216602 85.760757,54.688023 85.848495,55.512405 
	C85.490448,55.936943 85.101105,56.008514 84.420135,56.140900 
	C83.690102,56.444088 83.223564,56.544651 82.414032,56.282574 
z"/>
<path fill="#CDD8D2" opacity="1.000000" stroke="none" 
	d="
M75.875664,40.703869 
	C75.908730,42.690506 75.848671,44.399582 75.702484,46.527077 
	C73.918381,49.085651 72.616333,48.434528 71.307037,46.046326 
	C70.207375,42.690071 67.695206,40.276436 67.766647,36.527763 
	C67.953094,35.935993 68.065079,35.711720 68.440918,35.219200 
	C68.948135,34.890968 69.191483,34.830986 69.664383,35.068729 
	C69.684311,36.262825 69.854630,36.943886 71.194336,37.100647 
	C72.390816,37.379780 73.020248,38.074402 74.031891,38.823837 
	C74.646851,39.086800 74.973198,39.160477 75.550087,39.244888 
	C75.794594,39.645851 75.788567,40.036083 75.875664,40.703869 
z"/>
<path fill="#4E6047" opacity="1.000000" stroke="none" 
	d="
M74.250534,38.697205 
	C73.019356,39.503494 72.454376,38.622734 71.698875,37.392311 
	C72.033882,37.035450 72.573608,37.001785 73.518021,37.040241 
	C74.008659,37.535339 74.094612,37.958313 74.250534,38.697205 
z"/>
<path fill="#7F8AB0" opacity="1.000000" stroke="none" 
	d="
M82.095345,56.429413 
	C82.554245,56.094357 83.004715,56.103676 83.791855,56.157356 
	C83.958321,57.292686 83.280113,58.336483 83.927849,59.755955 
	C84.359756,60.400318 84.513451,60.839199 84.275085,61.653221 
	C84.019882,62.228485 83.957199,62.494064 83.776077,63.151451 
	C81.826080,64.160233 80.526108,63.593300 79.788895,61.399818 
	C77.916992,58.159206 83.245140,59.220890 82.095345,56.429413 
z"/>
<path fill="#172627" opacity="1.000000" stroke="none" 
	d="
M79.609680,61.121330 
	C80.865417,61.801575 81.929565,62.604076 83.325684,63.474915 
	C83.865860,64.467636 84.074066,65.392014 84.177773,66.661316 
	C83.269463,66.809097 82.465668,66.611954 81.350540,66.427277 
	C79.776978,66.628960 78.964836,65.983147 78.216843,64.594482 
	C78.045341,63.646648 78.139854,63.115349 78.592979,62.262543 
	C78.978493,61.660645 79.181091,61.436558 79.609680,61.121330 
z"/>
<path fill="#90BCBF" opacity="1.000000" stroke="none" 
	d="
M84.331894,61.903145 
	C84.056923,61.530983 84.031273,61.099064 84.019234,60.342701 
	C85.159821,60.342953 86.150635,60.708553 84.331894,61.903145 
z"/>
<path fill="#217F8C" opacity="1.000000" stroke="none" 
	d="
M27.854370,59.433208 
	C28.777205,59.352314 29.798685,59.622437 31.010183,59.726234 
	C31.870676,59.346344 32.524513,59.445915 33.481155,59.797585 
	C34.180122,60.150585 34.553200,60.395947 35.164925,60.881817 
	C36.322021,62.332157 37.153904,63.664104 39.278564,63.764656 
	C41.789570,65.180443 43.855499,66.684364 46.346863,68.169022 
	C46.977329,69.067123 47.140671,69.779091 46.945370,70.672707 
	C43.185158,70.983223 39.763550,71.074577 36.398293,68.917862 
	C36.008114,68.931290 35.993122,68.982666 36.018532,68.974655 
	C35.039265,67.790611 32.943699,68.061981 32.352310,65.913086 
	C31.140879,64.401306 30.003138,63.216270 28.554310,61.985981 
	C28.146488,61.221897 28.049753,60.503059 27.854370,59.433208 
z"/>
<path fill="#171A24" opacity="1.000000" stroke="none" 
	d="
M35.007072,53.432816 
	C35.856705,53.367718 36.717739,53.460842 37.815338,53.788635 
	C47.178696,55.863232 56.144226,54.150681 65.114960,52.750565 
	C69.663513,52.040642 69.943352,52.225723 70.074242,57.603348 
	C69.376717,60.991184 67.780060,63.163857 64.499435,64.277649 
	C64.080208,64.236015 63.762962,64.139534 63.597374,64.131241 
	C61.572853,63.189102 59.382008,65.868088 57.732086,63.209435 
	C54.846767,58.688076 50.893867,61.359184 47.076118,61.543083 
	C46.607929,65.693542 43.552792,64.694687 40.890522,64.966354 
	C40.054760,64.850792 39.595970,64.693481 38.812527,64.318527 
	C35.526562,61.634228 33.716282,58.650967 34.743980,54.241135 
	C34.937916,53.897911 35.018482,53.591038 35.007072,53.432816 
z"/>
<path fill="#842054" opacity="1.000000" stroke="none" 
	d="
M57.643791,63.162231 
	C59.176765,65.083191 61.458027,61.649548 63.145554,63.883793 
	C61.488720,65.058319 59.545654,65.993683 57.276020,67.090935 
	C57.122913,66.000893 57.296379,64.748978 57.643791,63.162231 
z"/>
<path fill="#2C1624" opacity="1.000000" stroke="none" 
	d="
M47.002174,70.873993 
	C46.371628,70.353912 46.127201,69.862968 45.779022,69.115067 
	C44.826683,67.732422 42.920406,67.214676 43.836075,64.934265 
	C44.841160,64.478279 45.597172,64.447769 46.596970,64.899002 
	C47.230431,66.856133 47.623947,68.515617 48.090088,70.535385 
	C47.904572,70.898163 47.646439,70.900650 47.002174,70.873993 
z"/>
<path fill="#872653" opacity="1.000000" stroke="none" 
	d="
M46.879547,64.769669 
	C46.124302,65.181404 45.411690,65.166161 44.361256,65.268097 
	C42.947689,65.987129 41.949505,65.912605 40.935516,64.648659 
	C41.787125,61.340778 45.305271,64.898293 46.562134,61.929165 
	C46.853970,62.627926 46.888073,63.485310 46.879547,64.769669 
z"/>
<path fill="#6AC529" opacity="1.000000" stroke="none" 
	d="
M64.062126,64.537773 
	C66.459312,63.039040 66.383003,60.265850 68.065750,58.197636 
	C69.428093,57.226276 69.445763,56.008053 69.995224,54.670486 
	C71.522102,53.842834 72.602783,54.173424 73.746765,55.425243 
	C73.306160,61.370663 68.784798,63.445511 64.317207,65.964729 
	C63.997955,65.644432 64.021004,65.241982 64.062126,64.537773 
z"/>
<path fill="#12132B" opacity="1.000000" stroke="none" 
	d="
M78.510284,61.933792 
	C78.808327,62.336361 78.806335,62.756870 78.789703,63.492218 
	C78.099121,65.464317 77.777840,67.366653 75.494148,68.277054 
	C74.968178,68.432556 74.742523,68.431473 74.257248,68.213211 
	C73.379639,67.431816 72.761650,66.867599 71.983231,66.027222 
	C73.049934,64.187775 73.894638,62.168064 76.649353,62.001678 
	C77.406281,61.983315 77.808266,61.967522 78.510284,61.933792 
z"/>
<path fill="#E47E6A" opacity="1.000000" stroke="none" 
	d="
M74.153961,55.592300 
	C72.878105,55.466217 71.819229,55.194572 70.460434,54.787048 
	C68.894073,53.214573 70.083641,52.600201 71.506317,51.804008 
	C73.165878,51.529362 74.320274,51.642963 75.487915,52.963417 
	C75.725677,53.341209 75.743340,53.678158 75.803848,53.835491 
	C75.366554,54.477467 74.868752,54.962105 74.153961,55.592300 
z"/>
<path fill="#BA9761" opacity="1.000000" stroke="none" 
	d="
M73.875473,68.225845 
	C73.997620,67.996033 74.416855,67.989922 74.622559,67.949471 
	C75.362938,67.637833 75.785370,67.758751 76.025360,68.647354 
	C75.942535,69.431129 75.929886,69.839348 75.885330,70.549774 
	C75.472679,70.868553 75.091949,70.885117 74.426163,70.886810 
	C74.098297,70.681511 74.055496,70.491096 73.921822,70.022385 
	C73.830948,69.744095 73.523132,69.398361 73.538574,69.167427 
	C73.620445,68.776207 73.686882,68.615929 73.875473,68.225845 
z"/>
<path fill="#74335A" opacity="1.000000" stroke="none" 
	d="
M73.404373,68.915199 
	C73.554008,68.936493 73.767914,69.316704 73.799431,69.530396 
	C73.581451,69.685959 73.370842,69.561813 73.099213,69.213608 
	C72.999298,69.055557 73.254738,68.893906 73.404373,68.915199 
z"/>
<path fill="#0F1F31" opacity="1.000000" stroke="none" 
	d="
M32.039902,65.864426 
	C33.544868,66.487854 34.811123,67.389366 36.060658,68.628754 
	C34.003159,69.087418 31.926401,69.369232 30.070389,67.378098 
	C30.501051,66.764282 31.151119,66.453392 32.039902,65.864426 
z"/>
<path fill="#8F2962" opacity="1.000000" stroke="none" 
	d="
M76.315964,69.004715 
	C75.731659,68.748344 75.508141,68.473778 75.056442,68.054108 
	C75.719414,66.415924 76.153862,64.538872 78.458397,63.887428 
	C79.343369,64.542938 79.911659,65.278824 80.759583,66.227234 
	C80.995781,66.840202 80.952347,67.240646 80.873825,67.943542 
	C79.451416,68.492844 78.064087,68.739685 76.315964,69.004715 
z"/>
<path fill="#202731" opacity="1.000000" stroke="none" 
	d="
M40.821140,34.610477 
	C40.188168,36.603233 41.538479,37.621002 42.476421,38.243507 
	C45.332508,40.139076 46.946995,42.754234 45.394196,45.787979 
	C43.787403,48.927216 41.369411,51.826721 37.110390,51.683662 
	C36.282497,51.655853 35.451054,51.733658 34.198719,51.867241 
	C33.776188,51.971729 33.464767,51.764160 33.287552,51.702209 
	C33.716503,51.271618 34.322674,50.902977 35.025646,50.271431 
	C35.660152,49.056934 34.949570,48.702232 34.053471,48.199818 
	C33.413044,47.709511 33.030762,47.332184 32.391251,46.854324 
	C32.269836,46.126759 32.189125,45.263779 32.575214,44.909492 
	C36.124439,41.652618 36.250134,41.273499 34.184769,37.320080 
	C33.938866,36.853535 33.878708,36.690891 33.703320,36.288620 
	C33.742691,35.961739 33.897293,35.874474 34.251900,35.609512 
	C34.592606,35.337345 34.733315,35.242870 35.081497,35.001499 
	C36.903679,33.565990 38.632320,33.292572 40.821140,34.610477 
z"/>
<path fill="#D2DCD2" opacity="1.000000" stroke="none" 
	d="
M31.060442,47.127720 
	C30.577322,47.465839 29.826263,47.660889 28.774780,47.831081 
	C28.470783,47.396923 28.467213,46.987625 28.547264,46.281807 
	C29.351427,46.318409 30.071964,46.651527 31.060442,47.127720 
z"/>
<path fill="#D2DCD2" opacity="1.000000" stroke="none" 
	d="
M29.029034,41.726082 
	C28.978918,41.325111 29.173872,40.740505 29.649191,40.009830 
	C29.711073,40.423325 29.492590,40.982887 29.029034,41.726082 
z"/>
<path fill="#63C427" opacity="1.000000" stroke="none" 
	d="
M34.671059,54.084599 
	C35.428101,57.294334 38.010445,59.795082 38.992912,63.366825 
	C39.226475,63.979145 39.319305,64.265640 39.178925,64.939011 
	C36.976669,65.052246 35.286469,64.316307 34.026379,62.219978 
	C33.702301,61.798389 33.603115,61.651226 33.282936,61.355659 
	C32.613304,60.775894 32.164665,60.344532 31.458115,59.736534 
	C30.881456,58.507374 30.562712,57.454842 30.275696,56.062881 
	C31.860550,55.768456 33.298698,55.489094 34.671059,54.084599 
z"/>
<path fill="#242E4C" opacity="1.000000" stroke="none" 
	d="
M33.928070,48.348320 
	C34.755203,48.126457 35.770233,48.103931 35.293839,49.788673 
	C34.768570,49.542286 34.414692,49.076046 33.928070,48.348320 
z"/>
<path fill="#00000C" opacity="1.000000" stroke="none" 
	d="
M41.370384,34.895851 
	C39.467968,34.912762 37.794960,34.874195 35.705460,34.845116 
	C35.288971,34.854599 35.186970,34.428669 35.238319,34.215790 
	C35.985966,33.430809 36.786259,32.986729 37.693077,32.136478 
	C38.684330,31.765177 39.360565,31.792364 40.320423,32.238846 
	C41.009117,32.658989 41.332077,32.972862 41.699257,33.687893 
	C42.000717,34.351807 41.925022,34.630177 41.370384,34.895851 
z"/>
<path fill="#73D049" opacity="1.000000" stroke="none" 
	d="
M35.938484,31.493832 
	C36.555138,30.865658 37.092232,30.555630 37.930702,30.172848 
	C38.500813,30.462294 38.638725,30.870899 38.579857,31.639158 
	C38.205158,32.291306 37.893639,32.601830 37.295792,33.087799 
	C36.819122,33.330666 36.603615,33.372650 36.098701,33.257439 
	C35.825844,32.670826 35.842384,32.241402 35.938484,31.493832 
z"/>
<path fill="#104B32" opacity="1.000000" stroke="none" 
	d="
M35.684517,33.230011 
	C36.005013,33.065369 36.200729,33.030487 36.686783,32.927620 
	C37.251492,32.776649 37.525860,32.693672 37.985321,32.998772 
	C37.409233,33.594864 36.648045,33.802883 35.588261,34.006905 
	C35.280254,33.746769 35.370277,33.532391 35.684517,33.230011 
z"/>
<path fill="#202535" opacity="1.000000" stroke="none" 
	d="
M68.533310,35.640999 
	C68.819908,39.236149 72.486153,40.827389 72.569885,44.403717 
	C72.515526,47.358971 71.389290,49.551819 69.502151,51.739433 
	C65.420601,52.411060 61.266605,54.203682 59.482780,48.345711 
	C59.214138,47.100307 58.914616,46.273186 58.696815,45.196274 
	C59.506580,44.516144 60.278858,44.141747 60.956566,43.151062 
	C62.267136,41.899761 62.207272,40.787132 61.288300,39.339722 
	C61.513657,38.236942 61.889496,37.409634 62.242092,36.222118 
	C64.067657,34.103241 66.077492,34.105968 68.533310,35.640999 
z"/>
<path fill="#7ACB31" opacity="1.000000" stroke="none" 
	d="
M59.213974,48.093025 
	C62.504555,49.941280 65.299599,52.527439 69.796791,51.105087 
	C70.554222,50.601044 70.962921,50.452076 71.743561,50.612335 
	C72.325562,51.124916 72.445885,51.543781 72.187881,52.280167 
	C71.430313,53.063072 70.876549,53.574913 70.241646,54.368958 
	C69.858253,55.700939 70.023216,56.940887 68.633949,57.808182 
	C68.423126,56.568836 70.105927,55.231102 68.555290,53.823898 
	C66.960770,52.376873 66.425743,54.699474 65.196213,54.878338 
	C56.268066,56.177120 47.365845,56.297493 38.258965,54.358826 
	C40.884201,53.754700 43.805870,54.630703 46.867493,53.077332 
	C47.498016,52.435059 47.884541,52.170532 48.697754,51.977547 
	C51.531876,53.237709 52.760105,51.417534 54.428310,49.748665 
	C54.980347,49.580017 55.214783,49.564644 55.750465,49.732147 
	C57.311214,49.890530 58.074619,49.008682 59.213974,48.093025 
z"/>
<path fill="#E8FA6F" opacity="1.000000" stroke="none" 
	d="
M56.028755,49.533157 
	C55.884563,50.000076 55.717411,50.085129 55.283234,50.258698 
	C53.303860,50.943363 52.106476,53.066315 49.482548,51.926182 
	C48.392788,51.247303 48.060085,50.527718 48.022980,49.260086 
	C50.827110,45.731598 53.467415,46.090214 56.028755,49.533157 
z"/>
<path fill="#041917" opacity="1.000000" stroke="none" 
	d="
M69.011574,35.727566 
	C66.930305,35.935730 64.991623,35.904804 62.635899,35.867897 
	C61.793922,35.008350 61.870358,34.168262 62.544014,33.128036 
	C64.492729,32.186676 66.138748,31.205484 68.501266,32.188290 
	C69.350418,32.886131 69.591583,33.439533 69.502914,34.531136 
	C69.304405,35.149075 69.229286,35.318775 69.011574,35.727566 
z"/>
<path fill="#D8D7D1" opacity="1.000000" stroke="none" 
	d="
M60.987507,39.306831 
	C63.338055,38.581562 64.395401,40.421776 65.068741,41.708183 
	C65.549637,42.626919 63.857533,43.621693 62.360863,44.136494 
	C60.359398,44.064941 59.573952,43.218414 59.639168,41.244507 
	C60.109383,40.424801 60.473286,39.987103 60.987507,39.306831 
z"/>
<path fill="#1F2817" opacity="1.000000" stroke="none" 
	d="
M47.710632,48.905518 
	C48.505993,49.311752 48.956364,49.772038 49.596794,50.497955 
	C49.887962,51.320744 49.792881,51.842121 49.184906,52.585808 
	C48.491425,52.842613 48.114670,52.841335 47.456524,52.817841 
	C46.183403,51.464535 43.008636,50.025028 47.710632,48.905518 
z"/>
<path fill="#53BE48" opacity="1.000000" stroke="none" 
	d="
M68.875717,33.366249 
	C66.932304,33.123863 65.284248,33.066818 63.218773,32.964272 
	C63.006348,32.631744 63.211342,32.344719 63.633701,31.905247 
	C64.417976,31.461222 64.902458,31.055079 65.624191,30.439838 
	C65.862007,30.231533 66.102341,30.126177 66.226974,30.085178 
	C67.839134,29.936739 68.968742,30.663015 70.194733,31.900192 
	C70.364799,32.419392 70.342987,32.650112 70.085892,33.137756 
	C69.624084,33.446991 69.397583,33.499294 68.875717,33.366249 
z"/>
<path fill="#171622" opacity="1.000000" stroke="none" 
	d="
M59.419609,41.056450 
	C60.429569,41.716400 61.113663,42.570301 61.890099,43.748466 
	C61.635139,45.697716 60.673721,45.897194 59.055386,45.080467 
	C58.578384,43.688423 58.349407,42.427910 59.419609,41.056450 
z"/>
<path fill="#189646" opacity="1.000000" stroke="none" 
	d="
M70.223434,31.615646 
	C68.933853,31.310530 67.896301,30.811666 66.605179,30.178490 
	C66.416252,29.725134 66.480896,29.406090 66.787598,28.963005 
	C67.908829,29.384096 68.788002,29.929230 69.824753,30.747482 
	C70.146706,31.154369 70.311089,31.288137 70.223434,31.615646 
z"/>
<path fill="#DEF794" opacity="1.000000" stroke="none" 
	d="
M38.505280,32.174816 
	C38.173775,31.518202 38.154736,31.112719 38.183887,30.403662 
	C38.232079,30.100090 38.538067,29.983421 38.689960,29.922461 
	C39.758865,29.928329 40.642860,30.046606 40.927742,31.501717 
	C40.421738,32.636131 39.604607,32.476006 38.505280,32.174816 
z"/>
<path fill="#3DAF4F" opacity="1.000000" stroke="none" 
	d="
M37.972351,32.057472 
	C38.888268,31.925663 39.583729,31.927641 40.626572,31.881296 
	C41.210869,32.066566 41.426380,32.318466 41.700081,32.824482 
	C41.656696,33.195896 41.533710,33.331505 41.141041,33.415371 
	C40.195053,33.353256 39.518753,33.342880 38.506439,33.359673 
	C37.976234,33.288246 37.782051,33.189651 37.282497,32.975342 
	C37.235382,32.636841 37.493637,32.414051 37.972351,32.057472 
z"/>
<path fill="#E2F69C" opacity="1.000000" stroke="none" 
	d="
M65.553398,30.194679 
	C66.103409,31.355297 65.548416,31.826899 64.175613,31.823692 
	C63.985825,30.932945 64.107140,30.101337 65.553398,30.194679 
z"/>
<path fill="#104B32" opacity="1.000000" stroke="none" 
	d="
M41.002342,33.507999 
	C40.871353,33.363636 41.306828,33.154472 41.543251,33.107376 
	C41.779678,33.060284 41.919941,33.527493 41.873405,33.766380 
	C41.579525,33.919407 41.348343,33.801769 41.002342,33.507999 
z"/>
<path fill="#1F8343" opacity="1.000000" stroke="none" 
	d="
M70.076004,32.050865 
	C69.971405,31.809393 69.976440,31.415070 69.979385,31.217834 
	C70.634140,31.336197 71.285957,31.651794 72.197372,31.992599 
	C72.546898,32.178806 72.636818,32.339802 72.849152,32.748974 
	C72.971558,32.997147 72.770081,33.333435 72.608368,33.444202 
	C71.902695,33.709068 71.375565,33.664436 70.605652,33.106525 
	C70.290901,32.625420 70.235756,32.458878 70.076004,32.050865 
z"/>
<path fill="#56A82B" opacity="1.000000" stroke="none" 
	d="
M69.906334,32.896912 
	C70.813232,32.947437 71.280403,33.102921 72.097115,33.406685 
	C72.446648,33.554970 72.505142,33.753933 72.487968,33.855953 
	C71.820068,34.299847 71.169334,34.641720 70.206276,35.175026 
	C69.893944,35.366455 69.596626,35.226849 69.488075,35.103111 
	C69.214348,34.574753 69.049179,34.170139 68.732178,33.473213 
	C68.875786,33.121223 69.171204,33.061543 69.906334,32.896912 
z"/>
<path fill="#97A1C1" opacity="1.000000" stroke="none" 
	d="
M72.294891,51.283619 
	C71.535904,51.174286 71.153282,51.096844 70.483887,50.960140 
	C70.144966,49.960880 67.249596,48.870945 70.461761,48.018677 
	C71.261154,47.806580 71.699226,46.232666 72.459656,45.017212 
	C73.299805,45.644764 72.093109,48.449280 75.305389,47.025085 
	C75.666023,47.124306 75.715691,47.303123 75.754906,47.760136 
	C76.017738,50.347630 74.822662,51.279964 72.294891,51.283619 
z"/>
<path fill="#5CA23C" opacity="1.000000" stroke="none" 
	d="
M71.944153,51.467468 
	C72.664803,49.872753 74.875549,50.255795 75.510353,48.249680 
	C77.784378,49.442993 76.792099,51.051910 75.890167,52.992435 
	C74.718666,53.167850 73.711662,52.994492 72.344360,52.686180 
	C71.994652,52.261635 71.989891,51.972294 71.944153,51.467468 
z"/>
<path fill="#6AB52F" opacity="1.000000" stroke="none" 
	d="
M39.171757,65.545830 
	C38.975365,65.053520 39.005020,64.781151 39.084160,64.100716 
	C39.510319,63.820854 39.886990,63.949062 40.546124,64.165573 
	C41.671829,64.564720 42.515072,64.875549 43.690872,65.285828 
	C44.593819,66.343498 45.164200,67.301720 45.704926,68.559021 
	C43.187752,68.629242 41.462132,66.853714 39.171757,65.545830 
z"/>
<path fill="#208286" opacity="1.000000" stroke="none" 
	d="
M33.163567,61.350761 
	C33.327934,61.239944 33.535641,61.367500 33.743271,61.767735 
	C33.597443,61.825150 33.418682,61.674721 33.163567,61.350761 
z"/>
<path fill="#A7E22D" opacity="1.000000" stroke="none" 
	d="
M49.135033,53.099876 
	C49.033886,52.363457 49.199600,51.883026 49.576080,51.083092 
	C51.309216,50.603539 52.831585,50.443485 54.685081,50.315327 
	C54.717106,54.284168 52.607464,54.842552 49.135033,53.099876 
z"/>
</svg>