<svg width="24" height="24" viewBox="0 0 24 24" fill="none" xmlns="http://www.w3.org/2000/svg">
<path d="M11.5 22C13.3789 22 15.2157 21.4428 16.7779 20.3989C18.3402 19.3551 19.5578 17.8714 20.2769 16.1355C20.9959 14.3996 21.184 12.4894 20.8175 10.6466C20.4509 8.80382 19.5461 7.11108 18.2175 5.78249C16.8889 4.45389 15.1962 3.5491 13.3534 3.18254C11.5106 2.81598 9.60042 3.00412 7.86453 3.72315C6.12863 4.44218 4.64494 5.65982 3.60106 7.22208C2.55719 8.78434 2.00003 10.6211 2.00003 12.5C1.99695 13.7484 2.24058 14.9851 2.71691 16.1391C3.19324 17.2931 3.89288 18.3416 4.77565 19.2243C5.65842 20.1071 6.70691 20.8068 7.86089 21.2831C9.01487 21.7594 10.2516 22.003 11.5 22Z" fill="#2775CA"/>
<path d="M14.1128 14.0044C14.1128 12.6226 13.282 12.1432 11.6195 11.9455C10.4311 11.7874 10.1945 11.4705 10.1945 10.9169C10.1945 10.3633 10.5901 10.0057 11.3811 10.0057C12.0945 10.0057 12.49 10.2432 12.6878 10.8374C12.7091 10.8947 12.7474 10.944 12.7976 10.9788C12.8478 11.0135 12.9074 11.032 12.9685 11.0317H13.6015C13.6382 11.0327 13.6747 11.0262 13.7087 11.0126C13.7428 10.999 13.7738 10.9786 13.7997 10.9527C13.8256 10.9267 13.846 10.8958 13.8596 10.8617C13.8732 10.8277 13.8797 10.7912 13.8788 10.7545V10.7156C13.8023 10.2866 13.5863 9.89488 13.2642 9.60127C12.9422 9.30766 12.5322 9.12864 12.098 9.09202V8.14202C12.098 7.98397 11.9788 7.86565 11.781 7.82593H11.1868C11.0288 7.82593 10.9105 7.94425 10.8707 8.14202V9.05574C9.67978 9.21811 8.92755 10.0057 8.92755 10.9955C8.92755 12.3021 9.71951 12.8169 11.382 13.0146C12.49 13.2124 12.8502 13.4465 12.8502 14.083C12.8502 14.7195 12.2966 15.1521 11.5444 15.1521C10.5149 15.1521 10.1626 14.7203 10.0399 14.1227C10.0286 14.0559 9.99423 13.9952 9.94278 13.9512C9.89134 13.9072 9.82608 13.8826 9.75837 13.8817H9.08214C9.04551 13.8809 9.00909 13.8875 8.97508 13.9012C8.94108 13.9148 8.91018 13.9352 8.88427 13.9611C8.85837 13.987 8.83798 14.0179 8.82434 14.0519C8.8107 14.0859 8.80409 14.1223 8.80492 14.159V14.1987C8.96383 15.1884 9.59687 15.9009 10.9035 16.0987V17.0487C10.9035 17.2067 11.0219 17.3259 11.2196 17.3656H11.8138C11.9719 17.3656 12.091 17.2465 12.1299 17.0487V16.0987C13.3174 15.9009 14.1094 15.0692 14.1094 14.0009L14.1128 14.0044Z" fill="white"/>
<path d="M9.48111 18.1603C8.34217 17.7425 7.35895 16.9852 6.66435 15.9905C5.96976 14.9959 5.59729 13.812 5.59729 12.5989C5.59729 11.3858 5.96976 10.2019 6.66435 9.20725C7.35895 8.21264 8.34217 7.45527 9.48111 7.03752C9.55711 7.00465 9.62094 6.94886 9.66367 6.87794C9.70641 6.80702 9.72592 6.72452 9.71948 6.64198V6.08752C9.72481 6.0148 9.7036 5.9426 9.65977 5.88432C9.61594 5.82604 9.55246 5.78563 9.48111 5.77057C9.4254 5.76476 9.36942 5.77883 9.32307 5.8103C7.88202 6.26832 6.6241 7.17304 5.7314 8.39349C4.8387 9.61394 4.35752 11.0868 4.35752 12.5989C4.35752 14.111 4.8387 15.5839 5.7314 16.8043C6.6241 18.0248 7.88202 18.9295 9.32307 19.3875C9.35598 19.4066 9.39295 19.4177 9.43096 19.4197C9.46896 19.4218 9.50692 19.4149 9.54172 19.3994C9.57652 19.384 9.60717 19.3606 9.63116 19.331C9.65515 19.3015 9.6718 19.2667 9.67975 19.2295C9.71948 19.1897 9.71948 19.15 9.71948 19.0705V18.517C9.71948 18.3978 9.6003 18.2397 9.48111 18.1603ZM13.6775 5.8103C13.6445 5.79118 13.6075 5.78015 13.5695 5.77813C13.5314 5.7761 13.4934 5.78313 13.4586 5.79864C13.4238 5.81415 13.3931 5.8377 13.3692 5.86735C13.3452 5.897 13.3287 5.93191 13.3208 5.9692C13.282 6.00807 13.282 6.0478 13.282 6.12725V6.68084C13.2886 6.76067 13.3135 6.83791 13.3547 6.90663C13.3959 6.97534 13.4522 7.03371 13.5195 7.07725C14.6584 7.495 15.6416 8.25237 16.3362 9.24698C17.0308 10.2416 17.4033 11.4255 17.4033 12.6386C17.4033 13.8518 17.0308 15.0357 16.3362 16.0303C15.6416 17.0249 14.6584 17.7823 13.5195 18.2C13.4436 18.2329 13.3798 18.2887 13.3372 18.3597C13.2947 18.4306 13.2753 18.5131 13.282 18.5955V19.15C13.2766 19.2226 13.2977 19.2947 13.3414 19.353C13.385 19.4112 13.4483 19.4517 13.5195 19.467C13.5752 19.4728 13.6312 19.4587 13.6775 19.4272C15.118 18.9629 16.3741 18.0536 17.2651 16.8302C18.1562 15.6068 18.6362 14.1323 18.6362 12.6188C18.6362 11.1053 18.1562 9.63077 17.2651 8.40736C16.3741 7.18394 15.118 6.27466 13.6775 5.8103Z" fill="white"/>
</svg>
