<svg width="20" height="20" viewBox="0 0 20 20" fill="none" xmlns="http://www.w3.org/2000/svg">
<path fill-rule="evenodd" clip-rule="evenodd" d="M15.9617 7.1429C15.9617 9.24684 14.1894 10.9524 12.0031 10.9524C9.81683 10.9524 8.04452 9.24684 8.04452 7.1429C8.04452 5.03896 9.81683 3.33337 12.0031 3.33337C14.1894 3.33337 15.9617 5.03896 15.9617 7.1429ZM14.6421 7.1429C14.6421 8.54553 13.4606 9.68258 12.0031 9.68258C10.5456 9.68258 9.36404 8.54553 9.36404 7.1429C9.36404 5.74027 10.5456 4.60322 12.0031 4.60322C13.4606 4.60322 14.6421 5.74027 14.6421 7.1429Z" fill="currentColor" fill-opacity="0.72"/>
<path d="M7.516 4.65389C7.8731 4.58414 8.10382 4.24901 8.03133 3.90536C7.95884 3.56171 7.6106 3.33968 7.25351 3.40943C5.44635 3.76245 4.08594 5.29901 4.08594 7.14276C4.08594 8.98652 5.44635 10.5231 7.25351 10.8761C7.6106 10.9458 7.95884 10.7238 8.03133 10.3802C8.10382 10.0365 7.8731 9.70139 7.516 9.63163C6.31169 9.39637 5.40547 8.3707 5.40547 7.14276C5.40547 5.91482 6.31169 4.88915 7.516 4.65389Z" fill="currentColor" fill-opacity="0.72"/>
<path fill-rule="evenodd" clip-rule="evenodd" d="M8.50497 12.5864C9.31836 11.9856 10.452 11.5873 12.0031 11.5873C13.5542 11.5873 14.6879 11.9856 15.5013 12.5864C16.3086 13.1828 16.7478 13.9397 16.986 14.5769C17.1956 15.1378 17.0487 15.6868 16.6972 16.0759C16.3577 16.4516 15.8437 16.6667 15.3019 16.6667H8.7043C8.16254 16.6667 7.64852 16.4516 7.30902 16.0759C6.95747 15.6868 6.81061 15.1378 7.02026 14.5769C7.25845 13.9397 7.69765 13.1828 8.50497 12.5864ZM9.30842 13.5937C8.75281 14.0041 8.43935 14.532 8.26189 15.0068C8.22486 15.1058 8.24523 15.1768 8.30477 15.2427C8.37636 15.3219 8.51729 15.3969 8.7043 15.3969H15.3019C15.4889 15.3969 15.6298 15.3219 15.7014 15.2427C15.761 15.1768 15.7813 15.1058 15.7443 15.0068C15.5669 14.532 15.2534 14.0041 14.6978 13.5937C14.1483 13.1878 13.3088 12.8572 12.0031 12.8572C10.6975 12.8572 9.85797 13.1878 9.30842 13.5937Z" fill="currentColor" fill-opacity="0.72"/>
<path d="M4.25149 14.9377C4.38655 14.4373 4.61835 13.911 5.0009 13.5178C5.36449 13.144 5.89403 12.8572 6.72499 12.8572C7.08937 12.8572 7.38475 12.5729 7.38475 12.2223C7.38475 11.8716 7.08937 11.5873 6.72499 11.5873C5.52378 11.5873 4.64709 12.0234 4.03758 12.65C3.44704 13.2571 3.13889 14.0088 2.97434 14.6185C2.65554 15.7998 3.69965 16.6667 4.74569 16.6667H5.25319C5.61756 16.6667 5.91295 16.3824 5.91295 16.0318C5.91295 15.6811 5.61756 15.3969 5.25319 15.3969H4.74569C4.55928 15.3969 4.41084 15.3231 4.32645 15.2334C4.25001 15.1522 4.21961 15.0559 4.25149 14.9377Z" fill="currentColor" fill-opacity="0.72"/>
</svg>
