<svg version="1.1" id="Layer_1" xmlns="http://www.w3.org/2000/svg" xmlns:xlink="http://www.w3.org/1999/xlink" x="0px" y="0px"
	 width="100%" viewBox="0 0 64 64" enable-background="new 0 0 64 64" xml:space="preserve">
<path fill="#FEFEFE" opacity="1.000000" stroke="none" 
	d="
M36.882530,1.303771 
	C45.302048,1.000000 53.605045,1.068843 61.905514,0.954450 
	C64.145805,0.923575 65.107658,1.128443 65.084961,3.884320 
	C64.924950,23.309795 64.915184,42.737980 65.092461,62.163155 
	C65.118721,65.040344 63.984955,65.061768 61.858082,65.034096 
	C54.885540,64.943352 47.911079,65.000000 40.468681,65.000000 
	C39.881500,62.445229 42.591164,62.906048 43.895737,61.375763 
	C45.767532,59.961544 47.658211,59.186874 49.458649,57.667461 
	C53.038952,56.355553 55.181080,53.940365 57.062508,50.750275 
	C57.588902,49.859406 57.941360,49.260918 58.394821,48.305199 
	C62.574703,40.838345 62.527122,33.326374 60.438339,25.313858 
	C59.370735,23.317059 58.785774,21.487871 57.587227,19.574097 
	C55.936272,14.253232 51.027355,12.592967 47.452522,9.175924 
	C46.848942,8.725374 46.517216,8.457430 45.948021,7.991180 
	C44.923645,7.162867 44.081131,6.612521 42.995201,5.892038 
	C42.263859,5.388002 41.779602,5.048797 40.988701,4.636498 
	C40.172020,4.238204 39.632603,3.955054 38.801163,3.549927 
	C37.771572,2.966596 37.062729,2.487247 36.882530,1.303771 
z"/>
<path fill="#FEFEFE" opacity="1.000000" stroke="none" 
	d="
M26.082920,64.660828 
	C18.528152,65.000000 11.055134,64.927879 3.585257,65.049210 
	C1.645148,65.080719 0.914485,64.913712 0.928978,62.602779 
	C1.052886,42.844673 1.062088,23.085012 0.921330,3.327129 
	C0.903758,0.860535 1.859542,0.946489 3.655019,0.964432 
	C11.790213,1.045730 19.926676,1.000000 28.531342,1.000000 
	C28.821436,3.818932 25.990147,3.315467 24.256294,4.721265 
	C23.773144,5.005527 23.583069,5.122069 22.851566,5.618768 
	C20.252182,7.947380 17.287724,8.575583 15.207083,11.023853 
	C14.899199,11.475398 14.770952,11.655718 14.411894,12.081759 
	C13.066492,13.081027 11.745731,13.533832 10.634581,14.844797 
	C9.855321,15.650669 9.195477,16.128338 8.688224,17.106003 
	C8.593524,17.591095 8.574333,17.792625 8.482277,18.626825 
	C7.773651,21.194757 7.154163,23.137884 5.531246,24.962418 
	C2.339928,29.494047 3.367794,34.269554 3.695154,39.282951 
	C4.639481,44.037533 5.845876,48.297325 9.140698,52.035751 
	C10.743147,54.614883 12.339274,56.702850 15.357143,57.721848 
	C17.642416,58.563877 19.280939,59.852665 21.312416,61.154900 
	C22.860083,62.741482 25.126251,62.589973 26.082920,64.660828 
z"/>
<path fill="#B60A6C" opacity="1.000000" stroke="none" 
	d="
M26.464651,65.000000 
	C24.979607,63.043373 22.130421,64.942894 21.135040,62.394104 
	C21.847254,61.066002 23.045784,60.640968 24.120161,60.933571 
	C29.931683,62.516327 35.686218,62.058338 41.468678,60.833038 
	C42.422630,60.630898 43.411926,60.960617 44.588470,61.787117 
	C43.810913,63.793137 41.904209,63.821762 40.116188,64.668137 
	C35.643101,65.000000 31.286201,65.000000 26.464651,65.000000 
z"/>
<path fill="#B7116F" opacity="1.000000" stroke="none" 
	d="
M22.705151,4.370065 
	C24.699905,2.891833 26.611269,2.045553 28.862762,1.332456 
	C29.750000,1.000000 30.500000,1.000000 31.625000,1.000000 
	C32.361862,1.377138 32.552052,1.826894 32.489613,2.716949 
	C30.497499,5.725786 26.969767,5.338225 24.298683,7.360839 
	C23.432884,7.617619 22.925005,7.611403 22.090176,7.274367 
	C21.504183,6.592812 21.437288,6.093129 21.735752,5.220427 
	C21.910801,4.872950 21.953264,4.960611 21.907391,4.944252 
	C22.052225,4.808687 22.242929,4.689479 22.705151,4.370065 
z"/>
<path fill="#B90E71" opacity="1.000000" stroke="none" 
	d="
M32.288921,3.204254 
	C31.996206,2.463909 31.997753,2.045650 31.999649,1.313696 
	C33.388889,1.000000 34.777779,1.000000 36.583336,1.000001 
	C37.611244,1.454992 38.222488,1.909983 38.650864,2.959807 
	C36.501785,4.502472 34.540169,4.495753 32.288921,3.204254 
z"/>
<path fill="#FDA4FA" opacity="1.000000" stroke="none" 
	d="
M45.107754,61.804188 
	C44.243858,62.034821 43.541187,61.818676 42.932808,61.973370 
	C35.914425,63.757957 28.905691,63.628010 21.465744,62.023888 
	C19.245995,61.047066 17.450165,60.042904 15.306588,58.980125 
	C13.591259,56.807533 11.160330,55.700409 9.665354,53.231834 
	C8.563577,51.613132 6.838278,50.479561 8.800573,48.410797 
	C10.555711,47.899944 11.800797,48.286182 12.779529,49.318939 
	C16.665546,53.419460 21.609060,55.741302 27.072121,57.899376 
	C30.813490,60.605942 34.321442,59.656708 38.140053,58.130859 
	C41.795361,55.574528 46.129578,55.213131 49.721920,52.471230 
	C51.042206,51.966122 52.035717,51.919651 53.384510,52.376518 
	C55.114628,55.714745 52.246010,56.247791 50.319141,57.777931 
	C49.075806,60.015564 47.556091,61.255123 45.107754,61.804188 
z"/>
<path fill="#FDA2FC" opacity="1.000000" stroke="none" 
	d="
M57.763565,18.783312 
	C60.263432,19.586020 59.759529,21.887030 60.885742,23.549803 
	C61.950893,31.002989 63.583485,38.198719 59.554146,45.265247 
	C55.333939,43.951832 57.183594,40.555279 56.569794,37.592514 
	C56.160023,34.873352 55.653419,32.580601 55.386116,29.869858 
	C55.849277,27.325485 55.216969,25.202162 55.120163,22.698601 
	C55.738590,20.966112 54.861164,18.683861 57.763565,18.783312 
z"/>
<path fill="#B91172" opacity="1.000000" stroke="none" 
	d="
M58.042564,18.629807 
	C55.335438,18.739222 57.422569,21.004057 56.345272,21.884068 
	C55.904770,22.163124 55.724056,22.296391 55.214287,22.355637 
	C53.794270,21.473261 53.175850,20.248844 52.040131,19.040621 
	C51.696789,18.612909 51.566521,18.436869 51.255222,17.989538 
	C50.465809,16.163418 48.593025,16.043968 47.593628,14.468248 
	C47.156410,12.181716 45.609715,10.392859 46.794838,7.985211 
	C52.028492,9.868785 56.075733,12.972537 58.042564,18.629807 
z"/>
<path fill="#B40568" opacity="1.000000" stroke="none" 
	d="
M58.659737,45.392052 
	C62.684437,38.431690 60.798267,31.300301 60.700989,24.055136 
	C64.690201,32.345325 63.730251,40.608974 59.427158,48.877514 
	C58.876518,49.116989 58.653908,49.195877 58.136330,49.076134 
	C57.106068,47.638809 57.584770,46.594929 58.659737,45.392052 
z"/>
<path fill="#BA299B" opacity="1.000000" stroke="none" 
	d="
M46.995712,7.540744 
	C46.077770,10.083958 49.079048,11.416763 48.285889,13.865675 
	C47.431015,14.662210 46.688557,14.859594 45.486923,14.843583 
	C43.584553,14.390488 41.987202,14.176995 40.604195,12.643549 
	C40.063442,11.228453 40.227623,10.181184 40.665127,8.752686 
	C40.992878,7.857366 41.269951,7.391088 41.949272,6.727732 
	C43.371662,6.054470 44.430328,6.545556 45.867275,6.775018 
	C46.544300,6.942923 46.783203,7.069026 46.995712,7.540744 
z"/>
<path fill="#B50768" opacity="1.000000" stroke="none" 
	d="
M50.385170,58.008476 
	C51.275200,56.568634 52.534466,55.134209 53.920509,53.403549 
	C54.181572,51.768471 55.072842,51.067562 56.540306,50.501488 
	C57.116268,50.488770 57.345745,50.534805 57.843285,50.807556 
	C56.303478,54.040100 54.803139,57.370079 50.385170,58.008476 
z"/>
<path fill="#B91172" opacity="1.000000" stroke="none" 
	d="
M46.055779,6.690673 
	C45.132504,6.960107 44.033615,6.963246 42.523041,6.955182 
	C41.707458,6.593824 41.512959,6.151261 41.652885,5.258911 
	C42.010612,4.794406 42.241287,4.688177 42.806652,4.763877 
	C44.054283,5.438664 44.967224,5.931520 46.055779,6.690673 
z"/>
<path fill="#B60A6B" opacity="1.000000" stroke="none" 
	d="
M58.390568,50.911659 
	C57.899628,51.020466 57.687916,51.006664 57.158695,50.971275 
	C56.751671,50.780376 56.662163,50.611057 56.629478,50.159149 
	C56.797634,49.719440 56.908962,49.562321 57.535400,49.172691 
	C58.225346,48.955818 58.400181,48.971455 58.837074,49.012596 
	C58.956020,49.621750 58.812908,50.205399 58.390568,50.911659 
z"/>
<path fill="#B90E71" opacity="1.000000" stroke="none" 
	d="
M43.007751,4.659090 
	C42.917107,4.966559 42.692875,4.987310 42.132530,5.041583 
	C41.589390,5.048775 41.382374,5.022444 41.128464,4.450984 
	C41.679100,4.061360 42.276630,4.216866 43.007751,4.659090 
z"/>
<path fill="#B90E71" opacity="1.000000" stroke="none" 
	d="
M39.051903,2.947113 
	C39.663143,3.061777 40.254070,3.197335 40.963287,3.619374 
	C41.081573,3.905855 41.037296,3.957102 41.015221,3.982782 
	C40.247261,4.579173 39.578053,4.443183 38.978821,3.399816 
	C38.992504,3.011220 39.031593,2.968006 39.051903,2.947113 
z"/>
<path fill="#FCA2FA" opacity="1.000000" stroke="none" 
	d="
M4.653455,24.453789 
	C5.802084,22.333834 6.709773,20.567797 7.781884,18.507500 
	C8.197216,17.792637 8.550284,17.501783 9.377502,17.347599 
	C10.189696,17.433329 10.598002,17.634266 11.070830,18.269224 
	C11.102168,20.061419 10.067035,21.419806 10.678761,23.311020 
	C10.617342,25.636639 10.138080,27.645340 10.947102,29.967674 
	C11.152192,32.028648 10.594593,33.635738 10.188597,35.624348 
	C9.370646,38.657417 8.644386,41.342651 10.206950,44.366943 
	C10.560504,45.149193 10.644574,45.632122 10.580466,46.503025 
	C10.378364,47.098190 10.249406,47.319408 9.823438,47.788521 
	C9.293095,48.150776 9.059763,48.265141 8.438288,48.437164 
	C4.161973,46.878666 4.598795,42.947987 3.307853,39.481178 
	C2.839218,34.263809 2.649414,29.451452 4.653455,24.453789 
z"/>
<path fill="#B70B6D" opacity="1.000000" stroke="none" 
	d="
M21.598560,5.020528 
	C21.940346,5.362340 21.969891,5.851729 22.011414,6.708571 
	C22.556511,9.160638 20.805952,9.927232 19.496294,11.256163 
	C19.004725,11.677848 18.765009,11.946463 18.509823,12.510247 
	C18.432190,13.319968 18.516304,13.862949 18.501461,15.300533 
	C18.167086,16.553793 17.901680,16.875093 17.350000,17.360489 
	C16.383974,18.000328 15.611211,18.316463 14.498129,18.595341 
	C13.992969,18.628185 13.791411,18.613255 13.308198,18.495228 
	C12.546434,18.046415 12.208520,17.570415 11.663670,16.908659 
	C11.063306,16.336224 10.613102,16.019825 9.903067,15.582266 
	C9.553432,15.275951 9.436473,15.128468 9.252129,14.706797 
	C10.468254,13.157435 11.751766,11.882261 13.431952,10.555054 
	C14.031982,10.750560 13.929715,11.200440 14.033067,11.295228 
	C14.519756,11.741587 14.877551,10.745330 14.377833,11.186608 
	C13.878116,11.627887 13.799408,10.288384 13.993893,10.663614 
	C15.446157,7.377312 19.550692,7.931573 21.598560,5.020528 
z"/>
<path fill="#B30366" opacity="1.000000" stroke="none" 
	d="
M4.488917,24.074806 
	C4.231801,29.071957 3.724029,34.053627 3.899713,39.538696 
	C3.676526,40.190083 3.520570,40.384541 3.086177,40.329441 
	C1.348554,34.586536 1.308332,29.206116 4.488917,24.074806 
z"/>
<path fill="#B60A6B" opacity="1.000000" stroke="none" 
	d="
M2.872001,40.476662 
	C2.978245,40.062344 3.148750,40.044811 3.575868,40.011452 
	C5.806658,42.433468 5.165138,46.386345 8.871142,47.965816 
	C9.309336,48.081341 9.368575,48.271648 9.247519,48.700432 
	C7.686118,50.485050 9.649122,51.219013 10.014059,52.664848 
	C9.923275,53.110233 9.718645,53.259506 9.175495,53.236279 
	C4.896614,49.955582 3.624047,45.556042 2.872001,40.476662 
z"/>
<path fill="#B70D6E" opacity="1.000000" stroke="none" 
	d="
M8.922735,53.400440 
	C9.052027,53.045689 9.267078,53.027592 9.805017,52.985229 
	C11.978298,54.517494 14.062112,55.857807 14.989172,58.581539 
	C12.312549,57.954147 10.159440,56.420734 8.922735,53.400440 
z"/>
<path fill="#B70B6D" opacity="1.000000" stroke="none" 
	d="
M10.246696,17.603943 
	C9.554747,17.923098 9.095936,18.011385 8.291716,18.156456 
	C7.946307,18.213242 7.859058,18.042707 7.935388,17.984850 
	C7.855083,17.794237 7.698450,17.661482 7.360492,17.279774 
	C7.144245,15.891154 8.170477,15.508215 8.972412,14.623260 
	C9.328316,14.518099 9.471889,14.603588 9.810118,14.846981 
	C10.328382,15.308791 10.550720,15.675971 10.691236,16.425087 
	C10.623559,16.959883 10.551697,17.166479 10.246696,17.603943 
z"/>
<path fill="#B70D6E" opacity="1.000000" stroke="none" 
	d="
M13.896013,10.449551 
	C14.090324,10.949012 14.263667,11.468103 14.437009,11.987194 
	C14.229247,11.711916 14.021485,11.436638 13.821177,10.832190 
	C13.828628,10.503019 13.875046,10.469179 13.896013,10.449551 
z"/>
<path fill="#B70B6D" opacity="1.000000" stroke="none" 
	d="
M22.715208,4.126913 
	C22.838150,4.467622 22.618771,4.683030 22.090023,4.871988 
	C22.058929,4.646585 22.256340,4.365276 22.715208,4.126913 
z"/>
<path fill="#B10060" opacity="1.000000" stroke="none" 
	d="
M7.146140,17.291653 
	C7.449996,17.135298 7.667220,17.307417 7.921278,17.737085 
	C7.712182,17.802156 7.412647,17.677320 7.146140,17.291653 
z"/>
<path fill="#FB3BB0" opacity="1.000000" stroke="none" 
	d="
M13.841187,18.348875 
	C14.796886,17.671814 15.587995,17.341291 16.700903,16.962742 
	C17.195885,16.767662 17.369068,16.620609 17.799187,16.249676 
	C18.056124,16.025795 17.995399,16.013441 18.018188,16.034485 
	C18.145931,15.861646 18.250885,15.667766 18.200066,15.182173 
	C17.701916,14.142037 17.359539,13.393614 17.012020,12.332901 
	C17.238688,11.794810 17.470112,11.568612 17.879902,11.177825 
	C19.296534,9.892163 20.534416,8.770695 21.897846,7.362624 
	C22.441378,7.020243 22.859362,6.964463 23.844719,7.120779 
	C25.025681,8.696445 24.637182,9.856853 23.558044,10.750806 
	C21.275515,12.641641 25.110367,11.482656 24.554552,12.831671 
	C24.704056,13.305322 24.729662,13.492674 24.733047,13.938593 
	C25.244843,15.222594 25.549498,13.882291 26.349022,13.971370 
	C30.583933,13.429146 34.485474,13.718166 38.768204,13.669514 
	C39.662880,13.705686 40.164169,13.775082 41.017990,13.968164 
	C42.535709,14.290206 43.638710,14.743340 45.146584,14.994643 
	C45.715172,15.052884 45.941887,15.076417 46.500580,15.175325 
	C47.459785,15.484716 48.030067,15.865474 49.037189,16.016758 
	C50.313927,16.167667 51.070259,16.584856 51.806732,17.653790 
	C52.038586,17.895969 51.989258,18.022814 51.968262,18.087543 
	C52.909153,19.406504 53.267563,20.779335 52.556419,22.701555 
	C48.641891,25.586418 45.148571,23.012983 41.853962,22.180096 
	C34.391121,20.293467 27.093332,20.332411 19.281956,21.866835 
	C17.374712,21.372181 16.119814,20.400892 14.371029,19.584362 
	C13.931191,19.139071 13.803893,18.917242 13.841187,18.348875 
z"/>
<path fill="#FB3BB0" opacity="1.000000" stroke="none" 
	d="
M38.556980,3.059592 
	C39.449604,3.368737 39.906708,3.726255 40.678478,4.046118 
	C40.945160,4.367785 41.071590,4.648433 41.584427,4.962756 
	C41.869381,5.489913 41.942352,5.904721 42.063339,6.631755 
	C42.070011,7.400845 42.028671,7.857709 41.963551,8.657537 
	C35.915623,11.715796 30.070778,12.253786 24.338835,7.299788 
	C24.022293,7.022485 23.966200,6.958585 23.938442,6.924492 
	C25.519564,3.908379 28.880733,4.481313 31.668095,3.054893 
	C34.036926,2.957433 36.079189,3.032699 38.556980,3.059592 
z"/>
<path fill="#FDFDFC" opacity="1.000000" stroke="none" 
	d="
M9.427597,48.931049 
	C9.107034,48.765984 9.146848,48.593048 9.218379,48.155579 
	C9.250097,47.891037 9.222088,47.916504 9.222523,47.905674 
	C9.323606,47.756783 9.424254,47.618725 9.680920,47.277359 
	C9.865606,46.604736 9.894276,46.135426 9.894670,45.314171 
	C9.150653,44.043449 9.015406,42.981468 9.159966,41.466339 
	C12.115695,35.876804 12.551828,35.628006 17.913900,37.810814 
	C20.883341,39.019619 23.776247,37.137684 27.025352,38.092346 
	C27.524567,38.277744 27.705248,38.323166 27.809353,38.438004 
	C32.643368,43.770435 32.642597,43.771133 38.246765,38.323830 
	C42.445877,37.250015 46.490746,38.907921 50.447803,36.527805 
	C52.657108,35.198940 54.775814,37.983704 56.408157,40.393829 
	C57.955753,46.331940 55.426697,49.984802 50.377731,52.774872 
	C47.661907,56.937439 42.544411,55.908279 39.238068,58.936806 
	C35.270191,59.738621 31.637119,60.517956 27.518393,59.269051 
	C20.368893,57.325390 15.134530,53.028790 9.427597,48.931049 
z"/>
<path fill="#CD8119" opacity="1.000000" stroke="none" 
	d="
M50.453743,53.017387 
	C52.105335,49.355511 57.090614,47.263569 55.925362,41.520302 
	C55.279102,39.802753 54.794296,38.458851 55.369659,36.576439 
	C55.966732,35.724556 56.477356,35.523178 57.467072,35.795326 
	C57.987732,38.894096 58.132347,41.781124 58.614548,44.926228 
	C58.671005,46.220486 58.389874,47.256668 58.079628,48.616516 
	C58.050514,48.940178 57.924675,48.986221 57.910477,49.051704 
	C57.896275,49.117184 57.556652,49.411991 57.441368,49.605057 
	C57.233440,49.985043 57.140789,50.171963 56.944656,50.654285 
	C56.084351,51.573975 55.327518,52.198257 54.308990,52.964935 
	C52.982704,53.080032 51.918121,53.052738 50.453743,53.017387 
z"/>
<path fill="#CC7F11" opacity="1.000000" stroke="none" 
	d="
M27.262985,59.420403 
	C30.728197,59.065426 34.364552,59.042953 38.454330,59.059952 
	C35.169201,60.827019 31.406088,62.123383 27.262985,59.420403 
z"/>
<path fill="#B80A71" opacity="1.000000" stroke="none" 
	d="
M10.339603,30.029125 
	C8.439268,27.852404 8.886299,25.813326 9.933502,23.401539 
	C10.105478,22.886868 10.293610,22.741154 10.832163,22.537693 
	C11.410662,22.535460 11.638740,22.590971 12.133081,22.867165 
	C13.546805,24.819458 15.051023,23.900303 16.405844,23.555790 
	C27.316143,20.781452 38.174049,20.768171 49.050777,23.831276 
	C50.236534,24.165211 51.871059,25.315199 53.191742,23.215778 
	C53.543293,22.489107 53.856979,22.163090 54.596573,21.946070 
	C55.134350,21.989235 55.324612,21.996422 55.800175,22.016733 
	C55.374413,24.335592 57.948036,26.375805 56.319801,28.960247 
	C55.775955,29.328354 55.539474,29.467045 54.897011,29.665569 
	C51.654888,29.423534 48.935295,28.550400 46.259663,27.687405 
	C38.603767,25.218073 30.891960,25.131945 22.707928,26.701805 
	C18.266178,27.284807 14.476821,28.723473 10.339603,30.029125 
z"/>
<path fill="#D08720" opacity="1.000000" stroke="none" 
	d="
M54.625511,29.536339 
	C55.052982,29.163643 55.245060,29.139889 55.724789,29.152897 
	C57.785198,30.884230 56.278114,33.496044 57.779957,35.645554 
	C57.474228,36.009010 57.105343,36.010948 56.459785,36.016792 
	C54.282860,34.356228 54.015083,32.214680 54.625511,29.536339 
z"/>
<path fill="#B80A71" opacity="1.000000" stroke="none" 
	d="
M47.274353,16.254387 
	C46.869827,16.081900 46.702705,16.057074 46.283249,16.008766 
	C45.740089,15.746922 45.421539,15.553560 44.891121,15.189045 
	C44.693989,14.791729 44.684956,14.604142 44.841602,14.188725 
	C45.763691,13.980846 46.520096,14.000801 47.655045,14.052593 
	C48.941608,15.643147 52.171200,14.235266 52.015564,17.539278 
	C51.251358,17.607473 50.464130,17.318975 49.359161,17.007414 
	C48.615761,16.568977 48.061886,16.490437 47.274353,16.254387 
z"/>
<path fill="#FB3CB0" opacity="1.000000" stroke="none" 
	d="
M54.943451,21.649647 
	C54.637486,22.089958 54.392120,22.277843 54.106281,22.757679 
	C53.619648,23.365992 53.157619,23.503733 52.309258,23.156076 
	C51.995148,21.599819 51.990284,20.270433 51.966347,18.546661 
	C53.569092,18.617321 54.605293,19.636642 54.943451,21.649647 
z"/>
<path fill="#FB3CB0" opacity="1.000000" stroke="none" 
	d="
M24.007725,7.384374 
	C24.354059,7.025452 24.775660,6.895864 25.004383,7.050874 
	C30.033058,10.458878 35.596935,9.359298 41.506569,9.000311 
	C41.634441,9.789141 41.329113,10.577780 40.980389,11.681912 
	C40.135124,12.872035 39.081238,13.158970 37.550552,13.306047 
	C34.007820,13.409564 30.864094,13.178783 27.353359,13.575474 
	C26.252325,13.918172 25.494095,14.044074 24.378407,14.111895 
	C23.816523,13.614626 23.502478,12.857648 23.447010,12.876144 
	C22.515640,13.186707 21.590858,14.796116 20.662781,13.413484 
	C19.653238,11.909484 21.385410,11.173085 22.297405,10.447600 
	C23.227680,9.707576 24.073959,9.059143 24.007725,7.384374 
z"/>
<path fill="#B70F72" opacity="1.000000" stroke="none" 
	d="
M36.810028,12.456501 
	C38.083839,12.139198 39.122726,12.084638 40.549301,12.013741 
	C41.771099,13.420450 43.482616,12.656816 44.787514,13.707577 
	C45.007286,13.960893 45.006489,14.436834 45.008244,14.674799 
	C44.372662,15.600833 43.546711,15.471778 42.382507,15.245243 
	C41.570919,15.037481 41.119160,15.020671 40.328495,14.992653 
	C39.233498,14.236583 38.240105,14.586852 37.050400,14.247203 
	C36.539989,13.645765 36.491852,13.190461 36.810028,12.456501 
z"/>
<path fill="#B50768" opacity="1.000000" stroke="none" 
	d="
M57.468941,49.733479 
	C57.238323,49.534702 57.319466,49.342598 57.732895,49.169495 
	C57.868855,49.335945 57.774025,49.519829 57.468941,49.733479 
z"/>
<path fill="#EABA53" opacity="1.000000" stroke="none" 
	d="
M9.899029,30.271946 
	C13.224352,27.237982 16.954788,26.001596 21.811537,26.104290 
	C23.458500,27.211285 24.226833,28.284950 24.274448,30.025627 
	C23.936350,30.742569 23.621586,31.067228 22.935015,31.468954 
	C21.659378,31.902203 20.627802,31.349529 19.372602,31.994406 
	C20.091494,33.667629 21.814018,33.999115 23.396706,34.990101 
	C25.136768,35.958496 27.050388,35.691280 28.320023,37.486233 
	C28.410250,38.075977 28.379560,38.319073 28.102016,38.834473 
	C25.557699,39.086823 23.297991,38.774559 21.022272,39.806572 
	C19.747862,40.384502 17.858093,40.470848 16.834637,39.129871 
	C13.368598,34.588528 12.269820,38.511272 10.367027,40.926430 
	C8.613802,39.909889 9.097994,38.336044 9.202785,36.443916 
	C8.408049,34.146168 10.220870,32.541782 9.899029,30.271946 
z"/>
<path fill="#D38B2A" opacity="1.000000" stroke="none" 
	d="
M8.953240,36.417725 
	C10.528749,37.268333 9.790347,38.902966 10.044329,40.728394 
	C10.042880,42.141949 10.014127,43.168728 9.925884,44.578865 
	C6.387977,42.652653 7.945344,39.661694 8.953240,36.417725 
z"/>
<path fill="#B10060" opacity="1.000000" stroke="none" 
	d="
M11.237661,22.687307 
	C10.819351,22.987822 10.638744,22.992048 10.187742,23.014427 
	C8.179137,21.560392 9.063441,20.360176 10.903301,19.335583 
	C11.982910,20.448513 11.994081,21.421238 11.237661,22.687307 
z"/>
<path fill="#B10060" opacity="1.000000" stroke="none" 
	d="
M10.261763,17.933973 
	C10.013557,17.834810 10.001863,17.415800 10.000576,17.206215 
	C10.403728,16.567636 10.858366,16.217375 11.735792,16.054945 
	C12.336446,16.495089 12.646643,16.954954 12.977245,17.707085 
	C13.140625,18.204769 13.283600,18.410189 13.224028,18.931433 
	C12.558875,19.460957 12.077501,19.531948 11.278425,19.209511 
	C10.982470,18.981457 10.960135,18.965939 10.950359,18.956245 
	C10.797045,18.642082 10.653505,18.337608 10.261763,17.933973 
z"/>
<path fill="#FDA4FA" opacity="1.000000" stroke="none" 
	d="
M9.672296,47.158749 
	C9.924581,47.372818 9.855380,47.629036 9.426146,47.868774 
	C9.198994,47.625687 9.293894,47.408558 9.672296,47.158749 
z"/>
<path fill="#B70D6E" opacity="1.000000" stroke="none" 
	d="
M11.857824,15.784294 
	C11.549425,16.345306 11.072602,16.655390 10.297534,16.981052 
	C9.999890,16.553989 10.000494,16.111345 10.002935,15.336794 
	C10.566316,15.181044 11.127858,15.357203 11.857824,15.784294 
z"/>
<path fill="#B70D6E" opacity="1.000000" stroke="none" 
	d="
M17.834747,16.110592 
	C17.972185,16.358694 17.785059,16.616724 17.258724,16.857300 
	C17.135569,16.605957 17.332458,16.366182 17.834747,16.110592 
z"/>
<path fill="#B70D6E" opacity="1.000000" stroke="none" 
	d="
M18.035217,15.181704 
	C18.403864,15.119893 18.858109,15.312141 18.231823,15.954676 
	C18.036034,15.861334 18.031088,15.667141 18.035217,15.181704 
z"/>
<path fill="#B70D6E" opacity="1.000000" stroke="none" 
	d="
M13.176281,19.020081 
	C12.966950,18.821592 12.990850,18.410810 12.994250,18.205082 
	C13.165628,17.999468 13.333606,17.999582 13.753680,18.001017 
	C14.005778,18.002337 13.974010,18.483595 13.937799,18.722013 
	C13.729594,19.046478 13.557602,19.132523 13.176281,19.020081 
z"/>
<path fill="#B70D6E" opacity="1.000000" stroke="none" 
	d="
M17.826248,11.114483 
	C17.859964,11.278640 17.661280,11.543649 17.234734,11.914635 
	C17.202532,11.752186 17.398190,11.483760 17.826248,11.114483 
z"/>
<path fill="#BB2B9E" opacity="1.000000" stroke="none" 
	d="
M51.591259,22.953815 
	C52.445263,22.949011 52.890511,22.968819 53.670166,22.979141 
	C54.224277,23.923216 54.443985,24.876776 54.672020,25.866459 
	C53.821617,27.042086 52.817215,26.081173 52.091095,25.832031 
	C39.306156,21.445333 26.490128,21.770811 13.748287,25.766314 
	C10.730184,26.712711 11.118802,25.756033 11.917480,23.476528 
	C13.274166,21.376120 15.229909,20.917990 17.646362,20.841557 
	C29.335243,17.064871 40.229504,20.511484 51.591259,22.953815 
z"/>
<path fill="#FB3CB0" opacity="1.000000" stroke="none" 
	d="
M17.931076,20.627392 
	C16.258169,21.781721 14.670166,22.964378 12.297464,23.122971 
	C11.930695,23.163952 11.472991,23.034573 11.236475,23.009085 
	C11.043863,21.913563 11.087767,20.843527 11.057070,19.377476 
	C11.425304,18.990704 11.868139,18.999949 12.638962,18.915394 
	C12.966950,18.821592 13.429935,18.924959 13.665761,18.942696 
	C15.277117,19.228767 17.020121,18.382219 17.931076,20.627392 
z"/>
<path fill="#EF61B9" opacity="1.000000" stroke="none" 
	d="
M36.663040,13.655161 
	C37.887455,14.065917 38.748787,14.251958 39.799850,14.709721 
	C35.296146,14.999208 30.602705,15.016973 25.441967,15.054360 
	C24.799467,15.191484 24.624266,15.308986 24.206419,15.223383 
	C23.971075,14.851974 23.978380,14.683665 23.997963,14.263054 
	C24.529497,13.724524 25.048752,13.438298 25.844387,13.043133 
	C29.509058,13.197576 32.940197,12.581977 36.663040,13.655161 
z"/>
<path fill="#FB3CB0" opacity="1.000000" stroke="none" 
	d="
M42.260136,15.317216 
	C42.769009,15.020307 43.515339,14.986323 44.635834,14.932552 
	C45.270546,15.122264 45.531090,15.331763 45.911274,15.763273 
	C44.853138,15.850236 43.675369,15.715188 42.260136,15.317216 
z"/>
<path fill="#FB3CB0" opacity="1.000000" stroke="none" 
	d="
M23.814816,15.152430 
	C24.132586,15.025273 24.301401,15.030265 24.722443,15.054620 
	C24.588699,15.456788 24.313305,16.526798 23.814816,15.152430 
z"/>
<path fill="#FB3CB0" opacity="1.000000" stroke="none" 
	d="
M47.213566,16.334381 
	C47.593769,16.236017 48.150589,16.365309 48.874413,16.739475 
	C48.491005,16.843578 47.940594,16.702808 47.213566,16.334381 
z"/>
<path fill="#EABA53" opacity="1.000000" stroke="none" 
	d="
M54.541855,28.995676 
	C55.260086,31.204988 55.659271,33.222580 56.120789,35.630436 
	C56.104988,37.438385 56.026859,38.856068 55.919849,40.699348 
	C55.038254,40.175339 54.303757,39.064762 53.296780,38.325195 
	C52.435040,37.692295 50.752777,36.443504 50.335007,37.177197 
	C47.184494,42.710152 42.568401,37.975899 38.420265,39.087151 
	C35.271717,39.259655 32.750946,38.089607 29.738947,37.811214 
	C28.350771,37.082306 28.050629,35.741177 26.665995,34.979652 
	C26.043116,34.440533 25.740805,34.083565 25.351292,33.364098 
	C25.035889,32.366520 25.028286,31.685461 25.267113,30.694138 
	C26.797184,27.438351 22.999361,28.258867 22.393620,26.375923 
	C22.149376,26.152010 22.038668,26.033981 21.985088,25.973343 
	C33.111145,22.231766 43.697720,25.174520 54.541855,28.995676 
z"/>
<path fill="#020202" opacity="1.000000" stroke="none" 
	d="
M28.783104,37.150318 
	C31.855192,37.357327 35.024265,35.823822 37.641350,38.949223 
	C37.014595,41.835762 35.269463,44.474236 32.528461,44.621864 
	C30.274120,44.743275 28.554644,42.356560 27.919392,39.465004 
	C27.908018,38.944996 27.960875,38.783222 28.030823,38.366737 
	C28.185757,37.792416 28.344589,37.483585 28.783104,37.150318 
z"/>
<path fill="#C31B7E" opacity="1.000000" stroke="none" 
	d="
M37.020172,13.598249 
	C33.621311,13.784415 30.166206,14.615641 26.473476,13.130257 
	C29.323355,11.084238 32.798992,12.332744 36.592377,12.122513 
	C37.034710,12.568048 37.024467,12.942336 37.020172,13.598249 
z"/>
<path fill="#030201" opacity="1.000000" stroke="none" 
	d="
M25.764500,32.886570 
	C25.959206,33.481487 26.108503,33.744949 26.628948,33.987759 
	C28.041237,37.544910 25.248205,36.108818 23.457321,36.297310 
	C22.176630,35.730747 21.255989,35.408852 20.484241,34.872654 
	C19.005083,33.844963 16.076273,33.321266 17.186930,30.932312 
	C18.289862,28.559973 20.467146,30.604591 22.553257,31.076881 
	C24.116112,31.117577 24.884014,31.809694 25.764500,32.886570 
z"/>
<path fill="#FDFCF6" opacity="1.000000" stroke="none" 
	d="
M22.117731,26.471275 
	C24.102167,26.897772 27.269415,26.239649 26.304787,30.099152 
	C25.583225,30.443113 25.134098,30.504677 24.385101,30.175949 
	C23.436172,28.898045 22.761129,27.844294 22.117731,26.471275 
z"/>
<path fill="#F4C359" opacity="1.000000" stroke="none" 
	d="
M23.284691,36.394001 
	C24.247084,35.426414 26.283529,37.128536 26.910631,34.434258 
	C28.431906,34.027344 29.017172,34.923374 29.024742,36.742996 
	C28.869753,37.391861 28.697294,37.668411 28.286373,38.028492 
	C26.977585,36.297424 24.929241,37.475399 23.284691,36.394001 
z"/>
<path fill="#F4C359" opacity="1.000000" stroke="none" 
	d="
M23.856659,30.084524 
	C24.533003,29.993635 24.954790,30.035477 25.689484,30.133652 
	C25.994995,30.926571 25.987602,31.663157 25.966919,32.768166 
	C24.800003,33.127987 23.933949,32.551899 23.065725,31.438221 
	C23.162014,30.832796 23.382057,30.525024 23.856659,30.084524 
z"/>
<path fill="#030201" opacity="1.000000" stroke="none" 
	d="
M43.493477,31.213022 
	C45.529697,30.503593 47.726635,28.568172 48.795959,30.966969 
	C49.888477,33.417809 46.830784,33.757824 45.387302,34.835217 
	C45.268761,34.923695 45.074230,34.968491 44.925617,34.949696 
	C43.161438,34.726528 40.953434,37.595043 39.796707,34.981575 
	C38.753334,32.624214 41.919857,32.547558 43.493477,31.213022 
z"/>
<path fill="#FCF9F2" opacity="1.000000" stroke="none" 
	d="
M41.654682,26.990112 
	C44.426815,27.028282 43.394722,28.210011 42.550686,28.947292 
	C41.478184,29.884148 40.206795,30.944698 38.705597,30.573975 
	C37.962887,30.390562 38.049206,29.210424 38.420704,28.414207 
	C38.995419,27.182459 40.080837,26.955784 41.654682,26.990112 
z"/>
</svg>