<svg width="14" height="14" viewBox="0 0 14 14" fill="none" xmlns="http://www.w3.org/2000/svg">
<path d="M3.19062 9.39023C2.87563 9.39023 2.60514 9.32107 2.37917 9.18274C2.15456 9.04442 1.98132 8.85337 1.85943 8.60959C1.73891 8.36444 1.67865 8.08231 1.67865 7.76321C1.67865 7.44274 1.74028 7.15992 1.86354 6.91478C1.98679 6.66826 2.16073 6.47652 2.38533 6.33957C2.61131 6.20124 2.87837 6.13208 3.18651 6.13208C3.44262 6.13208 3.66928 6.17933 3.86649 6.27383C4.06508 6.36696 4.22326 6.49912 4.34104 6.67031C4.45882 6.84014 4.52593 7.03872 4.54236 7.26607H3.83157C3.80281 7.11405 3.73433 6.98736 3.62614 6.88602C3.51931 6.7833 3.3762 6.73194 3.19679 6.73194C3.04477 6.73194 2.91124 6.77303 2.79619 6.8552C2.68115 6.936 2.59145 7.05242 2.52708 7.20444C2.46408 7.35645 2.43258 7.5386 2.43258 7.75088C2.43258 7.9659 2.46408 8.15079 2.52708 8.30555C2.59008 8.45894 2.67841 8.5774 2.79209 8.66095C2.90713 8.74312 3.04203 8.7842 3.19679 8.7842C3.30635 8.7842 3.40427 8.76366 3.49055 8.72257C3.5782 8.68012 3.65147 8.61917 3.71037 8.53974C3.76926 8.46031 3.80966 8.36375 3.83157 8.25008H4.54236C4.52456 8.47332 4.45882 8.67122 4.34515 8.84378C4.23148 9.01497 4.07672 9.14919 3.88087 9.24643C3.68503 9.34229 3.45495 9.39023 3.19062 9.39023Z" fill="#141414"/>
<path d="M7.80817 7.00722L7.13025 7.08118C7.11107 7.0127 7.07752 6.94833 7.02959 6.88807C6.98302 6.82781 6.92002 6.77919 6.84059 6.74221C6.76116 6.70524 6.66392 6.68675 6.54888 6.68675C6.39412 6.68675 6.26401 6.7203 6.15856 6.78741C6.05447 6.85452 6.00311 6.94148 6.00448 7.04831C6.00311 7.14007 6.03667 7.21471 6.10514 7.27223C6.17499 7.32975 6.29003 7.377 6.45027 7.41398L6.9885 7.52902C7.28706 7.59339 7.50893 7.69542 7.6541 7.83511C7.80064 7.9748 7.87459 8.15764 7.87596 8.38361C7.87459 8.5822 7.81639 8.7575 7.70135 8.90952C7.58767 9.06017 7.42949 9.17795 7.2268 9.26286C7.02411 9.34777 6.79128 9.39023 6.52833 9.39023C6.14212 9.39023 5.83123 9.30942 5.59567 9.14782C5.36011 8.98484 5.21973 8.75818 5.17454 8.46784L5.89971 8.39799C5.93258 8.54043 6.00243 8.64794 6.10925 8.72052C6.21608 8.79311 6.35508 8.8294 6.52628 8.8294C6.70295 8.8294 6.8447 8.79311 6.95152 8.72052C7.05972 8.64794 7.11381 8.55823 7.11381 8.45141C7.11381 8.36102 7.07889 8.28638 7.00904 8.22748C6.94057 8.16859 6.83374 8.1234 6.68857 8.0919L6.15034 7.97891C5.84767 7.91591 5.62375 7.80977 5.47858 7.66049C5.33341 7.50984 5.2615 7.31948 5.26287 7.08939C5.2615 6.89492 5.31423 6.72646 5.42106 6.58403C5.52925 6.44023 5.67922 6.3293 5.87095 6.25123C6.06406 6.1718 6.28661 6.13208 6.5386 6.13208C6.90838 6.13208 7.19941 6.21083 7.41169 6.36833C7.62534 6.52583 7.7575 6.73879 7.80817 7.00722Z" fill="#141414"/>
<path d="M11.6328 6.17317L10.509 9.3286H9.68732L8.56361 6.17317H9.35657L10.0817 8.51714H10.1146L10.8418 6.17317H11.6328Z" fill="#141414"/>
<path fill-rule="evenodd" clip-rule="evenodd" d="M11.8331 2.43375L10.09 0.658881C9.67866 0.240087 9.10015 0 8.50226 0H2.91527C2.17161 0 1.56675 0.583865 1.56675 1.3017V3.91589H1.34852C0.604867 3.91589 0 4.49976 0 5.21759V10.0787C0 10.7965 0.604867 11.3804 1.34852 11.3804H1.56675V12.6983C1.56675 13.4161 2.17161 14 2.91527 14H11.0847C11.8284 14 12.4333 13.4161 12.4333 12.6983V11.3804H12.6515C13.3951 11.3804 14 10.7965 14 10.0787V5.21759C14 4.49976 13.3951 3.91589 12.6515 3.91589H12.4333V3.88675C12.4333 3.3439 12.2201 2.82773 11.8331 2.43375ZM2.58513 1.3017C2.58513 1.12606 2.73331 0.983025 2.91527 0.983025H8.50226C8.82167 0.983025 9.13119 1.11147 9.35095 1.33523L11.0941 3.1101C11.301 3.32079 11.4149 3.59644 11.4149 3.88675V3.91589H2.58513V1.3017ZM12.9816 10.0787C12.9816 10.2543 12.8334 10.3974 12.6515 10.3974H1.34852C1.16656 10.3974 1.01839 10.2543 1.01839 10.0787V5.21759C1.01839 5.04195 1.16656 4.89892 1.34852 4.89892H12.6515C12.8334 4.89892 12.9816 5.04195 12.9816 5.21759V10.0787ZM11.4149 12.6983C11.4149 12.8739 11.2667 13.017 11.0847 13.017H2.91527C2.73331 13.017 2.58513 12.8739 2.58513 12.6983V11.3804H11.4149V12.6983Z" fill="#141414"/>
</svg>
