<svg version="1.1" id="Layer_1" xmlns="http://www.w3.org/2000/svg" xmlns:xlink="http://www.w3.org/1999/xlink" x="0px" y="0px"
	 width="100%" viewBox="0 0 100 100" enable-background="new 0 0 100 100" xml:space="preserve">
<path fill="#87D991" opacity="1.000000" stroke="none" 
	d="
M100.743919,41.711384 
	C101.000000,50.354233 101.000000,58.708466 101.000000,67.531349 
	C98.591438,75.692467 94.414520,82.343651 88.867561,88.119293 
	C86.989403,90.074883 85.175163,92.690590 81.453926,90.934387 
	C79.231384,85.991608 79.965134,81.207733 80.519394,76.046921 
	C80.912300,71.806274 84.500183,69.369392 84.977737,65.196106 
	C84.280113,61.959881 85.253647,59.335632 86.235451,56.323498 
	C86.889923,52.572422 86.608498,49.083755 87.855446,45.418983 
	C89.089714,43.593166 90.617744,42.560104 91.496490,40.872570 
	C92.539818,38.868965 93.479385,36.341961 96.317513,36.417759 
	C99.382042,36.499599 99.169708,39.678280 100.743919,41.711384 
z"/>
<path fill="#000000" opacity="1.000000" stroke="none" 
	d="
M67.772461,1.301954 
	C78.098785,1.000000 88.199516,1.106566 98.294952,0.922660 
	C100.721245,0.878461 101.099129,1.491114 101.064201,3.760634 
	C100.913910,13.526000 101.000000,23.295004 101.000000,33.531342 
	C98.793449,35.717690 97.509666,34.440056 96.431580,32.574287 
	C95.698311,31.305277 96.041595,29.714384 95.054642,28.162878 
	C92.908966,23.702198 89.643867,20.462505 86.760757,16.557997 
	C85.865067,15.773104 85.409485,15.018771 84.456680,14.315825 
	C83.853096,13.885749 83.509216,13.636682 82.891479,13.217439 
	C80.798569,12.212001 79.486900,10.689301 77.579376,9.420969 
	C74.907639,6.832450 71.207748,7.013006 68.397827,4.664575 
	C67.506676,3.564287 67.193291,2.653849 67.772461,1.301954 
z"/>
<path fill="#000000" opacity="1.000000" stroke="none" 
	d="
M81.680283,91.048248 
	C87.352287,89.140297 89.637047,84.109047 92.892151,80.128319 
	C95.329163,77.148048 98.136169,74.176933 97.786964,69.744026 
	C97.650703,68.014290 99.475761,68.007919 100.752274,67.663544 
	C101.000000,78.098785 100.893425,88.199516 101.077332,98.294952 
	C101.121529,100.721237 100.508888,101.099136 98.239365,101.064209 
	C88.474007,100.913918 78.704994,101.000000 68.468658,101.000000 
	C66.642532,98.884254 68.355583,98.008224 69.674637,97.099785 
	C71.172501,96.068184 72.834625,95.294670 74.770020,94.291183 
	C77.226120,93.199890 78.782082,91.092056 81.680283,91.048248 
z"/>
<path fill="#000000" opacity="1.000000" stroke="none" 
	d="
M1.293122,34.232952 
	C1.000000,23.902264 1.105156,13.802635 0.923437,3.708171 
	C0.879937,1.291801 1.477720,0.897343 3.756989,0.934863 
	C13.190022,1.090141 22.627094,1.000000 32.531342,1.000000 
	C34.401871,4.768582 31.058414,5.464106 29.038336,6.645039 
	C20.466848,11.655909 13.097256,17.843092 8.101422,26.584936 
	C7.114149,28.312492 6.220405,30.042227 5.600713,31.952620 
	C5.010217,33.773003 3.970408,35.307274 1.293122,34.232952 
z"/>
<path fill="#000000" opacity="1.000000" stroke="none" 
	d="
M32.223732,100.720909 
	C22.565426,101.000000 13.128462,100.884300 3.697908,101.079010 
	C1.252106,101.129494 0.903958,100.483223 0.937529,98.233223 
	C1.083202,88.469788 1.000000,78.702927 1.000000,68.468658 
	C3.820559,66.292633 5.097955,67.864624 5.369082,70.386719 
	C5.769692,74.113319 7.862001,76.732941 10.540096,79.511002 
	C13.035902,84.430176 16.782888,87.692513 21.160870,90.803711 
	C23.742506,92.821548 26.133074,94.522835 28.981989,96.168762 
	C29.496805,96.431877 29.709734,96.526772 30.237213,96.782700 
	C30.955015,97.199211 31.327398,97.494133 31.903168,98.100861 
	C32.516445,99.024467 32.667336,99.704811 32.223732,100.720909 
z"/>
<path fill="#C1E2C2" opacity="1.000000" stroke="none" 
	d="
M1.000000,34.449982 
	C2.080367,33.696053 3.631817,34.806168 4.016380,32.548954 
	C5.433709,24.229864 10.839602,18.547756 16.704729,12.966333 
	C21.764587,8.151230 28.265768,5.729020 33.324364,1.271871 
	C35.700012,1.000000 38.400028,1.000000 41.550018,1.000000 
	C43.757812,3.517421 41.260654,4.643149 40.038708,6.560818 
	C38.459530,8.160630 36.743511,8.782922 35.076359,9.513117 
	C20.512831,15.891788 11.018704,26.589033 7.221063,42.170277 
	C6.700385,44.306553 6.890214,46.996971 3.472632,47.519115 
	C1.547346,46.570145 2.352897,44.706230 1.239323,43.273277 
	C1.000000,40.299988 1.000000,37.599972 1.000000,34.449982 
z"/>
<path fill="#8CDB96" opacity="1.000000" stroke="none" 
	d="
M95.672150,26.930861 
	C97.124649,28.011095 98.017082,29.095636 97.672661,30.871462 
	C97.299904,32.793484 97.910583,34.185661 100.627632,34.003021 
	C101.000000,36.370556 101.000000,38.741116 101.000000,41.555836 
	C97.354881,39.925137 95.374710,40.441185 91.968849,44.134102 
	C91.490776,44.652481 90.503685,44.701420 89.380302,44.982155 
	C88.482994,44.966923 88.005074,44.800884 87.312546,44.219620 
	C85.313065,40.093109 85.088753,35.745644 83.072784,31.613087 
	C83.339706,28.927397 84.595535,26.942860 85.413139,24.816469 
	C87.153419,20.290440 89.910866,20.065645 92.860550,23.989838 
	C93.628029,25.010862 93.887650,26.466497 95.672150,26.930861 
z"/>
<path fill="#A9D7AC" opacity="1.000000" stroke="none" 
	d="
M30.164059,98.235695 
	C29.907980,98.031342 29.444775,97.960052 29.222569,97.885651 
	C29.297972,93.382027 29.082056,88.910606 30.336590,84.227097 
	C34.570263,82.134216 37.567467,86.278633 41.748512,85.841690 
	C42.649345,86.219742 43.103832,86.541183 43.774620,87.257538 
	C46.191650,90.677391 47.491787,93.969902 46.266773,98.195808 
	C45.613800,99.655411 44.505932,99.937401 43.302830,100.745750 
	C42.555553,101.000000 42.111111,101.000000 41.333332,101.000000 
	C39.945660,99.895645 38.763546,99.785187 37.234703,100.773056 
	C35.611111,101.000000 34.222221,101.000000 32.416664,101.000000 
	C33.215515,100.165833 31.881466,99.759598 31.328560,98.982147 
	C30.783863,98.681969 30.602001,98.561012 30.164059,98.235695 
z"/>
<path fill="#AFDEB4" opacity="1.000000" stroke="none" 
	d="
M67.550018,1.000000 
	C66.830116,2.202151 68.295807,2.535167 68.886551,3.544991 
	C69.978668,5.132529 69.414467,6.012123 68.276100,6.646126 
	C67.401978,7.132960 66.404755,7.095417 65.418907,7.095024 
	C62.986691,7.094056 60.276150,6.284629 58.195576,7.486394 
	C55.546455,9.016560 60.137142,11.418365 57.785980,13.675085 
	C54.386852,14.985903 51.185516,14.290717 47.588173,14.498220 
	C45.301929,14.455381 43.456318,14.594590 41.203911,14.024117 
	C38.476528,12.097782 37.843231,9.899754 39.193993,6.830708 
	C40.580868,4.671912 42.251877,3.750578 44.743656,3.532679 
	C46.711494,3.543525 48.152969,3.116310 49.850571,2.200137 
	C52.933971,1.679843 55.750038,2.551164 58.710144,1.241166 
	C61.700016,1.000000 64.400032,1.000000 67.550018,1.000000 
z"/>
<path fill="#91D598" opacity="1.000000" stroke="none" 
	d="
M76.262527,94.731964 
	C74.138412,98.492271 69.687462,97.739754 67.676994,100.715805 
	C66.285645,101.000000 64.571281,101.000000 62.428463,101.000000 
	C61.632816,100.650246 61.257793,99.983902 61.509045,99.750031 
	C65.220871,96.294876 63.507965,92.117783 63.241493,87.752579 
	C65.091080,85.004478 67.760399,84.374130 70.818314,83.703064 
	C76.020164,85.781006 76.273651,90.066063 76.262527,94.731964 
z"/>
<path fill="#99D79F" opacity="1.000000" stroke="none" 
	d="
M63.674423,87.697021 
	C67.280609,94.809319 67.105804,95.989632 62.080437,100.672424 
	C61.250000,101.000000 60.500000,101.000000 59.375000,101.000000 
	C58.250183,100.176178 57.076389,100.021111 56.031128,98.935791 
	C54.266853,95.848045 52.540581,92.856827 54.609840,89.936653 
	C56.649910,87.057686 59.969948,86.643051 63.674423,87.697021 
z"/>
<path fill="#C1E2C2" opacity="1.000000" stroke="none" 
	d="
M10.219936,81.254936 
	C6.368170,77.918640 3.175853,74.665062 3.934714,69.317451 
	C4.144877,67.836449 2.802502,68.054146 1.426115,68.004715 
	C1.000000,65.299988 1.000000,62.599972 1.000000,59.449982 
	C1.398792,58.640598 1.859390,58.399174 2.776212,58.286964 
	C4.844266,58.819649 5.194941,60.154118 5.551639,61.695164 
	C6.444102,65.550880 7.707793,69.295433 9.991096,73.040955 
	C11.426158,75.647598 13.272231,77.725769 12.310772,80.950180 
	C11.591114,81.514503 11.083342,81.580894 10.219936,81.254936 
z"/>
<path fill="#C8ECCB" opacity="1.000000" stroke="none" 
	d="
M3.358570,58.664810 
	C2.539611,58.993019 2.099709,58.992409 1.329903,58.995899 
	C1.000000,53.977909 1.000000,48.955814 1.000000,43.466862 
	C2.889653,43.347263 2.997750,44.783554 3.014408,46.648972 
	C6.433836,50.589645 4.541966,54.497139 3.358570,58.664810 
z"/>
<path fill="#A9E3AE" opacity="1.000000" stroke="none" 
	d="
M56.625732,98.653458 
	C57.862972,99.137146 58.563519,99.495239 58.925648,100.697937 
	C53.977909,101.000000 48.955814,101.000000 43.466862,101.000000 
	C43.151947,100.139305 43.497154,99.423141 44.707153,99.056244 
	C48.595387,96.035614 52.370708,96.312431 56.625732,98.653458 
z"/>
<path fill="#C1EDC5" opacity="1.000000" stroke="none" 
	d="
M58.533138,1.000000 
	C57.062080,4.763965 53.576138,2.275073 50.447105,3.011481 
	C49.304852,3.604363 48.500412,3.928183 47.136200,3.967968 
	C45.022102,3.803932 42.902836,4.469604 42.784702,1.392311 
	C48.022091,1.000000 53.044186,1.000000 58.533138,1.000000 
z"/>
<path fill="#B7E0BB" opacity="1.000000" stroke="none" 
	d="
M42.750000,1.000000 
	C43.336281,2.887401 44.762066,3.006621 46.626713,3.015117 
	C47.445248,3.737278 47.022190,4.184403 46.254063,4.800404 
	C44.252327,5.291594 42.504192,5.585823 40.380836,5.941482 
	C39.835587,6.129857 39.665546,6.256804 39.243279,6.189593 
	C39.117935,3.991326 41.636463,3.586637 41.943466,1.332586 
	C42.000000,1.000000 42.500000,1.000000 42.750000,1.000000 
z"/>
<path fill="#A1D4A5" opacity="1.000000" stroke="none" 
	d="
M37.399994,101.000000 
	C37.905285,98.611954 39.180641,98.408150 40.910004,100.676392 
	C39.933331,101.000000 38.866661,101.000000 37.399994,101.000000 
z"/>
<path fill="#7DCD86" opacity="1.000000" stroke="none" 
	d="
M87.682693,56.748093 
	C87.060860,59.336689 85.713020,61.611996 86.934479,64.608841 
	C83.519363,69.701675 81.153168,75.278648 76.419220,79.095673 
	C75.156357,80.113930 74.214539,81.581383 72.044022,81.845245 
	C69.580994,81.429970 68.463547,80.082161 67.990196,77.692184 
	C71.887764,68.694473 76.802101,60.888927 85.602188,55.899345 
	C86.505569,55.977680 86.972107,56.180103 87.682693,56.748093 
z"/>
<path fill="#8BD694" opacity="1.000000" stroke="none" 
	d="
M76.386536,95.046768 
	C73.724312,92.173195 74.142822,88.044243 71.312141,85.095383 
	C70.292580,83.576889 71.066040,82.710632 72.418457,81.757782 
	C76.177338,79.994347 77.664551,75.945740 81.683533,74.839615 
	C82.032898,80.115486 82.067627,85.235542 82.065765,90.726501 
	C80.843086,93.182755 78.881310,94.216011 76.386536,95.046768 
z"/>
<path fill="#7ACD83" opacity="1.000000" stroke="none" 
	d="
M87.984741,56.568825 
	C87.538254,56.997128 87.098709,56.998222 86.329269,56.999462 
	C81.287109,51.068504 80.584831,43.807594 79.349663,36.740395 
	C79.121338,35.433971 79.651535,34.149620 80.922623,32.881485 
	C84.793182,32.270325 84.923203,35.391800 85.727028,37.396820 
	C86.489410,39.298447 86.675133,41.464596 87.786194,43.698887 
	C88.331039,44.143955 88.568527,44.344028 88.884224,44.797653 
	C89.494736,48.786926 88.079659,52.403740 87.984741,56.568825 
z"/>
<path fill="#93DC9B" opacity="1.000000" stroke="none" 
	d="
M82.145828,74.685318 
	C78.795364,76.765106 77.206635,80.472588 73.378258,81.951294 
	C72.869965,82.157127 72.698059,82.306740 72.208389,82.330750 
	C71.805145,81.994110 71.719666,81.783066 71.805374,81.276489 
	C78.150085,76.952789 81.648582,70.502106 86.664215,65.038208 
	C86.449959,68.601631 83.853249,71.229843 82.145828,74.685318 
z"/>
<path fill="#93DD9D" opacity="1.000000" stroke="none" 
	d="
M95.889618,26.611002 
	C95.668076,28.267664 95.011566,29.252260 93.730530,27.875324 
	C92.861069,26.940769 92.408470,25.630520 91.685509,24.544142 
	C90.961700,23.456495 90.176628,22.189169 88.621254,22.567551 
	C87.308731,22.886858 87.081200,24.150391 87.026543,25.330935 
	C86.929924,27.417641 86.145729,29.136278 84.238419,30.679384 
	C83.811195,31.086813 83.616631,31.234125 83.060257,31.325741 
	C79.889641,28.331194 77.320839,25.209637 75.349091,21.267614 
	C75.466454,20.253750 75.385841,21.093275 75.438286,20.431337 
	C76.227615,10.468599 80.441002,11.442795 86.675568,14.949852 
	C90.789825,18.056541 93.124878,22.287613 95.889618,26.611002 
z"/>
<path fill="#A5DDAB" opacity="1.000000" stroke="none" 
	d="
M58.104618,13.183998 
	C57.728859,11.982891 57.299202,11.279222 56.393829,11.102169 
	C54.286179,10.689998 53.784840,9.310472 54.183876,7.442701 
	C54.618599,5.407858 56.238377,5.244662 57.954163,4.982629 
	C61.580894,4.428756 65.284744,6.223773 68.947693,4.218883 
	C71.796295,5.277654 75.347885,5.010437 77.688347,8.027325 
	C79.049164,10.735794 77.089058,11.101251 75.586449,10.783484 
	C71.184227,9.852516 69.405464,12.132332 68.267914,16.128159 
	C65.349419,17.613873 63.093578,15.955897 60.325523,15.238945 
	C59.252254,14.733679 58.655140,14.240664 58.104618,13.183998 
z"/>
<path fill="#9CDEA3" opacity="1.000000" stroke="none" 
	d="
M68.050385,16.709175 
	C67.553360,8.293245 68.272621,7.724907 76.232033,9.506452 
	C76.940308,9.664981 77.491600,9.425281 77.904701,8.456276 
	C81.160057,7.408462 80.820244,11.733478 83.693359,12.028628 
	C84.201202,12.303524 84.384186,12.427352 84.822212,12.762817 
	C85.666183,13.442890 86.255104,13.911327 86.932823,14.653658 
	C86.754906,15.973654 87.500397,18.053799 84.982864,16.506685 
	C78.941177,12.793862 78.913811,12.862619 77.637192,19.878607 
	C77.569916,20.248362 76.956833,20.518801 76.257385,20.935051 
	C74.544128,21.912140 73.351395,21.237316 71.866699,20.439257 
	C70.714325,19.631233 69.790993,19.061777 68.739655,18.122967 
	C68.390518,17.709471 68.271362,17.527193 68.050385,16.709175 
z"/>
<path fill="#93DD9D" opacity="1.000000" stroke="none" 
	d="
M84.999146,12.724691 
	C84.784691,12.885596 84.528816,12.734580 84.163925,12.350551 
	C84.319160,12.278108 84.620094,12.376518 84.999146,12.724691 
z"/>
<path fill="#AFD9B2" opacity="1.000000" stroke="none" 
	d="
M31.136703,83.680138 
	C31.031151,86.153114 30.864927,88.309898 31.611046,90.401611 
	C32.633430,93.267845 31.752480,95.509155 29.114750,97.479202 
	C25.943350,96.825050 23.294981,95.211777 21.080544,92.422073 
	C20.355364,91.208099 20.493137,90.043686 19.750229,88.818512 
	C18.821505,85.892509 16.806793,83.962357 15.747871,81.538254 
	C14.346229,78.329605 13.488416,75.065346 18.054790,72.971642 
	C20.721529,72.757782 21.883669,74.777016 23.967590,75.801636 
	C25.581007,77.227036 26.167681,79.208015 28.456303,79.915230 
	C29.694199,81.103745 31.035313,81.804871 31.136703,83.680138 
z"/>
<path fill="#B6DABA" opacity="1.000000" stroke="none" 
	d="
M20.791643,88.704620 
	C22.610699,89.744476 22.468487,90.659271 21.099480,91.890457 
	C15.551702,90.512321 13.069595,85.822739 9.938787,81.405800 
	C10.364758,81.034340 10.841472,81.023972 11.675808,81.011787 
	C17.092577,80.932098 18.082737,85.544121 20.791643,88.704620 
z"/>
<path fill="#AFD9B2" opacity="1.000000" stroke="none" 
	d="
M29.986572,98.281845 
	C30.187679,98.134628 30.441280,98.282631 30.817253,98.639145 
	C30.665539,98.712730 30.365353,98.622536 29.986572,98.281845 
z"/>
<path fill="#B6DBB9" opacity="1.000000" stroke="none" 
	d="
M38.661598,6.145802 
	C39.160122,5.996742 39.329197,5.998049 39.751945,6.001133 
	C40.075367,8.145649 39.701096,10.338071 40.873711,12.741516 
	C41.323471,15.147351 39.467842,15.163453 38.104015,16.111036 
	C34.591160,18.961855 30.605892,20.469610 27.136232,23.390900 
	C21.349831,28.550806 17.552238,34.591274 15.502991,41.702202 
	C15.225064,42.666611 15.031738,43.620110 14.123103,44.666115 
	C13.280943,45.348701 12.599975,45.624462 11.758321,46.319496 
	C6.959383,52.569565 8.432372,59.090065 9.706995,65.676933 
	C10.239388,68.428185 12.416641,71.309685 9.364663,74.060120 
	C5.523894,69.811577 4.854187,64.548714 3.224425,59.276543 
	C2.990871,55.307262 3.002229,51.620892 3.018370,47.475689 
	C4.346876,46.700680 4.766524,45.790455 4.987836,44.506123 
	C8.346480,25.014978 19.956621,12.697039 38.661598,6.145802 
z"/>
<path fill="#6CBC74" opacity="1.000000" stroke="none" 
	d="
M82.836212,30.856331 
	C83.159790,30.803900 83.582947,30.871002 83.794357,30.905251 
	C86.274963,34.721577 87.244850,38.924896 88.014732,43.601074 
	C84.299812,41.484859 85.478737,36.392193 82.274139,33.224998 
	C81.870918,32.828308 81.724304,32.666550 81.606506,32.178257 
	C81.841537,31.457178 82.138245,31.146832 82.836212,30.856331 
z"/>
<path fill="#8AC68F" opacity="1.000000" stroke="none" 
	d="
M43.347893,88.353516 
	C42.703087,87.937248 42.458286,87.755455 42.128593,87.328674 
	C41.105221,86.166847 39.695053,86.428772 38.382141,85.518059 
	C33.508335,79.899261 27.665573,75.629753 24.122175,69.317276 
	C22.819521,66.996620 21.117254,64.860474 22.615887,61.658081 
	C25.548725,59.900440 27.929893,57.591122 31.729996,58.337204 
	C33.473804,59.812347 33.279461,61.372581 32.849751,63.006104 
	C32.292984,65.122643 32.483517,67.178947 33.706699,69.434669 
	C35.383350,72.282722 36.685059,74.988960 39.848038,76.493896 
	C40.576885,76.764473 40.974579,76.956070 41.628601,77.359619 
	C42.427269,77.898582 42.924351,78.301521 43.754501,78.784256 
	C45.277985,79.546906 46.611816,79.499863 48.293434,79.503433 
	C49.890728,79.503845 51.132721,79.504265 52.771957,79.509499 
	C54.265934,79.556999 55.376198,79.444008 56.844360,79.972839 
	C59.058346,81.741409 60.837708,83.349838 60.432083,86.518333 
	C54.965794,89.680641 49.601921,91.729210 43.347893,88.353516 
z"/>
<path fill="#A0D7A4" opacity="1.000000" stroke="none" 
	d="
M43.055374,88.438629 
	C48.472332,87.563339 54.148346,89.109940 59.737423,86.306061 
	C63.192486,83.102737 66.713676,81.035019 71.604294,81.750175 
	C72.122597,81.965843 72.306236,81.974281 72.765877,81.995117 
	C72.450058,82.826256 71.858246,83.644989 71.115829,84.727432 
	C68.806053,85.835281 66.646873,86.679420 64.238945,87.758041 
	C54.836861,89.518440 54.836861,89.518440 56.985580,98.603233 
	C53.311932,98.989967 49.621391,98.990646 45.471603,98.989159 
	C45.288418,95.426407 44.808949,92.005882 43.055374,88.438629 
z"/>
<path fill="#80AF81" opacity="1.000000" stroke="none" 
	d="
M38.725437,84.730553 
	C39.880749,85.541710 40.761860,86.081398 41.824646,86.877548 
	C38.163094,87.636803 34.977646,85.734924 31.330610,84.154915 
	C30.061348,83.214775 29.124657,82.424416 28.013500,81.377792 
	C27.994780,80.912788 28.150526,80.704063 28.647659,80.303787 
	C33.132282,79.407967 35.727489,82.073425 38.725437,84.730553 
z"/>
<path fill="#5D935F" opacity="1.000000" stroke="none" 
	d="
M57.530006,12.873253 
	C58.545341,13.041511 59.106590,13.274257 59.669266,14.049562 
	C59.110302,15.087829 58.450993,15.359426 57.361946,15.466978 
	C55.182693,15.507010 53.309635,15.330925 51.454723,16.822256 
	C50.436081,17.253620 49.711151,17.357491 48.591736,17.290787 
	C47.978508,17.153471 47.740211,17.067255 47.187614,16.765366 
	C46.523602,16.166513 46.298779,15.720515 46.209587,14.834103 
	C46.310806,14.223487 46.402428,13.989886 46.731483,13.464230 
	C50.337914,13.094029 53.706917,13.015886 57.530006,12.873253 
z"/>
<path fill="#537B55" opacity="1.000000" stroke="none" 
	d="
M46.547237,13.118673 
	C46.968914,13.172173 46.982876,13.553296 46.986526,13.743951 
	C43.887672,16.118063 40.691898,17.779617 36.854004,15.318277 
	C37.840858,13.671012 39.404869,14.196963 40.810131,13.362846 
	C42.727722,13.093909 44.426640,13.079541 46.547237,13.118673 
z"/>
<path fill="#B7E0BA" opacity="1.000000" stroke="none" 
	d="
M46.366684,4.995121 
	C46.253086,4.505286 46.505703,4.013205 46.875870,3.271315 
	C47.746655,3.015869 48.499893,3.010232 49.629719,3.009623 
	C49.649021,4.888377 48.225765,4.998226 46.366684,4.995121 
z"/>
<path fill="#B3DAB6" opacity="1.000000" stroke="none" 
	d="
M9.050159,74.350372 
	C9.831243,69.011765 7.092095,64.621849 6.560052,59.808197 
	C5.944063,54.235050 7.141632,49.573162 10.650515,45.098141 
	C13.011422,46.365932 12.363616,48.491295 12.475443,50.371552 
	C12.581893,52.161404 12.447745,53.974735 13.548233,55.961567 
	C14.713096,58.627350 14.633071,61.251865 15.941657,63.860626 
	C16.975164,66.677818 18.155567,69.014839 19.680433,71.587234 
	C19.850012,72.428909 19.793591,72.911453 19.408428,73.668579 
	C15.679018,74.611198 15.715938,76.747810 16.735697,79.471405 
	C17.882725,82.534920 20.340122,84.951447 20.990368,88.618683 
	C18.203569,86.441536 15.400896,83.896317 12.315827,81.180534 
	C11.057436,78.905975 10.081441,76.801971 9.050159,74.350372 
z"/>
<path fill="#81CE8A" opacity="1.000000" stroke="none" 
	d="
M82.089050,31.617874 
	C81.997398,31.999718 82.003174,32.495113 82.010345,32.742588 
	C79.706650,38.938080 83.262062,44.100170 84.404953,49.549431 
	C84.865616,51.745857 86.223785,53.773720 85.998932,56.590988 
	C78.887993,62.156544 74.173210,69.335770 69.250702,76.775421 
	C67.843597,77.979439 66.734497,77.946396 65.513351,76.513519 
	C65.119339,75.189751 65.383362,74.304390 66.092926,73.192825 
	C66.332596,72.706596 66.416641,72.509468 66.644081,72.033096 
	C66.895912,71.581871 67.004341,71.409889 67.452011,70.760590 
	C68.010902,69.980003 68.234406,69.679588 68.573624,69.131851 
	C68.760063,68.714104 68.835121,68.546898 69.024933,68.130539 
	C69.300705,67.551010 69.436386,67.210419 69.601334,66.577759 
	C69.696449,66.103035 69.741402,65.911942 69.866043,65.432899 
	C70.137016,64.561722 70.385017,63.993961 70.428520,63.038563 
	C69.844490,57.454678 67.779808,52.614292 66.237534,47.251369 
	C66.288170,46.628574 66.342819,46.382183 66.577400,45.801769 
	C71.864929,41.882996 74.219604,37.465706 71.720329,31.121389 
	C70.768028,28.704006 70.749496,25.960293 72.311317,23.159035 
	C75.461304,21.156815 76.599045,23.828413 78.168335,25.220058 
	C80.009499,26.852810 81.364403,28.883024 82.089050,31.617874 
z"/>
<path fill="#84CA8A" opacity="1.000000" stroke="none" 
	d="
M65.710358,74.997490 
	C66.280327,76.493195 67.141151,76.967087 68.673080,76.989471 
	C69.117516,78.672752 70.113052,79.768524 71.693726,80.823212 
	C71.976562,80.980942 71.965240,81.469887 71.952095,81.713638 
	C68.007721,82.711922 65.032379,86.083687 60.416107,86.041718 
	C59.056595,84.626343 58.084843,83.193512 57.055470,81.440903 
	C58.186230,76.860268 61.599594,75.544266 65.710358,74.997490 
z"/>
<path fill="#6AB370" opacity="1.000000" stroke="none" 
	d="
M82.226944,31.839451 
	C79.698769,28.587204 77.573784,25.013329 73.359795,22.996769 
	C72.591919,22.978180 72.180855,22.906115 71.526611,22.540699 
	C70.818169,21.861712 70.555084,21.287180 70.522591,20.309341 
	C70.768204,19.607618 71.047943,19.296511 71.730568,19.002363 
	C73.143433,19.547356 74.245567,20.160803 75.632317,20.904438 
	C78.275696,24.068518 81.302872,26.586979 83.058411,30.484058 
	C82.925354,31.095661 82.690918,31.387423 82.226944,31.839451 
z"/>
<path fill="#65A56A" opacity="1.000000" stroke="none" 
	d="
M71.823219,18.709621 
	C71.817841,19.208590 71.594391,19.483273 71.150581,19.907627 
	C70.606880,20.391262 70.218056,20.615385 69.430466,20.763618 
	C67.920471,20.653950 67.074638,19.735834 65.605431,19.453754 
	C64.343346,19.150074 63.484142,18.759256 62.333733,18.121367 
	C60.760372,17.138311 59.230198,16.540064 59.778580,14.272654 
	C59.999363,13.964096 60.028553,13.971249 60.044636,13.972830 
	C62.644753,13.904906 64.837433,15.265158 67.583984,16.003664 
	C67.948563,16.073439 67.989738,16.032383 67.963303,16.023205 
	C68.098915,16.156031 68.260963,16.298033 68.674606,16.642897 
	C69.819183,17.392284 70.712166,17.938810 71.823219,18.709621 
z"/>
<path fill="#A5DDAB" opacity="1.000000" stroke="none" 
	d="
M68.794556,16.671650 
	C68.601677,16.823034 68.344391,16.679613 68.045616,16.214764 
	C68.211922,16.125616 68.453934,16.286787 68.794556,16.671650 
z"/>
<path fill="#638862" opacity="1.000000" stroke="none" 
	d="
M19.450378,74.121330 
	C19.096525,73.544334 19.020105,73.135681 18.883198,72.421097 
	C18.931429,71.590530 19.202541,71.170006 20.004929,70.734146 
	C23.061596,71.181580 24.264891,73.076042 24.782934,75.951324 
	C24.650314,76.585251 24.547688,76.826538 24.139380,77.315300 
	C22.069399,76.968086 21.011425,75.487358 19.450378,74.121330 
z"/>
<path fill="#719A71" opacity="1.000000" stroke="none" 
	d="
M23.893291,77.859421 
	C23.868801,77.295868 23.903904,77.028961 23.984543,76.360809 
	C27.369732,75.442528 28.725985,77.415352 29.293461,80.614746 
	C28.959068,81.006042 28.734840,81.022675 28.174822,81.080414 
	C26.013458,80.827835 24.835981,79.684845 23.893291,77.859421 
z"/>
<path fill="#629264" opacity="1.000000" stroke="none" 
	d="
M12.735901,44.333321 
	C15.391132,35.805656 18.781483,28.172724 25.671078,22.258896 
	C27.254778,23.001614 27.456366,24.293800 27.395329,26.056238 
	C26.939201,28.462170 25.313141,29.836197 24.465939,32.023579 
	C23.718975,33.941643 22.582973,35.160141 21.281073,36.699520 
	C18.755352,40.159943 18.248772,44.304119 15.198074,47.436321 
	C14.317710,47.716995 13.796865,47.681530 12.959574,47.263069 
	C12.193290,46.259342 12.156424,45.477295 12.735901,44.333321 
z"/>
<path fill="#699E6B" opacity="1.000000" stroke="none" 
	d="
M26.231884,27.268124 
	C25.993902,25.646902 25.993193,24.302364 25.989126,22.555946 
	C28.809727,18.942362 33.106190,17.906021 36.569977,15.040600 
	C40.172451,16.579239 43.019512,13.622603 46.590004,13.956232 
	C47.009975,14.359540 47.029774,14.784475 47.057636,15.527829 
	C45.086948,19.025486 41.102123,18.320103 38.241554,20.514248 
	C37.467693,21.189056 36.859856,21.496292 36.003349,22.018257 
	C34.931618,22.476204 34.116764,22.727144 33.405701,23.710735 
	C32.848179,24.510015 32.368420,24.964718 31.786802,25.779537 
	C30.522943,27.065334 29.401245,27.929966 27.488052,27.909672 
	C26.907948,27.753723 26.688553,27.649265 26.231884,27.268124 
z"/>
<path fill="#BCE3BF" opacity="1.000000" stroke="none" 
	d="
M12.683939,44.038223 
	C13.003434,44.740318 13.038410,45.487820 13.130227,46.605133 
	C15.182158,49.687977 14.529072,52.675922 13.484196,56.293648 
	C8.915868,53.840435 11.948635,49.537514 10.991133,45.460407 
	C11.458841,44.696938 11.929130,44.390285 12.683939,44.038223 
z"/>
<path fill="#F4FA96" opacity="1.000000" stroke="none" 
	d="
M41.255394,79.076477 
	C40.919846,78.487144 40.736507,78.252007 40.270279,77.977966 
	C37.580185,75.702736 35.101139,73.522171 33.793400,69.925072 
	C33.302212,66.427788 33.676281,63.276031 33.338604,59.749458 
	C33.300873,59.090187 33.322319,58.824646 33.518051,58.198044 
	C34.310295,57.254955 35.057049,57.035397 36.275902,57.137989 
	C36.893276,57.340080 37.124012,57.460526 37.633644,57.847748 
	C38.447449,58.953472 38.897663,59.835361 39.340721,61.100323 
	C39.861504,63.437023 41.218189,64.848625 42.791344,66.442276 
	C43.402935,66.771843 43.748161,66.955490 44.342934,67.254242 
	C45.102352,67.538986 45.615463,67.670410 46.442123,67.585403 
	C46.920547,67.501984 47.115387,67.457870 47.600582,67.303253 
	C54.738567,61.784229 55.883121,55.432205 50.908901,48.807316 
	C50.083126,48.345150 49.587566,47.968552 48.824875,47.482712 
	C48.025337,47.184361 47.490067,47.049984 46.655731,47.353844 
	C45.810989,47.637928 45.227444,47.792576 44.414207,48.254292 
	C43.106850,48.983067 42.066841,49.497147 40.497173,49.497646 
	C39.910759,49.297619 39.695091,49.161121 39.242836,48.717491 
	C38.298740,46.915894 38.595398,45.313644 38.505669,43.354622 
	C38.270615,39.137917 40.026928,35.673794 40.478104,31.568367 
	C40.535374,27.365057 41.863426,24.159727 45.192871,21.481247 
	C45.811962,21.154394 46.077396,21.057911 46.763535,20.908638 
	C50.130325,21.534657 53.431557,21.289364 55.801025,24.420509 
	C58.196796,34.998611 61.370937,44.953686 64.419022,55.350349 
	C64.505043,57.055496 64.489944,58.364147 64.489807,60.054966 
	C64.082024,66.175697 61.345314,70.788307 57.560463,74.919731 
	C56.568661,76.002335 54.876099,76.379669 54.327538,78.378738 
	C54.052303,78.937920 53.909710,79.144814 53.472984,79.586502 
	C51.794418,80.531601 50.305828,80.555984 48.433750,80.443047 
	C46.649548,79.838425 45.117310,80.139351 43.316086,79.694656 
	C42.467510,79.527275 41.976551,79.454132 41.255394,79.076477 
z"/>
<path fill="#8BBE8E" opacity="1.000000" stroke="none" 
	d="
M46.154114,21.737062 
	C43.902336,24.459127 43.004501,27.391666 41.992592,30.666574 
	C40.234871,34.962086 38.796169,38.956135 38.938210,43.671673 
	C38.973614,44.472164 38.961479,44.929939 38.869900,45.726868 
	C38.095119,47.690144 36.453918,48.857185 36.422249,51.176979 
	C36.334728,51.742809 36.284702,51.967434 36.107738,52.513268 
	C34.793308,54.772331 34.160328,57.035484 32.221340,58.860855 
	C28.655691,58.514446 27.277386,63.116467 23.395412,61.999710 
	C20.720417,62.132465 19.599356,64.427780 17.171591,64.923050 
	C16.598005,64.841263 16.372873,64.768921 15.862493,64.479233 
	C14.793456,62.753872 13.963932,61.260822 14.012522,59.113342 
	C14.016574,58.501892 14.021626,58.257385 14.053786,57.647484 
	C14.135199,57.044559 14.189503,56.807018 14.392100,56.237320 
	C15.623547,49.310059 17.192766,42.853661 20.059280,36.395874 
	C20.163572,34.286606 21.882921,33.767555 22.852781,32.294128 
	C24.406269,30.665712 25.746229,29.277496 26.848206,27.305782 
	C28.221533,26.517387 29.335234,25.920500 30.732887,25.177059 
	C34.431705,24.419348 36.959438,22.228592 39.929592,20.033165 
	C40.526447,19.775948 40.781448,19.702469 41.440281,19.596264 
	C43.546326,19.544050 45.276108,19.455635 46.154114,21.737062 
z"/>
<path fill="#90C293" opacity="1.000000" stroke="none" 
	d="
M16.682014,64.368423 
	C17.728817,63.863594 18.601097,63.594864 18.540577,62.554367 
	C18.473217,61.396309 17.991894,60.086407 19.480091,59.571938 
	C21.215599,58.971970 21.626148,60.707195 22.755638,61.789024 
	C25.040539,69.584114 30.226936,74.976479 35.744534,80.095787 
	C37.082802,81.337456 38.530296,82.382828 38.946045,84.653679 
	C35.951504,83.700470 32.903362,82.398933 29.519260,81.043396 
	C27.653103,79.421387 26.122910,77.853371 24.311398,76.122467 
	C22.857450,74.433640 21.684820,72.907700 20.266129,71.177017 
	C17.255934,69.775864 16.703882,67.330956 16.682014,64.368423 
z"/>
<path fill="#5B631F" opacity="1.000000" stroke="none" 
	d="
M66.264740,75.075775 
	C63.197544,77.074142 60.389935,78.914436 57.290085,80.937927 
	C55.908741,81.067818 54.819633,81.014519 53.324951,80.906754 
	C52.617001,80.434334 52.511005,79.967628 52.753265,79.132141 
	C52.820694,78.652489 52.708313,78.499794 52.611462,78.063133 
	C56.358120,76.533821 58.494328,73.169533 61.929070,70.939590 
	C64.192398,70.627037 65.924660,70.961655 67.571777,72.698143 
	C67.400047,73.629784 66.962189,74.273735 66.264740,75.075775 
z"/>
<path fill="#73915A" opacity="1.000000" stroke="none" 
	d="
M31.917519,59.413929 
	C32.775711,56.797436 33.640144,54.587524 34.802734,52.195492 
	C36.883804,53.927975 36.426781,55.695782 34.456280,57.708565 
	C34.141731,58.200665 34.119843,58.367786 34.149578,58.782398 
	C33.907265,62.293327 34.051552,65.567757 33.902023,69.242828 
	C33.741688,69.901207 33.634586,70.152901 33.218182,70.674194 
	C29.570433,67.502617 31.284809,63.613941 31.917519,59.413929 
z"/>
<path fill="#CCDF7F" opacity="1.000000" stroke="none" 
	d="
M33.072731,71.248199 
	C32.950443,70.778656 32.992001,70.613533 33.109154,70.204453 
	C33.543602,69.631104 33.964180,69.500481 34.714996,69.792091 
	C35.840221,72.955109 38.679111,74.541206 39.987427,77.551865 
	C36.410183,77.259430 34.928909,74.292038 33.072731,71.248199 
z"/>
<path fill="#424E2A" opacity="1.000000" stroke="none" 
	d="
M42.852314,79.429535 
	C44.608040,79.569725 45.989178,79.692619 47.728848,80.288422 
	C46.519951,80.994713 44.954426,81.173599 43.127651,80.333725 
	C42.719341,79.849960 42.598537,79.631104 42.852314,79.429535 
z"/>
<path fill="#1B1B0B" opacity="1.000000" stroke="none" 
	d="
M48.487186,80.821976 
	C48.087376,80.761337 48.104973,80.408165 48.056000,80.238312 
	C49.405403,79.654411 50.803783,79.240356 52.567619,78.815742 
	C52.939346,79.260620 52.945618,79.716042 52.935631,80.511887 
	C51.575249,80.862396 50.231125,80.872498 48.487186,80.821976 
z"/>
<path fill="#7CA165" opacity="1.000000" stroke="none" 
	d="
M42.889130,79.254105 
	C43.226898,79.446823 43.162720,79.835632 43.001434,79.952232 
	C42.309940,79.831604 41.779736,79.594376 41.136436,79.070839 
	C41.532681,78.876823 42.042023,78.969109 42.889130,79.254105 
z"/>
<path fill="#80C085" opacity="1.000000" stroke="none" 
	d="
M59.636497,14.010485 
	C59.987099,15.671747 61.514626,15.859027 62.771622,16.768723 
	C61.478142,21.920856 57.148991,19.093517 53.819485,20.267811 
	C51.722870,20.510826 50.042957,20.557728 47.981236,20.115936 
	C47.376842,19.792450 47.160717,19.620079 46.753902,19.081375 
	C46.457127,17.832186 46.802048,17.127329 47.702232,16.235971 
	C48.701527,15.913214 49.423355,15.886602 50.506271,15.852461 
	C52.511581,14.443841 54.695683,15.445320 56.772854,14.396660 
	C57.813656,14.156003 58.543644,14.106439 59.636497,14.010485 
z"/>
<path fill="#7BB47F" opacity="1.000000" stroke="none" 
	d="
M47.750801,15.920296 
	C47.797714,16.492376 47.615730,17.044928 47.216125,17.796951 
	C45.652840,19.861345 43.243095,19.472343 41.268272,20.786236 
	C40.999153,20.997829 40.503693,21.005436 40.255943,21.008118 
	C38.995556,21.789066 38.009930,21.861118 37.048252,20.483315 
	C39.365364,17.003408 43.077953,17.055395 46.676704,15.908857 
	C47.065701,15.846249 47.521908,15.900765 47.750801,15.920296 
z"/>
<path fill="#71B075" opacity="1.000000" stroke="none" 
	d="
M56.676163,14.147446 
	C55.947540,16.838997 53.615593,15.750818 51.280334,15.891258 
	C51.987072,13.165426 54.322193,14.225240 56.676163,14.147446 
z"/>
<path fill="#567855" opacity="1.000000" stroke="none" 
	d="
M16.683655,64.008896 
	C17.828922,66.142609 18.774124,68.249016 19.869694,70.663834 
	C19.776289,71.250587 19.532516,71.528923 19.055729,71.961212 
	C16.765270,70.471794 16.047195,68.025780 14.947351,65.422470 
	C14.970446,64.670372 15.171333,64.327019 15.792105,63.978058 
	C16.088575,63.897579 16.483587,63.981583 16.683655,64.008896 
z"/>
<path fill="#435F42" opacity="1.000000" stroke="none" 
	d="
M16.019712,63.531647 
	C15.843585,64.186653 15.598595,64.475731 15.115155,64.921768 
	C13.287188,62.890186 13.004214,60.353954 12.905642,57.353783 
	C12.881565,56.945320 12.940352,57.070774 13.008980,57.061340 
	C13.198092,56.902348 13.318574,56.752792 13.725128,56.637894 
	C14.330948,56.903019 14.547127,57.207108 14.811892,57.829460 
	C15.293021,59.771278 15.621935,61.468494 16.019712,63.531647 
z"/>
<path fill="#86CA8D" opacity="1.000000" stroke="none" 
	d="
M52.719849,19.361347 
	C55.807682,17.186911 59.317013,18.699312 62.691296,17.244675 
	C63.807545,17.244907 64.614311,17.492052 65.708160,17.879429 
	C66.432724,18.457218 66.898544,18.863167 67.614967,19.478016 
	C68.841240,20.744528 70.235031,21.006405 71.751610,21.781315 
	C72.318565,22.119133 72.561935,22.305407 72.893814,22.735249 
	C72.898071,26.553635 73.120132,30.080715 74.282730,33.618992 
	C76.166786,39.353031 73.905777,43.413044 67.539772,45.985027 
	C66.776009,45.962399 66.401581,45.824936 65.828049,45.402332 
	C65.469803,45.044777 65.339981,44.888824 65.043976,44.478935 
	C64.683693,43.873013 64.503448,43.514080 64.204346,42.879971 
	C63.991589,42.429165 63.911968,42.246376 63.735085,41.781883 
	C63.559448,41.114178 63.458515,40.734253 63.197006,40.099121 
	C62.985676,39.656059 62.908070,39.475449 62.743057,39.014072 
	C62.584427,38.352150 62.509190,37.971786 62.315041,37.327473 
	C62.121666,36.886684 62.042328,36.710812 61.864395,36.262657 
	C61.663063,35.618759 61.575615,35.243614 61.404831,34.594002 
	C61.115776,33.979038 60.940861,33.627983 60.667297,32.990494 
	C60.154465,31.767092 59.702259,30.850151 58.973785,29.720520 
	C58.462864,28.671694 58.101250,27.904047 57.192844,27.109987 
	C56.291878,26.010326 56.056278,24.859411 54.916725,23.917505 
	C54.519276,23.534527 54.370548,23.370558 54.031677,22.933147 
	C53.706997,22.481895 53.572453,22.304083 53.065826,21.567438 
	C52.568188,20.570608 52.528770,20.125912 52.719849,19.361347 
z"/>
<path fill="#3A5010" opacity="1.000000" stroke="none" 
	d="
M66.883057,46.747082 
	C70.140022,51.956799 72.132545,57.239582 71.886993,63.594383 
	C71.614227,64.175720 71.411751,64.330231 70.836128,64.575851 
	C68.781174,64.639145 67.583344,63.691250 66.258942,62.256180 
	C64.779160,59.488586 66.485695,56.430042 64.221657,53.837891 
	C62.810574,49.738682 61.709988,45.908012 60.113205,41.845551 
	C59.916805,40.426552 60.401970,39.505676 60.792992,38.188095 
	C61.212212,37.427116 61.559849,37.084286 62.346649,36.762321 
	C63.509598,37.043762 63.468754,37.815807 63.856216,38.753300 
	C64.102821,39.010242 64.017418,38.987076 64.030090,38.944683 
	C64.677544,39.678436 64.398727,40.655769 64.856064,41.770191 
	C65.092247,42.017380 65.003975,41.977795 65.024323,41.933914 
	C65.398567,42.399014 65.487679,43.006725 65.885040,43.794670 
	C66.096001,44.011185 66.015091,43.981178 66.031158,43.941135 
	C66.675873,44.677422 66.395988,45.655361 66.883057,46.747082 
z"/>
<path fill="#4D5C18" opacity="1.000000" stroke="none" 
	d="
M66.660797,62.072067 
	C68.411255,62.024761 69.372940,62.943565 70.703812,63.845989 
	C71.395653,64.388123 71.544601,64.857681 71.238579,65.747215 
	C71.041779,66.085258 71.011429,66.011856 71.048431,65.997437 
	C70.245575,66.658180 70.611748,67.659225 70.223267,68.793663 
	C70.042610,69.082146 70.017723,69.013840 70.052261,69.002502 
	C69.576653,69.396828 69.511711,70.009567 69.191162,70.831436 
	C69.033119,71.085930 69.015251,71.014145 69.051384,71.006256 
	C68.811264,71.204056 68.560623,71.436989 68.185059,71.907455 
	C68.030663,72.113609 67.956596,72.554619 67.897255,72.770218 
	C66.102753,72.688454 64.367599,72.391075 62.256382,72.036285 
	C61.304672,71.037056 61.517452,70.089188 62.023552,68.816360 
	C64.471863,66.965790 63.998802,63.647728 66.660797,62.072067 
z"/>
<path fill="#1E290C" opacity="1.000000" stroke="none" 
	d="
M67.103363,46.728729 
	C66.255272,46.422874 66.016655,45.568451 66.034203,44.250397 
	C66.376541,44.397667 66.705849,44.894241 67.110260,45.695610 
	C67.185364,46.000404 67.068916,46.482941 67.103363,46.728729 
z"/>
<path fill="#283513" opacity="1.000000" stroke="none" 
	d="
M70.330338,68.887543 
	C70.207016,68.190254 70.371429,67.298355 70.810638,66.194733 
	C70.929642,66.886322 70.773849,67.789635 70.330338,68.887543 
z"/>
<path fill="#283513" opacity="1.000000" stroke="none" 
	d="
M69.299820,70.922676 
	C69.210434,70.501755 69.387756,69.917572 69.825928,69.162277 
	C69.913368,69.580582 69.739944,70.169998 69.299820,70.922676 
z"/>
<path fill="#283513" opacity="1.000000" stroke="none" 
	d="
M71.302780,65.925934 
	C71.021973,65.622131 71.002159,65.158997 70.985352,64.348206 
	C70.988350,64.000549 71.402672,64.013763 71.609688,64.017487 
	C71.732391,64.603012 71.648079,65.184814 71.302780,65.925934 
z"/>
<path fill="#283513" opacity="1.000000" stroke="none" 
	d="
M68.293457,72.024300 
	C68.225319,71.822685 68.419968,71.531761 68.851074,71.119598 
	C68.910423,71.310570 68.733330,71.622780 68.293457,72.024300 
z"/>
<path fill="#81CE8A" opacity="1.000000" stroke="none" 
	d="
M71.910629,21.736649 
	C70.328613,22.059336 68.794189,21.600422 67.230286,20.256065 
	C67.384460,19.597567 67.852959,19.446671 68.740807,19.743248 
	C69.490730,19.962809 69.902733,19.987627 70.622475,20.034872 
	C71.215607,20.534119 71.500999,21.010941 71.910629,21.736649 
z"/>
<path fill="#80C085" opacity="1.000000" stroke="none" 
	d="
M68.902649,19.673901 
	C68.616074,19.956360 68.153419,19.974731 67.344070,19.997185 
	C66.691490,19.530571 66.385590,19.059877 66.037460,18.304420 
	C67.114235,18.073290 68.030762,18.524715 68.902649,19.673901 
z"/>
<path fill="#82B385" opacity="1.000000" stroke="none" 
	d="
M19.844204,36.259350 
	C21.317774,37.544655 20.289181,39.008148 19.714968,40.208023 
	C17.202461,45.458183 17.932720,51.451565 15.365910,56.872856 
	C13.318101,54.016525 13.927770,50.896118 14.715247,47.385620 
	C16.189884,43.346024 17.266260,39.642994 19.844204,36.259350 
z"/>
<path fill="#6C9B6D" opacity="1.000000" stroke="none" 
	d="
M14.680624,46.990471 
	C14.986663,50.024193 14.993973,53.057995 15.000921,56.546066 
	C15.000561,57.000336 15.000000,57.000000 15.000109,57.000183 
	C14.837549,57.143661 14.674881,57.286957 14.269625,57.213715 
	C14.027038,56.997173 13.551171,57.004841 13.314390,57.028374 
	C13.074643,53.995693 13.071677,50.939484 13.127890,47.429111 
	C13.585343,46.980152 13.983618,46.985352 14.680624,46.990471 
z"/>
<path fill="#77AB7A" opacity="1.000000" stroke="none" 
	d="
M26.830212,27.077351 
	C27.025501,29.454210 26.034882,31.150808 23.369556,31.963318 
	C23.119041,30.094751 24.573893,28.900963 25.747799,27.207209 
	C26.180603,27.007769 26.366596,27.024096 26.830212,27.077351 
z"/>
<path fill="#83B886" opacity="1.000000" stroke="none" 
	d="
M36.742714,20.095673 
	C37.806576,20.375631 38.580540,20.682796 39.681351,21.000381 
	C37.983944,24.018242 35.528271,26.208721 31.275467,25.258156 
	C31.205698,24.489962 31.394554,23.949413 31.798985,23.212967 
	C32.736622,22.278278 33.830078,22.138756 34.793465,21.225426 
	C35.494190,20.720131 35.973507,20.421505 36.742714,20.095673 
z"/>
<path fill="#77AB7A" opacity="1.000000" stroke="none" 
	d="
M34.698143,21.056362 
	C34.802216,22.334816 33.986263,22.939411 32.355385,23.000984 
	C32.502396,22.005444 33.242081,21.303782 34.698143,21.056362 
z"/>
<path fill="#8D5022" opacity="1.000000" stroke="none" 
	d="
M43.260708,68.043335 
	C39.842598,67.639091 38.965969,65.198128 38.120323,62.408855 
	C38.613022,60.782448 40.062374,60.451771 40.895382,59.118805 
	C41.218132,58.732475 41.355934,58.588959 41.704445,58.246063 
	C42.311214,57.661167 42.696510,57.267319 42.994827,56.476177 
	C43.201782,55.633476 43.333839,55.062584 43.476372,54.173889 
	C44.042435,51.721649 42.520088,49.562683 43.743896,47.134495 
	C44.389629,46.566307 44.872894,46.286472 45.661007,45.982414 
	C46.443508,45.602879 46.975788,45.475605 47.930382,45.790333 
	C52.655056,54.572308 51.336048,60.795555 43.260708,68.043335 
z"/>
<path fill="#6F3D1E" opacity="1.000000" stroke="none" 
	d="
M50.695305,47.196239 
	C58.922359,53.390629 57.291695,64.523544 47.432014,69.036964 
	C45.582230,67.712440 45.583813,66.001266 46.778099,64.704468 
	C50.533508,60.626728 50.100395,55.701569 49.943268,50.803368 
	C49.906696,49.663273 49.635471,48.521435 50.695305,47.196239 
z"/>
<path fill="#B5CF77" opacity="1.000000" stroke="none" 
	d="
M61.286522,40.657421 
	C62.399250,44.724960 63.672279,48.505337 65.032913,52.665619 
	C65.624535,53.966892 65.410812,54.822418 64.631233,55.889305 
	C64.161705,56.203300 63.942619,56.277000 63.419014,56.184895 
	C60.299667,46.003628 56.530327,36.246590 54.937366,25.492588 
	C54.599297,24.626389 54.478725,24.115820 54.814129,23.248125 
	C55.940220,23.755337 56.806705,24.573298 57.827209,25.648380 
	C58.936329,27.300016 59.302567,28.952610 60.067223,30.809500 
	C60.365604,31.812525 60.519001,32.493271 60.927200,33.450188 
	C61.341415,34.401188 61.408749,35.072926 61.363274,36.090919 
	C61.288528,36.865681 61.296158,37.306530 61.420757,38.071037 
	C61.499973,39.054714 61.504719,39.712955 61.286522,40.657421 
z"/>
<path fill="#7F4720" opacity="1.000000" stroke="none" 
	d="
M50.906281,46.628643 
	C51.550617,54.383347 51.046391,61.673016 47.065056,68.698044 
	C47.070957,69.079094 47.058109,69.035782 47.073254,69.052094 
	C46.279549,69.624001 45.374428,69.478371 44.074402,69.238678 
	C43.339634,69.057564 43.102612,68.914642 42.908813,68.408691 
	C43.071373,67.572380 43.089630,66.723549 43.518734,66.361023 
	C49.894173,60.974800 49.703655,54.115314 47.994461,46.472588 
	C48.149815,45.880917 48.314579,45.709690 48.766605,45.749481 
	C49.630486,46.091602 50.207100,46.222706 50.906281,46.628643 
z"/>
<path fill="#A8C26F" opacity="1.000000" stroke="none" 
	d="
M63.397278,68.621750 
	C62.829323,69.744637 62.504227,70.560768 62.029732,71.677879 
	C59.229408,74.399681 57.248573,77.741936 52.925507,78.026512 
	C57.238739,73.179367 61.667141,68.460579 63.079964,61.377670 
	C63.536877,60.617081 64.016258,60.470028 64.912155,60.756924 
	C65.575577,63.593815 65.145607,66.072327 63.397278,68.621750 
z"/>
<path fill="#DFED89" opacity="1.000000" stroke="none" 
	d="
M34.498085,58.022980 
	C34.466076,56.286385 34.768539,54.539227 35.085945,52.402718 
	C35.100887,52.013367 35.038574,51.991989 35.030128,52.023788 
	C36.031918,50.283924 35.755917,47.979786 37.626015,46.251652 
	C37.942379,45.597698 37.976212,45.139217 38.019180,44.335804 
	C38.275578,43.381561 38.663052,42.915173 39.626198,42.801144 
	C39.955860,44.648037 39.979427,46.417351 40.013569,48.628754 
	C40.622990,49.835529 40.551395,50.720390 40.456909,51.934555 
	C40.390118,52.700222 40.309513,53.130009 40.062759,53.852943 
	C39.559650,54.921883 38.870956,55.479607 38.396362,56.557568 
	C38.066387,57.229519 37.787010,57.548954 37.146885,57.921051 
	C36.171310,58.017761 35.501934,58.015087 34.498085,58.022980 
z"/>
<path fill="#739059" opacity="1.000000" stroke="none" 
	d="
M39.972473,42.476795 
	C39.471844,43.185421 39.011395,43.492119 38.289627,43.894844 
	C37.057652,39.213661 38.966003,35.154713 41.569550,31.105015 
	C42.436615,34.908707 40.060757,38.291328 39.972473,42.476795 
z"/>
<path fill="#9D5B2A" opacity="1.000000" stroke="none" 
	d="
M43.599640,46.914902 
	C44.755035,49.007584 45.763531,51.135700 45.074051,53.798843 
	C43.714619,54.745449 42.561436,54.605335 41.086998,53.960552 
	C40.418827,53.461136 40.133667,53.088356 39.812210,52.323975 
	C39.589745,51.004822 40.242615,50.269123 40.768379,49.143070 
	C41.523540,47.965599 42.100475,47.094406 43.599640,46.914902 
z"/>
<path fill="#E1ED8A" opacity="1.000000" stroke="none" 
	d="
M34.989449,69.563644 
	C34.583668,70.004517 34.183830,69.993500 33.484375,69.971489 
	C33.172966,66.546013 32.256546,63.077328 33.998749,59.392860 
	C35.809109,62.284706 34.635460,65.758636 34.989449,69.563644 
z"/>
<path fill="#C9DD7E" opacity="1.000000" stroke="none" 
	d="
M55.032845,22.658211 
	C55.042702,23.415743 55.011677,23.894106 54.948452,24.731525 
	C53.008236,22.792313 50.029556,23.292303 47.286266,22.138338 
	C46.883049,21.694687 46.815540,21.412373 47.039124,20.806328 
	C49.320683,19.762653 51.300686,19.833773 53.633774,20.802647 
	C53.995541,21.044109 54.013859,21.000843 53.990364,21.000778 
	C54.120026,21.144968 54.273182,21.289225 54.676399,21.626028 
	C54.948292,22.005396 54.970127,22.192221 55.032845,22.658211 
z"/>
<path fill="#83B886" opacity="1.000000" stroke="none" 
	d="
M47.246613,20.885868 
	C47.038391,21.200926 46.997791,21.589325 46.974174,21.783165 
	C46.950554,21.977003 46.515961,22.066343 46.298973,22.112049 
	C44.918530,20.770790 43.307156,21.047394 41.391052,20.999041 
	C42.114727,18.880394 43.834938,17.824118 46.628258,17.998909 
	C47.011353,18.192522 47.024208,18.388620 47.058441,18.878719 
	C47.424896,19.579721 47.549900,20.045753 47.246613,20.885868 
z"/>
<path fill="#B47142" opacity="1.000000" stroke="none" 
	d="
M42.112259,59.161591 
	C42.212456,61.915920 40.578026,62.021851 38.509399,62.038887 
	C37.796047,61.237560 37.434586,60.420029 37.112152,59.259918 
	C37.345337,58.485806 37.577068,58.075233 38.143127,57.488258 
	C38.680714,57.236538 38.915501,57.178814 39.515148,57.132679 
	C40.875843,57.375103 41.688236,57.859356 42.112259,59.161591 
z"/>
<path fill="#A8C570" opacity="1.000000" stroke="none" 
	d="
M65.175720,60.722267 
	C64.469025,60.999542 64.085785,61.000473 63.416725,61.002571 
	C63.097553,59.617920 63.064217,58.232101 63.072693,56.432686 
	C63.396118,55.983414 63.677734,55.947739 64.381638,55.857548 
	C66.406349,57.145409 66.092010,58.774811 65.175720,60.722267 
z"/>
<path fill="#603B20" opacity="1.000000" stroke="none" 
	d="
M40.731548,48.910210 
	C40.700169,49.681602 40.431267,50.498653 40.050072,51.627403 
	C39.799282,52.077251 39.660782,52.215405 39.285385,52.180405 
	C38.970955,51.123775 38.996452,50.273941 39.916138,49.375832 
	C40.024139,49.070839 40.494022,48.955864 40.731548,48.910210 
z"/>
<path fill="#53482C" opacity="1.000000" stroke="none" 
	d="
M43.900036,69.312424 
	C44.523064,69.044403 45.379467,69.037682 46.662132,69.049683 
	C46.305759,70.420235 45.243168,70.134903 43.900036,69.312424 
z"/>
<path fill="#6B4127" opacity="1.000000" stroke="none" 
	d="
M38.277378,57.686066 
	C37.959595,58.248737 37.785400,58.498322 37.356571,58.815437 
	C37.151180,58.917343 36.991997,58.470234 36.916344,58.245338 
	C36.903919,57.580082 36.967152,57.139725 37.084618,56.369240 
	C37.338196,55.932884 37.537537,55.826656 38.018654,55.908806 
	C38.492935,56.516296 38.556107,56.952168 38.277378,57.686066 
z"/>
<path fill="#444028" opacity="1.000000" stroke="none" 
	d="
M48.915390,45.654449 
	C48.875515,45.971313 48.697159,45.982132 48.251923,46.022545 
	C47.536106,46.031246 47.087162,46.010357 46.302036,45.973827 
	C46.638718,44.537178 47.702980,44.920506 48.915390,45.654449 
z"/>
<path fill="#73915A" opacity="1.000000" stroke="none" 
	d="
M37.562717,46.120964 
	C37.143280,47.939606 36.378010,49.823036 35.317215,51.881027 
	C34.995037,49.815357 34.956898,47.570827 37.562717,46.120964 
z"/>
<path fill="#82B385" opacity="1.000000" stroke="none" 
	d="
M14.095551,57.242126 
	C14.027038,56.997173 14.513617,57.001240 14.756918,57.000801 
	C14.997157,57.179203 14.994095,57.358036 14.977569,57.805466 
	C14.697425,57.878403 14.430744,57.682743 14.095551,57.242126 
z"/>
<path fill="#7F9D60" opacity="1.000000" stroke="none" 
	d="
M47.470390,21.147205 
	C47.038860,20.748262 47.039330,20.295601 47.059814,19.507828 
	C48.731056,19.128794 50.382282,19.084867 52.441689,19.045120 
	C53.167538,19.532703 53.485214,20.016108 53.899216,20.771812 
	C51.964489,21.060568 49.933437,21.077026 47.470390,21.147205 
z"/>
<path fill="#202B0B" opacity="1.000000" stroke="none" 
	d="
M60.159363,34.230328 
	C59.619347,33.531750 59.319653,33.041988 59.089859,32.246708 
	C59.685425,31.123842 59.413769,30.178772 59.838089,29.081116 
	C60.736279,30.000250 61.378555,31.142464 62.077568,32.622955 
	C62.050556,33.385536 61.862717,33.759109 61.310318,34.250977 
	C60.823833,34.421856 60.611759,34.430500 60.159363,34.230328 
z"/>
<path fill="#060903" opacity="1.000000" stroke="none" 
	d="
M60.044998,28.536270 
	C59.920498,29.714626 59.746994,30.571217 59.366623,31.684498 
	C58.699696,30.183861 58.239632,28.426531 57.880398,26.287354 
	C59.065281,26.315264 59.748486,27.074795 60.044998,28.536270 
z"/>
<path fill="#2F4112" opacity="1.000000" stroke="none" 
	d="
M60.736317,34.296547 
	C61.179371,33.785534 61.421726,33.514259 61.899193,33.102104 
	C62.487694,33.019238 62.739483,33.210796 62.884407,33.781387 
	C62.480114,34.515404 62.482998,35.048672 62.910355,35.799065 
	C63.117363,35.991982 63.036854,35.976295 63.046959,35.936550 
	C63.185062,36.097519 63.313057,36.298233 63.199039,36.761497 
	C62.704037,37.241405 62.451046,37.458759 62.063828,37.889046 
	C61.655670,38.237331 61.381744,38.372684 60.700356,38.298206 
	C60.044857,37.899673 59.942413,37.650997 60.060387,37.145958 
	C60.665405,36.210964 60.435944,35.346321 60.736317,34.296547 
z"/>
<path fill="#1E290C" opacity="1.000000" stroke="none" 
	d="
M65.065918,41.667793 
	C64.221786,41.439720 64.022949,40.565300 64.033905,39.252193 
	C65.065613,39.422661 65.001839,40.391380 65.065918,41.667793 
z"/>
<path fill="#1E290C" opacity="1.000000" stroke="none" 
	d="
M63.009506,37.319992 
	C62.976379,36.836517 62.995728,36.648975 63.036072,36.179115 
	C64.124344,36.398586 64.003433,37.385731 64.072365,38.659004 
	C63.755878,38.545471 63.408932,38.080700 63.009506,37.319992 
z"/>
<path fill="#1E290C" opacity="1.000000" stroke="none" 
	d="
M66.060165,43.694004 
	C65.757797,43.513641 65.419594,43.016094 65.063034,42.204292 
	C65.371223,42.385628 65.697784,42.881226 66.060165,43.694004 
z"/>
<path fill="#1E290C" opacity="1.000000" stroke="none" 
	d="
M63.076183,35.663689 
	C62.513710,35.601383 62.068821,35.152466 62.700951,34.200119 
	C62.931091,34.463047 62.983047,34.899223 63.076183,35.663689 
z"/>
<path fill="#7F9D60" opacity="1.000000" stroke="none" 
	d="
M54.799187,21.647566 
	C54.611607,21.787209 54.346493,21.655626 54.048988,21.212269 
	C54.238083,21.105730 54.473099,21.264345 54.799187,21.647566 
z"/>
<path fill="#1C2209" opacity="1.000000" stroke="none" 
	d="
M64.912041,61.379051 
	C64.886948,59.508675 64.921631,58.018738 64.880127,56.165916 
	C64.866798,55.064392 64.929665,54.325756 65.056534,53.316319 
	C68.601860,55.078682 66.266106,58.453091 66.994644,61.562500 
	C65.611366,64.109566 66.486298,67.281685 63.488136,68.861633 
	C63.760220,66.538834 64.366020,64.149162 64.912041,61.379051 
z"/>
<path fill="#0C1202" opacity="1.000000" stroke="none" 
	d="
M60.315933,38.462791 
	C60.565910,38.086540 60.838921,38.084709 61.520767,38.092426 
	C61.818626,38.913177 61.707653,39.724377 61.361450,40.740082 
	C60.863804,40.242126 60.601387,39.539665 60.315933,38.462791 
z"/>
<path fill="#E8AD87" opacity="1.000000" stroke="none" 
	d="
M42.333805,59.535332 
	C41.241329,59.128738 40.427429,58.735668 39.323669,58.164536 
	C38.395294,57.540413 38.534050,56.849842 38.439995,55.895645 
	C38.463264,55.361912 38.524811,55.153000 38.837921,54.736622 
	C39.619526,54.140095 39.989067,53.593567 40.740707,52.988857 
	C42.213551,52.701412 43.329102,52.816784 44.533722,53.874187 
	C44.884106,54.755524 44.928391,55.482410 44.947861,56.573105 
	C44.450233,57.631355 44.207958,58.461155 43.409431,59.309364 
	C42.983486,59.525101 42.797932,59.536980 42.333805,59.535332 
z"/>
<path fill="#B47142" opacity="1.000000" stroke="none" 
	d="
M43.421505,59.599236 
	C43.113438,58.525387 43.655647,57.858170 44.644588,57.109058 
	C44.918022,58.039970 45.351997,59.342545 43.421505,59.599236 
z"/>
<path fill="#0B1004" opacity="1.000000" stroke="none" 
	d="
M60.682629,34.044846 
	C60.811085,34.868366 60.685154,35.679920 60.347221,36.720520 
	C60.083408,36.217621 60.031597,35.485676 59.949413,34.387619 
	C60.088768,34.025299 60.258503,34.029091 60.682629,34.044846 
z"/>
<path fill="#DF976A" opacity="1.000000" stroke="none" 
	d="
M40.898781,52.634205 
	C40.939819,53.737946 40.632404,54.498138 39.420326,54.963367 
	C38.955383,54.891884 38.797466,54.733932 38.779251,54.271461 
	C38.924423,53.528858 38.929890,53.090767 38.991920,52.329964 
	C39.048481,52.007252 39.504559,52.117748 39.721172,52.028423 
	C40.246651,52.049042 40.523735,52.212753 40.898781,52.634205 
z"/>
<path fill="#8D663D" opacity="1.000000" stroke="none" 
	d="
M38.595066,54.017071 
	C38.946346,54.148251 38.973736,54.329548 39.057217,54.780342 
	C39.113304,55.049839 39.067207,55.018700 39.040245,55.011871 
	C38.762562,55.258411 38.574112,55.552597 38.184601,55.957157 
	C37.930492,56.032757 37.534561,56.023754 37.336708,56.031433 
	C36.987137,55.077946 37.119289,54.279789 38.595066,54.017071 
z"/>
<path fill="#CD8455" opacity="1.000000" stroke="none" 
	d="
M37.954300,56.354988 
	C38.147034,55.776196 38.363575,55.519638 38.796700,55.134064 
	C39.031948,55.750568 39.050617,56.496090 39.051552,57.614044 
	C39.033817,57.986473 38.558445,57.998104 38.321495,57.981445 
	C38.049065,57.535595 38.013584,57.106403 37.954300,56.354988 
z"/>
</svg>