<svg width="24" height="24" viewBox="0 0 24 24" fill="none" xmlns="http://www.w3.org/2000/svg">
    <path d="M18 11.9999C18 12.5522 17.5523 12.9999 17 12.9999H13V17C13 17.5523 12.5523 18 12 18C11.4477 18 11 17.5523 11 17V12.9999H7C6.44772 12.9999 6 12.5522 6 11.9999C6 11.4476 6.44772 10.9999 7 10.9999H11V7C11 6.44772 11.4477 6 12 6C12.5523 6 13 6.44772 13 7V10.9999H17C17.5523 10.9999 18 11.4476 18 11.9999Z" fill="currentColor" fill-opacity="0.9"/>
    <path fill-rule="evenodd" clip-rule="evenodd" d="M12 24C18.6274 24 24 18.6274 24 12C24 5.37258 18.6274 0 12 0C5.37258 0 0 5.37258 0 12C0 18.6274 5.37258 24 12 24ZM12 22C17.5228 22 22 17.5228 22 12C22 6.47715 17.5228 2 12 2C6.47715 2 2 6.47715 2 12C2 17.5228 6.47715 22 12 22Z" fill="currentColor" fill-opacity="0.9"/>
    </svg>
    