<svg version="1.1" id="Layer_1" xmlns="http://www.w3.org/2000/svg" xmlns:xlink="http://www.w3.org/1999/xlink" x="0px" y="0px"
	 width="100%" viewBox="0 0 64 64" enable-background="new 0 0 64 64" xml:space="preserve">
<path fill="#FBFCFC" opacity="1.000000" stroke="none" 
	d="
M26.000000,65.000000 
	C17.685024,65.000000 9.370047,65.000000 1.027535,65.000000 
	C1.027535,43.732044 1.027535,22.464048 1.027535,1.098025 
	C22.220589,1.098025 43.441780,1.098025 65.000000,1.098025 
	C65.000000,16.019215 65.000000,31.040949 64.677383,46.440674 
	C62.345329,45.190853 60.335884,43.563038 58.195301,41.621433 
	C56.531113,39.528156 54.998066,37.748669 53.400154,35.600197 
	C52.506340,33.883160 51.677395,32.535107 50.850098,30.855148 
	C50.132793,30.304905 49.413837,30.086569 48.464897,29.630676 
	C47.242130,28.629858 46.249348,27.866596 46.104767,27.755442 
	C45.614788,25.132774 45.271328,23.294374 44.795635,21.191853 
	C42.095375,19.870178 39.527348,18.812628 36.632439,17.806717 
	C35.871002,17.907049 35.436447,17.955744 34.752960,17.893505 
	C34.333282,17.844671 34.162537,17.906771 33.748844,17.833555 
	C33.337914,17.619833 33.169922,17.541426 32.820824,17.169886 
	C30.821371,17.255903 29.003029,17.635052 26.837694,17.972977 
	C25.301140,18.897299 24.111576,19.862850 22.623486,20.946363 
	C21.488081,22.192816 20.651201,23.321308 19.480793,24.654606 
	C18.739891,27.417589 18.332516,29.975767 18.004835,32.830757 
	C19.075645,34.094685 20.066763,35.061802 21.095194,36.342583 
	C22.064028,37.409573 22.995546,38.162903 24.299398,39.033653 
	C27.159842,39.401245 29.647947,39.651421 32.399754,40.000118 
	C33.028690,40.060581 33.393929,40.022522 34.055614,40.136948 
	C36.124222,41.835945 37.896378,43.382462 39.360638,45.049416 
	C36.647442,47.654205 34.242149,50.138557 31.555170,52.849136 
	C29.515659,57.050236 27.757830,61.025120 26.000000,65.000000 
z"/>
<path fill="#F60104" opacity="1.000000" stroke="none" 
	d="
M31.836853,52.622913 
	C34.242149,50.138557 36.647442,47.654205 39.646713,45.292969 
	C41.921570,46.268021 43.562057,47.232651 45.322159,47.863590 
	C45.623867,47.971745 46.435734,46.656731 47.168648,45.752373 
	C47.880684,45.381245 48.436001,45.256897 49.046062,45.450294 
	C52.091476,48.977631 51.575764,44.729607 53.102478,44.052650 
	C54.356133,43.365021 55.248222,42.681282 56.504551,41.998539 
	C57.354675,41.978096 57.840557,41.956657 58.326443,41.935219 
	C60.335884,43.563038 62.345329,45.190853 64.677383,46.909332 
	C65.000000,49.370556 65.000000,51.741116 64.608627,54.483780 
	C63.478168,58.237263 62.739082,61.618629 62.000000,65.000000 
	C53.645767,65.000000 45.291534,65.000000 36.314758,64.568527 
	C36.042068,59.751564 38.264378,54.739098 31.836853,52.622913 
M45.003918,55.314472 
	C44.487755,56.623493 43.971592,57.932514 43.455425,59.241535 
	C45.204338,59.867943 46.987118,61.032871 48.689896,60.925781 
	C49.771278,60.857769 50.733742,58.898838 51.749535,57.787884 
	C50.422974,56.840027 49.150681,55.795856 47.738388,55.000168 
	C47.286278,54.745449 46.463699,55.148285 45.003918,55.314472 
z"/>
<path fill="#0D07DF" opacity="1.000000" stroke="none" 
	d="
M31.555172,52.849136 
	C38.264378,54.739098 36.042068,59.751564 35.846107,64.568527 
	C32.969406,65.000000 29.938814,65.000000 26.454109,65.000000 
	C27.757830,61.025120 29.515659,57.050236 31.555172,52.849136 
z"/>
<path fill="#0F02E7" opacity="1.000000" stroke="none" 
	d="
M62.500000,65.000000 
	C62.739082,61.618629 63.478168,58.237263 64.608627,54.927948 
	C65.000000,57.833332 65.103821,60.673817 64.909615,63.493774 
	C64.872192,64.037109 63.666668,64.500000 62.500000,65.000000 
z"/>
<path fill="#AA0405" opacity="1.000000" stroke="none" 
	d="
M48.991325,45.132553 
	C48.436001,45.256897 47.880684,45.381245 46.868904,45.715813 
	C44.940205,43.284729 43.467968,40.643421 42.339142,37.939888 
	C43.016438,36.787571 43.350319,35.697472 43.684200,34.607376 
	C43.128040,34.486691 42.571877,34.366009 42.015713,34.245327 
	C41.677193,35.497391 41.338673,36.749458 40.654892,38.035984 
	C39.147381,38.329338 37.985130,38.588230 36.468094,38.926151 
	C37.061749,36.279388 37.526627,34.206757 38.151802,32.030968 
	C38.537510,31.809093 38.748844,31.669115 39.270226,31.329021 
	C39.999939,30.578114 40.405514,30.006050 40.811092,29.433987 
	C39.680676,29.114552 38.550259,28.795116 37.317749,28.344292 
	C37.215660,28.212904 37.001827,27.957916 37.007233,27.590385 
	C37.343567,25.808283 37.674492,24.393709 38.318882,23.138683 
	C41.625366,25.740959 43.883434,25.672138 44.927868,21.455975 
	C45.271328,23.294374 45.614788,25.132774 46.104767,27.755442 
	C46.249348,27.866596 47.242130,28.629858 48.496433,29.922695 
	C48.552799,31.209810 48.347645,31.967350 47.869801,32.890816 
	C47.746796,34.617935 47.896481,36.179127 48.023689,38.155067 
	C48.018929,38.846149 48.036644,39.122486 48.218060,39.619759 
	C48.584949,41.604649 48.788136,43.368599 48.991325,45.132553 
z"/>
<path fill="#B40405" opacity="1.000000" stroke="none" 
	d="
M41.995728,38.002113 
	C43.467968,40.643421 44.940205,43.284729 46.712189,45.962593 
	C46.435734,46.656731 45.623867,47.971745 45.322159,47.863590 
	C43.562057,47.232651 41.921570,46.268021 39.954613,45.172531 
	C37.896378,43.382462 36.124222,41.835945 34.144001,39.815228 
	C33.950970,38.677143 33.966000,38.013264 33.926758,37.054726 
	C33.581577,36.511494 33.290672,36.262913 32.973866,35.952827 
	C32.947968,35.891319 32.896870,35.768009 32.907257,35.497673 
	C32.909039,34.865120 32.900433,34.502907 33.170738,34.113281 
	C33.635849,34.081829 33.822044,34.077782 34.183937,34.282524 
	C34.757717,34.402294 35.155800,34.313263 35.553886,34.224236 
	C35.004097,33.840157 34.454311,33.456081 33.663715,33.056427 
	C33.422909,33.040848 32.940468,33.027859 32.968002,33.013832 
	C32.995533,32.999809 32.971539,33.056759 32.965187,32.657257 
	C32.968830,31.456156 32.978825,30.654562 32.962444,29.549011 
	C32.591122,28.519175 32.246174,27.793293 32.262405,27.045029 
	C33.414379,26.347601 34.205170,25.672550 35.257248,24.791338 
	C35.676601,23.723499 35.834660,22.861826 36.321892,22.000160 
	C37.089947,21.997934 37.528835,21.995703 37.985996,22.239548 
	C38.004272,22.485624 38.005421,22.979136 38.005421,22.979136 
	C37.674492,24.393709 37.343567,25.808283 36.675468,27.740967 
	C33.948994,30.805212 34.768147,31.982523 37.991508,32.134125 
	C37.526627,34.206757 37.061749,36.279388 36.468094,38.926151 
	C37.985130,38.588230 39.147381,38.329338 40.903786,38.035576 
	C41.497940,38.000713 41.995728,38.002113 41.995728,38.002113 
M41.475307,43.604355 
	C41.475307,43.604355 41.406124,43.492008 41.475307,43.604355 
z"/>
<path fill="#AC0406" opacity="1.000000" stroke="none" 
	d="
M34.995960,24.997501 
	C34.205170,25.672550 33.414379,26.347601 31.937958,27.104013 
	C30.810850,28.126139 30.369375,29.066900 29.701164,30.001833 
	C29.474428,29.996004 29.019283,29.997700 28.754112,29.927582 
	C28.308788,29.826139 28.128635,29.794815 27.938335,29.542046 
	C27.767447,29.103420 27.606705,28.886238 27.445963,28.669056 
	C27.309103,29.064333 27.172245,29.459608 26.756428,29.880157 
	C26.290756,29.902847 26.104042,29.900265 25.907440,29.538887 
	C25.179836,28.447863 24.462118,27.715637 23.518356,26.834650 
	C23.235647,25.753115 23.178980,24.820343 23.482056,23.919441 
	C25.881195,22.653370 27.920591,21.355431 30.283695,20.023880 
	C31.124805,19.636568 31.642212,19.282867 32.395462,18.751926 
	C32.754845,18.204128 32.878387,17.833572 33.001930,17.463017 
	C33.169922,17.541426 33.337914,17.619833 33.835388,18.003038 
	C34.443882,18.206705 34.722889,18.105572 35.001896,18.004438 
	C35.436447,17.955744 35.871002,17.907049 36.657661,18.175797 
	C37.329086,19.659981 37.648403,20.826725 37.967720,21.993469 
	C37.528835,21.995703 37.089947,21.997934 36.075047,21.998909 
	C35.499031,21.997648 35.005173,21.993273 34.949188,21.858583 
	C34.808704,21.675909 34.724205,21.627924 34.639702,21.579937 
	C34.757557,21.721701 34.875408,21.863466 34.880531,22.277433 
	C34.843853,23.365591 34.919907,24.181547 34.995960,24.997501 
M32.416248,23.483494 
	C32.416248,23.483494 32.523014,23.420633 32.416248,23.483494 
z"/>
<path fill="#DB0203" opacity="1.000000" stroke="none" 
	d="
M49.046066,45.450294 
	C48.788136,43.368599 48.584949,41.604649 48.476227,39.406898 
	C48.723816,38.566765 48.876934,38.160431 49.132248,37.580612 
	C49.418583,37.196426 49.648148,37.065121 50.165314,36.907043 
	C50.609909,36.522842 50.812321,36.244812 51.012222,35.985394 
	C51.009716,36.004005 50.971191,36.004517 51.386223,36.001312 
	C52.355839,35.988464 52.910431,35.978821 53.465019,35.969181 
	C54.998066,37.748669 56.531113,39.528156 58.195301,41.621429 
	C57.840557,41.956657 57.354675,41.978096 56.153168,42.013634 
	C54.538670,42.704002 53.639790,43.380276 52.740910,44.056549 
	C51.575764,44.729607 52.091476,48.977631 49.046066,45.450294 
z"/>
<path fill="#E40102" opacity="1.000000" stroke="none" 
	d="
M37.985996,22.239548 
	C37.648403,20.826725 37.329086,19.659981 36.984543,18.124157 
	C39.527348,18.812628 42.095375,19.870178 44.795635,21.191853 
	C43.883434,25.672138 41.625366,25.740959 38.318882,23.138683 
	C38.005421,22.979136 38.004272,22.485624 37.985996,22.239548 
z"/>
<path fill="#950506" opacity="1.000000" stroke="none" 
	d="
M23.122311,23.887569 
	C23.178980,24.820343 23.235647,25.753115 23.567383,27.184391 
	C24.305285,28.421730 24.768118,29.160566 25.087973,30.182219 
	C24.333736,31.016727 23.722479,31.568420 22.812143,31.966682 
	C21.933762,31.475489 21.354456,31.137726 20.830963,30.569511 
	C20.886780,30.339062 20.861809,29.863880 20.893082,29.543167 
	C20.687963,28.436855 20.451571,27.651257 20.075733,26.479095 
	C19.895634,25.544952 19.854979,24.997377 19.814322,24.449800 
	C20.651201,23.321308 21.488081,22.192816 22.649715,21.251507 
	C22.997099,21.641726 23.019728,21.844759 23.053455,22.355131 
	C23.083807,23.070835 23.103058,23.479202 23.122311,23.887569 
z"/>
<path fill="#D20203" opacity="1.000000" stroke="none" 
	d="
M23.482054,23.919441 
	C23.103058,23.479202 23.083807,23.070835 23.426865,22.337011 
	C24.921011,20.679104 26.052849,19.346653 27.184687,18.014202 
	C29.003029,17.635052 30.821371,17.255903 32.820824,17.169886 
	C32.878387,17.833572 32.754845,18.204128 32.204269,18.514313 
	C31.171484,18.988459 30.565737,19.522974 29.959990,20.057491 
	C27.920591,21.355431 25.881195,22.653370 23.482054,23.919441 
z"/>
<path fill="#990506" opacity="1.000000" stroke="none" 
	d="
M32.136055,39.901592 
	C29.647947,39.651421 27.159842,39.401245 24.325539,38.662697 
	C23.984684,37.430649 23.990023,36.686977 24.298971,35.912994 
	C25.005699,35.844749 25.408819,35.806812 26.233929,35.850647 
	C27.805128,35.921501 28.954334,35.910583 30.454815,35.929985 
	C31.503017,35.896206 32.199944,35.832108 32.896870,35.768013 
	C32.896870,35.768009 32.947968,35.891319 32.970196,36.198181 
	C32.992424,36.505047 33.001324,36.996059 32.689560,37.019108 
	C32.297218,37.995300 32.216637,38.948448 32.136055,39.901592 
z"/>
<path fill="#AC0607" opacity="1.000000" stroke="none" 
	d="
M20.775148,30.799961 
	C21.354456,31.137726 21.933762,31.475489 22.794559,32.159744 
	C23.076054,32.506237 23.016632,32.892075 23.026993,33.094456 
	C23.037355,33.296837 23.073137,33.697289 22.848892,33.861015 
	C22.428905,34.332588 22.233166,34.640427 21.929785,35.173798 
	C21.626194,35.680573 21.371439,35.890434 21.057878,36.028919 
	C20.066763,35.061802 19.075645,34.094685 18.052620,32.508316 
	C18.023855,31.671946 18.026999,31.454828 18.370689,31.160004 
	C19.399208,30.988182 20.087179,30.894072 20.775148,30.799961 
z"/>
<path fill="#787B7B" opacity="1.000000" stroke="none" 
	d="
M18.030140,31.237713 
	C18.026999,31.454828 18.023855,31.671946 17.972927,32.211502 
	C18.332516,29.975767 18.739891,27.417589 19.480793,24.654606 
	C19.854979,24.997377 19.895634,25.544952 20.093502,26.866001 
	C20.105274,28.388487 19.959835,29.137503 19.503899,29.958794 
	C18.805649,30.433285 18.417894,30.835499 18.030140,31.237713 
z"/>
<path fill="#9C0F0F" opacity="1.000000" stroke="none" 
	d="
M53.400154,35.600197 
	C52.910431,35.978821 52.355839,35.988464 51.406139,35.661758 
	C50.667233,34.490067 50.323433,33.654728 49.985508,32.565926 
	C50.277069,31.937326 50.562756,31.562191 50.848446,31.187056 
	C51.677395,32.535107 52.506340,33.883160 53.400154,35.600197 
z"/>
<path fill="#AC0406" opacity="1.000000" stroke="none" 
	d="
M26.837694,17.972977 
	C26.052849,19.346653 24.921011,20.679104 23.415764,22.029675 
	C23.019728,21.844759 22.997099,21.641726 22.948242,21.133545 
	C24.111576,19.862850 25.301140,18.897299 26.837694,17.972977 
z"/>
<path fill="#E80101" opacity="1.000000" stroke="none" 
	d="
M32.399754,40.000118 
	C32.216637,38.948448 32.297218,37.995300 32.935471,37.104717 
	C33.655769,37.227978 33.818398,37.288677 33.981030,37.349380 
	C33.966000,38.013264 33.950970,38.677143 33.847553,39.662743 
	C33.393929,40.022522 33.028690,40.060581 32.399754,40.000118 
z"/>
<path fill="#BC0304" opacity="1.000000" stroke="none" 
	d="
M21.095194,36.342583 
	C21.371439,35.890434 21.626194,35.680573 22.217623,35.214100 
	C23.073856,35.333679 23.534611,35.638493 23.995361,35.943306 
	C23.990023,36.686977 23.984684,37.430649 23.953205,38.545277 
	C22.995546,38.162903 22.064028,37.409573 21.095194,36.342583 
z"/>
<path fill="#6C1B1C" opacity="1.000000" stroke="none" 
	d="
M50.850098,30.855148 
	C50.562756,31.562191 50.277069,31.937326 49.678574,32.607777 
	C48.958004,32.843693 48.550247,32.784294 48.142490,32.724892 
	C48.347645,31.967350 48.552799,31.209810 48.726418,30.160252 
	C49.413837,30.086569 50.132793,30.304905 50.850098,30.855148 
z"/>
<path fill="#AA0405" opacity="1.000000" stroke="none" 
	d="
M34.752960,17.893505 
	C34.722889,18.105572 34.443882,18.206705 34.078331,18.138353 
	C34.162537,17.906771 34.333282,17.844671 34.752960,17.893505 
z"/>
<path fill="#580506" opacity="1.000000" stroke="none" 
	d="
M45.407269,55.282372 
	C46.463699,55.148285 47.286278,54.745449 47.738388,55.000168 
	C49.150681,55.795856 50.422974,56.840027 51.749535,57.787880 
	C50.733742,58.898838 49.771278,60.857769 48.689896,60.925781 
	C46.987118,61.032871 45.204338,59.867943 43.455425,59.241535 
	C43.971592,57.932514 44.487755,56.623493 45.407269,55.282372 
z"/>
<path fill="#AA0405" opacity="1.000000" stroke="none" 
	d="
M53.102478,44.052654 
	C53.639790,43.380276 54.538670,42.704002 55.788929,42.012634 
	C55.248222,42.681282 54.356133,43.365021 53.102478,44.052654 
z"/>
<path fill="#F40101" opacity="1.000000" stroke="none" 
	d="
M47.869801,32.890816 
	C48.550247,32.784294 48.958004,32.843693 49.672699,32.861240 
	C50.323433,33.654728 50.667233,34.490067 50.991112,35.664963 
	C50.971191,36.004517 51.009716,36.004005 50.776665,36.097492 
	C50.336788,36.465057 50.129959,36.739132 49.923130,37.013210 
	C49.648148,37.065121 49.418583,37.196426 48.885593,37.610462 
	C48.536751,37.813793 48.046162,37.740318 48.046162,37.740318 
	C47.896481,36.179127 47.746796,34.617935 47.869801,32.890816 
z"/>
<path fill="#231112" opacity="1.000000" stroke="none" 
	d="
M38.151802,32.030968 
	C34.768147,31.982523 33.948994,30.805212 36.670059,28.108496 
	C37.001827,27.957916 37.215660,28.212904 37.126411,28.647240 
	C37.673477,29.890341 38.309784,30.699104 38.946091,31.507868 
	C38.748844,31.669115 38.537510,31.809093 38.151802,32.030968 
z"/>
<path fill="#AB0406" opacity="1.000000" stroke="none" 
	d="
M42.339142,37.939888 
	C41.995728,38.002113 41.497940,38.000713 41.249046,38.001122 
	C41.338673,36.749458 41.677193,35.497391 42.015713,34.245327 
	C42.571877,34.366009 43.128040,34.486691 43.684200,34.607376 
	C43.350319,35.697472 43.016438,36.787571 42.339142,37.939888 
z"/>
<path fill="#565A5A" opacity="1.000000" stroke="none" 
	d="
M39.270226,31.329021 
	C38.309784,30.699104 37.673477,29.890341 37.228504,28.778629 
	C38.550259,28.795116 39.680676,29.114552 40.811092,29.433987 
	C40.405514,30.006050 39.999939,30.578114 39.270226,31.329021 
z"/>
<path fill="#850608" opacity="1.000000" stroke="none" 
	d="
M48.023689,38.155067 
	C48.046162,37.740318 48.536751,37.813793 48.783401,37.783943 
	C48.876934,38.160431 48.723816,38.566765 48.312523,39.185963 
	C48.036644,39.122486 48.018929,38.846149 48.023689,38.155067 
z"/>
<path fill="#F00101" opacity="1.000000" stroke="none" 
	d="
M29.927900,30.007662 
	C30.369375,29.066900 30.810850,28.126139 31.576775,27.126392 
	C32.246174,27.793293 32.591122,28.519175 32.639420,29.569601 
	C31.915058,29.950687 31.487350,30.007229 30.776821,30.047455 
	C30.305298,30.023312 30.116600,30.015488 29.927900,30.007662 
z"/>
<path fill="#EE0101" opacity="1.000000" stroke="none" 
	d="
M32.907257,35.497673 
	C32.199944,35.832108 31.503017,35.896206 30.448639,35.613831 
	C30.400743,34.478046 30.710302,33.688736 31.343424,32.960030 
	C32.101837,33.032673 32.536690,33.044716 32.971539,33.056759 
	C32.971539,33.056759 32.995533,32.999809 32.908340,33.289963 
	C32.844707,33.766972 32.868267,33.953831 32.891827,34.140690 
	C32.900433,34.502907 32.909039,34.865120 32.907257,35.497673 
z"/>
<path fill="#830507" opacity="1.000000" stroke="none" 
	d="
M32.965187,32.657257 
	C32.536690,33.044716 32.101837,33.032673 31.364368,32.607227 
	C31.061047,31.483807 31.060345,30.773788 31.059643,30.063770 
	C31.487350,30.007229 31.915058,29.950687 32.665794,29.873554 
	C32.978825,30.654562 32.968830,31.456156 32.965187,32.657257 
z"/>
<path fill="#AA0405" opacity="1.000000" stroke="none" 
	d="
M35.257248,24.791338 
	C34.919907,24.181547 34.843853,23.365591 34.883900,22.274818 
	C35.000000,22.000000 35.005173,21.993273 35.005173,21.993273 
	C35.005173,21.993273 35.499031,21.997648 35.745872,21.998901 
	C35.834660,22.861826 35.676601,23.723499 35.257248,24.791338 
z"/>
<path fill="#AB0406" opacity="1.000000" stroke="none" 
	d="
M33.904522,33.072006 
	C34.454311,33.456081 35.004097,33.840157 35.553886,34.224236 
	C35.155800,34.313263 34.757717,34.402294 34.172005,34.030212 
	C33.957764,33.403400 33.931145,33.237705 33.904522,33.072006 
z"/>
<path fill="#830507" opacity="1.000000" stroke="none" 
	d="
M33.926758,37.054726 
	C33.818398,37.288677 33.655769,37.227978 33.247231,37.081669 
	C33.001324,36.996059 32.992424,36.505047 32.996094,36.259689 
	C33.290672,36.262913 33.581577,36.511494 33.926758,37.054726 
z"/>
<path fill="#F60104" opacity="1.000000" stroke="none" 
	d="
M41.440716,43.548180 
	C41.406124,43.492008 41.475307,43.604355 41.440716,43.548180 
z"/>
<path fill="#830507" opacity="1.000000" stroke="none" 
	d="
M33.663715,33.056427 
	C33.931145,33.237705 33.957764,33.403400 33.996315,33.821415 
	C33.822044,34.077782 33.635849,34.081829 33.170738,34.113281 
	C32.868267,33.953831 32.844707,33.766972 32.880810,33.303986 
	C32.940468,33.027859 33.422909,33.040848 33.663715,33.056427 
z"/>
<path fill="#BC0304" opacity="1.000000" stroke="none" 
	d="
M30.776821,30.047455 
	C31.060345,30.773788 31.061047,31.483807 31.040804,32.546623 
	C30.710302,33.688736 30.400743,34.478046 30.097363,35.583511 
	C28.954334,35.910583 27.805128,35.921501 26.274916,35.623314 
	C25.888777,35.000839 25.873379,34.687973 26.076130,34.164234 
	C26.539104,33.622192 26.773664,33.291531 27.001942,32.666252 
	C26.984510,31.980410 26.973360,31.589184 27.263861,31.115852 
	C28.050102,30.688395 28.534691,30.343046 29.019283,29.997700 
	C29.019283,29.997700 29.474428,29.996004 29.701164,30.001833 
	C30.116600,30.015488 30.305298,30.023312 30.776821,30.047455 
z"/>
<path fill="#F20101" opacity="1.000000" stroke="none" 
	d="
M25.230951,29.899403 
	C24.768118,29.160566 24.305285,28.421730 23.793427,27.333153 
	C24.462118,27.715637 25.179836,28.447863 25.863785,29.544079 
	C25.830017,29.908072 25.742928,29.890841 25.615000,29.896950 
	C25.487072,29.903061 25.230951,29.899403 25.230951,29.899403 
z"/>
<path fill="#770608" opacity="1.000000" stroke="none" 
	d="
M30.283695,20.023880 
	C30.565737,19.522974 31.171484,18.988459 31.968426,18.691555 
	C31.642212,19.282867 31.124805,19.636568 30.283695,20.023880 
z"/>
<path fill="#630709" opacity="1.000000" stroke="none" 
	d="
M28.754112,29.927582 
	C28.534691,30.343046 28.050102,30.688395 27.008265,30.951878 
	C26.214989,30.543621 25.978958,30.217230 25.742928,29.890841 
	C25.742928,29.890841 25.830017,29.908072 25.873672,29.902878 
	C26.104042,29.900265 26.290756,29.902847 26.988438,29.895712 
	C27.499403,29.885994 27.948483,29.763493 27.948483,29.763493 
	C28.128635,29.794815 28.308788,29.826139 28.754112,29.927582 
z"/>
<path fill="#BC0304" opacity="1.000000" stroke="none" 
	d="
M27.938335,29.542046 
	C27.948483,29.763493 27.499403,29.885994 27.267395,29.870440 
	C27.172245,29.459608 27.309103,29.064333 27.445963,28.669056 
	C27.606705,28.886238 27.767447,29.103420 27.938335,29.542046 
z"/>
<path fill="#AA0405" opacity="1.000000" stroke="none" 
	d="
M32.469631,23.452065 
	C32.523014,23.420633 32.416248,23.483494 32.469631,23.452065 
z"/>
<path fill="#AA0405" opacity="1.000000" stroke="none" 
	d="
M34.996632,22.002615 
	C34.875408,21.863466 34.757557,21.721701 34.639702,21.579937 
	C34.724205,21.627924 34.808704,21.675909 34.949188,21.858583 
	C35.005173,21.993273 35.000000,22.000000 34.996632,22.002615 
z"/>
<path fill="#9C0F0F" opacity="1.000000" stroke="none" 
	d="
M50.165314,36.907043 
	C50.129959,36.739132 50.336788,36.465057 50.779175,36.078880 
	C50.812321,36.244812 50.609909,36.522842 50.165314,36.907043 
z"/>
<path fill="#CD0304" opacity="1.000000" stroke="none" 
	d="
M25.615000,29.896950 
	C25.978958,30.217230 26.214989,30.543621 26.706614,31.033985 
	C26.973360,31.589184 26.984510,31.980410 26.666840,32.654186 
	C25.892363,32.963463 25.446707,32.990189 24.668777,33.023804 
	C23.896547,32.984489 23.456589,32.938282 23.016632,32.892075 
	C23.016632,32.892075 23.076054,32.506237 23.093636,32.313175 
	C23.722479,31.568420 24.333736,31.016727 25.087973,30.182219 
	C25.230951,29.899403 25.487072,29.903061 25.615000,29.896950 
z"/>
<path fill="#2D2727" opacity="1.000000" stroke="none" 
	d="
M19.814394,29.886518 
	C19.959835,29.137503 20.105274,28.388487 20.232944,27.252565 
	C20.451571,27.651257 20.687963,28.436855 20.631878,29.567471 
	C20.164394,29.903831 19.989393,29.895176 19.814394,29.886518 
z"/>
<path fill="#4F0708" opacity="1.000000" stroke="none" 
	d="
M19.503899,29.958794 
	C19.989393,29.895176 20.164394,29.903831 20.600603,29.888184 
	C20.861809,29.863880 20.886780,30.339062 20.830963,30.569511 
	C20.087179,30.894072 19.399208,30.988182 18.370689,31.160002 
	C18.417894,30.835499 18.805649,30.433285 19.503899,29.958794 
z"/>
<path fill="#F20101" opacity="1.000000" stroke="none" 
	d="
M25.847717,34.375614 
	C25.873379,34.687973 25.888777,35.000839 25.852924,35.541542 
	C25.408819,35.806812 25.005699,35.844749 24.298973,35.912994 
	C23.534611,35.638493 23.073856,35.333679 22.325264,34.988571 
	C22.233166,34.640427 22.428905,34.332588 23.166283,33.943832 
	C24.136200,33.949478 24.564482,34.036037 25.201500,34.202751 
	C25.410238,34.282906 25.847717,34.375614 25.847717,34.375614 
z"/>
<path fill="#950506" opacity="1.000000" stroke="none" 
	d="
M24.992764,34.122597 
	C24.564482,34.036037 24.136200,33.949478 23.390528,33.780106 
	C23.073137,33.697289 23.037355,33.296837 23.026993,33.094456 
	C23.456589,32.938282 23.896547,32.984489 24.666960,33.300144 
	C24.995863,33.753929 24.994312,33.938263 24.992764,34.122597 
z"/>
<path fill="#920507" opacity="1.000000" stroke="none" 
	d="
M25.201500,34.202751 
	C24.994312,33.938263 24.995863,33.753929 24.999233,33.293251 
	C25.446707,32.990189 25.892363,32.963463 26.673120,32.948799 
	C26.773664,33.291531 26.539104,33.622192 26.076130,34.164234 
	C25.847717,34.375614 25.410238,34.282906 25.201500,34.202751 
z"/>
</svg>