<svg version="1.1" id="Layer_1" xmlns="http://www.w3.org/2000/svg" xmlns:xlink="http://www.w3.org/1999/xlink" x="0px" y="0px"
	 width="100%" viewBox="0 0 64 64" enable-background="new 0 0 64 64" xml:space="preserve">
<path fill="#FFFFFF" opacity="1.000000" stroke="none" 
	d="
M1.000000,24.000080 
	C1.000000,16.000103 1.000000,8.500104 1.000000,1.000052 
	C11.666631,1.000000 22.333261,1.000000 32.999893,1.000000 
	C43.666561,1.000000 54.333225,1.000000 64.999924,1.000000 
	C64.999947,22.333296 64.999947,43.666592 64.999969,64.999908 
	C43.666706,64.999939 22.333410,64.999939 1.000058,64.999969 
	C1.000000,51.500019 1.000000,38.000038 1.000000,24.000080 
M7.836683,40.864277 
	C7.992101,41.302601 8.147518,41.740925 8.335349,42.405289 
	C8.335349,42.405289 8.176167,42.569016 8.079818,43.389130 
	C9.072041,44.273636 10.064262,45.158142 10.990314,46.933319 
	C11.829741,47.992207 12.669169,49.051090 13.905776,50.284470 
	C14.906210,50.339787 15.906644,50.395103 16.278875,50.302937 
	C16.063848,50.639133 15.848823,50.975330 14.961824,51.811420 
	C15.279610,53.001617 15.597395,54.191811 15.915180,55.382008 
	C16.467623,54.938927 17.020067,54.495842 17.083105,55.198700 
	C17.427505,55.430882 17.771908,55.663067 18.083941,56.457455 
	C18.399534,56.587025 18.715126,56.716599 19.552498,57.188904 
	C20.028748,57.487335 20.504997,57.785767 21.774487,58.075619 
	C23.498039,58.308155 25.221592,58.540688 27.617601,58.920650 
	C28.206051,58.430336 28.794500,57.940018 30.008310,57.418957 
	C30.633648,57.440945 31.258987,57.462929 31.652359,58.118679 
	C32.432877,58.401379 33.213394,58.684074 34.807446,59.151157 
	C36.603195,58.626839 38.398945,58.102520 40.631020,57.788956 
	C40.631020,57.788956 41.075222,57.982555 41.652115,58.117382 
	C41.858028,57.798805 42.063942,57.480225 42.871361,57.021011 
	C43.277306,56.963081 43.683250,56.905151 44.710255,56.748100 
	C45.816460,55.876083 46.922668,55.004066 48.664970,54.017044 
	C49.127518,53.688175 49.590065,53.359306 50.635117,52.866592 
	C51.021740,52.226730 51.408367,51.586864 51.915562,50.471397 
	C51.915562,50.471397 51.994247,49.987095 52.768322,49.926395 
	C53.537071,48.689163 54.305820,47.451931 55.278347,45.801640 
	C55.296173,45.444981 55.470169,45.197651 56.241978,45.360249 
	C56.508022,44.925800 56.774067,44.491352 57.536282,43.946308 
	C57.747841,43.686836 57.959400,43.427368 58.778358,42.941742 
	C58.987457,42.566177 59.196556,42.190613 59.768196,41.151379 
	C59.651150,38.482941 59.534103,35.814503 59.157185,32.431122 
	C59.053997,31.935711 58.950809,31.440298 58.972782,30.334782 
	C58.313004,30.083113 57.653221,29.831446 57.515446,29.316666 
	C57.405964,28.985235 57.296486,28.653807 57.060543,27.408476 
	C57.001659,26.214787 56.942776,25.021099 57.063461,23.041235 
	C56.986450,21.697720 56.909435,20.354206 56.983482,18.225824 
	C56.941818,17.164772 56.900154,16.103720 57.004021,14.335170 
	C56.694122,13.290340 56.384220,12.245512 55.842606,10.672268 
	C55.527187,10.467579 55.211765,10.262889 54.269150,9.953833 
	C54.057850,9.937427 53.846546,9.921020 53.076225,9.600989 
	C50.369640,10.451133 47.663055,11.301277 44.345249,12.038358 
	C43.873581,12.345873 43.401913,12.653389 42.986591,13.002735 
	C42.986591,13.002735 42.963768,12.936377 42.337154,12.994986 
	C41.919682,12.970079 41.502209,12.945173 40.743515,12.340999 
	C39.145546,12.134830 37.547577,11.928659 35.164894,11.651402 
	C34.480659,11.938486 33.796421,12.225570 32.628265,12.215043 
	C31.240034,12.121231 29.851801,12.027419 28.046465,11.533486 
	C27.605812,11.699124 27.165161,11.864762 26.442295,12.158891 
	C26.263962,12.272031 26.120581,12.419228 25.332718,12.830614 
	C24.481537,13.201323 23.630356,13.572030 22.260189,13.960073 
	C21.914377,13.949117 21.568563,13.938161 20.939381,13.272168 
	C19.605093,12.898335 18.270803,12.524500 16.238323,12.013409 
	C14.667782,11.681702 13.097239,11.349995 10.842331,11.069981 
	C10.506886,11.359310 10.171441,11.648640 9.405020,12.307136 
	C9.273450,12.849536 9.141881,13.391937 8.210961,14.185611 
	C8.197638,16.132286 8.184314,18.078962 8.040764,20.851646 
	C8.542798,21.915215 9.044832,22.978781 9.516527,23.989340 
	C9.516527,23.989340 9.464655,24.021584 9.293701,24.671253 
	C9.478573,25.063322 9.663445,25.455389 9.224899,26.171501 
	C9.157205,27.094826 9.089509,28.018148 8.807714,29.470118 
	C8.525508,29.965071 8.243301,30.460026 7.515718,30.984221 
	C7.303590,31.305399 7.091462,31.626577 6.970055,32.706005 
	C6.993966,33.468815 7.017876,34.231628 6.987470,35.791248 
	C7.023578,36.854683 7.059685,37.918114 7.159817,39.468948 
	C7.273971,39.800331 7.493565,40.031574 7.836683,40.864277 
z"/>
<path fill="#FCFBF1" opacity="1.000000" stroke="none" 
	d="
M21.222752,13.927206 
	C21.568563,13.938161 21.914377,13.949117 22.621994,14.332472 
	C22.985918,15.228450 22.988035,15.752028 22.962067,16.444462 
	C22.933983,16.613319 22.967695,16.954008 22.771568,16.998840 
	C22.575443,17.043673 22.178219,17.106443 21.808258,17.109028 
	C19.946198,19.394564 18.454096,21.677513 16.724134,23.977316 
	C16.486277,23.994171 16.007553,24.000381 15.901704,23.640575 
	C14.522344,22.531578 13.248834,21.782391 12.252541,20.851192 
	C12.723174,19.823000 12.916590,18.976812 13.343491,17.983534 
	C14.090313,17.329464 14.603651,16.822485 15.395947,16.073696 
	C17.524189,15.196995 19.373470,14.562100 21.222752,13.927206 
z"/>
<path fill="#3893C4" opacity="1.000000" stroke="none" 
	d="
M44.956470,12.151421 
	C47.663055,11.301277 50.369640,10.451133 53.384132,10.016407 
	C53.582500,10.767263 53.472961,11.102701 53.149658,11.578311 
	C52.607357,12.113467 52.278820,12.508451 51.661003,13.048052 
	C50.271996,14.228081 49.172276,15.263490 47.779716,16.284128 
	C46.922935,16.730667 46.359001,17.191977 45.662891,17.816603 
	C45.530716,17.979918 45.733437,18.347982 45.456837,18.349314 
	C45.008343,18.417410 44.836452,18.484173 44.635010,18.554482 
	C44.605457,18.558031 44.559174,18.520590 44.538857,18.178146 
	C44.009789,16.577286 43.501030,15.318871 42.994049,13.779211 
	C42.985142,13.310769 42.974453,13.123572 42.963768,12.936377 
	C42.963768,12.936377 42.986591,13.002735 43.248680,12.980067 
	C43.992672,12.688741 44.474571,12.420081 44.956470,12.151421 
z"/>
<path fill="#FCD7D3" opacity="1.000000" stroke="none" 
	d="
M9.464655,24.021584 
	C9.464655,24.021584 9.516527,23.989340 9.307526,23.666439 
	C9.012226,22.242212 8.925927,21.140882 8.907472,19.607885 
	C8.986980,17.428923 8.998646,15.681630 9.010311,13.934338 
	C9.141881,13.391937 9.273450,12.849536 9.763445,12.422941 
	C10.775089,13.682365 11.428308,14.825984 12.041044,16.307083 
	C12.000235,17.097004 11.999910,17.549440 11.885141,18.251560 
	C11.519986,19.337580 11.269275,20.173914 10.971304,21.356705 
	C10.437582,22.475969 9.951118,23.248777 9.464655,24.021584 
z"/>
<path fill="#9D8CCE" opacity="1.000000" stroke="none" 
	d="
M16.907078,50.450424 
	C15.906644,50.395103 14.906210,50.339787 13.579319,49.845852 
	C13.244925,48.910248 13.236988,48.413261 13.588425,47.912834 
	C15.958576,48.620392 17.969355,49.331387 20.138811,50.306152 
	C20.885712,50.646332 21.473934,50.722733 22.034163,50.879539 
	C22.006170,50.959949 21.948214,51.120064 21.974474,51.318825 
	C22.194241,51.978535 22.387747,52.439476 22.282146,53.151421 
	C21.900520,53.892906 21.818001,54.383392 21.725479,54.898422 
	C21.715477,54.922970 21.723316,54.874165 21.606951,54.486115 
	C19.962749,52.882187 18.434914,51.666306 16.907078,50.450424 
z"/>
<path fill="#F0FBFD" opacity="1.000000" stroke="none" 
	d="
M7.961094,30.954979 
	C8.243301,30.460026 8.525508,29.965071 9.174084,29.292761 
	C9.747404,29.403765 9.954354,29.692127 10.147148,30.304134 
	C10.481488,31.394123 10.829985,32.160465 11.097842,33.305153 
	C10.667407,35.113037 10.317612,36.542576 9.810391,38.033127 
	C9.652966,38.094135 9.326741,38.181519 9.013214,38.122902 
	C8.488554,38.038994 8.277422,38.013710 8.040710,37.614662 
	C7.988554,36.492249 7.961977,35.743599 7.962794,34.614632 
	C7.999320,33.471317 8.008451,32.708317 8.006131,31.697578 
	C7.994679,31.449841 7.961094,30.954979 7.961094,30.954979 
z"/>
<path fill="#293761" opacity="1.000000" stroke="none" 
	d="
M41.075222,57.982555 
	C41.075222,57.982555 40.631020,57.788956 40.356117,57.361786 
	C39.090382,56.155033 38.099541,55.375446 37.034775,54.344082 
	C36.899860,53.928257 36.838875,53.764214 36.996727,53.405434 
	C37.803150,52.786274 38.390739,52.361855 39.340370,51.928757 
	C40.142990,52.095318 40.583569,52.270561 41.317368,52.582054 
	C42.466480,52.821041 43.322372,52.923775 44.212200,53.295914 
	C44.008919,54.041729 43.771706,54.518139 43.179718,54.864723 
	C42.087597,54.595730 41.350254,54.456566 40.612907,54.317398 
	C41.037842,55.252342 41.462780,56.187290 41.752750,57.401680 
	C41.436928,57.781609 41.256073,57.882084 41.075222,57.982555 
z"/>
<path fill="#575464" opacity="1.000000" stroke="none" 
	d="
M33.112186,12.512653 
	C33.796421,12.225570 34.480659,11.938486 35.660652,11.990818 
	C37.069450,12.853590 37.982487,13.376944 39.005196,14.190662 
	C39.065025,15.314850 39.015182,16.148672 38.640312,16.973377 
	C37.881901,16.978460 37.448509,16.992664 36.803673,16.986240 
	C36.592220,16.965612 36.167599,16.981333 36.134125,16.715321 
	C36.062473,16.274693 36.024296,16.100079 35.786438,15.642096 
	C34.955505,15.075615 34.324253,14.792504 33.735928,14.503085 
	C33.778858,14.496777 33.859570,14.536781 33.676464,14.029368 
	C33.366299,13.185522 33.239243,12.849088 33.112186,12.512653 
z"/>
<path fill="#152053" opacity="1.000000" stroke="none" 
	d="
M43.534492,54.994553 
	C43.771706,54.518139 44.008919,54.041729 44.422142,53.103951 
	C44.731026,52.090267 44.863903,51.537949 45.110657,50.708004 
	C46.117924,50.597775 47.011311,50.765163 47.793118,51.080799 
	C47.681541,51.229042 47.905258,51.525097 47.576931,51.576584 
	C47.502464,52.147530 47.756329,52.666988 48.012665,53.422890 
	C48.015141,53.659336 48.028873,54.132050 48.028873,54.132050 
	C46.922668,55.004066 45.816460,55.876083 44.263298,56.556572 
	C43.722393,55.908215 43.628441,55.451385 43.534492,54.994553 
z"/>
<path fill="#F50405" opacity="1.000000" stroke="none" 
	d="
M59.417057,33.146065 
	C59.534103,35.814503 59.651150,38.482941 59.277321,41.495087 
	C58.583439,41.875134 58.380428,41.911472 58.120888,41.587700 
	C57.963459,40.510952 57.862564,39.794315 57.845230,38.687241 
	C58.013889,36.980358 58.098991,35.663910 58.471478,34.084126 
	C58.697929,33.568180 58.636990,33.315563 58.771996,33.228462 
	C59.117649,33.311344 59.267353,33.228706 59.417057,33.146065 
z"/>
<path fill="#658BBC" opacity="1.000000" stroke="none" 
	d="
M8.176167,42.569016 
	C8.176167,42.569016 8.335349,42.405289 8.444338,42.031532 
	C8.654165,41.087032 8.755004,40.516289 9.015266,39.903946 
	C9.174689,39.862350 9.502552,39.867973 9.856902,39.919121 
	C10.448673,39.989460 10.686094,40.008648 11.189917,39.886795 
	C11.715361,39.440933 11.974402,39.136120 12.553120,38.885597 
	C13.088604,38.952332 13.304415,38.964775 13.461058,39.352520 
	C13.322397,40.482674 13.242906,41.237522 12.844707,42.069313 
	C11.982333,43.060711 11.438667,43.975163 10.603905,44.788002 
	C9.600594,43.980598 8.888380,43.274807 8.176167,42.569016 
z"/>
<path fill="#77AFCC" opacity="1.000000" stroke="none" 
	d="
M21.081066,13.599688 
	C19.373470,14.562100 17.524189,15.196995 15.114342,15.992411 
	C14.195828,16.009518 13.837879,15.866101 13.415616,15.411161 
	C13.257478,14.479671 13.163653,13.859706 13.389099,13.214571 
	C14.784418,12.843157 15.860467,12.496911 16.936516,12.150665 
	C18.270803,12.524500 19.605093,12.898335 21.081066,13.599688 
z"/>
<path fill="#585492" opacity="1.000000" stroke="none" 
	d="
M55.074570,46.214703 
	C54.305820,47.451931 53.537071,48.689163 52.350574,49.753693 
	C51.932827,49.580994 51.919350,49.170513 51.877636,48.939629 
	C51.703884,48.406212 51.481365,48.202797 50.740356,47.976906 
	C50.027149,47.773724 49.741955,47.692142 49.420128,47.315460 
	C49.364212,46.818172 49.344925,46.615986 49.421646,46.333992 
	C49.517651,46.254189 49.766754,46.203598 50.038200,46.050919 
	C50.876049,45.644222 51.442455,45.390213 52.352783,45.154083 
	C52.920307,45.224052 53.143909,45.276146 53.464989,45.386032 
	C53.562466,45.443825 53.699760,45.856224 53.953194,45.796806 
	C54.495945,45.896492 54.785259,46.055595 55.074570,46.214703 
z"/>
<path fill="#49375A" opacity="1.000000" stroke="none" 
	d="
M10.161304,29.980490 
	C9.954354,29.692127 9.747404,29.403765 9.281134,29.028439 
	C9.089509,28.018148 9.157205,27.094826 9.923890,26.040478 
	C11.389701,25.781380 12.156521,25.653307 13.192694,25.702562 
	C13.649096,25.982737 13.836146,26.085585 14.007804,26.443951 
	C13.750308,27.122524 13.508203,27.545576 13.142498,28.251631 
	C12.658498,29.033873 12.298098,29.533112 11.641865,30.016373 
	C10.951124,29.993759 10.556214,29.987123 10.161304,29.980490 
z"/>
<path fill="#838DBE" opacity="1.000000" stroke="none" 
	d="
M37.108704,54.595860 
	C38.099541,55.375446 39.090382,56.155033 40.137955,57.256413 
	C38.398945,58.102520 36.603195,58.626839 34.394833,58.727200 
	C33.990459,57.860783 33.998703,57.418327 34.230499,56.936371 
	C34.454052,56.896877 34.907398,56.925140 35.211479,56.978016 
	C35.652611,56.332905 35.789658,55.634918 36.226532,54.866650 
	C36.720470,54.729530 36.914585,54.662697 37.108704,54.595860 
z"/>
<path fill="#747DB9" opacity="1.000000" stroke="none" 
	d="
M26.945143,58.773224 
	C25.221592,58.540688 23.498039,58.308155 21.593988,57.711731 
	C21.846291,56.979912 22.279091,56.611977 22.980181,56.464165 
	C24.544415,56.119251 25.840357,55.554226 27.144119,55.261162 
	C27.124685,55.892559 27.097435,56.251999 27.055511,56.973022 
	C27.008940,57.814144 26.977041,58.293686 26.945143,58.773224 
z"/>
<path fill="#967076" opacity="1.000000" stroke="none" 
	d="
M12.923341,25.525236 
	C12.156521,25.653307 11.389701,25.781380 10.235598,25.878456 
	C9.663445,25.455389 9.478573,25.063322 9.379179,24.346418 
	C9.951118,23.248777 10.437582,22.475969 11.210588,21.357880 
	C11.497132,21.012598 11.975323,21.033201 11.975323,21.033201 
	C13.248834,21.782391 14.522344,22.531578 15.709185,23.663647 
	C15.622516,24.046524 15.236032,24.075321 14.924044,24.075211 
	C14.049151,24.558477 13.486246,25.041857 12.923341,25.525236 
z"/>
<path fill="#6F5A6E" opacity="1.000000" stroke="none" 
	d="
M59.287121,32.788593 
	C59.267353,33.228706 59.117649,33.311344 58.410690,33.232937 
	C57.614468,33.101093 57.375500,33.130287 56.680744,33.425037 
	C55.835049,34.226784 55.445137,34.762970 54.940483,34.624199 
	C54.868397,33.494816 54.911053,33.040390 54.962379,32.121849 
	C55.032013,30.422659 55.092979,29.187580 55.459274,27.980865 
	C55.967236,27.982103 56.169857,27.954979 56.586258,28.005535 
	C56.800037,28.083216 57.187004,28.322376 57.187004,28.322376 
	C57.296486,28.653807 57.405964,28.985235 57.127457,29.713436 
	C57.442184,30.388435 58.144901,30.666660 58.847622,30.944887 
	C58.950809,31.440298 59.053997,31.935711 59.287121,32.788593 
z"/>
<path fill="#075596" opacity="1.000000" stroke="none" 
	d="
M56.832424,19.010691 
	C56.909435,20.354206 56.986450,21.697720 56.766888,23.483019 
	C56.470314,23.924803 56.056873,24.014986 55.723034,24.003719 
	C54.944180,23.991684 54.499161,23.990913 54.012314,23.731613 
	C53.931751,23.302862 53.893017,23.132639 54.000450,22.639774 
	C54.437176,21.214739 54.727741,20.112347 55.193905,18.957069 
	C55.369507,18.904182 55.732704,18.852999 56.006023,18.903648 
	C56.463707,18.973099 56.648067,18.991896 56.832424,19.010691 
z"/>
<path fill="#221D45" opacity="1.000000" stroke="none" 
	d="
M16.592976,50.376678 
	C18.434914,51.666306 19.962749,52.882187 21.543526,54.720390 
	C21.596468,55.342712 21.272211,55.703800 21.033878,55.401409 
	C20.177111,55.245140 19.558676,55.391258 18.700069,55.479919 
	C18.459896,55.422455 18.138321,55.797325 18.124174,55.819862 
	C18.110027,55.842400 18.116308,55.895248 18.116308,55.895248 
	C17.771908,55.663067 17.427505,55.430882 17.266750,54.595406 
	C16.844862,53.098587 16.239330,52.205059 15.633797,51.311531 
	C15.848823,50.975330 16.063848,50.639133 16.592976,50.376678 
z"/>
<path fill="#44A0C3" opacity="1.000000" stroke="none" 
	d="
M16.587420,12.082037 
	C15.860467,12.496911 14.784418,12.843157 13.156212,13.046476 
	C12.244936,12.275128 11.885817,11.646708 11.526698,11.018288 
	C13.097239,11.349995 14.667782,11.681702 16.587420,12.082037 
z"/>
<path fill="#F4C086" opacity="1.000000" stroke="none" 
	d="
M22.990150,16.275606 
	C22.988035,15.752028 22.985918,15.228450 22.881487,14.323805 
	C23.630356,13.572030 24.481537,13.201323 25.808712,12.768720 
	C26.284708,12.706825 26.573544,12.755128 26.667366,12.831019 
	C26.761190,12.906911 26.964470,13.037013 26.819714,13.256512 
	C26.906288,14.010151 27.137617,14.544293 27.275408,15.302082 
	C27.181870,15.525729 27.050320,15.992382 26.769833,16.013042 
	C25.753277,16.145199 25.017206,16.256695 24.081257,16.264744 
	C23.575287,16.129059 23.278212,16.167162 22.990150,16.275606 
z"/>
<path fill="#3A2D2E" opacity="1.000000" stroke="none" 
	d="
M27.070185,56.611435 
	C27.097435,56.251999 27.124685,55.892559 27.362328,55.264442 
	C27.572718,54.995758 28.008303,54.959412 28.364658,54.973301 
	C29.750254,55.534435 30.779493,56.081680 31.754812,56.849350 
	C31.700891,57.069775 31.884325,57.484913 31.884325,57.484917 
	C31.258987,57.462929 30.633648,57.440945 29.350657,57.197498 
	C28.152063,56.854504 27.611124,56.732971 27.070185,56.611435 
z"/>
<path fill="#141127" opacity="1.000000" stroke="none" 
	d="
M15.297812,51.561478 
	C16.239330,52.205059 16.844862,53.098587 17.511452,54.022438 
	C17.020067,54.495842 16.467623,54.938927 15.915180,55.382008 
	C15.597395,54.191811 15.279610,53.001617 15.297812,51.561478 
z"/>
<path fill="#84788C" opacity="1.000000" stroke="none" 
	d="
M38.895523,13.900296 
	C37.982487,13.376944 37.069450,12.853590 36.053009,12.026363 
	C37.547577,11.928659 39.145546,12.134830 40.888527,13.016551 
	C41.022797,13.949929 41.012054,14.207756 40.688179,14.245985 
	C39.881878,13.984356 39.388699,13.942326 38.895523,13.900296 
z"/>
<path fill="#12183F" opacity="1.000000" stroke="none" 
	d="
M53.367512,45.328236 
	C53.143909,45.276146 52.920307,45.224052 52.496151,44.844101 
	C52.654285,44.247616 53.012970,43.978996 53.559650,43.642376 
	C54.126930,43.395187 54.506214,43.215996 55.119480,43.042881 
	C55.353462,43.048958 55.821251,43.066612 55.899910,43.295486 
	C55.978573,43.524361 56.024059,44.006252 55.962425,44.177845 
	C55.774773,44.573078 55.741283,44.809814 55.800335,45.059654 
	C55.470169,45.197651 55.296173,45.444981 55.176460,46.008171 
	C54.785259,46.055595 54.495945,45.896492 53.921799,45.690239 
	C53.636967,45.643097 53.367512,45.328236 53.367512,45.328236 
z"/>
<path fill="#F0E1CC" opacity="1.000000" stroke="none" 
	d="
M32.870224,12.363848 
	C33.239243,12.849088 33.366299,13.185522 33.479790,13.956644 
	C33.170246,14.444191 32.932919,14.591668 32.603180,14.736727 
	C32.452114,14.639689 32.105415,14.545905 31.965427,14.256550 
	C30.653946,13.521422 29.482452,13.075649 28.342854,12.454437 
	C28.374748,12.278998 28.463570,11.933607 28.463570,11.933607 
	C29.851801,12.027419 31.240034,12.121231 32.870224,12.363848 
z"/>
<path fill="#464581" opacity="1.000000" stroke="none" 
	d="
M51.919350,49.170513 
	C51.919350,49.170513 51.932827,49.580994 51.963539,49.784042 
	C51.994247,49.987095 51.915562,50.471397 51.520924,50.761356 
	C50.052608,51.209244 48.978935,51.367168 47.905258,51.525097 
	C47.905258,51.525097 47.681541,51.229042 47.784035,51.103676 
	C47.886532,50.978306 47.880653,50.934338 48.169037,50.788860 
	C48.615753,50.252792 48.774082,49.862202 48.923393,49.217598 
	C49.095165,48.512581 49.275963,48.061569 49.456760,47.610561 
	C49.741955,47.692142 50.027149,47.773724 50.787174,48.200012 
	C51.401379,48.836983 51.620495,49.045578 51.919350,49.170513 
z"/>
<path fill="#DF7F8A" opacity="1.000000" stroke="none" 
	d="
M11.184515,11.044134 
	C11.885817,11.646708 12.244936,12.275128 12.836942,13.071644 
	C13.163653,13.859706 13.257478,14.479671 13.068369,15.497276 
	C12.550800,15.919810 12.316164,15.944707 12.081529,15.969603 
	C11.428308,14.825984 10.775089,13.682365 9.978933,12.238358 
	C10.171441,11.648640 10.506886,11.359310 11.184515,11.044134 
z"/>
<path fill="#7C85B1" opacity="1.000000" stroke="none" 
	d="
M43.179718,54.864723 
	C43.628441,55.451385 43.722393,55.908215 43.952766,56.606133 
	C43.683250,56.905151 43.277306,56.963081 42.475460,57.077785 
	C42.079559,57.134560 41.887718,57.122234 41.887718,57.122234 
	C41.462780,56.187290 41.037842,55.252342 40.612907,54.317398 
	C41.350254,54.456566 42.087597,54.595730 43.179718,54.864723 
z"/>
<path fill="#19192C" opacity="1.000000" stroke="none" 
	d="
M13.229052,47.916275 
	C13.236988,48.413261 13.244925,48.910248 13.380730,49.758606 
	C12.669169,49.051090 11.829741,47.992207 11.003521,46.493595 
	C11.016729,46.053871 11.046259,46.083000 11.347232,46.099663 
	C12.175154,46.716305 12.702103,47.316292 13.229052,47.916275 
z"/>
<path fill="#866175" opacity="1.000000" stroke="none" 
	d="
M8.610636,14.059975 
	C8.998646,15.681630 8.986980,17.428923 8.740464,19.600475 
	C8.505613,20.024733 8.170990,20.025639 8.170990,20.025639 
	C8.184314,18.078962 8.197638,16.132286 8.610636,14.059975 
z"/>
<path fill="#ECF8FA" opacity="1.000000" stroke="none" 
	d="
M8.127992,42.979073 
	C8.888380,43.274807 9.600594,43.980598 10.648537,45.085419 
	C11.004930,45.683964 11.025595,45.883480 11.046259,46.083000 
	C11.046259,46.083000 11.016729,46.053871 11.036608,46.048260 
	C10.064262,45.158142 9.072041,44.273636 8.127992,42.979073 
z"/>
<path fill="#565DA2" opacity="1.000000" stroke="none" 
	d="
M47.576931,51.576584 
	C48.978935,51.367168 50.052608,51.209244 51.460640,50.999157 
	C51.408367,51.586864 51.021740,52.226730 50.002312,52.947681 
	C48.916401,53.081329 48.463295,53.133884 48.010193,53.186443 
	C47.756329,52.666988 47.502464,52.147530 47.576931,51.576584 
z"/>
<path fill="#8B9AC8" opacity="1.000000" stroke="none" 
	d="
M34.006943,56.975868 
	C33.998703,57.418327 33.990459,57.860783 33.988068,58.635006 
	C33.213394,58.684074 32.432877,58.401379 31.768341,57.801796 
	C31.884325,57.484913 31.700891,57.069775 32.112854,56.954285 
	C33.018856,56.884483 33.512901,56.930176 34.006943,56.975868 
z"/>
<path fill="#90DAF2" opacity="1.000000" stroke="none" 
	d="
M7.935400,34.994946 
	C7.961977,35.743599 7.988554,36.492249 8.004234,37.864044 
	C7.975983,38.654129 7.958628,38.821064 7.729879,38.989418 
	C7.518486,38.990845 7.095793,38.981548 7.095793,38.981548 
	C7.059685,37.918114 7.023578,36.854683 7.237371,35.394432 
	C7.487273,34.997612 7.935400,34.994946 7.935400,34.994946 
z"/>
<path fill="#958588" opacity="1.000000" stroke="none" 
	d="
M22.711889,56.244045 
	C22.279091,56.611977 21.846291,56.979912 21.197369,57.716019 
	C20.504997,57.785767 20.028748,57.487335 19.145245,56.689873 
	C18.538099,56.059669 18.338209,55.928497 18.138321,55.797325 
	C18.138321,55.797325 18.459896,55.422455 19.081318,55.687492 
	C20.281630,55.954689 20.860521,55.956848 21.611706,55.942215 
	C21.784002,55.925423 22.122637,55.853344 22.300085,55.905571 
	C22.477533,55.957794 22.711889,56.244045 22.711889,56.244045 
z"/>
<path fill="#8B9AC8" opacity="1.000000" stroke="none" 
	d="
M27.055511,56.973022 
	C27.611124,56.732971 28.152063,56.854504 29.037975,57.212868 
	C28.794500,57.940018 28.206051,58.430336 27.281372,58.846939 
	C26.977041,58.293686 27.008940,57.814144 27.055511,56.973022 
z"/>
<path fill="#090F2B" opacity="1.000000" stroke="none" 
	d="
M58.910202,30.639835 
	C58.144901,30.666660 57.442184,30.388435 56.866455,29.844994 
	C57.653221,29.831446 58.313004,30.083113 58.910202,30.639835 
z"/>
<path fill="#565DA2" opacity="1.000000" stroke="none" 
	d="
M56.056873,24.014986 
	C56.056873,24.014986 56.470314,23.924803 56.677101,23.876106 
	C56.942776,25.021099 57.001659,26.214787 57.123772,27.865425 
	C57.187004,28.322376 56.800037,28.083216 56.473442,27.624828 
	C56.116856,26.115955 56.086864,25.065472 56.056873,24.014986 
z"/>
<path fill="#5A4D79" opacity="1.000000" stroke="none" 
	d="
M8.105877,20.438643 
	C8.170990,20.025639 8.505613,20.024733 8.672621,20.032143 
	C8.925927,21.140882 9.012226,22.242212 9.322695,23.692944 
	C9.044832,22.978781 8.542798,21.915215 8.105877,20.438643 
z"/>
<path fill="#176092" opacity="1.000000" stroke="none" 
	d="
M56.907951,18.618258 
	C56.648067,18.991896 56.463707,18.973099 56.067436,18.523607 
	C55.955566,17.070873 56.055603,16.048832 56.331421,15.027646 
	C56.507206,15.028501 56.858486,15.042667 56.858486,15.042667 
	C56.900154,16.103720 56.941818,17.164772 56.907951,18.618258 
z"/>
<path fill="#4A6391" opacity="1.000000" stroke="none" 
	d="
M56.931252,14.688919 
	C56.858486,15.042667 56.507206,15.028501 56.258293,14.686781 
	C55.957142,13.883863 55.904900,13.422666 55.932365,12.674477 
	C56.032818,11.991885 56.053570,11.596284 56.074318,11.200684 
	C56.384220,12.245512 56.694122,13.290340 56.931252,14.688919 
z"/>
<path fill="#EBDDED" opacity="1.000000" stroke="none" 
	d="
M55.958466,10.936476 
	C56.053570,11.596284 56.032818,11.991885 55.736557,12.556465 
	C55.232288,12.511319 55.072437,12.254321 54.987877,11.637321 
	C54.961617,10.899527 54.928982,10.478864 54.896347,10.058200 
	C55.211765,10.262889 55.527187,10.467579 55.958466,10.936476 
z"/>
<path fill="#94D0E2" opacity="1.000000" stroke="none" 
	d="
M7.962794,34.614632 
	C7.935400,34.994946 7.487273,34.997612 7.264529,34.996025 
	C7.017876,34.231628 6.993966,33.468815 7.209505,32.310848 
	C7.638497,31.925564 7.828040,31.935440 8.017583,31.945314 
	C8.008451,32.708317 7.999320,33.471317 7.962794,34.614632 
z"/>
<path fill="#4A84B7" opacity="1.000000" stroke="none" 
	d="
M41.001308,14.465584 
	C41.012054,14.207756 41.022797,13.949929 41.059139,13.306185 
	C41.502209,12.945173 41.919682,12.970079 42.650459,12.965681 
	C42.974453,13.123572 42.985142,13.310769 42.752277,13.804523 
	C42.006256,14.229248 41.503780,14.347416 41.001308,14.465584 
z"/>
<path fill="#485191" opacity="1.000000" stroke="none" 
	d="
M56.024059,44.006252 
	C56.024059,44.006252 55.978573,43.524361 56.256721,43.268898 
	C57.009083,42.993641 57.483292,42.973846 58.010689,43.007694 
	C58.063869,43.061337 58.170959,43.167900 58.170959,43.167900 
	C57.959400,43.427368 57.747841,43.686836 57.034378,43.989697 
	C56.363003,44.024139 56.193531,44.015198 56.024059,44.006252 
z"/>
<path fill="#DD6B7B" opacity="1.000000" stroke="none" 
	d="
M54.582748,10.006016 
	C54.928982,10.478864 54.961617,10.899527 54.782555,11.693214 
	C54.570854,12.066239 54.154442,12.153959 53.967197,11.963390 
	C53.641109,11.661261 53.502270,11.549700 53.363426,11.438139 
	C53.472961,11.102701 53.582500,10.767263 53.663643,10.168220 
	C53.846546,9.921020 54.057850,9.937427 54.582748,10.006016 
z"/>
<path fill="#4D4E79" opacity="1.000000" stroke="none" 
	d="
M55.962425,44.177845 
	C56.193531,44.015198 56.363003,44.024139 56.786293,44.044998 
	C56.774067,44.491352 56.508022,44.925800 56.021156,45.209953 
	C55.741283,44.809814 55.774773,44.573078 55.962425,44.177845 
z"/>
<path fill="#E3A976" opacity="1.000000" stroke="none" 
	d="
M28.255016,11.733547 
	C28.463570,11.933607 28.374748,12.278998 28.009033,12.567999 
	C27.417038,12.917004 27.190754,12.977008 26.964470,13.037013 
	C26.964470,13.037013 26.761190,12.906911 26.749115,12.658988 
	C26.737041,12.411065 26.724508,12.030400 26.724508,12.030401 
	C27.165161,11.864762 27.605812,11.699124 28.255016,11.733547 
z"/>
<path fill="#4A84B7" opacity="1.000000" stroke="none" 
	d="
M44.650860,12.094890 
	C44.474571,12.420081 43.992672,12.688741 43.220505,12.959152 
	C43.401913,12.653389 43.873581,12.345873 44.650860,12.094890 
z"/>
<path fill="#161431" opacity="1.000000" stroke="none" 
	d="
M48.012665,53.422890 
	C48.463295,53.133884 48.916401,53.081329 49.711060,53.029606 
	C49.590065,53.359306 49.127518,53.688175 48.346924,54.074547 
	C48.028873,54.132050 48.015141,53.659336 48.012665,53.422890 
z"/>
<path fill="#F0FAFA" opacity="1.000000" stroke="none" 
	d="
M8.006131,31.697578 
	C7.828040,31.935440 7.638497,31.925564 7.164145,31.931723 
	C7.091462,31.626577 7.303590,31.305399 7.738406,30.969601 
	C7.961094,30.954979 7.994679,31.449841 8.006131,31.697578 
z"/>
<path fill="#A5D9E8" opacity="1.000000" stroke="none" 
	d="
M8.855844,39.945541 
	C8.755004,40.516289 8.654165,41.087032 8.428131,41.918514 
	C8.147518,41.740925 7.992101,41.302601 7.878422,40.468170 
	C7.920160,40.072067 8.015079,39.984604 8.225553,39.980919 
	C8.436027,39.977238 8.855844,39.945541 8.855844,39.945541 
z"/>
<path fill="#838DBE" opacity="1.000000" stroke="none" 
	d="
M41.752750,57.401680 
	C41.887718,57.122234 42.079559,57.134560 42.174706,57.148102 
	C42.063942,57.480225 41.858028,57.798805 41.363670,58.049969 
	C41.256073,57.882084 41.436928,57.781609 41.752750,57.401680 
z"/>
<path fill="#485191" opacity="1.000000" stroke="none" 
	d="
M58.177422,41.947807 
	C58.380428,41.911472 58.583439,41.875134 59.096046,41.826923 
	C59.196556,42.190613 58.987457,42.566177 58.474659,43.054821 
	C58.170959,43.167900 58.063869,43.061337 58.064686,42.756042 
	C58.102806,42.283100 58.140114,42.115452 58.177422,41.947807 
z"/>
<path fill="#FDF4DD" opacity="1.000000" stroke="none" 
	d="
M26.583401,12.094646 
	C26.724508,12.030400 26.737041,12.411065 26.655293,12.583097 
	C26.573544,12.755128 26.284708,12.706825 26.148430,12.653652 
	C26.120581,12.419228 26.263962,12.272031 26.583401,12.094646 
z"/>
<path fill="#616388" opacity="1.000000" stroke="none" 
	d="
M18.124174,55.819862 
	C18.338209,55.928497 18.538099,56.059669 18.884354,56.518509 
	C18.715126,56.716599 18.399534,56.587025 18.100124,56.176353 
	C18.116308,55.895248 18.110027,55.842400 18.124174,55.819862 
z"/>
<path fill="#A5D9E8" opacity="1.000000" stroke="none" 
	d="
M7.127805,39.225250 
	C7.095793,38.981548 7.518486,38.990845 7.757314,39.238045 
	C7.996141,39.485245 8.015079,39.984604 8.015079,39.984604 
	C8.015079,39.984604 7.920160,40.072067 7.869380,40.117374 
	C7.493565,40.031574 7.273971,39.800331 7.127805,39.225250 
z"/>
<path fill="#F6FAF0" opacity="1.000000" stroke="none" 
	d="
M16.961992,23.960461 
	C18.454096,21.677513 19.946198,19.394564 21.852943,17.335617 
	C22.470694,17.803736 22.721828,17.979095 23.026100,18.457264 
	C21.044460,20.572615 19.057714,22.316397 17.043165,24.035862 
	C17.015360,24.011547 16.961992,23.960461 16.961992,23.960461 
z"/>
<path fill="#E9C5BD" opacity="1.000000" stroke="none" 
	d="
M12.252541,20.851192 
	C11.975323,21.033201 11.497132,21.012598 11.257848,21.011425 
	C11.269275,20.173914 11.519986,19.337580 12.162572,18.285257 
	C12.739632,18.089724 12.924818,18.110174 13.110004,18.130627 
	C12.916590,18.976812 12.723174,19.823000 12.252541,20.851192 
z"/>
<path fill="#E9929A" opacity="1.000000" stroke="none" 
	d="
M13.343491,17.983534 
	C12.924818,18.110174 12.739632,18.089724 12.277016,18.035576 
	C11.999910,17.549440 12.000235,17.097004 12.041044,16.307083 
	C12.316164,15.944707 12.550800,15.919810 13.132683,15.808800 
	C13.837879,15.866101 14.195828,16.009518 14.835382,16.234219 
	C14.603651,16.822485 14.090313,17.329464 13.343491,17.983534 
z"/>
<path fill="#F6FAF0" opacity="1.000000" stroke="none" 
	d="
M15.236032,24.075321 
	C15.236032,24.075321 15.622516,24.046524 15.815035,24.023453 
	C16.007553,24.000381 16.486277,23.994171 16.724134,23.977316 
	C16.961992,23.960461 17.015360,24.011547 17.006058,24.244640 
	C16.996758,24.477736 16.951540,24.899698 16.703487,24.954803 
	C16.295187,25.064827 16.134935,25.119743 15.483802,25.204405 
	C14.699799,25.381323 14.406677,25.528498 14.419312,25.293213 
	C14.895388,24.632280 15.065710,24.353802 15.236032,24.075321 
z"/>
<path fill="#49525D" opacity="1.000000" stroke="none" 
	d="
M22.962067,16.444462 
	C23.278212,16.167162 23.575287,16.129059 23.894215,16.550873 
	C23.722555,17.074226 23.538054,17.208000 23.217268,17.282440 
	C23.080982,17.223108 22.973160,16.942106 22.981178,16.951941 
	C22.989195,16.961775 22.967695,16.954008 22.967695,16.954008 
	C22.967695,16.954008 22.933983,16.613319 22.962067,16.444462 
z"/>
<path fill="#49525D" opacity="1.000000" stroke="none" 
	d="
M23.020992,18.085693 
	C22.721828,17.979095 22.470694,17.803736 22.222904,17.333031 
	C22.178219,17.106443 22.575443,17.043673 22.771568,16.998840 
	C22.967695,16.954008 22.989195,16.961775 23.108715,17.223419 
	C23.132030,17.660343 23.035828,17.835625 22.950119,18.040318 
	C22.960613,18.069729 23.020992,18.085693 23.020992,18.085693 
z"/>
<path fill="#3A364E" opacity="1.000000" stroke="none" 
	d="
M45.733437,18.347982 
	C45.733437,18.347982 45.530716,17.979918 45.939461,18.019016 
	C47.246616,18.009733 48.145031,17.961351 49.332611,18.049641 
	C50.413078,18.895920 51.204376,19.605528 52.010742,20.566038 
	C52.039677,21.161140 52.053547,21.505342 52.042435,22.136940 
	C52.011303,22.616560 52.005157,22.808783 51.623413,22.999725 
	C50.494221,23.002535 49.740631,23.006624 48.805141,22.748703 
	C48.014652,22.345083 47.406063,22.203476 46.600048,21.972139 
	C46.163540,21.707422 45.982246,21.485273 45.883022,20.932648 
	C45.911346,20.459816 45.915390,20.270294 45.899673,19.644707 
	C45.831089,18.921751 45.782261,18.634867 45.733437,18.347982 
z"/>
<path fill="#D97484" opacity="1.000000" stroke="none" 
	d="
M51.995674,20.315136 
	C51.204376,19.605528 50.413078,18.895920 49.300068,17.807945 
	C48.676418,17.052685 48.374489,16.675791 48.072556,16.298899 
	C49.172276,15.263490 50.271996,14.228081 51.807854,13.307781 
	C52.568710,13.644363 52.893425,13.865835 53.158951,14.505280 
	C53.111809,16.616541 53.123863,18.309830 52.854614,20.094856 
	C52.380764,20.229441 52.188221,20.272287 51.995674,20.315136 
z"/>
<path fill="#474350" opacity="1.000000" stroke="none" 
	d="
M40.688179,14.245985 
	C41.503780,14.347416 42.006256,14.229248 42.750504,14.085769 
	C43.501030,15.318871 44.009789,16.577286 44.357292,18.519497 
	C44.119537,19.447788 44.043030,19.692287 43.664803,19.814619 
	C41.897171,18.789133 40.431255,17.885815 38.965340,16.982494 
	C39.015182,16.148672 39.065025,15.314850 39.005196,14.190661 
	C39.388699,13.942326 39.881878,13.984356 40.688179,14.245985 
z"/>
<path fill="#474350" opacity="1.000000" stroke="none" 
	d="
M47.779716,16.284128 
	C48.374489,16.675791 48.676418,17.052685 49.010895,17.671272 
	C48.145031,17.961351 47.246616,18.009733 46.071636,17.855701 
	C46.359001,17.191977 46.922935,16.730667 47.779716,16.284128 
z"/>
<path fill="#DD6B7B" opacity="1.000000" stroke="none" 
	d="
M53.218143,14.087308 
	C52.893425,13.865835 52.568710,13.644363 52.097137,13.163162 
	C52.278820,12.508451 52.607357,12.113467 53.149658,11.578311 
	C53.502270,11.549700 53.641109,11.661261 53.914848,12.238102 
	C53.772541,13.164690 53.495342,13.625999 53.218143,14.087308 
z"/>
<path fill="#474350" opacity="1.000000" stroke="none" 
	d="
M45.456837,18.349314 
	C45.782261,18.634867 45.831089,18.921751 45.641129,19.694571 
	C45.252239,20.273216 45.102139,20.365927 44.852539,20.486931 
	C44.753044,20.515226 44.546310,20.507271 44.621662,20.020954 
	C44.686195,19.206736 44.675377,18.878836 44.664562,18.550934 
	C44.836452,18.484173 45.008343,18.417410 45.456837,18.349314 
z"/>
<path fill="#2A4674" opacity="1.000000" stroke="none" 
	d="
M44.635010,18.554482 
	C44.675377,18.878836 44.686195,19.206736 44.583405,20.008453 
	C44.469795,20.482267 44.411495,20.540041 44.298698,20.390373 
	C44.185898,20.240707 43.966522,19.936785 43.966522,19.936785 
	C44.043030,19.692287 44.119537,19.447788 44.377609,18.861940 
	C44.559174,18.520590 44.605457,18.558031 44.635010,18.554482 
z"/>
<path fill="#F4EFFA" opacity="1.000000" stroke="none" 
	d="
M11.347232,46.099663 
	C11.025595,45.883480 11.004930,45.683964 10.939634,45.187027 
	C11.438667,43.975163 11.982333,43.060711 13.192278,42.076080 
	C14.560612,41.981945 15.262667,41.957989 16.017262,42.307884 
	C18.452370,45.886292 21.338358,47.055313 25.325680,45.083778 
	C26.718945,46.152924 27.832611,47.040012 28.953159,48.311073 
	C27.670355,49.452438 26.380672,50.209839 24.697784,50.985630 
	C23.519127,51.042702 22.733669,51.081383 21.948214,51.120064 
	C21.948214,51.120064 22.006170,50.959949 21.973030,50.604805 
	C21.286636,50.180569 20.633383,50.111477 19.980131,50.042381 
	C17.969355,49.331387 15.958576,48.620392 13.588425,47.912834 
	C12.702103,47.316292 12.175154,46.716305 11.347232,46.099663 
z"/>
<path fill="#424666" opacity="1.000000" stroke="none" 
	d="
M22.980181,56.464165 
	C22.711889,56.244045 22.477533,55.957794 22.289135,55.628105 
	C21.978987,55.156902 21.857233,55.015392 21.735481,54.873878 
	C21.818001,54.383392 21.900520,53.892906 22.573704,53.376930 
	C23.787794,53.255978 24.411221,53.160522 25.314930,53.078331 
	C25.780010,53.120640 25.964808,53.149685 26.299732,53.409752 
	C26.973917,53.804676 27.497974,53.968575 28.016693,54.339176 
	C28.011351,54.545879 28.008303,54.959412 28.008303,54.959412 
	C28.008303,54.959412 27.572718,54.995758 27.354509,54.992477 
	C25.840357,55.554226 24.544415,56.119251 22.980181,56.464165 
z"/>
<path fill="#9995DF" opacity="1.000000" stroke="none" 
	d="
M25.034645,53.065063 
	C24.411221,53.160522 23.787794,53.255978 22.872810,53.125931 
	C22.387747,52.439476 22.194241,51.978535 21.974474,51.318825 
	C22.733669,51.081383 23.519127,51.042702 24.703524,51.171593 
	C25.102465,51.339165 25.137564,51.709080 25.101336,52.047279 
	C25.054955,52.612003 25.044800,52.838535 25.034645,53.065063 
z"/>
<path fill="#EDEBFB" opacity="1.000000" stroke="none" 
	d="
M20.138811,50.306152 
	C20.633383,50.111477 21.286636,50.180569 22.001022,50.524399 
	C21.473934,50.722733 20.885712,50.646332 20.138811,50.306152 
z"/>
<path fill="#747DB9" opacity="1.000000" stroke="none" 
	d="
M21.725479,54.898422 
	C21.857233,55.015392 21.978987,55.156902 22.111687,55.575878 
	C22.122637,55.853344 21.784002,55.925423 21.569298,55.877441 
	C21.354593,55.829456 21.272211,55.703800 21.272211,55.703800 
	C21.272211,55.703800 21.596468,55.342712 21.659893,55.108437 
	C21.723316,54.874165 21.715477,54.922970 21.725479,54.898422 
z"/>
<path fill="#4A84B7" opacity="1.000000" stroke="none" 
	d="
M9.967816,37.972118 
	C10.317612,36.542576 10.667407,35.113037 11.320213,33.225281 
	C11.875060,32.571285 12.085661,32.338242 12.464978,32.290371 
	C13.420031,33.342693 14.165132,34.172569 14.928017,35.224632 
	C15.054504,35.859753 15.163206,36.272690 15.210686,36.920177 
	C14.754705,37.436890 14.359948,37.719048 13.682988,37.985138 
	C13.028084,38.005039 12.655381,38.041012 11.923349,38.057907 
	C11.087234,38.073238 10.610447,38.107651 10.092508,38.099274 
	C10.051357,38.056488 9.967816,37.972118 9.967816,37.972118 
z"/>
<path fill="#2B305C" opacity="1.000000" stroke="none" 
	d="
M12.255026,32.067924 
	C12.085661,32.338242 11.875060,32.571285 11.400852,32.846939 
	C10.829985,32.160465 10.481488,31.394123 10.147148,30.304134 
	C10.556214,29.987123 10.951124,29.993759 11.710117,30.352461 
	C12.134476,31.158995 12.194751,31.613459 12.255026,32.067924 
z"/>
<path fill="#DFF6FC" opacity="1.000000" stroke="none" 
	d="
M8.225553,39.980919 
	C8.015079,39.984604 7.996141,39.485245 7.968707,39.236618 
	C7.958628,38.821064 7.975983,38.654129 8.029815,38.237808 
	C8.277422,38.013710 8.488554,38.038994 9.050871,38.301193 
	C9.528273,38.754440 9.700416,38.924236 9.927492,39.051159 
	C9.936498,39.054836 9.928716,39.071819 9.861651,39.291988 
	C9.794587,39.512157 9.502552,39.867973 9.502552,39.867973 
	C9.502552,39.867973 9.174689,39.862350 9.015266,39.903946 
	C8.855844,39.945541 8.436027,39.977238 8.225553,39.980919 
z"/>
<path fill="#4A84B7" opacity="1.000000" stroke="none" 
	d="
M9.918486,39.047482 
	C9.700416,38.924236 9.528273,38.754440 9.364399,38.359810 
	C9.326741,38.181519 9.652966,38.094135 9.810391,38.033127 
	C9.967816,37.972118 10.051357,38.056488 10.036280,38.324688 
	C10.021201,38.592888 9.918486,39.047482 9.918486,39.047482 
z"/>
<path fill="#919AEB" opacity="1.000000" stroke="none" 
	d="
M25.314930,53.078331 
	C25.044800,52.838535 25.054955,52.612003 25.543049,52.098900 
	C30.349237,51.583553 34.677483,51.354786 38.997520,51.328827 
	C38.989311,51.531639 38.978325,51.937435 38.978325,51.937439 
	C38.390739,52.361855 37.803150,52.786274 36.694588,53.466900 
	C35.402859,53.532234 34.632107,53.341358 33.436295,53.088905 
	C30.724020,53.077793 28.436813,53.128262 26.149607,53.178730 
	C25.964808,53.149685 25.780010,53.120640 25.314930,53.078331 
z"/>
<path fill="#495071" opacity="1.000000" stroke="none" 
	d="
M33.861359,53.150482 
	C34.632107,53.341358 35.402859,53.532234 36.475750,53.661644 
	C36.838875,53.764214 36.899860,53.928257 37.034775,54.344082 
	C36.914585,54.662697 36.720470,54.729530 35.916054,54.859367 
	C34.721615,55.033569 34.137482,55.144772 33.553345,55.255974 
	C34.004696,55.812363 34.456047,56.368752 34.907398,56.925140 
	C34.907398,56.925140 34.454052,56.896877 34.230499,56.936371 
	C33.512901,56.930176 33.018856,56.884483 32.166775,56.733856 
	C30.779493,56.081680 29.750254,55.534435 28.364658,54.973301 
	C28.008303,54.959412 28.011351,54.545879 28.407093,54.294415 
	C30.489008,53.745461 32.175182,53.447971 33.861359,53.150482 
z"/>
<path fill="#17245D" opacity="1.000000" stroke="none" 
	d="
M44.996780,50.985626 
	C44.863903,51.537949 44.731026,52.090267 44.388206,52.834549 
	C43.322372,52.923775 42.466480,52.821041 41.597847,52.505928 
	C41.772053,51.962303 41.958992,51.631062 42.496361,51.217846 
	C43.563450,51.085793 44.280117,51.035709 44.996780,50.985626 
z"/>
<path fill="#8B94DE" opacity="1.000000" stroke="none" 
	d="
M42.145931,51.299816 
	C41.958992,51.631062 41.772053,51.962303 41.304626,52.369675 
	C40.583569,52.270561 40.142990,52.095318 39.340370,51.928757 
	C38.978325,51.937435 38.989311,51.531639 39.313690,51.263779 
	C40.431484,50.702946 41.224892,50.409973 42.038670,50.413956 
	C42.088005,50.907207 42.116970,51.103512 42.145931,51.299816 
z"/>
<path fill="#2A4674" opacity="1.000000" stroke="none" 
	d="
M38.640312,16.973377 
	C40.431255,17.885815 41.897171,18.789133 43.664803,19.814619 
	C43.966522,19.936785 44.185898,20.240707 43.992413,20.521748 
	C42.916271,20.858902 42.033615,20.915020 41.038940,20.730185 
	C40.621002,20.347206 40.315079,20.205181 39.750992,20.063353 
	C39.323204,20.092672 39.153580,20.121794 38.673225,19.985516 
	C37.268494,19.496994 36.174496,19.173874 35.050224,18.646584 
	C35.019951,18.442411 34.962379,18.033640 35.265411,18.004723 
	C36.050674,17.652826 36.532898,17.329847 37.015121,17.006866 
	C37.448509,16.992664 37.881901,16.978460 38.640312,16.973377 
z"/>
<path fill="#353F6C" opacity="1.000000" stroke="none" 
	d="
M36.803673,16.986240 
	C36.532898,17.329847 36.050674,17.652826 35.017899,17.983856 
	C34.467354,17.991909 33.971050,17.960861 33.968269,17.707304 
	C33.945923,17.285835 33.926353,17.117924 33.916954,16.935478 
	C33.927124,16.920944 33.914104,16.883068 34.287483,16.919199 
	C35.163109,16.963997 35.665352,16.972664 36.167599,16.981331 
	C36.167599,16.981333 36.592220,16.965612 36.803673,16.986240 
z"/>
<path fill="#1F2851" opacity="1.000000" stroke="none" 
	d="
M36.134125,16.715321 
	C35.665352,16.972664 35.163109,16.963997 34.303459,16.688770 
	C33.946053,16.422211 34.007946,15.961899 34.338142,15.973972 
	C35.107601,15.965851 35.546860,15.945658 35.986118,15.925464 
	C36.024296,16.100079 36.062473,16.274693 36.134125,16.715321 
z"/>
<path fill="#807179" opacity="1.000000" stroke="none" 
	d="
M35.786438,15.642096 
	C35.546860,15.945658 35.107601,15.965851 34.111649,15.617458 
	C33.299797,15.129388 33.044640,15.009905 33.018990,14.803772 
	C33.248501,14.717122 33.692997,14.509393 33.692997,14.509394 
	C34.324253,14.792504 34.955505,15.075615 35.786438,15.642096 
z"/>
<path fill="#1B1D35" opacity="1.000000" stroke="none" 
	d="
M32.754242,14.833764 
	C32.932919,14.591668 33.170246,14.444191 33.662895,14.464057 
	C33.859570,14.536781 33.778858,14.496777 33.735928,14.503084 
	C33.692997,14.509393 33.248501,14.717122 33.010212,14.797177 
	C32.771923,14.877233 32.754242,14.833764 32.754242,14.833764 
z"/>
<path fill="#7A8EDB" opacity="1.000000" stroke="none" 
	d="
M42.496361,51.217846 
	C42.116970,51.103512 42.088005,50.907207 42.347034,50.302887 
	C43.749008,49.199387 44.862984,48.503906 46.279144,47.799774 
	C47.496098,47.332012 48.410870,46.872902 49.325642,46.413795 
	C49.344925,46.615986 49.364212,46.818172 49.420128,47.315460 
	C49.275963,48.061569 49.095165,48.512581 48.540051,49.287155 
	C48.070705,50.051926 47.975681,50.493130 47.880653,50.934338 
	C47.880653,50.934338 47.886532,50.978306 47.895615,50.955429 
	C47.011311,50.765163 46.117924,50.597775 45.110661,50.708004 
	C44.280117,51.035709 43.563450,51.085793 42.496361,51.217846 
z"/>
<path fill="#4D4E79" opacity="1.000000" stroke="none" 
	d="
M58.120888,41.587700 
	C58.140114,42.115452 58.102806,42.283100 58.011505,42.702400 
	C57.483292,42.973846 57.009083,42.993641 56.178062,43.040024 
	C55.821251,43.066612 55.353462,43.048958 55.050026,42.782364 
	C54.706863,42.340527 54.667137,42.165291 54.645153,41.795410 
	C54.502449,41.300045 54.282936,41.248272 53.974548,41.178238 
	C54.151947,40.421196 54.359158,39.931366 54.902328,39.312473 
	C55.473717,39.137138 55.709145,39.090866 56.247482,39.050842 
	C56.954147,39.063950 57.357910,39.070812 57.761669,39.077675 
	C57.862564,39.794315 57.963459,40.510952 58.120888,41.587700 
z"/>
<path fill="#6D6E91" opacity="1.000000" stroke="none" 
	d="
M57.845230,38.687241 
	C57.357910,39.070812 56.954147,39.063950 56.262138,38.793488 
	C55.980358,38.358589 55.986820,38.187294 56.327888,37.845314 
	C56.877228,36.448166 57.091965,35.221703 57.539612,34.049507 
	C57.772522,34.103771 58.184090,34.347458 58.184090,34.347458 
	C58.098991,35.663910 58.013889,36.980358 57.845230,38.687241 
z"/>
<path fill="#4A84B7" opacity="1.000000" stroke="none" 
	d="
M58.471478,34.084126 
	C58.184090,34.347458 57.772522,34.103771 57.469936,33.845978 
	C57.167351,33.588184 57.136532,33.159477 57.136532,33.159477 
	C57.375500,33.130287 57.614468,33.101093 58.214745,33.067421 
	C58.636990,33.315563 58.697929,33.568180 58.471478,34.084126 
z"/>
<path fill="#FBD4C9" opacity="1.000000" stroke="none" 
	d="
M13.965190,38.001209 
	C14.359948,37.719048 14.754705,37.436890 15.610607,36.968750 
	C16.337811,36.758442 16.603870,36.734104 17.092941,36.921379 
	C16.865541,38.733337 16.415133,40.333683 15.964723,41.934032 
	C15.262667,41.957989 14.560612,41.981945 13.510984,41.999138 
	C13.242906,41.237522 13.322397,40.482674 13.608051,39.234192 
	C13.974433,38.516670 14.024758,38.270222 13.965190,38.001209 
z"/>
<path fill="#49749E" opacity="1.000000" stroke="none" 
	d="
M9.927492,39.051159 
	C9.918486,39.047482 10.021201,38.592888 10.077431,38.367477 
	C10.610447,38.107651 11.087234,38.073238 11.892759,38.245201 
	C12.221498,38.451569 12.233443,38.831303 12.233444,38.831303 
	C11.974402,39.136120 11.715361,39.440933 11.089050,39.668118 
	C10.521368,39.319866 10.257013,39.146976 9.928716,39.071819 
	C9.928716,39.071819 9.936498,39.054836 9.927492,39.051159 
z"/>
<path fill="#A4A7C6" opacity="1.000000" stroke="none" 
	d="
M12.553119,38.885597 
	C12.233443,38.831303 12.221498,38.451569 12.252089,38.264275 
	C12.655381,38.041012 13.028084,38.005039 13.682988,37.985138 
	C14.024758,38.270222 13.974433,38.516670 13.667219,38.858887 
	C13.304415,38.964775 13.088604,38.952332 12.553119,38.885597 
z"/>
<path fill="#4A84B7" opacity="1.000000" stroke="none" 
	d="
M9.861651,39.291988 
	C10.257013,39.146976 10.521368,39.319866 10.822647,39.809166 
	C10.686094,40.008648 10.448673,39.989460 9.856902,39.919121 
	C9.502552,39.867973 9.794587,39.512157 9.861651,39.291988 
z"/>
<path fill="#013381" opacity="1.000000" stroke="none" 
	d="
M53.371658,43.710373 
	C53.012970,43.978996 52.654285,44.247616 52.152229,44.826221 
	C51.442455,45.390213 50.876049,45.644222 50.107162,45.749252 
	C49.615509,45.054607 49.326332,44.508942 49.170113,43.693729 
	C50.144646,42.582375 50.986229,41.740570 51.977692,41.189514 
	C52.542271,42.223629 52.956963,42.967003 53.371658,43.710373 
z"/>
<path fill="#E2E4FB" opacity="1.000000" stroke="none" 
	d="
M49.037159,43.963280 
	C49.326332,44.508942 49.615509,45.054607 49.835720,45.901932 
	C49.766754,46.203598 49.517651,46.254189 49.421646,46.333992 
	C48.410870,46.872902 47.496098,47.332012 46.289890,47.456566 
	C46.348381,46.038261 46.698307,44.954517 47.377563,43.917301 
	C48.150314,43.963646 48.593739,43.963463 49.037159,43.963280 
z"/>
<path fill="#565DA2" opacity="1.000000" stroke="none" 
	d="
M51.877636,48.939629 
	C51.620495,49.045578 51.401379,48.836983 51.215187,48.321617 
	C51.481365,48.202797 51.703884,48.406212 51.877636,48.939629 
z"/>
<path fill="#FFFFFF" opacity="1.000000" stroke="none" 
	d="
M53.464989,45.386032 
	C53.367512,45.328236 53.636967,45.643097 53.668365,45.749660 
	C53.699760,45.856224 53.562466,45.443825 53.464989,45.386032 
z"/>
<path fill="#4A90C1" opacity="1.000000" stroke="none" 
	d="
M12.464978,32.290371 
	C12.194751,31.613459 12.134476,31.158995 12.005949,30.368441 
	C12.298098,29.533112 12.658498,29.033873 13.628780,28.267532 
	C15.498266,28.269106 16.757870,28.537779 18.103710,29.151569 
	C17.478376,31.298529 16.766811,33.100368 15.768713,34.924080 
	C15.291531,34.964783 15.100882,34.983612 14.910233,35.002445 
	C14.165132,34.172569 13.420031,33.342693 12.464978,32.290371 
M15.615264,31.531078 
	C15.615264,31.531078 15.502660,31.600481 15.615264,31.531078 
z"/>
<path fill="#4FA2CD" opacity="1.000000" stroke="none" 
	d="
M18.017475,28.806450 
	C16.757870,28.537779 15.498266,28.269106 13.752380,27.984531 
	C13.508203,27.545576 13.750308,27.122524 14.074798,26.389915 
	C14.157183,26.080357 14.305435,25.993601 14.553727,25.991722 
	C15.192907,25.718115 15.583796,25.446388 15.974684,25.174662 
	C16.134935,25.119743 16.295187,25.064827 16.850788,25.296970 
	C17.546963,26.519245 17.847786,27.454458 18.070129,28.480568 
	C17.991650,28.571461 18.017475,28.806450 18.017475,28.806450 
z"/>
<path fill="#895A6E" opacity="1.000000" stroke="none" 
	d="
M14.924044,24.075211 
	C15.065710,24.353802 14.895388,24.632280 14.432561,25.349953 
	C14.140056,25.789146 14.305435,25.993601 14.305435,25.993601 
	C14.305435,25.993601 14.157183,26.080357 14.090189,26.134394 
	C13.836146,26.085585 13.649096,25.982737 13.192694,25.702562 
	C13.486246,25.041857 14.049151,24.558477 14.924044,24.075211 
z"/>
<path fill="#6D6F84" opacity="1.000000" stroke="none" 
	d="
M35.211479,56.978016 
	C34.456047,56.368752 34.004696,55.812363 33.553345,55.255974 
	C34.137482,55.144772 34.721615,55.033569 35.616230,54.929649 
	C35.789658,55.634918 35.652611,56.332905 35.211479,56.978016 
z"/>
<path fill="#F4FCF6" opacity="1.000000" stroke="none" 
	d="
M56.680744,33.425037 
	C57.136532,33.159477 57.167351,33.588184 57.237026,33.791714 
	C57.091965,35.221703 56.877228,36.448166 56.230881,37.511765 
	C55.531063,36.713062 55.262852,36.077221 55.018833,35.411217 
	C55.043022,35.381050 55.055225,35.299152 55.055225,35.299152 
	C55.445137,34.762970 55.835049,34.226784 56.680744,33.425037 
z"/>
<path fill="#FAF6E4" opacity="1.000000" stroke="none" 
	d="
M54.940483,34.624199 
	C55.055225,35.299152 55.043022,35.381050 54.983086,35.792305 
	C54.279377,36.500008 53.635605,36.796463 52.999626,37.063980 
	C53.007420,37.035046 52.955357,37.064735 52.962280,36.723602 
	C52.925270,35.931435 52.881332,35.480408 52.910629,34.805626 
	C52.983864,34.581875 53.002384,34.111378 53.318222,34.040871 
	C53.895920,33.431648 54.157784,32.892941 54.525951,32.474869 
	C54.632256,32.595509 54.953709,32.585960 54.953709,32.585960 
	C54.911053,33.040390 54.868397,33.494816 54.940483,34.624199 
z"/>
<path fill="#083B80" opacity="1.000000" stroke="none" 
	d="
M55.723034,24.003719 
	C56.086864,25.065472 56.116856,26.115955 56.259663,27.547150 
	C56.169857,27.954979 55.967236,27.982103 55.137001,27.993668 
	C54.296574,27.969576 54.083752,27.961046 53.901615,27.667912 
	C53.954731,26.557856 53.977165,25.732405 54.003849,24.677195 
	C54.008102,24.447433 54.054146,23.990143 54.054146,23.990143 
	C54.499161,23.990913 54.944180,23.991684 55.723034,24.003719 
z"/>
<path fill="#051949" opacity="1.000000" stroke="none" 
	d="
M53.870930,27.952517 
	C54.083752,27.961046 54.296574,27.969576 54.831665,27.965303 
	C55.092979,29.187580 55.032013,30.422659 54.962379,32.121849 
	C54.953709,32.585960 54.632256,32.595509 54.413406,32.382790 
	C54.194553,32.170071 53.976669,31.978037 53.940231,31.663441 
	C53.601807,30.567242 53.299824,29.785639 52.998669,28.752766 
	C52.999790,28.333982 53.000084,28.166468 53.217880,27.984730 
	C53.435375,27.970509 53.870930,27.952517 53.870930,27.952517 
z"/>
<path fill="#FCD6DA" opacity="1.000000" stroke="none" 
	d="
M53.158951,14.505280 
	C53.495342,13.625999 53.772541,13.164690 54.102089,12.428670 
	C54.154442,12.153959 54.570854,12.066239 54.776176,12.010345 
	C55.072437,12.254321 55.232288,12.511319 55.656853,12.843456 
	C55.904900,13.422666 55.957142,13.883863 56.082512,14.685926 
	C56.055603,16.048832 55.955566,17.070873 55.794113,18.472958 
	C55.732704,18.852999 55.369507,18.904182 54.944122,19.051977 
	C54.057796,19.467556 53.596855,19.735338 53.135918,20.003120 
	C53.123863,18.309830 53.111809,16.616541 53.158951,14.505280 
z"/>
<path fill="#F1C8D8" opacity="1.000000" stroke="none" 
	d="
M52.854614,20.094856 
	C53.596855,19.735338 54.057796,19.467556 54.768517,19.104864 
	C54.727741,20.112347 54.437176,21.214739 53.740231,22.581455 
	C52.911701,22.513702 52.489559,22.181623 52.067417,21.849543 
	C52.053547,21.505342 52.039677,21.161140 52.010742,20.566036 
	C52.188221,20.272287 52.380764,20.229441 52.854614,20.094856 
z"/>
<path fill="#49375A" opacity="1.000000" stroke="none" 
	d="
M52.042435,22.136940 
	C52.489559,22.181623 52.911701,22.513702 53.594063,22.904099 
	C53.893017,23.132639 53.931751,23.302862 54.012314,23.731613 
	C54.054146,23.990143 54.008102,24.447433 53.750961,24.717157 
	C53.323219,24.990372 53.152622,24.993860 52.885979,24.768230 
	C52.594788,24.253836 52.332413,24.059137 52.001865,23.716511 
	C52.000919,23.478008 51.999016,23.001003 51.999016,23.001003 
	C52.005157,22.808783 52.011303,22.616560 52.042435,22.136940 
z"/>
<path fill="#616388" opacity="1.000000" stroke="none" 
	d="
M21.033878,55.401409 
	C21.272211,55.703800 21.354593,55.829456 21.397003,55.894234 
	C20.860521,55.956848 20.281630,55.954689 19.321491,55.744957 
	C19.558676,55.391258 20.177111,55.245140 21.033878,55.401409 
z"/>
<path fill="#B49B8B" opacity="1.000000" stroke="none" 
	d="
M26.819714,13.256512 
	C27.190754,12.977008 27.417038,12.917004 27.977139,12.743439 
	C29.482452,13.075649 30.653946,13.521422 31.709492,14.437742 
	C31.402941,14.993532 31.212336,15.078775 30.658695,15.101789 
	C29.320089,15.052518 28.344519,15.065476 27.368946,15.078435 
	C27.137617,14.544293 26.906288,14.010151 26.819714,13.256512 
z"/>
<path fill="#1D334D" opacity="1.000000" stroke="none" 
	d="
M24.094097,16.654324 
	C25.017206,16.256695 25.753277,16.145199 26.770309,16.023354 
	C27.051275,16.013004 27.064085,16.028561 27.048306,16.272530 
	C27.032524,16.516500 27.034824,17.005463 27.011158,17.207630 
	C26.987490,17.409796 26.904835,17.808413 26.657299,17.891556 
	C26.242184,18.021826 26.074600,18.068953 25.534782,18.049421 
	C24.659723,17.966993 24.156904,17.951227 23.567638,17.792767 
	C23.481192,17.650070 23.353554,17.341772 23.353554,17.341772 
	C23.538054,17.208000 23.722555,17.074226 24.094097,16.654324 
z"/>
<path fill="#1B1D35" opacity="1.000000" stroke="none" 
	d="
M27.275408,15.302082 
	C28.344519,15.065476 29.320089,15.052518 30.664120,15.275141 
	C31.032578,15.510722 31.046158,15.857361 30.648640,15.901653 
	C29.188774,15.973484 28.126431,16.001022 27.064085,16.028561 
	C27.064085,16.028561 27.051275,16.013004 27.050797,16.002693 
	C27.050320,15.992382 27.181870,15.525729 27.275408,15.302082 
z"/>
<path fill="#010B34" opacity="1.000000" stroke="none" 
	d="
M53.559650,43.642376 
	C52.956963,42.967003 52.542271,42.223629 52.023682,40.829575 
	C51.987782,39.211098 52.055771,38.243301 52.333633,37.230595 
	C52.543503,37.185684 52.955357,37.064735 52.955357,37.064735 
	C52.955357,37.064735 53.007420,37.035046 52.950409,37.290028 
	C52.893398,37.545010 53.027737,37.988285 53.097328,38.285011 
	C53.480404,38.799812 53.793884,39.017891 54.204720,39.326210 
	C54.302071,39.416447 54.566368,39.441536 54.566368,39.441536 
	C54.359158,39.931366 54.151947,40.421196 54.063332,41.280861 
	C54.311695,41.788368 54.460190,41.901489 54.627411,41.990059 
	C54.667137,42.165291 54.706863,42.340527 54.816048,42.776283 
	C54.506214,43.215996 54.126930,43.395187 53.559650,43.642376 
z"/>
<path fill="#090F2B" opacity="1.000000" stroke="none" 
	d="
M31.046158,15.857361 
	C31.046158,15.857361 31.032578,15.510722 31.027153,15.337370 
	C31.212336,15.078775 31.402941,14.993532 31.849480,14.727098 
	C32.105415,14.545905 32.452114,14.639689 32.603180,14.736727 
	C32.754242,14.833764 32.771923,14.877233 32.780701,14.883827 
	C33.044640,15.009905 33.299797,15.129388 33.781448,15.605385 
	C34.007946,15.961899 33.946053,16.422211 33.930077,16.652639 
	C33.914104,16.883068 33.927124,16.920944 33.713036,17.011696 
	C33.222969,17.243876 33.038841,17.462654 32.732681,17.764784 
	C32.518803,17.770784 32.104469,17.657103 32.046501,17.473488 
	C31.841242,17.063211 31.636852,16.915644 31.284317,16.602627 
	C31.144228,16.191175 31.095192,16.024267 31.046158,15.857361 
z"/>
<path fill="#273981" opacity="1.000000" stroke="none" 
	d="
M48.169037,50.788860 
	C47.975681,50.493130 48.070705,50.051926 48.549072,49.541161 
	C48.774082,49.862202 48.615753,50.252792 48.169037,50.788860 
z"/>
<path fill="#5DAFD5" opacity="1.000000" stroke="none" 
	d="
M23.654083,17.935461 
	C24.156904,17.951227 24.659723,17.966993 25.569401,18.449745 
	C25.987804,20.266788 25.999352,21.616848 26.006222,23.329796 
	C25.999306,24.414652 25.997068,25.136616 25.634293,25.914593 
	C24.177332,26.266644 23.080908,26.562685 21.597469,26.919624 
	C20.279116,27.344423 19.347775,27.708323 18.368767,28.167856 
	C18.321098,28.263493 18.148607,28.389673 18.148609,28.389673 
	C17.847786,27.454458 17.546963,26.519245 17.098839,25.241865 
	C16.951540,24.899698 16.996758,24.477736 17.033863,24.268957 
	C19.057714,22.316397 21.044460,20.572615 23.026100,18.457264 
	C23.020992,18.085693 22.960613,18.069729 23.124603,17.982462 
	C23.288595,17.895195 23.654083,17.935461 23.654083,17.935461 
z"/>
<path fill="#5DAFD5" opacity="1.000000" stroke="none" 
	d="
M14.553727,25.991722 
	C14.305435,25.993601 14.140056,25.789146 14.126806,25.732409 
	C14.406677,25.528498 14.699799,25.381323 15.483802,25.204405 
	C15.583796,25.446388 15.192907,25.718115 14.553727,25.991722 
z"/>
<path fill="#F4C086" opacity="1.000000" stroke="none" 
	d="
M23.567638,17.792767 
	C23.654083,17.935461 23.288595,17.895195 23.114109,17.953051 
	C23.035828,17.835625 23.132030,17.660343 23.100697,17.213585 
	C22.973160,16.942106 23.080982,17.223108 23.217268,17.282440 
	C23.353554,17.341772 23.481192,17.650070 23.567638,17.792767 
z"/>
<path fill="#3992C7" opacity="1.000000" stroke="none" 
	d="
M41.150959,20.971138 
	C42.033615,20.915020 42.916271,20.858902 44.105209,20.671413 
	C44.411495,20.540041 44.469795,20.482267 44.508053,20.494770 
	C44.546310,20.507271 44.753044,20.515226 44.910683,20.687740 
	C45.313217,21.020044 45.576691,21.138613 45.858746,21.215958 
	C45.982246,21.485273 46.163540,21.707422 46.661751,22.278131 
	C46.961292,23.087725 47.001709,23.501596 47.027073,24.372257 
	C47.007519,26.806139 47.381226,28.885513 46.882656,30.728981 
	C46.459637,32.293091 45.029243,33.584747 43.719265,34.986675 
	C42.961369,34.958405 42.528805,34.940422 42.051849,34.543869 
	C41.995319,33.400913 41.983181,32.636528 41.986977,31.496170 
	C45.019745,26.510475 42.594437,23.417524 39.088749,20.614454 
	C38.992077,20.537155 39.016171,20.308823 38.983952,20.150917 
	C39.153580,20.121794 39.323204,20.092672 39.874161,20.286983 
	C40.553982,20.663990 40.852470,20.817564 41.150959,20.971138 
z"/>
<path fill="#2B3054" opacity="1.000000" stroke="none" 
	d="
M51.623413,22.999725 
	C51.999016,23.001003 52.000919,23.478008 52.006046,23.990318 
	C52.026852,24.684187 52.042530,24.865744 52.061050,25.293077 
	C52.063892,25.538855 52.036583,26.029684 51.775639,26.013245 
	C51.340855,25.989357 51.167019,25.981911 50.819233,25.731127 
	C50.080750,25.334078 49.516209,25.180365 48.963558,25.019199 
	C48.975445,25.011745 48.965595,25.046526 48.975780,24.707253 
	C48.986320,23.915558 48.986679,23.463137 48.987038,23.010715 
	C49.740631,23.006624 50.494221,23.002535 51.623413,22.999725 
z"/>
<path fill="#182F5E" opacity="1.000000" stroke="none" 
	d="
M48.805141,22.748703 
	C48.986679,23.463137 48.986320,23.915558 48.714634,24.604561 
	C47.976242,24.532583 47.509182,24.224026 47.042130,23.915466 
	C47.001709,23.501596 46.961292,23.087725 46.859173,22.367863 
	C47.406063,22.203476 48.014652,22.345083 48.805141,22.748703 
z"/>
<path fill="#2A4674" opacity="1.000000" stroke="none" 
	d="
M45.883022,20.932648 
	C45.576691,21.138613 45.313217,21.020044 45.010181,20.659445 
	C45.102139,20.365927 45.252239,20.273216 45.660889,20.130638 
	C45.915390,20.270294 45.911346,20.459816 45.883022,20.932648 
z"/>
<path fill="#FBFBFB" opacity="1.000000" stroke="none" 
	d="
M21.984484,26.858727 
	C23.080908,26.562685 24.177332,26.266644 25.985718,25.969149 
	C27.168375,25.928888 27.639067,25.890081 28.382431,25.817646 
	C29.106667,25.482159 29.558228,25.180300 30.336803,24.944363 
	C31.102060,24.946293 31.540302,24.882298 32.358734,24.884377 
	C33.643555,25.621138 34.548187,26.291821 35.262016,27.185961 
	C35.059418,27.603060 35.047623,27.796701 34.728050,28.026402 
	C34.293751,28.792286 34.167225,29.522112 34.035610,30.633163 
	C32.902287,34.962948 35.956360,35.754562 38.841301,36.997505 
	C40.112362,37.727257 41.040161,38.392448 41.979820,39.378712 
	C42.008957,40.128040 42.026226,40.556297 41.755249,41.187695 
	C39.310020,45.348392 35.587215,45.115616 31.927601,44.579521 
	C32.189423,40.512192 29.908201,39.944557 26.681925,40.212120 
	C26.225885,40.822300 26.070467,41.395802 25.635464,42.145088 
	C25.252613,43.181149 25.149347,44.041435 25.046082,44.901718 
	C21.338358,47.055313 18.452370,45.886292 16.017262,42.307884 
	C16.415133,40.333683 16.865541,38.733337 17.145988,36.729767 
	C16.976025,36.326550 17.184290,35.980938 17.402382,35.964722 
	C17.620474,35.948505 18.053823,35.889198 18.435394,35.933456 
	C19.914452,35.492954 21.011940,35.008198 22.184416,34.455345 
	C22.259403,34.387253 22.234934,34.186153 22.525539,34.154839 
	C23.156879,33.750618 23.497612,33.377708 23.907490,32.740955 
	C23.928514,32.301758 23.880396,32.126404 23.892492,31.620998 
	C23.254398,30.210167 22.556091,29.129387 22.162218,28.177530 
	C22.305927,27.823877 22.145205,27.341301 21.984484,26.858727 
z"/>
<path fill="#EDEBFB" opacity="1.000000" stroke="none" 
	d="
M47.048233,43.870773 
	C46.698307,44.954517 46.348381,46.038261 45.987709,47.465218 
	C44.862984,48.503906 43.749008,49.199387 42.326668,50.005936 
	C41.224892,50.409973 40.431484,50.702946 39.321899,51.060966 
	C34.677483,51.354786 30.349237,51.583553 25.579277,51.760700 
	C25.137564,51.709080 25.102465,51.339165 25.096725,51.153198 
	C26.380672,50.209839 27.670355,49.452438 28.965015,48.328274 
	C28.969992,47.961506 28.940607,47.960339 29.205288,47.974739 
	C29.646376,47.992970 29.822779,47.996799 30.323822,48.137939 
	C34.405308,47.523449 38.239948,47.016434 41.869183,45.863071 
	C42.890190,45.538601 43.308350,43.317177 44.276989,41.899719 
	C44.729385,41.774689 44.907810,41.715775 45.339081,41.821159 
	C46.077370,42.613892 46.562801,43.242332 47.048233,43.870773 
z"/>
<path fill="#FDA680" opacity="1.000000" stroke="none" 
	d="
M26.982548,40.175449 
	C29.908201,39.944557 32.189423,40.512192 31.672693,44.739193 
	C30.926605,45.913612 30.467062,46.540596 29.760592,47.177094 
	C29.201321,47.354626 29.010302,47.612534 28.940607,47.960339 
	C28.940607,47.960339 28.969992,47.961506 28.958134,47.944305 
	C27.832611,47.040012 26.718945,46.152924 25.325680,45.083778 
	C25.149347,44.041435 25.252613,43.181149 25.900421,42.154034 
	C26.624157,41.383286 26.803352,40.779369 26.982548,40.175449 
z"/>
<path fill="#040535" opacity="1.000000" stroke="none" 
	d="
M33.436295,53.088905 
	C32.175182,53.447971 30.489008,53.745461 28.412434,54.087711 
	C27.497974,53.968575 26.973917,53.804676 26.299732,53.409752 
	C28.436813,53.128262 30.724020,53.077793 33.436295,53.088905 
z"/>
<path fill="#6B98C4" opacity="1.000000" stroke="none" 
	d="
M17.184290,35.980938 
	C17.184290,35.980938 16.976025,36.326550 16.922977,36.518158 
	C16.603870,36.734104 16.337811,36.758442 15.671829,36.734200 
	C15.163206,36.272690 15.054504,35.859753 14.928017,35.224632 
	C15.100882,34.983612 15.291531,34.964783 16.035164,35.008175 
	C16.786861,35.373909 16.985577,35.677425 17.184290,35.980938 
z"/>
<path fill="#449ECF" opacity="1.000000" stroke="none" 
	d="
M38.673225,19.985516 
	C39.016171,20.308823 38.992077,20.537155 39.088749,20.614454 
	C42.594437,23.417524 45.019745,26.510475 41.788345,31.460674 
	C41.573784,31.801146 41.171505,31.846445 41.055992,31.481907 
	C40.303143,31.030058 39.665813,30.942749 39.171722,30.512033 
	C39.409309,30.041471 39.599834,29.894873 39.578846,29.791031 
	C39.528351,29.541279 39.378731,29.311569 39.248962,28.764179 
	C38.823135,27.855110 38.417446,27.255636 38.006084,26.286816 
	C37.000973,23.938290 36.001537,21.959108 35.010845,19.696880 
	C35.039890,19.226141 35.060192,19.038446 35.080494,18.850754 
	C36.174496,19.173874 37.268494,19.496994 38.673225,19.985516 
z"/>
<path fill="#459ECD" opacity="1.000000" stroke="none" 
	d="
M35.050224,18.646584 
	C35.060192,19.038446 35.039890,19.226141 34.759674,19.704433 
	C34.332264,19.993328 34.164768,19.991623 33.963890,19.642176 
	C33.894718,19.064306 33.858936,18.834177 33.847404,18.440327 
	C33.871655,18.276604 33.971050,17.960861 33.971050,17.960861 
	C33.971050,17.960861 34.467354,17.991909 34.714867,18.012775 
	C34.962379,18.033640 35.019951,18.442411 35.050224,18.646584 
z"/>
<path fill="#449ECF" opacity="1.000000" stroke="none" 
	d="
M41.038940,20.730183 
	C40.852470,20.817564 40.553982,20.663990 40.132324,20.286785 
	C40.315079,20.205181 40.621002,20.347206 41.038940,20.730183 
z"/>
<path fill="#1F2851" opacity="1.000000" stroke="none" 
	d="
M33.968269,17.707304 
	C33.971050,17.960861 33.871655,18.276604 33.635326,18.479401 
	C33.398998,18.682199 32.976151,18.769005 32.961926,18.516649 
	C32.947323,18.095791 32.946941,17.927288 32.946560,17.758783 
	C33.038841,17.462654 33.222969,17.243876 33.702866,17.026228 
	C33.926353,17.117924 33.945923,17.285835 33.968269,17.707304 
z"/>
<path fill="#655E81" opacity="1.000000" stroke="none" 
	d="
M54.902328,39.312473 
	C54.566368,39.441536 54.302071,39.416447 54.085144,39.066429 
	C53.588058,38.473701 53.307899,38.230991 53.027737,37.988285 
	C53.027737,37.988285 52.893398,37.545010 52.942616,37.318962 
	C53.635605,36.796463 54.279377,36.500008 54.958900,35.822468 
	C55.262852,36.077221 55.531063,36.713062 55.896278,37.682453 
	C55.986820,38.187294 55.980358,38.358589 55.959232,38.787239 
	C55.709145,39.090866 55.473717,39.137138 54.902328,39.312473 
z"/>
<path fill="#12183F" opacity="1.000000" stroke="none" 
	d="
M54.645153,41.795410 
	C54.460190,41.901489 54.311695,41.788368 54.093143,41.548069 
	C54.282936,41.248272 54.502449,41.300045 54.645153,41.795410 
z"/>
<path fill="#2F74B4" opacity="1.000000" stroke="none" 
	d="
M47.377563,43.917301 
	C46.562801,43.242332 46.077370,42.613892 45.353271,41.492626 
	C45.222843,40.350372 45.331074,39.700951 45.705971,38.854706 
	C48.262257,37.844223 50.494572,37.206947 49.419750,33.752094 
	C49.110893,32.759323 50.450405,31.253733 51.274818,30.130407 
	C51.976028,30.852604 52.436554,31.427664 52.924217,32.353951 
	C52.968365,33.173908 52.985374,33.642643 53.002380,34.111378 
	C53.002384,34.111378 52.983864,34.581875 52.682339,35.017876 
	C52.295128,36.061089 52.209442,36.668297 52.123756,37.275505 
	C52.055771,38.243301 51.987782,39.211098 51.873802,40.538830 
	C50.986229,41.740570 50.144646,42.582375 49.170113,43.693729 
	C48.593739,43.963463 48.150314,43.963646 47.377563,43.917301 
z"/>
<path fill="#F5FCFB" opacity="1.000000" stroke="none" 
	d="
M17.402382,35.964722 
	C16.985577,35.677425 16.786861,35.373909 16.321697,34.986305 
	C16.766811,33.100368 17.478376,31.298529 18.103710,29.151569 
	C18.017475,28.806450 17.991650,28.571461 18.070129,28.480568 
	C18.148607,28.389673 18.321098,28.263493 17.949003,28.408108 
	C17.655544,28.865416 17.734180,29.178110 17.840181,29.667887 
	C17.867546,29.844969 18.156260,30.057268 18.282478,30.164516 
	C18.784508,30.281567 19.043756,30.121672 18.910450,30.274946 
	C18.354475,31.000908 18.074497,31.244003 17.706257,31.622736 
	C17.645967,31.976198 17.715483,32.179848 17.803217,32.447350 
	C17.779894,32.525383 17.883305,32.651234 17.939299,33.085335 
	C18.041016,33.807621 18.086739,34.095814 18.078842,34.631622 
	C18.034758,35.215893 18.044291,35.552547 18.053823,35.889198 
	C18.053823,35.889198 17.620474,35.948505 17.402382,35.964722 
z"/>
<path fill="#4A84B7" opacity="1.000000" stroke="none" 
	d="
M15.558962,31.565781 
	C15.502660,31.600481 15.615264,31.531078 15.558962,31.565781 
z"/>
<path fill="#2F6CA9" opacity="1.000000" stroke="none" 
	d="
M52.333630,37.230595 
	C52.209442,36.668297 52.295128,36.061089 52.609108,35.241631 
	C52.881332,35.480408 52.925270,35.931435 52.962280,36.723602 
	C52.955357,37.064735 52.543503,37.185684 52.333630,37.230595 
z"/>
<path fill="#051949" opacity="1.000000" stroke="none" 
	d="
M53.318218,34.040871 
	C52.985374,33.642643 52.968365,33.173908 53.194183,32.341820 
	C53.616894,31.978321 53.796780,31.978180 53.976669,31.978037 
	C53.976669,31.978037 54.194553,32.170071 54.307098,32.262150 
	C54.157784,32.892941 53.895920,33.431648 53.318218,34.040871 
z"/>
<path fill="#0D0B2E" opacity="1.000000" stroke="none" 
	d="
M52.036583,26.029684 
	C52.036583,26.029684 52.063892,25.538855 52.291668,25.280651 
	C52.519444,25.022446 52.982029,24.997347 52.982029,24.997347 
	C53.152622,24.993860 53.323219,24.990372 53.746708,24.946918 
	C53.977165,25.732405 53.954731,26.557856 53.901615,27.667912 
	C53.870930,27.952517 53.435375,27.970509 52.983162,27.984898 
	C52.530949,27.999289 52.065529,27.939535 52.068558,27.696476 
	C52.071590,27.453417 52.044571,26.966690 52.040939,26.732452 
	C52.037304,26.498217 52.036583,26.029684 52.036583,26.029684 
z"/>
<path fill="#113676" opacity="1.000000" stroke="none" 
	d="
M53.940231,31.663441 
	C53.796780,31.978180 53.616894,31.978321 53.167046,31.990593 
	C52.436554,31.427664 51.976028,30.852604 51.287388,29.873432 
	C51.090965,29.300644 51.122658,29.131969 51.365562,28.973288 
	C51.576775,28.983280 51.999489,28.995750 52.249065,28.999260 
	C52.498642,29.002768 52.997837,29.004034 52.997837,29.004034 
	C53.299824,29.785639 53.601807,30.567242 53.940231,31.663441 
z"/>
<path fill="#14204B" opacity="1.000000" stroke="none" 
	d="
M52.998669,28.752766 
	C52.997837,29.004034 52.498642,29.002768 52.254143,28.734516 
	C52.028267,28.290688 52.046898,28.115112 52.065529,27.939535 
	C52.065529,27.939535 52.530949,27.999289 52.765663,27.999121 
	C53.000084,28.166468 52.999790,28.333982 52.998669,28.752766 
z"/>
<path fill="#14204B" opacity="1.000000" stroke="none" 
	d="
M52.885979,24.768230 
	C52.982029,24.997347 52.519444,25.022446 52.288826,25.034874 
	C52.042530,24.865744 52.026852,24.684187 52.006992,24.228821 
	C52.332413,24.059137 52.594788,24.253836 52.885979,24.768230 
z"/>
<path fill="#3D6B93" opacity="1.000000" stroke="none" 
	d="
M26.010900,22.966906 
	C25.999352,21.616848 25.987804,20.266788 25.941637,18.516407 
	C26.074600,18.068953 26.242184,18.021826 26.702915,17.979816 
	C26.996063,17.984936 27.063900,18.169832 27.044668,18.523455 
	C27.388060,20.237717 27.750685,21.598358 27.810635,22.979548 
	C27.306639,23.014133 27.105316,23.028168 26.680565,23.025238 
	C26.457134,23.008272 26.010900,22.966906 26.010900,22.966906 
z"/>
<path fill="#05447A" opacity="1.000000" stroke="none" 
	d="
M31.375368,16.847170 
	C31.636852,16.915644 31.841242,17.063211 31.640518,17.598774 
	C29.882965,17.995060 28.473433,18.082447 27.063900,18.169834 
	C27.063900,18.169832 26.996063,17.984936 26.950449,17.896675 
	C26.904835,17.808413 26.987490,17.409796 27.439495,17.203712 
	C29.052788,16.947475 30.214079,16.897324 31.375368,16.847170 
z"/>
<path fill="#1E3F76" opacity="1.000000" stroke="none" 
	d="
M31.284317,16.602627 
	C30.214079,16.897324 29.052788,16.947475 27.463161,17.001545 
	C27.034824,17.005463 27.032524,16.516500 27.048306,16.272530 
	C28.126431,16.001022 29.188774,15.973484 30.648640,15.901653 
	C31.095192,16.024267 31.144228,16.191175 31.284317,16.602627 
z"/>
<path fill="#616388" opacity="1.000000" stroke="none" 
	d="
M53.097328,38.285011 
	C53.307899,38.230991 53.588058,38.473701 53.987793,38.976189 
	C53.793884,39.017891 53.480404,38.799812 53.097328,38.285011 
z"/>
<path fill="#08B2E7" opacity="1.000000" stroke="none" 
	d="
M27.044668,18.523457 
	C28.473433,18.082447 29.882965,17.995060 31.698483,17.782387 
	C32.104469,17.657103 32.518803,17.770784 32.732681,17.764784 
	C32.946941,17.927288 32.947323,18.095791 32.949448,18.565281 
	C32.951195,18.866266 32.973953,18.960732 32.687424,19.154099 
	C32.255287,20.230461 32.109676,21.113457 31.984737,21.998871 
	C32.005409,22.001291 31.990057,21.962599 31.646696,21.905579 
	C30.239994,22.218704 29.176651,22.588852 28.113308,22.959000 
	C27.750685,21.598358 27.388060,20.237717 27.044668,18.523457 
z"/>
<path fill="#5BB3E2" opacity="1.000000" stroke="none" 
	d="
M26.006222,23.329796 
	C26.010900,22.966906 26.457134,23.008272 26.735712,23.329777 
	C27.379446,24.384613 27.744602,25.117943 28.109758,25.851273 
	C27.639067,25.890081 27.168375,25.928888 26.346256,25.913139 
	C25.997068,25.136616 25.999306,24.414652 26.006222,23.329796 
z"/>
<path fill="#210410" opacity="1.000000" stroke="none" 
	d="
M21.597469,26.919624 
	C22.145205,27.341301 22.305927,27.823877 21.626019,28.162498 
	C19.794531,28.509298 18.803675,29.000051 17.812817,29.490805 
	C17.734180,29.178110 17.655544,28.865416 17.996670,28.312469 
	C19.347775,27.708323 20.279116,27.344423 21.597469,26.919624 
z"/>
<path fill="#3583BE" opacity="1.000000" stroke="none" 
	d="
M51.154350,28.963295 
	C51.122658,29.131969 51.090965,29.300644 51.046707,29.726295 
	C50.450405,31.253733 49.110893,32.759323 49.419750,33.752094 
	C50.494572,37.206947 48.262257,37.844223 45.622028,38.838734 
	C45.271420,39.019585 45.011631,38.954353 44.771603,38.593338 
	C44.155605,37.814232 43.779633,37.396145 43.589279,36.781548 
	C43.864803,36.055676 43.954704,35.526318 44.044601,34.996964 
	C45.029243,33.584747 46.459637,32.293091 46.882656,30.728981 
	C47.381226,28.885513 47.007519,26.806139 47.027069,24.372257 
	C47.509182,24.224026 47.976242,24.532583 48.704449,24.943834 
	C48.965595,25.046526 48.975445,25.011745 49.091110,25.316120 
	C49.855965,26.734760 50.505157,27.849028 51.154350,28.963295 
z"/>
<path fill="#F5FCFB" opacity="1.000000" stroke="none" 
	d="
M41.171505,31.846445 
	C41.171505,31.846445 41.573784,31.801146 41.772415,31.836643 
	C41.983181,32.636528 41.995319,33.400913 41.978951,34.791168 
	C41.743095,35.680145 41.535748,35.943256 40.920803,36.147064 
	C40.241474,36.052525 39.969738,36.017284 39.876854,35.693363 
	C40.316444,34.672352 40.577187,33.940022 40.932388,32.870094 
	C41.075058,32.303810 41.123280,32.075127 41.171505,31.846445 
z"/>
<path fill="#629AC9" opacity="1.000000" stroke="none" 
	d="
M41.328400,36.206364 
	C41.535748,35.943256 41.743095,35.680145 42.023342,35.169739 
	C42.528805,34.940422 42.961369,34.958405 43.719269,34.986675 
	C43.954704,35.526318 43.864803,36.055676 43.235092,36.793495 
	C42.461437,37.017426 42.227596,37.032890 41.847168,36.934647 
	C41.483379,36.672459 41.359314,36.467602 41.328400,36.206364 
z"/>
<path fill="#132F60" opacity="1.000000" stroke="none" 
	d="
M51.365562,28.973288 
	C50.505157,27.849028 49.855965,26.734760 49.079224,25.323574 
	C49.516209,25.180365 50.080750,25.334078 50.928726,25.958832 
	C51.489635,26.608812 51.767101,26.787750 52.044571,26.966690 
	C52.044571,26.966690 52.071590,27.453417 52.068558,27.696476 
	C52.046898,28.115112 52.028267,28.290688 52.004562,28.731007 
	C51.999489,28.995750 51.576775,28.983280 51.365562,28.973288 
z"/>
<path fill="#14204B" opacity="1.000000" stroke="none" 
	d="
M52.040939,26.732452 
	C51.767101,26.787750 51.489635,26.608812 51.102673,26.202168 
	C51.167019,25.981911 51.340855,25.989357 51.775639,26.013245 
	C52.036583,26.029684 52.037304,26.498217 52.040939,26.732452 
z"/>
<path fill="#F6F4FC" opacity="1.000000" stroke="none" 
	d="
M30.007515,47.167580 
	C30.467062,46.540596 30.926605,45.913612 31.641056,45.126953 
	C35.587215,45.115616 39.310020,45.348392 42.020897,41.182991 
	C42.751480,40.959450 42.928169,40.943748 43.227615,41.123016 
	C43.540997,41.561069 43.758545,41.777020 44.003021,41.965839 
	C43.308350,43.317177 42.890190,45.538601 41.869183,45.863071 
	C38.239948,47.016434 34.405308,47.523449 30.325121,47.929665 
	C30.001781,47.584080 30.007515,47.167580 30.007515,47.167580 
z"/>
<path fill="#51A8D7" opacity="1.000000" stroke="none" 
	d="
M33.997272,19.989918 
	C34.164768,19.991623 34.332264,19.993328 34.750931,19.987480 
	C36.001537,21.959108 37.000973,23.938290 37.675148,26.338799 
	C37.126785,26.763809 36.903683,26.767494 36.588974,26.661156 
	C36.194935,26.422903 35.991196,26.540352 35.788086,26.993546 
	C35.690006,27.083612 35.452820,26.962503 35.452820,26.962503 
	C34.548187,26.291821 33.643555,25.621138 32.244984,24.701542 
	C31.553013,24.232168 31.311022,24.083015 31.126705,23.739834 
	C31.482243,22.970531 31.736151,22.466566 31.990059,21.962599 
	C31.990057,21.962599 32.005409,22.001291 32.250328,21.849930 
	C32.687958,21.133404 32.880669,20.568237 33.304337,19.998543 
	C33.535290,19.994019 33.997272,19.989918 33.997272,19.989918 
z"/>
<path fill="#07F2D9" opacity="1.000000" stroke="none" 
	d="
M38.498039,36.932945 
	C35.956360,35.754562 32.902287,34.962948 34.256870,30.621407 
	C34.815620,30.519966 35.148014,30.811510 35.814461,31.350590 
	C36.425343,31.592844 36.702175,31.587561 36.833363,31.816124 
	C36.759708,32.407078 36.831703,32.764187 37.081985,33.376862 
	C37.884949,34.376202 38.509624,35.119972 38.956665,36.119995 
	C38.685371,36.561810 38.591705,36.747375 38.498039,36.932945 
z"/>
<path fill="#0E1726" opacity="1.000000" stroke="none" 
	d="
M17.840181,29.667887 
	C18.803675,29.000051 19.794531,28.509298 21.321587,28.033577 
	C22.556091,29.129387 23.254398,30.210167 23.584335,31.590439 
	C22.504770,31.483292 21.793573,31.076656 20.495316,30.264507 
	C19.203674,30.401695 18.499096,30.944397 17.794519,31.487099 
	C18.074497,31.244003 18.354475,31.000908 18.576855,30.045788 
	C18.398258,29.574928 18.277260,29.816097 18.156260,30.057268 
	C18.156260,30.057268 17.867546,29.844969 17.840181,29.667887 
M20.500000,30.000000 
	C20.533207,29.699924 20.566414,29.399847 20.599621,29.099771 
	C20.399748,29.233181 20.199873,29.366590 20.500000,30.000000 
z"/>
<path fill="#3C7299" opacity="1.000000" stroke="none" 
	d="
M31.646698,21.905579 
	C31.736151,22.466566 31.482243,22.970531 30.917866,23.835516 
	C30.342447,24.366224 30.143246,24.593525 30.009789,24.878441 
	C29.558228,25.180300 29.106667,25.482159 28.382431,25.817646 
	C27.744602,25.117943 27.379446,24.384613 26.959143,23.346743 
	C27.105316,23.028168 27.306639,23.014133 27.810635,22.979549 
	C29.176651,22.588852 30.239994,22.218704 31.646698,21.905579 
z"/>
<path fill="#F5FCFB" opacity="1.000000" stroke="none" 
	d="
M35.480412,31.103054 
	C35.148014,30.811510 34.815620,30.519966 34.261963,30.240181 
	C34.167225,29.522112 34.293751,28.792286 34.970474,28.097431 
	C35.677158,28.194677 35.833641,28.256952 36.069450,28.548239 
	C36.409992,29.156229 36.671211,29.535206 36.936657,29.950706 
	C36.940887,29.987230 36.967396,29.918795 36.660416,30.027859 
	C36.062428,30.458965 35.771420,30.781010 35.480412,31.103054 
z"/>
<path fill="#06EED2" opacity="1.000000" stroke="none" 
	d="
M18.435394,35.933456 
	C18.044291,35.552547 18.034758,35.215893 18.337280,34.521145 
	C18.795630,34.047241 18.941919,33.931435 19.300442,33.851662 
	C19.932446,33.892181 20.352213,33.896667 21.080008,34.113319 
	C21.628500,34.391476 21.868963,34.457455 22.109428,34.523438 
	C21.011940,35.008198 19.914452,35.492954 18.435394,35.933456 
z"/>
<path fill="#250205" opacity="1.000000" stroke="none" 
	d="
M35.990120,28.319227 
	C35.833641,28.256952 35.677158,28.194677 35.278252,28.061373 
	C35.047623,27.796701 35.059418,27.603060 35.262016,27.185961 
	C35.452820,26.962503 35.690006,27.083612 35.992935,26.989777 
	C36.295860,26.895939 36.680576,26.771179 36.680576,26.771179 
	C36.903683,26.767494 37.126785,26.763809 37.680824,26.708143 
	C38.417446,27.255636 38.823135,27.855110 38.921097,28.625813 
	C37.738956,28.637770 36.864540,28.478498 35.990120,28.319227 
z"/>
<path fill="#05748E" opacity="1.000000" stroke="none" 
	d="
M21.082376,30.670021 
	C21.793573,31.076656 22.504770,31.483292 23.524124,31.920488 
	C23.880396,32.126404 23.928514,32.301758 23.497654,32.754978 
	C22.473200,33.071857 21.927725,33.110870 20.987793,33.105419 
	C20.080208,32.848125 19.567080,32.635303 18.763525,32.470947 
	C18.294283,32.438431 18.115469,32.357449 18.362150,31.848713 
	C19.552555,31.170645 20.317467,30.920334 21.082376,30.670021 
z"/>
<path fill="#F6CAC9" opacity="1.000000" stroke="none" 
	d="
M38.841301,36.997505 
	C38.591705,36.747375 38.685371,36.561810 39.095459,36.155537 
	C39.411884,35.934826 39.698002,35.982044 39.698002,35.982044 
	C39.969738,36.017284 40.241474,36.052525 40.920803,36.147064 
	C41.359314,36.467602 41.483379,36.672459 41.845238,37.268936 
	C41.982578,38.163837 41.975269,38.610741 41.967964,39.057644 
	C41.040161,38.392448 40.112362,37.727257 38.841301,36.997505 
z"/>
<path fill="#D5C4D4" opacity="1.000000" stroke="none" 
	d="
M41.979824,39.378712 
	C41.975269,38.610741 41.982578,38.163837 41.991821,37.382645 
	C42.227596,37.032890 42.461437,37.017426 43.049469,36.990013 
	C43.779633,37.396145 44.155605,37.814232 44.272297,38.731346 
	C43.710300,39.796265 43.407578,40.362156 43.104858,40.928047 
	C42.928169,40.943748 42.751480,40.959450 42.309143,40.979855 
	C42.026226,40.556297 42.008957,40.128040 41.979824,39.378712 
z"/>
<path fill="#DF5663" opacity="1.000000" stroke="none" 
	d="
M26.681927,40.212120 
	C26.803352,40.779369 26.624157,41.383286 26.180006,41.978256 
	C26.070467,41.395802 26.225885,40.822300 26.681927,40.212120 
z"/>
<path fill="#0CA2A0" opacity="1.000000" stroke="none" 
	d="
M21.382252,33.149887 
	C21.927725,33.110870 22.473200,33.071857 23.428509,33.018822 
	C23.497612,33.377708 23.156879,33.750618 22.313644,33.972183 
	C21.672823,33.695885 21.534506,33.570930 21.454729,33.369514 
	C21.513271,33.293053 21.382252,33.149887 21.382252,33.149887 
z"/>
<path fill="#5DAFD5" opacity="1.000000" stroke="none" 
	d="
M30.336803,24.944365 
	C30.143246,24.593525 30.342447,24.366224 30.816233,24.100853 
	C31.311022,24.083015 31.553013,24.232168 31.864796,24.635466 
	C31.540302,24.882298 31.102060,24.946293 30.336803,24.944365 
z"/>
<path fill="#0CA2A0" opacity="1.000000" stroke="none" 
	d="
M22.184416,34.455345 
	C21.868963,34.457455 21.628500,34.391476 21.186310,34.050320 
	C21.126732,33.671608 21.263933,33.561886 21.396187,33.445972 
	C21.534506,33.570930 21.672823,33.695885 22.023037,34.003494 
	C22.234934,34.186153 22.259403,34.387253 22.184416,34.455345 
z"/>
<path fill="#548BCB" opacity="1.000000" stroke="none" 
	d="
M43.227615,41.123016 
	C43.407578,40.362156 43.710300,39.796265 44.512325,39.092361 
	C45.011631,38.954353 45.271420,39.019585 45.355362,39.035553 
	C45.331074,39.700951 45.222843,40.350372 45.100418,41.328331 
	C44.907810,41.715775 44.729385,41.774689 44.276989,41.899719 
	C43.758545,41.777020 43.540997,41.561069 43.227615,41.123016 
z"/>
<path fill="#F4EFFA" opacity="1.000000" stroke="none" 
	d="
M29.760590,47.177094 
	C30.007515,47.167580 30.001781,47.584080 30.000481,47.792355 
	C29.822779,47.996799 29.646376,47.992970 29.205288,47.974739 
	C29.010302,47.612534 29.201321,47.354626 29.760590,47.177094 
z"/>
<path fill="#057B99" opacity="1.000000" stroke="none" 
	d="
M36.903694,33.121292 
	C36.831703,32.764187 36.759708,32.407078 36.873840,31.399857 
	C37.029106,30.472759 36.998253,30.195778 36.967396,29.918795 
	C36.967396,29.918795 36.940887,29.987230 37.096237,30.123497 
	C37.843884,30.458323 38.436180,30.656881 39.028481,30.855442 
	C39.665813,30.942749 40.303143,31.030058 41.055992,31.481907 
	C41.123280,32.075127 41.075058,32.303810 40.541466,32.824539 
	C39.005291,33.118156 37.954491,33.119724 36.903694,33.121292 
z"/>
<path fill="#041934" opacity="1.000000" stroke="none" 
	d="
M39.171722,30.512035 
	C38.436180,30.656881 37.843884,30.458323 37.092003,30.086975 
	C36.671211,29.535206 36.409992,29.156229 36.069450,28.548239 
	C36.864540,28.478498 37.738956,28.637770 38.941238,28.935406 
	C39.378731,29.311569 39.528351,29.541279 39.578846,29.791031 
	C39.599834,29.894873 39.409309,30.041471 39.171722,30.512035 
z"/>
<path fill="#449ECF" opacity="1.000000" stroke="none" 
	d="
M33.963890,19.642176 
	C33.997272,19.989918 33.535290,19.994019 33.263412,19.739460 
	C32.985672,19.310179 32.979813,19.135454 32.973953,18.960732 
	C32.973953,18.960732 32.951195,18.866266 32.963673,18.817635 
	C32.976151,18.769005 33.398998,18.682199 33.611076,18.643124 
	C33.858936,18.834177 33.894718,19.064306 33.963890,19.642176 
z"/>
<path fill="#D97484" opacity="1.000000" stroke="none" 
	d="
M20.495316,30.264509 
	C20.317467,30.920334 19.552555,31.170645 18.337940,31.856106 
	C17.888237,32.291256 17.826540,32.369316 17.826540,32.369316 
	C17.715483,32.179848 17.645967,31.976198 17.706257,31.622736 
	C18.499096,30.944397 19.203674,30.401695 20.495316,30.264509 
z"/>
<path fill="#DEB2B1" opacity="1.000000" stroke="none" 
	d="
M17.803217,32.447350 
	C17.826540,32.369316 17.888237,32.291256 17.912447,32.283863 
	C18.115469,32.357449 18.294283,32.438431 18.603117,32.511009 
	C18.733137,32.502605 18.509180,32.763912 18.367584,32.653130 
	C18.225988,32.542351 17.883305,32.651234 17.883305,32.651234 
	C17.883305,32.651234 17.779894,32.525383 17.803217,32.447350 
z"/>
<path fill="#D97484" opacity="1.000000" stroke="none" 
	d="
M18.282478,30.164516 
	C18.277260,29.816097 18.398258,29.574928 18.852852,29.562920 
	C19.043756,30.121672 18.784508,30.281567 18.282478,30.164516 
z"/>
<path fill="#05748E" opacity="1.000000" stroke="none" 
	d="
M17.939299,33.085335 
	C17.883305,32.651234 18.225988,32.542351 18.554657,32.894051 
	C18.951618,33.435711 19.019913,33.625668 19.088207,33.815628 
	C18.941919,33.931435 18.795630,34.047241 18.390900,34.273529 
	C18.086739,34.095814 18.041016,33.807621 17.939299,33.085335 
z"/>
<path fill="#3C7299" opacity="1.000000" stroke="none" 
	d="
M32.687424,19.154099 
	C32.979813,19.135454 32.985672,19.310179 33.032455,19.743984 
	C32.880669,20.568237 32.687958,21.133404 32.229652,21.847511 
	C32.109676,21.113457 32.255287,20.230461 32.687424,19.154099 
z"/>
<path fill="#0EA2B3" opacity="1.000000" stroke="none" 
	d="
M37.081985,33.376862 
	C37.954491,33.119724 39.005291,33.118156 40.447010,33.162140 
	C40.577187,33.940022 40.316444,34.672352 39.876854,35.693363 
	C39.698002,35.982044 39.411884,35.934826 39.273090,35.899284 
	C38.509624,35.119972 37.884949,34.376202 37.081985,33.376862 
z"/>
<path fill="#FBFBFB" opacity="1.000000" stroke="none" 
	d="
M36.588974,26.661156 
	C36.680576,26.771179 36.295860,26.895939 36.091011,26.899710 
	C35.991196,26.540352 36.194935,26.422903 36.588974,26.661156 
z"/>
<path fill="#041934" opacity="1.000000" stroke="none" 
	d="
M36.660416,30.027859 
	C36.998253,30.195778 37.029106,30.472759 37.019485,31.166008 
	C36.702175,31.587561 36.425343,31.592844 35.814461,31.350590 
	C35.771420,30.781010 36.062428,30.458965 36.660416,30.027859 
z"/>
<path fill="#DEB2B1" opacity="1.000000" stroke="none" 
	d="
M20.250000,29.750000 
	C20.199873,29.366590 20.399748,29.233181 20.599621,29.099771 
	C20.566414,29.399847 20.533207,29.699924 20.250000,29.750000 
z"/>
<path fill="#023E5C" opacity="1.000000" stroke="none" 
	d="
M19.300442,33.851662 
	C19.019913,33.625668 18.951618,33.435711 18.696251,33.004829 
	C18.509180,32.763912 18.733137,32.502605 18.893545,32.462540 
	C19.567080,32.635303 20.080208,32.848125 20.987793,33.105419 
	C21.382252,33.149887 21.513271,33.293053 21.454729,33.369514 
	C21.263933,33.561886 21.126732,33.671608 20.878281,33.838150 
	C20.352213,33.896667 19.932446,33.892181 19.300442,33.851662 
z"/>
</svg>