<svg width="24" height="24" viewBox="0 0 24 24" fill="none" xmlns="http://www.w3.org/2000/svg">
    <path fill-rule="evenodd" clip-rule="evenodd" d="M12.0164 8.25001C9.96989 8.25001 8.31089 9.92894 8.31089 12C8.31089 14.0711 9.96989 15.75 12.0164 15.75C14.0629 15.75 15.7219 14.0711 15.7219 12C15.7219 9.92894 14.0629 8.25001 12.0164 8.25001ZM9.79308 12C9.79308 10.7574 10.7885 9.75001 12.0164 9.75001C13.2443 9.75001 14.2397 10.7574 14.2397 12C14.2397 13.2427 13.2443 14.25 12.0164 14.25C10.7885 14.25 9.79308 13.2427 9.79308 12Z" fill="currentColor" fill-opacity="0.9"/>
    <path fill-rule="evenodd" clip-rule="evenodd" d="M12.0162 3C10.7884 3 9.79295 4.00736 9.79295 5.25V5.6343C9.01181 5.91372 8.29796 6.3359 7.68186 6.86941L7.35155 6.67642C6.28817 6.0551 4.92842 6.42382 4.31448 7.49998C3.70053 8.57614 4.06488 9.95222 5.12826 10.5735L5.4577 10.766C5.38453 11.1665 5.34636 11.579 5.34636 12C5.34636 12.4243 5.38513 12.8399 5.4594 13.2433L5.12543 13.434C4.05398 14.0458 3.68163 15.4247 4.29674 16.5029C4.9099 17.5777 6.27 17.9425 7.32869 17.3162L7.6659 17.1168C8.28478 17.6561 9.00312 18.0827 9.78977 18.3646L9.7866 18.7304C9.77579 19.9806 10.7743 21 12.0098 21C13.23 21 14.2222 20.0046 14.2329 18.7698L14.2364 18.3668C15.0182 18.0876 15.7327 17.6654 16.3493 17.1318L16.6563 17.3129C17.7202 17.9409 19.0859 17.5739 19.7018 16.4944C20.3138 15.4215 19.9538 14.0499 18.8965 13.4258L18.5745 13.2357C18.6478 12.8347 18.6861 12.4216 18.6861 12C18.6861 11.5784 18.6478 11.1654 18.5745 10.7643L18.8965 10.5743C19.9538 9.95016 20.3138 8.57851 19.7018 7.50572C19.0859 6.4262 17.7202 6.05913 16.6562 6.68716L16.3493 6.8683C15.7335 6.33531 15.0201 5.91352 14.2395 5.6343V5.25C14.2395 4.00736 13.2441 3 12.0162 3ZM11.2751 5.25C11.2751 4.83579 11.6069 4.5 12.0162 4.5C12.4255 4.5 12.7573 4.83579 12.7573 5.25V6.18903C12.7573 6.53124 12.9862 6.83006 13.3137 6.91536C14.2401 7.15667 15.0676 7.65117 15.7191 8.32301C15.9578 8.56925 16.3318 8.61887 16.6252 8.44326L16.783 8.34882L16.7869 8.34653L17.403 7.98287C17.7576 7.77353 18.2129 7.89589 18.4182 8.25572C18.6222 8.61331 18.5022 9.07052 18.1497 9.27856L17.5294 9.6447L17.3774 9.72749C17.0724 9.89358 16.9218 10.2513 17.0146 10.589C17.1378 11.0371 17.2039 11.5101 17.2039 12C17.2039 12.4891 17.138 12.9614 17.0152 13.4089C16.9235 13.7428 17.0699 14.0968 17.3692 14.2651L17.5251 14.3528L18.1497 14.7215C18.5022 14.9295 18.6222 15.3868 18.4182 15.7444C18.2129 16.1042 17.7576 16.2265 17.403 16.0172L16.783 15.6513C16.7767 15.6475 16.7703 15.6439 16.7639 15.6404L16.5973 15.5486C16.3068 15.3886 15.9467 15.4428 15.7148 15.6814C15.0639 16.351 14.2381 16.8439 13.3137 17.0847C12.9862 17.17 12.7573 17.4688 12.7573 17.811V17.9967L12.7508 18.7566C12.7472 19.1682 12.4165 19.5 12.0098 19.5C11.598 19.5 11.2651 19.1602 11.2687 18.7435L11.2751 18.0066V17.811C11.2751 17.4688 11.0463 17.17 10.7188 17.0847C9.78608 16.8417 8.95374 16.3422 8.30024 15.6634C8.06262 15.4166 7.68939 15.3654 7.39543 15.5393L6.58068 16.0213C6.23139 16.2279 5.78266 16.1075 5.58036 15.7529C5.37742 15.3972 5.50027 14.9423 5.85377 14.7404L6.67049 14.2741C6.96768 14.1044 7.11197 13.7513 7.01999 13.4187C6.89541 12.9683 6.82856 12.4927 6.82856 12C6.82856 11.5124 6.89406 11.0414 7.01619 10.5951C7.10579 10.2677 6.96676 9.92029 6.67732 9.74824L6.51597 9.65231L5.86936 9.2745C5.5149 9.06739 5.39345 8.6087 5.5981 8.24998C5.80275 7.89126 6.25599 7.76835 6.61046 7.97546L7.24011 8.34336L7.38621 8.43636C7.68142 8.62427 8.06614 8.57847 8.31019 8.32635C8.96219 7.65281 9.79081 7.15707 10.7188 6.91536C11.0463 6.83006 11.2751 6.53124 11.2751 6.18903V5.25Z" fill="currentColor" fill-opacity="0.9"/>
    </svg>
    