<svg version="1.1" id="Layer_1" xmlns="http://www.w3.org/2000/svg" xmlns:xlink="http://www.w3.org/1999/xlink" x="0px" y="0px"
	 width="100%" viewBox="0 0 100 100" enable-background="new 0 0 100 100" xml:space="preserve">
<path fill="#FA7500" opacity="1.000000" stroke="none" 
	d="
M55.000000,101.000000 
	C48.645603,101.000000 42.291203,101.000000 35.419952,100.654449 
	C30.867548,97.310532 26.977158,94.087601 22.763988,91.363983 
	C15.616530,86.743492 8.265479,82.437927 1.000000,78.000000 
	C1.000000,73.975456 1.000000,69.950912 1.354695,65.508438 
	C5.823576,67.054695 9.937763,69.018883 14.301687,71.198563 
	C19.472610,79.314941 26.024118,85.452950 34.756668,88.776848 
	C38.974651,90.382347 43.568226,91.001083 48.043377,92.405792 
	C50.396679,95.496651 52.698338,98.248329 55.000000,101.000000 
z"/>
<path fill="#EAA601" opacity="1.000000" stroke="none" 
	d="
M47.000000,1.000000 
	C53.354397,1.000000 59.708797,1.000000 66.577759,1.345024 
	C68.039627,2.781553 68.805763,4.144009 69.964722,4.918977 
	C75.863708,8.863482 81.810165,12.743724 87.847778,16.471920 
	C92.143433,19.124468 96.609818,21.500538 101.000000,24.000000 
	C101.000000,27.361288 101.000000,30.722574 100.623772,34.532890 
	C95.008430,32.313148 89.732834,29.710802 84.581848,26.881607 
	C84.013626,26.569510 84.158447,24.959194 83.986603,23.616287 
	C83.972450,22.835651 83.944267,22.389709 83.767982,21.646572 
	C81.577789,22.540022 79.535698,23.730663 77.149330,24.687374 
	C76.527855,24.465895 76.250648,24.478350 76.118317,24.232622 
	C76.706696,19.825981 73.441246,20.533075 71.183365,19.679211 
	C71.819092,17.495338 72.371323,15.662658 72.954300,13.496981 
	C72.955681,12.716344 72.926323,12.268704 72.706207,11.561138 
	C71.028610,12.462715 69.541779,13.624222 67.936478,14.915939 
	C67.818001,15.046149 67.521049,15.227329 67.103348,15.170729 
	C64.780342,14.778409 62.875034,14.442689 60.834667,14.110572 
	C60.699608,14.114176 60.430943,14.085335 60.332878,13.702024 
	C59.809910,11.915096 59.385010,10.511478 58.818687,8.813478 
	C57.729759,8.676019 56.782261,8.832940 55.512955,8.915512 
	C52.460766,6.227443 49.730385,3.613722 47.000000,1.000000 
z"/>
<path fill="#F58400" opacity="1.000000" stroke="none" 
	d="
M101.000000,93.000000 
	C101.000000,95.629639 101.000000,98.259277 101.000000,101.000000 
	C93.312729,101.000000 85.625053,101.000000 77.422348,100.654381 
	C75.570946,98.974419 74.308693,97.554192 72.882690,96.323738 
	C69.966530,93.807457 66.962357,91.393181 64.228416,88.689285 
	C69.307602,85.285896 74.152809,82.130104 79.203461,79.238792 
	C86.605949,84.002182 93.802971,88.501091 101.000000,93.000000 
z"/>
<path fill="#FB6E01" opacity="1.000000" stroke="none" 
	d="
M1.000000,78.468735 
	C8.265479,82.437927 15.616530,86.743492 22.763988,91.363983 
	C26.977158,94.087601 30.867548,97.310532 34.951553,100.654449 
	C23.754421,101.000000 12.508842,101.000000 1.000000,101.000000 
	C1.000000,93.647911 1.000000,86.292694 1.000000,78.468735 
z"/>
<path fill="#F28E00" opacity="1.000000" stroke="none" 
	d="
M101.000000,92.531380 
	C93.802971,88.501091 86.605949,84.002182 79.361816,78.943748 
	C81.552887,74.260468 83.791061,70.136711 86.311523,65.974762 
	C87.038712,65.617271 87.483604,65.297981 88.306808,64.992294 
	C92.790092,66.670593 96.895042,68.335297 101.000000,70.000000 
	C101.000000,77.354256 101.000000,84.708504 101.000000,92.531380 
z"/>
<path fill="#EF9901" opacity="1.000000" stroke="none" 
	d="
M1.000000,5.000000 
	C1.000000,3.687873 1.000000,2.375746 1.000000,1.000000 
	C8.687453,1.000000 16.375034,1.000000 24.542271,1.361040 
	C27.838688,4.064058 30.746313,6.307251 33.439049,8.784067 
	C35.126728,10.336415 36.491291,12.240039 37.643021,14.037456 
	C33.524006,16.062119 29.762794,18.035376 25.668381,20.006357 
	C24.891573,20.005310 24.447968,20.006538 23.955450,19.662262 
	C20.456369,16.654934 17.189064,13.698731 13.506438,11.411118 
	C9.540488,8.947508 5.185344,7.110427 1.000000,5.000000 
z"/>
<path fill="#F19200" opacity="1.000000" stroke="none" 
	d="
M1.000000,5.460636 
	C5.185344,7.110427 9.540488,8.947508 13.506438,11.411118 
	C17.189064,13.698731 20.456369,16.654934 23.953970,19.993441 
	C23.997587,21.112289 23.993773,21.554459 23.699604,22.148556 
	C21.609539,24.205658 19.809826,26.110834 17.761538,28.018579 
	C17.512962,28.021151 17.016077,28.038078 16.965639,27.690880 
	C11.610134,23.895786 6.305067,20.447893 1.000000,17.000000 
	C1.000000,13.307091 1.000000,9.614182 1.000000,5.460636 
z"/>
<path fill="#EDA001" opacity="1.000000" stroke="none" 
	d="
M83.972565,23.950981 
	C84.158447,24.959194 84.013626,26.569510 84.581848,26.881607 
	C89.732834,29.710802 95.008430,32.313148 100.623772,34.990959 
	C101.000000,40.354931 101.000000,45.709858 100.645309,51.487167 
	C96.534546,50.273621 92.778465,48.637695 88.858604,46.650227 
	C87.574860,42.379372 86.557831,38.426678 85.301201,34.551685 
	C84.355797,31.636444 83.103004,28.820885 81.978714,25.722172 
	C81.970383,25.483397 81.882248,25.013750 81.930267,24.765289 
	C81.977692,24.348127 81.977097,24.179422 81.977631,24.038258 
	C81.978767,24.065800 82.033073,24.075294 82.356903,24.061214 
	C83.111336,24.015083 83.541954,23.983032 83.972565,23.950981 
z"/>
<path fill="#EDA000" opacity="1.000000" stroke="none" 
	d="
M38.000828,13.986052 
	C36.491291,12.240039 35.126728,10.336415 33.439049,8.784067 
	C30.746313,6.307251 27.838688,4.064058 25.010963,1.361040 
	C32.020947,1.000000 39.041897,1.000000 46.531422,1.000000 
	C49.730385,3.613722 52.460766,6.227443 55.561012,9.154140 
	C55.930870,9.467116 55.903336,9.953077 55.642303,10.113798 
	C55.203232,10.859832 55.025196,11.445144 54.480194,12.205775 
	C48.742428,12.916081 43.371628,13.451067 38.000828,13.986052 
z"/>
<path fill="#ECAD00" opacity="1.000000" stroke="none" 
	d="
M101.000000,23.555836 
	C96.609818,21.500538 92.143433,19.124468 87.847778,16.471920 
	C81.810165,12.743724 75.863708,8.863482 69.964722,4.918977 
	C68.805763,4.144009 68.039627,2.781553 67.046158,1.345024 
	C70.361290,1.000000 73.722572,1.000000 77.590385,1.345552 
	C84.049553,5.907979 89.948532,10.204412 95.994698,14.282641 
	C97.406792,15.235123 99.318283,15.447243 101.000000,16.000000 
	C101.000000,18.370558 101.000000,20.741116 101.000000,23.555836 
z"/>
<path fill="#EF9801" opacity="1.000000" stroke="none" 
	d="
M89.022385,47.001770 
	C92.778465,48.637695 96.534546,50.273621 100.645309,51.954773 
	C101.000000,57.688042 101.000000,63.376083 101.000000,69.532059 
	C96.895042,68.335297 92.790092,66.670593 88.198517,64.669617 
	C88.148735,58.556149 88.585564,52.778957 89.022385,47.001770 
z"/>
<path fill="#F77B01" opacity="1.000000" stroke="none" 
	d="
M63.994438,88.936897 
	C66.962357,91.393181 69.966530,93.807457 72.882690,96.323738 
	C74.308693,97.554192 75.570946,98.974419 76.953659,100.654381 
	C69.979050,101.000000 62.958103,101.000000 55.468578,101.000000 
	C52.698338,98.248329 50.396679,95.496651 48.475601,92.379822 
	C53.902267,90.988739 58.948353,89.962822 63.994438,88.936897 
z"/>
<path fill="#F38C00" opacity="1.000000" stroke="none" 
	d="
M1.000000,17.463184 
	C6.305067,20.447893 11.610134,23.895786 16.831394,27.978069 
	C16.504589,29.411533 16.261589,30.210611 15.995317,31.254925 
	C15.972049,31.500162 15.956060,31.992754 15.768434,32.235920 
	C15.047741,33.305698 14.514675,34.132313 13.731563,35.079639 
	C12.997334,35.468620 12.513152,35.736889 11.680638,35.959209 
	C7.888204,33.942173 4.444102,31.971088 1.000000,30.000000 
	C1.000000,25.975456 1.000000,21.950911 1.000000,17.463184 
z"/>
<path fill="#EFB201" opacity="1.000000" stroke="none" 
	d="
M101.000000,15.562500 
	C99.318283,15.447243 97.406792,15.235123 95.994698,14.282641 
	C89.948532,10.204412 84.049553,5.907979 78.048454,1.345552 
	C81.361290,1.000000 84.722572,1.000000 88.590248,1.345224 
	C93.064423,4.126965 97.032211,6.563482 101.000000,8.999999 
	C101.000000,11.041667 101.000000,13.083333 101.000000,15.562500 
z"/>
<path fill="#F77A01" opacity="1.000000" stroke="none" 
	d="
M14.051950,70.983078 
	C9.937763,69.018883 5.823576,67.054695 1.354695,65.045250 
	C1.000000,61.307091 1.000000,57.614182 1.379014,53.470371 
	C4.152518,53.682087 6.547009,54.344707 8.966467,55.341976 
	C9.336512,56.446918 9.681587,57.217209 10.029698,58.323273 
	C10.056898,59.106033 10.081063,59.553020 10.120066,60.371849 
	C11.440585,64.156822 12.746267,67.569954 14.051950,70.983078 
z"/>
<path fill="#F48500" opacity="1.000000" stroke="none" 
	d="
M1.000000,30.460636 
	C4.444102,31.971088 7.888204,33.942173 11.631592,36.301537 
	C11.659897,37.796947 11.388916,38.904076 11.082273,40.340973 
	C11.021636,41.112274 10.996662,41.553818 10.740020,42.173450 
	C10.358600,42.903194 10.208847,43.454845 10.052732,44.261139 
	C10.052541,44.685482 10.058715,44.855183 9.940187,45.231705 
	C9.610578,45.696808 9.355161,45.887405 8.732622,45.869522 
	C5.944007,44.485821 3.472003,43.242912 1.000000,42.000000 
	C1.000000,38.307091 1.000000,34.614182 1.000000,30.460636 
z"/>
<path fill="#F68000" opacity="1.000000" stroke="none" 
	d="
M1.000000,42.458069 
	C3.472003,43.242912 5.944007,44.485821 8.717509,46.318466 
	C8.993172,49.607910 8.967335,52.307617 8.941499,55.007324 
	C6.547009,54.344707 4.152518,53.682087 1.379014,53.009735 
	C1.000000,49.638714 1.000000,46.277424 1.000000,42.458069 
z"/>
<path fill="#F2B700" opacity="1.000000" stroke="none" 
	d="
M101.000000,8.505266 
	C97.032211,6.563482 93.064423,4.126965 89.048317,1.345224 
	C92.899597,1.000000 96.799194,1.000000 101.000000,1.000000 
	C101.000000,3.329002 101.000000,5.669767 101.000000,8.505266 
z"/>
<path fill="#FDB701" opacity="1.000000" stroke="none" 
	d="
M14.301687,71.198563 
	C12.746267,67.569954 11.440585,64.156822 10.436863,60.444206 
	C11.824965,61.096966 12.911105,62.049217 13.998661,63.000732 
	C14.000076,63.000000 14.003600,62.998333 14.048376,63.356651 
	C19.407438,78.112686 29.845327,86.426544 44.841640,88.652016 
	C52.607410,89.804459 60.341312,88.998505 67.000786,84.000809 
	C67.000000,84.000000 67.001572,84.002136 67.353134,83.995728 
	C69.136772,82.993088 70.568848,81.996849 72.210449,80.881271 
	C72.681648,80.561295 72.875778,80.308723 73.320099,79.968430 
	C74.424919,79.288223 75.211990,78.643814 76.294037,77.836533 
	C79.391777,73.781982 82.194534,69.890320 85.255295,66.001076 
	C85.685280,66.006645 85.857262,66.009804 86.029236,66.012955 
	C83.791061,70.136711 81.552887,74.260468 79.156357,78.679268 
	C74.152809,82.130104 69.307602,85.285896 64.228424,88.689285 
	C58.948353,89.962822 53.902267,90.988739 48.423958,92.040634 
	C43.568226,91.001083 38.974651,90.382347 34.756668,88.776848 
	C26.024118,85.452950 19.472610,79.314941 14.301687,71.198563 
z"/>
<path fill="#FCC602" opacity="1.000000" stroke="none" 
	d="
M71.099884,20.030407 
	C73.441246,20.533075 76.706696,19.825981 75.791870,24.617304 
	C75.131699,25.538292 74.942871,25.816418 74.642899,26.071609 
	C74.080254,26.438387 73.628754,26.828098 73.016968,26.924452 
	C71.578850,25.467722 70.301010,24.304350 69.123734,22.858990 
	C69.484413,22.042768 69.744537,21.508533 70.213943,20.851086 
	C70.661247,20.507481 70.886795,20.274992 71.099884,20.030407 
z"/>
<path fill="#D91B26" opacity="1.000000" stroke="none" 
	d="
M71.183365,19.679211 
	C70.886795,20.274992 70.661247,20.507481 70.042191,20.635006 
	C69.157433,20.346451 68.653709,20.150761 68.141907,19.529385 
	C68.107536,17.664373 68.081245,16.225050 68.054955,14.785728 
	C69.541779,13.624222 71.028610,12.462715 72.423538,11.640701 
	C72.033440,12.312391 71.735252,12.644590 71.437057,12.976789 
	C71.932556,13.261186 72.428055,13.545582 72.923553,13.829979 
	C72.371323,15.662658 71.819092,17.495338 71.183365,19.679211 
z"/>
<path fill="#D71B24" opacity="1.000000" stroke="none" 
	d="
M58.960114,9.107860 
	C59.385010,10.511478 59.809910,11.915096 60.241299,14.087048 
	C60.259243,15.906830 60.270699,16.958279 60.183685,18.335566 
	C60.078133,19.112606 60.071045,19.563808 59.925739,20.267445 
	C59.517094,21.026737 59.246662,21.533592 58.683327,21.952232 
	C57.941280,21.026152 57.492142,20.188288 57.071320,18.878860 
	C56.981117,15.967203 56.862595,13.527106 57.064087,11.015039 
	C57.909435,10.331334 58.434772,9.719597 58.960114,9.107860 
z"/>
<path fill="#D81825" opacity="1.000000" stroke="none" 
	d="
M81.882248,25.013750 
	C81.882248,25.013750 81.970383,25.483397 81.695992,25.844231 
	C80.603493,26.768866 79.785385,27.332666 78.649422,27.947197 
	C77.905579,28.048731 77.479599,28.099535 77.035355,27.789436 
	C77.007950,26.947041 76.998795,26.465548 77.100922,25.711395 
	C77.306000,25.266262 77.399796,25.093786 77.493599,24.921307 
	C79.535698,23.730663 81.577789,22.540022 83.451538,21.714897 
	C82.866493,22.745377 82.449783,23.410336 82.033073,24.075294 
	C82.033073,24.075294 81.978767,24.065800 81.750557,24.047287 
	C81.279419,24.169144 81.036484,24.309513 80.793556,24.449883 
	C81.156456,24.637836 81.519348,24.825792 81.882248,25.013750 
z"/>
<path fill="#FDC101" opacity="1.000000" stroke="none" 
	d="
M60.282154,18.009727 
	C60.270699,16.958279 60.259243,15.906830 60.339363,14.470358 
	C60.430943,14.085335 60.699608,14.114176 61.016277,14.381266 
	C62.869984,15.771869 64.407021,16.895382 65.540009,18.012939 
	C63.518021,18.007900 61.900089,18.008814 60.282154,18.009727 
z"/>
<path fill="#FAB001" opacity="1.000000" stroke="none" 
	d="
M65.944061,18.018894 
	C64.407021,16.895382 62.869984,15.771869 61.151337,14.377663 
	C62.875034,14.442689 64.780342,14.778409 67.019264,15.514297 
	C67.201324,16.848379 67.049782,17.782291 66.708664,18.839537 
	C66.519089,18.962868 66.118927,19.168768 66.071106,18.881924 
	C65.996880,18.403019 65.970474,18.210957 65.944061,18.018894 
z"/>
<path fill="#CC101E" opacity="1.000000" stroke="none" 
	d="
M58.818687,8.813478 
	C58.434772,9.719597 57.909435,10.331334 56.883614,10.996351 
	C56.383129,11.049630 56.017635,11.018646 56.000244,10.751055 
	C55.956345,10.306668 55.929840,10.129872 55.903336,9.953077 
	C55.903336,9.953077 55.930870,9.467116 55.882812,9.228489 
	C56.782261,8.832940 57.729759,8.676019 58.818687,8.813478 
z"/>
<path fill="#910C1B" opacity="1.000000" stroke="none" 
	d="
M66.898232,18.716206 
	C67.049782,17.782291 67.201324,16.848379 67.436966,15.570897 
	C67.521049,15.227329 67.818001,15.046149 67.936478,14.915937 
	C68.081245,16.225050 68.107536,17.664373 68.090233,19.935852 
	C68.106270,21.579426 68.165901,22.390844 68.079239,23.418400 
	C67.619598,23.779816 67.306252,23.925091 66.975037,24.025719 
	C66.957161,23.981071 66.865547,24.008104 66.878593,23.836700 
	C66.891640,23.665298 66.835358,23.325729 66.877167,22.868357 
	C66.912064,21.179392 66.905151,19.947798 66.898232,18.716206 
z"/>
<path fill="#EC595E" opacity="1.000000" stroke="none" 
	d="
M72.954300,13.496981 
	C72.428055,13.545582 71.932556,13.261186 71.437057,12.976789 
	C71.735252,12.644590 72.033440,12.312391 72.614304,11.900629 
	C72.926323,12.268704 72.955681,12.716344 72.954300,13.496981 
z"/>
<path fill="#EC595E" opacity="1.000000" stroke="none" 
	d="
M82.356903,24.061214 
	C82.449783,23.410336 82.866493,22.745377 83.599640,22.012093 
	C83.944267,22.389709 83.972450,22.835651 83.986603,23.616287 
	C83.541954,23.983032 83.111336,24.015083 82.356903,24.061214 
z"/>
<path fill="#7D0E1D" opacity="1.000000" stroke="none" 
	d="
M77.149330,24.687374 
	C77.399796,25.093786 77.306000,25.266262 76.543976,25.777908 
	C75.501846,26.109566 75.127937,26.102055 74.754036,26.094542 
	C74.942871,25.816418 75.131699,25.538292 75.646988,24.875486 
	C76.250648,24.478350 76.527855,24.465895 77.149330,24.687374 
z"/>
<path fill="#FEBB01" opacity="1.000000" stroke="none" 
	d="
M78.967278,27.896467 
	C79.785385,27.332666 80.603493,26.768866 81.704330,26.083006 
	C83.103004,28.820885 84.355797,31.636444 85.301201,34.551685 
	C86.557831,38.426678 87.574860,42.379372 88.858604,46.650227 
	C88.585564,52.778957 88.148735,58.556149 87.820198,64.656013 
	C87.483604,65.297981 87.038712,65.617271 86.311531,65.974762 
	C85.857262,66.009804 85.685280,66.006645 85.255844,65.581406 
	C86.828934,56.860279 88.487900,48.518013 84.999229,40.270596 
	C83.214111,36.050484 80.991928,32.015255 78.967278,27.896467 
z"/>
<path fill="#FEBB01" opacity="1.000000" stroke="none" 
	d="
M37.643021,14.037456 
	C43.371628,13.451067 48.742428,12.916081 54.545635,12.533987 
	C54.955421,13.130845 54.932800,13.574813 54.540703,14.188804 
	C48.492443,15.272430 42.757515,15.934807 37.154392,17.186970 
	C33.347881,18.037630 29.726170,19.715227 26.013466,20.769489 
	C26.003937,20.346851 26.002760,20.177742 26.001585,20.008633 
	C29.762794,18.035376 33.524006,16.062119 37.643021,14.037456 
z"/>
<path fill="#FDB701" opacity="1.000000" stroke="none" 
	d="
M25.668381,20.006359 
	C26.002760,20.177742 26.003937,20.346851 26.007427,21.013988 
	C26.009737,21.512020 26.002583,22.001659 25.667208,22.001204 
	C24.884541,21.999374 24.437250,21.998001 23.989956,21.996626 
	C23.993773,21.554459 23.997587,21.112289 24.002882,20.338943 
	C24.447968,20.006538 24.891573,20.005310 25.668381,20.006359 
z"/>
<path fill="#FEBB01" opacity="1.000000" stroke="none" 
	d="
M23.699604,22.148556 
	C24.437250,21.998001 24.884541,21.999374 25.526716,22.308083 
	C23.484262,24.743906 21.246927,26.872393 18.800808,28.883255 
	C18.331064,28.567759 18.137093,28.317884 18.010113,28.016006 
	C19.809826,26.110834 21.609539,24.205658 23.699604,22.148556 
z"/>
<path fill="#FDB701" opacity="1.000000" stroke="none" 
	d="
M17.761536,28.018578 
	C18.137093,28.317884 18.331064,28.567759 18.730354,29.217911 
	C17.918652,30.116690 16.968618,30.563189 16.018587,31.009687 
	C16.261589,30.210611 16.504589,29.411533 16.881832,28.325268 
	C17.016077,28.038078 17.512962,28.021151 17.761536,28.018578 
z"/>
<path fill="#E62C34" opacity="1.000000" stroke="none" 
	d="
M81.930267,24.765289 
	C81.519348,24.825792 81.156456,24.637836 80.793556,24.449883 
	C81.036484,24.309513 81.279419,24.169144 81.749420,24.019747 
	C81.977097,24.179422 81.977692,24.348127 81.930267,24.765289 
z"/>
<path fill="#85331C" opacity="1.000000" stroke="none" 
	d="
M54.910179,14.018781 
	C54.932800,13.574813 54.955421,13.130845 54.912601,12.358665 
	C55.025196,11.445144 55.203232,10.859832 55.642303,10.113798 
	C55.929840,10.129872 55.956345,10.306668 55.995544,11.176723 
	C56.013474,13.577727 56.018707,15.285471 55.875877,16.921761 
	C55.727818,16.850306 55.428345,16.714552 55.391052,16.372749 
	C55.205902,15.360226 55.058041,14.689503 54.910179,14.018781 
z"/>
<path fill="#FEC801" opacity="1.000000" stroke="none" 
	d="
M54.540703,14.188804 
	C55.058041,14.689503 55.205902,15.360226 54.995247,16.570595 
	C51.233265,17.733698 47.853455,18.584778 44.422256,18.941374 
	C29.245186,20.518682 16.365084,34.763966 15.898753,49.936737 
	C15.657810,57.776188 18.281916,64.469261 21.645311,70.954819 
	C20.073286,69.681503 18.806585,68.494644 17.634182,67.220978 
	C16.377733,65.856003 15.210032,64.409340 14.003599,62.998333 
	C14.003600,62.998333 14.000076,63.000000 13.998598,62.614143 
	C13.664616,60.485573 13.332112,58.742859 13.250851,56.747578 
	C13.003139,54.996353 12.504186,53.497696 12.004049,51.599113 
	C12.001479,50.132687 12.000093,49.066193 12.252071,47.751041 
	C12.668867,46.334362 12.832298,45.166344 12.997388,43.665367 
	C13.000236,42.888428 13.001425,42.444443 13.232375,41.818787 
	C13.640294,41.090954 13.818453,40.544788 13.998175,39.624844 
	C14.001928,38.503498 14.004119,37.755936 14.339012,36.941093 
	C15.099830,35.246792 15.527946,33.619774 15.956060,31.992754 
	C15.956060,31.992754 15.972049,31.500162 15.995317,31.254925 
	C16.968618,30.563189 17.918652,30.116690 18.939137,29.335537 
	C21.246927,26.872393 23.484262,24.743906 25.862091,22.308540 
	C26.002583,22.001659 26.009737,21.512020 26.015778,21.267521 
	C29.726170,19.715227 33.347881,18.037630 37.154392,17.186970 
	C42.757515,15.934807 48.492443,15.272430 54.540703,14.188804 
z"/>
<path fill="#FDB701" opacity="1.000000" stroke="none" 
	d="
M14.006309,37.008373 
	C14.004119,37.755936 14.001928,38.503498 13.637102,39.625378 
	C12.555623,40.003532 11.836779,40.007370 11.117935,40.011208 
	C11.388916,38.904076 11.659897,37.796947 11.979924,36.347488 
	C12.513152,35.736889 12.997334,35.468620 13.738346,35.421646 
	C13.998888,36.098083 14.002599,36.553226 14.006309,37.008373 
z"/>
<path fill="#FEBB01" opacity="1.000000" stroke="none" 
	d="
M14.339012,36.941093 
	C14.002599,36.553226 13.998888,36.098083 13.988394,35.300934 
	C14.514675,34.132313 15.047741,33.305698 15.768435,32.235920 
	C15.527946,33.619774 15.099830,35.246792 14.339012,36.941093 
z"/>
<path fill="#FDB701" opacity="1.000000" stroke="none" 
	d="
M11.998707,47.999699 
	C12.000093,49.066193 12.001479,50.132687 12.001884,52.015873 
	C12.000321,54.221710 11.999741,55.610855 11.746496,57.111969 
	C11.004775,57.478455 10.515718,57.732979 10.026663,57.987499 
	C9.681587,57.217209 9.336512,56.446918 8.966467,55.341976 
	C8.967335,52.307617 8.993172,49.607910 9.034121,46.459259 
	C9.355161,45.887405 9.610578,45.696808 10.163601,45.433517 
	C11.007380,46.285576 11.503043,47.142635 11.998707,47.999699 
z"/>
<path fill="#FEBB01" opacity="1.000000" stroke="none" 
	d="
M10.029697,58.323273 
	C10.515718,57.732979 11.004775,57.478455 11.996613,57.112076 
	C12.666134,57.000195 12.832872,57.000172 12.999609,57.000149 
	C13.332112,58.742859 13.664616,60.485573 13.997183,62.614876 
	C12.911105,62.049217 11.824965,61.096966 10.422026,60.072361 
	C10.081063,59.553020 10.056898,59.106033 10.029697,58.323273 
z"/>
<path fill="#FEBB01" opacity="1.000000" stroke="none" 
	d="
M12.252070,47.751041 
	C11.503043,47.142635 11.007380,46.285576 10.288302,45.226700 
	C10.058715,44.855183 10.052541,44.685482 10.418799,44.258881 
	C11.526064,44.000759 12.260897,43.999538 12.995729,43.998322 
	C12.832298,45.166344 12.668867,46.334362 12.252070,47.751041 
z"/>
<path fill="#FEBB01" opacity="1.000000" stroke="none" 
	d="
M11.082272,40.340973 
	C11.836779,40.007370 12.555623,40.003532 13.635539,39.999161 
	C13.818453,40.544788 13.640294,41.090954 12.894020,41.818306 
	C11.874499,41.998116 11.423093,41.996738 10.971687,41.995361 
	C10.996662,41.553818 11.021636,41.112274 11.082272,40.340973 
z"/>
<path fill="#FDB701" opacity="1.000000" stroke="none" 
	d="
M10.740020,42.173454 
	C11.423093,41.996738 11.874499,41.998116 12.664259,41.999977 
	C13.001425,42.444443 13.000236,42.888428 12.997388,43.665367 
	C12.260897,43.999538 11.526064,44.000759 10.425163,44.004234 
	C10.208847,43.454845 10.358600,42.903194 10.740020,42.173454 
z"/>
<path fill="#FEC801" opacity="1.000000" stroke="none" 
	d="
M78.649422,27.947197 
	C80.991928,32.015255 83.214111,36.050484 84.999229,40.270596 
	C88.487900,48.518013 86.828934,56.860279 84.997841,65.578987 
	C82.194534,69.890320 79.391777,73.781982 75.945816,77.845612 
	C74.535866,78.679787 73.769112,79.342010 73.002350,80.004227 
	C72.875778,80.308723 72.681648,80.561295 71.845490,80.889038 
	C69.847870,82.011467 68.424721,83.006805 67.001572,84.002136 
	C67.001572,84.002136 67.000000,84.000000 66.594856,84.001968 
	C62.716362,84.862389 59.277985,85.977516 55.753109,86.457870 
	C54.262413,86.661026 52.589752,85.528938 51.294601,84.735909 
	C52.061066,84.327232 52.539509,84.043983 53.003410,84.066071 
	C73.392593,85.036835 91.678749,58.628124 79.930649,36.731064 
	C78.627907,34.302902 77.947395,31.540899 76.996445,28.737810 
	C77.014580,28.541897 77.053612,28.150337 77.053612,28.150337 
	C77.479599,28.099535 77.905579,28.048731 78.649422,27.947197 
z"/>
<path fill="#FDC501" opacity="1.000000" stroke="none" 
	d="
M50.999798,85.003754 
	C52.589752,85.528938 54.262413,86.661026 55.753109,86.457870 
	C59.277985,85.977516 62.716362,84.862389 66.595642,84.002769 
	C60.341312,88.998505 52.607410,89.804459 44.841640,88.652016 
	C29.845327,86.426544 19.407438,78.112686 14.048376,63.356651 
	C15.210032,64.409340 16.377733,65.856003 17.634182,67.220978 
	C18.806585,68.494644 20.073286,69.681503 21.928871,70.966469 
	C22.748178,71.035622 22.937090,71.044884 23.094822,71.413818 
	C24.337862,73.626564 25.202452,76.312622 26.962351,77.178085 
	C32.460747,79.882019 38.297417,81.898071 44.097755,84.510635 
	C45.795197,84.893364 47.397854,84.946205 49.333733,84.999893 
	C50.111229,85.001747 50.555515,85.002747 50.999798,85.003754 
z"/>
<path fill="#FDC501" opacity="1.000000" stroke="none" 
	d="
M67.353134,83.995728 
	C68.424721,83.006805 69.847870,82.011467 71.635971,81.008377 
	C70.568848,81.996849 69.136772,82.993088 67.353134,83.995728 
z"/>
<path fill="#FDC501" opacity="1.000000" stroke="none" 
	d="
M73.320099,79.968430 
	C73.769112,79.342010 74.535866,78.679787 75.650848,78.008484 
	C75.211990,78.643814 74.424919,79.288223 73.320099,79.968430 
z"/>
<path fill="#FDD102" opacity="1.000000" stroke="none" 
	d="
M66.992905,24.070366 
	C67.306252,23.925091 67.619598,23.779816 68.278900,23.412834 
	C68.624863,23.191126 69.023163,23.140976 69.023163,23.140976 
	C70.301010,24.304350 71.578850,25.467722 72.938995,27.269169 
	C72.953125,28.603708 72.884972,29.300175 72.587517,29.983679 
	C72.358215,29.970715 71.905540,29.883047 71.847656,29.559406 
	C70.478767,28.475929 69.167770,27.716097 67.836891,26.662580 
	C67.555550,25.841866 67.294083,25.314837 67.018822,24.608658 
	C67.005028,24.429512 66.992905,24.070366 66.992905,24.070366 
z"/>
<path fill="#C1151F" opacity="1.000000" stroke="none" 
	d="
M72.816818,29.996643 
	C72.884972,29.300175 72.953125,28.603708 73.099266,27.562527 
	C73.628754,26.828098 74.080254,26.438387 74.642899,26.071609 
	C75.127937,26.102055 75.501846,26.109566 76.432693,26.050568 
	C76.998795,26.465548 77.007950,26.947041 77.035355,27.789434 
	C77.053612,28.150337 77.014580,28.541897 76.697403,28.776249 
	C75.911781,29.314255 75.443336,29.617912 74.616867,29.962309 
	C73.778175,30.000914 73.297493,29.998779 72.816818,29.996643 
z"/>
<path fill="#C7171F" opacity="1.000000" stroke="none" 
	d="
M69.123734,22.858990 
	C69.023163,23.140976 68.624863,23.191126 68.425201,23.196693 
	C68.165901,22.390844 68.106270,21.579426 68.098312,20.361540 
	C68.653709,20.150761 69.157433,20.346451 69.832901,20.758219 
	C69.744537,21.508533 69.484413,22.042768 69.123734,22.858990 
z"/>
<path fill="#FEDA03" opacity="1.000000" stroke="none" 
	d="
M57.043007,19.350422 
	C57.492142,20.188288 57.941280,21.026152 58.691139,22.145363 
	C58.991859,22.426708 58.996170,22.814289 58.739357,22.938103 
	C58.275555,23.376293 58.068562,23.690674 57.439175,24.002907 
	C54.578968,24.380247 52.141159,24.759737 49.500954,25.037201 
	C49.073116,24.722137 48.915306,24.467222 48.866371,23.857796 
	C48.607410,23.029228 48.307205,22.513294 48.000244,21.751022 
	C47.993484,21.504684 47.958355,21.013077 48.382416,21.009642 
	C51.251499,20.310736 53.696518,19.615265 56.383629,18.992437 
	C56.764820,19.160194 56.903912,19.255310 57.043007,19.350422 
z"/>
<path fill="#FED601" opacity="1.000000" stroke="none" 
	d="
M58.996170,22.814289 
	C58.996170,22.814289 58.991859,22.426708 58.984047,22.233578 
	C59.246662,21.533592 59.517094,21.026737 60.233013,20.409510 
	C62.391674,20.869362 64.104843,21.439583 65.879440,22.265909 
	C65.958969,22.696659 65.977066,22.871304 66.100624,23.239944 
	C66.379333,23.678818 66.599152,23.870205 66.865547,24.008104 
	C66.865547,24.008104 66.957161,23.981071 66.975037,24.025719 
	C66.992905,24.070366 67.005028,24.429512 66.655197,24.612520 
	C65.475006,25.204784 64.644630,25.614038 63.516228,25.951977 
	C62.200214,25.255917 61.182236,24.631174 59.998943,23.780888 
	C59.554474,23.308325 59.275322,23.061306 58.996170,22.814289 
z"/>
<path fill="#FECB01" opacity="1.000000" stroke="none" 
	d="
M65.818008,22.009804 
	C64.104843,21.439583 62.391674,20.869362 60.371231,20.157074 
	C60.071045,19.563808 60.078133,19.112606 60.183685,18.335566 
	C61.900089,18.008814 63.518021,18.007900 65.540009,18.012939 
	C65.970474,18.210957 65.996880,18.403019 66.061996,19.238844 
	C66.006477,20.591673 65.912239,21.300737 65.818008,22.009804 
z"/>
<path fill="#8A0F1D" opacity="1.000000" stroke="none" 
	d="
M57.071320,18.878862 
	C56.903912,19.255310 56.764820,19.160194 56.340107,18.672945 
	C56.044304,17.851612 56.034119,17.422413 56.023941,16.993214 
	C56.018707,15.285471 56.013474,13.577727 56.012939,11.444315 
	C56.017635,11.018646 56.383129,11.049630 56.563602,11.068319 
	C56.862595,13.527106 56.981117,15.967203 57.071320,18.878862 
z"/>
<path fill="#905419" opacity="1.000000" stroke="none" 
	d="
M65.879440,22.265909 
	C65.912239,21.300737 66.006477,20.591673 66.109818,19.525688 
	C66.118927,19.168768 66.519089,18.962868 66.708664,18.839537 
	C66.905151,19.947798 66.912064,21.179392 66.662964,22.809875 
	C66.406937,23.208765 65.995163,23.045950 65.995163,23.045950 
	C65.977066,22.871304 65.958969,22.696659 65.879440,22.265909 
z"/>
<path fill="#FDD102" opacity="1.000000" stroke="none" 
	d="
M66.100624,23.239944 
	C65.995163,23.045950 66.406937,23.208765 66.621147,23.267246 
	C66.835358,23.325729 66.891640,23.665298 66.878593,23.836700 
	C66.599152,23.870205 66.379333,23.678818 66.100624,23.239944 
z"/>
<path fill="#FED401" opacity="1.000000" stroke="none" 
	d="
M55.875877,16.921761 
	C56.034119,17.422413 56.044304,17.851612 56.098015,18.600304 
	C53.696518,19.615265 51.251499,20.310736 48.095230,21.029503 
	C46.927982,21.355717 46.471985,21.658636 45.784645,22.057690 
	C45.252102,22.340525 45.064510,22.607147 44.778069,22.980871 
	C44.565609,23.008051 44.139030,23.047291 43.753597,23.081028 
	C39.692196,24.628782 34.753380,23.871548 32.727787,28.926651 
	C31.957558,29.267328 31.474932,29.552410 30.760254,29.962658 
	C30.338825,30.376808 30.149452,30.665791 29.740738,30.974543 
	C29.521399,30.994312 29.080702,31.027521 28.738403,31.083738 
	C18.295635,41.144043 17.917368,52.657536 23.203672,65.400620 
	C23.224840,67.525871 23.175421,69.290009 23.126001,71.054146 
	C22.937090,71.044884 22.748178,71.035622 22.275703,71.014709 
	C18.281916,64.469261 15.657810,57.776188 15.898753,49.936737 
	C16.365084,34.763966 29.245186,20.518682 44.422256,18.941374 
	C47.853455,18.584778 51.233265,17.733698 55.032539,16.912395 
	C55.428345,16.714552 55.727818,16.850306 55.875877,16.921761 
z"/>
<path fill="#FDC501" opacity="1.000000" stroke="none" 
	d="
M13.250851,56.747578 
	C12.832872,57.000172 12.666134,57.000195 12.249278,57.000111 
	C11.999741,55.610855 12.000321,54.221710 12.003067,52.415802 
	C12.504186,53.497696 13.003139,54.996353 13.250851,56.747578 
z"/>
<path fill="#FED501" opacity="1.000000" stroke="none" 
	d="
M74.974892,29.921568 
	C75.443336,29.617912 75.911781,29.314255 76.679260,28.972160 
	C77.947395,31.540899 78.627907,34.302902 79.930649,36.731064 
	C91.678749,58.628124 73.392593,85.036835 53.003410,84.066071 
	C52.539509,84.043983 52.061066,84.327232 51.294601,84.735909 
	C50.555515,85.002747 50.111229,85.001747 49.335190,84.795403 
	C49.003437,84.590057 49.007168,84.181046 49.312733,84.039726 
	C51.086800,82.633698 52.555302,81.368988 54.283478,80.038467 
	C54.707317,79.902336 54.871479,79.832008 55.256123,79.739151 
	C55.741905,79.549904 55.915054,79.315178 56.259529,78.929619 
	C56.758030,78.566307 56.993065,78.285805 57.499722,77.879044 
	C58.509056,77.494377 59.246769,77.235977 60.217384,77.225426 
	C62.136665,77.059532 64.000526,76.976105 65.481628,76.180305 
	C78.474487,69.199112 83.556862,52.552040 77.187363,39.157139 
	C75.857437,36.360332 75.682228,33.014431 74.974892,29.921568 
z"/>
<path fill="#36280A" opacity="1.000000" stroke="none" 
	d="
M54.023804,80.104279 
	C52.555302,81.368988 51.086800,82.633698 48.899391,83.970688 
	C46.787983,84.088905 45.395477,84.134827 44.002975,84.180748 
	C38.297417,81.898071 32.460747,79.882019 26.962351,77.178085 
	C25.202452,76.312622 24.337862,73.626564 23.094822,71.413818 
	C23.175421,69.290009 23.224840,67.525871 23.347515,65.165947 
	C23.623058,64.065323 23.825348,63.560490 24.020342,63.281029 
	C24.013046,63.506405 24.097462,63.948475 24.180313,64.138588 
	C24.592136,64.608322 24.921106,64.887955 25.330898,65.484718 
	C26.969643,66.583260 28.527559,67.364662 30.347158,68.319214 
	C32.060459,69.665962 33.512081,70.839554 35.172150,72.280075 
	C36.259922,72.654182 37.139244,72.761337 38.255600,72.920090 
	C38.492641,72.971687 38.976082,73.012741 39.120689,73.308105 
	C40.846165,74.734207 42.427032,75.864929 44.200825,77.004517 
	C44.393749,77.013390 44.779739,77.027718 45.020779,77.297470 
	C46.830048,78.060463 48.398273,78.553703 50.202179,79.323860 
	C51.633175,79.768608 52.828491,79.936447 54.023804,80.104279 
z"/>
<path fill="#FEC801" opacity="1.000000" stroke="none" 
	d="
M44.097755,84.510635 
	C45.395477,84.134827 46.787983,84.088905 48.593826,84.112015 
	C49.007168,84.181046 49.003437,84.590057 49.001976,84.794556 
	C47.397854,84.946205 45.795197,84.893364 44.097755,84.510635 
z"/>
<path fill="#FEE205" opacity="1.000000" stroke="none" 
	d="
M60.164261,24.006432 
	C61.182236,24.631174 62.200214,25.255917 63.646988,26.257965 
	C65.336113,26.742268 66.596443,26.849264 67.856766,26.956264 
	C69.167770,27.716097 70.478767,28.475929 71.566414,29.725159 
	C70.687660,30.671083 70.032272,31.127611 69.376877,31.584137 
	C69.856758,31.519430 70.336639,31.454723 70.816513,31.390015 
	C72.842873,38.067696 75.408218,44.649750 76.618668,51.472191 
	C77.074837,54.043255 74.393631,57.170956 73.078987,59.598839 
	C72.639252,55.785255 72.263176,52.417740 71.901932,48.750130 
	C71.631134,47.952663 71.345512,47.455292 71.000870,46.609756 
	C69.309296,43.840309 67.676758,41.419025 65.933151,38.780884 
	C65.623871,38.294952 65.368507,38.101212 64.887436,37.673061 
	C61.834343,36.229866 58.949810,35.096416 55.923569,33.693680 
	C54.959713,32.524029 54.137558,31.623659 53.198204,30.414433 
	C52.273869,29.117769 51.466732,28.129967 50.458740,26.941601 
	C50.073036,26.207100 49.888191,25.673162 49.703346,25.139225 
	C52.141159,24.759737 54.578968,24.380247 57.515289,24.347858 
	C58.394825,25.088148 58.775852,25.481337 59.156883,25.874527 
	C59.492672,25.251827 59.828465,24.629129 60.164261,24.006432 
z"/>
<path fill="#FEDD02" opacity="1.000000" stroke="none" 
	d="
M73.142647,60.044907 
	C74.393631,57.170956 77.074837,54.043255 76.618668,51.472191 
	C75.408218,44.649750 72.842873,38.067696 70.816513,31.390015 
	C70.336639,31.454723 69.856758,31.519430 69.376877,31.584137 
	C70.032272,31.127611 70.687660,30.671083 71.624298,30.048801 
	C71.905540,29.883047 72.358215,29.970715 72.587517,29.983679 
	C73.297493,29.998779 73.778175,30.000914 74.616867,29.962309 
	C75.682228,33.014431 75.857437,36.360332 77.187363,39.157139 
	C83.556862,52.552040 78.474487,69.199112 65.481628,76.180305 
	C64.000526,76.976105 62.136665,77.059532 60.372776,76.936920 
	C61.490471,74.586113 62.685673,72.771675 64.027588,70.665054 
	C65.464096,69.309990 66.753906,68.247101 68.301971,67.051605 
	C68.773689,66.603188 68.987137,66.287369 69.414215,65.869522 
	C69.882217,65.500969 69.932198,65.200180 69.962097,64.588524 
	C71.043961,62.855877 71.941505,61.399841 72.920761,59.951622 
	C73.002472,59.959435 73.142647,60.044907 73.142647,60.044907 
z"/>
<path fill="#EA3A42" opacity="1.000000" stroke="none" 
	d="
M67.836891,26.662579 
	C66.596443,26.849264 65.336113,26.742268 63.945026,26.329283 
	C64.644630,25.614038 65.475006,25.204784 66.668991,24.791668 
	C67.294083,25.314837 67.555550,25.841866 67.836891,26.662579 
z"/>
<path fill="#FBD6BD" opacity="1.000000" stroke="none" 
	d="
M49.500957,25.037201 
	C49.888191,25.673162 50.073036,26.207100 50.550446,27.291878 
	C51.006561,28.545837 51.170113,29.248955 51.005909,29.959427 
	C50.461288,29.968904 50.244423,29.971025 49.896317,29.699345 
	C49.197948,28.604189 48.630829,27.782835 47.919640,26.865675 
	C47.775574,26.769867 47.450954,26.650723 47.409904,26.364887 
	C47.271606,25.707106 47.174362,25.335159 47.179924,24.806578 
	C47.282726,24.649942 47.361897,24.283684 47.536507,24.261618 
	C47.711121,24.239552 48.025162,24.080530 48.224892,24.105354 
	C48.424622,24.130178 48.825130,24.170431 48.825130,24.170431 
	C48.915306,24.467222 49.073116,24.722137 49.500957,25.037201 
z"/>
<path fill="#EB3843" opacity="1.000000" stroke="none" 
	d="
M59.998940,23.780888 
	C59.828465,24.629129 59.492672,25.251827 59.156883,25.874527 
	C58.775852,25.481337 58.394825,25.088148 57.937683,24.350006 
	C58.068562,23.690674 58.275555,23.376293 58.739357,22.938103 
	C59.275322,23.061306 59.554474,23.308325 59.998940,23.780888 
z"/>
<path fill="#F7A53E" opacity="1.000000" stroke="none" 
	d="
M48.025162,24.080530 
	C48.025162,24.080530 47.711121,24.239552 47.382927,23.958130 
	C46.708485,23.104992 46.362240,22.533276 46.015991,21.961559 
	C46.471985,21.658636 46.927982,21.355717 47.671165,21.032936 
	C47.958355,21.013077 47.993484,21.504684 48.002777,22.097889 
	C48.016434,23.154240 48.020798,23.617384 48.025162,24.080530 
z"/>
<path fill="#F6AB5B" opacity="1.000000" stroke="none" 
	d="
M48.224892,24.105354 
	C48.020798,23.617384 48.016434,23.154240 48.009537,22.344227 
	C48.307205,22.513294 48.607410,23.029228 48.866371,23.857796 
	C48.825130,24.170431 48.424622,24.130178 48.224892,24.105354 
z"/>
<path fill="#FDDD01" opacity="1.000000" stroke="none" 
	d="
M24.027636,63.055653 
	C23.825348,63.560490 23.623058,64.065323 23.276928,64.804840 
	C17.917368,52.657536 18.295635,41.144043 28.713860,31.326515 
	C29.031612,31.513075 29.136835,31.990381 29.060841,32.233330 
	C28.937029,32.639057 28.889212,32.801838 28.631462,33.082119 
	C28.144144,33.445408 28.079397,33.738140 28.162554,34.497734 
	C27.884598,39.530361 27.671377,44.143078 27.320822,49.048904 
	C27.181347,49.557796 27.179207,49.773579 27.120913,50.387856 
	C26.696020,52.591423 26.327280,54.396492 25.670879,56.330776 
	C25.246284,57.993015 25.109352,59.526039 24.891697,61.330116 
	C24.549858,62.085995 24.288746,62.570824 24.027636,63.055653 
z"/>
<path fill="#FEDF03" opacity="1.000000" stroke="none" 
	d="
M33.015392,28.871052 
	C34.753380,23.871548 39.692196,24.628782 43.721382,23.310131 
	C44.074596,23.505495 44.128029,23.965118 44.062523,24.189758 
	C43.997013,24.414398 43.972351,24.881741 43.712364,25.143116 
	C43.340576,26.612303 43.228779,27.820112 43.053532,29.357512 
	C42.912060,30.126207 42.834038,30.565313 42.395622,31.005239 
	C40.661064,31.347599 39.286900,31.689138 37.633076,31.998070 
	C36.989574,31.877758 36.625732,31.790054 36.162220,31.389042 
	C35.046829,30.340837 34.031109,29.605946 33.015392,28.871052 
z"/>
<path fill="#B2632B" opacity="1.000000" stroke="none" 
	d="
M43.972351,24.881741 
	C43.972351,24.881741 43.997013,24.414398 44.253567,24.066635 
	C44.727146,23.499537 44.887283,23.244476 44.990524,22.953691 
	C45.064510,22.607147 45.252102,22.340525 45.784645,22.057692 
	C46.362240,22.533276 46.708485,23.104992 47.208313,23.980196 
	C47.361897,24.283684 47.282726,24.649942 46.906784,25.065805 
	C46.356590,26.979755 46.182339,28.477842 45.886681,30.189707 
	C45.561726,30.670950 45.303799,30.866827 44.958107,30.684669 
	C44.893223,29.968451 44.861740,29.558674 44.881989,28.802109 
	C44.637764,27.641712 44.341805,26.828108 44.025230,25.731457 
	C43.993866,25.259523 43.983109,25.070633 43.972351,24.881741 
z"/>
<path fill="#F7AC3E" opacity="1.000000" stroke="none" 
	d="
M32.727787,28.926651 
	C34.031109,29.605946 35.046829,30.340837 35.973282,31.592297 
	C35.757195,32.240498 35.630371,32.372135 35.238213,32.391190 
	C34.394451,32.260365 33.816025,32.242119 33.177399,31.980219 
	C32.717560,31.484928 32.317917,31.233290 31.694080,30.983017 
	C31.469883,30.984383 31.021917,30.964602 31.031067,30.682388 
	C31.024250,30.212614 31.008280,30.025053 30.992308,29.837490 
	C31.474932,29.552410 31.957558,29.267328 32.727787,28.926651 
z"/>
<path fill="#914F26" opacity="1.000000" stroke="none" 
	d="
M44.778069,22.980871 
	C44.887283,23.244476 44.727146,23.499537 44.319077,23.841995 
	C44.128029,23.965118 44.074596,23.505495 44.106812,23.276394 
	C44.139030,23.047291 44.565609,23.008051 44.778069,22.980871 
z"/>
<path fill="#9B6433" opacity="1.000000" stroke="none" 
	d="
M30.760254,29.962658 
	C31.008280,30.025053 31.024250,30.212614 30.798904,30.722267 
	C30.557590,31.044355 30.093937,31.126354 30.061058,31.083002 
	C30.028179,31.039650 29.960079,30.954773 29.960079,30.954773 
	C30.149452,30.665791 30.338825,30.376808 30.760254,29.962658 
z"/>
<path fill="#9B6433" opacity="1.000000" stroke="none" 
	d="
M29.136835,31.990381 
	C29.136835,31.990381 29.031612,31.513075 29.056156,31.270298 
	C29.080702,31.027521 29.521399,30.994312 29.740738,30.974543 
	C29.960079,30.954773 30.028179,31.039650 29.926031,31.252419 
	C29.627115,31.682430 29.398100,31.857496 29.136835,31.990381 
z"/>
<path fill="#DD8513" opacity="1.000000" stroke="none" 
	d="
M63.880875,70.957230 
	C62.685673,72.771675 61.490471,74.586113 60.139877,76.689072 
	C59.246769,77.235977 58.509056,77.494377 57.104469,77.842255 
	C55.651459,77.857376 54.865322,77.783028 54.052856,77.426239 
	C53.617870,76.612564 53.209213,76.081322 52.800552,75.550072 
	C52.796562,76.246216 52.792572,76.942352 52.811985,77.728279 
	C52.835388,77.818062 52.971912,77.943756 52.656898,77.892975 
	C51.926281,77.741882 51.510685,77.641571 50.946110,77.372795 
	C50.561203,77.015953 50.319958,76.834648 49.989838,76.378677 
	C49.270653,75.731644 48.635029,75.366364 48.000256,74.998238 
	C48.001106,74.995399 48.011696,74.979309 48.003357,74.614166 
	C46.667469,72.548248 45.339924,70.847466 44.411995,69.141090 
	C51.168034,69.742737 57.524456,70.349983 63.880875,70.957230 
z"/>
<path fill="#7A5B44" opacity="1.000000" stroke="none" 
	d="
M54.283478,80.038467 
	C52.828491,79.936447 51.633175,79.768608 50.215202,79.301422 
	C49.992542,79.002068 50.020832,78.959633 50.393501,78.971069 
	C51.512623,78.985497 52.259075,78.988487 53.338997,78.998451 
	C54.116844,79.022324 54.561218,79.039223 55.010220,79.232635 
	C55.014843,79.409149 55.035641,79.761688 55.035641,79.761688 
	C54.871479,79.832008 54.707317,79.902336 54.283478,80.038467 
z"/>
<path fill="#995E29" opacity="1.000000" stroke="none" 
	d="
M55.005596,79.056129 
	C54.561218,79.039223 54.116844,79.022324 53.331707,78.736526 
	C52.984604,78.293007 52.978256,78.118378 52.971912,77.943756 
	C52.971912,77.943756 52.835388,77.818062 53.133453,77.797424 
	C53.647408,77.754089 53.863297,77.731384 54.079185,77.708679 
	C54.865322,77.783028 55.651459,77.857376 56.832848,77.968513 
	C56.993065,78.285805 56.758030,78.566307 56.011982,78.940079 
	C55.500965,79.033356 55.005596,79.056129 55.005596,79.056129 
z"/>
<path fill="#84542B" opacity="1.000000" stroke="none" 
	d="
M55.010220,79.232635 
	C55.005596,79.056129 55.500965,79.033356 55.748512,79.022888 
	C55.915054,79.315178 55.741905,79.549904 55.256123,79.739151 
	C55.035641,79.761688 55.014843,79.409149 55.010220,79.232635 
z"/>
<path fill="#935F31" opacity="1.000000" stroke="none" 
	d="
M25.958542,56.201561 
	C26.327280,54.396492 26.696020,52.591423 27.320335,50.237415 
	C27.749659,49.403790 27.923401,49.119102 28.368702,48.569733 
	C29.073189,45.245159 29.506117,42.185265 30.063492,38.891914 
	C30.458399,38.438713 30.728857,38.218975 31.241381,37.996674 
	C31.483448,37.994110 31.967567,37.987835 31.981739,38.376877 
	C32.579227,39.699299 33.162544,40.632687 33.671135,41.563778 
	C33.596409,41.561485 33.553864,41.418144 33.682770,41.812809 
	C33.878498,42.476074 33.945316,42.744678 34.012512,43.425552 
	C32.681412,49.571426 31.349937,55.305035 30.015518,61.479420 
	C30.036877,63.995483 30.061176,66.070770 30.085476,68.146065 
	C28.527559,67.364662 26.969643,66.583260 25.332504,65.174126 
	C24.868011,64.347084 24.482737,64.147781 24.097462,63.948475 
	C24.097462,63.948475 24.013046,63.506405 24.020340,63.281029 
	C24.288746,62.570824 24.549858,62.085995 25.177910,61.097630 
	C25.682745,59.129917 25.820644,57.665737 25.958542,56.201561 
z"/>
<path fill="#7F4D1B" opacity="1.000000" stroke="none" 
	d="
M30.347158,68.319214 
	C30.061176,66.070770 30.036877,63.995483 30.270756,61.721024 
	C31.329861,63.019394 32.130783,64.516937 32.935349,66.376221 
	C34.304020,68.488029 35.669044,70.238083 36.689148,71.992271 
	C35.884052,72.001976 35.423874,72.007553 34.963699,72.013138 
	C33.512081,70.839554 32.060459,69.665962 30.347158,68.319214 
z"/>
<path fill="#835B3F" opacity="1.000000" stroke="none" 
	d="
M44.007900,76.995651 
	C42.427032,75.864929 40.846165,74.734207 39.504997,73.302544 
	C40.509193,72.990746 41.273697,72.979881 42.028679,72.986023 
	C42.019157,73.003029 41.988213,72.983292 42.169098,73.223404 
	C42.910568,73.638901 43.471153,73.814270 44.018188,73.993454 
	C44.004635,73.997253 44.016605,73.966187 44.006973,74.345551 
	C44.000858,75.481834 44.004379,76.238739 44.007900,76.995651 
z"/>
<path fill="#7F4E1F" opacity="1.000000" stroke="none" 
	d="
M44.200825,77.004517 
	C44.004379,76.238739 44.000858,75.481834 44.350044,74.390976 
	C45.805737,74.364449 46.908718,74.671875 48.011696,74.979309 
	C48.011696,74.979309 48.001106,74.995399 48.021072,75.308884 
	C48.160625,76.019287 48.280216,76.416222 47.950943,76.865318 
	C46.594639,76.954231 45.687187,76.990974 44.779739,77.027710 
	C44.779739,77.027718 44.393749,77.013390 44.200825,77.004517 
z"/>
<path fill="#835B3F" opacity="1.000000" stroke="none" 
	d="
M45.020779,77.297470 
	C45.687187,76.990974 46.594639,76.954231 47.984001,76.881729 
	C48.465912,76.845963 48.499928,76.911461 48.559696,77.148338 
	C49.072514,77.559196 49.525558,77.733177 49.990776,78.170212 
	C50.008915,78.608719 50.014874,78.784180 50.020832,78.959633 
	C50.020832,78.959633 49.992542,79.002068 49.979523,79.024506 
	C48.398273,78.553703 46.830048,78.060463 45.020779,77.297470 
z"/>
<path fill="#92591B" opacity="1.000000" stroke="none" 
	d="
M42.038197,72.969009 
	C41.273697,72.979881 40.509193,72.990746 39.360390,73.007172 
	C38.976082,73.012741 38.492641,72.971687 38.242767,72.723251 
	C37.992897,72.474815 37.971283,72.079376 38.337502,72.044968 
	C39.815212,72.330040 40.926704,72.649521 42.038197,72.969009 
z"/>
<path fill="#80532E" opacity="1.000000" stroke="none" 
	d="
M37.971283,72.079376 
	C37.971283,72.079376 37.992897,72.474815 38.005730,72.671654 
	C37.139244,72.761337 36.259922,72.654182 35.172150,72.280075 
	C35.423874,72.007553 35.884052,72.001976 36.924168,72.006462 
	C37.504108,72.016525 37.971283,72.079376 37.971283,72.079376 
z"/>
<path fill="#2D2109" opacity="1.000000" stroke="none" 
	d="
M24.180313,64.138588 
	C24.482737,64.147781 24.868011,64.347084 25.251678,64.856987 
	C24.921106,64.887955 24.592136,64.608322 24.180313,64.138588 
z"/>
<path fill="#FDFDFD" opacity="1.000000" stroke="none" 
	d="
M71.887100,49.050232 
	C72.263176,52.417740 72.639252,55.785255 73.078987,59.598839 
	C73.142647,60.044907 73.002472,59.959435 72.586288,59.974335 
	C71.126961,60.344933 70.083824,60.700630 68.569786,61.036880 
	C60.203796,59.945698 52.806587,62.358925 45.000504,64.374825 
	C41.923832,62.315571 39.184185,60.150730 36.461967,57.976452 
	C36.479397,57.967014 36.486233,57.926983 36.622566,57.670425 
	C36.790596,56.172920 36.822300,54.931973 36.988514,53.475723 
	C37.424824,52.863945 37.726620,52.467472 38.393593,52.051682 
	C39.488083,52.066402 40.217392,52.100449 41.120407,52.435192 
	C45.349281,54.516682 48.877945,59.459007 54.313499,54.847519 
	C55.400585,54.557632 56.171177,54.271591 57.373451,53.911133 
	C58.078789,53.734787 58.352448,53.632858 58.825203,53.326843 
	C59.691547,53.343765 60.358803,53.564770 61.096428,54.199512 
	C61.409031,54.753258 61.651264,54.893265 61.973270,55.290234 
	C62.360588,55.653896 62.668137,55.760597 63.310913,56.020332 
	C64.770905,56.401337 65.895668,56.629307 67.370087,56.826546 
	C67.849762,56.365528 67.979782,55.935253 68.374222,55.648872 
	C69.028870,55.187733 69.419083,54.582695 69.897079,53.637924 
	C69.658676,52.598480 69.332497,51.898769 68.573547,51.121498 
	C67.300522,50.848545 66.460281,50.653145 65.824280,50.137592 
	C67.981392,49.561703 69.934242,49.305969 71.887100,49.050232 
z"/>
<path fill="#F6951D" opacity="1.000000" stroke="none" 
	d="
M71.901932,48.750134 
	C69.934242,49.305969 67.981392,49.561703 65.573280,50.232635 
	C64.595451,50.751251 64.072868,50.854675 63.468231,50.634541 
	C63.205421,50.181168 63.024677,50.051353 63.031311,49.655952 
	C62.479351,48.890942 61.740013,48.391518 61.046722,47.552864 
	C61.087887,45.443077 61.083004,43.672523 61.312042,41.774689 
	C62.027485,41.489185 62.509014,41.330963 63.048309,41.508766 
	C64.855392,44.952225 66.986389,47.465916 71.059891,46.957916 
	C71.345512,47.455292 71.631134,47.952663 71.901932,48.750134 
z"/>
<path fill="#F49A2A" opacity="1.000000" stroke="none" 
	d="
M71.000870,46.609756 
	C66.986389,47.465916 64.855392,44.952225 63.340973,41.352478 
	C63.730686,40.236820 63.885509,39.613472 64.374062,38.993317 
	C65.153267,38.996918 65.598740,38.997330 66.044212,38.997742 
	C67.676758,41.419025 69.309296,43.840309 71.000870,46.609756 
z"/>
<path fill="#F7A539" opacity="1.000000" stroke="none" 
	d="
M56.065273,33.962967 
	C58.949810,35.096416 61.834343,36.229866 64.504166,37.689156 
	C63.779667,38.040958 63.269878,38.066921 62.467098,38.117638 
	C61.784466,38.097149 61.394821,38.051899 60.950924,37.691444 
	C60.254486,36.931004 59.612297,36.485771 58.558701,36.030235 
	C57.310940,36.009449 56.474590,35.998970 55.605343,35.998680 
	C55.572441,36.008877 55.507668,36.032341 55.354362,35.782021 
	C55.136806,35.346859 55.072552,35.162022 55.137985,34.764191 
	C55.483368,34.287109 55.749237,34.091034 56.065273,33.962967 
z"/>
<path fill="#F7A942" opacity="1.000000" stroke="none" 
	d="
M55.923569,33.693680 
	C55.749237,34.091034 55.483368,34.287109 54.904144,34.637733 
	C54.319839,34.448174 54.099064,34.172081 53.767197,33.622276 
	C53.396389,32.606430 53.136681,31.864288 52.985298,31.021023 
	C53.093624,30.919897 53.315407,30.723289 53.315407,30.723289 
	C54.137558,31.623659 54.959713,32.524029 55.923569,33.693680 
z"/>
<path fill="#F7A942" opacity="1.000000" stroke="none" 
	d="
M51.333664,29.952072 
	C51.170113,29.248955 51.006561,28.545837 50.751305,27.492441 
	C51.466732,28.129967 52.273869,29.117769 53.198204,30.414433 
	C53.315407,30.723289 53.093624,30.919897 52.787746,30.984997 
	C52.481869,31.050098 52.082020,30.994827 52.005653,30.786976 
	C51.806244,30.298349 51.607704,30.089333 51.333664,29.952072 
z"/>
<path fill="#F69F2A" opacity="1.000000" stroke="none" 
	d="
M62.760086,38.092880 
	C63.269878,38.066921 63.779667,38.040958 64.672729,37.998901 
	C65.368507,38.101212 65.623871,38.294952 65.933151,38.780884 
	C65.598740,38.997330 65.153267,38.996918 64.118271,38.909721 
	C63.272522,38.579590 63.016304,38.336235 62.760086,38.092880 
z"/>
<path fill="#6D6D6F" opacity="1.000000" stroke="none" 
	d="
M36.444538,57.985889 
	C39.184185,60.150730 41.923832,62.315571 45.053230,64.702782 
	C52.972439,65.376801 60.501896,65.828453 67.994598,66.506683 
	C67.957840,66.733253 68.043709,67.184212 68.043709,67.184212 
	C66.753906,68.247101 65.464096,69.309990 64.027588,70.665054 
	C57.524456,70.349983 51.168034,69.742737 44.083298,69.002457 
	C39.043365,66.516632 34.832127,64.100105 36.444538,57.985889 
z"/>
<path fill="#E1E1E1" opacity="1.000000" stroke="none" 
	d="
M69.040688,61.056328 
	C70.083824,60.700630 71.126961,60.344933 72.504578,59.966522 
	C71.941505,61.399841 71.043961,62.855877 69.759903,64.569305 
	C69.373383,64.826691 68.970299,64.775085 68.968414,64.406502 
	C68.991257,63.044056 69.015976,62.050190 69.040688,61.056328 
z"/>
<path fill="#ABABAB" opacity="1.000000" stroke="none" 
	d="
M69.200584,65.971550 
	C68.987137,66.287369 68.773689,66.603188 68.301971,67.051605 
	C68.043709,67.184212 67.957840,66.733253 68.099686,66.305664 
	C68.484901,65.676247 68.701210,65.448669 68.962944,65.391418 
	C69.035439,65.587479 69.200584,65.971550 69.200584,65.971550 
z"/>
<path fill="#D3D3D3" opacity="1.000000" stroke="none" 
	d="
M68.970299,64.775085 
	C68.970299,64.775085 69.373383,64.826691 69.575584,64.845917 
	C69.932198,65.200180 69.882217,65.500969 69.414215,65.869522 
	C69.200584,65.971550 69.035439,65.587479 68.972374,65.287781 
	C68.909309,64.988083 68.970299,64.775085 68.970299,64.775085 
z"/>
<path fill="#EDB69B" opacity="1.000000" stroke="none" 
	d="
M48.063709,26.961483 
	C48.630829,27.782835 49.197948,28.604189 49.838036,30.124256 
	C49.868046,31.105423 49.825092,31.387875 49.507584,31.628645 
	C48.860485,31.587273 48.487942,31.587578 48.063885,31.196398 
	C47.944523,30.284765 47.876675,29.764622 47.876007,28.867224 
	C47.983364,27.980474 48.023537,27.470980 48.063709,26.961483 
z"/>
<path fill="#9F571C" opacity="1.000000" stroke="none" 
	d="
M46.008083,29.975929 
	C46.182339,28.477842 46.356590,26.979755 46.803986,25.222441 
	C47.174362,25.335159 47.271606,25.707106 47.270851,26.750454 
	C47.124668,27.963711 47.076485,28.505562 46.898773,29.243008 
	C46.564125,29.686541 46.310402,29.865650 46.008083,29.975929 
z"/>
<path fill="#F9C5A9" opacity="1.000000" stroke="none" 
	d="
M49.782139,31.670324 
	C49.825092,31.387875 49.868046,31.105423 49.969280,30.398060 
	C50.244423,29.971025 50.461288,29.968904 51.005909,29.959427 
	C51.607704,30.089333 51.806244,30.298349 51.798744,31.049133 
	C51.304096,31.773008 50.939980,32.026871 50.472542,32.141949 
	C50.214146,31.820593 50.018452,31.709646 49.782139,31.670324 
z"/>
<path fill="#B9886C" opacity="1.000000" stroke="none" 
	d="
M47.028305,29.047415 
	C47.076485,28.505562 47.124668,27.963711 47.311905,27.036289 
	C47.450954,26.650723 47.775574,26.769867 47.919640,26.865675 
	C48.023537,27.470980 47.983364,27.980474 47.682724,28.810610 
	C47.422256,29.131248 47.028305,29.047415 47.028305,29.047415 
z"/>
<path fill="#34250B" opacity="1.000000" stroke="none" 
	d="
M29.939045,39.125374 
	C29.506117,42.185265 29.073189,45.245159 28.214615,48.502296 
	C27.788969,48.699543 27.458157,48.755795 27.458157,48.755795 
	C27.671377,44.143078 27.884598,39.530361 28.373350,34.766762 
	C29.078938,36.119045 29.508991,37.622211 29.939045,39.125374 
z"/>
<path fill="#9B6433" opacity="1.000000" stroke="none" 
	d="
M30.063492,38.891914 
	C29.508991,37.622211 29.078938,36.119045 28.438087,34.346851 
	C28.079397,33.738140 28.144144,33.445408 29.003632,33.170639 
	C30.056927,34.760845 30.528120,36.380043 30.999313,37.999237 
	C30.728857,38.218975 30.458399,38.438713 30.063492,38.891914 
z"/>
<path fill="#8A5829" opacity="1.000000" stroke="none" 
	d="
M31.241381,37.996674 
	C30.528120,36.380043 30.056927,34.760845 29.213564,33.053131 
	C28.889212,32.801838 28.937029,32.639057 29.060841,32.233330 
	C29.398100,31.857496 29.627115,31.682430 29.958910,31.295769 
	C30.093937,31.126354 30.557590,31.044355 30.789753,31.004478 
	C31.021917,30.964602 31.469883,30.984383 31.701866,31.328531 
	C31.948696,32.132042 31.963541,32.591404 31.983509,33.461483 
	C31.981609,35.244080 31.974588,36.615955 31.967567,37.987835 
	C31.967567,37.987835 31.483448,37.994110 31.241381,37.996674 
z"/>
<path fill="#3A260D" opacity="1.000000" stroke="none" 
	d="
M25.670879,56.330776 
	C25.820644,57.665737 25.682745,59.129917 25.258635,60.826576 
	C25.109352,59.526039 25.246284,57.993015 25.670879,56.330776 
z"/>
<path fill="#927B09" opacity="1.000000" stroke="none" 
	d="
M27.320822,49.048904 
	C27.458157,48.755795 27.788969,48.699543 27.943056,48.766979 
	C27.923401,49.119102 27.749659,49.403790 27.376492,49.838921 
	C27.179207,49.773579 27.181347,49.557796 27.320822,49.048904 
z"/>
<path fill="#FEE60A" opacity="1.000000" stroke="none" 
	d="
M37.912739,32.030678 
	C39.286900,31.689138 40.661064,31.347599 42.458771,31.401896 
	C42.882137,32.869141 42.881958,33.940552 42.627701,35.096909 
	C41.905952,35.442574 41.438282,35.703289 40.739464,35.952515 
	C40.508308,35.941017 40.044846,35.936783 39.930725,35.729843 
	C39.624603,35.262341 39.378872,35.070675 39.042564,34.660400 
	C38.674995,33.921276 38.344261,33.469646 37.994328,32.770569 
	C37.975128,32.523121 37.912739,32.030678 37.912739,32.030678 
z"/>
<path fill="#643B13" opacity="1.000000" stroke="none" 
	d="
M42.881779,35.011959 
	C42.881958,33.940552 42.882137,32.869141 42.819168,31.401075 
	C42.834038,30.565313 42.912060,30.126207 43.271492,29.343887 
	C43.552898,29.000671 43.989498,28.987541 44.200203,29.025202 
	C44.410912,29.062862 44.830261,29.148899 44.830261,29.148899 
	C44.861740,29.558674 44.893223,29.968451 44.946465,31.015190 
	C45.266407,32.695244 45.564587,33.738331 45.633587,34.807140 
	C45.404408,34.832863 44.944778,34.886898 44.658607,34.876167 
	C43.991482,34.873226 43.610535,34.881012 43.127647,34.877274 
	C43.025711,34.865742 42.881779,35.011959 42.881779,35.011959 
z"/>
<path fill="#7A5C0D" opacity="1.000000" stroke="none" 
	d="
M43.989498,28.987541 
	C43.989498,28.987541 43.552898,29.000671 43.334938,29.014297 
	C43.228779,27.820112 43.340576,26.612303 43.712364,25.143116 
	C43.983109,25.070633 43.993866,25.259523 44.009384,26.102619 
	C44.005936,27.500397 43.997715,28.243969 43.989498,28.987541 
z"/>
<path fill="#F7AC3E" opacity="1.000000" stroke="none" 
	d="
M37.633076,31.998070 
	C37.912739,32.030678 37.975128,32.523121 37.784046,32.897079 
	C37.409901,33.714088 37.226841,34.157139 36.853333,34.548660 
	C36.448578,34.339466 36.247475,34.166451 36.005573,33.718044 
	C35.802238,33.139919 35.652897,32.821846 35.503555,32.503773 
	C35.630371,32.372135 35.757195,32.240498 36.072956,31.905605 
	C36.625732,31.790054 36.989574,31.877758 37.633076,31.998070 
z"/>
<path fill="#BA5922" opacity="1.000000" stroke="none" 
	d="
M45.862770,34.781418 
	C45.564587,33.738331 45.266407,32.695244 44.979866,31.321634 
	C45.303799,30.866827 45.561726,30.670950 45.886681,30.189707 
	C46.310402,29.865650 46.564125,29.686541 46.898773,29.243008 
	C47.028305,29.047415 47.422256,29.131248 47.615540,29.187862 
	C47.876675,29.764622 47.944523,30.284765 48.051857,31.200775 
	C48.091343,31.596638 48.097782,31.628937 48.188412,31.908726 
	C48.350018,32.371292 48.420990,32.554066 48.450493,32.986858 
	C48.353287,33.396385 48.297554,33.555885 47.963654,33.890915 
	C47.121948,34.378147 46.558407,34.689854 45.959435,34.947968 
	C45.924011,34.894375 45.862770,34.781418 45.862770,34.781418 
z"/>
<path fill="#914F26" opacity="1.000000" stroke="none" 
	d="
M44.200203,29.025202 
	C43.997715,28.243969 44.005936,27.500397 44.029999,26.385664 
	C44.341805,26.828108 44.637764,27.641712 44.881989,28.802109 
	C44.830261,29.148899 44.410912,29.062862 44.200203,29.025202 
z"/>
<path fill="#FAD2B6" opacity="1.000000" stroke="none" 
	d="
M35.238216,32.391190 
	C35.652897,32.821846 35.802238,33.139919 35.774963,33.847969 
	C35.384621,34.513824 35.170895,34.789700 34.727867,35.033787 
	C34.498566,35.001999 34.037777,34.956970 33.924931,34.756813 
	C33.632023,34.296700 33.395840,34.106388 33.012421,33.726036 
	C32.900143,33.284107 32.878979,33.101864 32.969986,32.755085 
	C33.082153,32.590549 33.237598,32.223873 33.237598,32.223869 
	C33.816025,32.242119 34.394451,32.260365 35.238216,32.391190 
z"/>
<path fill="#F49A2A" opacity="1.000000" stroke="none" 
	d="
M33.177399,31.980221 
	C33.237598,32.223873 33.082153,32.590549 32.749950,32.787224 
	C32.417747,32.983898 31.978384,33.050766 31.978384,33.050766 
	C31.963541,32.591404 31.948696,32.132042 31.926064,31.327164 
	C32.317917,31.233290 32.717560,31.484928 33.177399,31.980221 
z"/>
<path fill="#D27E11" opacity="1.000000" stroke="none" 
	d="
M36.461967,57.976452 
	C34.832127,64.100105 39.043365,66.516632 43.683678,69.008057 
	C45.339924,70.847466 46.667469,72.548248 48.003357,74.614166 
	C46.908718,74.671875 45.805737,74.364449 44.359680,74.011604 
	C44.016605,73.966187 44.004635,73.997253 43.839760,73.752548 
	C43.112659,73.332985 42.550438,73.158134 41.988213,72.983292 
	C41.988213,72.983292 42.019157,73.003029 42.028679,72.986023 
	C40.926704,72.649521 39.815212,72.330040 38.337502,72.044968 
	C37.971283,72.079376 37.504108,72.016525 37.269089,72.002335 
	C35.669044,70.238083 34.304020,68.488029 33.194214,66.150360 
	C34.038235,62.813187 34.627033,60.063622 35.337021,57.493446 
	C35.800888,57.757553 36.143562,57.842266 36.486233,57.926979 
	C36.486233,57.926983 36.479397,57.967014 36.461967,57.976452 
z"/>
<path fill="#CD7B13" opacity="1.000000" stroke="none" 
	d="
M54.052856,77.426247 
	C53.863297,77.731384 53.647408,77.754089 53.110050,77.707642 
	C52.792572,76.942352 52.796562,76.246216 52.800552,75.550072 
	C53.209213,76.081322 53.617870,76.612564 54.052856,77.426247 
z"/>
<path fill="#CD7B13" opacity="1.000000" stroke="none" 
	d="
M48.432858,76.829559 
	C48.280216,76.416222 48.160625,76.019287 48.020222,75.311722 
	C48.635029,75.366364 49.270653,75.731644 49.730175,76.453217 
	C49.202690,76.843491 48.851307,76.877480 48.499928,76.911461 
	C48.499928,76.911461 48.465912,76.845963 48.432858,76.829559 
z"/>
<path fill="#B76E16" opacity="1.000000" stroke="none" 
	d="
M48.559696,77.148338 
	C48.851307,76.877480 49.202690,76.843491 49.813732,76.734962 
	C50.319958,76.834648 50.561203,77.015953 50.676888,77.494232 
	C50.363964,77.825142 50.171284,77.866142 49.978607,77.907150 
	C49.525558,77.733177 49.072514,77.559196 48.559696,77.148338 
z"/>
<path fill="#84542B" opacity="1.000000" stroke="none" 
	d="
M49.990780,78.170212 
	C50.171284,77.866142 50.363964,77.825142 50.825867,77.662697 
	C51.510685,77.641571 51.926281,77.741882 52.656898,77.892975 
	C52.978256,78.118378 52.984604,78.293007 52.998238,78.729568 
	C52.259075,78.988487 51.512623,78.985497 50.393501,78.971069 
	C50.014874,78.784180 50.008915,78.608719 49.990780,78.170212 
z"/>
<path fill="#AA6616" opacity="1.000000" stroke="none" 
	d="
M35.215832,57.314056 
	C34.627033,60.063622 34.038235,62.813187 33.190571,65.788612 
	C32.130783,64.516937 31.329861,63.019394 30.273699,61.280251 
	C31.349937,55.305035 32.681412,49.571426 34.381828,43.427704 
	C35.489861,42.990555 36.228962,42.963512 36.836243,43.297859 
	C36.525650,45.427227 36.346878,47.195198 36.134235,49.300545 
	C36.075634,50.089314 36.050903,50.540703 35.759979,51.239723 
	C35.397621,52.931431 35.301456,54.375515 35.253643,56.192886 
	C35.273270,56.815472 35.244553,57.064762 35.215832,57.314056 
z"/>
<path fill="#7D5A42" opacity="1.000000" stroke="none" 
	d="
M31.983509,33.461483 
	C31.978384,33.050766 32.417747,32.983898 32.637779,32.951759 
	C32.878979,33.101864 32.900143,33.284107 32.977776,34.001549 
	C33.098938,34.710102 33.163635,34.883461 33.196625,35.263374 
	C33.164917,35.469921 33.303848,35.864094 33.224442,36.283920 
	C33.279331,37.830795 33.413620,38.957840 33.600830,40.276333 
	C33.653748,40.467777 33.564217,40.854801 33.648895,41.022591 
	C33.733570,41.190380 33.745857,41.566071 33.745857,41.566071 
	C33.162544,40.632687 32.579227,39.699299 31.981739,38.376877 
	C31.974588,36.615955 31.981609,35.244080 31.983509,33.461483 
z"/>
<path fill="#906D59" opacity="1.000000" stroke="none" 
	d="
M36.968060,42.936470 
	C36.228962,42.963512 35.489861,42.990555 34.381451,43.015442 
	C33.945316,42.744678 33.878498,42.476074 33.585121,41.696106 
	C33.358562,41.184742 33.539982,40.921333 33.824791,41.141769 
	C35.252026,41.529812 36.394447,41.697418 37.400291,42.135872 
	C37.165161,42.583305 37.066612,42.759888 36.968060,42.936470 
z"/>
<path fill="#F1BA9C" opacity="1.000000" stroke="none" 
	d="
M33.671135,41.563778 
	C33.745857,41.566071 33.733570,41.190380 33.632504,41.036636 
	C33.531437,40.882893 33.514023,40.913162 33.527435,40.926922 
	C33.540852,40.940681 33.539982,40.921333 33.539982,40.921333 
	C33.539982,40.921333 33.358562,41.184742 33.456215,41.301445 
	C33.553864,41.418144 33.596409,41.561485 33.671135,41.563778 
z"/>
<path fill="#7F4E1F" opacity="1.000000" stroke="none" 
	d="
M42.169098,73.223404 
	C42.550438,73.158134 43.112659,73.332985 43.853310,73.748741 
	C43.471153,73.814270 42.910568,73.638901 42.169098,73.223404 
z"/>
<path fill="#F0911C" opacity="1.000000" stroke="none" 
	d="
M61.078125,41.901974 
	C61.083004,43.672523 61.087887,45.443077 60.756790,47.799782 
	C60.987061,48.955502 61.553310,49.525066 62.037079,50.329975 
	C61.954590,50.565319 61.877728,51.058121 61.552849,51.240730 
	C61.147652,51.658459 61.067329,51.893574 60.988297,52.065834 
	C60.989582,52.002987 61.115295,52.004612 60.673676,52.093605 
	C60.100750,52.544628 59.969440,52.906654 59.838135,53.268684 
	C60.218071,53.363628 60.598011,53.458576 61.028748,53.583473 
	C61.079548,53.613430 61.026054,53.785778 61.026054,53.785778 
	C60.358803,53.564770 59.691547,53.343765 58.618980,53.137936 
	C57.789703,53.430592 57.365738,53.708076 56.941772,53.985558 
	C56.171177,54.271591 55.400585,54.557632 54.233963,54.553703 
	C52.484924,54.155632 51.098774,54.197117 49.786247,53.906307 
	C47.498447,53.399410 44.766052,53.262032 44.975281,49.574707 
	C45.024910,49.350803 45.164768,48.913544 45.463257,48.735779 
	C46.138969,47.049294 46.516197,45.540573 47.320976,44.024139 
	C51.613827,42.934219 55.479126,41.852009 59.597572,40.840641 
	C60.259857,41.241646 60.668991,41.571812 61.078125,41.901974 
M50.746521,51.982380 
	C51.327194,51.921806 51.907864,51.861237 52.488541,51.800663 
	C52.326900,51.481697 52.165260,51.162731 51.889984,50.304527 
	C51.221203,50.492626 50.552418,50.680721 49.326874,50.950848 
	C48.910675,51.120537 48.494476,51.290230 48.078278,51.459927 
	C48.759590,51.623478 49.440903,51.787029 50.746521,51.982380 
z"/>
<path fill="#EEEEEE" opacity="1.000000" stroke="none" 
	d="
M68.968414,64.406502 
	C68.970299,64.775085 68.909309,64.988083 68.899879,65.091721 
	C68.701210,65.448669 68.484901,65.676247 68.136444,66.079086 
	C60.501896,65.828453 52.972439,65.376801 45.390259,64.597191 
	C52.806587,62.358925 60.203796,59.945698 68.569786,61.036880 
	C69.015976,62.050190 68.991257,63.044056 68.968414,64.406502 
z"/>
<path fill="#201F1D" opacity="1.000000" stroke="none" 
	d="
M61.096428,54.199512 
	C61.026054,53.785778 61.079548,53.613430 61.184258,53.206993 
	C61.231079,52.535240 61.173187,52.269928 61.115295,52.004612 
	C61.115295,52.004612 60.989582,52.002987 61.228043,52.275040 
	C61.666649,52.477257 61.866798,52.407417 62.220718,52.399101 
	C62.556606,52.224827 62.738716,51.989037 62.905365,51.566021 
	C62.889908,51.378792 62.867573,51.003723 63.042503,51.055939 
	C63.217434,51.108150 63.550293,50.958096 63.550293,50.958096 
	C64.072868,50.854675 64.595451,50.751251 65.369034,50.552788 
	C66.460281,50.653145 67.300522,50.848545 68.582283,51.423092 
	C69.285629,52.527382 69.547462,53.252522 69.809296,53.977657 
	C69.419083,54.582695 69.028870,55.187733 68.251999,55.917904 
	C67.583702,56.314449 67.302063,56.585865 67.020432,56.857277 
	C65.895668,56.629307 64.770905,56.401337 63.175842,55.829857 
	C62.464523,55.282169 62.193840,55.131142 61.893497,55.033272 
	C61.651264,54.893265 61.409031,54.753258 61.096428,54.199512 
z"/>
<path fill="#EC8C17" opacity="1.000000" stroke="none" 
	d="
M44.925655,49.798607 
	C44.766052,53.262032 47.498447,53.399410 49.786247,53.906307 
	C51.098774,54.197117 52.484924,54.155632 53.917473,54.557556 
	C48.877945,59.459007 45.349281,54.516682 41.191071,52.091957 
	C41.779057,50.905876 42.470081,50.363731 43.456284,49.845558 
	C44.142860,49.845886 44.534256,49.822247 44.925655,49.798607 
z"/>
<path fill="#E98D1D" opacity="1.000000" stroke="none" 
	d="
M43.161102,49.821587 
	C42.470081,50.363731 41.779057,50.905876 41.017368,51.791260 
	C40.217392,52.100449 39.488083,52.066402 38.215675,51.811569 
	C37.123775,51.391216 36.574974,51.191658 36.026176,50.992096 
	C36.050903,50.540703 36.075634,50.089314 36.433712,49.095505 
	C37.192284,46.335506 37.617512,44.117924 38.250595,41.775436 
	C38.458454,41.650532 38.935436,41.553539 39.052574,41.904934 
	C40.211025,43.548054 41.252342,44.839779 42.287052,46.458794 
	C42.574001,47.797916 42.867550,48.809750 43.161102,49.821587 
z"/>
<path fill="#D58013" opacity="1.000000" stroke="none" 
	d="
M35.759979,51.239723 
	C36.574974,51.191658 37.123775,51.391216 37.850498,51.830887 
	C37.726620,52.467472 37.424824,52.863945 36.736954,53.612617 
	C35.969017,54.583076 35.587154,55.201336 35.205296,55.819595 
	C35.301456,54.375515 35.397621,52.931431 35.759979,51.239723 
z"/>
<path fill="#C5C9CE" opacity="1.000000" stroke="none" 
	d="
M35.253643,56.192886 
	C35.587154,55.201336 35.969017,54.583076 36.602440,53.827923 
	C36.822300,54.931973 36.790596,56.172920 36.622566,57.670422 
	C36.143562,57.842266 35.800888,57.757553 35.337021,57.493446 
	C35.244553,57.064762 35.273270,56.815472 35.253643,56.192886 
z"/>
<path fill="#191816" opacity="1.000000" stroke="none" 
	d="
M69.897072,53.637924 
	C69.547462,53.252522 69.285629,52.527382 69.015060,51.500648 
	C69.332497,51.898769 69.658676,52.598480 69.897072,53.637924 
z"/>
<path fill="#0F0F0D" opacity="1.000000" stroke="none" 
	d="
M67.370087,56.826542 
	C67.302063,56.585865 67.583702,56.314449 67.987564,55.774006 
	C67.979782,55.935253 67.849762,56.365528 67.370087,56.826542 
z"/>
<path fill="#121110" opacity="1.000000" stroke="none" 
	d="
M61.973270,55.290234 
	C62.193840,55.131142 62.464523,55.282169 62.840611,55.676826 
	C62.668137,55.760597 62.360588,55.653896 61.973270,55.290234 
z"/>
<path fill="#EFF0F1" opacity="1.000000" stroke="none" 
	d="
M57.373451,53.911137 
	C57.365738,53.708076 57.789703,53.430592 58.419891,53.342018 
	C58.352448,53.632858 58.078789,53.734787 57.373451,53.911137 
z"/>
<path fill="#FBFCFB" opacity="1.000000" stroke="none" 
	d="
M61.312042,41.774689 
	C60.668991,41.571812 60.259857,41.241646 59.589256,40.614502 
	C59.327793,40.317524 59.082691,39.937206 59.177536,39.792095 
	C59.272381,39.646984 59.261402,39.300442 59.510220,39.189003 
	C60.174416,38.720592 60.589798,38.363625 61.005177,38.006653 
	C61.394821,38.051899 61.784466,38.097149 62.467098,38.117641 
	C63.016304,38.336235 63.272522,38.579590 63.784534,38.906532 
	C63.885509,39.613472 63.730686,40.236820 63.283203,41.016457 
	C62.509014,41.330963 62.027485,41.489185 61.312042,41.774689 
z"/>
<path fill="#050202" opacity="1.000000" stroke="none" 
	d="
M62.119564,50.094631 
	C61.553310,49.525066 60.987061,48.955502 60.710739,48.139015 
	C61.740013,48.391518 62.479351,48.890942 62.907150,49.673866 
	C62.595612,49.957367 62.119564,50.094631 62.119564,50.094631 
z"/>
<path fill="#E7E7E5" opacity="1.000000" stroke="none" 
	d="
M62.037079,50.329975 
	C62.119564,50.094631 62.595612,49.957367 62.719772,49.939453 
	C63.024677,50.051353 63.205421,50.181168 63.468231,50.634541 
	C63.550293,50.958096 63.217434,51.108150 62.876953,51.083344 
	C62.316872,51.080608 62.097290,51.080467 61.877728,51.058121 
	C61.877728,51.058121 61.954590,50.565319 62.037079,50.329975 
z"/>
<path fill="#F59B3B" opacity="1.000000" stroke="none" 
	d="
M59.261402,39.300442 
	C59.261402,39.300442 59.272381,39.646984 58.769070,39.813286 
	C56.198277,39.664055 54.130798,39.348518 52.043877,38.653877 
	C51.991646,37.767326 51.958858,37.259884 51.926086,36.444550 
	C51.975082,35.728943 52.024059,35.321220 52.382767,35.121990 
	C53.630886,35.564434 54.569275,35.798386 55.507668,36.032341 
	C55.507668,36.032341 55.572441,36.008877 55.762085,36.326195 
	C56.967571,37.087387 57.983414,37.531261 59.046055,38.310165 
	C59.149036,38.863617 59.205219,39.082031 59.261402,39.300442 
z"/>
<path fill="#F9BA72" opacity="1.000000" stroke="none" 
	d="
M58.999260,37.975132 
	C57.983414,37.531261 56.967571,37.087387 55.794983,36.316002 
	C56.474590,35.998970 57.310940,36.009449 58.567863,36.352303 
	C58.992043,37.114830 58.995651,37.544983 58.999260,37.975132 
z"/>
<path fill="#F6AB5B" opacity="1.000000" stroke="none" 
	d="
M59.046055,38.310165 
	C58.995651,37.544983 58.992043,37.114830 58.979275,36.362610 
	C59.612297,36.485771 60.254486,36.931004 60.950924,37.691444 
	C60.589798,38.363625 60.174416,38.720592 59.510220,39.189003 
	C59.205219,39.082031 59.149036,38.863617 59.046055,38.310165 
z"/>
<path fill="#FDD8A4" opacity="1.000000" stroke="none" 
	d="
M55.354362,35.782021 
	C54.569275,35.798386 53.630886,35.564434 52.354614,35.132069 
	C52.016735,34.933659 52.024273,34.991722 52.030670,34.744911 
	C52.037064,34.498096 51.854240,34.039398 51.932632,34.052948 
	C52.011024,34.066502 52.168610,34.044521 52.454056,34.017448 
	C53.119095,33.958912 53.498692,33.927448 53.878288,33.895985 
	C54.099064,34.172081 54.319839,34.448174 54.774460,34.850723 
	C55.072552,35.162022 55.136806,35.346859 55.354362,35.782021 
z"/>
<path fill="#DBAA8F" opacity="1.000000" stroke="none" 
	d="
M53.767197,33.622276 
	C53.498692,33.927448 53.119095,33.958912 52.258831,33.792824 
	C51.377399,33.157089 50.976635,32.718910 50.575867,32.280731 
	C50.939980,32.026871 51.304096,31.773008 51.875114,31.256987 
	C52.082020,30.994827 52.481869,31.050098 52.679420,31.086124 
	C53.136681,31.864288 53.396389,32.606430 53.767197,33.622276 
z"/>
<path fill="#DF841A" opacity="1.000000" stroke="none" 
	d="
M50.472542,32.141949 
	C50.976635,32.718910 51.377399,33.157089 51.973389,33.819897 
	C52.168610,34.044521 52.011024,34.066502 51.807549,34.161156 
	C51.744141,34.501110 51.884205,34.746418 52.024273,34.991722 
	C52.024273,34.991722 52.016735,34.933659 52.044888,34.923580 
	C52.024059,35.321220 51.975082,35.728943 51.699913,36.521076 
	C51.473724,36.905491 51.006058,36.998875 50.673042,36.996181 
	C49.564499,36.672523 48.788971,36.351555 48.293819,35.963585 
	C48.463402,35.169518 48.352608,34.442455 48.241814,33.715389 
	C48.297554,33.555885 48.353287,33.396385 48.557999,32.849617 
	C48.503910,32.184547 48.300846,31.906744 48.097782,31.628937 
	C48.097782,31.628937 48.091343,31.596638 48.103371,31.592262 
	C48.487942,31.587578 48.860485,31.587273 49.507584,31.628645 
	C50.018452,31.709646 50.214146,31.820593 50.472542,32.141949 
z"/>
<path fill="#EE8E3B" opacity="1.000000" stroke="none" 
	d="
M40.970615,35.964008 
	C41.438282,35.703289 41.905952,35.442574 42.627701,35.096909 
	C42.881779,35.011959 43.025711,34.865742 43.182415,35.090172 
	C43.509361,35.560963 43.724743,35.758007 43.984543,36.268105 
	C43.643246,37.758671 43.302666,38.886868 42.642036,39.992760 
	C41.552464,39.592255 40.782944,39.214043 40.019947,38.641434 
	C40.026474,38.447029 40.043106,38.058357 40.268368,37.861038 
	C40.652622,37.097149 40.811619,36.530579 40.970615,35.964008 
z"/>
<path fill="#F69F2A" opacity="1.000000" stroke="none" 
	d="
M37.043777,34.600185 
	C37.226841,34.157139 37.409901,33.714088 37.803246,33.144531 
	C38.344261,33.469646 38.674995,33.921276 38.698895,34.717354 
	C38.162746,35.095154 37.933430,35.128498 37.512367,35.052776 
	C37.320614,34.943714 37.043777,34.600185 37.043777,34.600185 
z"/>
<path fill="#EE8E3B" opacity="1.000000" stroke="none" 
	d="
M37.704117,35.161839 
	C37.933430,35.128498 38.162746,35.095154 38.735733,35.004852 
	C39.378872,35.070675 39.624603,35.262341 39.848419,36.078140 
	C39.825668,36.865227 39.771095,37.097076 39.516983,37.241043 
	C39.051216,37.023903 38.770260,36.953133 38.331009,36.650570 
	C38.026337,35.960804 37.865227,35.561321 37.704117,35.161839 
z"/>
<path fill="#F69F2A" opacity="1.000000" stroke="none" 
	d="
M39.716526,37.328926 
	C39.771095,37.097076 39.825668,36.865227 39.962540,36.285080 
	C40.044846,35.936783 40.508308,35.941017 40.739464,35.952515 
	C40.811619,36.530579 40.652622,37.097149 40.177704,37.682243 
	C39.861774,37.700768 39.716526,37.328926 39.716526,37.328926 
z"/>
<path fill="#AF551A" opacity="1.000000" stroke="none" 
	d="
M43.985264,35.905731 
	C43.724743,35.758007 43.509361,35.560963 43.284351,35.101700 
	C43.610535,34.881012 43.991482,34.873226 44.655319,35.083557 
	C44.938202,35.301678 44.924145,35.714607 44.691429,35.773163 
	C44.458710,35.831722 43.985264,35.905731 43.985264,35.905731 
z"/>
<path fill="#C16A1F" opacity="1.000000" stroke="none" 
	d="
M44.924145,35.714607 
	C44.924145,35.714607 44.938202,35.301678 44.941490,35.094288 
	C44.944778,34.886898 45.404408,34.832863 45.633591,34.807140 
	C45.862770,34.781418 45.924011,34.894375 45.981667,35.146027 
	C46.039322,35.397682 46.065186,35.795483 45.776554,35.819092 
	C45.299995,35.799999 45.112068,35.757305 44.924145,35.714607 
z"/>
<path fill="#FCD9C0" opacity="1.000000" stroke="none" 
	d="
M37.512367,35.052776 
	C37.865227,35.561321 38.026337,35.960804 37.975368,36.715637 
	C37.531910,37.133232 37.300522,37.195484 36.808392,37.090839 
	C36.017490,36.304485 35.487328,35.685028 34.957165,35.065575 
	C35.170895,34.789700 35.384621,34.513824 35.828957,34.108025 
	C36.247475,34.166451 36.448578,34.339466 36.853333,34.548660 
	C37.043777,34.600185 37.320614,34.943714 37.512367,35.052776 
z"/>
<path fill="#AF551A" opacity="1.000000" stroke="none" 
	d="
M46.065186,35.795479 
	C46.065186,35.795483 46.039322,35.397682 46.017090,35.199623 
	C46.558407,34.689854 47.121948,34.378147 47.963654,33.890915 
	C48.352608,34.442455 48.463402,35.169518 47.967804,35.930992 
	C46.929337,35.908764 46.497261,35.852123 46.065186,35.795479 
z"/>
<path fill="#EDB69B" opacity="1.000000" stroke="none" 
	d="
M48.188412,31.908726 
	C48.300846,31.906744 48.503910,32.184547 48.599464,32.599594 
	C48.420990,32.554066 48.350018,32.371292 48.188412,31.908726 
z"/>
<path fill="#F1BA9C" opacity="1.000000" stroke="none" 
	d="
M34.727867,35.033787 
	C35.487328,35.685028 36.017490,36.304485 36.788052,37.372658 
	C35.861122,38.567570 34.693790,39.313763 33.520779,40.064949 
	C33.515095,40.069942 33.547913,40.084888 33.547913,40.084888 
	C33.413620,38.957840 33.279331,37.830795 33.352650,36.167568 
	C33.725853,35.465755 33.849449,35.273170 33.958290,35.030083 
	C33.985523,35.006527 34.037777,34.956970 34.037777,34.956970 
	C34.037777,34.956970 34.498566,35.001999 34.727867,35.033787 
z"/>
<path fill="#F1BA9C" opacity="1.000000" stroke="none" 
	d="
M33.228333,35.056824 
	C33.163635,34.883461 33.098938,34.710102 33.068890,34.261234 
	C33.395840,34.106388 33.632023,34.296700 33.924931,34.756813 
	C34.037777,34.956970 33.985523,35.006527 33.783318,35.036362 
	C33.581108,35.066200 33.228333,35.056824 33.228333,35.056824 
z"/>
<path fill="#E38712" opacity="1.000000" stroke="none" 
	d="
M38.042736,41.900337 
	C37.617512,44.117924 37.192284,46.335506 36.467583,48.758133 
	C36.346878,47.195198 36.525650,45.427227 36.836243,43.297863 
	C37.066612,42.759888 37.165161,42.583305 37.523483,42.138275 
	C37.783257,41.869827 38.042736,41.900337 38.042736,41.900337 
z"/>
<path fill="#FAD2B6" opacity="1.000000" stroke="none" 
	d="
M33.196625,35.263374 
	C33.228333,35.056824 33.581108,35.066200 33.756081,35.059917 
	C33.849449,35.273170 33.725853,35.465755 33.432053,35.747742 
	C33.303848,35.864094 33.164917,35.469921 33.196625,35.263374 
z"/>
<path fill="#FAD2B6" opacity="1.000000" stroke="none" 
	d="
M33.600830,40.276333 
	C33.547913,40.084888 33.515095,40.069942 33.511253,40.278053 
	C33.507408,40.486164 33.514023,40.913162 33.514023,40.913162 
	C33.514023,40.913162 33.531437,40.882893 33.547829,40.868847 
	C33.564217,40.854801 33.653748,40.467777 33.600830,40.276333 
z"/>
<path fill="#E6B095" opacity="1.000000" stroke="none" 
	d="
M33.527435,40.926922 
	C33.514023,40.913162 33.507408,40.486164 33.516937,40.273064 
	C34.693790,39.313763 35.861122,38.567570 37.048790,37.539558 
	C37.300522,37.195484 37.531910,37.133232 38.118935,37.005917 
	C38.770260,36.953133 39.051216,37.023903 39.516983,37.241043 
	C39.716526,37.328926 39.861774,37.700768 39.952438,37.879562 
	C40.043106,38.058357 40.026474,38.447029 40.021049,38.976707 
	C40.025063,39.949036 40.034500,40.391685 39.833233,40.915318 
	C39.341187,41.117584 39.112156,41.303333 38.935436,41.553539 
	C38.935436,41.553539 38.458454,41.650532 38.250595,41.775436 
	C38.042736,41.900337 37.783257,41.869827 37.660065,41.867424 
	C36.394447,41.697418 35.252026,41.529812 33.824791,41.141769 
	C33.539982,40.921333 33.540852,40.940681 33.527435,40.926922 
z"/>
<path fill="#F49528" opacity="1.000000" stroke="none" 
	d="
M52.063316,39.032982 
	C54.130798,39.348518 56.198277,39.664055 58.674225,39.958397 
	C59.082691,39.937206 59.327793,40.317524 59.336105,40.543663 
	C55.479126,41.852009 51.613827,42.934219 47.093914,43.973755 
	C46.439297,43.931084 46.040947,43.690861 46.075771,43.518394 
	C46.110596,43.345924 46.170090,42.999073 46.431019,42.959248 
	C47.126076,42.636803 47.560204,42.354183 48.118340,41.761986 
	C48.525444,40.623356 48.808544,39.794308 49.260727,38.969444 
	C49.429806,38.973633 49.768051,38.977474 50.149490,39.006523 
	C51.041725,39.034706 51.552521,39.033844 52.063316,39.032982 
z"/>
<path fill="#FDFDFD" opacity="1.000000" stroke="none" 
	d="
M46.040947,43.690861 
	C46.040947,43.690861 46.439297,43.931084 46.666359,43.981468 
	C46.516197,45.540573 46.138969,47.049294 45.195808,48.480850 
	C44.432865,47.195477 44.235855,45.987267 44.228146,44.559105 
	C44.958614,44.123055 45.499779,43.906956 46.040947,43.690861 
z"/>
<path fill="#AFB2B6" opacity="1.000000" stroke="none" 
	d="
M44.038845,44.779057 
	C44.235855,45.987267 44.432865,47.195477 44.897324,48.658615 
	C45.164768,48.913544 45.024910,49.350803 44.975281,49.574703 
	C44.534256,49.822247 44.142860,49.845886 43.456284,49.845558 
	C42.867550,48.809750 42.574001,47.797916 42.507011,46.296082 
	C43.168667,45.463741 43.603756,45.121399 44.038845,44.779057 
z"/>
<path fill="#EC8C17" opacity="1.000000" stroke="none" 
	d="
M49.883636,50.868816 
	C50.552418,50.680721 51.221203,50.492626 51.625443,50.634872 
	C50.926060,50.995659 50.491219,51.026104 50.012596,51.010162 
	C49.968819,50.963779 49.883636,50.868816 49.883636,50.868816 
z"/>
<path fill="#EC8C17" opacity="1.000000" stroke="none" 
	d="
M50.122219,51.950577 
	C49.440903,51.787029 48.759590,51.623478 48.078278,51.459923 
	C48.494476,51.290230 48.910675,51.120537 49.605255,50.909832 
	C49.883636,50.868816 49.968819,50.963779 49.993187,51.236313 
	C50.017551,51.508846 50.122219,51.950577 50.122219,51.950577 
z"/>
<path fill="#020104" opacity="1.000000" stroke="none" 
	d="
M50.434372,51.966476 
	C50.122219,51.950577 50.017551,51.508846 50.036964,51.282696 
	C50.491219,51.026104 50.926060,50.995659 51.682262,50.904495 
	C52.165260,51.162731 52.326900,51.481697 52.488541,51.800663 
	C51.907864,51.861237 51.327194,51.921806 50.434372,51.966476 
z"/>
<path fill="#EFF0F1" opacity="1.000000" stroke="none" 
	d="
M61.552849,51.240730 
	C62.097290,51.080467 62.316872,51.080608 62.702023,51.031132 
	C62.867573,51.003723 62.889908,51.378792 62.637161,51.632084 
	C62.278595,52.036110 62.172771,52.186844 62.066944,52.337582 
	C61.866798,52.407417 61.666649,52.477257 61.226753,52.337891 
	C61.067329,51.893574 61.147652,51.658459 61.552849,51.240730 
z"/>
<path fill="#EFF0F1" opacity="1.000000" stroke="none" 
	d="
M60.673676,52.093605 
	C61.173187,52.269928 61.231079,52.535240 61.133457,53.177040 
	C60.598011,53.458576 60.218071,53.363628 59.838135,53.268684 
	C59.969440,52.906654 60.100750,52.544628 60.673676,52.093605 
z"/>
<path fill="#121110" opacity="1.000000" stroke="none" 
	d="
M62.220718,52.399101 
	C62.172771,52.186844 62.278595,52.036110 62.652618,51.819313 
	C62.738716,51.989037 62.556606,52.224827 62.220718,52.399101 
z"/>
<path fill="#F49735" opacity="1.000000" stroke="none" 
	d="
M44.228146,44.559105 
	C43.603756,45.121399 43.168667,45.463741 42.513615,45.968796 
	C41.252342,44.839779 40.211025,43.548054 39.052574,41.904934 
	C39.112156,41.303333 39.341187,41.117584 39.890957,40.964039 
	C40.159386,40.931778 40.309547,40.932182 40.525982,41.195507 
	C41.859627,41.759609 42.976841,42.060387 44.295765,42.523529 
	C45.005852,42.773945 45.514225,42.861996 46.060074,42.960491 
	C46.097546,42.970940 46.170090,42.999073 46.170090,42.999073 
	C46.170090,42.999073 46.110596,43.345924 46.075771,43.518394 
	C45.499779,43.906956 44.958614,44.123055 44.228146,44.559105 
z"/>
<path fill="#F6A04C" opacity="1.000000" stroke="none" 
	d="
M52.043877,38.653877 
	C51.552521,39.033844 51.041725,39.034706 50.326004,38.769798 
	C50.416073,38.002312 50.711063,37.500595 51.006058,36.998875 
	C51.006058,36.998875 51.473724,36.905491 51.699898,36.828964 
	C51.958858,37.259884 51.991646,37.767326 52.043877,38.653877 
z"/>
<path fill="#EF9128" opacity="1.000000" stroke="none" 
	d="
M52.030670,34.744911 
	C51.884205,34.746418 51.744141,34.501110 51.729156,34.147602 
	C51.854240,34.039398 52.037064,34.498096 52.030670,34.744911 
z"/>
<path fill="#F39226" opacity="1.000000" stroke="none" 
	d="
M50.673042,36.996181 
	C50.711063,37.500595 50.416073,38.002312 49.944565,38.740753 
	C49.768051,38.977474 49.429806,38.973633 48.984734,39.091881 
	C47.681767,39.690529 46.823868,40.170929 45.636124,40.696251 
	C44.646809,40.764267 43.987335,40.787354 43.248386,40.606091 
	C43.168911,40.401741 42.962086,40.015060 42.962086,40.015060 
	C43.302666,38.886868 43.643246,37.758671 43.984543,36.268105 
	C43.985264,35.905731 44.458710,35.831722 44.691429,35.773163 
	C45.112068,35.757305 45.299995,35.799999 45.776554,35.819088 
	C46.497261,35.852123 46.929337,35.908764 47.687428,35.997993 
	C48.788971,36.351555 49.564499,36.672523 50.673042,36.996181 
z"/>
<path fill="#FDD197" opacity="1.000000" stroke="none" 
	d="
M42.642036,39.992760 
	C42.962086,40.015060 43.168911,40.401741 42.868500,40.665886 
	C41.815243,40.930752 41.062393,40.931469 40.309547,40.932182 
	C40.309547,40.932182 40.159386,40.931778 40.101662,40.883057 
	C40.034500,40.391685 40.025063,39.949036 40.014523,39.171112 
	C40.782944,39.214043 41.552464,39.592255 42.642036,39.992760 
z"/>
<path fill="#F8B774" opacity="1.000000" stroke="none" 
	d="
M45.965969,40.651325 
	C46.823868,40.170929 47.681767,39.690529 48.815655,39.087692 
	C48.808544,39.794308 48.525444,40.623356 47.784431,41.762253 
	C46.882267,42.046051 46.438019,42.020008 45.984955,41.658356 
	C45.972748,41.098938 45.969357,40.875130 45.965969,40.651325 
z"/>
<path fill="#F0911C" opacity="1.000000" stroke="none" 
	d="
M45.993767,41.993961 
	C46.438019,42.020008 46.882267,42.046051 47.660423,42.071831 
	C47.560204,42.354183 47.126076,42.636803 46.431019,42.959248 
	C46.170090,42.999073 46.097546,42.970940 46.080891,42.766346 
	C46.064236,42.561752 46.094898,42.172050 46.067410,42.128784 
	C46.039921,42.085514 45.993767,41.993961 45.993767,41.993961 
z"/>
<path fill="#FCD5A1" opacity="1.000000" stroke="none" 
	d="
M45.636124,40.696251 
	C45.969357,40.875130 45.972748,41.098938 45.984955,41.658356 
	C45.993767,41.993961 46.039921,42.085514 45.728996,42.084190 
	C44.976730,42.175632 44.535393,42.268398 44.094051,42.361168 
	C42.976841,42.060387 41.859627,41.759609 40.525982,41.195507 
	C41.062393,40.931469 41.815243,40.930752 42.947975,40.870239 
	C43.987335,40.787354 44.646809,40.764267 45.636124,40.696251 
z"/>
<path fill="#F49D42" opacity="1.000000" stroke="none" 
	d="
M44.295765,42.523533 
	C44.535393,42.268398 44.976730,42.175632 45.756485,42.127457 
	C46.094898,42.172050 46.064236,42.561752 46.043419,42.755898 
	C45.514225,42.861996 45.005852,42.773945 44.295765,42.523533 
z"/>
</svg>