<svg width="24" height="24" viewBox="0 0 24 24" fill="none" xmlns="http://www.w3.org/2000/svg">
<path d="M12.6667 7.33333C12.6667 6.96514 12.3682 6.66667 12 6.66667C11.6318 6.66667 11.3333 6.96514 11.3333 7.33333V12C11.3333 12.1768 11.4036 12.3464 11.5286 12.4714L13.8619 14.8047C14.1223 15.0651 14.5444 15.0651 14.8047 14.8047C15.0651 14.5444 15.0651 14.1223 14.8047 13.8619L12.6667 11.7239V7.33333Z" fill="currentColor" fill-opacity="0.9"/>
<path fill-rule="evenodd" clip-rule="evenodd" d="M12 4C7.58172 4 4 7.58172 4 12C4 16.4183 7.58172 20 12 20C16.4183 20 20 16.4183 20 12C20 7.58172 16.4183 4 12 4ZM5.33333 12C5.33333 8.3181 8.3181 5.33333 12 5.33333C15.6819 5.33333 18.6667 8.3181 18.6667 12C18.6667 15.6819 15.6819 18.6667 12 18.6667C8.3181 18.6667 5.33333 15.6819 5.33333 12Z" fill="currentColor" fill-opacity="0.9"/>
</svg>
