<svg width="24" height="24" viewBox="0 0 24 24" fill="none" xmlns="http://www.w3.org/2000/svg">
<path fill-rule="evenodd" clip-rule="evenodd" d="M16.1475 12.636C16.3668 12.4989 16.5 12.2586 16.5 12C16.5 11.7414 16.3668 11.5011 16.1475 11.364L10.1475 7.614C9.9163 7.4695 9.62489 7.46185 9.38643 7.59402C9.14796 7.72619 9 7.97736 9 8.25L9 15.75C9 16.0226 9.14796 16.2738 9.38642 16.406C9.62489 16.5382 9.9163 16.5305 10.1475 16.386L16.1475 12.636ZM10.5 14.3968L10.5 9.60319L14.3349 12L10.5 14.3968Z" fill="currentColor" fill-opacity="1"/>
<path fill-rule="evenodd" clip-rule="evenodd" d="M21 12C21 16.9706 16.9706 21 12 21C7.02944 21 3 16.9706 3 12C3 7.02944 7.02944 3 12 3C16.9706 3 21 7.02944 21 12ZM19.5 12C19.5 16.1421 16.1421 19.5 12 19.5C7.85786 19.5 4.5 16.1421 4.5 12C4.5 7.85786 7.85786 4.5 12 4.5C16.1421 4.5 19.5 7.85786 19.5 12Z" fill="currentColor" fill-opacity="1"/>
</svg>
