<svg width="24" height="24" viewBox="0 0 24 24" fill="none" xmlns="http://www.w3.org/2000/svg">
<path d="M6.49372 5.25628C6.15201 4.91457 5.59799 4.91457 5.25628 5.25628C4.91457 5.59798 4.91457 6.152 5.25628 6.4937L10.7626 12L5.25628 17.5063C4.91457 17.848 4.91457 18.402 5.25628 18.7437C5.59799 19.0854 6.15201 19.0854 6.49372 18.7437L12.0001 13.2374L17.5063 18.7436C17.848 19.0853 18.402 19.0853 18.7437 18.7436C19.0854 18.4019 19.0854 17.8479 18.7437 17.5062L13.2375 12L18.7437 6.49384C19.0854 6.15213 19.0854 5.59812 18.7437 5.25641C18.402 4.91471 17.848 4.91471 17.5063 5.25641L12.0001 10.7626L6.49372 5.25628Z" fill="currentColor" fill-opacity="1"/>
</svg>
