<svg width="16" height="16" viewBox="0 0 16 16" fill="none" xmlns="http://www.w3.org/2000/svg">
<path d="M4 10C3.63181 10 3.33333 10.2985 3.33333 10.6667C3.33333 11.0349 3.63181 11.3333 4 11.3333H4.66667C5.03486 11.3333 5.33333 11.0349 5.33333 10.6667C5.33333 10.2985 5.03486 10 4.66667 10H4Z" fill="currentColor"/>
<path d="M7.33333 10C6.96514 10 6.66667 10.2985 6.66667 10.6667C6.66667 11.0349 6.96514 11.3333 7.33333 11.3333H10C10.3682 11.3333 10.6667 11.0349 10.6667 10.6667C10.6667 10.2985 10.3682 10 10 10H7.33333Z" fill="currentColor"/>
<path fill-rule="evenodd" clip-rule="evenodd" d="M0 4C0 2.89543 0.895431 2 2 2H14C15.1046 2 16 2.89543 16 4V12C16 13.1046 15.1046 14 14 14H2C0.89543 14 0 13.1046 0 12V4ZM2 3.33333C1.63181 3.33333 1.33333 3.63181 1.33333 4V5.33333H14.6667V4C14.6667 3.63181 14.3682 3.33333 14 3.33333H2ZM14.6667 6.66667H1.33333V12C1.33333 12.3682 1.63181 12.6667 2 12.6667H14C14.3682 12.6667 14.6667 12.3682 14.6667 12V6.66667Z" fill="currentColor"/>
</svg>
