<svg version="1.1" id="Layer_1" xmlns="http://www.w3.org/2000/svg" xmlns:xlink="http://www.w3.org/1999/xlink" x="0px" y="0px"
	 width="100%" viewBox="0 0 100 100" enable-background="new 0 0 100 100" xml:space="preserve">
<path fill="#000000" opacity="1.000000" stroke="none" 
	d="
M1.000000,45.000000 
	C1.000000,30.366823 1.000000,15.733648 1.000000,1.050236 
	C34.223663,1.050236 67.447418,1.050236 101.000000,1.050236 
	C101.000000,16.686029 101.000000,32.374355 100.674484,48.868446 
	C98.582214,44.742947 96.815460,39.811684 95.041656,34.507095 
	C93.966125,31.764517 92.897644,29.395269 91.817688,26.727856 
	C91.221703,25.923414 90.637199,25.417141 90.052231,24.948273 
	C90.051765,24.985682 90.110863,24.939798 90.076591,24.705757 
	C90.045502,24.146467 89.960136,23.846405 89.612320,23.290937 
	C88.576752,22.022984 87.715096,21.035627 86.821747,19.731644 
	C85.863602,18.553211 84.937157,17.691402 83.822472,16.512020 
	C83.199867,15.118063 82.765495,14.041679 82.331116,12.965296 
	C81.948013,13.332028 81.564911,13.698760 80.834061,14.045506 
	C79.314407,13.360121 78.142494,12.694723 76.917046,11.688921 
	C74.972290,10.211639 73.081085,9.074762 71.203613,7.631574 
	C71.089325,6.609848 70.961304,5.894436 70.833275,5.179024 
	C70.213295,5.520949 69.593307,5.862875 68.672913,6.017237 
	C67.659195,5.851346 66.945892,5.873020 66.039856,5.524621 
	C59.565407,4.819993 53.283680,4.485436 46.589870,4.071552 
	C44.096092,4.317604 42.014397,4.642983 39.545349,4.970922 
	C35.940834,6.300681 32.723675,7.627881 29.524906,8.971609 
	C29.543301,8.988136 29.565701,8.944727 29.321293,8.749422 
	C28.551466,8.446230 28.026043,8.338342 27.500622,8.230453 
	C27.629192,8.614270 27.757763,8.998086 27.888050,9.413177 
	C27.889767,9.444454 27.952059,9.437804 27.750538,9.674698 
	C27.329390,10.248298 27.109764,10.585006 26.608927,10.878970 
	C25.383696,11.565919 24.439676,12.295610 23.247341,13.215792 
	C22.348190,14.652093 21.697355,15.897907 20.989304,16.787510 
	C19.271469,17.441858 17.610853,18.452417 15.724891,19.702394 
	C14.730678,20.964567 13.961813,21.987324 13.082094,23.304920 
	C13.229293,23.774752 13.487346,23.949747 13.809435,24.078190 
	C13.873471,24.031637 13.721362,24.075611 13.644609,24.118164 
	C13.567856,24.160719 13.563375,24.336182 13.545380,24.527891 
	C13.527384,24.719601 13.908400,24.775570 13.474856,24.572372 
	C12.948712,24.884203 12.856112,25.399233 12.760694,25.863794 
	C12.757876,25.813326 12.663118,25.778097 12.410539,25.406898 
	C10.932357,26.218500 9.333703,27.196659 8.551451,28.622665 
	C6.250887,32.816479 2.751148,36.666878 3.861507,42.376629 
	C3.282270,43.464283 2.708473,44.245575 1.844748,45.284458 
	C1.369880,45.361362 1.184940,45.180683 1.000000,45.000000 
z"/>
<path fill="#000000" opacity="1.000000" stroke="none" 
	d="
M45.000000,101.000000 
	C30.405806,101.000000 15.811613,101.000000 1.000000,101.000000 
	C1.000000,86.313156 1.000000,71.625237 1.286193,56.186844 
	C1.773298,55.613384 1.974209,55.790401 2.150003,56.274391 
	C2.517067,57.052986 2.909250,57.524616 3.352263,58.301903 
	C4.960082,63.176533 5.722812,68.254623 8.252030,72.200401 
	C12.514167,78.849678 16.948334,85.999634 23.028374,90.730988 
	C32.392342,98.017822 44.106155,99.695297 55.914711,99.339485 
	C54.877502,99.879295 53.896236,100.047882 52.528728,100.135025 
	C51.084000,100.087120 50.025513,100.120651 48.582565,100.086945 
	C47.132069,100.346458 46.066032,100.673233 45.000000,101.000000 
z"/>
<path fill="#000000" opacity="1.000000" stroke="none" 
	d="
M101.000000,59.000000 
	C101.000000,72.928391 101.000000,86.856789 101.000000,101.000000 
	C86.646484,101.000000 72.291901,101.000000 57.371712,100.664673 
	C56.883606,99.875465 56.961109,99.421577 57.460640,98.983269 
	C66.845451,97.938004 74.756432,94.649956 81.329330,87.967751 
	C81.859589,87.710968 82.017265,87.440735 82.382309,87.040085 
	C84.508141,85.005043 86.286644,83.018753 88.303596,80.964615 
	C88.848366,80.705826 89.010330,80.430092 89.310165,79.972961 
	C90.000557,79.247993 90.408737,78.619644 90.970627,77.670403 
	C93.423943,72.006058 95.701141,66.652756 98.042191,61.327526 
	C98.506203,60.272007 99.215256,59.324207 100.261490,58.224922 
	C100.807770,58.415405 100.903885,58.707703 101.000000,59.000000 
z"/>
<path fill="#938EDE" opacity="1.000000" stroke="none" 
	d="
M81.096725,88.035965 
	C74.756432,94.649956 66.845451,97.938004 57.193031,98.967583 
	C56.325817,98.946968 56.148235,98.957619 55.970654,98.968262 
	C44.106155,99.695297 32.392342,98.017822 23.028374,90.730988 
	C16.948334,85.999634 12.514167,78.849678 8.252030,72.200401 
	C5.722812,68.254623 4.960082,63.176533 3.606006,58.217819 
	C3.264318,57.207859 2.719720,56.587639 2.175121,55.967422 
	C1.974209,55.790401 1.773298,55.613384 1.286193,55.718185 
	C1.000000,52.638714 1.000000,49.277424 1.000000,45.458069 
	C1.184940,45.180683 1.369880,45.361362 2.175568,45.260689 
	C3.153193,44.009644 3.510070,43.039959 3.866946,42.070271 
	C2.751148,36.666878 6.250887,32.816479 8.551451,28.622665 
	C9.333703,27.196659 10.932357,26.218500 12.391840,25.777248 
	C9.145941,34.498447 6.631379,42.466137 6.725107,51.541725 
	C6.840575,62.722481 10.813992,71.752853 17.983568,80.224724 
	C24.412807,84.702507 30.289730,89.649437 36.992069,92.888298 
	C48.030544,98.222588 59.172798,95.069939 70.094910,91.426376 
	C71.666107,91.447868 73.226990,91.363365 74.636986,90.857925 
	C76.843849,90.066849 78.948677,88.991119 81.096725,88.035965 
z"/>
<path fill="#9F9FEA" opacity="1.000000" stroke="none" 
	d="
M101.000000,58.545891 
	C100.903885,58.707703 100.807770,58.415405 99.996033,58.128769 
	C98.223419,57.759922 97.166428,57.385414 96.060257,56.549061 
	C95.645836,50.061306 95.280594,44.035397 94.947800,37.710823 
	C94.946114,37.015522 94.911980,36.618881 94.922729,35.887062 
	C94.994652,35.328060 95.021675,35.104240 95.048706,34.880424 
	C96.815460,39.811684 98.582214,44.742947 100.674484,49.337105 
	C101.000000,52.030594 101.000000,55.061188 101.000000,58.545891 
z"/>
<path fill="#7F7FFF" opacity="1.000000" stroke="none" 
	d="
M55.914711,99.339485 
	C56.148235,98.957619 56.325817,98.946968 56.771004,98.952011 
	C56.961109,99.421577 56.883606,99.875465 56.903053,100.664673 
	C55.933212,101.000000 54.866425,101.000000 53.381172,100.803833 
	C52.962704,100.607666 52.914970,100.216469 52.914970,100.216469 
	C53.896236,100.047882 54.877502,99.879295 55.914711,99.339485 
z"/>
<path fill="#7F7FFF" opacity="1.000000" stroke="none" 
	d="
M45.400063,101.000000 
	C46.066032,100.673233 47.132069,100.346458 48.591343,100.298378 
	C48.984585,100.577065 49.000000,101.000000 49.000000,101.000000 
	C47.933376,101.000000 46.866749,101.000000 45.400063,101.000000 
z"/>
<path fill="#AA95AA" opacity="1.000000" stroke="none" 
	d="
M49.399967,101.000000 
	C49.000000,101.000000 48.984585,100.577065 48.975807,100.365631 
	C50.025513,100.120651 51.084000,100.087120 52.528728,100.135025 
	C52.914970,100.216469 52.962704,100.607666 52.981354,100.803833 
	C51.933311,101.000000 50.866623,101.000000 49.399967,101.000000 
z"/>
<path fill="#6353DC" opacity="1.000000" stroke="none" 
	d="
M17.802052,79.926552 
	C10.813992,71.752853 6.840575,62.722481 6.725107,51.541725 
	C6.631379,42.466137 9.145941,34.498447 12.644420,26.148449 
	C12.663118,25.778097 12.757876,25.813326 13.031951,25.765762 
	C13.506817,25.403988 13.707608,25.089779 13.908400,24.775570 
	C13.908400,24.775570 13.527384,24.719601 13.927958,24.738800 
	C14.613950,24.798330 14.899367,24.838663 15.383909,24.633703 
	C17.404196,21.973515 19.225357,19.558619 21.046520,17.143721 
	C21.697355,15.897907 22.348190,14.652093 23.649544,13.173672 
	C25.303265,12.591225 26.306465,12.241385 27.616192,11.953499 
	C28.676756,11.746543 29.430792,11.477633 30.513996,11.117891 
	C31.394564,10.337729 31.945967,9.648397 32.500763,8.982135 
	C32.504162,9.005204 32.461357,8.986691 32.854332,9.086964 
	C34.510147,8.891432 35.772991,8.595629 37.434090,8.253119 
	C40.570892,7.534240 43.309441,6.862069 46.474648,6.171169 
	C49.488003,6.395267 52.074703,6.638092 54.386703,7.072208 
	C48.088043,10.369373 42.474812,13.903379 39.710129,20.894291 
	C34.123920,23.683630 35.363594,28.158201 35.908745,32.814835 
	C32.521805,40.044262 29.814425,47.078880 24.550388,52.970879 
	C20.949362,57.001480 23.981665,64.271774 29.144524,65.985252 
	C29.527122,67.004318 29.797834,67.741104 30.012131,68.883011 
	C29.906178,69.830795 29.856642,70.373459 29.466362,70.984863 
	C25.351095,74.011253 21.576574,76.968903 17.802052,79.926552 
z"/>
<path fill="#6352DA" opacity="1.000000" stroke="none" 
	d="
M94.915344,38.009487 
	C95.280594,44.035397 95.645836,50.061306 95.998779,56.930275 
	C94.537460,65.735077 90.923279,72.681366 85.781624,79.147263 
	C85.109825,79.590187 84.676849,79.909126 84.076111,79.905243 
	C79.999825,76.374428 76.091293,73.166451 72.131660,69.581596 
	C72.680405,66.200249 73.280251,63.195778 74.029587,59.442566 
	C76.037422,61.718990 77.818535,63.738361 79.599648,65.757729 
	C80.160454,65.607231 80.721260,65.456726 81.282066,65.306229 
	C80.873848,62.028866 81.250801,58.374935 79.896568,55.551281 
	C76.931480,49.368908 73.088333,43.607658 69.788490,37.382538 
	C72.483269,33.941055 74.212059,30.799225 69.901917,27.349566 
	C70.288086,25.363203 70.652237,23.745001 71.342392,22.198532 
	C73.191788,23.569632 74.715172,24.868999 76.221191,26.539837 
	C76.235458,27.570068 75.999237,28.526764 76.344261,28.836966 
	C77.999718,30.325352 79.812347,31.638920 81.569153,33.014587 
	C82.693306,31.321653 84.913696,29.452854 84.677124,27.978216 
	C84.346497,25.917286 82.182625,24.150457 80.798904,21.896358 
	C79.514885,18.344980 78.235100,15.155033 76.980270,11.976309 
	C77.005219,11.987530 76.970589,12.029327 76.970589,12.029326 
	C78.142494,12.694723 79.314407,13.360121 81.023682,14.217812 
	C82.047768,15.569787 82.534485,16.729469 83.158676,18.180645 
	C84.219955,19.328070 85.143768,20.184004 86.073685,21.147690 
	C86.079788,21.255444 86.004158,21.457613 86.018204,21.809420 
	C86.369698,22.441261 86.707153,22.721296 87.019287,23.001024 
	C86.993980,23.000719 87.020370,22.957516 86.969025,23.271240 
	C87.506699,24.061617 88.095718,24.538265 89.043167,25.032173 
	C89.638016,25.012888 89.874435,24.976343 90.110863,24.939798 
	C90.110863,24.939798 90.051765,24.985682 90.006142,25.282249 
	C90.317879,26.370350 90.675240,27.161882 91.035255,28.185936 
	C91.037910,28.418461 91.004456,28.882332 90.992714,29.240355 
	C91.339905,30.393597 91.698837,31.188816 92.029755,31.991322 
	C92.001740,31.998610 92.027588,31.946802 92.003220,32.270897 
	C92.338196,33.063831 92.697525,33.532673 93.027969,34.001053 
	C92.999069,34.000595 93.026100,33.949505 92.968628,34.320065 
	C93.261520,35.615555 93.611877,36.540482 94.084381,37.611183 
	C94.419106,37.907635 94.655380,37.991814 94.915344,38.009487 
z"/>
<path fill="#928DDE" opacity="1.000000" stroke="none" 
	d="
M47.001957,4.150880 
	C53.283680,4.485436 59.565407,4.819993 65.646225,5.623699 
	C64.905434,6.134438 64.365547,6.176027 63.459663,6.173963 
	C62.357666,6.118765 61.621662,6.107223 60.573402,6.038766 
	C59.627449,5.949274 58.993759,5.916695 57.968925,5.689094 
	C54.052433,5.289873 50.527088,5.085674 47.001541,4.698826 
	C47.001339,4.516177 47.001957,4.150880 47.001957,4.150880 
z"/>
<path fill="#504A8A" opacity="1.000000" stroke="none" 
	d="
M20.989302,16.787510 
	C19.225357,19.558619 17.404196,21.973515 15.201883,24.400505 
	C14.454277,24.300272 14.087819,24.187941 13.721362,24.075611 
	C13.721362,24.075611 13.873471,24.031637 14.036840,23.857605 
	C14.302249,23.498800 14.404288,23.314024 14.765979,22.885763 
	C15.333834,21.582510 15.642036,20.522745 15.950239,19.462978 
	C17.610853,18.452417 19.271469,17.441858 20.989302,16.787510 
z"/>
<path fill="#A09BEB" opacity="1.000000" stroke="none" 
	d="
M32.461357,8.986691 
	C32.461357,8.986691 32.504162,9.005204 31.990280,9.106232 
	C30.819769,9.123199 30.163141,9.039141 29.506514,8.955082 
	C32.723675,7.627881 35.940834,6.300681 39.732113,5.085432 
	C40.561367,5.346556 40.781258,5.536524 40.637924,5.886346 
	C39.210361,6.379817 38.110783,6.754229 36.667625,7.202443 
	C35.036484,7.846394 33.748920,8.416543 32.461357,8.986691 
z"/>
<path fill="#9B95E9" opacity="1.000000" stroke="none" 
	d="
M91.004456,28.882332 
	C91.004456,28.882332 91.037910,28.418461 91.134911,28.005096 
	C91.389755,27.359629 91.588844,27.171057 91.829170,27.026020 
	C92.897644,29.395269 93.966125,31.764517 95.041656,34.507095 
	C95.021675,35.104240 94.994652,35.328060 94.749924,35.772697 
	C94.532227,35.993507 94.170982,35.790279 94.117630,35.503532 
	C93.718224,34.794357 93.372162,34.371929 93.026100,33.949505 
	C93.026100,33.949505 92.999069,34.000595 93.078934,33.671471 
	C92.781731,32.877167 92.404655,32.411983 92.027588,31.946802 
	C92.027588,31.946802 92.001740,31.998610 92.128128,31.652884 
	C91.837822,30.498882 91.421135,29.690609 91.004456,28.882332 
z"/>
<path fill="#948EDA" opacity="1.000000" stroke="none" 
	d="
M71.189873,7.937886 
	C73.081085,9.074762 74.972290,10.211639 76.917046,11.688922 
	C76.970589,12.029327 77.005219,11.987530 76.624954,11.992490 
	C74.249802,10.785413 72.254906,9.573377 70.485153,8.239384 
	C70.870148,8.057579 71.030014,7.997732 71.189873,7.937886 
z"/>
<path fill="#908CDC" opacity="1.000000" stroke="none" 
	d="
M40.965908,5.767288 
	C40.781258,5.536524 40.561367,5.346556 40.119469,5.082872 
	C42.014397,4.642983 44.096092,4.317604 46.589870,4.071552 
	C47.001957,4.150880 47.001339,4.516177 46.755417,4.791980 
	C46.346615,5.132962 46.183743,5.198142 45.656876,5.252537 
	C43.850555,5.416931 42.408234,5.592109 40.965908,5.767288 
z"/>
<path fill="#A09CD6" opacity="1.000000" stroke="none" 
	d="
M83.021202,17.889153 
	C82.534485,16.729469 82.047768,15.569787 81.371429,14.237799 
	C81.564911,13.698760 81.948013,13.332028 82.331116,12.965296 
	C82.765495,14.041679 83.199867,15.118063 83.707291,16.733490 
	C83.601219,17.569099 83.348175,17.774639 83.021202,17.889153 
z"/>
<path fill="#7F79CA" opacity="1.000000" stroke="none" 
	d="
M83.158676,18.180643 
	C83.348175,17.774639 83.601219,17.569099 83.895523,17.051064 
	C84.937157,17.691402 85.863602,18.553211 86.637390,19.848913 
	C86.266823,20.491728 86.127769,20.744104 86.067581,21.039938 
	C85.143768,20.184004 84.219955,19.328070 83.158676,18.180643 
z"/>
<path fill="#444077" opacity="1.000000" stroke="none" 
	d="
M29.524906,8.971609 
	C30.163141,9.039141 30.819769,9.123199 31.986881,9.083162 
	C31.945967,9.648397 31.394564,10.337729 30.218330,11.052860 
	C29.194145,11.065379 28.794792,11.052099 28.472416,10.586551 
	C28.350281,9.902122 28.151169,9.669964 27.952059,9.437804 
	C27.952059,9.437804 27.889767,9.444454 28.373285,9.557056 
	C29.093102,9.428014 29.329401,9.186370 29.565701,8.944727 
	C29.565701,8.944727 29.543301,8.988136 29.524906,8.971609 
z"/>
<path fill="#C5BCE0" opacity="1.000000" stroke="none" 
	d="
M68.973328,6.204801 
	C69.593307,5.862875 70.213295,5.520949 70.833275,5.179024 
	C70.961304,5.894436 71.089325,6.609848 71.203613,7.631574 
	C71.030014,7.997732 70.870148,8.057579 70.188797,8.122722 
	C68.860512,7.735875 68.053703,7.343733 67.461769,6.695780 
	C68.108864,6.361580 68.541100,6.283190 68.973328,6.204801 
z"/>
<path fill="#A99DD3" opacity="1.000000" stroke="none" 
	d="
M27.309666,11.891546 
	C26.306465,12.241385 25.303265,12.591225 23.897861,12.983184 
	C24.439676,12.295610 25.383696,11.565919 26.636658,10.875998 
	C26.945601,10.915767 26.967314,10.966725 27.080032,11.187887 
	C27.192751,11.409048 27.309666,11.891545 27.309666,11.891546 
z"/>
<path fill="#938EDE" opacity="1.000000" stroke="none" 
	d="
M3.861507,42.376629 
	C3.510070,43.039959 3.153193,44.009644 2.465496,45.003101 
	C2.708473,44.245575 3.282270,43.464283 3.861507,42.376629 
z"/>
<path fill="#978FDF" opacity="1.000000" stroke="none" 
	d="
M86.073685,21.147690 
	C86.127769,20.744104 86.266823,20.491728 86.669083,20.165539 
	C87.715096,21.035627 88.576752,22.022984 89.329033,23.447918 
	C89.042412,24.008034 88.865166,24.130573 88.475250,24.087330 
	C87.848511,23.600201 87.434441,23.278856 87.020370,22.957516 
	C87.020370,22.957516 86.993980,23.000719 86.949783,22.685648 
	C86.605110,22.066256 86.304634,21.761934 86.004158,21.457613 
	C86.004158,21.457613 86.079788,21.255444 86.073685,21.147690 
z"/>
<path fill="#7073AA" opacity="1.000000" stroke="none" 
	d="
M68.672913,6.017237 
	C68.541100,6.283190 68.108864,6.361580 67.161743,6.734933 
	C65.804420,6.963817 64.961983,6.897739 64.061127,6.670944 
	C64.002716,6.510227 63.825665,6.217617 63.825665,6.217617 
	C64.365547,6.176027 64.905434,6.134438 65.838959,5.993771 
	C66.945892,5.873020 67.659195,5.851346 68.672913,6.017237 
z"/>
<path fill="#8F8CD3" opacity="1.000000" stroke="none" 
	d="
M15.724892,19.702394 
	C15.642036,20.522745 15.333834,21.582510 14.436409,22.856464 
	C13.629107,23.050463 13.411028,23.030272 13.192949,23.010082 
	C13.961813,21.987324 14.730678,20.964567 15.724892,19.702394 
z"/>
<path fill="#978FDF" opacity="1.000000" stroke="none" 
	d="
M91.817688,26.727854 
	C91.588844,27.171057 91.389755,27.359629 91.132256,27.772573 
	C90.675240,27.161882 90.317879,26.370350 90.006607,25.244843 
	C90.637199,25.417141 91.221703,25.923414 91.817688,26.727854 
z"/>
<path fill="#A09BEB" opacity="1.000000" stroke="none" 
	d="
M29.321293,8.749422 
	C29.329401,9.186370 29.093102,9.428014 28.371571,9.525780 
	C27.757763,8.998086 27.629192,8.614270 27.500622,8.230453 
	C28.026043,8.338342 28.551466,8.446230 29.321293,8.749422 
z"/>
<path fill="#938EDE" opacity="1.000000" stroke="none" 
	d="
M13.474856,24.572372 
	C13.707608,25.089779 13.506817,25.403988 13.034768,25.816231 
	C12.856112,25.399233 12.948712,24.884203 13.474856,24.572372 
z"/>
<path fill="#978FDF" opacity="1.000000" stroke="none" 
	d="
M90.076591,24.705757 
	C89.874435,24.976343 89.638016,25.012888 89.045410,24.841486 
	C88.689217,24.633541 88.687920,24.253115 88.687920,24.253115 
	C88.865166,24.130573 89.042412,24.008034 89.502945,23.728514 
	C89.960136,23.846405 90.045502,24.146467 90.076591,24.705757 
z"/>
<path fill="#938EDE" opacity="1.000000" stroke="none" 
	d="
M13.644609,24.118164 
	C14.087819,24.187941 14.454277,24.300272 15.002760,24.645798 
	C14.899367,24.838663 14.613950,24.798330 13.945953,24.547089 
	C13.563375,24.336182 13.567856,24.160719 13.644609,24.118164 
z"/>
<path fill="#938EDE" opacity="1.000000" stroke="none" 
	d="
M13.082094,23.304920 
	C13.411028,23.030272 13.629107,23.050463 14.176758,23.099951 
	C14.404288,23.314024 14.302249,23.498800 13.972804,23.904158 
	C13.487346,23.949747 13.229293,23.774752 13.082094,23.304920 
z"/>
<path fill="#A09BEB" opacity="1.000000" stroke="none" 
	d="
M27.750538,9.674698 
	C28.151169,9.669964 28.350281,9.902122 28.113224,10.609455 
	C27.440474,11.045327 27.203894,11.006026 26.967314,10.966725 
	C26.967314,10.966725 26.945601,10.915767 26.917870,10.918739 
	C27.109764,10.585006 27.329390,10.248298 27.750538,9.674698 
z"/>
<path fill="#938EDE" opacity="1.000000" stroke="none" 
	d="
M2.150004,56.274391 
	C2.719720,56.587639 3.264318,57.207859 3.555174,57.912163 
	C2.909250,57.524616 2.517067,57.052986 2.150004,56.274391 
z"/>
<path fill="#9994E5" opacity="1.000000" stroke="none" 
	d="
M86.020439,79.023293 
	C90.923279,72.681366 94.537460,65.735077 96.047943,57.392120 
	C97.166428,57.385414 98.223419,57.759922 99.545868,58.230583 
	C99.215256,59.324207 98.506203,60.272007 98.042191,61.327526 
	C95.701141,66.652756 93.423943,72.006058 90.679749,77.752060 
	C89.832748,78.792938 89.430344,79.431252 89.027939,80.069572 
	C89.010330,80.430092 88.848366,80.705826 88.045296,80.824814 
	C87.039177,80.176338 86.529808,79.599815 86.020439,79.023293 
z"/>
<path fill="#9994E5" opacity="1.000000" stroke="none" 
	d="
M81.329330,87.967751 
	C78.948677,88.991119 76.843849,90.066849 74.636986,90.857925 
	C73.226990,91.363365 71.666107,91.447868 70.402710,91.258720 
	C74.082031,88.853020 77.531502,86.909698 81.203529,85.175735 
	C81.629051,85.953011 81.832016,86.520927 82.034973,87.088837 
	C82.017265,87.440735 81.859589,87.710968 81.329330,87.967751 
z"/>
<path fill="#938EDE" opacity="1.000000" stroke="none" 
	d="
M82.382301,87.040085 
	C81.832016,86.520927 81.629051,85.953011 81.364220,84.893112 
	C82.282860,83.010109 83.263359,81.619087 84.243866,80.228073 
	C84.676849,79.909126 85.109825,79.590187 85.781624,79.147263 
	C86.529808,79.599815 87.039177,80.176338 87.806847,80.892670 
	C86.286644,83.018753 84.508141,85.005043 82.382301,87.040085 
z"/>
<path fill="#938EDE" opacity="1.000000" stroke="none" 
	d="
M89.310165,79.972961 
	C89.430344,79.431252 89.832748,78.792938 90.526031,78.072952 
	C90.408737,78.619644 90.000557,79.247993 89.310165,79.972961 
z"/>
<path fill="#D85292" opacity="1.000000" stroke="none" 
	d="
M84.076111,79.905243 
	C83.263359,81.619087 82.282860,83.010109 81.141663,84.683754 
	C77.531502,86.909698 74.082031,88.853020 70.324753,90.964005 
	C59.172798,95.069939 48.030544,98.222588 36.992069,92.888298 
	C30.289730,89.649437 24.412807,84.702507 17.983566,80.224724 
	C21.576574,76.968903 25.351095,74.011253 29.873472,70.902527 
	C30.891623,70.693466 31.161917,70.635468 31.400934,70.658264 
	C31.369658,70.739067 31.209114,70.793106 31.124973,71.157562 
	C29.890982,73.605598 28.741127,75.689163 27.591274,77.772736 
	C30.017658,78.829208 32.444038,79.885674 35.091805,81.220245 
	C36.454021,81.656960 37.594852,81.815567 39.131027,82.018242 
	C40.438816,81.696106 41.351257,81.329903 42.539482,80.743393 
	C45.876526,80.978416 48.937790,81.433739 52.402695,81.939529 
	C53.888859,81.957611 54.971371,81.925201 56.472404,81.990036 
	C60.931408,81.387939 65.356506,85.144119 69.469872,81.018509 
	C71.824661,79.570740 73.812073,78.137627 75.799492,76.704514 
	C74.194679,75.391037 72.589859,74.077568 71.022156,72.455292 
	C71.433762,71.417152 71.808266,70.687813 72.182770,69.958473 
	C76.091293,73.166451 79.999825,76.374428 84.076111,79.905243 
z"/>
<path fill="#565293" opacity="1.000000" stroke="none" 
	d="
M94.170982,35.790279 
	C94.170982,35.790279 94.532227,35.993507 94.705032,36.107872 
	C94.911980,36.618881 94.946114,37.015522 94.947800,37.710823 
	C94.655380,37.991814 94.419106,37.907635 94.118385,37.188347 
	C94.077148,36.343258 94.124062,36.066769 94.170982,35.790279 
z"/>
<path fill="#B12A2B" opacity="1.000000" stroke="none" 
	d="
M64.119545,6.831661 
	C64.961983,6.897739 65.804420,6.963817 66.946884,6.990743 
	C68.053703,7.343733 68.860512,7.735875 69.963669,8.244678 
	C72.254906,9.573377 74.249802,10.785413 76.600006,11.981268 
	C78.235100,15.155033 79.514885,18.344980 80.547348,22.059685 
	C78.946213,23.779087 77.592392,24.973728 76.238564,26.168369 
	C74.715172,24.868999 73.191788,23.569632 71.252380,21.852131 
	C68.978951,20.571142 67.121544,19.708290 64.713562,18.589672 
	C65.206711,21.932222 65.532082,24.137556 65.474030,26.282887 
	C56.742622,24.401031 48.394619,22.579180 40.046619,20.757330 
	C42.474812,13.903379 48.088043,10.369373 54.773911,7.051233 
	C56.410564,6.520684 57.385315,6.202400 58.360069,5.884116 
	C58.993759,5.916695 59.627449,5.949274 60.812073,6.298493 
	C62.281853,6.687309 63.200699,6.759485 64.119545,6.831661 
z"/>
<path fill="#EEEEED" opacity="1.000000" stroke="none" 
	d="
M39.710129,20.894291 
	C48.394619,22.579180 56.742622,24.401031 65.705185,26.495832 
	C67.506462,27.085096 68.693176,27.401413 69.879883,27.717728 
	C74.212059,30.799225 72.483269,33.941055 69.485168,37.600121 
	C64.572487,37.761715 60.147823,37.413849 55.418228,37.052811 
	C49.081337,35.690598 43.049370,34.341549 36.813869,32.847885 
	C36.610332,32.703266 36.151600,32.505947 36.151600,32.505947 
	C35.363594,28.158201 34.123920,23.683630 39.710129,20.894291 
z"/>
<path fill="#E8DA81" opacity="1.000000" stroke="none" 
	d="
M35.908745,32.814835 
	C36.151600,32.505947 36.610332,32.703266 36.817551,33.270538 
	C36.358192,36.852863 36.182980,40.099930 34.897369,42.822689 
	C33.381203,46.033722 30.613405,48.637615 28.945206,51.798656 
	C27.822796,53.925488 27.666025,56.561924 26.783968,60.170067 
	C29.600048,58.513821 30.824875,57.793453 31.984715,57.428627 
	C30.957363,60.423763 29.994999,63.063366 29.032635,65.702965 
	C23.981665,64.271774 20.949362,57.001480 24.550388,52.970879 
	C29.814425,47.078880 32.521805,40.044262 35.908745,32.814835 
z"/>
<path fill="#D8A2B7" opacity="1.000000" stroke="none" 
	d="
M29.144524,65.985252 
	C29.994999,63.063366 30.957363,60.423763 32.353382,57.424286 
	C34.590839,57.717731 36.394638,58.371052 38.023937,59.323925 
	C37.681515,61.685448 37.513592,63.747414 36.956085,65.889618 
	C34.679039,66.787437 32.791584,67.605011 30.691668,68.382507 
	C30.479206,68.342422 30.068546,68.477882 30.068546,68.477882 
	C29.797834,67.741104 29.527122,67.004318 29.144524,65.985252 
z"/>
<path fill="#463F80" opacity="1.000000" stroke="none" 
	d="
M40.637924,5.886346 
	C42.408234,5.592109 43.850555,5.416931 45.664467,5.484117 
	C46.036057,5.726481 46.047989,6.189898 46.047989,6.189898 
	C43.309441,6.862069 40.570892,7.534240 37.427544,7.959348 
	C37.018894,7.517737 37.015049,7.323188 37.011204,7.128641 
	C38.110783,6.754229 39.210361,6.379817 40.637924,5.886346 
z"/>
<path fill="#403A70" opacity="1.000000" stroke="none" 
	d="
M46.474648,6.171169 
	C46.047989,6.189898 46.036057,5.726481 46.028465,5.494901 
	C46.183743,5.198142 46.346615,5.132962 46.755615,4.974628 
	C50.527088,5.085674 54.052433,5.289873 57.968925,5.689094 
	C57.385315,6.202400 56.410564,6.520684 55.048607,6.859943 
	C52.074703,6.638092 49.488003,6.395267 46.474648,6.171169 
z"/>
<path fill="#4B4586" opacity="1.000000" stroke="none" 
	d="
M36.667625,7.202442 
	C37.015049,7.323188 37.018894,7.517737 37.029289,8.006056 
	C35.772991,8.595629 34.510147,8.891432 32.854332,9.086964 
	C33.748920,8.416543 35.036484,7.846394 36.667625,7.202442 
z"/>
<path fill="#524A90" opacity="1.000000" stroke="none" 
	d="
M27.080032,11.187887 
	C27.203894,11.006026 27.440474,11.045327 28.036247,11.061724 
	C28.794792,11.052099 29.194145,11.065379 29.889164,11.143692 
	C29.430792,11.477633 28.676756,11.746543 27.616192,11.953499 
	C27.309666,11.891545 27.192751,11.409048 27.080032,11.187887 
z"/>
<path fill="#AF4276" opacity="1.000000" stroke="none" 
	d="
M30.012131,68.883011 
	C30.068546,68.477882 30.479206,68.342422 30.755682,68.752434 
	C31.165508,69.634117 31.298861,70.105797 31.432211,70.577469 
	C31.161917,70.635468 30.891623,70.693466 30.214218,70.833786 
	C29.856642,70.373459 29.906178,69.830795 30.012131,68.883011 
z"/>
<path fill="#EDBB4D" opacity="1.000000" stroke="none" 
	d="
M55.723156,37.065979 
	C60.147823,37.413849 64.572487,37.761715 69.300476,37.892002 
	C73.088333,43.607658 76.931480,49.368908 79.896568,55.551281 
	C81.250801,58.374935 80.873848,62.028866 81.282066,65.306229 
	C80.721260,65.456726 80.160454,65.607231 79.599648,65.757729 
	C77.818535,63.738361 76.037422,61.718990 74.029587,59.442566 
	C73.280251,63.195778 72.680405,66.200249 72.131668,69.581596 
	C71.808266,70.687813 71.433762,71.417152 70.787651,72.601669 
	C70.188957,73.683769 69.861870,74.310684 69.129395,74.895111 
	C66.443573,79.083557 62.436596,80.272011 58.103668,80.954666 
	C57.388882,81.067284 56.735596,81.570236 56.053886,81.892792 
	C54.971371,81.925201 53.888859,81.957611 52.478130,81.606064 
	C54.430965,75.343857 57.043613,69.566681 58.877117,63.551994 
	C60.110565,59.505749 58.079372,57.263924 53.503937,57.796432 
	C51.665123,57.252010 49.895050,57.020996 48.214577,56.452877 
	C51.966476,54.829250 55.628773,53.542728 59.812893,52.072895 
	C58.497372,51.172726 57.732841,50.649578 57.363094,50.118626 
	C59.355637,49.844536 60.964756,49.621933 62.526169,49.215878 
	C62.632824,49.188141 62.381840,47.785179 62.168472,46.712559 
	C61.706409,46.112534 61.373055,45.821732 61.062256,45.445618 
	C61.084816,45.360302 61.026310,45.193787 61.288185,45.107235 
	C61.840401,44.824451 62.130737,44.628216 62.421070,44.431980 
	C62.005028,44.322033 61.588982,44.212082 60.722584,44.073700 
	C58.467693,44.012077 56.663158,43.978886 54.900917,43.736671 
	C54.943214,43.527653 54.951488,43.101219 54.979454,42.716309 
	C55.245995,40.576260 55.484573,38.821117 55.723156,37.065979 
z"/>
<path fill="#E6E5E3" opacity="1.000000" stroke="none" 
	d="
M76.221191,26.539837 
	C77.592392,24.973728 78.946213,23.779087 80.551590,22.421118 
	C82.182625,24.150457 84.346497,25.917286 84.677124,27.978216 
	C84.913696,29.452854 82.693306,31.321653 81.569153,33.014587 
	C79.812347,31.638920 77.999718,30.325352 76.344261,28.836966 
	C75.999237,28.526764 76.235458,27.570068 76.221191,26.539837 
z"/>
<path fill="#972A2B" opacity="1.000000" stroke="none" 
	d="
M69.901917,27.349567 
	C68.693176,27.401413 67.506462,27.085096 66.088600,26.555836 
	C65.532082,24.137556 65.206711,21.932222 64.713562,18.589672 
	C67.121544,19.708290 68.978951,20.571142 70.926369,21.780397 
	C70.652237,23.745001 70.288086,25.363203 69.901917,27.349567 
z"/>
<path fill="#433E7C" opacity="1.000000" stroke="none" 
	d="
M88.475250,24.087330 
	C88.687920,24.253115 88.689217,24.633541 88.686981,24.824226 
	C88.095718,24.538265 87.506699,24.061617 86.969025,23.271240 
	C87.434441,23.278856 87.848511,23.600201 88.475250,24.087330 
z"/>
<path fill="#4E4A7F" opacity="1.000000" stroke="none" 
	d="
M90.992714,29.240356 
	C91.421135,29.690609 91.837822,30.498882 92.156143,31.645596 
	C91.698837,31.188816 91.339905,30.393597 90.992714,29.240356 
z"/>
<path fill="#3F3A75" opacity="1.000000" stroke="none" 
	d="
M94.117630,35.503532 
	C94.124062,36.066769 94.077148,36.343258 93.996239,37.042580 
	C93.611877,36.540482 93.261520,35.615555 92.968628,34.320065 
	C93.372162,34.371929 93.718224,34.794357 94.117630,35.503532 
z"/>
<path fill="#3F3A75" opacity="1.000000" stroke="none" 
	d="
M92.003220,32.270897 
	C92.404655,32.411983 92.781731,32.877167 93.107834,33.671928 
	C92.697525,33.532673 92.338196,33.063831 92.003220,32.270897 
z"/>
<path fill="#433E7C" opacity="1.000000" stroke="none" 
	d="
M86.018204,21.809420 
	C86.304634,21.761934 86.605110,22.066256 86.975098,22.685953 
	C86.707153,22.721296 86.369698,22.441261 86.018204,21.809420 
z"/>
<path fill="#433A5C" opacity="1.000000" stroke="none" 
	d="
M64.061127,6.670944 
	C63.200699,6.759485 62.281853,6.687309 61.124336,6.355407 
	C61.621662,6.107223 62.357666,6.118765 63.459663,6.173963 
	C63.825665,6.217617 64.002716,6.510227 64.061127,6.670944 
z"/>
<path fill="#F6D266" opacity="1.000000" stroke="none" 
	d="
M53.572678,58.109833 
	C58.079372,57.263924 60.110565,59.505749 58.877117,63.551994 
	C57.043613,69.566681 54.430965,75.343857 52.074486,81.555588 
	C48.937790,81.433739 45.876526,80.978416 42.387882,80.534576 
	C41.633369,80.150284 41.306240,79.754517 41.133263,79.098450 
	C40.378242,78.202736 39.469067,77.567345 38.280945,76.818497 
	C37.088188,76.444351 36.174385,76.183647 35.172173,75.579605 
	C33.792217,73.755219 32.500668,72.274162 31.209114,70.793106 
	C31.209114,70.793106 31.369658,70.739067 31.400934,70.658264 
	C31.298861,70.105797 31.165508,69.634117 30.968143,68.792519 
	C32.791584,67.605011 34.679039,66.787437 37.308800,66.003845 
	C45.076965,68.369492 50.529587,65.584450 53.572678,58.109833 
z"/>
<path fill="#AF4276" opacity="1.000000" stroke="none" 
	d="
M31.124975,71.157562 
	C32.500668,72.274162 33.792217,73.755219 35.088997,75.963760 
	C35.102905,77.474426 35.111588,78.257607 35.074398,79.357635 
	C34.975826,80.097046 34.923122,80.519600 34.870422,80.942146 
	C32.444038,79.885674 30.017658,78.829208 27.591274,77.772736 
	C28.741127,75.689163 29.890982,73.605598 31.124975,71.157562 
z"/>
<path fill="#AE4276" opacity="1.000000" stroke="none" 
	d="
M69.534775,74.937592 
	C69.861870,74.310684 70.188957,73.683769 70.750549,72.910477 
	C72.589859,74.077568 74.194679,75.391037 75.799492,76.704514 
	C73.812073,78.137627 71.824661,79.570740 69.476524,80.577682 
	C69.255455,78.413536 69.395119,76.675560 69.534775,74.937592 
z"/>
<path fill="#200F10" opacity="1.000000" stroke="none" 
	d="
M69.129395,74.895111 
	C69.395119,76.675560 69.255455,78.413536 69.109146,80.592331 
	C65.356506,85.144119 60.931408,81.387939 56.472404,81.990036 
	C56.735596,81.570236 57.388882,81.067284 58.103668,80.954666 
	C62.436596,80.272011 66.443573,79.083557 69.129395,74.895111 
z"/>
<path fill="#E57422" opacity="1.000000" stroke="none" 
	d="
M35.091805,81.220245 
	C34.923122,80.519600 34.975826,80.097046 35.385223,79.486000 
	C36.833294,79.520912 37.924667,79.744331 39.012749,80.307632 
	C38.918198,81.089737 38.826942,81.531960 38.735687,81.974182 
	C37.594852,81.815567 36.454021,81.656960 35.091805,81.220245 
z"/>
<path fill="#B0470D" opacity="1.000000" stroke="none" 
	d="
M39.131031,82.018250 
	C38.826942,81.531960 38.918198,81.089737 39.015148,80.053146 
	C39.019436,79.288902 39.018032,79.119026 39.343819,79.019943 
	C40.107044,79.180069 40.543076,79.269417 40.979111,79.358757 
	C41.306240,79.754517 41.633369,80.150284 42.112099,80.754868 
	C41.351257,81.329903 40.438816,81.696106 39.131031,82.018250 
z"/>
<path fill="#F6D366" opacity="1.000000" stroke="none" 
	d="
M55.418228,37.052811 
	C55.484573,38.821117 55.245995,40.576260 54.627953,42.660988 
	C53.536621,43.044395 52.824753,43.098213 51.782906,43.182041 
	C51.043716,43.876858 50.634506,44.541664 49.995110,45.499557 
	C48.005444,48.598862 49.590317,49.714504 52.098755,50.077076 
	C53.691051,50.307224 55.343075,50.124176 56.968311,50.126427 
	C57.732841,50.649578 58.497372,51.172726 59.812893,52.072895 
	C55.628773,53.542728 51.966476,54.829250 47.822174,56.561260 
	C44.292931,57.679287 41.245686,58.351830 38.198441,59.024368 
	C36.394638,58.371052 34.590839,57.717731 32.418369,57.068748 
	C30.824875,57.793453 29.600048,58.513821 26.783968,60.170067 
	C27.666025,56.561924 27.822796,53.925488 28.945206,51.798656 
	C30.613405,48.637615 33.381203,46.033722 34.897369,42.822689 
	C36.182980,40.099930 36.358192,36.852863 37.021088,33.415154 
	C43.049370,34.341549 49.081337,35.690598 55.418228,37.052811 
z"/>
<path fill="#C9D7D8" opacity="1.000000" stroke="none" 
	d="
M38.023937,59.323925 
	C41.245686,58.351830 44.292931,57.679287 47.732578,56.898361 
	C49.895050,57.020996 51.665123,57.252010 53.503937,57.796432 
	C50.529587,65.584450 45.076965,68.369492 37.698387,65.923599 
	C37.513592,63.747414 37.681515,61.685448 38.023937,59.323925 
z"/>
<path fill="#C87320" opacity="1.000000" stroke="none" 
	d="
M57.363094,50.118622 
	C55.343075,50.124176 53.691051,50.307224 52.098755,50.077076 
	C49.590317,49.714504 48.005444,48.598862 50.244755,45.484497 
	C51.297573,45.451263 51.870560,45.726181 52.882896,46.042122 
	C55.206612,45.753407 57.090973,45.423672 59.167053,45.086746 
	C59.631031,45.108696 59.846222,45.235043 60.102417,45.841934 
	C60.899395,46.490772 61.598286,46.756279 62.297180,47.021786 
	C62.381840,47.785179 62.632824,49.188141 62.526169,49.215878 
	C60.964756,49.621933 59.355637,49.844536 57.363094,50.118622 
z"/>
<path fill="#DD9852" opacity="1.000000" stroke="none" 
	d="
M60.004333,45.458599 
	C59.846222,45.235043 59.631031,45.108696 58.735878,45.084030 
	C56.223175,45.392696 54.333363,45.696896 52.443546,46.001099 
	C51.870560,45.726181 51.297573,45.451263 50.474945,45.191410 
	C50.634506,44.541664 51.043716,43.876858 51.932693,43.454422 
	C53.227848,43.779758 54.043236,43.862724 54.858624,43.945694 
	C56.663158,43.978886 58.467693,44.012077 60.663841,44.343628 
	C61.045734,44.825924 61.036022,45.009853 61.026310,45.193787 
	C61.026310,45.193787 61.084816,45.360302 60.803596,45.425804 
	C60.349689,45.480400 60.177010,45.469498 60.004333,45.458599 
z"/>
<path fill="#554029" opacity="1.000000" stroke="none" 
	d="
M54.900917,43.736671 
	C54.043236,43.862724 53.227848,43.779758 52.262672,43.424412 
	C52.824753,43.098213 53.536621,43.044395 54.599991,43.045898 
	C54.951488,43.101219 54.943214,43.527653 54.900917,43.736671 
z"/>
<path fill="#824C1F" opacity="1.000000" stroke="none" 
	d="
M60.102417,45.841934 
	C60.177010,45.469498 60.349689,45.480400 60.781036,45.511116 
	C61.373055,45.821732 61.706409,46.112534 62.168472,46.712559 
	C61.598286,46.756279 60.899395,46.490772 60.102417,45.841934 
z"/>
<path fill="#442815" opacity="1.000000" stroke="none" 
	d="
M61.288185,45.107235 
	C61.036022,45.009853 61.045734,44.825924 61.114197,44.372063 
	C61.588982,44.212082 62.005028,44.322033 62.421070,44.431980 
	C62.130737,44.628216 61.840401,44.824451 61.288185,45.107235 
z"/>
<path fill="#BE5B12" opacity="1.000000" stroke="none" 
	d="
M39.016632,78.949150 
	C39.018032,79.119026 39.019436,79.288902 39.018440,79.713257 
	C37.924667,79.744331 36.833294,79.520912 35.431091,79.169144 
	C35.111588,78.257607 35.102905,77.474426 35.177399,76.307098 
	C36.174385,76.183647 37.088188,76.444351 38.182922,77.172302 
	C38.581444,78.076080 38.799038,78.512611 39.016632,78.949150 
z"/>
<path fill="#4F341C" opacity="1.000000" stroke="none" 
	d="
M39.343819,79.019943 
	C38.799038,78.512611 38.581444,78.076080 38.461868,77.285744 
	C39.469067,77.567345 40.378242,78.202736 41.133263,79.098450 
	C40.543076,79.269417 40.107044,79.180069 39.343819,79.019943 
z"/>
<path fill="#442815" opacity="1.000000" stroke="none" 
	d="
M52.882896,46.042118 
	C54.333363,45.696896 56.223175,45.392696 58.544163,45.091217 
	C57.090973,45.423672 55.206612,45.753407 52.882896,46.042118 
z"/>
</svg>