<svg width="24" height="24" viewBox="0 0 24 24" fill="none" xmlns="http://www.w3.org/2000/svg">
<circle cx="12" cy="12" r="8.25" stroke="currentColor" stroke-opacity="1" stroke-width="1.5"/>
<path d="M9.64017 9.10983C9.49372 8.96339 9.25628 8.96339 9.10983 9.10983C8.96339 9.25628 8.96339 9.49371 9.10983 9.64016L11.4697 12L9.10984 14.3598C8.96339 14.5063 8.96339 14.7437 9.10984 14.8902C9.25628 15.0366 9.49372 15.0366 9.64017 14.8902L12 12.5303L14.3598 14.8901C14.5063 15.0366 14.7437 15.0366 14.8902 14.8901C15.0366 14.7437 15.0366 14.5062 14.8902 14.3598L12.5304 12L14.8902 9.64022C15.0366 9.49377 15.0366 9.25634 14.8902 9.10989C14.7437 8.96345 14.5063 8.96345 14.3598 9.10989L12 11.4697L9.64017 9.10983Z" fill="currentColor" fill-opacity="1"/>
<path fill-rule="evenodd" clip-rule="evenodd" d="M9.46339 9.28661C9.41457 9.2378 9.33543 9.2378 9.28661 9.28661C9.2378 9.33543 9.2378 9.41457 9.28661 9.46338L11.6465 11.8232C11.6934 11.8701 11.7197 11.9337 11.7197 12C11.7197 12.0663 11.6934 12.1299 11.6465 12.1768L9.28661 14.5366C9.2378 14.5854 9.2378 14.6646 9.28661 14.7134L9.10984 14.8902L9.28661 14.7134C9.33543 14.7622 9.41457 14.7622 9.46339 14.7134L11.8233 12.3535C11.9209 12.2559 12.0792 12.2559 12.1768 12.3535L14.5366 14.7133C14.5854 14.7621 14.6646 14.7621 14.7134 14.7133C14.7622 14.6645 14.7622 14.5854 14.7134 14.5366L12.3536 12.1768C12.3067 12.1299 12.2804 12.0663 12.2804 12C12.2804 11.9337 12.3067 11.8701 12.3536 11.8232L14.7134 9.46344C14.7622 9.41462 14.7622 9.33548 14.7134 9.28667C14.6646 9.23785 14.5854 9.23785 14.5366 9.28667L12.1768 11.6465C12.0792 11.7441 11.9209 11.7441 11.8233 11.6465L9.46339 9.28661ZM8.93306 8.93306C9.17714 8.68898 9.57286 8.68898 9.81694 8.93306L12 11.1161L14.1831 8.93311C14.4271 8.68904 14.8229 8.68904 15.0669 8.93311C15.311 9.17719 15.311 9.57292 15.0669 9.81699L12.8839 12L15.0669 14.183C15.311 14.4271 15.311 14.8228 15.0669 15.0669C14.8229 15.311 14.4271 15.311 14.1831 15.0669L12 12.8839L9.81694 15.0669C9.57286 15.311 9.17714 15.311 8.93306 15.0669C8.68898 14.8229 8.68898 14.4271 8.93306 14.1831L11.1161 12L8.93306 9.81694C8.68898 9.57286 8.68898 9.17713 8.93306 8.93306Z" fill="currentColor" fill-opacity="1"/>
</svg>
