<svg width="24" height="24" viewBox="0 0 24 24" fill="none" xmlns="http://www.w3.org/2000/svg">
    <path fill-rule="evenodd" clip-rule="evenodd" d="M1 4C1 2.34315 2.34315 1 4 1H20C21.6569 1 23 2.34315 23 4V20C23 21.6569 21.6569 23 20 23H4C2.34315 23 1 21.6569 1 20V4ZM4 3C3.44772 3 3 3.44772 3 4V20C3 20.5523 3.44772 21 4 21H20C20.5523 21 21 20.5523 21 20V4C21 3.44772 20.5523 3 20 3H4Z" fill="currentColor" fill-opacity="0.9"/>
    <path fill-rule="evenodd" clip-rule="evenodd" d="M6.16795 10.5547C5.8616 10.0952 5.98577 9.4743 6.4453 9.16795L9.4453 7.16795C9.75215 6.96338 10.1467 6.94431 10.4719 7.11833C10.797 7.29234 11 7.6312 11 8V16C11 16.5523 10.5523 17 10 17C9.44771 17 9 16.5523 9 16V9.86852L7.5547 10.8321C7.09517 11.1384 6.4743 11.0142 6.16795 10.5547Z" fill="currentColor" fill-opacity="0.9"/>
    <path fill-rule="evenodd" clip-rule="evenodd" d="M14 7C13.4477 7 13 7.44772 13 8V16C13 16.4045 13.2436 16.7691 13.6173 16.9239C13.991 17.0787 14.4211 16.9931 14.7071 16.7071L17.7071 13.7071C18.0976 13.3166 18.0976 12.6834 17.7071 12.2929C17.3166 11.9024 16.6834 11.9024 16.2929 12.2929L15 13.5858V8C15 7.44772 14.5523 7 14 7Z" fill="currentColor" fill-opacity="0.9"/>
    </svg>
    