<svg width="24" height="24" viewBox="0 0 24 24" fill="none" xmlns="http://www.w3.org/2000/svg">
<path fill-rule="evenodd" clip-rule="evenodd" d="M7 6C7 5.44772 7.44772 5 8 5L18 5C18.2652 5 18.5196 5.10536 18.7071 5.29289C18.8946 5.48043 19 5.73478 19 6L19 16C19 16.5523 18.5523 17 18 17C17.4477 17 17 16.5523 17 16L17 8.41421L6.70711 18.7071C6.31658 19.0976 5.68342 19.0976 5.29289 18.7071C4.90237 18.3166 4.90237 17.6834 5.29289 17.2929L15.5858 7L8 7C7.44772 7 7 6.55228 7 6Z" fill="currentColor" fill-opacity="0.9"/>
</svg>
