<svg width="24" height="24" viewBox="0 0 24 24" fill="none" xmlns="http://www.w3.org/2000/svg">
<path fill-rule="evenodd" clip-rule="evenodd" d="M5.10403 3.72715C3.31325 4.80162 2 6.41262 2 8.36364V15.6364C2 17.5874 3.31325 19.1984 5.10403 20.2729C6.91291 21.3582 9.35318 22 12 22C14.6468 22 17.0871 21.3582 18.896 20.2729C20.6868 19.1984 22 17.5874 22 15.6364V8.36364C22 6.41262 20.6868 4.80162 18.896 3.72715C17.0871 2.64182 14.6468 2 12 2C9.35318 2 6.91291 2.64182 5.10403 3.72715ZM6.03948 5.28623C4.54 6.18591 3.81818 7.30219 3.81818 8.36364C3.81818 9.42509 4.54 10.5414 6.03948 11.441C7.52086 12.3299 9.62605 12.9091 12 12.9091C14.3739 12.9091 16.4791 12.3299 17.9605 11.441C19.46 10.5414 20.1818 9.42509 20.1818 8.36364C20.1818 7.30219 19.46 6.18591 17.9605 5.28623C16.4791 4.3974 14.3739 3.81818 12 3.81818C9.62605 3.81818 7.52086 4.3974 6.03948 5.28623ZM20.1811 12.0568C19.7948 12.4052 19.3615 12.7208 18.896 13.0001C17.0871 14.0855 14.6468 14.7273 12 14.7273C9.35318 14.7273 6.91291 14.0855 5.10403 13.0001C4.63848 12.7208 4.20519 12.4052 3.81887 12.0568C3.84415 13.1012 4.56672 14.1938 6.03948 15.0774C7.52086 15.9662 9.62605 16.5455 12 16.5455C14.3739 16.5455 16.4791 15.9662 17.9605 15.0774C19.4333 14.1938 20.1559 13.1012 20.1811 12.0568ZM3.81887 15.6931C4.20519 16.0416 4.63848 16.3572 5.10403 16.6365C6.91291 17.7218 9.35318 18.3636 12 18.3636C14.6468 18.3636 17.0871 17.7218 18.896 16.6365C19.3615 16.3572 19.7948 16.0416 20.1811 15.6931C20.1559 16.7375 19.4333 17.8301 17.9605 18.7138C16.4791 19.6026 14.3739 20.1818 12 20.1818C9.62605 20.1818 7.52086 19.6026 6.03948 18.7138C4.56672 17.8301 3.84415 16.7375 3.81887 15.6931Z" fill="currentColor" fill-opacity="0.9"/>
</svg>
