<svg width="16" height="16" viewBox="0 0 16 16" fill="none" xmlns="http://www.w3.org/2000/svg">
<path d="M12.3636 7.99999C12.3636 10.4099 10.4099 12.3636 7.99999 12.3636C5.5901 12.3636 3.63635 10.4099 3.63635 7.99999C3.63635 5.5901 5.5901 3.63635 7.99999 3.63635C10.4099 3.63635 12.3636 5.5901 12.3636 7.99999Z" fill="#F9D71C"/>
<path d="M7.99999 2.18181C8.19285 2.18181 8.37791 2.10518 8.51428 1.96882C8.65064 1.83246 8.72726 1.64739 8.72726 1.45453V0.727262C8.72726 0.46736 8.58863 0.227273 8.36363 0.0974026C8.13862 -0.0324675 7.86135 -0.0324675 7.63635 0.0974026C7.41136 0.227273 7.27272 0.467368 7.27272 0.727262V1.45453C7.27272 1.64739 7.34934 1.83246 7.4857 1.96882C7.62207 2.10518 7.80713 2.18181 7.99999 2.18181Z" fill="#F9D71C"/>
<path d="M7.99999 13.8182C7.80713 13.8182 7.62207 13.8948 7.4857 14.0312C7.34934 14.1675 7.27272 14.3526 7.27272 14.5454V15.2727C7.27272 15.5326 7.41135 15.7727 7.63635 15.9026C7.86135 16.0324 8.13863 16.0324 8.36363 15.9026C8.58862 15.7727 8.72726 15.5326 8.72726 15.2727V14.5454C8.72726 14.3526 8.65064 14.1675 8.51428 14.0312C8.37791 13.8948 8.19285 13.8182 7.99999 13.8182Z" fill="#F9D71C"/>
<path d="M2.85796 3.88363C2.99433 4.01918 3.17858 4.09515 3.3708 4.09515C3.56284 4.09515 3.74726 4.01918 3.88346 3.88363C4.01901 3.74743 4.09498 3.56301 4.09498 3.37096C4.09498 3.17875 4.01901 2.9945 3.88346 2.85813L3.37437 2.34172V2.34189C3.18995 2.15731 2.92097 2.08523 2.669 2.15276C2.41703 2.22029 2.22012 2.41721 2.15259 2.66917C2.08506 2.92112 2.15714 3.1901 2.34172 3.37454L2.85796 3.88363Z" fill="#F9D71C"/>
<path d="M13.142 12.1164C12.9547 11.956 12.699 11.9014 12.4626 11.9712C12.2263 12.0412 12.0413 12.2261 11.9714 12.4624C11.9016 12.6988 11.9561 12.9545 12.1165 13.1418L12.6256 13.6582V13.6581C12.7628 13.7943 12.9487 13.8701 13.142 13.8691C13.3352 13.8701 13.5211 13.7943 13.6583 13.6581C13.7961 13.5216 13.8735 13.3357 13.8735 13.1418C13.8735 12.9479 13.7961 12.762 13.6583 12.6254L13.142 12.1164Z" fill="#F9D71C"/>
<path d="M1.45454 7.27272H0.727263C0.46736 7.27272 0.227273 7.41135 0.0974026 7.63635C-0.0324675 7.86135 -0.0324675 8.13863 0.0974026 8.36363C0.227273 8.58862 0.467369 8.72726 0.727263 8.72726H1.45454C1.71444 8.72726 1.95453 8.58863 2.0844 8.36363C2.21427 8.13862 2.21427 7.86135 2.0844 7.63635C1.95453 7.41136 1.71443 7.27272 1.45454 7.27272Z" fill="#F9D71C"/>
<path d="M15.2727 7.27272H14.5454C14.2855 7.27272 14.0455 7.41135 13.9156 7.63635C13.7857 7.86135 13.7857 8.13863 13.9156 8.36363C14.0455 8.58862 14.2856 8.72726 14.5454 8.72726H15.2727C15.5326 8.72726 15.7727 8.58863 15.9026 8.36363C16.0324 8.13862 16.0324 7.86135 15.9026 7.63635C15.7727 7.41136 15.5326 7.27272 15.2727 7.27272Z" fill="#F9D71C"/>
<path d="M2.85796 12.1164L2.34156 12.6254H2.34172C2.2039 12.762 2.12646 12.9478 2.12646 13.1418C2.12646 13.3357 2.2039 13.5216 2.34172 13.6581C2.4789 13.7943 2.66477 13.8701 2.85796 13.8691C3.0513 13.8701 3.23718 13.7943 3.37437 13.6581L3.88346 13.1417V13.1418C4.04385 12.9545 4.09839 12.6988 4.02859 12.4624C3.95862 12.2261 3.77372 12.0412 3.53737 11.9712C3.301 11.9014 3.04531 11.956 2.85796 12.1164Z" fill="#F9D71C"/>
<path d="M12.6254 4.10181C12.8198 4.101 13.0058 4.02242 13.1418 3.88363L13.6583 3.37453H13.6581C13.8427 3.19012 13.9147 2.92113 13.8472 2.66916C13.7797 2.41719 13.5828 2.22029 13.3308 2.15276C13.0789 2.08523 12.8099 2.1573 12.6254 2.34188L12.1163 2.85829V2.85813C11.9808 2.99449 11.9048 3.17874 11.9048 3.37096C11.9048 3.563 11.9808 3.74742 12.1163 3.88362C12.2506 4.02063 12.4336 4.09905 12.6254 4.10181Z" fill="#F9D71C"/>
</svg>
