<svg width="24" height="24" viewBox="0 0 24 24" fill="none" xmlns="http://www.w3.org/2000/svg">
<path fill-rule="evenodd" clip-rule="evenodd" d="M12 7C9.23858 7 7 9.23858 7 12C7 14.7614 9.23858 17 12 17C14.7614 17 17 14.7614 17 12C17 9.23858 14.7614 7 12 7ZM9 12C9 10.3431 10.3431 9 12 9C13.6569 9 15 10.3431 15 12C15 13.6569 13.6569 15 12 15C10.3431 15 9 13.6569 9 12Z" fill="currentColor" fill-opacity="0.9"/>
<path fill-rule="evenodd" clip-rule="evenodd" d="M11.9998 0C10.343 0 8.99982 1.34315 8.99982 3V3.5124C7.94579 3.88495 6.98255 4.44786 6.15122 5.15921L5.70552 4.90188C4.27065 4.07346 2.43588 4.56508 1.60745 5.99996C0.779021 7.43484 1.27065 9.26961 2.70552 10.098L3.15005 10.3547C3.05133 10.8887 2.99982 11.4387 2.99982 12C2.99982 12.5657 3.05213 13.1198 3.15235 13.6577L2.70171 13.912C1.25595 14.7277 0.753514 16.5663 1.58351 18.0039C2.41087 19.4369 4.24613 19.9234 5.67467 19.0883L6.12968 18.8223C6.96478 19.5414 7.93406 20.1103 8.99553 20.4861L8.99126 20.9738C8.97666 22.6408 10.324 24 11.9911 24C13.6376 24 14.9765 22.6728 14.9909 21.0263L14.9956 20.4891C16.0505 20.1168 17.0146 19.5539 17.8466 18.8423L18.2608 19.0839C19.6965 19.9212 21.5393 19.4318 22.3703 17.9924C23.1961 16.562 22.7104 14.7332 21.2836 13.901L20.8492 13.6476C20.9482 13.1129 20.9998 12.5621 20.9998 12C20.9998 11.4379 20.9482 10.8872 20.8492 10.3524L21.2837 10.099C22.7104 9.26686 23.1961 7.438 22.3703 6.00762C21.5393 4.56826 19.6964 4.07884 18.2608 4.9162L17.8467 5.15772C17.0157 4.44708 16.0531 3.88469 14.9998 3.5124V3C14.9998 1.34315 13.6567 0 11.9998 0ZM10.9998 3C10.9998 2.44772 11.4475 2 11.9998 2C12.5521 2 12.9998 2.44772 12.9998 3V4.25204C12.9998 4.70832 13.3087 5.10674 13.7506 5.22047C15.0006 5.54222 16.1171 6.20155 16.9962 7.09734C17.3184 7.42565 17.823 7.49182 18.219 7.25767L18.4319 7.13175L18.437 7.1287L19.2684 6.64382C19.747 6.3647 20.3612 6.52784 20.6382 7.00762C20.9135 7.48441 20.7516 8.09402 20.276 8.3714L19.439 8.85958L19.2339 8.96997C18.8224 9.19143 18.6191 9.6684 18.7444 10.1186C18.9106 10.7161 18.9998 11.3468 18.9998 12C18.9998 12.6521 18.9109 13.2818 18.7452 13.8785C18.6215 14.3237 18.819 14.7957 19.2229 15.0202L19.4332 15.1371L20.276 15.6287C20.7516 15.906 20.9135 16.5156 20.6382 16.9924C20.3612 17.4722 19.747 17.6354 19.2684 17.3563L18.4319 16.8683C18.4233 16.8634 18.4147 16.8585 18.4061 16.8538L18.1813 16.7315C17.7893 16.5181 17.3034 16.5904 16.9904 16.9086C16.1122 17.8014 14.9979 18.4585 13.7506 18.7795C13.3087 18.8933 12.9998 19.2917 12.9998 19.748V19.9956L12.991 21.0088C12.9861 21.5576 12.5399 22 11.9911 22C11.4354 22 10.9863 21.5469 10.9912 20.9913L10.9998 20.0088V19.748C10.9998 19.2917 10.691 18.8933 10.2491 18.7795C8.99055 18.4556 7.86744 17.7895 6.98564 16.8845C6.66501 16.5554 6.16138 16.4871 5.76473 16.719L4.66534 17.3617C4.19403 17.6372 3.58853 17.4767 3.31556 17.0039C3.04173 16.5296 3.20749 15.923 3.68448 15.6539L4.78653 15.0321C5.18755 14.8058 5.38224 14.335 5.25813 13.8916C5.09003 13.291 4.99982 12.6569 4.99982 12C4.99982 11.3498 5.0882 10.7219 5.25301 10.1268C5.3739 9.6903 5.1863 9.22704 4.79575 8.99764L4.57803 8.86973L3.70552 8.36598C3.22723 8.08984 3.06336 7.47825 3.3395 6.99996C3.61564 6.52167 4.22723 6.35779 4.70552 6.63393L5.55515 7.12447L5.75229 7.24847C6.15062 7.49902 6.66975 7.43795 6.99906 7.10179C7.87883 6.20373 8.99693 5.54275 10.2491 5.22047C10.691 5.10674 10.9998 4.70832 10.9998 4.25204V3Z" fill="currentColor" fill-opacity="0.9"/>
</svg>
