<svg width="20" height="20" viewBox="0 0 20 20" fill="none" xmlns="http://www.w3.org/2000/svg">
<path fill-rule="evenodd" clip-rule="evenodd" d="M10.0143 6.87501C8.30889 6.87501 6.92639 8.27412 6.92639 10C6.92639 11.7259 8.30889 13.125 10.0143 13.125C11.7197 13.125 13.1022 11.7259 13.1022 10C13.1022 8.27412 11.7197 6.87501 10.0143 6.87501ZM8.16155 10C8.16155 8.96448 8.99106 8.12501 10.0143 8.12501C11.0375 8.12501 11.867 8.96448 11.867 10C11.867 11.0355 11.0375 11.875 10.0143 11.875C8.99106 11.875 8.16155 11.0355 8.16155 10Z" fill="currentColor"/>
<path fill-rule="evenodd" clip-rule="evenodd" d="M10.0142 2.5C8.99095 2.5 8.16144 3.33947 8.16144 4.375V4.69525C7.51049 4.9281 6.91562 5.27992 6.4022 5.72451L6.12695 5.56368C5.24079 5.04591 4.10767 5.35318 3.59605 6.24998C3.08443 7.14678 3.38805 8.29351 4.2742 8.81128L4.54873 8.97169C4.48776 9.30544 4.45595 9.6492 4.45595 10C4.45595 10.3535 4.48826 10.6999 4.55015 11.0361L4.27184 11.195C3.37897 11.7048 3.06868 12.8539 3.58127 13.7524C4.09223 14.6481 5.22565 14.9521 6.10789 14.4302L6.3889 14.264C6.90464 14.7134 7.50325 15.069 8.15879 15.3038L8.15616 15.6086C8.14714 16.6505 8.97922 17.5 10.0088 17.5C11.0257 17.5 11.8525 16.6705 11.8614 15.6415L11.8643 15.3057C12.5158 15.073 13.1112 14.7212 13.6251 14.2765L13.8809 14.4274C14.7675 14.9508 15.9056 14.6449 16.4188 13.7453C16.9288 12.8513 16.6288 11.7082 15.7477 11.1882L15.4794 11.0298C15.5405 10.6956 15.5724 10.3513 15.5724 10C15.5724 9.6487 15.5405 9.30448 15.4794 8.97029L15.7477 8.81189C16.6288 8.2918 16.9288 7.14876 16.4188 6.25477C15.9056 5.35517 14.7675 5.04928 13.8808 5.57263L13.6251 5.72358C13.1119 5.27943 12.5174 4.92794 11.8669 4.69525V4.375C11.8669 3.33947 11.0374 2.5 10.0142 2.5ZM9.39661 4.375C9.39661 4.02982 9.67311 3.75 10.0142 3.75C10.3553 3.75 10.6318 4.02982 10.6318 4.375V5.15753C10.6318 5.4427 10.8225 5.69172 11.0954 5.7628C11.8674 5.96389 12.557 6.37597 13.0999 6.93584C13.2989 7.14104 13.6105 7.18239 13.855 7.03605L13.9865 6.95735L13.9897 6.95544L14.5031 6.65239C14.7987 6.47794 15.178 6.5799 15.3491 6.87977C15.5191 7.17776 15.4191 7.55877 15.1254 7.73213L14.6085 8.03725L14.4818 8.10624C14.2277 8.24465 14.1021 8.54276 14.1795 8.82416C14.2822 9.1976 14.3373 9.59179 14.3373 10C14.3373 10.4076 14.2824 10.8011 14.18 11.174C14.1036 11.4523 14.2256 11.7473 14.475 11.8876L14.6049 11.9607L15.1254 12.2679C15.4191 12.4413 15.5191 12.8223 15.3491 13.1203C15.178 13.4201 14.7987 13.5221 14.5031 13.3477L13.9865 13.0427C13.9812 13.0396 13.9759 13.0366 13.9706 13.0336L13.8318 12.9572C13.5897 12.8239 13.2896 12.869 13.0963 13.0679C12.5539 13.6259 11.8657 14.0366 11.0954 14.2372C10.8225 14.3083 10.6318 14.5573 10.6318 14.8425V14.9973L10.6263 15.6305C10.6233 15.9735 10.3477 16.25 10.0088 16.25C9.66561 16.25 9.38827 15.9669 9.39127 15.6196L9.39661 15.0055V14.8425C9.39661 14.5573 9.20586 14.3083 8.93296 14.2372C8.15572 14.0348 7.4621 13.6185 6.91752 13.0528C6.7195 12.8471 6.40848 12.8045 6.16351 12.9494L5.48455 13.3511C5.19347 13.5232 4.81953 13.4229 4.65095 13.1274C4.48183 12.831 4.58421 12.4519 4.87879 12.2837L5.55939 11.8951C5.80705 11.7537 5.92729 11.4594 5.85064 11.1823C5.74683 10.8069 5.69112 10.4106 5.69112 10C5.69112 9.59365 5.7457 9.20119 5.84748 8.82926C5.92214 8.55645 5.80628 8.26691 5.56509 8.12354L5.43063 8.04359L4.89178 7.72875C4.5964 7.55616 4.49519 7.17391 4.66573 6.87498C4.83627 6.57605 5.21398 6.47363 5.50936 6.64622L6.03408 6.9528L6.15583 7.0303C6.40183 7.18689 6.72244 7.14872 6.92581 6.93863C7.46914 6.37734 8.15966 5.96423 8.93296 5.7628C9.20586 5.69172 9.39661 5.4427 9.39661 5.15753V4.375Z" fill="currentColor"/>
</svg>
